<?xml version="1.0" encoding="utf-8"?>
<!-- Generator: Adobe Illustrator 25.4.1, SVG Export Plug-In . SVG Version: 6.00 Build 0)  -->
<svg version="1.1" id="Layer_1" xmlns="http://www.w3.org/2000/svg" xmlns:xlink="http://www.w3.org/1999/xlink" x="0px" y="0px"
	 viewBox="0 0 500 500" style="enable-background:new 0 0 500 500;" xml:space="preserve">
<style type="text/css">
	.st0{fill:#D0E5F6;}
	.st1{fill:#338CCC;}
	.st2{fill:#C6E8ED;}
	.st3{fill:#93CBDC;}
	.st4{fill:#228FB9;}
	.st5{opacity:0.3;}
	.st6{fill:#6091B1;}
	.st7{fill:#1CA8C0;}
	.st8{fill:#323031;}
	.st9{fill:#FFFFFF;}
	.st10{fill:#1F666E;}
</style>
<g id="beta8_00000058576382726107035930000008047503201145151648_">
	<g>
		<g>
			<g>
				<g>
					<path class="st0" d="M9.04,247.48c1.19,42.13,11.36,85.91,32.86,122.25c55.62,94.01,144.72,98.82,242.57,100.84
						c52.22,1.08,110.09-5.32,149.21-44.68c49.54-49.85,62.06-128.48,57.34-196.62c-3.02-43.51-14.06-84.22-39.64-119.66
						c-23.84-33.03-55.35-61.55-91.73-79.27C319.81,10.92,276.28,6.06,232.54,8.15c-40.34,1.92-80.82,8.91-116.99,28.13
						c-36.48,19.39-64.92,49.3-82.56,87.36C15.24,161.95,7.84,205.21,9.04,247.48z"/>
					<path class="st1" d="M283.89,471.87c-91.62-1.89-186.37-3.83-244.28-101.46C13.88,327.03,7.4,279.64,6.48,247.53
						c-1.27-44.69,7.08-87.72,24.14-124.44c17.65-37.99,46.47-68.4,83.34-87.94c32.06-17,69.51-25.99,117.82-28.28
						c5.29-0.25,10.54-0.4,15.61-0.44c43.49-0.33,80.27,7.11,112.44,22.75c35.11,17.06,67.08,44.62,92.45,79.67
						c23.54,32.53,36.62,71.89,39.99,120.34c7.88,113.51-32.87,172.54-57.87,197.62c-30.22,30.33-73.69,44.67-136.79,45.16
						c0,0,0,0-0.01,0C293.22,472,288.6,471.97,283.89,471.87z M231.91,9.44c-47.94,2.28-85.05,11.17-116.77,27.99
						c-36.38,19.29-64.81,49.28-82.22,86.76c-16.89,36.35-25.16,78.97-23.9,123.26c0.9,31.81,7.32,78.73,32.76,121.63
						C98.96,465.49,193,467.42,283.94,469.29c4.69,0.1,9.29,0.13,13.66,0.1c0,0,0.01,0,0.01,0c62.41-0.48,105.32-14.59,135.04-44.41
						c24.69-24.77,64.94-83.13,57.12-195.61c-3.33-47.94-16.25-86.86-39.5-118.98c-25.13-34.72-56.77-61.99-91.5-78.88
						C326.94,16.03,290.52,8.68,247.42,9C242.39,9.04,237.17,9.19,231.91,9.44z"/>
				</g>
				<path class="st2" d="M7.75,247.49c1.19,42.13,11.39,85.91,32.94,122.25c55.76,94.01,145.11,98.82,243.22,100.84
					c52.36,1.08,110.38-5.32,149.61-44.69c49.68-49.85,62.23-128.48,57.5-196.62c-3.02-43.51-14.1-84.22-39.74-119.66
					c-23.9-33.03-55.5-61.55-91.98-79.27C319.36,10.92,275.71,6.07,231.85,8.15c-40.45,1.92-81.04,8.91-117.3,28.13
					c-36.58,19.39-65.09,49.3-82.78,87.36C13.97,161.96,6.55,205.22,7.75,247.49z M92.85,207.61c3.38-8.02,9.28-14.73,14.47-21.55
					c5.22-6.85,9-13.6,10.49-21.8c-0.72-5.28-0.72-10.05,0.64-14.93c-0.19-5.4-0.46-10.8,0.33-16.15
					c1.42-9.53,7.34-17.84,10.5-26.83c2.68-7.63,4.91-15.5,9.73-22.08c5.38-7.35,13.6-10.79,22.02-13.13
					c4.89-1.35,9.85-2.35,14.68-3.97c6.13-2.05,11.1-5.62,15.58-10.29c6.45-6.72,11.56-14.49,19.25-19.9
					c9.16-6.45,21.22-8.42,32.11-8.85c12.02-0.48,24.07,1.72,35.78,4.2c9.06,1.92,18.03,4.35,27.18,5.79
					c7.44,1.17,14.96,1.84,22.45,2.58c17.15,1.69,34.86,3.27,50.84,10.33c9.31,4.11,16.66,10.47,21.79,18.49
					c10.97,10.95,19.23,25,29.67,36.34c13.03,14.16,26.55,27.93,33.02,46.64c3.98,11.53,4.96,24.29,7.02,36.27
					c2.26,13.15,4.69,26.28,7.35,39.35c1.98,9.77,2.43,19.66,0.51,29.47c-1.81,9.24-5.94,17.85-10.26,26.1
					c-5.3,10.13-11.12,19.47-13.78,30.77c-2.41,10.25-3.1,20.83-5.62,31.05c-4.8,19.45-19.53,34.54-37.41,42.17
					c-8.77,3.74-18.31,5.33-27.76,5.78c-10.58,0.5-20.82-1.69-31.34-2.01c-10.45-0.32-20.08,2.92-29.25,7.78
					c-9.55,5.06-18.01,11.75-28.66,14.27c-8.98,2.13-18.32,1.03-27.42,0.6c-4.99-0.23-9.97-0.18-14.94,0.33
					c-5.76,0.58-11.29,2.65-16.71,4.59c-8.75,3.12-17.43,5.85-26.7,3.51c-10.64-2.69-17.3-11.79-24.16-19.76
					c-3.9-4.53-7.97-8.48-13.18-11.41c-5.17-2.9-10.96-4.38-16.66-5.74c-9.51-2.26-18.67-4.71-26.58-10.81
					c-12.42-9.58-15.16-25.39-15.31-40.34c-0.11-10.26,1.24-20.48,0.66-30.73c-0.03-0.5-0.1-0.98-0.14-1.48
					c-0.13-1.3-0.27-2.6-0.41-3.9c-1.45-10.51-5.23-19.95-9.49-29.81C94.96,249.56,84.04,228.47,92.85,207.61z"/>
				<path class="st2" d="M31.77,123.64c17.69-38.06,46.2-67.96,82.78-87.36c22.57-11.96,46.81-19.19,71.65-23.4
					c-1.16,0.66-2.32,1.37-3.45,2.15c-6.1,4.23-11.49,9.36-16.78,14.57c-3.42,3.37-6.7,7.2-11.02,9.39
					c-4.39,2.23-9.12,3.28-13.97,3.9c-7.75,1.01-16.15,1.45-23.01,5.68c-7.14,4.39-12.05,11.56-16.07,18.85
					c-5,9.09-9.11,19.22-16.31,26.81c-6.79,7.17-14.83,13.05-21.74,20.12c-6.13,6.27-11.49,13.13-14.96,21.3
					c-4,9.45-4.06,19.24-3.94,29.35c0.14,12.44-0.42,24.49-3.82,36.51c-3.17,11.23-9.29,22.05-10.25,33.84
					c-1.84,22.5,14.16,40.83,15.04,62.84c0.73,18.35,0.21,37.52,11.6,52.94c6.2,8.38,14.09,15.06,21.83,21.88
					c3.96,3.48,7.92,7.06,11.26,11.19c3.44,4.25,5.78,8.83,8.3,13.66c7.82,15,18.92,26.25,34.95,31.7
					c11.14,3.78,22.23,4.64,33.91,4.56c12.83-0.09,25.05,0.91,37.35,4.92c19.11,6.21,37.16,16.3,57.83,14.93
					c12.28-0.81,24.27-4.48,36.31-6.82c13.5-2.63,26.06-3.06,39.63-0.76c10.03,1.7,20.5,3.87,30.65,1.92
					c11.04-2.11,19.78-8.52,28.43-15.48c9.41-7.56,18.68-14.64,28.9-21.01c7.98-4.98,15.42-10.92,21.27-18.42
					c6.39-8.19,10.8-17.34,14.95-26.86c4.77-10.93,9.3-22.01,12.99-33.38c3.65-11.25,6.67-22.78,8.09-34.56
					c0.74-6.1,1.18-12.26,0.94-18.4c-0.23-6.02-0.82-11.96-0.63-18c0.42-13.3,3.34-25.98,5.09-39.08c0.19-1.43,0.37-2.85,0.54-4.28
					c0.35,3.47,0.67,6.94,0.91,10.44c4.73,68.14-7.82,146.77-57.5,196.62c-39.23,39.36-97.25,45.77-149.61,44.69
					c-98.11-2.02-187.45-6.83-243.22-100.84C19.13,333.4,8.94,289.62,7.75,247.49C6.55,205.22,13.97,161.96,31.77,123.64z"/>
				<g>
					<g>
						<path class="st3" d="M87.94,272.56c-9.35,20.42-0.66,41.53,17.36,46.99c0,0-6.02,32.66,26.03,39.47
							c12.02,29.94,42.7,25.88,42.7,25.88s10.69,24.48,44.06,16.31c14.7,18.39,42.05,12.27,55.41-1.36
							c16,13.6,32.79,5.27,48.04-6.13c10.01-7.47,25.37,0.67,38.06-13.6c12.67-14.28,12.67-15.65,22.02-18.38
							c9.33-2.72,16.01-8.84,17.34-31.98c1.34-15.68,14.69-7.5,15.35-34.04c0.66-26.54-1.32-19.73,4-29.95
							c5.34-10.22,1.35-15.65-1.33-26.54c-2.66-10.92,6.03-25.87-7.34-40.84c-8-9.52-4.67-10.22-6-23.12
							c-1.36-12.96-6.67-12.96-12.69-19.08c-4.67-5.44-2.66-21.78-23.35-33.35c-11.36-5.44-11.36-6.79-17.35-12.92
							c-6.02-6.13-18.7-10.19-29.36-10.19c0,0-16.7-26.56-50.74-18.37c-27.36-12.96-52.06-10.25-65.39,7.46
							c-12.67-5.46-24.71,10.92-24.71,10.92c-22.69-6.16-37.39,10.19-43.38,23.79c-25.38-4.07-40.71,24.49-36.04,42.19
							c0,0-15.35,9.53-12.02,23.84c-16.7,13.59-9.36,36.74-6.01,44.22C72.6,250.12,77.27,259.66,87.94,272.56z"/>
						<path class="st4" d="M217.62,402.64c-4.34,1.01-8.54,1.52-12.49,1.52c-20.86,0-29.87-14.26-31.83-17.91
							c-0.67,0.05-1.69,0.11-2.99,0.11l0,0c-8.76,0-30.04-2.57-39.89-26.23c-28.74-6.52-27.21-33.76-26.52-39.68
							c-8.13-2.78-14.53-8.7-18.09-16.78c-4.11-9.32-3.87-20.54,0.65-30.9c-10.95-13.39-14.72-23.29-5.28-39.08
							c-2.12-5.04-11.32-29.77,6.04-44.62c-2.46-12.86,8.81-21.72,11.97-23.92c-2.1-9.35,0.82-21,7.57-29.98
							c7.35-9.77,17.86-14.53,29.16-13.05c5.68-12.25,17.58-25,34.52-25c2.97,0,6.04,0.39,9.14,1.17
							c2.11-2.64,10.19-11.86,19.83-11.86c1.69,0,3.34,0.29,4.94,0.86c7.89-10.01,19.48-15.29,33.58-15.29
							c10.12,0,21.01,2.7,32.36,8.02c4.28-1,8.5-1.5,12.58-1.5c23.38,0,36.31,16.59,38.68,19.95c11.34,0.17,23.69,4.56,29.6,10.57
							c1.02,1.04,1.86,1.94,2.62,2.75c3.64,3.89,5.14,5.49,14.44,9.95c15.04,8.41,18.51,19.51,20.81,26.85
							c0.9,2.88,1.68,5.38,2.82,6.71c1.49,1.52,2.94,2.64,4.33,3.73c4.11,3.2,7.65,5.96,8.72,16.14c0.4,3.84,0.38,6.63,0.38,8.86
							c-0.02,5.23-0.03,7.19,5.3,13.53c9.3,10.41,8.37,20.68,7.55,29.74c-0.39,4.23-0.75,8.23,0.09,11.64
							c0.57,2.32,1.19,4.36,1.79,6.32c2.15,7.06,3.86,12.65-0.57,21.14c-0.6,1.13-1.1,2.06-1.52,2.85c-2.2,4.06-2.2,4.06-2.18,11.2
							c0.01,3.21,0.03,8.07-0.15,15.32c-0.39,15.77-5.19,19.81-9.43,23.39c-3.02,2.55-5.41,4.56-5.93,10.7
							c-1.35,23.48-8.28,30.23-18.25,33.14c-7.63,2.23-8.65,3.4-16.61,12.53c-1.38,1.58-2.96,3.39-4.82,5.49
							c-7.76,8.72-16.52,9.43-24.25,10.06c-5.21,0.42-10.14,0.82-14.01,3.71c-8.36,6.25-19.43,13.42-30.9,13.42
							c-6.33,0-12.32-2.23-17.81-6.61c-7.99,7.68-19.68,12.41-30.8,12.41C235.59,413.98,225.46,411.99,217.62,402.64z
							 M274.31,398.86c5.34,4.54,10.93,6.74,17.08,6.74c10.73,0,21.35-6.91,29.41-12.93c4.44-3.31,9.72-3.75,15.3-4.2
							c7.61-0.62,15.48-1.26,22.57-9.22c1.85-2.08,3.42-3.89,4.8-5.46c8.03-9.2,9.47-10.86,17.81-13.29
							c9.2-2.69,15.16-8.78,16.43-30.85c0.62-7.24,3.78-9.91,6.84-12.49c4-3.38,8.15-6.87,8.51-21.47
							c0.18-7.21,0.16-12.05,0.15-15.25c-0.02-7.51-0.03-7.8,2.5-12.45c0.42-0.78,0.91-1.69,1.5-2.82
							c3.93-7.54,2.52-12.16,0.39-19.16c-0.58-1.91-1.25-4.08-1.84-6.46c-0.94-3.84-0.55-8.06-0.15-12.51
							c0.77-8.53,1.65-18.2-6.93-27.8c-5.96-7.1-5.95-9.82-5.93-15.24c0.01-2.17,0.02-4.88-0.37-8.58
							c-0.95-9.07-3.79-11.29-7.74-14.36c-1.39-1.09-2.97-2.31-4.64-4.02c-1.55-1.8-2.4-4.53-3.39-7.69
							c-2.31-7.37-5.47-17.46-19.55-25.34c-9.66-4.62-11.37-6.45-15.13-10.46c-0.75-0.8-1.58-1.69-2.58-2.71
							c-5.5-5.6-17.74-9.82-28.47-9.82h-0.69l-0.38-0.59c-0.12-0.19-12.44-19.35-36.96-19.35c-4.01,0-8.2,0.52-12.43,1.53l-0.42,0.1
							l-0.4-0.19c-11.16-5.29-21.82-7.97-31.69-7.97c-13.64,0-24.75,5.2-32.16,15.04l-0.59,0.79l-0.9-0.39
							c-1.56-0.67-3.2-1.01-4.87-1.01c-9.74,0-18.25,11.4-18.34,11.51l-0.51,0.7l-0.83-0.22c-3.16-0.86-6.29-1.3-9.3-1.3
							c-16.13,0-27.42,12.59-32.61,24.37l-0.4,0.9l-0.95-0.15c-10.69-1.73-20.73,2.64-27.71,11.93c-6.4,8.52-9.18,20.04-6.91,28.65
							l0.24,0.93l-0.81,0.5c-0.15,0.1-14.53,9.2-11.44,22.44l0.18,0.8l-0.63,0.51c-17.64,14.35-6.93,39.82-5.65,42.68l0.28,0.63
							l-0.36,0.59c-9.26,15.12-5.69,24.06,5.23,37.26l0.52,0.63l-0.34,0.75c-4.53,9.88-4.88,20.64-0.97,29.51
							c3.41,7.73,9.64,13.3,17.55,15.7l1.09,0.33l-0.21,1.14c-0.24,1.28-5.44,31.49,25.05,37.97l0.66,0.14l0.26,0.63
							c9.15,22.8,29.49,25.26,37.81,25.26c2.2,0,3.55-0.18,3.56-0.18l0.93-0.12l0.38,0.88c0.08,0.17,7.77,17.22,29.95,17.22
							c3.98,0,8.24-0.55,12.66-1.63l0.77-0.19l0.51,0.63c7.27,9.1,16.91,11.01,23.71,11.01c10.7,0,22.41-4.89,29.83-12.46l0.82-0.83
							L274.31,398.86z"/>
					</g>
				</g>
				<g>
					<g class="st5">
						<g>
							<path class="st6" d="M209.8,98.62c-17.87-4.74-41.56,9.61-48.21,26.08c-0.54,1.35,0.88,0.83,1.33,0.12
								c5.81-9.25,12.45-15.45,22.77-19.3c7.42-2.79,15.25-2.36,22.83-4.14C209.22,101.24,211.02,98.95,209.8,98.62z"/>
							<path class="st7" d="M161.79,126.76L161.79,126.76c-0.53,0-1-0.24-1.28-0.66c-0.33-0.49-0.35-1.12-0.06-1.86
								c6.08-15.05,25.32-27.77,42.03-27.77c2.67,0,5.23,0.32,7.64,0.96c0.82,0.22,1.34,0.91,1.31,1.76
								c-0.04,1.27-1.5,3.14-2.66,3.38c-3.12,0.73-6.32,1.1-9.42,1.46c-4.61,0.53-8.96,1.03-13.24,2.63
								c-9.48,3.53-16.11,9.16-22.17,18.8C163.54,126.11,162.66,126.76,161.79,126.76z M202.48,98.91
								c-10.32,0-21.67,5.12-29.9,12.64c3.7-3.05,7.84-5.37,12.68-7.17c4.55-1.71,9.25-2.25,13.81-2.77
								c3.03-0.35,6.16-0.71,9.16-1.41c0.08-0.06,0.3-0.32,0.49-0.59C206.76,99.15,204.66,98.91,202.48,98.91z"/>
						</g>
						<g>
							<path class="st6" d="M125.9,185.92c-10.65,3.88-17.53,17.18-14.01,28.11c0.41,1.38,2.98-1.82,2.89-2.75
								c-1.01-9.81,1.43-18.77,10.63-23.73C125.79,187.36,126.71,185.61,125.9,185.92z"/>
							<path class="st7" d="M112.28,215.59L112.28,215.59c-0.73,0-1.33-0.46-1.55-1.21c-3.66-11.34,3.37-25.47,14.76-29.62
								l0.58-0.11c0.65,0,1.19,0.43,1.34,1.06c0.24,0.99-0.74,2.57-1.44,2.93c-7.71,4.15-11.08,11.73-9.97,22.51
								c0.14,1.24-1.24,2.83-1.51,3.14C113.69,215.17,112.97,215.59,112.28,215.59z M115.28,196.71
								c-2.77,4.83-3.86,10.61-2.53,15.86c0.38-0.45,0.76-1.02,0.82-1.31C112.98,205.63,113.55,200.76,115.28,196.71z"/>
						</g>
						<g>
							<path class="st6" d="M203.19,163.4c-2.52,0.63-5.11-0.31-7.64-0.05c-2.58,0.25-5.16,1.84-7.21,3.3
								c-4,2.84-7.29,7.28-8.07,12.19c-0.4,2.28,2.45-0.33,2.75-1.24c1.59-5.05,4.84-8.25,9.66-10.28c3.19-1.35,6.84,0.12,9.87-1.72
								C202.96,165.35,204.43,163.09,203.19,163.4z"/>
							<path class="st7" d="M180.61,180.98L180.61,180.98c-0.48,0-0.9-0.19-1.19-0.54c-0.55-0.64-0.39-1.52-0.34-1.81
								c0.77-4.86,3.97-9.72,8.56-12.98c2.09-1.48,4.87-3.23,7.8-3.51c1.16-0.12,2.36-0.01,3.54,0.11c1.39,0.14,2.84,0.24,3.91-0.03
								l0.5-0.07c0.7,0,1.26,0.42,1.45,1.07c0.34,1.24-1.1,3.08-1.65,3.42c-1.91,1.17-3.93,1.2-5.89,1.23
								c-1.48,0.02-2.88,0.05-4.13,0.57c-4.7,1.98-7.55,5.01-8.97,9.53C183.86,178.97,182,180.98,180.61,180.98z M196.52,164.52
								c-0.28,0-0.56,0.01-0.84,0.04c-2.36,0.23-4.78,1.77-6.63,3.08c-0.85,0.6-1.65,1.27-2.39,1.98c1.53-1.38,3.38-2.52,5.55-3.43
								c1.69-0.71,3.39-0.74,5.04-0.77c1.48-0.02,2.89-0.05,4.12-0.59c-0.85-0.01-1.76-0.07-2.64-0.16
								C198,164.6,197.26,164.52,196.52,164.52z"/>
						</g>
						<g>
							<path class="st6" d="M116.21,269.71c-6.77-9.73-10.22-19.68-2.6-30.11c0.45-0.63,0.18-1.42-0.5-0.63
								c-3.6,4.24-6.25,8.18-6.77,13.81c-0.63,7.11,2.75,14.7,7.7,19.61C114.77,273.1,116.73,270.46,116.21,269.71z"/>
							<path class="st7" d="M114.35,273.74L114.35,273.74c-0.43,0-0.84-0.17-1.14-0.47c-5.53-5.47-8.69-13.55-8.07-20.59
								c0.53-5.77,3.09-9.83,7.05-14.49c0.44-0.51,0.92-0.76,1.42-0.76h0.75l0.53,0.78c0.31,0.62,0.21,1.44-0.28,2.11
								c-6.24,8.53-5.45,17.11,2.61,28.7c0.31,0.45,0.54,1.25-0.13,2.5C116.97,271.75,115.88,273.74,114.35,273.74z M108.2,249.5
								c-0.31,1.08-0.53,2.2-0.64,3.41c-0.55,6.15,2.14,13.21,6.88,18.16c0.24-0.26,0.49-0.65,0.59-0.9
								C111.04,264.38,107.24,257.28,108.2,249.5z"/>
						</g>
						<g>
							<path class="st6" d="M179.34,262.91c-3.28-2.76-6.87-5.65-9.13-9.34c-2.85-4.7-0.29-9.44,2.12-13.55
								c0.65-1.11-0.4-1.12-0.96-0.33c-3.09,4.35-5.31,7.38-5.24,12.97c0.1,6.29,6.02,10.8,10.94,13.49
								C178.16,266.72,180.32,263.73,179.34,262.91z"/>
							<path class="st7" d="M177.38,267.44L177.38,267.44c-0.31,0-0.61-0.07-0.88-0.22c-7.5-4.09-11.49-9.12-11.58-14.55
								c-0.08-5.91,2.31-9.26,5.33-13.51c1.09-1.54,2.72-1.54,3.31-0.51c0.22,0.39,0.38,1.05-0.17,1.98
								c-2.58,4.39-4.51,8.35-2.13,12.29c2.01,3.3,5.19,5.96,8.26,8.53l0.61,0.51c0.32,0.27,1.03,1.07,0.48,2.59
								C180.19,265.73,178.87,267.44,177.38,267.44z M167.75,248.83c-0.27,1.14-0.41,2.38-0.4,3.81c0.09,5.58,5.47,9.75,10.06,12.3
								c0.34-0.22,0.81-0.88,0.93-1.27l-0.4-0.33c-3.23-2.7-6.56-5.49-8.78-9.13C168.08,252.4,167.7,250.59,167.75,248.83z"/>
						</g>
						<g>
							<path class="st6" d="M236.6,248.35c-4.07-3.1-7.6-6.52-9.4-11.43c-1.13-3.18-0.58-6.53,0.71-9.51
								c0.59-1.43,0.83-2.34,0.52-3.81c-0.11-0.51-1.03,0.63-1.07,0.89c-0.3,2.61-2.43,4.81-3.06,7.43
								c-0.49,2.17-0.69,4.47-0.21,6.66c1.24,5.87,4.79,10.47,10.3,12.88C235.5,251.94,237.58,249.13,236.6,248.35z"/>
							<path class="st7" d="M234.66,252.74L234.66,252.74c-0.26,0-0.51-0.05-0.74-0.15c-5.76-2.52-9.67-7.4-11.01-13.75
								c-0.47-2.12-0.4-4.47,0.21-7.19c0.33-1.37,0.97-2.56,1.6-3.71c0.67-1.23,1.3-2.4,1.43-3.59c0.08-0.63,1.06-2.1,2.15-2.1h0.98
								l0.33,1.09c0.38,1.75,0.1,2.9-0.58,4.54c-0.95,2.18-1.83,5.43-0.69,8.63c1.8,4.89,5.56,8.24,9,10.87
								c0.71,0.56,0.92,1.49,0.56,2.51C237.49,251.09,236.14,252.74,234.66,252.74z M225.37,232.76c-0.42,2.11-0.45,3.94-0.09,5.57
								c1.16,5.49,4.5,9.72,9.4,11.94c0.31-0.18,0.77-0.76,0.91-1.14c-3.64-2.8-7.58-6.41-9.54-11.78
								C225.53,235.9,225.31,234.36,225.37,232.76z"/>
						</g>
						<g>
							<path class="st6" d="M244.27,183.37c-4.92-3.78-9.97-3.55-15.14-0.52c-2.91,1.67-5.98,4.38-6,7.98
								c-0.02,0.89,1.25-0.59,1.35-0.93c0.84-3.61,6.05-5.48,9.18-5.64c2.88-0.16,5.67,1.43,8.28,2.39
								C243.09,187.09,245.31,184.19,244.27,183.37z"/>
							<path class="st7" d="M223.28,192.33h-0.51l-0.45-0.4c-0.19-0.2-0.42-0.55-0.41-1.12c0.02-3.37,2.37-6.58,6.62-9.01
								c5.88-3.45,11.46-3.24,16.48,0.61c0.72,0.56,0.93,1.51,0.58,2.54c-0.43,1.25-1.85,2.97-3.4,2.97l0,0
								c-0.24,0-0.48-0.04-0.69-0.12c-0.62-0.23-1.25-0.5-1.9-0.77c-1.83-0.77-3.72-1.56-5.53-1.56l-0.34,0.01
								c-2.89,0.15-7.41,1.91-8.06,4.7C225.52,190.65,224.47,192.33,223.28,192.33z M234.07,183.03c2.31,0,4.43,0.89,6.48,1.75
								c0.61,0.26,1.22,0.51,1.81,0.73c0.15-0.11,0.78-0.89,0.93-1.35c-4.07-3.01-8.3-3.17-13.13-0.49c1.2-0.37,2.39-0.58,3.43-0.63
								C233.75,183.03,233.91,183.03,234.07,183.03z"/>
						</g>
						<g>
							<path class="st6" d="M249.13,133.86c-1.63-5.26-8.85-6.45-13.54-6.21c-4.9,0.23-9.49,2.82-12.61,6.51
								c-0.68,0.8-0.69,2.31,0.49,1.13c3.3-3.3,7.86-4.05,12.36-3.67c4.74,0.37,6.99,3.35,10.77,5.37
								C247.83,137.65,249.44,134.86,249.13,133.86z"/>
							<path class="st7" d="M246.99,138.31L246.99,138.31c-0.34,0-0.67-0.09-0.97-0.25c-1.27-0.68-2.35-1.45-3.4-2.19
								c-2.14-1.51-3.99-2.82-6.89-3.05c-0.66-0.05-1.31-0.08-1.96-0.08c-4,0-7.17,1.15-9.44,3.41c-0.33,0.34-0.86,0.8-1.55,0.8
								c-0.57,0-1.07-0.33-1.31-0.84c-0.4-0.86-0.01-2.02,0.59-2.73c3.54-4.18,8.45-6.71,13.49-6.95c0.38-0.02,0.78-0.03,1.19-0.03
								c2.67,0,11.53,0.51,13.57,7.09c0.34,1.09-0.29,2.49-0.92,3.36C248.68,137.79,247.83,138.31,246.99,138.31z M233.76,130.3
								c0.72,0,1.44,0.03,2.15,0.1c3.57,0.28,5.87,1.91,8.1,3.48c0.94,0.67,1.92,1.35,2.99,1.95c0.38-0.26,0.96-1.27,0.93-1.68
								c-1.21-3.9-6.6-5.31-11.22-5.31c-0.37,0-0.73,0.01-1.07,0.03c-2.35,0.11-4.72,0.83-6.88,2.05
								C230.29,130.51,231.96,130.3,233.76,130.3z"/>
						</g>
						<g>
							<path class="st6" d="M291.72,197.79c-0.75,0.07-2.47,2.27-1.35,2.51c9.35,2.05,14.41,12.67,15.12,21.48
								c0.15,1.7,2.52-1.08,2.63-1.86C309.49,210.39,302.91,196.69,291.72,197.79z"/>
							<path class="st7" d="M305.89,223.53L305.89,223.53c-0.73,0-1.51-0.51-1.6-1.66c-0.69-8.47-5.42-18.47-14.17-20.39
								c-0.84-0.18-1.37-0.88-1.32-1.74c0.07-1.21,1.54-3.05,2.82-3.17c4.66-0.45,8.93,1.4,12.29,5.27
								c4.13,4.77,6.32,12.1,5.43,18.25C309.19,221.05,307.43,223.53,305.89,223.53z M291.58,199.34
								c8.88,2.52,13.86,12.21,14.99,20.91c0.18-0.23,0.33-0.46,0.37-0.59c0.76-5.31-1.25-12.01-4.89-16.21
								c-1.93-2.23-5.4-4.91-10.21-4.44C291.81,199.04,291.7,199.17,291.58,199.34z"/>
						</g>
						<g>
							<path class="st6" d="M313.09,157.6c-0.59,0.09-1.93,2.11-1.02,2.24c9.8,1.1,14.21,9.38,17.65,17.57
								c0.47,1.11,2.25-1.44,2.21-2.1C331.29,165.41,323.64,156.08,313.09,157.6z"/>
							<path class="st7" d="M330.06,178.9L330.06,178.9c-0.65,0-1.2-0.38-1.47-1.02c-3.19-7.6-7.38-15.79-16.67-16.83
								c-0.85-0.13-1.39-0.76-1.39-1.57c-0.01-1.12,1.22-2.91,2.36-3.09c11.61-1.66,19.6,8.78,20.24,18.84
								c0.06,1.03-0.99,2.36-1.39,2.79C331.18,178.62,330.63,178.9,330.06,178.9z M313.44,158.81c9.27,1.62,13.66,9.45,16.94,17.04
								c0.17-0.25,0.31-0.5,0.34-0.64c-0.57-8.59-7.29-17.72-17.25-16.42C313.46,158.79,313.45,158.79,313.44,158.81z"/>
						</g>
						<g>
							<path class="st6" d="M354.94,126.86c-1.57-1.61-3.32-2.98-5.41-3.84c-2.51-1.01-5.6,0.04-8.17,0.04
								c-0.72,0-2.24,2.03-1.25,2.29c1.93,0.54,3.93,0.65,5.92,0.92c2.14,0.3,3.8,2.36,5.28,3.75c3.06,2.92,5.43,6.52,7.41,10.23
								c0.7,1.31,2.79-1.73,2.71-2.59C360.86,133.25,357.99,129.93,354.94,126.86z"/>
							<path class="st7" d="M359.19,141.8L359.19,141.8c-0.66,0-1.22-0.35-1.55-0.97c-2.25-4.21-4.59-7.45-7.17-9.92
								c-0.27-0.25-0.54-0.52-0.82-0.81c-1.14-1.14-2.43-2.44-3.79-2.63c-0.51-0.07-1.02-0.12-1.54-0.18
								c-1.49-0.16-3.02-0.34-4.54-0.77c-0.82-0.21-1.31-0.95-1.2-1.84c0.14-1.09,1.47-2.84,2.78-2.84c0.77,0,1.63-0.11,2.53-0.23
								c2.11-0.27,4.44-0.4,6.1,0.27c2.02,0.84,3.92,2.18,5.82,4.12c2.96,2.97,6.18,6.57,6.83,11.5c0.1,1.07-0.83,2.49-1.47,3.21
								C360.51,141.44,359.84,141.8,359.19,141.8z M341.41,124.41c1.03,0.21,2.09,0.34,3.19,0.46c0.53,0.06,1.06,0.12,1.59,0.19
								c2.18,0.3,3.85,1.98,5.19,3.32c0.26,0.26,0.52,0.52,0.76,0.75c2.64,2.52,5.02,5.75,7.28,9.87c0.35-0.42,0.74-1.06,0.78-1.35
								c-0.54-4.01-3.45-7.24-6.13-9.94c-1.68-1.71-3.31-2.88-5.01-3.58c-1.17-0.47-3.06-0.34-4.86-0.11
								c-0.88,0.11-1.78,0.22-2.65,0.24C341.51,124.32,341.46,124.36,341.41,124.41z"/>
						</g>
						<g>
							<path class="st6" d="M356.12,227.25c-0.74-0.4-2.12,1.52-1.5,2.09c10.22,9.25,6.56,26.1-2.01,34.82
								c-0.88,0.91-1.53,3.74,0.45,2.26C363.26,258.73,370.68,234.75,356.12,227.25z"/>
							<path class="st7" d="M352.16,268.06L352.16,268.06c-0.65,0-1.21-0.37-1.47-0.98c-0.49-1.14,0.29-3,1.03-3.77
								c4.98-5.07,8.06-12.86,7.85-19.87c-0.16-5.35-2.16-9.91-5.79-13.2c-0.57-0.51-0.71-1.34-0.38-2.21
								c0.38-1,1.38-2.05,2.47-2.05h0.31l0.49,0.2c5.14,2.65,8.17,7.44,8.71,13.85c0.83,9.64-4.38,21.91-11.6,27.36
								C353.18,267.84,352.67,268.06,352.16,268.06z M355.77,228.75c3.92,3.71,6.08,8.76,6.25,14.62
								c0.15,5.05-1.18,10.31-3.65,14.93c3.19-5.47,5.09-12.35,4.6-18.06c-0.32-3.78-1.82-8.84-7.09-11.73
								C355.86,228.58,355.81,228.66,355.77,228.75z"/>
						</g>
						<g>
							<path class="st6" d="M400.61,216.86c-0.5-0.76-1.9,1.12-1.65,1.78c1.74,4.21,3.81,8.25,5.17,12.58
								c2.37,7.5-2.31,14.04-6.23,19.95c-0.6,0.92-0.81,3.25,0.78,1.78c4.58-4.3,7.41-9.71,9-15.75
								C409.71,229.46,404.58,222.96,400.61,216.86z"/>
							<path class="st7" d="M397.85,254.63L397.85,254.63c-0.58,0-1.09-0.31-1.38-0.82c-0.55-1.01-0.08-2.57,0.4-3.32l0.53-0.79
								c3.76-5.66,7.65-11.51,5.56-18.12c-0.89-2.86-2.14-5.66-3.35-8.38c-0.6-1.36-1.21-2.72-1.78-4.1
								c-0.35-0.91,0.16-1.86,0.49-2.35c0.33-0.48,1.03-1.29,1.98-1.29c0.54,0,1.02,0.26,1.33,0.73l1.22,1.86
								c3.74,5.61,7.97,11.98,6,19.46c-1.75,6.66-4.89,12.16-9.34,16.33C399.14,254.18,398.56,254.63,397.85,254.63z M400.2,218.45
								c0.52,1.25,1.08,2.51,1.64,3.77c1.24,2.77,2.52,5.65,3.45,8.63c1.98,6.25-0.54,11.79-3.63,16.77
								c2.14-3.08,3.76-6.67,4.83-10.74c1.7-6.42-2.05-12.04-5.67-17.49L400.2,218.45z"/>
						</g>
						<g>
							<path class="st6" d="M306.11,264.54c-0.4-1-2.34,1.41-2.1,2.3c1.16,3.97,1.48,8.18-0.33,12.03
								c-1.96,4.18-6.81,5.91-10.84,7.39c-0.73,0.27-2.88,3.45-1.54,3.33C303.4,288.48,310.71,275.46,306.11,264.54z"/>
							<path class="st7" d="M291.23,290.82c-0.79,0-1.41-0.51-1.55-1.27c-0.25-1.41,1.67-4.04,2.74-4.43
								c4.04-1.48,8.44-3.09,10.16-6.77c1.47-3.12,1.56-6.78,0.27-11.17c-0.29-1.09,0.51-2.29,0.87-2.75
								c0.47-0.62,1.21-1.34,2.1-1.34c0.65,0,1.2,0.39,1.44,1.01c2.35,5.59,1.84,12.14-1.37,17.49c-3.18,5.3-8.46,8.66-14.47,9.22
								L291.23,290.82z M301.36,283.5c-2.39,1.81-5.36,2.91-7.94,3.85c-0.19,0.12-0.47,0.46-0.74,0.83
								C296,287.56,299.01,285.93,301.36,283.5z M305.44,266.21c-0.12,0.19-0.21,0.38-0.23,0.49c0.68,2.26,1,4.43,0.97,6.48
								C306.42,270.84,306.18,268.46,305.44,266.21z"/>
						</g>
						<g>
							<path class="st6" d="M217.71,303.17c-9.43-1.49-22.87-1.01-23.25-13.78c-0.06-1.31-2.06,0.94-2.1,1.76
								c-0.65,13.2,12.54,16.82,23.53,15.42C216.84,306.42,219.22,303.44,217.71,303.17z"/>
							<path class="st7" d="M211.47,308.06L211.47,308.06c-7.1,0-12.96-2.05-16.51-5.78c-2.75-2.89-4.04-6.66-3.82-11.2
								c0.06-1.15,1.69-3.31,3.04-3.31c0.68,0,1.45,0.49,1.49,1.57c0.3,9.93,9.28,11.01,17.97,12.07c1.47,0.18,2.91,0.35,4.26,0.57
								c0.94,0.16,1.53,0.86,1.52,1.77c-0.01,1.48-1.95,3.82-3.34,4.03C214.53,307.97,212.99,308.06,211.47,308.06z M193.55,292.23
								c0.03,3.34,1.09,6.18,3.18,8.37c3.04,3.19,8.42,5.02,14.75,5.02l0,0c1.42,0,2.85-0.09,4.27-0.27
								c0.19-0.11,0.66-0.64,0.96-1.1c-1.08-0.15-2.2-0.29-3.36-0.43C205.29,302.85,195.42,301.66,193.55,292.23z"/>
						</g>
						<g>
							<path class="st6" d="M164.71,319.65c-6.95-6.97-17.34-16.19-11.13-27.01c0.57-1.03-0.37-1.08-0.89-0.33
								c-7.02,10.4-1.25,25.29,9.78,30.49C163.6,323.36,165.6,320.54,164.71,319.65z"/>
							<path class="st7" d="M162.79,324.09L162.79,324.09c-0.31,0-0.6-0.07-0.87-0.2c-6.08-2.86-10.84-8.62-12.71-15.4
								c-1.67-6.06-0.79-12.05,2.46-16.86c0.85-1.21,2.5-1.32,3.09-0.32c0.22,0.38,0.38,1.02-0.12,1.92
								c-5.38,9.38,2.95,17.65,9.65,24.29l1.28,1.27c0.64,0.64,0.75,1.63,0.31,2.72C165.35,322.79,164.11,324.09,162.79,324.09z
								 M150.83,302.63c0.01,1.71,0.25,3.46,0.74,5.22c1.66,6.04,5.86,11.17,11.24,13.77c0.33-0.2,0.81-0.87,0.89-1.24l-1.13-1.12
								C158.01,314.72,152.35,309.1,150.83,302.63z"/>
						</g>
						<g>
							<path class="st6" d="M171.87,352.15c-9.81,3.31-18.43,0.35-26.44-5.66c-7.83-5.86-10.72-13.41-11-22.9
								c-0.03-0.84-1.29,0.54-1.34,0.96c-1.47,11.03,0.9,18.74,9.09,26.47c8.05,7.57,18.98,10.43,28.67,4.61
								C171.55,355.23,173.68,351.54,171.87,352.15z"/>
							<path class="st7" d="M159.93,359.96c-6.47,0-13.06-2.86-18.57-8.04c-8.28-7.83-11.03-15.8-9.46-27.52
								c0.09-0.81,1.29-2.28,2.36-2.28c0.67,0,1.37,0.49,1.4,1.43c0.3,9.98,3.54,16.76,10.51,21.97c8.79,6.59,16.9,8.32,25.32,5.48
								c1.09-0.37,2.01,0.1,2.26,1.01c0.41,1.48-1.43,4.19-2.26,4.68C167.88,358.85,163.99,359.96,159.93,359.96z M133.88,330.03
								c-0.07,8.06,2.71,14.03,9.15,20.12c8.17,7.69,18.75,9.53,27.2,4.45c0.13-0.12,0.37-0.46,0.59-0.85
								c-8.64,2.47-17.16,0.44-26.12-6.27C138.79,343.04,135.27,337.41,133.88,330.03z"/>
						</g>
						<g>
							<path class="st6" d="M253.11,351.69c-7.18,2.78-13.66,3.88-21.03,1.12c-5.18-1.94-9.25-6.96-13.92-9.85
								c-0.73-0.45-2.25,1.67-1.57,2.19c5.01,3.78,9.31,10.49,15.55,12.35c7.2,2.17,13.44,0.9,20.01-2.54
								C252.93,354.56,254.67,351.08,253.11,351.69z"/>
							<path class="st7" d="M239.12,359.79L239.12,359.79c-2.43,0-4.83-0.37-7.33-1.12c-4.37-1.3-7.73-4.69-10.98-7.97
								c-1.69-1.7-3.29-3.31-4.95-4.57c-0.62-0.47-0.82-1.28-0.52-2.15c0.32-0.95,1.34-2.29,2.6-2.29h0.35l0.52,0.25
								c1.93,1.19,3.75,2.73,5.52,4.22c2.58,2.18,5.25,4.43,8.18,5.53c2.73,1.02,5.4,1.51,8.16,1.51c3.59,0,7.29-0.81,12.01-2.64
								c1.07-0.41,2.02,0.09,2.24,1.02c0.33,1.37-1.21,3.97-2.2,4.48C247.83,358.6,243.51,359.79,239.12,359.79z M217.75,344.51
								c1.65,1.31,3.25,2.92,4.79,4.47c3.04,3.06,6.18,6.23,9.95,7.35c2.27,0.69,4.44,1.02,6.63,1.02l0,0
								c3.98,0,7.93-1.1,12.46-3.47c0.09-0.07,0.21-0.25,0.34-0.48c-7.88,2.86-13.81,2.97-20.27,0.55c-3.33-1.24-6.16-3.63-8.9-5.94
								c-1.65-1.39-3.21-2.71-4.85-3.78C217.87,344.31,217.81,344.41,217.75,344.51z"/>
						</g>
						<g>
							<path class="st6" d="M251.92,378.65c-16.27,5.89-32.33,12.22-45.93-2.55c-0.6-0.63-2.44,1.73-1.78,2.52
								c12.65,15.85,30.76,11.35,46.77,3.16C251.71,381.41,253.46,378.09,251.92,378.65z"/>
							<path class="st7" d="M225.67,390.45C225.67,390.45,225.67,390.45,225.67,390.45c-9.01,0-16.55-3.72-22.41-11.06
								c-0.29-0.34-0.71-1.15-0.1-2.47c0.35-0.74,1.33-2.14,2.58-2.14c0.44,0,0.84,0.17,1.14,0.49c5.39,5.86,11.62,8.7,19.05,8.7
								c7.76,0,15.82-2.92,24.36-6.02l1.22-0.45c1.04-0.38,1.98,0.11,2.2,1.03c0.32,1.32-1.2,3.84-2.16,4.33
								C241.58,387.97,233.12,390.45,225.67,390.45z M205.32,378.06c10.08,12.42,24.23,13.32,45.11,2.64
								c0.05-0.04,0.12-0.15,0.21-0.28c-8.21,2.97-16.68,5.99-24.72,5.99c-7.9,0-14.54-2.91-20.28-8.89
								C205.51,377.69,205.38,377.9,205.32,378.06z"/>
						</g>
						<g>
							<path class="st6" d="M332.77,329.72c-3.16,9.44-10.97,12.03-19.97,13.62c-1.08,0.21-3.11,3.86-1.75,3.75
								c11.38-0.69,20.64-7.07,23.72-18.29C335.21,327.24,332.99,329,332.77,329.72z"/>
							<path class="st7" d="M311,348.32c-0.86,0-1.53-0.61-1.61-1.47c-0.14-1.48,1.63-4.39,3.18-4.7
								c9.7-1.72,16.25-4.45,19.05-12.81c0.27-0.88,1.82-2.38,2.98-2.38h0.61l0.55,0.56c0.31,0.42,0.38,0.96,0.19,1.62
								c-3.08,11.24-12.36,18.41-24.81,19.18L311,348.32z M326.28,340.12c-3.97,2.54-8.75,3.63-13.27,4.43
								c-0.17,0.12-0.58,0.7-0.87,1.24C317.72,345.24,322.55,343.26,326.28,340.12z"/>
						</g>
						<g>
							<path class="st6" d="M368.25,332.13c-0.73,13.77-16.93,15.58-27.39,18.21c-0.9,0.23-3.43,3.57-1.75,3.83
								c13.05,2,32.15-9.54,31.41-23.93C370.46,328.81,368.31,331.28,368.25,332.13z"/>
							<path class="st7" d="M342.19,355.61L342.19,355.61c-1.12,0-2.22-0.08-3.27-0.24c-0.92-0.14-1.55-0.82-1.6-1.73
								c-0.08-1.6,1.94-4.15,3.24-4.48c1.27-0.32,2.61-0.62,4.01-0.94c10.25-2.32,21.87-4.96,22.46-16.15
								c0.07-1.08,1.76-3.48,3.21-3.48c0.69,0,1.46,0.5,1.51,1.6c0.27,5.26-1.89,10.47-6.24,15.05
								C359.6,351.43,350.23,355.61,342.19,355.61z M339.95,353.05c7.71,0.88,17.75-3.15,23.78-9.51c0.11-0.12,0.22-0.24,0.33-0.35
								c-5.05,4.26-12.72,5.99-18.96,7.41c-1.38,0.31-2.7,0.61-3.95,0.93C340.91,351.67,340.27,352.45,339.95,353.05z"/>
						</g>
					</g>
				</g>
			</g>
		</g>
	</g>
	<g>
		<g>
			<g>
				<path class="st8" d="M112.22,170.31c4.04-7.44,9.12-14.37,14.86-20.78c5.77-6.38,12.34-12.22,19.78-17
					c7.45-4.79,15.84-8.52,24.84-10.5c8.99-1.99,18.52-2.18,27.76-0.68l-3.53,15.15c-7.19-2.33-14.81-3.41-22.52-2.91
					c-7.71,0.47-15.47,2.5-22.83,5.78c-7.38,3.28-14.38,7.75-20.82,12.99C123.34,157.62,117.34,163.6,112.22,170.31z"/>
			</g>
			<g>
				<path class="st8" d="M373.79,170.31c-5.13-6.71-11.14-12.69-17.56-17.95c-6.45-5.25-13.43-9.72-20.82-12.99
					c-7.36-3.28-15.12-5.31-22.82-5.78c-7.71-0.51-15.33,0.58-22.53,2.91l-3.52-15.15c9.24-1.49,18.76-1.31,27.75,0.68
					c9.01,1.98,17.4,5.71,24.83,10.5c7.47,4.79,14.02,10.62,19.79,17C364.65,155.94,369.74,162.88,373.79,170.31z"/>
			</g>
		</g>
		<g>
			<g>
				<g>
					<path class="st9" d="M223.98,239.66c-12.48,36.42-44.79,58.34-72.15,48.96c-27.36-9.38-39.41-46.51-26.93-82.93
						c12.49-36.43,44.79-58.34,72.15-48.96C224.42,166.11,236.48,203.24,223.98,239.66z"/>
					<path class="st8" d="M164.95,293.02c-4.74,0-9.41-0.78-13.83-2.29c-13.91-4.78-24.49-16.4-29.8-32.75
						c-5.23-16.11-4.7-34.94,1.49-53.01c10.63-31,35.77-52.63,61.14-52.63c4.75,0,9.4,0.77,13.83,2.28
						c13.9,4.77,24.5,16.41,29.8,32.74c5.23,16.12,4.7,34.96-1.49,53.01C215.47,271.37,190.32,293.02,164.95,293.02z M183.95,156.79
						c-23.5,0-46.92,20.4-56.93,49.62c-5.9,17.15-6.42,34.98-1.47,50.19c4.88,14.98,14.45,25.61,27.01,29.91
						c3.96,1.36,8.13,2.05,12.39,2.05c23.5,0,46.91-20.41,56.93-49.63c5.89-17.17,6.4-34.99,1.47-50.2
						c-4.86-14.98-14.46-25.61-27.02-29.91C192.37,157.48,188.2,156.79,183.95,156.79z"/>
				</g>
				<g>
					<g>
						<path class="st4" d="M212.31,252.5c-8.11,19.13-26.06,29.8-40.09,23.85c-14.02-5.95-18.79-26.28-10.67-45.4
							c8.12-19.12,26.06-29.81,40.09-23.84C215.65,213.07,220.44,233.38,212.31,252.5z"/>
					</g>
					<g>
						<path class="st8" d="M200.26,247.39c-4.26,10.05-13.69,15.66-21.06,12.52c-7.36-3.13-9.87-13.8-5.6-23.84
							c4.26-10.05,13.69-15.65,21.05-12.53C202.02,226.67,204.53,237.35,200.26,247.39z"/>
					</g>
					<g>
						<path class="st9" d="M190.36,227.48c-3.63,4.98-9.52,6.86-13.16,4.2c-3.65-2.64-3.67-8.83-0.05-13.81
							c3.62-4.97,9.52-6.85,13.16-4.2C193.96,216.32,193.97,222.5,190.36,227.48z"/>
					</g>
				</g>
				<g>
					<path class="st0" d="M161.65,280.65c-26.39-8.99-38.03-44.63-25.97-79.56c5.58-16.22,15.38-30.2,26.83-38.82
						c-15.24,7.74-28.8,24.11-35.81,44.42c-12.05,34.95-0.57,70.94,25.83,79.94c14.15,4.83,29.83,0.66,43.04-9.29
						C184.58,282.92,172.69,284.43,161.65,280.65z"/>
				</g>
			</g>
			<g>
				<g>
					<path class="st9" d="M262.01,239.66c12.5,36.42,44.79,58.34,72.16,48.96c27.37-9.38,39.41-46.51,26.93-82.93
						c-12.48-36.43-44.78-58.34-72.15-48.96C261.58,166.11,249.53,203.24,262.01,239.66z"/>
					<path class="st8" d="M321.05,293.02L321.05,293.02c-25.37,0-50.52-21.65-61.15-52.64c-12.86-37.51-0.16-75.99,28.32-85.76
						c4.43-1.51,9.08-2.28,13.83-2.28c25.38,0,50.52,21.63,61.15,52.63c12.86,37.52,0.17,75.99-28.31,85.76
						C330.45,292.24,325.8,293.02,321.05,293.02z M302.05,156.79c-4.26,0-8.42,0.69-12.39,2.04c-26.15,8.96-37.62,44.91-25.55,80.11
						c10.02,29.22,33.43,49.63,56.94,49.63l0,0c4.26,0,8.43-0.69,12.39-2.05c26.15-8.97,37.61-44.9,25.55-80.1
						C348.98,177.19,325.56,156.79,302.05,156.79z"/>
				</g>
				<g>
					<g>
						<path class="st4" d="M273.69,252.5c8.12,19.13,26.06,29.8,40.07,23.85c14.02-5.95,18.82-26.28,10.69-45.4
							c-8.12-19.12-26.07-29.81-40.09-23.84C270.34,213.07,265.56,233.38,273.69,252.5z"/>
					</g>
					<g>
						<path class="st8" d="M285.74,247.39c4.26,10.05,13.7,15.66,21.06,12.52c7.36-3.13,9.87-13.8,5.6-23.84
							c-4.26-10.05-13.68-15.65-21.06-12.53C283.99,226.67,281.47,237.35,285.74,247.39z"/>
					</g>
					<g>
						<path class="st9" d="M295.64,227.48c3.63,4.98,9.52,6.86,13.16,4.2c3.66-2.64,3.67-8.83,0.05-13.81
							c-3.61-4.97-9.51-6.85-13.15-4.2C292.05,216.32,292.02,222.5,295.64,227.48z"/>
					</g>
				</g>
				<g>
					<path class="st0" d="M324.21,280.65c26.39-8.99,38.03-44.63,25.98-79.56c-5.59-16.22-14.71-29.82-26.15-38.43
						c15.23,7.74,28.12,23.72,35.13,44.03c12.05,34.95,0.5,71.01-25.9,80.02c-14.15,4.82-29.75,0.58-42.96-9.37
						C301.27,282.92,313.16,284.43,324.21,280.65z"/>
				</g>
			</g>
		</g>
		<g>
			<g>
				<g>
					<path class="st8" d="M329.98,322.69c3.96-1.69,8.28-2.39,12.64-2.39c4.35,0.02,8.86,0.87,12.94,3.01
						c4.08,2.09,7.52,5.71,9.25,9.93c1.74,4.21,2.02,8.73,1.2,12.93c-1.03-4.15-2.25-8.07-4.32-11.35
						c-2.01-3.29-4.83-5.82-8.19-7.58c-3.36-1.76-7.19-2.81-11.16-3.47C338.37,323.1,334.24,322.84,329.98,322.69z"/>
				</g>
				<g>
					<path class="st8" d="M167.64,322.69c-4.28,0.16-8.38,0.42-12.37,1.08c-3.97,0.66-7.8,1.7-11.15,3.47
						c-3.36,1.76-6.17,4.29-8.2,7.58c-2.06,3.28-3.28,7.2-4.32,11.35c-0.82-4.2-0.54-8.72,1.21-12.93c1.72-4.22,5.15-7.84,9.24-9.93
						c4.08-2.14,8.59-2.99,12.94-3.01C159.36,320.3,163.67,321,167.64,322.69z"/>
				</g>
			</g>
			<g>
				<g>
					<path class="st8" d="M366.75,327.63c0.17-3.01,0.34-5.91,0.13-8.7c-0.18-2.74-0.87-5.47-2.51-6.69
						c-0.8-0.6-1.96-0.93-3.26-1.08c-1.29-0.15-2.7-0.14-4.13-0.06c-2.86,0.1-5.83,0.47-8.86,0.3c2.78-1.16,5.54-2.18,8.52-2.86
						c1.49-0.32,3.04-0.56,4.68-0.51c1.63,0.05,3.45,0.39,5.04,1.55c1.59,1.2,2.45,2.91,2.88,4.55c0.41,1.66,0.44,3.28,0.3,4.83
						C369.21,322.08,368.28,325.01,366.75,327.63z"/>
				</g>
				<g>
					<path class="st8" d="M119.24,327.63c-1.52-2.62-2.46-5.55-2.79-8.66c-0.14-1.56-0.11-3.17,0.3-4.83
						c0.42-1.64,1.28-3.35,2.86-4.55c1.61-1.16,3.43-1.5,5.05-1.55c1.64-0.05,3.19,0.19,4.68,0.51c2.98,0.68,5.74,1.7,8.52,2.86
						c-3.02,0.18-6-0.19-8.86-0.3c-1.43-0.08-2.83-0.09-4.13,0.06c-1.3,0.14-2.47,0.47-3.27,1.08c-1.61,1.21-2.32,3.95-2.5,6.69
						C118.92,321.71,119.08,324.62,119.24,327.63z"/>
				</g>
			</g>
			<g>
				<path class="st4" d="M152.43,345.73c-36.01,10.7-48.25,74.7-17.3,84.94c26.31,8.71,41.32-4.85,42.68-25.49
					c1.15-17.45,8.35-28.33,17.33-35.09l-25.81-11.26L152.43,345.73z"/>
				<path class="st8" d="M150.24,434.71L150.24,434.71c-4.79,0-10.02-0.92-15.53-2.74c-11.89-3.94-18.84-16.14-18.58-32.65
					c0.33-21.54,13.03-48.08,35.92-54.89l0.67-0.2l17.32,13.42l27.81,12.12l-1.88,1.39c-10.15,7.65-15.81,19.13-16.8,34.11
					C177.97,423.43,166.88,434.71,150.24,434.71z M152.15,347.25c-20.47,6.53-32.98,31.48-33.3,52.11
					c-0.24,15.49,5.85,26.43,16.71,30.02c5.25,1.74,10.17,2.61,14.67,2.61c15.31,0.01,25.11-10.04,26.22-26.89
					c0.99-14.91,6.4-26.56,16.08-34.67l-23.9-10.41L152.15,347.25z"/>
			</g>
			<g>
				<path class="st8" d="M249.12,379.61h-0.76c-42.68-0.17-70-13.84-85.44-25.34c-16.95-12.6-23.54-25.12-23.81-25.64l3.95-2.05
					c0.05,0.11,6.51,12.28,22.73,24.28c14.92,11.05,41.42,24.22,82.96,24.29c79.7-0.16,105.43-48.09,105.68-48.57l3.95,2.05
					c-0.28,0.52-6.87,13.04-23.81,25.64C319.14,365.76,291.81,379.44,249.12,379.61L249.12,379.61z"/>
			</g>
			<g>
				<path class="st10" d="M164.93,361.37c-3.49,4.77-6.58,9.78-9.35,14.94c-2.75,5.2-5.1,10.6-6.93,16.21
					c-1.83,5.6-3.14,11.4-3.79,17.33c-0.63,5.93-0.6,11.98-0.05,18.09c-1.83-5.8-2.59-12.06-2.39-18.29
					c0.19-6.24,1.34-12.45,3.27-18.31c1.93-5.88,4.61-11.41,7.84-16.48C156.77,369.81,160.51,365.13,164.93,361.37z"/>
			</g>
		</g>
	</g>
</g>
</svg>
