<?xml version="1.0" encoding="utf-8"?>
<!-- Generator: Adobe Illustrator 25.4.1, SVG Export Plug-In . SVG Version: 6.00 Build 0)  -->
<svg version="1.1" id="Layer_1" xmlns="http://www.w3.org/2000/svg" xmlns:xlink="http://www.w3.org/1999/xlink" x="0px" y="0px"
	 viewBox="0 0 500 500" style="enable-background:new 0 0 500 500;" xml:space="preserve">
<style type="text/css">
	.st0{fill:#FBCECE;}
	.st1{fill:#DF1F26;}
	.st2{fill:#F5C8D9;}
	.st3{fill:#E798AC;}
	.st4{fill:#CB2039;}
	.st5{opacity:0.3;}
	.st6{fill:#C66B75;}
	.st7{fill:#D11D54;}
	.st8{fill:#323331;}
	.st9{fill:#FFFFFF;}
	.st10{fill:#B9513F;}
	.st11{fill:#FDD9CE;}
	.st12{fill:#231F20;}
</style>
<g id="beta9">
	<g>
		<g>
			<g>
				<g>
					<path class="st0" d="M12.32,252.42c1.19,42.22,11.38,86.08,32.93,122.51c55.73,94.2,145.02,99.03,243.07,101.05
						c52.33,1.09,110.32-5.33,149.52-44.77c49.65-49.95,62.19-128.74,57.46-197.02c-3.02-43.6-14.09-84.39-39.72-119.91
						c-23.89-33.1-55.46-61.67-91.92-79.44c-39.92-19.46-83.54-24.32-127.37-22.24c-40.42,1.92-80.99,8.93-117.23,28.19
						C82.5,60.22,54,90.18,36.32,128.32C18.53,166.71,11.12,210.06,12.32,252.42z"/>
					<path class="st1" d="M287.74,477.27c-91.81-1.89-186.75-3.84-244.78-101.67c-25.78-43.46-32.28-90.95-33.19-123.13
						c-1.27-44.79,7.1-87.9,24.19-124.7c17.68-38.07,46.56-68.54,83.51-88.12c32.13-17.03,69.65-26.04,118.07-28.34
						c5.3-0.25,10.56-0.4,15.65-0.44c43.58-0.33,80.43,7.13,112.67,22.8c35.18,17.1,67.22,44.71,92.64,79.84
						c23.59,32.59,36.7,72.04,40.07,120.59c7.9,113.74-32.94,172.9-57.99,198.03c-30.28,30.39-73.84,44.76-137.07,45.25
						c0,0,0,0-0.01,0C297.09,477.4,292.46,477.37,287.74,477.27z M235.65,13.89c-48.04,2.28-85.22,11.2-117.02,28.05
						c-36.45,19.32-64.95,49.38-82.39,86.94c-16.92,36.42-25.21,79.13-23.95,123.51c0.91,31.88,7.33,78.89,32.83,121.88
						c57.3,96.61,151.54,98.55,242.66,100.42c4.7,0.1,9.31,0.13,13.68,0.1c0,0,0.01,0,0.01,0c62.54-0.48,105.53-14.62,135.32-44.51
						c24.74-24.83,65.07-83.3,57.24-196.02c-3.34-48.03-16.29-87.04-39.58-119.23C429.28,80.25,397.57,52.92,362.76,36
						c-31.89-15.5-68.38-22.87-111.56-22.54C246.15,13.5,240.92,13.64,235.65,13.89z"/>
				</g>
				<path class="st2" d="M11.03,252.43c1.2,42.22,11.41,86.08,33.01,122.5c55.88,94.2,145.4,99.02,243.72,101.04
					c52.47,1.09,110.61-5.33,149.92-44.78c49.78-49.95,62.36-128.74,57.62-197.02c-3.03-43.6-14.12-84.39-39.83-119.91
					c-23.95-33.1-55.61-61.67-92.17-79.44c-40.03-19.46-83.76-24.32-127.71-22.23c-40.53,1.92-81.21,8.93-117.54,28.19
					C81.4,60.22,52.82,90.19,35.1,128.33C17.26,166.72,9.83,210.07,11.03,252.43z M96.31,212.47c3.39-8.03,9.3-14.76,14.5-21.6
					c5.23-6.86,9.02-13.63,10.51-21.84c-0.72-5.29-0.72-10.07,0.64-14.96c-0.19-5.41-0.47-10.82,0.33-16.18
					c1.42-9.55,7.36-17.88,10.52-26.88c2.68-7.65,4.92-15.53,9.75-22.12c5.39-7.36,13.63-10.82,22.07-13.15
					c4.9-1.35,9.87-2.36,14.71-3.98c6.14-2.06,11.12-5.64,15.61-10.31c6.46-6.73,11.59-14.52,19.29-19.94
					c9.18-6.46,21.26-8.43,32.17-8.87c12.05-0.48,24.12,1.72,35.86,4.21c9.08,1.92,18.07,4.36,27.23,5.8
					c7.46,1.17,14.99,1.85,22.49,2.59c17.18,1.69,34.93,3.27,50.94,10.35c9.33,4.12,16.69,10.49,21.83,18.53
					c11,10.97,19.27,25.05,29.73,36.41c13.06,14.19,26.61,27.98,33.09,46.73c3.99,11.55,4.97,24.34,7.04,36.35
					c2.27,13.18,4.7,26.33,7.37,39.44c1.99,9.79,2.44,19.7,0.51,29.53c-1.81,9.26-5.95,17.89-10.28,26.15
					c-5.31,10.15-11.15,19.51-13.81,30.83c-2.42,10.27-3.1,20.87-5.63,31.12c-4.81,19.49-19.57,34.61-37.49,42.26
					c-8.78,3.75-18.35,5.34-27.81,5.79c-10.6,0.5-20.87-1.7-31.4-2.02c-10.47-0.32-20.12,2.93-29.31,7.79
					c-9.57,5.07-18.04,11.77-28.72,14.3c-9,2.13-18.36,1.04-27.48,0.61c-5-0.24-9.99-0.18-14.97,0.33
					c-5.77,0.58-11.31,2.66-16.75,4.6c-8.77,3.13-17.47,5.86-26.75,3.52c-10.66-2.7-17.33-11.82-24.21-19.8
					c-3.9-4.54-7.99-8.5-13.21-11.43c-5.18-2.91-10.98-4.39-16.69-5.75c-9.53-2.27-18.71-4.72-26.64-10.84
					c-12.45-9.6-15.19-25.44-15.34-40.42c-0.11-10.28,1.24-20.52,0.66-30.79c-0.03-0.5-0.1-0.98-0.14-1.48
					c-0.13-1.3-0.27-2.6-0.41-3.91c-1.45-10.53-5.24-20-9.51-29.87C98.42,254.51,87.48,233.37,96.31,212.47z"/>
				<path class="st2" d="M35.1,128.33c17.72-38.13,46.3-68.1,82.95-87.54c22.62-11.99,46.91-19.23,71.8-23.44
					c-1.16,0.66-2.32,1.37-3.46,2.15c-6.11,4.23-11.51,9.38-16.81,14.6c-3.43,3.38-6.72,7.22-11.05,9.41
					c-4.4,2.23-9.14,3.28-14,3.91c-7.77,1.01-16.18,1.46-23.06,5.69c-7.15,4.4-12.08,11.58-16.1,18.89
					c-5.01,9.11-9.13,19.25-16.34,26.86c-6.81,7.19-14.86,13.08-21.79,20.16c-6.14,6.28-11.52,13.16-14.99,21.35
					c-4.01,9.47-4.07,19.28-3.95,29.41c0.14,12.46-0.42,24.55-3.82,36.59c-3.18,11.25-9.3,22.1-10.27,33.91
					c-1.84,22.55,14.19,40.92,15.07,62.97c0.73,18.39,0.21,37.6,11.63,53.05c6.21,8.39,14.12,15.09,21.87,21.93
					c3.96,3.49,7.94,7.07,11.28,11.21c3.45,4.26,5.79,8.85,8.31,13.68c7.83,15.03,18.96,26.31,35.02,31.77
					c11.17,3.79,22.27,4.65,33.98,4.57c12.86-0.09,25.11,0.92,37.42,4.93c19.15,6.23,37.23,16.34,57.95,14.96
					c12.3-0.81,24.32-4.48,36.39-6.84c13.53-2.63,26.12-3.06,39.72-0.77c10.05,1.71,20.54,3.88,30.72,1.92
					c11.06-2.12,19.82-8.53,28.49-15.51c9.43-7.58,18.71-14.67,28.96-21.06c8-4.99,15.46-10.94,21.32-18.46
					c6.4-8.21,10.82-17.38,14.98-26.92c4.78-10.96,9.32-22.06,13.01-33.45c3.65-11.27,6.69-22.83,8.11-34.63
					c0.74-6.11,1.18-12.28,0.94-18.44c-0.23-6.03-0.82-11.99-0.63-18.04c0.42-13.33,3.34-26.03,5.1-39.16
					c0.19-1.43,0.37-2.86,0.54-4.29c0.35,3.47,0.67,6.95,0.91,10.46c4.74,68.28-7.84,147.07-57.62,197.02
					c-39.31,39.44-97.45,45.86-149.92,44.78c-98.32-2.02-187.84-6.84-243.72-101.04c-21.6-36.42-31.82-80.28-33.01-122.5
					C9.83,210.07,17.26,166.72,35.1,128.33z"/>
				<g>
					<g>
						<path class="st3" d="M91.39,277.55c-9.37,20.46-0.66,41.61,17.4,47.08c0,0-6.03,32.73,26.08,39.55
							c12.04,30,42.79,25.93,42.79,25.93s10.71,24.53,44.15,16.35c14.73,18.43,42.14,12.29,55.53-1.36
							c16.03,13.63,32.86,5.28,48.14-6.14c10.03-7.49,25.42,0.67,38.14-13.63c12.7-14.31,12.7-15.68,22.07-18.42
							c9.35-2.73,16.04-8.86,17.38-32.04c1.34-15.71,14.72-7.52,15.39-34.11c0.66-26.6-1.33-19.77,4-30.01
							c5.35-10.24,1.35-15.68-1.33-26.59c-2.67-10.94,6.04-25.92-7.36-40.92c-8.02-9.54-4.68-10.25-6.01-23.17
							c-1.36-12.99-6.68-12.99-12.71-19.12c-4.68-5.45-2.67-21.82-23.4-33.42c-11.38-5.45-11.38-6.81-17.39-12.95
							c-6.04-6.14-18.74-10.21-29.42-10.21c0,0-16.73-26.62-50.85-18.41c-27.41-12.99-52.17-10.27-65.52,7.47
							c-12.7-5.47-24.76,10.94-24.76,10.94c-22.74-6.17-37.47,10.21-43.47,23.84c-25.43-4.08-40.79,24.54-36.11,42.28
							c0,0-15.38,9.55-12.04,23.89C75.34,208,82.69,231.2,86.05,238.7C76.02,255.07,80.7,264.62,91.39,277.55z"/>
						<path class="st4" d="M221.34,407.9c-4.35,1.01-8.56,1.53-12.51,1.53c-20.9,0-29.93-14.29-31.9-17.94
							c-0.67,0.05-1.7,0.11-3,0.11l0,0c-8.77,0-30.11-2.57-39.97-26.29c-28.8-6.54-27.27-33.83-26.57-39.77
							c-8.14-2.78-14.56-8.72-18.13-16.81c-4.12-9.34-3.88-20.59,0.65-30.97c-10.97-13.42-14.75-23.34-5.29-39.16
							c-2.13-5.05-11.34-29.83,6.05-44.71c-2.47-12.88,8.83-21.76,12-23.97c-2.1-9.37,0.83-21.04,7.59-30.04
							c7.36-9.79,17.89-14.56,29.22-13.08c5.7-12.28,17.62-25.06,34.59-25.06c2.98,0,6.05,0.39,9.16,1.17
							c2.12-2.65,10.21-11.88,19.87-11.88c1.69,0,3.35,0.29,4.95,0.86c7.91-10.03,19.52-15.32,33.65-15.32
							c10.15,0,21.05,2.7,32.43,8.04c4.28-1,8.52-1.51,12.61-1.51c23.43,0,36.38,16.62,38.76,19.99
							c11.36,0.17,23.74,4.57,29.66,10.59c1.02,1.04,1.86,1.94,2.62,2.75c3.65,3.9,5.15,5.5,14.47,9.97
							c15.07,8.43,18.55,19.55,20.85,26.91c0.9,2.89,1.68,5.39,2.83,6.73c1.49,1.52,2.94,2.65,4.34,3.73
							c4.11,3.2,7.67,5.97,8.74,16.17c0.4,3.85,0.39,6.64,0.38,8.88c-0.02,5.24-0.03,7.21,5.31,13.56
							c9.32,10.43,8.39,20.72,7.56,29.8c-0.39,4.24-0.75,8.25,0.09,11.67c0.57,2.32,1.2,4.37,1.8,6.34
							c2.16,7.08,3.87,12.68-0.57,21.18c-0.6,1.14-1.1,2.07-1.52,2.86c-2.21,4.07-2.21,4.07-2.18,11.22
							c0.01,3.22,0.03,8.09-0.15,15.35c-0.4,15.8-5.2,19.85-9.45,23.44c-3.02,2.55-5.42,4.57-5.94,10.72
							c-1.35,23.52-8.29,30.29-18.29,33.2c-7.64,2.24-8.67,3.41-16.65,12.55c-1.39,1.58-2.97,3.4-4.83,5.5
							c-7.78,8.74-16.55,9.45-24.3,10.08c-5.23,0.42-10.16,0.82-14.04,3.72c-8.38,6.26-19.47,13.45-30.96,13.45
							c-6.34,0-12.35-2.23-17.85-6.63c-8,7.7-19.72,12.44-30.86,12.44C239.34,419.27,229.19,417.28,221.34,407.9z M278.14,404.11
							c5.35,4.55,10.95,6.76,17.12,6.76c10.75,0,21.4-6.92,29.47-12.95c4.45-3.32,9.74-3.75,15.33-4.21
							c7.63-0.62,15.51-1.26,22.62-9.24c1.85-2.08,3.43-3.9,4.81-5.48c8.04-9.22,9.49-10.88,17.85-13.32
							c9.22-2.69,15.19-8.8,16.47-30.91c0.62-7.26,3.79-9.93,6.85-12.52c4.01-3.38,8.17-6.89,8.53-21.51
							c0.18-7.22,0.16-12.07,0.15-15.28c-0.02-7.52-0.03-7.82,2.5-12.48c0.42-0.78,0.92-1.7,1.5-2.82
							c3.94-7.55,2.53-12.18,0.39-19.2c-0.59-1.91-1.25-4.08-1.84-6.48c-0.94-3.85-0.55-8.07-0.15-12.54
							c0.77-8.55,1.65-18.23-6.94-27.85c-5.98-7.11-5.96-9.84-5.94-15.28c0.01-2.18,0.02-4.89-0.37-8.6
							c-0.95-9.09-3.8-11.31-7.75-14.39c-1.39-1.09-2.98-2.32-4.65-4.02c-1.55-1.8-2.41-4.54-3.4-7.71
							c-2.31-7.38-5.48-17.49-19.59-25.39c-9.68-4.63-11.4-6.46-15.16-10.48c-0.75-0.8-1.59-1.69-2.58-2.71
							c-5.51-5.61-17.78-9.84-28.53-9.84h-0.69l-0.38-0.59c-0.12-0.19-12.46-19.39-37.04-19.39c-4.02,0-8.21,0.52-12.45,1.54
							l-0.42,0.1l-0.4-0.19c-11.18-5.3-21.87-7.99-31.76-7.99c-13.66,0-24.81,5.21-32.23,15.07l-0.6,0.79l-0.9-0.39
							c-1.56-0.67-3.2-1.01-4.88-1.01c-9.76,0-18.29,11.42-18.38,11.53l-0.51,0.7l-0.83-0.22c-3.17-0.87-6.3-1.3-9.32-1.3
							c-16.17,0-27.48,12.62-32.67,24.42l-0.4,0.9l-0.95-0.15c-10.71-1.73-20.77,2.65-27.77,11.96c-6.42,8.54-9.2,20.08-6.92,28.71
							l0.24,0.93l-0.81,0.5c-0.15,0.1-14.56,9.22-11.47,22.49l0.18,0.8l-0.63,0.51c-17.68,14.38-6.94,39.9-5.66,42.77l0.28,0.63
							l-0.36,0.59c-9.28,15.15-5.71,24.11,5.24,37.34l0.52,0.63l-0.34,0.75c-4.54,9.91-4.89,20.68-0.97,29.57
							c3.42,7.75,9.66,13.33,17.59,15.73l1.09,0.33l-0.21,1.14c-0.24,1.29-5.45,31.56,25.1,38.05l0.66,0.14l0.26,0.63
							c9.17,22.85,29.55,25.32,37.89,25.32c2.2,0,3.55-0.18,3.57-0.18l0.93-0.12l0.38,0.88c0.08,0.17,7.79,17.25,30.01,17.25
							c3.99,0,8.26-0.55,12.68-1.64l0.77-0.19l0.51,0.63c7.29,9.12,16.94,11.03,23.76,11.03c10.72,0,22.45-4.9,29.89-12.49
							l0.82-0.84L278.14,404.11z"/>
					</g>
				</g>
				<g>
					<g class="st5">
						<g>
							<path class="st6" d="M213.5,103.25c-17.91-4.75-41.64,9.63-48.31,26.13c-0.54,1.35,0.88,0.83,1.34,0.12
								c5.82-9.27,12.48-15.48,22.82-19.34c7.44-2.79,15.28-2.37,22.88-4.15C212.91,105.88,214.72,103.58,213.5,103.25z"/>
							<path class="st7" d="M165.39,131.45L165.39,131.45c-0.53,0-1-0.24-1.28-0.66c-0.33-0.49-0.35-1.12-0.06-1.86
								c6.09-15.08,25.37-27.82,42.11-27.82c2.67,0,5.24,0.32,7.65,0.96c0.83,0.22,1.34,0.92,1.31,1.76
								c-0.04,1.28-1.51,3.14-2.66,3.38c-3.13,0.73-6.33,1.1-9.44,1.46c-4.62,0.53-8.98,1.03-13.26,2.64
								c-9.5,3.54-16.14,9.18-22.21,18.84C167.14,130.8,166.27,131.45,165.39,131.45z M206.17,103.55
								c-10.34,0-21.71,5.13-29.96,12.66c3.71-3.06,7.85-5.38,12.71-7.19c4.56-1.71,9.27-2.25,13.84-2.78
								c3.03-0.35,6.17-0.71,9.18-1.41c0.08-0.06,0.3-0.32,0.49-0.59C210.45,103.79,208.35,103.55,206.17,103.55z"/>
						</g>
						<g>
							<path class="st6" d="M129.43,190.73c-10.67,3.88-17.57,17.21-14.04,28.17c0.41,1.38,2.99-1.82,2.89-2.76
								c-1.01-9.83,1.44-18.81,10.66-23.78C129.31,192.18,130.23,190.43,129.43,190.73z"/>
							<path class="st7" d="M115.78,220.47L115.78,220.47c-0.74,0-1.33-0.46-1.55-1.21c-3.67-11.36,3.38-25.52,14.79-29.68
								l0.58-0.11c0.65,0,1.19,0.43,1.34,1.06c0.24,1-0.74,2.58-1.44,2.93c-7.73,4.16-11.1,11.75-9.99,22.56
								c0.14,1.24-1.24,2.84-1.52,3.15C117.19,220.04,116.47,220.47,115.78,220.47z M118.78,201.55
								c-2.78,4.84-3.87,10.64-2.54,15.89c0.38-0.45,0.76-1.03,0.82-1.32C116.48,210.48,117.05,205.61,118.78,201.55z"/>
						</g>
						<g>
							<path class="st6" d="M206.88,168.17c-2.52,0.63-5.12-0.31-7.65-0.05c-2.59,0.25-5.17,1.84-7.23,3.31
								c-4.01,2.84-7.3,7.29-8.08,12.22c-0.4,2.29,2.45-0.33,2.76-1.25c1.59-5.06,4.85-8.27,9.68-10.3c3.2-1.35,6.86,0.12,9.89-1.72
								C206.64,170.13,208.12,167.86,206.88,168.17z"/>
							<path class="st7" d="M184.25,185.78L184.25,185.78c-0.48,0-0.9-0.19-1.19-0.54c-0.55-0.65-0.39-1.52-0.34-1.81
								c0.77-4.87,3.98-9.74,8.58-13c2.09-1.49,4.88-3.24,7.81-3.52c1.16-0.12,2.36-0.01,3.55,0.11c1.39,0.14,2.85,0.24,3.92-0.03
								l0.5-0.07c0.7,0,1.27,0.42,1.45,1.07c0.34,1.24-1.1,3.09-1.66,3.43c-1.92,1.17-3.94,1.2-5.9,1.23
								c-1.49,0.02-2.89,0.05-4.14,0.57c-4.71,1.99-7.57,5.02-8.99,9.55C187.51,183.77,185.64,185.78,184.25,185.78z M200.19,169.29
								c-0.28,0-0.56,0.01-0.84,0.04c-2.37,0.23-4.79,1.77-6.64,3.09c-0.85,0.6-1.66,1.27-2.39,1.99c1.54-1.38,3.39-2.52,5.56-3.44
								c1.69-0.71,3.4-0.74,5.05-0.77c1.49-0.02,2.9-0.05,4.13-0.59c-0.85-0.01-1.76-0.07-2.64-0.16
								C201.67,169.37,200.93,169.29,200.19,169.29z"/>
						</g>
						<g>
							<path class="st6" d="M119.72,274.7c-6.78-9.75-10.24-19.72-2.6-30.17c0.45-0.63,0.18-1.42-0.5-0.63
								c-3.6,4.25-6.26,8.2-6.78,13.84c-0.63,7.12,2.75,14.73,7.72,19.65C118.27,278.1,120.23,275.45,119.72,274.7z"/>
							<path class="st7" d="M117.85,278.74L117.85,278.74c-0.43,0-0.84-0.17-1.14-0.47c-5.54-5.48-8.71-13.57-8.08-20.63
								c0.53-5.78,3.09-9.85,7.06-14.52c0.44-0.51,0.92-0.76,1.43-0.76h0.75l0.53,0.78c0.31,0.62,0.21,1.45-0.28,2.12
								c-6.25,8.55-5.47,17.14,2.62,28.76c0.31,0.45,0.54,1.25-0.13,2.51C120.48,276.75,119.39,278.74,117.85,278.74z
								 M111.69,254.44c-0.31,1.08-0.53,2.21-0.64,3.42c-0.55,6.16,2.15,13.23,6.9,18.2c0.24-0.26,0.49-0.65,0.59-0.91
								C114.54,269.35,110.72,262.25,111.69,254.44z"/>
						</g>
						<g>
							<path class="st6" d="M182.98,267.89c-3.29-2.77-6.88-5.66-9.14-9.36c-2.85-4.71-0.29-9.46,2.12-13.58
								c0.65-1.11-0.4-1.12-0.96-0.33c-3.1,4.36-5.32,7.4-5.25,13c0.1,6.3,6.03,10.82,10.96,13.51
								C181.79,271.7,183.95,268.7,182.98,267.89z"/>
							<path class="st7" d="M181.01,272.42L181.01,272.42c-0.32,0-0.61-0.07-0.88-0.22c-7.51-4.1-11.52-9.14-11.6-14.57
								c-0.08-5.92,2.31-9.28,5.34-13.53c1.1-1.55,2.73-1.54,3.32-0.51c0.22,0.39,0.38,1.05-0.17,1.99
								c-2.58,4.4-4.52,8.37-2.13,12.32c2.01,3.3,5.2,5.97,8.28,8.55l0.61,0.51c0.32,0.27,1.03,1.08,0.48,2.6
								C183.83,270.71,182.51,272.42,181.01,272.42z M171.36,253.78c-0.27,1.15-0.41,2.39-0.4,3.82c0.09,5.59,5.48,9.77,10.08,12.33
								c0.34-0.23,0.82-0.88,0.93-1.28l-0.4-0.33c-3.23-2.7-6.57-5.5-8.79-9.15C171.69,257.35,171.31,255.53,171.36,253.78z"/>
						</g>
						<g>
							<path class="st6" d="M240.35,253.3c-4.08-3.11-7.62-6.53-9.42-11.45c-1.14-3.19-0.59-6.55,0.71-9.53
								c0.59-1.44,0.83-2.34,0.52-3.82c-0.11-0.51-1.03,0.63-1.07,0.89c-0.31,2.62-2.43,4.82-3.06,7.44
								c-0.49,2.18-0.7,4.48-0.21,6.68c1.25,5.88,4.8,10.49,10.32,12.91C239.25,256.89,241.34,254.07,240.35,253.3z"/>
							<path class="st7" d="M238.41,257.69L238.41,257.69c-0.26,0-0.51-0.05-0.74-0.15c-5.78-2.53-9.69-7.42-11.04-13.77
								c-0.47-2.12-0.4-4.48,0.21-7.2c0.33-1.37,0.98-2.56,1.6-3.72c0.67-1.23,1.3-2.4,1.44-3.59c0.08-0.63,1.07-2.1,2.15-2.1h0.98
								l0.34,1.09c0.38,1.75,0.1,2.9-0.58,4.55c-0.95,2.19-1.84,5.44-0.69,8.65c1.8,4.9,5.57,8.26,9.01,10.89
								c0.71,0.56,0.92,1.5,0.57,2.52C241.24,256.04,239.89,257.69,238.41,257.69z M229.1,237.67c-0.42,2.11-0.45,3.94-0.09,5.58
								c1.17,5.5,4.51,9.74,9.42,11.96c0.31-0.18,0.77-0.76,0.91-1.14c-3.65-2.81-7.6-6.42-9.56-11.8
								C229.26,240.82,229.04,239.28,229.1,237.67z"/>
						</g>
						<g>
							<path class="st6" d="M248.03,188.18c-4.93-3.79-9.99-3.56-15.17-0.52c-2.92,1.67-5.99,4.38-6.01,7.99
								c-0.02,0.89,1.25-0.6,1.35-0.93c0.84-3.61,6.06-5.49,9.2-5.65c2.89-0.16,5.68,1.43,8.3,2.39
								C246.86,191.91,249.08,189,248.03,188.18z"/>
							<path class="st7" d="M227.01,197.16h-0.51l-0.45-0.4c-0.19-0.2-0.42-0.55-0.41-1.12c0.02-3.38,2.37-6.59,6.64-9.03
								c5.89-3.46,11.49-3.25,16.52,0.62c0.72,0.57,0.93,1.51,0.58,2.54c-0.43,1.25-1.85,2.98-3.4,2.98l0,0
								c-0.24,0-0.48-0.04-0.69-0.13c-0.62-0.23-1.25-0.5-1.9-0.77c-1.83-0.77-3.72-1.56-5.54-1.56l-0.34,0.01
								c-2.89,0.15-7.43,1.91-8.08,4.71C229.25,195.48,228.2,197.16,227.01,197.16z M237.81,187.84c2.31,0,4.44,0.89,6.49,1.75
								c0.61,0.26,1.22,0.51,1.82,0.73c0.15-0.11,0.78-0.89,0.94-1.35c-4.08-3.02-8.32-3.18-13.15-0.49
								c1.2-0.37,2.39-0.58,3.44-0.64C237.49,187.84,237.65,187.84,237.81,187.84z"/>
						</g>
						<g>
							<path class="st6" d="M252.9,138.56c-1.63-5.27-8.87-6.46-13.57-6.22c-4.91,0.23-9.51,2.83-12.64,6.53
								c-0.68,0.8-0.69,2.32,0.49,1.13c3.31-3.31,7.87-4.06,12.38-3.68c4.75,0.37,7,3.35,10.79,5.39
								C251.61,142.37,253.22,139.57,252.9,138.56z"/>
							<path class="st7" d="M250.76,143.03L250.76,143.03c-0.34,0-0.67-0.09-0.98-0.25c-1.27-0.68-2.36-1.45-3.41-2.19
								c-2.15-1.52-4-2.83-6.91-3.05c-0.66-0.05-1.31-0.08-1.96-0.08c-4.01,0-7.19,1.15-9.46,3.41c-0.33,0.34-0.86,0.8-1.56,0.8
								c-0.57,0-1.08-0.33-1.32-0.85c-0.4-0.86-0.01-2.02,0.59-2.73c3.54-4.19,8.47-6.73,13.52-6.96c0.38-0.02,0.78-0.03,1.2-0.03
								c2.67,0,11.56,0.51,13.6,7.11c0.34,1.09-0.29,2.49-0.92,3.37C252.45,142.51,251.6,143.03,250.76,143.03z M237.51,135
								c0.72,0,1.44,0.03,2.16,0.1c3.57,0.28,5.89,1.91,8.12,3.49c0.94,0.67,1.92,1.36,3,1.95c0.38-0.26,0.96-1.27,0.94-1.68
								c-1.21-3.9-6.61-5.32-11.25-5.32c-0.37,0-0.73,0.01-1.08,0.03c-2.35,0.11-4.72,0.83-6.9,2.06
								C234.03,135.21,235.7,135,237.51,135z"/>
						</g>
						<g>
							<path class="st6" d="M295.59,202.63c-0.76,0.07-2.47,2.27-1.35,2.51c9.37,2.06,14.44,12.69,15.15,21.52
								c0.15,1.7,2.52-1.08,2.64-1.86C313.39,215.25,306.8,201.53,295.59,202.63z"/>
							<path class="st7" d="M309.78,228.42L309.78,228.42c-0.73,0-1.51-0.51-1.61-1.66c-0.69-8.49-5.43-18.51-14.2-20.43
								c-0.84-0.18-1.38-0.88-1.32-1.74c0.07-1.21,1.54-3.05,2.82-3.17c4.67-0.45,8.95,1.4,12.31,5.28
								c4.14,4.78,6.33,12.13,5.45,18.28C313.09,225.94,311.33,228.42,309.78,228.42z M295.44,204.18
								c8.89,2.53,13.89,12.24,15.02,20.95c0.18-0.23,0.33-0.46,0.37-0.6c0.76-5.32-1.25-12.04-4.9-16.25
								c-1.93-2.23-5.41-4.92-10.23-4.45C295.68,203.88,295.56,204.02,295.44,204.18z"/>
						</g>
						<g>
							<path class="st6" d="M317,162.36c-0.59,0.09-1.94,2.11-1.03,2.25c9.82,1.1,14.24,9.4,17.69,17.6
								c0.47,1.11,2.25-1.44,2.22-2.1C335.24,170.18,327.58,160.84,317,162.36z"/>
							<path class="st7" d="M334.01,183.71L334.01,183.71c-0.65,0-1.2-0.38-1.47-1.02c-3.2-7.61-7.39-15.82-16.7-16.86
								c-0.85-0.13-1.39-0.76-1.39-1.58c-0.01-1.12,1.22-2.91,2.36-3.1c11.63-1.67,19.64,8.79,20.28,18.88
								c0.06,1.03-0.99,2.37-1.39,2.79C335.13,183.42,334.58,183.71,334.01,183.71z M317.35,163.57
								c9.29,1.62,13.69,9.47,16.97,17.07c0.17-0.25,0.31-0.5,0.34-0.64c-0.57-8.61-7.3-17.76-17.29-16.46
								C317.37,163.55,317.36,163.55,317.35,163.57z"/>
						</g>
						<g>
							<path class="st6" d="M358.93,131.56c-1.57-1.61-3.33-2.99-5.42-3.85c-2.51-1.01-5.61,0.04-8.18,0.04
								c-0.72,0-2.25,2.04-1.26,2.29c1.94,0.54,3.94,0.66,5.93,0.92c2.14,0.3,3.81,2.36,5.29,3.76c3.06,2.92,5.44,6.53,7.42,10.25
								c0.7,1.32,2.8-1.73,2.72-2.6C364.87,137.96,361.99,134.63,358.93,131.56z"/>
							<path class="st7" d="M363.19,146.53L363.19,146.53c-0.66,0-1.22-0.35-1.55-0.97c-2.25-4.22-4.6-7.47-7.19-9.94
								c-0.27-0.25-0.54-0.52-0.82-0.81c-1.14-1.14-2.44-2.44-3.8-2.63c-0.51-0.07-1.02-0.13-1.54-0.18
								c-1.49-0.16-3.03-0.34-4.55-0.77c-0.82-0.21-1.31-0.95-1.2-1.84c0.14-1.1,1.47-2.84,2.79-2.84c0.77,0,1.63-0.11,2.53-0.23
								c2.12-0.27,4.45-0.4,6.11,0.27c2.02,0.84,3.93,2.18,5.84,4.13c2.97,2.98,6.2,6.58,6.84,11.52c0.1,1.07-0.83,2.5-1.48,3.21
								C364.52,146.16,363.85,146.53,363.19,146.53z M345.38,129.1c1.04,0.22,2.09,0.34,3.2,0.46c0.53,0.06,1.07,0.12,1.59,0.19
								c2.18,0.3,3.85,1.98,5.2,3.33c0.26,0.26,0.52,0.52,0.77,0.76c2.64,2.53,5.03,5.76,7.3,9.89c0.35-0.42,0.74-1.06,0.78-1.35
								c-0.54-4.02-3.45-7.26-6.15-9.96c-1.68-1.71-3.32-2.89-5.02-3.59c-1.17-0.47-3.07-0.34-4.87-0.11
								c-0.88,0.11-1.78,0.22-2.65,0.24C345.48,129.01,345.43,129.05,345.38,129.1z"/>
						</g>
						<g>
							<path class="st6" d="M360.11,232.15c-0.75-0.4-2.13,1.53-1.5,2.09c10.24,9.27,6.57,26.15-2.01,34.89
								c-0.88,0.91-1.54,3.75,0.45,2.27C367.27,263.7,374.71,239.67,360.11,232.15z"/>
							<path class="st7" d="M356.15,273.04L356.15,273.04c-0.65,0-1.21-0.37-1.47-0.98c-0.49-1.14,0.29-3,1.03-3.78
								c4.99-5.08,8.07-12.89,7.87-19.91c-0.16-5.36-2.16-9.93-5.8-13.23c-0.57-0.51-0.71-1.34-0.38-2.21
								c0.38-1,1.38-2.06,2.48-2.06h0.31l0.49,0.2c5.16,2.65,8.18,7.46,8.73,13.88c0.83,9.66-4.39,21.96-11.63,27.41
								C357.18,272.83,356.66,273.04,356.15,273.04z M359.77,233.65c3.93,3.72,6.09,8.78,6.27,14.65
								c0.15,5.06-1.19,10.34-3.66,14.96c3.19-5.48,5.1-12.38,4.61-18.09c-0.32-3.79-1.82-8.86-7.1-11.75
								C359.86,233.48,359.81,233.57,359.77,233.65z"/>
						</g>
						<g>
							<path class="st6" d="M404.7,221.74c-0.5-0.76-1.91,1.13-1.66,1.78c1.74,4.22,3.82,8.27,5.18,12.6
								c2.38,7.51-2.32,14.07-6.24,19.99c-0.6,0.92-0.81,3.26,0.78,1.79c4.59-4.31,7.42-9.73,9.01-15.79
								C413.82,234.37,408.68,227.85,404.7,221.74z"/>
							<path class="st7" d="M401.94,259.59L401.94,259.59c-0.58,0-1.1-0.31-1.38-0.83c-0.55-1.02-0.08-2.58,0.4-3.32l0.53-0.8
								c3.77-5.67,7.67-11.53,5.57-18.16c-0.89-2.86-2.15-5.68-3.36-8.39c-0.61-1.36-1.21-2.73-1.78-4.11
								c-0.36-0.92,0.16-1.87,0.49-2.36c0.33-0.48,1.03-1.29,1.98-1.29c0.54,0,1.03,0.26,1.33,0.73l1.23,1.86
								c3.75,5.63,7.99,12.01,6.01,19.5c-1.75,6.68-4.9,12.18-9.36,16.36C403.22,259.13,402.65,259.59,401.94,259.59z
								 M404.29,223.33c0.52,1.25,1.08,2.51,1.64,3.78c1.24,2.78,2.52,5.66,3.46,8.65c1.98,6.27-0.54,11.81-3.64,16.81
								c2.15-3.08,3.77-6.68,4.84-10.77c1.7-6.43-2.05-12.07-5.68-17.52L404.29,223.33z"/>
						</g>
						<g>
							<path class="st6" d="M310.01,269.52c-0.4-1-2.34,1.41-2.1,2.3c1.17,3.98,1.48,8.19-0.33,12.06
								c-1.96,4.19-6.82,5.93-10.86,7.41c-0.73,0.27-2.89,3.46-1.55,3.34C307.29,293.51,314.61,280.47,310.01,269.52z"/>
							<path class="st7" d="M295.09,295.85c-0.79,0-1.42-0.51-1.55-1.27c-0.25-1.41,1.68-4.05,2.75-4.44
								c4.05-1.48,8.45-3.1,10.18-6.78c1.47-3.12,1.56-6.79,0.27-11.19c-0.29-1.09,0.51-2.29,0.87-2.76
								c0.47-0.62,1.22-1.35,2.1-1.35c0.65,0,1.2,0.39,1.45,1.01c2.36,5.6,1.85,12.16-1.37,17.53c-3.19,5.31-8.47,8.68-14.5,9.24
								L295.09,295.85z M305.25,288.52c-2.4,1.82-5.38,2.91-7.96,3.86c-0.19,0.12-0.47,0.46-0.74,0.83
								C299.88,292.58,302.89,290.95,305.25,288.52z M309.33,271.19c-0.12,0.19-0.21,0.38-0.23,0.49c0.68,2.26,1,4.44,0.97,6.49
								C310.32,275.83,310.08,273.44,309.33,271.19z"/>
						</g>
						<g>
							<path class="st6" d="M221.43,308.23c-9.45-1.49-22.92-1.01-23.3-13.81c-0.06-1.31-2.06,0.94-2.1,1.76
								c-0.65,13.23,12.57,16.86,23.58,15.45C220.55,311.48,222.93,308.49,221.43,308.23z"/>
							<path class="st7" d="M215.17,313.13L215.17,313.13c-7.11,0-12.98-2.05-16.54-5.79c-2.76-2.9-4.05-6.67-3.83-11.22
								c0.06-1.15,1.7-3.32,3.05-3.32c0.69,0,1.45,0.49,1.49,1.57c0.3,9.95,9.3,11.03,18.01,12.09c1.47,0.18,2.91,0.35,4.27,0.57
								c0.94,0.16,1.53,0.86,1.52,1.77c-0.01,1.48-1.95,3.82-3.34,4.04C218.24,313.03,216.69,313.13,215.17,313.13z M197.21,297.27
								c0.03,3.34,1.09,6.19,3.18,8.38c3.05,3.2,8.43,5.04,14.78,5.04l0,0c1.42,0,2.86-0.09,4.28-0.27c0.19-0.11,0.66-0.64,0.96-1.1
								c-1.08-0.15-2.21-0.29-3.36-0.43C208.98,307.9,199.09,306.71,197.21,297.27z"/>
						</g>
						<g>
							<path class="st6" d="M168.31,324.74c-6.97-6.98-17.37-16.23-11.15-27.07c0.57-1.03-0.37-1.08-0.9-0.33
								c-7.04,10.42-1.25,25.35,9.8,30.55C167.21,328.46,169.2,325.63,168.31,324.74z"/>
							<path class="st7" d="M166.39,329.19L166.39,329.19c-0.31,0-0.6-0.07-0.87-0.2c-6.1-2.87-10.86-8.64-12.73-15.43
								c-1.67-6.07-0.79-12.07,2.46-16.9c0.85-1.21,2.5-1.33,3.1-0.32c0.22,0.38,0.38,1.02-0.12,1.93
								c-5.39,9.4,2.96,17.68,9.67,24.34l1.28,1.28c0.65,0.64,0.76,1.64,0.31,2.72C168.95,327.89,167.72,329.19,166.39,329.19z
								 M154.41,307.69c0.01,1.71,0.25,3.47,0.74,5.23c1.66,6.05,5.87,11.19,11.27,13.8c0.33-0.2,0.81-0.87,0.89-1.25l-1.13-1.12
								C161.61,319.8,155.92,314.17,154.41,307.69z"/>
						</g>
						<g>
							<path class="st6" d="M175.49,357.31c-9.83,3.32-18.47,0.35-26.49-5.67c-7.84-5.87-10.74-13.44-11.02-22.94
								c-0.03-0.84-1.3,0.54-1.34,0.96c-1.47,11.05,0.9,18.77,9.11,26.53c8.06,7.59,19.02,10.45,28.73,4.62
								C175.17,360.4,177.31,356.7,175.49,357.31z"/>
							<path class="st7" d="M163.53,365.13c-6.48,0-13.09-2.86-18.61-8.05c-8.3-7.84-11.05-15.83-9.48-27.58
								c0.09-0.82,1.29-2.29,2.37-2.29c0.67,0,1.37,0.49,1.4,1.43c0.3,10,3.54,16.79,10.53,22.02c8.8,6.6,16.93,8.34,25.37,5.49
								c1.09-0.37,2.01,0.1,2.26,1.01c0.41,1.48-1.43,4.2-2.26,4.69C171.49,364.03,167.59,365.13,163.53,365.13z M137.42,335.14
								c-0.07,8.08,2.71,14.05,9.17,20.16c8.19,7.7,18.79,9.55,27.26,4.46c0.13-0.12,0.37-0.46,0.59-0.85
								c-8.65,2.47-17.19,0.44-26.17-6.29C142.34,348.18,138.81,342.54,137.42,335.14z"/>
						</g>
						<g>
							<path class="st6" d="M256.9,356.84c-7.2,2.78-13.69,3.88-21.08,1.12c-5.19-1.94-9.27-6.98-13.95-9.87
								c-0.73-0.45-2.26,1.68-1.58,2.2c5.02,3.79,9.33,10.51,15.59,12.38c7.22,2.18,13.47,0.9,20.05-2.55
								C256.71,359.72,258.46,356.24,256.9,356.84z"/>
							<path class="st7" d="M242.88,364.96L242.88,364.96c-2.44,0-4.84-0.37-7.35-1.12c-4.38-1.3-7.74-4.7-11-7.99
								c-1.69-1.71-3.29-3.32-4.96-4.58c-0.62-0.48-0.82-1.28-0.52-2.16c0.32-0.95,1.34-2.3,2.6-2.3H222l0.52,0.25
								c1.93,1.2,3.76,2.74,5.53,4.23c2.59,2.18,5.26,4.44,8.2,5.54c2.74,1.03,5.41,1.52,8.17,1.52c3.6,0,7.31-0.81,12.03-2.64
								c1.07-0.41,2.02,0.09,2.24,1.03c0.33,1.37-1.21,3.98-2.21,4.49C251.6,363.77,247.27,364.96,242.88,364.96z M221.47,349.65
								c1.66,1.31,3.25,2.92,4.8,4.48c3.04,3.07,6.19,6.24,9.97,7.37c2.28,0.69,4.45,1.02,6.64,1.02l0,0
								c3.98,0,7.95-1.11,12.48-3.48c0.09-0.07,0.21-0.25,0.34-0.48c-7.89,2.87-13.84,2.97-20.31,0.55
								c-3.33-1.25-6.17-3.64-8.92-5.96c-1.65-1.4-3.22-2.72-4.86-3.78C221.58,349.45,221.52,349.55,221.47,349.65z"/>
						</g>
						<g>
							<path class="st6" d="M255.71,383.86c-16.3,5.9-32.4,12.25-46.03-2.55c-0.6-0.63-2.45,1.73-1.78,2.53
								c12.68,15.88,30.82,11.38,46.87,3.16C255.5,386.62,257.25,383.3,255.71,383.86z"/>
							<path class="st7" d="M229.41,395.68C229.41,395.68,229.41,395.68,229.41,395.68c-9.03,0-16.59-3.73-22.46-11.08
								c-0.29-0.34-0.72-1.15-0.1-2.48c0.35-0.74,1.33-2.14,2.58-2.14c0.44,0,0.84,0.17,1.14,0.49c5.4,5.87,11.64,8.72,19.09,8.72
								c7.78,0,15.86-2.93,24.41-6.03l1.22-0.45c1.04-0.38,1.98,0.11,2.21,1.03c0.32,1.32-1.2,3.84-2.17,4.34
								C245.35,393.2,236.86,395.68,229.41,395.68z M209.01,383.27c10.1,12.44,24.28,13.35,45.2,2.64c0.05-0.04,0.12-0.15,0.21-0.28
								c-8.23,2.98-16.71,6-24.77,6c-7.91,0-14.56-2.92-20.32-8.91C209.2,382.9,209.07,383.11,209.01,383.27z"/>
						</g>
						<g>
							<path class="st6" d="M336.72,334.83c-3.16,9.45-10.99,12.06-20.01,13.65c-1.08,0.22-3.12,3.87-1.75,3.76
								c11.41-0.69,20.68-7.09,23.77-18.33C339.17,332.35,336.94,334.11,336.72,334.83z"/>
							<path class="st7" d="M314.9,353.47c-0.86,0-1.53-0.61-1.61-1.48c-0.14-1.48,1.64-4.4,3.18-4.71
								c9.72-1.72,16.29-4.46,19.09-12.84c0.27-0.88,1.82-2.38,2.98-2.38h0.61l0.55,0.56c0.32,0.42,0.38,0.97,0.19,1.62
								c-3.09,11.27-12.39,18.45-24.86,19.21L314.9,353.47z M330.22,345.25c-3.98,2.54-8.77,3.64-13.29,4.44
								c-0.17,0.12-0.58,0.7-0.87,1.25C321.64,350.38,326.48,348.4,330.22,345.25z"/>
						</g>
						<g>
							<path class="st6" d="M372.27,337.24c-0.73,13.8-16.97,15.62-27.44,18.24c-0.91,0.23-3.44,3.58-1.75,3.84
								c13.08,2.01,32.22-9.56,31.48-23.98C374.49,333.92,372.33,336.4,372.27,337.24z"/>
							<path class="st7" d="M346.16,360.78L346.16,360.78c-1.13,0-2.23-0.08-3.27-0.24c-0.93-0.14-1.56-0.82-1.6-1.73
								c-0.08-1.6,1.94-4.16,3.24-4.49c1.27-0.32,2.62-0.63,4.01-0.94c10.27-2.33,21.91-4.97,22.5-16.18
								c0.07-1.08,1.76-3.49,3.21-3.49c0.69,0,1.46,0.5,1.51,1.6c0.27,5.27-1.89,10.49-6.25,15.08
								C363.61,356.59,354.22,360.78,346.16,360.78z M343.92,358.21c7.73,0.88,17.78-3.16,23.83-9.52c0.11-0.12,0.22-0.24,0.33-0.36
								c-5.06,4.26-12.75,6.01-18.99,7.42c-1.38,0.31-2.71,0.61-3.96,0.93C344.87,356.82,344.24,357.61,343.92,358.21z"/>
						</g>
					</g>
				</g>
			</g>
		</g>
	</g>
	<g>
		<path class="st8" d="M228.04,353.75c-6.51,0-9.59-6.94-12.57-13.66c-2.53-5.69-4.91-11.05-8.8-11.51
			c-2.62-0.32-3.15,0.8-4.11,5.32c-0.98,4.61-2.47,11.56-12.06,11.06c-9.07-0.49-11.28-6.87-13.23-12.5
			c-1.63-4.7-3.03-8.76-7.93-10.34c-2.61-0.83-4.56-0.66-5.96,0.52c-2.81,2.37-3.06,8.47-2.92,10.61c0.08,1.1-0.7,2.05-1.74,2.13
			c-1.04,0.07-1.94-0.75-2.01-1.86c-0.02-0.39-0.59-9.85,4.32-14c2.41-2.04,5.57-2.45,9.4-1.22c6.7,2.15,8.65,7.8,10.38,12.78
			c1.84,5.33,3.29,9.54,9.89,9.9c6.43,0.36,7.2-3.31,8.19-7.95c0.81-3.87,1.93-9.15,8.2-8.41c5.98,0.7,8.93,7.34,11.77,13.77
			c2.6,5.84,5.06,11.37,9.18,11.37c4.31,0,7.12-5.46,10.09-11.24c3.05-5.93,6.2-12.04,11.69-12.96c6-1,10,4.49,13.55,9.35
			c3.06,4.18,5.93,8.13,9.49,7.94c3.62-0.21,5.06-3.08,7.13-7.73c1.78-3.99,3.79-8.53,8.48-10.03c5.83-1.87,9.64,2.92,12.71,6.78
			c2.12,2.68,4.13,5.21,6.31,5.38c1.95,0.16,3.84-3.92,5.66-7.86c2.65-5.69,5.63-12.15,11.46-13.16
			c7.33-1.26,10.39,5.16,12.86,10.31c1.31,2.76,2.56,5.37,4.25,6.92c0.78,0.71,0.87,1.98,0.2,2.81c-0.69,0.84-1.88,0.93-2.66,0.2
			c-2.25-2.06-3.73-5.14-5.15-8.14c-2.65-5.56-4.5-8.92-8.89-8.17c-3.91,0.68-6.45,6.15-8.69,10.97
			c-2.48,5.36-4.85,10.42-9.33,10.08c-3.77-0.29-6.39-3.6-8.92-6.79c-3.27-4.14-5.5-6.57-8.73-5.54c-3.09,1-4.59,4.36-6.17,7.92
			c-2.01,4.53-4.29,9.66-10.34,10.01c-5.51,0.32-9.15-4.67-12.66-9.48c-3.18-4.36-6.21-8.48-9.99-7.85
			c-3.64,0.61-6.34,5.85-8.95,10.92C238.07,346.97,234.57,353.75,228.04,353.75z"/>
	</g>
	<g>
		<g>
			<path class="st8" d="M162.2,338.51c-1.31,1.56-2.99,2.62-4.9,3.25c-0.97,0.31-2.01,0.47-3.18,0.38
				c-1.14-0.13-2.43-0.56-3.47-1.67c-1-1.13-1.38-2.45-1.52-3.58c-0.15-1.14-0.08-2.2,0.05-3.21c0.31-2.02,0.88-3.84,1.72-5.7
				c0.7,1.95,0.92,3.92,1.21,5.7c0.13,0.89,0.29,1.75,0.48,2.47c0.21,0.73,0.49,1.27,0.74,1.52c0.23,0.26,0.7,0.54,1.33,0.69
				c0.62,0.18,1.38,0.24,2.19,0.26C158.48,338.66,160.24,338.51,162.2,338.51z"/>
		</g>
		<g>
			<path class="st8" d="M336.86,338.51c1.95,0,3.72,0.14,5.35,0.11c0.8-0.02,1.57-0.08,2.19-0.26c0.63-0.15,1.1-0.43,1.33-0.69
				c0.25-0.26,0.53-0.79,0.74-1.52c0.2-0.72,0.36-1.58,0.5-2.47c0.29-1.79,0.5-3.76,1.19-5.7c0.84,1.86,1.42,3.69,1.72,5.7
				c0.13,1.01,0.21,2.07,0.05,3.21c-0.14,1.13-0.52,2.45-1.52,3.58c-1.04,1.11-2.33,1.54-3.47,1.67c-1.16,0.1-2.21-0.06-3.17-0.38
				C339.84,341.13,338.17,340.07,336.86,338.51z"/>
		</g>
	</g>
	<g>
		<g>
			<g>
				<g>
					<path class="st9" d="M243.15,221.37c4.26,35.25,32.32,61.59,62.71,58.8c30.37-2.79,51.55-33.63,47.3-68.89
						c-4.24-35.26-32.32-61.57-62.7-58.79C260.08,155.28,238.91,186.11,243.15,221.37z"/>
					<path class="st8" d="M301.44,282.14L301.44,282.14c-14.5,0-28.68-6.23-39.91-17.54c-11.17-11.23-18.41-26.53-20.4-43.05
						c-4.36-36.17,17.68-67.93,49.11-70.82c1.54-0.13,3.1-0.2,4.63-0.2c14.51,0,28.67,6.22,39.91,17.53
						c11.17,11.24,18.42,26.54,20.41,43.05c4.35,36.17-17.69,67.95-49.13,70.82C304.53,282.07,302.98,282.14,301.44,282.14z
						 M294.87,154.06c-1.39,0-2.81,0.06-4.2,0.19c-29.21,2.68-49.62,32.7-45.49,66.93c3.88,32.19,28.59,57.42,56.26,57.42h0
						c1.39,0,2.81-0.07,4.2-0.2c29.21-2.68,49.61-32.7,45.5-66.94C347.24,179.28,322.54,154.06,294.87,154.06z"/>
				</g>
				<g>
					<g>
						<path class="st10" d="M264.66,221.05c4.1,18.42,21.09,31.4,37.97,28.99c16.88-2.39,27.23-19.27,23.14-37.68
							c-4.09-18.42-21.09-31.4-37.96-29C270.93,185.77,260.57,202.64,264.66,221.05z"/>
					</g>
					<g>
						<path class="st8" d="M279.17,218.99c2.15,9.67,11.07,16.49,19.94,15.24c8.87-1.27,14.31-10.13,12.16-19.8
							c-2.15-9.67-11.08-16.49-19.95-15.24C282.46,200.45,277.01,209.32,279.17,218.99z"/>
					</g>
					<g>
						<path class="st9" d="M295.05,203.52c2.72,5.09,8.71,7.93,13.38,6.33c4.67-1.59,6.24-7.01,3.52-12.1
							c-2.71-5.09-8.71-7.93-13.37-6.34C293.91,193,292.34,198.42,295.05,203.52z"/>
					</g>
				</g>
				<g>
					<path class="st11" d="M297.63,271.01c29.3-2.64,49.68-32.22,45.53-66.08c-1.92-15.7-8.69-30.27-18.44-40.35
						c13.85,10.09,23.94,27.57,26.36,47.25c4.14,33.84-16.16,63.78-45.46,66.42c-15.69,1.41-30.86-5.56-42.09-17.2
						C273.49,268.31,285.36,272.1,297.63,271.01z"/>
				</g>
			</g>
			<g>
				<g>
					<path class="st9" d="M257.43,224.83c-11.84,36.41-46.05,59.43-76.4,51.41c-30.35-8.03-45.34-44.05-33.48-80.47
						c11.85-36.43,46.05-59.44,76.4-51.42C254.29,152.37,269.28,188.41,257.43,224.83z"/>
					<path class="st8" d="M193.41,279.6c-4.42,0-8.77-0.56-12.98-1.67c-31.35-8.29-46.98-45.36-34.85-82.66
						c5.02-15.4,14.39-29.3,26.39-39.12c11.95-9.78,26-15.17,39.59-15.17c4.42,0,8.78,0.56,12.98,1.68
						c31.35,8.3,46.98,45.37,34.86,82.65c-5.02,15.41-14.39,29.31-26.39,39.13C221.06,274.21,207,279.6,193.41,279.6z
						 M211.56,144.53c-26.21,0-52.31,21.75-62.05,51.71c-11.54,35.44,2.87,70.56,32.12,78.31c3.82,1,7.78,1.51,11.79,1.51
						c26.21,0,52.31-21.75,62.05-51.72c11.54-35.44-2.87-70.56-32.1-78.29C219.54,145.04,215.58,144.53,211.56,144.53z"/>
				</g>
				<g>
					<g>
						<path class="st10" d="M231.73,219.89c-8.96,19.24-30.51,30.57-48.15,25.32c-17.62-5.26-24.65-25.11-15.69-44.35
							c8.96-19.24,30.51-30.57,48.14-25.32C233.66,180.8,240.69,200.66,231.73,219.89z"/>
					</g>
					<g>
						<path class="st8" d="M216.57,215.38c-4.71,10.1-16.03,16.05-25.29,13.3c-9.25-2.76-12.95-13.19-8.24-23.3
							c4.71-10.11,16.02-16.06,25.29-13.29C217.59,194.84,221.29,205.27,216.57,215.38z"/>
					</g>
					<g>
						<path class="st9" d="M203.25,196.16c-4.2,5.07-11.37,7.19-16.01,4.74c-4.65-2.45-5.02-8.56-0.83-13.63
							c4.19-5.07,11.36-7.19,16.01-4.74C207.06,184.99,207.43,191.09,203.25,196.16z"/>
					</g>
				</g>
				<g>
					<path class="st11" d="M191.36,267.96c-29.28-7.7-43.74-42.26-32.29-77.21c5.31-16.21,15.32-30.42,27.39-39.41
						c-16.27,8.3-30.27,25.01-36.93,45.33c-11.44,34.95,2.85,69.88,32.13,77.58c15.69,4.13,32.61-0.67,46.56-11.06
						C216.52,269.17,203.61,271.18,191.36,267.96z"/>
				</g>
			</g>
		</g>
		<g>
			<g>
				<path class="st12" d="M319.94,283.91c5.36-0.86,10.28-2.47,14.71-4.67c4.41-2.2,8.25-5.07,11.45-8.44
					c3.21-3.38,5.79-7.22,7.95-11.33c2.16-4.13,3.87-8.49,5.64-12.99c0.32,4.74-0.34,9.55-1.89,14.19
					c-1.57,4.63-4.13,9.13-7.78,12.95c-3.63,3.83-8.38,6.92-13.66,8.74c-2.63,0.91-5.39,1.53-8.15,1.81
					C325.43,284.43,322.63,284.47,319.94,283.91z"/>
			</g>
			<g>
				<path class="st12" d="M177.25,283.91c-2.69,0.56-5.5,0.52-8.27,0.26c-2.77-0.28-5.52-0.9-8.16-1.81
					c-5.27-1.82-10.03-4.91-13.65-8.74c-3.65-3.82-6.2-8.32-7.78-12.95c-1.55-4.64-2.22-9.44-1.88-14.19
					c1.77,4.5,3.47,8.86,5.64,12.99c2.15,4.1,4.74,7.95,7.94,11.33c3.2,3.37,7.04,6.24,11.46,8.44
					C166.96,281.44,171.9,283.05,177.25,283.91z"/>
			</g>
		</g>
	</g>
</g>
</svg>
