<?xml version="1.0" encoding="utf-8"?>
<!-- Generator: Adobe Illustrator 25.4.1, SVG Export Plug-In . SVG Version: 6.00 Build 0)  -->
<svg version="1.1" id="Layer_1" xmlns="http://www.w3.org/2000/svg" xmlns:xlink="http://www.w3.org/1999/xlink" x="0px" y="0px"
	 viewBox="0 0 500 500" style="enable-background:new 0 0 500 500;" xml:space="preserve">
<style type="text/css">
	.st0{fill:#D0E5F6;}
	.st1{fill:#338CCC;}
	.st2{fill:#C6E8ED;}
	.st3{fill:#93CBDC;}
	.st4{fill:#228FB9;}
	.st5{opacity:0.3;}
	.st6{fill:#6091B1;}
	.st7{fill:#1CA8C0;}
	.st8{fill:#323031;}
	.st9{fill:#FFFFFF;}
	.st10{fill:#231F20;}
</style>
<g id="beta7">
	<g>
		<g>
			<g>
				<g>
					<path class="st0" d="M8.65,245.67c1.19,42.23,11.38,86.11,32.94,122.54c55.75,94.23,145.07,99.06,243.15,101.08
						c52.34,1.09,110.35-5.33,149.57-44.79c49.66-49.97,62.21-128.78,57.48-197.09c-3.02-43.61-14.09-84.42-39.74-119.95
						c-23.9-33.11-55.48-61.69-91.95-79.46C320.16,8.55,276.53,3.68,232.68,5.77c-40.44,1.92-81.01,8.93-117.27,28.2
						C78.84,53.4,50.34,83.38,32.65,121.53C14.86,159.94,7.45,203.3,8.65,245.67z"/>
					<path class="st1" d="M284.15,470.6c-91.84-1.89-186.81-3.84-244.86-101.7C13.51,325.41,7,277.91,6.09,245.72
						c-1.27-44.8,7.1-87.93,24.2-124.74c17.69-38.08,46.58-68.56,83.54-88.15c32.14-17.04,69.67-26.05,118.1-28.35
						c5.3-0.25,10.57-0.4,15.65-0.44c43.59-0.33,80.46,7.13,112.7,22.8c35.2,17.1,67.24,44.72,92.67,79.86
						c23.59,32.6,36.71,72.06,40.08,120.62c7.9,113.78-32.95,172.95-58.01,198.09c-30.29,30.4-73.86,44.78-137.12,45.26
						c0,0,0,0-0.01,0C293.5,470.72,288.87,470.7,284.15,470.6z M232.05,7.07C183.99,9.35,146.8,18.27,115,35.12
						c-36.46,19.33-64.97,49.4-82.42,86.97C15.65,158.53,7.36,201.25,8.62,245.64c0.91,31.89,7.34,78.91,32.84,121.92
						c57.32,96.64,151.58,98.58,242.74,100.46c4.7,0.1,9.31,0.13,13.69,0.1c0,0,0.01,0,0.01,0c62.56-0.48,105.57-14.62,135.36-44.52
						c24.75-24.83,65.09-83.32,57.26-196.08c-3.34-48.05-16.29-87.06-39.59-119.27c-25.19-34.8-56.9-62.14-91.72-79.06
						C327.3,13.68,290.8,6.3,247.6,6.63C242.55,6.67,237.32,6.82,232.05,7.07z"/>
				</g>
				<path class="st2" d="M7.36,245.68c1.2,42.23,11.41,86.11,33.02,122.54c55.9,94.23,145.45,99.05,243.8,101.08
					c52.48,1.09,110.65-5.34,149.97-44.79c49.8-49.97,62.38-128.78,57.64-197.09c-3.03-43.61-14.13-84.42-39.84-119.95
					c-23.96-33.11-55.63-61.69-92.19-79.46C319.7,8.55,275.96,3.69,231.99,5.78c-40.54,1.93-81.23,8.93-117.58,28.2
					c-36.67,19.44-65.25,49.42-82.98,87.56C13.59,159.95,6.15,203.31,7.36,245.68z M92.66,205.71c3.39-8.03,9.3-14.76,14.51-21.6
					c5.23-6.87,9.02-13.63,10.51-21.85c-0.72-5.29-0.72-10.07,0.64-14.97c-0.19-5.41-0.47-10.82,0.33-16.18
					c1.42-9.56,7.36-17.89,10.52-26.89c2.68-7.65,4.92-15.53,9.75-22.13c5.4-7.37,13.63-10.82,22.07-13.16
					c4.9-1.35,9.88-2.36,14.71-3.98c6.14-2.06,11.13-5.64,15.61-10.31c6.47-6.74,11.59-14.53,19.3-19.95
					c9.18-6.46,21.27-8.44,32.19-8.87c12.05-0.48,24.12,1.72,35.87,4.21c9.08,1.92,18.08,4.36,27.24,5.81
					c7.46,1.17,14.99,1.85,22.5,2.59c17.19,1.69,34.94,3.28,50.96,10.36c9.33,4.12,16.7,10.49,21.84,18.54
					c11,10.97,19.28,25.06,29.74,36.42c13.06,14.19,26.62,27.99,33.1,46.75c3.99,11.56,4.97,24.35,7.04,36.36
					c2.27,13.19,4.7,26.34,7.37,39.45c1.99,9.79,2.44,19.71,0.51,29.54c-1.81,9.26-5.96,17.89-10.29,26.16
					c-5.31,10.16-11.15,19.52-13.81,30.84c-2.42,10.28-3.1,20.88-5.63,31.13c-4.81,19.5-19.57,34.62-37.5,42.27
					c-8.79,3.75-18.35,5.35-27.82,5.79c-10.6,0.51-20.87-1.7-31.41-2.02c-10.47-0.32-20.13,2.93-29.32,7.79
					c-9.57,5.07-18.05,11.77-28.73,14.3c-9.01,2.13-18.36,1.04-27.49,0.61c-5-0.24-9.99-0.18-14.97,0.33
					c-5.77,0.58-11.32,2.66-16.75,4.6c-8.77,3.13-17.47,5.86-26.76,3.52c-10.66-2.7-17.34-11.82-24.21-19.8
					c-3.91-4.54-7.99-8.5-13.21-11.43c-5.18-2.91-10.99-4.39-16.7-5.76c-9.53-2.27-18.71-4.72-26.64-10.84
					c-12.45-9.6-15.19-25.45-15.35-40.44c-0.11-10.28,1.24-20.52,0.66-30.8c-0.03-0.5-0.1-0.98-0.14-1.48
					c-0.13-1.3-0.27-2.61-0.41-3.91c-1.46-10.53-5.24-20-9.51-29.88C94.77,247.76,83.83,226.62,92.66,205.71z"/>
				<path class="st2" d="M31.43,121.54c17.73-38.15,46.31-68.13,82.98-87.56c22.62-11.99,46.92-19.23,71.82-23.45
					c-1.16,0.66-2.32,1.37-3.46,2.15c-6.11,4.24-11.52,9.38-16.82,14.61c-3.43,3.38-6.72,7.22-11.05,9.41
					c-4.4,2.23-9.14,3.28-14,3.91c-7.77,1.01-16.18,1.46-23.07,5.69c-7.15,4.4-12.08,11.59-16.11,18.9
					c-5.01,9.12-9.13,19.26-16.34,26.87c-6.81,7.19-14.86,13.08-21.79,20.17c-6.14,6.28-11.52,13.16-14.99,21.35
					c-4.01,9.48-4.07,19.29-3.95,29.42c0.14,12.47-0.42,24.55-3.83,36.6c-3.18,11.26-9.31,22.1-10.28,33.92
					c-1.84,22.55,14.19,40.93,15.07,62.99c0.73,18.39,0.21,37.61,11.63,53.07c6.22,8.4,14.12,15.09,21.88,21.93
					c3.97,3.49,7.94,7.08,11.28,11.21c3.45,4.26,5.8,8.85,8.31,13.69c7.83,15.04,18.97,26.32,35.03,31.78
					c11.17,3.79,22.28,4.66,33.99,4.57c12.86-0.09,25.11,0.92,37.44,4.93c19.15,6.23,37.24,16.34,57.97,14.97
					c12.31-0.81,24.32-4.49,36.4-6.84c13.53-2.63,26.13-3.07,39.73-0.77c10.05,1.71,20.55,3.88,30.73,1.92
					c11.07-2.12,19.83-8.54,28.5-15.51c9.43-7.58,18.72-14.67,28.96-21.06c8-4.99,15.46-10.94,21.32-18.47
					c6.4-8.21,10.83-17.38,14.99-26.93c4.78-10.96,9.32-22.07,13.02-33.46c3.65-11.27,6.69-22.83,8.11-34.64
					c0.74-6.11,1.18-12.28,0.94-18.44c-0.23-6.03-0.82-11.99-0.63-18.04c0.42-13.33,3.34-26.04,5.1-39.17
					c0.19-1.43,0.37-2.86,0.54-4.29c0.35,3.47,0.67,6.96,0.91,10.46c4.74,68.3-7.84,147.12-57.64,197.09
					c-39.32,39.46-97.48,45.88-149.97,44.79c-98.35-2.02-187.9-6.84-243.8-101.08C18.77,331.79,8.55,287.92,7.36,245.68
					C6.15,203.31,13.59,159.95,31.43,121.54z"/>
				<g>
					<g>
						<path class="st3" d="M87.74,270.81c-9.37,20.47-0.66,41.62,17.4,47.1c0,0-6.03,32.74,26.09,39.56
							c12.05,30.01,42.81,25.94,42.81,25.94s10.72,24.54,44.16,16.35c14.74,18.43,42.15,12.3,55.54-1.36
							c16.04,13.64,32.87,5.28,48.16-6.14c10.04-7.49,25.43,0.67,38.15-13.63c12.7-14.32,12.7-15.69,22.07-18.42
							c9.35-2.73,16.05-8.86,17.38-32.05c1.34-15.71,14.73-7.52,15.39-34.12c0.66-26.6-1.33-19.78,4.01-30.02
							c5.35-10.24,1.35-15.69-1.33-26.6c-2.67-10.95,6.04-25.93-7.36-40.94c-8.02-9.54-4.68-10.25-6.02-23.18
							c-1.36-12.99-6.69-12.99-12.72-19.13c-4.68-5.45-2.67-21.83-23.4-33.43c-11.39-5.45-11.39-6.81-17.39-12.95
							c-6.04-6.14-18.74-10.21-29.43-10.21c0,0-16.74-26.63-50.86-18.42c-27.42-12.99-52.19-10.28-65.54,7.48
							c-12.7-5.47-24.77,10.94-24.77,10.94c-22.74-6.17-37.48,10.21-43.49,23.85c-25.44-4.08-40.81,24.55-36.12,42.29
							c0,0-15.39,9.55-12.04,23.9c-16.74,13.62-9.38,36.83-6.02,44.33C72.36,248.32,77.04,257.88,87.74,270.81z"/>
						<path class="st4" d="M217.73,401.2c-4.35,1.01-8.56,1.53-12.52,1.53c-20.91,0-29.94-14.29-31.91-17.95
							c-0.67,0.05-1.7,0.11-3,0.11l0,0c-8.78,0-30.11-2.58-39.99-26.29c-28.81-6.54-27.28-33.84-26.58-39.78
							c-8.15-2.79-14.56-8.72-18.14-16.82c-4.12-9.35-3.88-20.59,0.65-30.98c-10.98-13.42-14.75-23.35-5.29-39.17
							c-2.13-5.06-11.35-29.84,6.05-44.73c-2.47-12.89,8.83-21.77,12-23.98c-2.1-9.37,0.83-21.05,7.59-30.05
							c7.36-9.79,17.9-14.56,29.22-13.08c5.7-12.28,17.63-25.06,34.6-25.06c2.98,0,6.05,0.39,9.16,1.17
							c2.12-2.65,10.22-11.89,19.88-11.89c1.69,0,3.35,0.29,4.95,0.86c7.91-10.03,19.53-15.33,33.66-15.33
							c10.15,0,21.06,2.7,32.44,8.04c4.29-1,8.53-1.51,12.61-1.51c23.44,0,36.39,16.63,38.78,19.99
							c11.36,0.17,23.75,4.57,29.67,10.59c1.02,1.04,1.86,1.94,2.62,2.75c3.65,3.9,5.15,5.51,14.48,9.98
							c15.08,8.43,18.56,19.55,20.86,26.92c0.9,2.89,1.68,5.39,2.83,6.73c1.49,1.52,2.94,2.65,4.34,3.74
							c4.12,3.2,7.67,5.97,8.74,16.18c0.4,3.85,0.39,6.64,0.38,8.88c-0.02,5.25-0.03,7.21,5.31,13.56
							c9.32,10.44,8.39,20.73,7.57,29.81c-0.39,4.24-0.75,8.25,0.09,11.67c0.57,2.32,1.2,4.37,1.8,6.34
							c2.16,7.08,3.87,12.68-0.57,21.19c-0.6,1.14-1.1,2.07-1.52,2.86c-2.21,4.07-2.21,4.07-2.18,11.23
							c0.01,3.22,0.03,8.09-0.15,15.36c-0.4,15.8-5.21,19.86-9.45,23.44c-3.03,2.55-5.42,4.57-5.95,10.72
							c-1.35,23.53-8.29,30.3-18.3,33.21c-7.65,2.24-8.67,3.41-16.65,12.56c-1.39,1.58-2.97,3.4-4.83,5.5
							c-7.78,8.74-16.56,9.45-24.3,10.08c-5.23,0.42-10.17,0.82-14.04,3.72c-8.38,6.27-19.48,13.45-30.97,13.45
							c-6.35,0-12.35-2.23-17.86-6.63c-8.01,7.7-19.73,12.44-30.87,12.44C235.74,412.57,225.59,410.58,217.73,401.2z M274.55,397.41
							c5.35,4.55,10.95,6.76,17.12,6.76c10.76,0,21.41-6.92,29.48-12.96c4.45-3.32,9.74-3.76,15.34-4.21
							c7.63-0.62,15.52-1.26,22.62-9.24c1.85-2.09,3.43-3.9,4.81-5.48c8.05-9.22,9.5-10.88,17.85-13.32
							c9.22-2.69,15.2-8.8,16.47-30.92c0.62-7.26,3.79-9.94,6.85-12.52c4.01-3.39,8.17-6.89,8.53-21.52
							c0.18-7.23,0.16-12.07,0.15-15.28c-0.02-7.52-0.03-7.82,2.5-12.48c0.42-0.78,0.92-1.7,1.5-2.82
							c3.94-7.56,2.53-12.19,0.39-19.2c-0.59-1.92-1.25-4.09-1.84-6.48c-0.94-3.85-0.55-8.07-0.15-12.54
							c0.77-8.55,1.65-18.24-6.94-27.86c-5.98-7.11-5.97-9.84-5.94-15.28c0.01-2.18,0.02-4.89-0.37-8.6
							c-0.95-9.1-3.8-11.32-7.76-14.39c-1.4-1.09-2.98-2.32-4.65-4.03c-1.55-1.8-2.41-4.54-3.4-7.71
							c-2.31-7.38-5.48-17.5-19.59-25.4c-9.68-4.63-11.4-6.47-15.16-10.49c-0.75-0.8-1.59-1.69-2.58-2.72
							c-5.51-5.61-17.78-9.84-28.54-9.84h-0.69l-0.38-0.59c-0.12-0.19-12.47-19.39-37.05-19.39c-4.02,0-8.22,0.52-12.46,1.54
							l-0.42,0.1l-0.4-0.19c-11.19-5.3-21.88-7.99-31.77-7.99c-13.67,0-24.81,5.21-32.24,15.08l-0.6,0.79l-0.9-0.39
							c-1.56-0.67-3.2-1.01-4.88-1.01c-9.77,0-18.3,11.42-18.38,11.54l-0.51,0.7l-0.83-0.22c-3.17-0.87-6.31-1.3-9.32-1.3
							c-16.17,0-27.49,12.62-32.69,24.42l-0.4,0.9l-0.95-0.15c-10.71-1.73-20.78,2.65-27.78,11.96c-6.42,8.54-9.2,20.09-6.93,28.72
							l0.24,0.93l-0.81,0.5c-0.15,0.1-14.57,9.22-11.47,22.5l0.18,0.8l-0.63,0.51c-17.68,14.38-6.94,39.91-5.66,42.78l0.28,0.63
							l-0.36,0.59c-9.29,15.15-5.71,24.12,5.24,37.35l0.52,0.63l-0.34,0.75c-4.54,9.91-4.89,20.69-0.97,29.58
							c3.42,7.75,9.67,13.34,17.59,15.74l1.1,0.33l-0.21,1.14c-0.24,1.29-5.45,31.57,25.11,38.06l0.66,0.14l0.26,0.63
							c9.17,22.86,29.56,25.32,37.9,25.32c2.2,0,3.56-0.18,3.57-0.18l0.94-0.12l0.38,0.88c0.08,0.17,7.79,17.26,30.02,17.26
							c3.99,0,8.26-0.55,12.69-1.64l0.77-0.19l0.51,0.63c7.29,9.12,16.95,11.03,23.76,11.03c10.72,0,22.46-4.9,29.9-12.49l0.82-0.84
							L274.55,397.41z"/>
					</g>
				</g>
				<g>
					<g class="st5">
						<g>
							<path class="st6" d="M209.89,96.46c-17.91-4.75-41.65,9.63-48.33,26.14c-0.54,1.35,0.88,0.83,1.34,0.12
								c5.82-9.27,12.48-15.48,22.83-19.34c7.44-2.79,15.28-2.37,22.88-4.15C209.3,99.08,211.11,96.79,209.89,96.46z"/>
							<path class="st7" d="M161.76,124.66L161.76,124.66c-0.53,0-1-0.24-1.28-0.66c-0.33-0.49-0.35-1.12-0.06-1.86
								c6.09-15.09,25.38-27.83,42.13-27.83c2.67,0,5.25,0.32,7.65,0.96c0.83,0.22,1.34,0.92,1.31,1.76
								c-0.04,1.28-1.51,3.14-2.66,3.38c-3.13,0.73-6.34,1.1-9.44,1.46c-4.62,0.53-8.98,1.03-13.27,2.64
								c-9.51,3.54-16.15,9.18-22.22,18.85C163.52,124.01,162.64,124.66,161.76,124.66z M202.55,96.75
								c-10.34,0-21.72,5.14-29.97,12.67c3.71-3.06,7.86-5.38,12.71-7.19c4.56-1.71,9.28-2.25,13.85-2.78
								c3.03-0.35,6.17-0.71,9.19-1.41c0.08-0.06,0.3-0.32,0.49-0.59C206.84,96.99,204.74,96.75,202.55,96.75z"/>
						</g>
						<g>
							<path class="st6" d="M125.79,183.96c-10.67,3.88-17.57,17.22-14.04,28.18c0.41,1.38,2.99-1.82,2.89-2.76
								c-1.01-9.84,1.44-18.82,10.66-23.78C125.68,185.41,126.6,183.66,125.79,183.96z"/>
							<path class="st7" d="M112.13,213.71L112.13,213.71c-0.74,0-1.33-0.46-1.56-1.21c-3.67-11.37,3.38-25.53,14.79-29.69
								l0.58-0.11c0.65,0,1.19,0.43,1.34,1.06c0.24,1-0.74,2.58-1.44,2.93c-7.73,4.16-11.11,11.76-10,22.56
								c0.14,1.24-1.24,2.84-1.52,3.15C113.55,213.28,112.83,213.71,112.13,213.71z M115.14,194.78c-2.78,4.84-3.87,10.64-2.54,15.9
								c0.38-0.45,0.76-1.03,0.82-1.32C112.84,203.72,113.41,198.85,115.14,194.78z"/>
						</g>
						<g>
							<path class="st6" d="M203.27,161.39c-2.52,0.63-5.12-0.31-7.65-0.05c-2.59,0.25-5.18,1.84-7.23,3.31
								c-4.01,2.84-7.31,7.29-8.09,12.22c-0.4,2.29,2.45-0.33,2.76-1.25c1.59-5.06,4.85-8.27,9.68-10.31
								c3.2-1.35,6.86,0.12,9.89-1.72C203.03,163.35,204.51,161.08,203.27,161.39z"/>
							<path class="st7" d="M180.63,179.01L180.63,179.01c-0.48,0-0.9-0.19-1.19-0.54c-0.55-0.65-0.39-1.52-0.34-1.81
								c0.77-4.87,3.98-9.74,8.58-13.01c2.1-1.49,4.88-3.24,7.82-3.52c1.16-0.12,2.37-0.01,3.55,0.11c1.39,0.14,2.85,0.24,3.92-0.03
								l0.5-0.07c0.7,0,1.27,0.42,1.45,1.07c0.34,1.24-1.1,3.09-1.66,3.43c-1.92,1.17-3.94,1.2-5.9,1.23
								c-1.49,0.02-2.89,0.05-4.14,0.57c-4.71,1.99-7.57,5.03-8.99,9.55C183.89,177,182.02,179.01,180.63,179.01z M196.57,162.52
								c-0.28,0-0.56,0.01-0.84,0.04c-2.37,0.23-4.79,1.77-6.65,3.09c-0.86,0.6-1.66,1.27-2.39,1.99c1.54-1.38,3.39-2.52,5.56-3.44
								c1.69-0.71,3.4-0.74,5.06-0.77c1.49-0.02,2.9-0.05,4.13-0.59c-0.85-0.01-1.76-0.07-2.64-0.16
								C198.06,162.6,197.31,162.52,196.57,162.52z"/>
						</g>
						<g>
							<path class="st6" d="M116.08,267.96c-6.78-9.75-10.25-19.72-2.6-30.18c0.45-0.63,0.18-1.42-0.5-0.63
								c-3.61,4.25-6.27,8.2-6.78,13.85c-0.63,7.13,2.75,14.74,7.72,19.66C114.63,271.35,116.59,268.71,116.08,267.96z"/>
							<path class="st7" d="M114.21,272L114.21,272c-0.43,0-0.84-0.17-1.15-0.47c-5.54-5.48-8.71-13.58-8.09-20.64
								c0.53-5.79,3.09-9.85,7.07-14.53c0.44-0.51,0.92-0.77,1.43-0.77h0.75l0.53,0.78c0.31,0.62,0.21,1.45-0.28,2.12
								c-6.25,8.55-5.47,17.15,2.62,28.76c0.31,0.45,0.54,1.25-0.13,2.51C116.84,270,115.75,272,114.21,272z M108.05,247.69
								c-0.31,1.08-0.53,2.21-0.64,3.42c-0.55,6.16,2.15,13.24,6.9,18.21c0.24-0.26,0.49-0.65,0.59-0.91
								C110.9,262.61,107.08,255.5,108.05,247.69z"/>
						</g>
						<g>
							<path class="st6" d="M179.36,261.14c-3.29-2.77-6.89-5.66-9.15-9.37c-2.86-4.71-0.29-9.46,2.12-13.58
								c0.65-1.11-0.4-1.12-0.96-0.33c-3.1,4.36-5.32,7.4-5.25,13c0.1,6.3,6.03,10.82,10.96,13.52
								C178.17,264.96,180.33,261.96,179.36,261.14z"/>
							<path class="st7" d="M177.39,265.68L177.39,265.68c-0.32,0-0.61-0.07-0.88-0.22c-7.51-4.1-11.52-9.14-11.6-14.58
								c-0.08-5.92,2.31-9.28,5.34-13.54c1.1-1.55,2.73-1.54,3.32-0.51c0.22,0.39,0.38,1.05-0.17,1.99
								c-2.58,4.41-4.52,8.37-2.13,12.32c2.01,3.3,5.2,5.97,8.28,8.55l0.61,0.51c0.32,0.27,1.03,1.08,0.48,2.6
								C180.21,263.96,178.89,265.68,177.39,265.68z M167.74,247.03c-0.27,1.15-0.41,2.39-0.4,3.82c0.09,5.59,5.48,9.78,10.09,12.33
								c0.34-0.23,0.82-0.88,0.93-1.28l-0.4-0.33c-3.23-2.7-6.57-5.5-8.8-9.15C168.07,250.6,167.68,248.79,167.74,247.03z"/>
						</g>
						<g>
							<path class="st6" d="M236.75,246.55c-4.08-3.11-7.62-6.53-9.43-11.45c-1.14-3.19-0.59-6.55,0.71-9.53
								c0.59-1.44,0.83-2.34,0.52-3.82c-0.11-0.51-1.04,0.63-1.07,0.89c-0.31,2.62-2.43,4.83-3.06,7.45
								c-0.49,2.18-0.7,4.48-0.21,6.68c1.25,5.88,4.8,10.49,10.32,12.91C235.65,250.14,237.74,247.32,236.75,246.55z"/>
							<path class="st7" d="M234.81,250.94L234.81,250.94c-0.26,0-0.51-0.05-0.74-0.15c-5.78-2.53-9.69-7.42-11.04-13.78
								c-0.47-2.12-0.4-4.48,0.21-7.2c0.33-1.37,0.98-2.56,1.6-3.72c0.67-1.23,1.3-2.4,1.44-3.59c0.08-0.63,1.07-2.1,2.15-2.1h0.98
								l0.34,1.09c0.38,1.75,0.1,2.91-0.58,4.55c-0.95,2.19-1.84,5.44-0.69,8.65c1.8,4.91,5.57,8.26,9.02,10.89
								c0.71,0.56,0.92,1.5,0.57,2.52C237.64,249.29,236.29,250.94,234.81,250.94z M225.5,230.92c-0.42,2.11-0.45,3.94-0.09,5.58
								c1.17,5.5,4.51,9.74,9.42,11.96c0.31-0.18,0.78-0.76,0.91-1.15c-3.65-2.81-7.6-6.42-9.57-11.81
								C225.66,234.07,225.43,232.53,225.5,230.92z"/>
						</g>
						<g>
							<path class="st6" d="M244.43,181.41c-4.93-3.79-9.99-3.56-15.17-0.52c-2.92,1.67-6,4.39-6.02,8
								c-0.02,0.89,1.25-0.6,1.35-0.93c0.84-3.61,6.07-5.49,9.2-5.65c2.89-0.16,5.68,1.43,8.3,2.39
								C243.26,185.14,245.48,182.23,244.43,181.41z"/>
							<path class="st7" d="M223.4,190.39h-0.51l-0.45-0.4c-0.19-0.2-0.42-0.55-0.41-1.12c0.02-3.38,2.38-6.6,6.64-9.03
								c5.9-3.46,11.49-3.25,16.52,0.62c0.72,0.57,0.94,1.51,0.58,2.54c-0.43,1.25-1.85,2.98-3.4,2.98l0,0
								c-0.24,0-0.48-0.04-0.69-0.13c-0.62-0.23-1.25-0.5-1.9-0.77c-1.83-0.77-3.73-1.56-5.55-1.56l-0.34,0.01
								c-2.89,0.15-7.43,1.91-8.08,4.71C225.65,188.71,224.59,190.39,223.4,190.39z M234.21,181.07c2.31,0,4.44,0.89,6.49,1.75
								c0.62,0.26,1.22,0.51,1.82,0.73c0.15-0.11,0.78-0.89,0.94-1.35c-4.08-3.02-8.32-3.18-13.16-0.49
								c1.2-0.37,2.39-0.58,3.44-0.64C233.89,181.07,234.05,181.07,234.21,181.07z"/>
						</g>
						<g>
							<path class="st6" d="M249.31,131.78c-1.63-5.27-8.88-6.46-13.57-6.22c-4.91,0.23-9.51,2.83-12.64,6.53
								c-0.68,0.8-0.69,2.32,0.49,1.13c3.31-3.31,7.87-4.06,12.39-3.68c4.76,0.37,7.01,3.36,10.8,5.39
								C248.01,135.58,249.62,132.78,249.31,131.78z"/>
							<path class="st7" d="M247.16,136.24L247.16,136.24c-0.34,0-0.67-0.09-0.98-0.25c-1.27-0.68-2.36-1.45-3.41-2.19
								c-2.15-1.52-4-2.83-6.91-3.06c-0.66-0.05-1.31-0.09-1.97-0.09c-4.01,0-7.19,1.15-9.46,3.41c-0.33,0.34-0.86,0.8-1.56,0.8
								c-0.57,0-1.08-0.33-1.32-0.85c-0.4-0.86-0.01-2.02,0.59-2.73c3.55-4.19,8.47-6.73,13.52-6.96c0.38-0.02,0.78-0.03,1.2-0.03
								c2.68,0,11.56,0.51,13.6,7.11c0.34,1.09-0.29,2.49-0.92,3.37C248.85,135.72,248.01,136.24,247.16,136.24z M233.9,128.22
								c0.72,0,1.44,0.03,2.16,0.1c3.57,0.28,5.89,1.91,8.12,3.49c0.95,0.67,1.92,1.36,3,1.95c0.38-0.26,0.96-1.27,0.94-1.68
								c-1.21-3.91-6.61-5.32-11.25-5.32c-0.37,0-0.73,0.01-1.08,0.03c-2.35,0.11-4.73,0.83-6.9,2.06
								C230.42,128.43,232.1,128.22,233.9,128.22z"/>
						</g>
						<g>
							<path class="st6" d="M292,195.86c-0.76,0.07-2.47,2.27-1.35,2.51c9.37,2.06,14.44,12.7,15.16,21.53
								c0.15,1.7,2.52-1.08,2.64-1.86C309.81,208.49,303.22,194.76,292,195.86z"/>
							<path class="st7" d="M306.2,221.67L306.2,221.67c-0.73,0-1.51-0.51-1.61-1.66c-0.69-8.49-5.43-18.51-14.21-20.44
								c-0.84-0.18-1.38-0.88-1.32-1.74c0.07-1.21,1.54-3.06,2.82-3.17c4.67-0.45,8.95,1.4,12.32,5.28
								c4.14,4.78,6.34,12.13,5.45,18.29C309.51,219.18,307.75,221.67,306.2,221.67z M291.86,197.41
								c8.9,2.53,13.9,12.24,15.02,20.96c0.18-0.23,0.33-0.46,0.37-0.6c0.76-5.32-1.25-12.04-4.9-16.25
								c-1.93-2.23-5.41-4.92-10.23-4.45C292.09,197.12,291.98,197.25,291.86,197.41z"/>
						</g>
						<g>
							<path class="st6" d="M313.42,155.58c-0.59,0.09-1.94,2.11-1.03,2.25c9.82,1.1,14.24,9.4,17.69,17.61
								c0.47,1.11,2.25-1.44,2.22-2.1C331.67,163.4,324,154.06,313.42,155.58z"/>
							<path class="st7" d="M330.44,176.93L330.44,176.93c-0.65,0-1.2-0.38-1.47-1.02c-3.2-7.61-7.4-15.83-16.71-16.87
								c-0.85-0.13-1.39-0.76-1.39-1.58c-0.01-1.12,1.22-2.91,2.37-3.1c11.64-1.67,19.65,8.8,20.29,18.88
								c0.06,1.03-0.99,2.37-1.39,2.79C331.56,176.64,331.01,176.93,330.44,176.93z M313.77,156.79
								c9.29,1.62,13.69,9.47,16.98,17.08c0.17-0.25,0.31-0.5,0.34-0.64c-0.57-8.61-7.31-17.76-17.3-16.46
								C313.79,156.77,313.78,156.78,313.77,156.79z"/>
						</g>
						<g>
							<path class="st6" d="M355.37,124.77c-1.57-1.61-3.33-2.99-5.42-3.85c-2.51-1.01-5.62,0.04-8.18,0.04
								c-0.72,0-2.25,2.04-1.26,2.29c1.94,0.54,3.94,0.66,5.93,0.92c2.14,0.3,3.81,2.36,5.29,3.76c3.06,2.93,5.44,6.53,7.42,10.25
								c0.7,1.32,2.8-1.73,2.72-2.6C361.3,131.18,358.43,127.84,355.37,124.77z"/>
							<path class="st7" d="M359.63,139.74L359.63,139.74c-0.66,0-1.22-0.35-1.55-0.97c-2.25-4.22-4.6-7.47-7.19-9.94
								c-0.27-0.25-0.54-0.52-0.82-0.81c-1.14-1.14-2.44-2.45-3.8-2.63c-0.51-0.07-1.02-0.13-1.54-0.18
								c-1.49-0.16-3.03-0.34-4.55-0.77c-0.82-0.21-1.31-0.95-1.2-1.84c0.14-1.1,1.47-2.84,2.79-2.84c0.77,0,1.63-0.11,2.53-0.23
								c2.12-0.27,4.45-0.4,6.11,0.27c2.02,0.84,3.93,2.19,5.84,4.13c2.97,2.98,6.2,6.58,6.84,11.52c0.1,1.07-0.83,2.5-1.48,3.21
								C360.95,139.38,360.28,139.74,359.63,139.74z M341.81,122.31c1.04,0.22,2.09,0.34,3.2,0.46c0.53,0.06,1.07,0.12,1.59,0.19
								c2.18,0.3,3.86,1.98,5.2,3.33c0.26,0.26,0.52,0.52,0.77,0.76c2.64,2.53,5.03,5.76,7.3,9.89c0.35-0.42,0.74-1.06,0.78-1.35
								c-0.54-4.02-3.46-7.26-6.15-9.96c-1.68-1.71-3.32-2.89-5.02-3.59c-1.17-0.47-3.07-0.34-4.88-0.11
								c-0.88,0.11-1.78,0.22-2.65,0.24C341.91,122.22,341.86,122.26,341.81,122.31z"/>
						</g>
						<g>
							<path class="st6" d="M356.55,225.4c-0.75-0.4-2.13,1.53-1.5,2.09c10.24,9.27,6.57,26.16-2.01,34.9
								c-0.88,0.91-1.54,3.75,0.45,2.27C363.71,256.95,371.15,232.92,356.55,225.4z"/>
							<path class="st7" d="M352.59,266.3L352.59,266.3c-0.65,0-1.21-0.37-1.47-0.98c-0.49-1.14,0.29-3,1.03-3.78
								c4.99-5.08,8.08-12.89,7.87-19.91c-0.16-5.36-2.16-9.94-5.8-13.23c-0.57-0.51-0.71-1.34-0.38-2.21
								c0.38-1,1.38-2.06,2.48-2.06h0.31l0.49,0.2c5.16,2.65,8.18,7.46,8.73,13.89c0.83,9.66-4.39,21.97-11.63,27.42
								C353.61,266.09,353.09,266.3,352.59,266.3z M356.2,226.89c3.93,3.72,6.1,8.78,6.27,14.66c0.15,5.06-1.19,10.34-3.66,14.96
								c3.19-5.48,5.1-12.38,4.61-18.1c-0.32-3.79-1.82-8.86-7.1-11.76C356.3,226.72,356.25,226.81,356.2,226.89z"/>
						</g>
						<g>
							<path class="st6" d="M401.15,214.98c-0.5-0.76-1.91,1.13-1.66,1.78c1.74,4.22,3.82,8.27,5.18,12.61
								c2.38,7.51-2.32,14.07-6.24,20c-0.6,0.92-0.81,3.26,0.78,1.79c4.59-4.31,7.42-9.73,9.02-15.79
								C410.27,227.61,405.13,221.1,401.15,214.98z"/>
							<path class="st7" d="M398.39,252.84L398.39,252.84c-0.58,0-1.1-0.31-1.38-0.83c-0.55-1.02-0.08-2.58,0.4-3.32l0.53-0.8
								c3.77-5.67,7.67-11.54,5.57-18.16c-0.89-2.86-2.15-5.68-3.36-8.4c-0.61-1.36-1.21-2.73-1.78-4.11
								c-0.36-0.92,0.16-1.87,0.49-2.36c0.33-0.48,1.03-1.29,1.98-1.29c0.54,0,1.03,0.27,1.33,0.73l1.23,1.86
								c3.75,5.63,7.99,12.01,6.01,19.51c-1.75,6.68-4.91,12.18-9.36,16.37C399.67,252.39,399.1,252.84,398.39,252.84z
								 M400.74,216.57c0.52,1.25,1.08,2.51,1.64,3.78c1.24,2.78,2.52,5.66,3.46,8.65c1.98,6.27-0.54,11.81-3.64,16.81
								c2.15-3.08,3.77-6.69,4.84-10.77c1.7-6.43-2.05-12.07-5.68-17.53L400.74,216.57z"/>
						</g>
						<g>
							<path class="st6" d="M306.43,262.78c-0.4-1-2.34,1.41-2.11,2.3c1.17,3.98,1.48,8.2-0.33,12.06
								c-1.97,4.19-6.83,5.93-10.87,7.41c-0.73,0.27-2.89,3.46-1.55,3.34C303.71,286.77,311.03,273.72,306.43,262.78z"/>
							<path class="st7" d="M291.51,289.12c-0.79,0-1.42-0.51-1.55-1.27c-0.25-1.41,1.68-4.05,2.75-4.44
								c4.05-1.48,8.46-3.1,10.18-6.78c1.47-3.12,1.56-6.79,0.27-11.2c-0.29-1.09,0.51-2.29,0.87-2.76c0.47-0.62,1.22-1.35,2.1-1.35
								c0.65,0,1.2,0.39,1.45,1.01c2.36,5.6,1.85,12.17-1.37,17.54c-3.19,5.31-8.48,8.68-14.51,9.24L291.51,289.12z M301.67,281.78
								c-2.4,1.82-5.38,2.91-7.96,3.86c-0.19,0.12-0.47,0.46-0.74,0.83C296.3,285.84,299.31,284.21,301.67,281.78z M305.75,264.45
								c-0.12,0.19-0.21,0.38-0.23,0.49c0.68,2.26,1,4.44,0.97,6.49C306.74,269.08,306.5,266.7,305.75,264.45z"/>
						</g>
						<g>
							<path class="st6" d="M217.82,301.5c-9.45-1.49-22.92-1.01-23.31-13.82c-0.06-1.31-2.06,0.94-2.1,1.76
								c-0.65,13.23,12.57,16.86,23.59,15.45C216.95,304.75,219.32,301.76,217.82,301.5z"/>
							<path class="st7" d="M211.56,306.4L211.56,306.4c-7.11,0-12.99-2.06-16.55-5.8c-2.76-2.9-4.05-6.68-3.83-11.22
								c0.06-1.15,1.7-3.32,3.05-3.32c0.69,0,1.45,0.49,1.49,1.57c0.3,9.95,9.3,11.04,18.01,12.09c1.47,0.18,2.91,0.35,4.27,0.57
								c0.94,0.16,1.53,0.86,1.52,1.77c-0.01,1.48-1.95,3.82-3.35,4.04C214.63,306.3,213.08,306.4,211.56,306.4z M193.6,290.53
								c0.03,3.35,1.09,6.19,3.18,8.39c3.05,3.2,8.44,5.04,14.78,5.04l0,0c1.42,0,2.86-0.09,4.28-0.27c0.19-0.11,0.66-0.64,0.96-1.1
								c-1.08-0.15-2.21-0.29-3.36-0.43C205.36,301.17,195.48,299.98,193.6,290.53z"/>
						</g>
						<g>
							<path class="st6" d="M164.69,318.02c-6.97-6.98-17.38-16.23-11.15-27.08c0.57-1.03-0.37-1.08-0.9-0.33
								c-7.04,10.42-1.25,25.35,9.81,30.56C163.58,321.73,165.58,318.9,164.69,318.02z"/>
							<path class="st7" d="M162.77,322.46L162.77,322.46c-0.31,0-0.6-0.07-0.87-0.2c-6.1-2.87-10.87-8.64-12.74-15.43
								c-1.67-6.07-0.8-12.08,2.47-16.9c0.85-1.21,2.51-1.33,3.1-0.32c0.22,0.38,0.38,1.02-0.12,1.93
								c-5.39,9.4,2.96,17.69,9.67,24.35l1.28,1.28c0.65,0.64,0.76,1.64,0.31,2.72C165.33,321.16,164.09,322.46,162.77,322.46z
								 M150.78,300.95c0.01,1.71,0.25,3.47,0.74,5.23c1.66,6.05,5.87,11.19,11.27,13.8c0.33-0.2,0.81-0.87,0.89-1.25l-1.13-1.13
								C157.98,313.08,152.3,307.44,150.78,300.95z"/>
						</g>
						<g>
							<path class="st6" d="M171.87,350.6c-9.83,3.32-18.47,0.35-26.5-5.67c-7.85-5.87-10.74-13.44-11.02-22.95
								c-0.03-0.84-1.3,0.54-1.34,0.96c-1.48,11.06,0.9,18.78,9.11,26.54c8.07,7.59,19.02,10.45,28.74,4.62
								C171.55,353.68,173.69,349.98,171.87,350.6z"/>
							<path class="st7" d="M159.9,358.42c-6.48,0-13.09-2.86-18.62-8.06c-8.3-7.85-11.05-15.84-9.49-27.59
								c0.09-0.82,1.29-2.29,2.37-2.29c0.67,0,1.37,0.49,1.4,1.44c0.3,10.01,3.54,16.8,10.54,22.02c8.81,6.61,16.94,8.34,25.38,5.49
								c1.09-0.37,2.01,0.1,2.26,1.01c0.41,1.48-1.43,4.2-2.26,4.69C167.86,357.31,163.97,358.42,159.9,358.42z M133.79,328.42
								c-0.07,8.08,2.71,14.06,9.17,20.17c8.19,7.7,18.79,9.55,27.27,4.46c0.13-0.12,0.37-0.46,0.59-0.85
								c-8.66,2.48-17.2,0.44-26.18-6.29C138.71,341.46,135.18,335.81,133.79,328.42z"/>
						</g>
						<g>
							<path class="st6" d="M253.3,350.13c-7.2,2.78-13.69,3.89-21.08,1.12c-5.19-1.94-9.27-6.98-13.95-9.88
								c-0.73-0.45-2.26,1.68-1.58,2.2c5.02,3.79,9.33,10.52,15.59,12.38c7.22,2.18,13.47,0.9,20.05-2.55
								C253.12,353.01,254.86,349.52,253.3,350.13z"/>
							<path class="st7" d="M239.28,358.25L239.28,358.25c-2.44,0-4.84-0.37-7.35-1.12c-4.38-1.31-7.75-4.7-11.01-7.99
								c-1.69-1.71-3.29-3.32-4.97-4.59c-0.62-0.48-0.82-1.28-0.52-2.16c0.32-0.95,1.34-2.3,2.6-2.3h0.35l0.52,0.25
								c1.93,1.2,3.76,2.74,5.53,4.23c2.59,2.18,5.27,4.44,8.2,5.54c2.74,1.03,5.41,1.52,8.18,1.52c3.6,0,7.31-0.81,12.03-2.64
								c1.07-0.41,2.02,0.09,2.24,1.03c0.33,1.37-1.21,3.98-2.21,4.49C248,357.05,243.67,358.25,239.28,358.25z M217.86,342.93
								c1.66,1.31,3.25,2.92,4.8,4.48c3.05,3.07,6.2,6.24,9.98,7.37c2.28,0.69,4.45,1.02,6.65,1.02l0,0c3.99,0,7.95-1.11,12.49-3.48
								c0.09-0.07,0.21-0.25,0.34-0.48c-7.9,2.87-13.84,2.97-20.32,0.55c-3.33-1.25-6.17-3.64-8.92-5.96
								c-1.66-1.4-3.22-2.72-4.86-3.78C217.97,342.73,217.91,342.83,217.86,342.93z"/>
						</g>
						<g>
							<path class="st6" d="M252.11,377.15c-16.31,5.9-32.41,12.25-46.04-2.55c-0.6-0.63-2.45,1.74-1.78,2.53
								c12.68,15.88,30.83,11.38,46.88,3.16C251.9,379.92,253.65,376.59,252.11,377.15z"/>
							<path class="st7" d="M225.8,388.98C225.8,388.98,225.8,388.98,225.8,388.98c-9.03,0-16.59-3.73-22.47-11.09
								c-0.29-0.34-0.72-1.15-0.1-2.48c0.35-0.74,1.33-2.15,2.59-2.15c0.44,0,0.84,0.18,1.14,0.49c5.4,5.88,11.65,8.72,19.09,8.72
								c7.78,0,15.86-2.93,24.41-6.03l1.22-0.45c1.04-0.38,1.98,0.11,2.21,1.03c0.32,1.32-1.2,3.85-2.17,4.34
								C241.74,386.49,233.26,388.98,225.8,388.98z M205.4,376.56c10.1,12.45,24.29,13.35,45.21,2.64c0.05-0.04,0.12-0.15,0.21-0.28
								c-8.23,2.98-16.72,6.01-24.77,6.01c-7.92,0-14.57-2.92-20.33-8.91C205.59,376.19,205.46,376.4,205.4,376.56z"/>
						</g>
						<g>
							<path class="st6" d="M333.15,328.11c-3.16,9.46-11,12.06-20.02,13.65c-1.08,0.22-3.12,3.87-1.75,3.76
								c11.41-0.69,20.68-7.09,23.77-18.33C335.59,325.63,333.37,327.39,333.15,328.11z"/>
							<path class="st7" d="M311.32,346.75c-0.86,0-1.53-0.61-1.61-1.48c-0.14-1.49,1.64-4.4,3.18-4.71
								c9.72-1.72,16.29-4.46,19.1-12.84c0.27-0.88,1.82-2.38,2.98-2.38h0.61l0.55,0.56c0.32,0.42,0.38,0.97,0.19,1.62
								c-3.09,11.27-12.39,18.46-24.87,19.22L311.32,346.75z M326.64,338.53c-3.98,2.54-8.77,3.64-13.3,4.44
								c-0.18,0.12-0.58,0.7-0.87,1.25C318.06,343.66,322.9,341.68,326.64,338.53z"/>
						</g>
						<g>
							<path class="st6" d="M368.71,330.52c-0.73,13.8-16.97,15.62-27.45,18.25c-0.91,0.23-3.44,3.58-1.75,3.84
								c13.08,2.01,32.23-9.56,31.49-23.99C370.93,327.2,368.77,329.68,368.71,330.52z"/>
							<path class="st7" d="M342.59,354.06L342.59,354.06c-1.13,0-2.23-0.08-3.27-0.24c-0.93-0.14-1.56-0.82-1.6-1.73
								c-0.08-1.6,1.94-4.16,3.24-4.49c1.27-0.32,2.62-0.63,4.02-0.94c10.27-2.33,21.92-4.97,22.51-16.19
								c0.07-1.08,1.76-3.49,3.22-3.49c0.69,0,1.46,0.5,1.51,1.6c0.27,5.27-1.89,10.49-6.26,15.08
								C360.04,349.87,350.66,354.06,342.59,354.06z M340.35,351.49c7.73,0.88,17.79-3.16,23.84-9.53c0.11-0.12,0.22-0.24,0.33-0.36
								c-5.07,4.27-12.75,6.01-19,7.42c-1.38,0.31-2.71,0.61-3.96,0.93C341.31,350.11,340.67,350.9,340.35,351.49z"/>
						</g>
					</g>
				</g>
			</g>
		</g>
	</g>
	<g>
		<g>
			<path class="st4" d="M239,358.53c-19.35,0-17.37,15.96-52.75,15.96c-38.55,0-50.83-64.15-9.6-77.5
				c27.44-8.88,42.03,12.96,61.51,12.68c12.15-0.17-1.55-0.17,10.58,0c19.5,0.28,34.09-21.56,61.53-12.68
				c41.22,13.35,28.94,77.5-9.61,77.5c-35.38,0-33.4-15.96-52.75-15.96C239.75,358.53,247.16,358.53,239,358.53z"/>
			<path class="st8" d="M300.66,376.2c-20.98,0-29.46-5.6-36.27-10.09c-4.97-3.28-8.89-5.87-16.48-5.87H239
				c-7.59,0-11.51,2.59-16.48,5.87c-6.82,4.49-15.3,10.09-36.28,10.09c-20.48,0-32.96-16.63-36.25-33.12
				c-3.66-18.36,2.95-40.22,25.99-47.68c4.63-1.5,9.07-2.23,13.56-2.23c10.69,0,19.21,4.14,27.44,8.16
				c7.04,3.42,13.68,6.65,20.81,6.65l0.34-0.01c2.84-0.04,4.17-0.07,4.81-0.09c0.31-0.05,0.72-0.05,1.03,0
				c0.63,0.02,1.97,0.05,4.8,0.09l0.34,0.01c7.13,0,13.77-3.23,20.8-6.65c8.24-4.01,16.75-8.16,27.44-8.16
				c4.49,0,8.93,0.73,13.55,2.23c23.04,7.46,29.66,29.31,25.99,47.68C333.62,359.56,321.14,376.2,300.66,376.2z M239,356.83h8.9
				c8.87,0,13.67,3.18,18.76,6.53c6.7,4.42,14.28,9.43,33.99,9.43c18.26,0,29.47-15.22,32.48-30.3
				c3.38-16.97-2.59-37.12-23.53-43.89c-4.19-1.36-8.21-2.02-12.24-2.02c-9.71,0-17.79,3.92-25.59,7.73
				c-7.48,3.63-14.54,7.08-22.65,7.08l-0.4-0.01c-2.73-0.03-4.53-0.07-5.26-0.11h-0.01c-0.73,0.03-2.53,0.07-5.26,0.11l-0.4,0.01
				c-8.12,0-15.17-3.44-22.64-7.08c-7.82-3.81-15.89-7.73-25.6-7.73c-4.04,0-8.04,0.66-12.25,2.02
				c-20.94,6.78-26.9,26.92-23.52,43.89c3,15.09,14.2,30.3,32.46,30.3c19.71,0,27.29-5.01,33.99-9.43
				C225.33,360.01,230.13,356.83,239,356.83z"/>
		</g>
		<g>
			<g>
				<path class="st9" d="M243.46,311.06C244.13,311.03,242.82,311.03,243.46,311.06L243.46,311.06z"/>
			</g>
			<g>
				<path class="st9" d="M310.25,298.38c-27.45-8.84-42,13.03-61.49,12.79c-3.5-0.04-4.85-0.08-5.3-0.1
					c-0.44,0.02-1.78,0.06-5.28,0.12c-19.49,0.31-34.13-21.51-61.55-12.58c-6.55,2.13-11.74,5.55-15.69,9.79
					c19.18,11.32,45.62,20.49,81.21,20.86v0.03c0.45,0,0.89-0.01,1.33-0.01c0.45,0,0.88,0.01,1.33,0.01v-0.03
					c35.6-0.49,62.02-9.76,81.15-21.14C322,303.88,316.8,300.49,310.25,298.38z"/>
			</g>
		</g>
		<g>
			<g>
				<path class="st9" d="M243.46,356.79C242.89,356.83,244.02,356.83,243.46,356.79L243.46,356.79z"/>
			</g>
			<g>
				<path class="st9" d="M181.52,372.37c31.07,3.9,40.47-15.93,57.36-15.68c3.03,0.05,4.2,0.08,4.58,0.1
					c0.39-0.02,1.55-0.07,4.58-0.11c16.89-0.31,20.31,16.25,51.79,16.25c12.23,0,18.95-5.04,22.36-9.28
					c-16.62-11.32-46.75-24.65-77.6-25.04v-0.02c-0.38,0-0.77,0.02-1.16,0.02c-0.38-0.01-0.77-0.02-1.15-0.02v0.02
					c-30.85,0.5-61.13,13.67-77.71,25.04C168.02,367.86,175.42,371.61,181.52,372.37z"/>
			</g>
		</g>
		<g>
			<g>
				<path class="st8" d="M141.96,140.49c5.34-6.39,11.46-12.31,18.22-17.67c6.82-5.32,14.37-10.15,23.2-13.24
					c4.4-1.52,9.15-2.55,14.09-2.71c4.93-0.17,10.01,0.61,14.63,2.32c4.64,1.71,8.79,4.25,12.36,7.17c3.59,2.94,6.64,6.24,9.34,9.7
					l-7.8,4.2c-4.16-6.45-9.6-12.33-16.82-15.65c-3.59-1.65-7.58-2.59-11.73-2.76c-4.15-0.18-8.41,0.39-12.56,1.49
					c-8.33,2.2-16.11,6.29-23.25,11C154.52,129.1,147.9,134.52,141.96,140.49z"/>
			</g>
			<g>
				<path class="st8" d="M348.02,140.49c-5.94-5.97-12.57-11.39-19.7-16.14c-7.14-4.71-14.93-8.8-23.24-11
					c-4.15-1.1-8.41-1.67-12.56-1.49c-4.14,0.17-8.14,1.11-11.72,2.76c-7.21,3.31-12.66,9.2-16.82,15.65l-7.8-4.2
					c2.7-3.46,5.76-6.76,9.34-9.7c3.57-2.92,7.72-5.46,12.36-7.17c4.63-1.71,9.7-2.49,14.63-2.32c4.94,0.15,9.69,1.19,14.1,2.71
					c8.83,3.09,16.38,7.92,23.18,13.24C336.57,128.18,342.68,134.11,348.02,140.49z"/>
			</g>
		</g>
		<g>
			<g>
				<g>
					<path class="st9" d="M239.55,214.61c4.26,35.27,32.33,61.61,62.72,58.82c30.38-2.79,51.57-33.64,47.32-68.91
						c-4.25-35.27-32.33-61.59-62.72-58.81C256.48,148.5,235.3,179.34,239.55,214.61z"/>
					<path class="st8" d="M297.86,275.4L297.86,275.4c-14.51,0-28.69-6.23-39.92-17.54c-11.18-11.24-18.42-26.54-20.41-43.07
						c-4.36-36.18,17.69-67.96,49.13-70.84c1.54-0.14,3.1-0.2,4.63-0.2c14.51,0,28.68,6.22,39.92,17.54
						c11.17,11.24,18.42,26.55,20.42,43.07c4.35,36.18-17.69,67.97-49.14,70.85C300.95,275.33,299.4,275.4,297.86,275.4z
						 M291.28,147.28c-1.39,0-2.81,0.06-4.2,0.19c-29.22,2.68-49.64,32.71-45.51,66.95c3.88,32.2,28.6,57.44,56.27,57.44h0
						c1.39,0,2.81-0.07,4.2-0.2c29.21-2.68,49.63-32.71,45.51-66.96C343.68,172.51,318.96,147.28,291.28,147.28z"/>
				</g>
				<g>
					<g>
						<path class="st4" d="M261.06,214.29c4.1,18.42,21.1,31.41,37.98,29c16.88-2.39,27.24-19.27,23.15-37.69
							c-4.09-18.42-21.1-31.41-37.97-29.01C267.34,179,256.98,195.88,261.06,214.29z"/>
					</g>
					<g>
						<path class="st8" d="M275.58,212.23c2.15,9.68,11.07,16.5,19.95,15.24c8.87-1.27,14.31-10.14,12.16-19.81
							c-2.15-9.68-11.09-16.5-19.95-15.24C278.87,193.68,273.42,202.55,275.58,212.23z"/>
					</g>
					<g>
						<path class="st9" d="M291.47,196.75c2.72,5.09,8.71,7.94,13.38,6.33c4.67-1.59,6.25-7.01,3.53-12.11
							c-2.71-5.09-8.71-7.94-13.37-6.34C290.33,186.23,288.75,191.65,291.47,196.75z"/>
					</g>
				</g>
				<g>
					<path class="st0" d="M294.04,264.26c29.31-2.64,49.7-32.23,45.55-66.1c-1.92-15.7-8.7-30.28-18.44-40.37
						c13.86,10.09,23.95,27.58,26.37,47.26c4.14,33.86-16.16,63.8-45.48,66.45c-15.7,1.41-30.87-5.57-42.11-17.21
						C269.9,261.56,281.78,265.36,294.04,264.26z"/>
				</g>
			</g>
			<g>
				<g>
					<path class="st9" d="M253.83,218.07c-11.84,36.42-46.06,59.45-76.42,51.42c-30.36-8.03-45.35-44.07-33.49-80.49
						c11.85-36.44,46.06-59.46,76.42-51.44C250.69,145.59,265.69,181.64,253.83,218.07z"/>
					<path class="st8" d="M189.8,272.86c-4.42,0-8.77-0.56-12.98-1.67c-31.36-8.29-46.99-45.37-34.86-82.68
						c5.02-15.41,14.39-29.31,26.4-39.13c11.95-9.79,26.01-15.17,39.6-15.17c4.42,0,8.78,0.57,12.98,1.68
						c31.36,8.3,47,45.38,34.87,82.67c-5.02,15.42-14.39,29.32-26.4,39.14C217.45,267.47,203.38,272.86,189.8,272.86z
						 M207.95,137.75c-26.22,0-52.32,21.76-62.07,51.73c-11.54,35.45,2.88,70.58,32.13,78.33c3.82,1,7.78,1.51,11.79,1.51
						c26.22,0,52.32-21.75,62.07-51.74c11.54-35.45-2.87-70.58-32.12-78.31C215.93,138.26,211.97,137.75,207.95,137.75z"/>
				</g>
				<g>
					<g>
						<path class="st4" d="M228.13,213.13c-8.97,19.24-30.52,30.58-48.16,25.33c-17.63-5.26-24.66-25.12-15.7-44.36
							c8.97-19.25,30.52-30.58,48.15-25.33C230.06,174.02,237.08,193.89,228.13,213.13z"/>
					</g>
					<g>
						<path class="st8" d="M212.96,208.62c-4.71,10.11-16.03,16.06-25.3,13.31c-9.26-2.76-12.95-13.2-8.24-23.3
							c4.71-10.11,16.03-16.07,25.3-13.3C213.98,188.08,217.68,198.5,212.96,208.62z"/>
					</g>
					<g>
						<path class="st9" d="M199.63,189.39c-4.2,5.07-11.37,7.2-16.01,4.74c-4.65-2.46-5.02-8.56-0.83-13.64
							c4.19-5.07,11.36-7.19,16.01-4.74C203.45,178.21,203.81,184.32,199.63,189.39z"/>
					</g>
				</g>
				<g>
					<path class="st0" d="M187.75,261.22c-29.29-7.7-43.75-42.27-32.3-77.23c5.31-16.22,15.33-30.43,27.4-39.42
						c-16.27,8.3-30.28,25.01-36.94,45.34c-11.44,34.96,2.85,69.91,32.14,77.6c15.7,4.13,32.62-0.67,46.57-11.06
						C212.91,262.42,200,264.44,187.75,261.22z"/>
				</g>
			</g>
		</g>
		<g>
			<g>
				<path class="st10" d="M316.36,277.17c5.36-0.86,10.28-2.47,14.71-4.67c4.41-2.2,8.25-5.07,11.46-8.44
					c3.21-3.38,5.8-7.22,7.95-11.33c2.16-4.13,3.87-8.49,5.65-12.99c0.32,4.74-0.34,9.55-1.89,14.19
					c-1.57,4.63-4.13,9.13-7.78,12.95c-3.63,3.83-8.39,6.92-13.66,8.75c-2.63,0.91-5.39,1.53-8.16,1.81
					C321.86,277.69,319.05,277.73,316.36,277.17z"/>
			</g>
			<g>
				<path class="st10" d="M173.63,277.17c-2.69,0.56-5.5,0.52-8.27,0.26c-2.77-0.28-5.53-0.9-8.16-1.81
					c-5.27-1.82-10.03-4.91-13.66-8.75c-3.65-3.82-6.21-8.33-7.78-12.95c-1.55-4.64-2.22-9.45-1.88-14.19
					c1.77,4.5,3.47,8.86,5.65,12.99c2.15,4.1,4.74,7.95,7.94,11.33c3.2,3.37,7.04,6.24,11.46,8.44
					C163.34,274.7,168.27,276.31,173.63,277.17z"/>
			</g>
		</g>
	</g>
</g>
</svg>
