<?xml version="1.0" encoding="utf-8"?>
<!-- Generator: Adobe Illustrator 25.4.1, SVG Export Plug-In . SVG Version: 6.00 Build 0)  -->
<svg version="1.1" id="Layer_1" xmlns="http://www.w3.org/2000/svg" xmlns:xlink="http://www.w3.org/1999/xlink" x="0px" y="0px"
	 viewBox="0 0 500 500" style="enable-background:new 0 0 500 500;" xml:space="preserve">
<style type="text/css">
	.st0{fill:#D0E5F6;}
	.st1{fill:#338CCC;}
	.st2{fill:#C6E8ED;}
	.st3{fill:#93CBDC;}
	.st4{fill:#228FB9;}
	.st5{opacity:0.3;}
	.st6{fill:#6091B1;}
	.st7{fill:#1CA8C0;}
	.st8{fill:#FFFFFF;}
	.st9{fill:#323031;}
	.st10{fill:#231F20;}
</style>
<g id="beta6_00000012458337461610974580000015699427914594435513_">
	<g>
		<g>
			<g>
				<g>
					<path class="st0" d="M5.71,248.84c1.21,42.7,11.51,87.06,33.3,123.9c56.37,95.28,146.67,100.15,245.84,102.2
						c52.92,1.1,111.57-5.39,151.22-45.28c50.21-50.52,62.9-130.21,58.11-199.27c-3.06-44.09-14.25-85.35-40.17-121.27
						c-24.16-33.48-56.09-62.38-92.97-80.34C320.67,9.09,276.56,4.18,232.22,6.29c-40.88,1.95-81.91,9.03-118.56,28.51
						c-36.97,19.65-65.79,49.96-83.67,88.53C12,162.16,4.5,206,5.71,248.84z"/>
					<path class="st1" d="M284.26,476.25c-92.86-1.91-188.88-3.88-247.56-102.83C10.63,329.46,4.05,281.44,3.13,248.89
						c-1.29-45.3,7.18-88.91,24.47-126.12c17.88-38.5,47.09-69.32,84.46-89.13C144.55,16.42,182.5,7.31,231.47,4.99
						c5.36-0.26,10.69-0.4,15.82-0.44c44.07-0.34,81.35,7.21,113.95,23.06c35.58,17.29,67.98,45.22,93.69,80.74
						c23.86,32.97,37.12,72.86,40.53,121.96c7.99,115.04-33.32,174.86-58.65,200.28c-30.63,30.73-74.68,45.27-138.63,45.76
						c0,0,0,0-0.01,0C293.72,476.38,289.04,476.35,284.26,476.25z M231.59,7.59C183,9.9,145.39,18.92,113.24,35.96
						c-36.87,19.54-65.68,49.95-83.33,87.93C12.79,160.73,4.41,203.93,5.69,248.81c0.92,32.24,7.42,79.79,33.2,123.26
						c57.96,97.71,153.26,99.67,245.43,101.57c4.75,0.1,9.41,0.13,13.84,0.1c0,0,0.01,0,0.01,0
						c63.25-0.48,106.73-14.78,136.86-45.01c25.02-25.11,65.81-84.25,57.89-198.25c-3.37-48.58-16.47-88.03-40.03-120.58
						c-25.46-35.19-57.53-62.83-92.74-79.94c-32.25-15.67-69.16-23.13-112.83-22.8C242.21,7.19,236.92,7.34,231.59,7.59z"/>
				</g>
				<path class="st2" d="M4.41,248.85c1.21,42.7,11.54,87.06,33.39,123.9c56.52,95.28,147.06,100.15,246.49,102.19
					c53.06,1.1,111.87-5.39,151.63-45.29c50.35-50.52,63.07-130.21,58.27-199.27c-3.06-44.09-14.29-85.35-40.28-121.27
					c-24.22-33.48-56.24-62.38-93.21-80.34C320.21,9.1,275.98,4.18,231.53,6.29c-40.99,1.95-82.13,9.03-118.88,28.51
					c-37.07,19.65-65.97,49.96-83.9,88.53C10.71,162.17,3.19,206.01,4.41,248.85z M90.66,208.44c3.43-8.12,9.4-14.93,14.67-21.84
					c5.29-6.94,9.12-13.78,10.63-22.09c-0.73-5.35-0.73-10.19,0.64-15.13c-0.19-5.47-0.47-10.94,0.33-16.36
					c1.44-9.66,7.44-18.08,10.64-27.19c2.71-7.73,4.97-15.7,9.86-22.37c5.45-7.45,13.78-10.94,22.32-13.3
					c4.95-1.37,9.99-2.38,14.88-4.02c6.21-2.08,11.25-5.7,15.79-10.43c6.54-6.81,11.72-14.69,19.51-20.17
					c9.28-6.54,21.51-8.53,32.54-8.97c12.19-0.49,24.39,1.74,36.26,4.26c9.18,1.95,18.28,4.41,27.54,5.87
					c7.54,1.19,15.16,1.87,22.75,2.62c17.38,1.71,35.33,3.31,51.52,10.47c9.44,4.17,16.88,10.61,22.08,18.74
					c11.12,11.09,19.49,25.34,30.07,36.83c13.21,14.35,26.91,28.3,33.47,47.26c4.04,11.69,5.03,24.62,7.12,36.76
					c2.29,13.33,4.75,26.63,7.45,39.88c2.01,9.9,2.47,19.93,0.52,29.87c-1.83,9.36-6.02,18.09-10.4,26.45
					c-5.37,10.27-11.27,19.74-13.97,31.18c-2.44,10.39-3.14,21.11-5.7,31.47c-4.86,19.71-19.79,35-37.91,42.74
					c-8.88,3.79-18.55,5.4-28.13,5.86c-10.72,0.51-21.1-1.72-31.76-2.04c-10.59-0.32-20.35,2.96-29.64,7.88
					c-9.68,5.12-18.25,11.91-29.05,14.46c-9.1,2.16-18.57,1.05-27.79,0.61c-5.06-0.24-10.1-0.18-15.14,0.33
					c-5.84,0.59-11.44,2.69-16.94,4.65c-8.86,3.16-17.66,5.93-27.06,3.56c-10.78-2.73-17.53-11.95-24.48-20.02
					c-3.95-4.59-8.08-8.6-13.36-11.56c-5.24-2.94-11.11-4.44-16.88-5.82c-9.64-2.29-18.92-4.78-26.94-10.96
					c-12.59-9.71-15.36-25.73-15.52-40.88c-0.11-10.39,1.25-20.75,0.67-31.15c-0.03-0.51-0.1-1-0.14-1.5
					c-0.14-1.31-0.28-2.63-0.41-3.95c-1.47-10.65-5.3-20.22-9.61-30.21C92.79,250.95,81.73,229.58,90.66,208.44z"/>
				<path class="st2" d="M28.75,123.33c17.93-38.57,46.83-68.88,83.9-88.53c22.87-12.12,47.44-19.44,72.61-23.71
					c-1.18,0.67-2.35,1.39-3.5,2.18c-6.18,4.28-11.64,9.48-17,14.77c-3.47,3.42-6.79,7.3-11.17,9.52
					c-4.45,2.26-9.25,3.32-14.16,3.96c-7.85,1.02-16.36,1.47-23.32,5.75c-7.23,4.45-12.21,11.72-16.29,19.11
					c-5.07,9.22-9.23,19.47-16.53,27.17c-6.88,7.27-15.03,13.22-22.03,20.39c-6.21,6.35-11.65,13.31-15.16,21.59
					c-4.06,9.58-4.12,19.5-3.99,29.74c0.15,12.6-0.42,24.82-3.87,37c-3.21,11.38-9.41,22.35-10.39,34.3
					c-1.86,22.8,14.35,41.38,15.24,63.69c0.74,18.6,0.21,38.03,11.76,53.65c6.29,8.49,14.28,15.26,22.12,22.18
					c4.01,3.53,8.03,7.15,11.41,11.34c3.49,4.31,5.86,8.95,8.41,13.84c7.92,15.21,19.18,26.61,35.42,32.13
					c11.29,3.83,22.53,4.71,34.36,4.62c13-0.09,25.39,0.93,37.85,4.98c19.37,6.3,37.66,16.52,58.61,15.13
					c12.44-0.82,24.59-4.54,36.8-6.91c13.68-2.66,26.42-3.1,40.17-0.78c10.16,1.73,20.78,3.92,31.07,1.94
					c11.19-2.14,20.05-8.63,28.82-15.69c9.54-7.67,18.93-14.83,29.29-21.29c8.09-5.05,15.63-11.06,21.56-18.67
					c6.47-8.3,10.95-17.57,15.15-27.23c4.83-11.08,9.43-22.31,13.16-33.83c3.69-11.4,6.76-23.09,8.2-35.02
					c0.75-6.18,1.19-12.42,0.95-18.65c-0.23-6.1-0.83-12.12-0.64-18.24c0.42-13.48,3.38-26.33,5.16-39.6
					c0.19-1.45,0.37-2.89,0.54-4.34c0.35,3.51,0.67,7.03,0.92,10.58c4.8,69.06-7.93,148.75-58.27,199.27
					c-39.76,39.89-98.56,46.38-151.63,45.29c-99.43-2.04-189.98-6.92-246.49-102.19c-21.85-36.84-32.18-81.2-33.39-123.9
					C3.19,206.01,10.71,162.17,28.75,123.33z"/>
				<g>
					<g>
						<path class="st3" d="M85.68,274.26c-9.48,20.7-0.67,42.08,17.6,47.62c0,0-6.1,33.1,26.38,40
							c12.18,30.35,43.28,26.23,43.28,26.23s10.83,24.81,44.65,16.53c14.9,18.64,42.62,12.43,56.16-1.38
							c16.21,13.79,33.23,5.34,48.69-6.21c10.15-7.58,25.71,0.68,38.58-13.78c12.84-14.48,12.84-15.86,22.32-18.63
							c9.45-2.76,16.22-8.96,17.58-32.41c1.36-15.89,14.89-7.6,15.56-34.5c0.67-26.9-1.34-20,4.05-30.35
							c5.41-10.35,1.37-15.86-1.35-26.89c-2.7-11.07,6.11-26.22-7.44-41.39c-8.11-9.65-4.73-10.36-6.08-23.44
							c-1.37-13.14-6.76-13.14-12.86-19.34c-4.73-5.51-2.7-22.07-23.66-33.8c-11.51-5.51-11.51-6.88-17.59-13.1
							c-6.1-6.21-18.95-10.33-29.76-10.33c0,0-16.92-26.92-51.42-18.62c-27.72-13.14-52.76-10.39-66.27,7.56
							c-12.84-5.53-25.04,11.06-25.04,11.06c-22.99-6.24-37.89,10.33-43.97,24.11c-25.72-4.13-41.26,24.82-36.52,42.76
							c0,0-15.56,9.66-12.18,24.16c-16.92,13.77-9.49,37.23-6.09,44.82C70.13,251.52,74.87,261.18,85.68,274.26z"/>
						<path class="st4" d="M217.11,406.09c-4.4,1.02-8.65,1.54-12.65,1.54c-21.14,0-30.27-14.45-32.26-18.15
							c-0.68,0.05-1.72,0.11-3.03,0.11l0,0c-8.87,0-30.45-2.6-40.43-26.58c-29.13-6.61-27.58-34.22-26.87-40.22
							c-8.24-2.82-14.72-8.81-18.34-17.01c-4.17-9.45-3.92-20.82,0.66-31.32c-11.1-13.57-14.91-23.61-5.35-39.61
							c-2.15-5.11-11.47-30.17,6.12-45.22c-2.49-13.03,8.93-22.01,12.13-24.24c-2.12-9.48,0.83-21.28,7.67-30.38
							c7.44-9.9,18.1-14.72,29.55-13.22c5.76-12.42,17.82-25.34,34.98-25.34c3.01,0,6.12,0.4,9.26,1.18
							c2.14-2.68,10.33-12.02,20.1-12.02c1.71,0,3.39,0.29,5.01,0.87c8-10.14,19.74-15.5,34.03-15.5c10.26,0,21.29,2.73,32.8,8.13
							c4.33-1.01,8.62-1.52,12.75-1.52c23.7,0,36.8,16.81,39.21,20.21c11.49,0.17,24.01,4.62,30,10.71
							c1.03,1.05,1.88,1.97,2.65,2.78c3.69,3.94,5.21,5.57,14.64,10.09c15.24,8.53,18.76,19.77,21.09,27.21
							c0.91,2.92,1.7,5.45,2.86,6.8c1.51,1.54,2.97,2.68,4.39,3.78c4.16,3.24,7.76,6.04,8.83,16.35c0.4,3.9,0.39,6.72,0.39,8.98
							c-0.02,5.3-0.03,7.29,5.37,13.71c9.43,10.55,8.48,20.96,7.65,30.14c-0.39,4.29-0.76,8.34,0.09,11.8
							c0.58,2.35,1.21,4.42,1.82,6.41c2.18,7.16,3.91,12.82-0.58,21.42c-0.6,1.15-1.11,2.09-1.54,2.89
							c-2.23,4.12-2.23,4.12-2.21,11.35c0.01,3.26,0.03,8.18-0.15,15.53c-0.4,15.98-5.26,20.08-9.55,23.7
							c-3.06,2.58-5.48,4.62-6.01,10.84c-1.37,23.79-8.39,30.63-18.5,33.58c-7.73,2.26-8.77,3.45-16.84,12.7
							c-1.4,1.6-3,3.44-4.88,5.56c-7.87,8.84-16.74,9.56-24.57,10.2c-5.28,0.43-10.28,0.83-14.2,3.76
							c-8.47,6.34-19.7,13.6-31.32,13.6c-6.42,0-12.49-2.26-18.05-6.7c-8.1,7.78-19.94,12.58-31.21,12.58
							C235.32,417.58,225.05,415.57,217.11,406.09z M274.56,402.26c5.41,4.6,11.07,6.84,17.31,6.84c10.88,0,21.64-7,29.81-13.1
							c4.5-3.36,9.85-3.8,15.51-4.26c7.71-0.62,15.69-1.28,22.87-9.35c1.87-2.11,3.47-3.94,4.86-5.54c8.13-9.32,9.6-11,18.05-13.47
							c9.32-2.72,15.36-8.9,16.65-31.27c0.63-7.34,3.83-10.05,6.93-12.66c4.06-3.42,8.26-6.97,8.63-21.76
							c0.18-7.31,0.16-12.21,0.15-15.45c-0.02-7.61-0.03-7.91,2.53-12.62c0.42-0.79,0.93-1.72,1.52-2.85
							c3.99-7.64,2.56-12.32,0.39-19.42c-0.59-1.94-1.26-4.13-1.86-6.55c-0.95-3.9-0.56-8.16-0.15-12.68
							c0.78-8.65,1.67-18.44-7.02-28.17c-6.04-7.19-6.03-9.95-6.01-15.45c0.01-2.2,0.02-4.94-0.37-8.7
							c-0.96-9.2-3.84-11.44-7.84-14.55c-1.41-1.1-3.01-2.34-4.7-4.07c-1.57-1.82-2.43-4.59-3.43-7.79
							c-2.34-7.47-5.54-17.69-19.81-25.68c-9.79-4.68-11.53-6.54-15.33-10.6c-0.76-0.81-1.6-1.71-2.61-2.75
							c-5.58-5.67-17.98-9.95-28.86-9.95h-0.7l-0.38-0.6c-0.12-0.2-12.61-19.61-37.46-19.61c-4.07,0-8.31,0.53-12.59,1.56
							l-0.43,0.11l-0.4-0.19c-11.31-5.36-22.12-8.08-32.12-8.08c-13.82,0-25.09,5.27-32.59,15.24l-0.6,0.8l-0.91-0.39
							c-1.58-0.68-3.24-1.02-4.93-1.02c-9.87,0-18.5,11.55-18.59,11.67l-0.52,0.7l-0.84-0.22c-3.2-0.88-6.38-1.31-9.42-1.31
							c-16.35,0-27.79,12.76-33.05,24.69l-0.4,0.91l-0.96-0.15c-10.83-1.75-21.01,2.68-28.09,12.09c-6.49,8.64-9.31,20.31-7,29.04
							l0.25,0.94l-0.82,0.51c-0.15,0.1-14.73,9.32-11.6,22.75l0.19,0.81l-0.63,0.52c-17.88,14.54-7.02,40.36-5.73,43.25l0.29,0.64
							l-0.36,0.6c-9.39,15.32-5.77,24.38,5.3,37.76l0.53,0.64l-0.35,0.76c-4.59,10.02-4.95,20.92-0.98,29.9
							c3.46,7.83,9.77,13.48,17.79,15.91l1.11,0.34l-0.21,1.15c-0.24,1.3-5.51,31.92,25.38,38.48l0.66,0.14l0.26,0.64
							c9.27,23.11,29.88,25.61,38.32,25.61c2.23,0,3.59-0.18,3.61-0.18l0.95-0.12l0.39,0.89c0.08,0.17,7.88,17.45,30.35,17.45
							c4.03,0,8.35-0.56,12.83-1.66l0.78-0.19l0.51,0.64c7.37,9.22,17.14,11.16,24.03,11.16c10.84,0,22.71-4.96,30.23-12.63
							l0.83-0.84L274.56,402.26z"/>
					</g>
				</g>
				<g>
					<g class="st5">
						<g>
							<path class="st6" d="M209.18,97.97c-18.11-4.8-42.12,9.74-48.86,26.43c-0.55,1.37,0.89,0.84,1.35,0.12
								c5.89-9.37,12.62-15.66,23.08-19.56c7.52-2.83,15.45-2.39,23.14-4.19C208.59,100.63,210.41,98.31,209.18,97.97z"/>
							<path class="st7" d="M160.52,126.49L160.52,126.49c-0.54,0-1.01-0.24-1.29-0.67c-0.34-0.5-0.36-1.13-0.06-1.88
								c6.16-15.26,25.66-28.14,42.59-28.14c2.7,0,5.3,0.33,7.74,0.97c0.84,0.23,1.36,0.93,1.33,1.78
								c-0.04,1.29-1.52,3.18-2.69,3.42c-3.17,0.74-6.41,1.11-9.55,1.48c-4.67,0.53-9.08,1.04-13.41,2.67
								c-9.61,3.58-16.33,9.28-22.46,19.05C162.3,125.84,161.41,126.49,160.52,126.49z M201.76,98.28
								c-10.46,0-21.96,5.19-30.3,12.81c3.75-3.1,7.94-5.44,12.86-7.27c4.61-1.73,9.38-2.28,14-2.81c3.07-0.35,6.24-0.72,9.29-1.43
								c0.08-0.06,0.31-0.33,0.49-0.6C206.1,98.52,203.97,98.28,201.76,98.28z"/>
						</g>
						<g>
							<path class="st6" d="M124.15,186.45c-10.79,3.93-17.77,17.41-14.2,28.49c0.42,1.4,3.02-1.84,2.92-2.79
								c-1.02-9.95,1.45-19.03,10.78-24.05C124.04,187.91,124.97,186.14,124.15,186.45z"/>
							<path class="st7" d="M110.34,216.52L110.34,216.52c-0.74,0-1.35-0.47-1.57-1.22c-3.71-11.49,3.41-25.81,14.95-30.01
								l0.59-0.11c0.66,0,1.21,0.43,1.36,1.07c0.24,1.01-0.75,2.61-1.46,2.97c-7.82,4.21-11.23,11.89-10.11,22.81
								c0.14,1.25-1.25,2.87-1.53,3.18C111.78,216.09,111.05,216.52,110.34,216.52z M113.38,197.39
								c-2.81,4.89-3.91,10.76-2.57,16.08c0.39-0.46,0.77-1.04,0.83-1.33C111.06,206.42,111.64,201.5,113.38,197.39z"/>
						</g>
						<g>
							<path class="st6" d="M202.48,163.63c-2.55,0.64-5.17-0.31-7.74-0.05c-2.62,0.26-5.23,1.87-7.31,3.34
								c-4.06,2.88-7.39,7.37-8.17,12.36c-0.41,2.32,2.48-0.33,2.79-1.26c1.61-5.12,4.91-8.36,9.79-10.42
								c3.23-1.36,6.94,0.12,10-1.74C202.24,165.61,203.74,163.31,202.48,163.63z"/>
							<path class="st7" d="M179.6,181.44L179.6,181.44c-0.48,0-0.91-0.2-1.21-0.55c-0.55-0.65-0.4-1.54-0.34-1.83
								c0.78-4.93,4.02-9.85,8.68-13.15c2.12-1.5,4.93-3.27,7.9-3.56c1.18-0.12,2.39-0.01,3.59,0.11c1.41,0.14,2.88,0.24,3.96-0.03
								l0.51-0.07c0.71,0,1.28,0.43,1.46,1.09c0.35,1.25-1.12,3.13-1.68,3.47c-1.94,1.18-3.99,1.21-5.97,1.24
								c-1.5,0.02-2.92,0.05-4.19,0.58c-4.76,2.01-7.65,5.08-9.09,9.66C182.89,179.41,181.01,181.44,179.6,181.44z M195.72,164.77
								c-0.28,0-0.57,0.01-0.85,0.04c-2.39,0.24-4.85,1.79-6.72,3.12c-0.86,0.61-1.67,1.29-2.42,2.01c1.55-1.39,3.43-2.55,5.63-3.48
								c1.71-0.72,3.44-0.75,5.11-0.78c1.5-0.02,2.93-0.05,4.18-0.6c-0.86-0.01-1.78-0.08-2.67-0.16
								C197.22,164.85,196.47,164.77,195.72,164.77z"/>
						</g>
						<g>
							<path class="st6" d="M114.33,271.37c-6.86-9.86-10.36-19.94-2.63-30.51c0.46-0.64,0.18-1.44-0.51-0.64
								c-3.65,4.29-6.34,8.29-6.86,14c-0.64,7.21,2.78,14.9,7.81,19.87C112.87,274.81,114.85,272.13,114.33,271.37z"/>
							<path class="st7" d="M112.44,275.45L112.44,275.45c-0.44,0-0.85-0.17-1.16-0.47c-5.6-5.54-8.81-13.73-8.18-20.87
								c0.54-5.85,3.13-9.96,7.14-14.69c0.44-0.51,0.93-0.77,1.44-0.77h0.76l0.53,0.79c0.32,0.63,0.21,1.46-0.28,2.14
								c-6.32,8.65-5.53,17.34,2.65,29.08c0.31,0.46,0.54,1.26-0.13,2.54C115.1,273.44,114,275.45,112.44,275.45z M106.22,250.88
								c-0.32,1.09-0.54,2.23-0.65,3.46c-0.55,6.23,2.17,13.39,6.98,18.41c0.24-0.27,0.5-0.66,0.6-0.92
								C109.09,265.97,105.24,258.78,106.22,250.88z"/>
						</g>
						<g>
							<path class="st6" d="M178.31,264.48c-3.33-2.8-6.96-5.72-9.25-9.47c-2.89-4.76-0.29-9.57,2.15-13.73
								c0.66-1.12-0.4-1.13-0.97-0.34c-3.14,4.41-5.38,7.48-5.31,13.14c0.1,6.37,6.1,10.94,11.08,13.67
								C177.11,268.34,179.3,265.31,178.31,264.48z"/>
							<path class="st7" d="M176.32,269.07L176.32,269.07c-0.32,0-0.62-0.07-0.89-0.22c-7.6-4.15-11.65-9.24-11.73-14.74
								c-0.08-5.99,2.34-9.39,5.4-13.69c1.11-1.56,2.76-1.56,3.36-0.51c0.23,0.4,0.38,1.07-0.18,2.01
								c-2.61,4.45-4.57,8.47-2.15,12.46c2.03,3.34,5.26,6.04,8.37,8.64l0.62,0.52c0.33,0.27,1.04,1.09,0.49,2.63
								C179.17,267.34,177.84,269.07,176.32,269.07z M166.56,250.21c-0.28,1.16-0.42,2.42-0.4,3.86c0.09,5.65,5.54,9.88,10.2,12.47
								c0.34-0.23,0.83-0.89,0.94-1.29l-0.4-0.34c-3.27-2.73-6.64-5.56-8.89-9.26C166.9,253.83,166.51,251.99,166.56,250.21z"/>
						</g>
						<g>
							<path class="st6" d="M236.34,249.73c-4.12-3.15-7.71-6.61-9.53-11.58c-1.15-3.22-0.59-6.62,0.72-9.63
								c0.6-1.45,0.84-2.37,0.53-3.87c-0.11-0.52-1.05,0.64-1.08,0.9c-0.31,2.65-2.46,4.88-3.1,7.53c-0.5,2.2-0.7,4.53-0.21,6.75
								c1.26,5.95,4.86,10.61,10.44,13.05C235.22,253.36,237.34,250.51,236.34,249.73z"/>
							<path class="st7" d="M234.38,254.17L234.38,254.17c-0.27,0-0.52-0.05-0.75-0.15c-5.84-2.56-9.8-7.5-11.16-13.93
								c-0.48-2.14-0.41-4.53,0.21-7.28c0.33-1.38,0.99-2.59,1.62-3.76c0.68-1.25,1.32-2.43,1.45-3.63
								c0.08-0.64,1.08-2.13,2.18-2.13h0.99l0.34,1.1c0.38,1.77,0.1,2.94-0.59,4.6c-0.96,2.21-1.86,5.5-0.7,8.75
								c1.82,4.96,5.63,8.35,9.12,11.01c0.72,0.57,0.93,1.51,0.57,2.55C237.24,252.5,235.87,254.17,234.38,254.17z M224.96,233.93
								c-0.42,2.13-0.45,3.99-0.09,5.64c1.18,5.56,4.56,9.85,9.52,12.1c0.32-0.18,0.78-0.77,0.92-1.16
								c-3.69-2.84-7.68-6.49-9.67-11.94C225.13,237.11,224.9,235.55,224.96,233.93z"/>
						</g>
						<g>
							<path class="st6" d="M244.11,183.87c-4.99-3.83-10.1-3.6-15.34-0.53c-2.95,1.69-6.06,4.43-6.08,8.08
								c-0.02,0.9,1.26-0.6,1.36-0.94c0.85-3.65,6.13-5.55,9.3-5.72c2.92-0.17,5.75,1.44,8.39,2.42
								C242.92,187.64,245.17,184.7,244.11,183.87z"/>
							<path class="st7" d="M222.84,192.94h-0.52l-0.46-0.4c-0.2-0.2-0.43-0.56-0.42-1.14c0.02-3.42,2.4-6.67,6.71-9.13
								c5.96-3.5,11.62-3.29,16.71,0.62c0.73,0.57,0.95,1.53,0.59,2.57c-0.43,1.26-1.87,3.01-3.44,3.01l0,0
								c-0.25,0-0.48-0.04-0.7-0.13c-0.63-0.23-1.27-0.5-1.93-0.78c-1.85-0.78-3.77-1.58-5.61-1.58l-0.35,0.01
								c-2.92,0.15-7.51,1.93-8.17,4.76C225.11,191.25,224.05,192.94,222.84,192.94z M233.77,183.52c2.34,0,4.49,0.9,6.56,1.77
								c0.62,0.26,1.23,0.52,1.84,0.74c0.15-0.11,0.79-0.9,0.95-1.36c-4.13-3.05-8.41-3.22-13.3-0.5c1.21-0.37,2.42-0.59,3.48-0.64
								C233.45,183.53,233.61,183.52,233.77,183.52z"/>
						</g>
						<g>
							<path class="st6" d="M249.03,133.69c-1.65-5.33-8.97-6.53-13.72-6.29c-4.96,0.23-9.62,2.86-12.78,6.6
								c-0.68,0.81-0.7,2.34,0.49,1.14c3.35-3.35,7.96-4.1,12.52-3.72c4.81,0.38,7.08,3.39,10.92,5.45
								C247.73,137.54,249.35,134.7,249.03,133.69z"/>
							<path class="st7" d="M246.87,138.2L246.87,138.2c-0.35,0-0.68-0.09-0.99-0.25c-1.29-0.69-2.39-1.47-3.45-2.22
								c-2.17-1.53-4.04-2.86-6.99-3.09c-0.67-0.05-1.33-0.09-1.99-0.09c-4.05,0-7.27,1.16-9.57,3.45
								c-0.34,0.34-0.87,0.81-1.57,0.81c-0.58,0-1.09-0.33-1.33-0.86c-0.4-0.87-0.01-2.05,0.59-2.76c3.58-4.24,8.57-6.8,13.67-7.04
								c0.39-0.02,0.79-0.03,1.21-0.03c2.71,0,11.69,0.52,13.75,7.19c0.35,1.1-0.29,2.52-0.93,3.41
								C248.58,137.67,247.72,138.2,246.87,138.2z M233.46,130.09c0.73,0,1.46,0.03,2.18,0.1c3.61,0.28,5.95,1.93,8.21,3.53
								c0.96,0.68,1.94,1.37,3.03,1.97c0.39-0.27,0.97-1.28,0.95-1.7c-1.23-3.95-6.68-5.38-11.37-5.38c-0.38,0-0.74,0.01-1.09,0.03
								c-2.38,0.11-4.78,0.84-6.97,2.08C229.94,130.3,231.64,130.09,233.46,130.09z"/>
						</g>
						<g>
							<path class="st6" d="M292.21,198.48c-0.76,0.07-2.5,2.3-1.36,2.54c9.48,2.08,14.6,12.84,15.32,21.77
								c0.15,1.72,2.55-1.1,2.67-1.88C310.21,211.25,303.55,197.37,292.21,198.48z"/>
							<path class="st7" d="M306.56,224.57L306.56,224.57c-0.74,0-1.53-0.52-1.63-1.68c-0.7-8.59-5.49-18.72-14.36-20.67
								c-0.85-0.18-1.39-0.89-1.34-1.76c0.07-1.22,1.56-3.09,2.85-3.21c4.72-0.46,9.05,1.42,12.45,5.34
								c4.19,4.83,6.41,12.26,5.51,18.49C309.91,222.06,308.13,224.57,306.56,224.57z M292.06,200.05
								c8.99,2.56,14.05,12.38,15.19,21.19c0.18-0.24,0.33-0.46,0.38-0.6c0.77-5.38-1.27-12.17-4.96-16.43
								c-1.95-2.26-5.47-4.97-10.34-4.5C292.29,199.75,292.18,199.89,292.06,200.05z"/>
						</g>
						<g>
							<path class="st6" d="M313.86,157.75c-0.59,0.09-1.96,2.13-1.04,2.27c9.93,1.11,14.4,9.5,17.89,17.8
								c0.48,1.12,2.28-1.46,2.24-2.13C332.31,165.66,324.56,156.21,313.86,157.75z"/>
							<path class="st7" d="M331.06,179.34L331.06,179.34c-0.66,0-1.22-0.39-1.49-1.03c-3.24-7.7-7.48-16-16.89-17.05
								c-0.86-0.13-1.41-0.77-1.41-1.59c-0.01-1.14,1.23-2.95,2.39-3.13c11.77-1.68,19.87,8.89,20.52,19.09
								c0.06,1.05-1,2.39-1.41,2.82C332.2,179.05,331.64,179.34,331.06,179.34z M314.21,158.97c9.39,1.64,13.85,9.57,17.17,17.27
								c0.17-0.25,0.31-0.51,0.35-0.65c-0.58-8.7-7.39-17.96-17.49-16.64C314.23,158.95,314.22,158.96,314.21,158.97z"/>
						</g>
						<g>
							<path class="st6" d="M356.27,126.6c-1.59-1.63-3.37-3.02-5.48-3.89c-2.54-1.03-5.68,0.04-8.28,0.04
								c-0.73,0-2.27,2.06-1.27,2.32c1.96,0.55,3.99,0.66,6,0.93c2.17,0.3,3.85,2.39,5.35,3.81c3.1,2.96,5.5,6.6,7.51,10.37
								c0.71,1.33,2.83-1.75,2.75-2.63C362.27,133.08,359.36,129.71,356.27,126.6z"/>
							<path class="st7" d="M360.58,141.74L360.58,141.74c-0.66,0-1.23-0.36-1.57-0.98c-2.28-4.27-4.65-7.55-7.27-10.05
								c-0.27-0.26-0.54-0.53-0.83-0.82c-1.15-1.16-2.46-2.47-3.84-2.66c-0.52-0.07-1.03-0.13-1.56-0.19
								c-1.51-0.17-3.06-0.35-4.6-0.78c-0.83-0.21-1.33-0.96-1.22-1.86c0.14-1.11,1.49-2.88,2.82-2.88c0.78,0,1.65-0.11,2.56-0.23
								c2.14-0.27,4.5-0.4,6.18,0.27c2.05,0.85,3.97,2.21,5.9,4.18c3,3.01,6.27,6.65,6.92,11.65c0.1,1.08-0.84,2.53-1.49,3.25
								C361.92,141.37,361.24,141.74,360.58,141.74z M342.56,124.12c1.05,0.22,2.12,0.34,3.23,0.47c0.54,0.06,1.08,0.12,1.61,0.19
								c2.21,0.31,3.9,2,5.26,3.37c0.27,0.27,0.52,0.53,0.78,0.77c2.67,2.55,5.09,5.83,7.38,10c0.36-0.43,0.75-1.07,0.79-1.36
								c-0.54-4.07-3.49-7.34-6.22-10.07c-1.7-1.73-3.35-2.92-5.08-3.63c-1.19-0.48-3.1-0.34-4.93-0.11
								c-0.89,0.11-1.8,0.23-2.68,0.25C342.66,124.02,342.61,124.06,342.56,124.12z"/>
						</g>
						<g>
							<path class="st6" d="M357.47,228.34c-0.75-0.4-2.15,1.55-1.52,2.12c10.36,9.38,6.65,26.45-2.03,35.29
								c-0.89,0.92-1.55,3.79,0.46,2.29C364.71,260.24,372.23,235.94,357.47,228.34z"/>
							<path class="st7" d="M353.46,269.69L353.46,269.69c-0.65,0-1.23-0.38-1.48-0.99c-0.49-1.15,0.29-3.04,1.05-3.82
								c5.05-5.14,8.17-13.03,7.96-20.13c-0.16-5.42-2.18-10.05-5.86-13.38c-0.58-0.52-0.72-1.35-0.38-2.24
								c0.39-1.01,1.4-2.08,2.51-2.08h0.31l0.5,0.2c5.21,2.68,8.28,7.54,8.83,14.04c0.84,9.77-4.44,22.21-11.76,27.73
								C354.49,269.48,353.97,269.69,353.46,269.69z M357.11,229.85c3.98,3.76,6.16,8.88,6.34,14.82c0.15,5.12-1.2,10.45-3.7,15.13
								c3.23-5.54,5.16-12.52,4.66-18.3c-0.33-3.83-1.84-8.96-7.18-11.89C357.21,229.68,357.16,229.77,357.11,229.85z"/>
						</g>
						<g>
							<path class="st6" d="M402.56,217.8c-0.5-0.77-1.93,1.14-1.68,1.8c1.76,4.27,3.87,8.36,5.24,12.75
								c2.4,7.6-2.34,14.23-6.31,20.22c-0.61,0.93-0.82,3.3,0.79,1.81c4.64-4.36,7.51-9.84,9.12-15.97
								C411.78,230.58,406.59,223.99,402.56,217.8z"/>
							<path class="st7" d="M399.76,256.09L399.76,256.09c-0.59,0-1.11-0.31-1.39-0.84c-0.55-1.03-0.08-2.61,0.41-3.36l0.53-0.8
								c3.81-5.74,7.75-11.66,5.63-18.36c-0.9-2.89-2.17-5.74-3.39-8.49c-0.61-1.37-1.23-2.76-1.8-4.16
								c-0.36-0.93,0.16-1.89,0.5-2.38c0.33-0.49,1.04-1.31,2-1.31c0.55,0,1.04,0.27,1.35,0.74l1.24,1.88
								c3.79,5.69,8.08,12.14,6.08,19.72c-1.77,6.75-4.96,12.32-9.47,16.55C401.06,255.63,400.48,256.09,399.76,256.09z
								 M402.15,219.42c0.53,1.27,1.1,2.54,1.66,3.82c1.25,2.81,2.55,5.72,3.49,8.75c2,6.34-0.55,11.95-3.68,17
								c2.17-3.12,3.81-6.76,4.9-10.89c1.72-6.51-2.07-12.21-5.74-17.72L402.15,219.42z"/>
						</g>
						<g>
							<path class="st6" d="M306.79,266.14c-0.4-1.02-2.37,1.43-2.13,2.33c1.18,4.02,1.5,8.29-0.34,12.19
								c-1.99,4.24-6.9,5.99-10.99,7.49c-0.74,0.28-2.92,3.5-1.56,3.38C304.04,290.39,311.44,277.2,306.79,266.14z"/>
							<path class="st7" d="M291.7,292.77c-0.8,0-1.43-0.51-1.57-1.28c-0.26-1.43,1.7-4.1,2.78-4.49c4.1-1.5,8.55-3.13,10.3-6.86
								c1.49-3.16,1.58-6.87,0.27-11.32c-0.3-1.1,0.51-2.32,0.88-2.79c0.48-0.62,1.23-1.36,2.12-1.36c0.65,0,1.22,0.39,1.46,1.03
								c2.38,5.67,1.87,12.3-1.39,17.73c-3.22,5.37-8.57,8.78-14.67,9.34L291.7,292.77z M301.98,285.35
								c-2.42,1.84-5.44,2.95-8.05,3.9c-0.19,0.12-0.48,0.46-0.75,0.84C296.54,289.46,299.59,287.81,301.98,285.35z M306.11,267.83
								c-0.12,0.2-0.21,0.38-0.23,0.5c0.69,2.29,1.02,4.49,0.98,6.57C307.1,272.51,306.86,270.1,306.11,267.83z"/>
						</g>
						<g>
							<path class="st6" d="M217.2,305.29c-9.56-1.51-23.18-1.02-23.57-13.97c-0.06-1.32-2.09,0.96-2.13,1.78
								c-0.65,13.38,12.71,17.05,23.85,15.62C216.32,308.57,218.72,305.55,217.2,305.29z"/>
							<path class="st7" d="M210.87,310.24L210.87,310.24c-7.19,0-13.13-2.08-16.73-5.86c-2.79-2.93-4.1-6.75-3.87-11.35
								c0.06-1.16,1.71-3.36,3.08-3.36c0.69,0,1.47,0.5,1.51,1.59c0.3,10.06,9.41,11.16,18.21,12.23c1.49,0.18,2.94,0.35,4.31,0.57
								c0.95,0.17,1.55,0.87,1.54,1.79c-0.01,1.5-1.98,3.87-3.38,4.08C213.97,310.14,212.41,310.24,210.87,310.24z M192.71,294.2
								c0.03,3.38,1.11,6.26,3.22,8.48c3.08,3.23,8.53,5.09,14.94,5.09l0,0c1.44,0,2.89-0.09,4.33-0.27
								c0.2-0.11,0.66-0.65,0.97-1.12c-1.09-0.16-2.23-0.29-3.4-0.43C204.61,304.95,194.61,303.75,192.71,294.2z"/>
						</g>
						<g>
							<path class="st6" d="M163.48,321.99c-7.05-7.06-17.57-16.41-11.28-27.38c0.58-1.04-0.37-1.09-0.91-0.33
								c-7.12,10.54-1.26,25.63,9.91,30.9C162.36,325.74,164.38,322.88,163.48,321.99z"/>
							<path class="st7" d="M161.54,326.48L161.54,326.48c-0.31,0-0.6-0.07-0.88-0.2c-6.16-2.9-10.99-8.74-12.88-15.6
								c-1.69-6.14-0.8-12.21,2.49-17.09c0.86-1.23,2.53-1.34,3.13-0.33c0.22,0.38,0.39,1.03-0.12,1.95
								c-5.45,9.51,2.99,17.89,9.78,24.61l1.3,1.29c0.65,0.65,0.76,1.66,0.31,2.75C164.13,325.16,162.88,326.48,161.54,326.48z
								 M149.42,304.73c0.01,1.73,0.26,3.5,0.75,5.29c1.68,6.12,5.94,11.32,11.39,13.95c0.34-0.2,0.82-0.88,0.9-1.26l-1.14-1.14
								C156.7,316.99,150.95,311.29,149.42,304.73z"/>
						</g>
						<g>
							<path class="st6" d="M170.74,354.92c-9.94,3.36-18.68,0.35-26.79-5.73c-7.93-5.94-10.86-13.59-11.14-23.21
								c-0.03-0.85-1.31,0.55-1.35,0.97c-1.49,11.18,0.91,18.99,9.21,26.83c8.16,7.67,19.23,10.57,29.05,4.67
								C170.42,358.04,172.58,354.3,170.74,354.92z"/>
							<path class="st7" d="M158.64,362.83c-6.55,0-13.24-2.89-18.82-8.15c-8.4-7.93-11.18-16.01-9.59-27.89
								c0.09-0.83,1.31-2.31,2.4-2.31c0.68,0,1.38,0.49,1.42,1.45c0.3,10.12,3.58,16.98,10.65,22.27c8.9,6.68,17.13,8.44,25.66,5.55
								c1.1-0.37,2.03,0.1,2.29,1.02c0.41,1.5-1.45,4.25-2.29,4.75C166.69,361.71,162.75,362.83,158.64,362.83z M132.24,332.5
								c-0.07,8.17,2.74,14.21,9.28,20.39c8.28,7.79,19,9.66,27.57,4.51c0.13-0.12,0.37-0.47,0.6-0.86
								c-8.75,2.5-17.39,0.45-26.47-6.36C137.21,345.69,133.64,339.98,132.24,332.5z"/>
						</g>
						<g>
							<path class="st6" d="M253.07,354.45c-7.28,2.81-13.84,3.93-21.32,1.14c-5.24-1.96-9.37-7.06-14.11-9.99
								c-0.74-0.46-2.28,1.7-1.59,2.22c5.07,3.83,9.44,10.63,15.76,12.52c7.3,2.2,13.62,0.91,20.27-2.58
								C252.89,357.36,254.66,353.84,253.07,354.45z"/>
							<path class="st7" d="M238.9,362.66L238.9,362.66c-2.46,0-4.9-0.37-7.43-1.14c-4.43-1.32-7.83-4.76-11.13-8.08
								c-1.71-1.73-3.33-3.36-5.02-4.64c-0.63-0.48-0.83-1.3-0.53-2.18c0.33-0.97,1.36-2.33,2.63-2.33h0.35l0.53,0.25
								c1.95,1.21,3.81,2.77,5.6,4.28c2.62,2.21,5.32,4.49,8.29,5.6c2.77,1.04,5.47,1.53,8.27,1.53c3.64,0,7.39-0.82,12.17-2.67
								c1.09-0.42,2.04,0.09,2.27,1.04c0.33,1.39-1.22,4.02-2.23,4.54C247.72,361.45,243.34,362.66,238.9,362.66z M217.24,347.17
								c1.68,1.33,3.29,2.96,4.85,4.53c3.08,3.1,6.26,6.31,10.09,7.45c2.3,0.7,4.5,1.03,6.72,1.03l0,0c4.03,0,8.04-1.12,12.63-3.52
								c0.09-0.07,0.22-0.26,0.35-0.48c-7.98,2.9-14,3.01-20.54,0.56c-3.37-1.26-6.24-3.68-9.02-6.02
								c-1.67-1.41-3.26-2.75-4.92-3.83C217.35,346.97,217.29,347.07,217.24,347.17z"/>
						</g>
						<g>
							<path class="st6" d="M251.87,381.78c-16.49,5.97-32.77,12.38-46.55-2.58c-0.61-0.64-2.48,1.75-1.8,2.56
								c12.82,16.06,31.17,11.51,47.4,3.2C251.66,384.57,253.43,381.21,251.87,381.78z"/>
							<path class="st7" d="M225.27,393.73C225.27,393.73,225.27,393.73,225.27,393.73c-9.13,0-16.77-3.77-22.71-11.21
								c-0.29-0.34-0.72-1.16-0.1-2.51c0.35-0.75,1.35-2.17,2.61-2.17c0.44,0,0.85,0.18,1.16,0.49c5.46,5.94,11.77,8.82,19.3,8.82
								c7.87,0,16.04-2.96,24.68-6.1l1.24-0.45c1.06-0.38,2.01,0.11,2.23,1.04c0.32,1.34-1.21,3.89-2.19,4.39
								C241.39,391.22,232.81,393.73,225.27,393.73z M204.64,381.18c10.21,12.58,24.56,13.5,45.71,2.67
								c0.05-0.04,0.12-0.15,0.21-0.29c-8.32,3.01-16.9,6.07-25.05,6.07c-8,0-14.73-2.95-20.55-9.01
								C204.83,380.8,204.7,381.02,204.64,381.18z"/>
						</g>
						<g>
							<path class="st6" d="M333.81,332.19c-3.2,9.56-11.12,12.19-20.24,13.8c-1.09,0.22-3.15,3.91-1.77,3.81
								c11.54-0.7,20.91-7.17,24.04-18.53C336.28,329.68,334.03,331.46,333.81,332.19z"/>
							<path class="st7" d="M311.74,351.04c-0.87,0-1.55-0.61-1.63-1.49c-0.15-1.5,1.66-4.45,3.22-4.76
								c9.83-1.74,16.47-4.51,19.31-12.99c0.27-0.89,1.84-2.41,3.02-2.41h0.61l0.55,0.57c0.32,0.43,0.39,0.98,0.2,1.64
								c-3.13,11.39-12.53,18.66-25.15,19.43L311.74,351.04z M327.23,342.72c-4.03,2.57-8.86,3.68-13.44,4.49
								c-0.18,0.12-0.59,0.71-0.88,1.26C318.55,347.92,323.44,345.91,327.23,342.72z"/>
						</g>
						<g>
							<path class="st6" d="M369.76,334.63c-0.74,13.96-17.16,15.79-27.75,18.45c-0.92,0.23-3.48,3.62-1.77,3.88
								c13.22,2.03,32.58-9.66,31.83-24.25C372,331.27,369.82,333.77,369.76,334.63z"/>
							<path class="st7" d="M343.35,358.43L343.35,358.43c-1.14,0-2.25-0.08-3.31-0.25c-0.94-0.14-1.57-0.83-1.62-1.75
								c-0.08-1.62,1.97-4.21,3.28-4.54c1.28-0.33,2.65-0.63,4.06-0.95c10.39-2.35,22.16-5.02,22.76-16.37
								c0.08-1.09,1.78-3.53,3.25-3.53c0.7,0,1.48,0.51,1.53,1.62c0.27,5.33-1.91,10.61-6.32,15.25
								C361,354.19,351.5,358.43,343.35,358.43z M341.08,355.83c7.82,0.89,17.99-3.19,24.1-9.63c0.11-0.12,0.22-0.24,0.33-0.36
								c-5.12,4.31-12.89,6.07-19.21,7.51c-1.39,0.32-2.74,0.62-4,0.94C342.05,354.43,341.41,355.23,341.08,355.83z"/>
						</g>
					</g>
				</g>
			</g>
		</g>
	</g>
	<g>
		<g>
			<g>
				<g>
					<path class="st8" d="M236.33,213.53c4.36,35.63,33.15,62.23,64.3,59.42c31.16-2.82,52.87-33.97,48.52-69.6
						c-4.35-35.63-33.15-62.23-64.3-59.41C253.68,146.75,231.97,177.9,236.33,213.53z"/>
					<path class="st9" d="M296.1,274.93C296.1,274.93,296.1,274.93,296.1,274.93c-14.88,0-29.42-6.3-40.93-17.72
						c-11.45-11.35-18.88-26.81-20.92-43.5c-4.48-36.55,18.13-68.65,50.37-71.56c1.58-0.14,3.18-0.21,4.75-0.21
						c14.88,0,29.41,6.28,40.93,17.71c11.45,11.36,18.88,26.81,20.92,43.5c4.46,36.55-18.13,68.66-50.38,71.57
						C299.28,274.87,297.68,274.93,296.1,274.93z M289.37,145.51c-1.43,0-2.89,0.07-4.32,0.19c-29.94,2.71-50.88,33.05-46.64,67.64
						c3.98,32.52,29.32,58.01,57.69,58.01c0,0,0,0,0,0c1.43,0,2.87-0.06,4.31-0.19c29.94-2.71,50.88-33.04,46.66-67.63
						C343.08,171,317.74,145.51,289.37,145.51z"/>
				</g>
				<g>
					<g>
						<path class="st4" d="M258.38,213.21c4.21,18.6,21.64,31.72,38.95,29.3c17.3-2.42,27.92-19.47,23.73-38.07
							c-4.2-18.61-21.63-31.72-38.93-29.3C264.81,177.56,254.19,194.61,258.38,213.21z"/>
					</g>
					<g>
						<path class="st9" d="M273.26,211.12c2.21,9.77,11.36,16.67,20.45,15.4c9.1-1.28,14.68-10.23,12.46-20
							c-2.2-9.78-11.36-16.67-20.46-15.4C276.64,192.38,271.06,201.35,273.26,211.12z"/>
					</g>
					<g>
						<path class="st8" d="M289.55,195.49c2.79,5.15,8.92,8.02,13.72,6.4c4.78-1.6,6.4-7.09,3.61-12.23
							c-2.78-5.14-8.92-8.01-13.71-6.41C288.38,184.86,286.77,190.34,289.55,195.49z"/>
					</g>
				</g>
				<g>
					<path class="st0" d="M292.2,263.68c30.05-2.67,50.95-32.56,46.7-66.76c-1.98-15.86-8.91-30.58-18.92-40.77
						c14.21,10.2,24.57,27.85,27.04,47.74c4.24,34.2-16.57,64.44-46.62,67.11c-16.1,1.43-31.65-5.61-43.18-17.38
						C267.44,260.95,279.62,264.8,292.2,263.68z"/>
				</g>
			</g>
			<g>
				<g>
					<path class="st8" d="M250.97,217.02c-12.15,36.8-47.23,60.05-78.35,51.95c-31.14-8.11-46.5-44.51-34.35-81.31
						c12.16-36.81,47.23-60.06,78.35-51.95C247.76,143.82,263.12,180.23,250.97,217.02z"/>
					<path class="st9" d="M185.31,272.37c-4.52,0-9-0.56-13.31-1.68c-32.15-8.38-48.18-45.84-35.75-83.53
						c5.15-15.56,14.76-29.61,27.08-39.53c12.25-9.89,26.67-15.33,40.6-15.33c4.54,0,9,0.57,13.32,1.7
						c32.15,8.38,48.18,45.83,35.74,83.51c-5.14,15.57-14.76,29.62-27.07,39.54C213.67,266.93,199.24,272.37,185.31,272.37z
						 M203.92,135.89c-26.87,0-53.64,21.98-63.64,52.25c-11.83,35.81,2.95,71.3,32.94,79.13c3.9,1.02,7.97,1.53,12.09,1.53
						c26.87,0,53.64-21.97,63.64-52.25c11.83-35.81-2.94-71.3-32.94-79.11C212.11,136.41,208.04,135.89,203.92,135.89z"/>
				</g>
				<g>
					<g>
						<path class="st4" d="M224.61,212.04c-9.19,19.43-31.29,30.89-49.38,25.58c-18.07-5.31-25.28-25.37-16.1-44.81
							c9.2-19.44,31.28-30.89,49.37-25.58C226.58,172.53,233.8,192.59,224.61,212.04z"/>
					</g>
					<g>
						<path class="st9" d="M209.07,207.47c-4.83,10.21-16.44,16.23-25.93,13.44c-9.49-2.79-13.28-13.32-8.46-23.54
							c4.83-10.21,16.44-16.22,25.93-13.43C210.11,186.73,213.9,197.26,209.07,207.47z"/>
					</g>
					<g>
						<path class="st8" d="M195.4,188.06c-4.3,5.13-11.65,7.27-16.41,4.78c-4.77-2.48-5.15-8.65-0.85-13.76
							c4.29-5.13,11.65-7.27,16.41-4.79C199.31,176.76,199.69,182.93,195.4,188.06z"/>
					</g>
				</g>
				<g>
					<path class="st0" d="M183.22,260.61c-30.03-7.78-44.86-42.71-33.12-78.02c5.45-16.39,15.71-30.74,28.09-39.82
						c-16.67,8.38-31.04,25.29-37.86,45.81c-11.73,35.32,2.92,70.61,32.94,78.38c16.1,4.17,33.45-0.68,47.76-11.17
						C209.02,261.83,195.78,263.86,183.22,260.61z"/>
				</g>
			</g>
		</g>
		<g>
			<g>
				<path class="st9" d="M136.27,138.66c5.47-6.45,11.74-12.43,18.69-17.85c6.98-5.37,14.73-10.25,23.78-13.37
					c4.51-1.54,9.38-2.58,14.45-2.73c5.05-0.17,10.26,0.62,15,2.35c4.76,1.72,9.01,4.28,12.68,7.24c3.68,2.96,6.81,6.3,9.57,9.79
					l-7.99,4.24c-4.26-6.5-9.85-12.46-17.24-15.79c-3.68-1.67-7.77-2.62-12.03-2.8c-4.24-0.18-8.63,0.4-12.88,1.5
					c-8.53,2.23-16.51,6.36-23.84,11.12C149.15,127.16,142.35,132.64,136.27,138.66z"/>
			</g>
			<g>
				<path class="st9" d="M347.54,138.66c-6.09-6.01-12.88-11.5-20.2-16.31c-7.31-4.75-15.29-8.89-23.82-11.12
					c-4.24-1.1-8.62-1.68-12.88-1.5c-4.24,0.17-8.35,1.13-12.03,2.8c-7.39,3.33-12.98,9.29-17.24,15.79l-8-4.24
					c2.77-3.49,5.9-6.83,9.58-9.79c3.66-2.96,7.92-5.52,12.67-7.24c4.75-1.73,9.95-2.53,15.01-2.35c5.06,0.15,9.93,1.2,14.45,2.73
					c9.06,3.13,16.79,8,23.77,13.37C335.8,126.23,342.06,132.21,347.54,138.66z"/>
			</g>
		</g>
		<g>
			<g>
				<path class="st10" d="M315.07,276.72c5.5-0.86,10.54-2.51,15.09-4.71c4.53-2.23,8.46-5.13,11.74-8.53
					c3.3-3.41,5.95-7.3,8.16-11.45c2.21-4.16,3.97-8.57,5.79-13.11c0.34,4.79-0.36,9.65-1.93,14.33c-1.61,4.68-4.24,9.22-7.98,13.09
					c-3.73,3.87-8.6,6.98-14.01,8.83c-2.71,0.93-5.53,1.55-8.37,1.83C320.72,277.24,317.83,277.29,315.07,276.72z"/>
			</g>
			<g>
				<path class="st10" d="M168.73,276.72c-2.76,0.56-5.63,0.52-8.48,0.27c-2.84-0.28-5.67-0.9-8.37-1.83
					c-5.41-1.85-10.29-4.96-14.01-8.83c-3.74-3.86-6.36-8.41-7.97-13.09c-1.59-4.68-2.28-9.54-1.93-14.33
					c1.81,4.55,3.57,8.95,5.79,13.11c2.21,4.15,4.86,8.04,8.15,11.45c3.27,3.4,7.21,6.3,11.74,8.53
					C158.19,274.22,163.25,275.86,168.73,276.72z"/>
			</g>
		</g>
	</g>
	<g>
		<g>
			<path class="st4" d="M279.49,333.84c0,29.51-18.02,53.44-40.26,53.44c-22.23,0-40.25-23.93-40.25-53.44
				c0-29.52,18.02-53.45,40.25-53.45C261.47,280.39,279.49,304.31,279.49,333.84z"/>
			<path class="st9" d="M239.23,389.69c-23.47,0-42.56-25.05-42.56-55.85c0-30.8,19.09-55.87,42.56-55.87
				c23.48,0,42.58,25.07,42.58,55.87C281.81,364.64,262.71,389.69,239.23,389.69z M239.23,282.82c-20.91,0-37.91,22.89-37.91,51.02
				c0,28.12,17,51.01,37.91,51.01c20.92,0,37.93-22.89,37.93-51.01C277.16,305.7,260.15,282.82,239.23,282.82z"/>
		</g>
		<g>
			<path class="st8" d="M209.6,301.03c12.53,7.06,36.58,16.5,59.26,2.14C261.99,290.92,250.99,283,238.6,283
				C226.95,283,216.53,290.01,209.6,301.03z"/>
		</g>
		<g>
			<path class="st0" d="M268.09,366.42c-2.94-3.73-6.46-6.77-10.11-6.77h-17.84h-1.8H220.5c-3.65,0-7.17,3.03-10.11,6.77
				c6.75,11.28,17.16,18.5,28.85,18.5C250.93,384.92,261.33,377.7,268.09,366.42z"/>
		</g>
	</g>
</g>
</svg>
