<?xml version="1.0" encoding="utf-8"?>
<!-- Generator: Adobe Illustrator 25.4.1, SVG Export Plug-In . SVG Version: 6.00 Build 0)  -->
<svg version="1.1" id="Layer_1" xmlns="http://www.w3.org/2000/svg" xmlns:xlink="http://www.w3.org/1999/xlink" x="0px" y="0px"
	 viewBox="0 0 500 500" style="enable-background:new 0 0 500 500;" xml:space="preserve">
<style type="text/css">
	.st0{fill:#D0E5F6;}
	.st1{fill:#338CCC;}
	.st2{fill:#C6E8ED;}
	.st3{fill:#93CBDC;}
	.st4{fill:#228FB9;}
	.st5{opacity:0.3;}
	.st6{fill:#6091B1;}
	.st7{fill:#1CA8C0;}
	.st8{fill:#323031;}
	.st9{fill:#FFFFFF;}
	.st10{fill:#231F20;}
</style>
<g>
	<path class="st0" d="M5.56,248.54c1.21,42.76,11.53,87.19,33.35,124.08c56.45,95.41,146.88,100.29,246.19,102.34
		c53,1.1,111.73-5.4,151.44-45.35c50.28-50.59,62.99-130.39,58.2-199.55c-3.06-44.16-14.27-85.47-40.23-121.44
		c-24.19-33.53-56.17-62.46-93.1-80.45c-40.43-19.71-84.61-24.63-129-22.52c-40.94,1.95-82.03,9.04-118.73,28.55
		c-37.02,19.68-65.89,50.03-83.79,88.66C11.86,161.73,4.35,205.64,5.56,248.54z"/>
	<path class="st1" d="M284.51,476.27c-92.99-1.91-189.15-3.89-247.91-102.97C10.49,329.28,3.9,281.18,2.98,248.59
		c-1.29-45.36,7.19-89.03,24.5-126.3c17.91-38.56,47.16-69.42,84.58-89.25C144.6,15.79,182.6,6.67,231.64,4.34
		c5.37-0.26,10.7-0.41,15.85-0.44c44.14-0.34,81.46,7.22,114.11,23.09c35.64,17.32,68.08,45.28,93.83,80.86
		c23.89,33.01,37.17,72.96,40.58,122.13c8,115.2-33.36,175.11-58.73,200.57c-30.67,30.78-74.79,45.34-138.83,45.83c0,0,0,0-0.01,0
		C293.98,476.4,289.29,476.37,284.51,476.27z M231.76,6.95c-48.66,2.31-86.31,11.34-118.51,28.41
		c-36.92,19.57-65.78,50.02-83.45,88.06C12.65,160.31,4.26,203.56,5.54,248.51c0.92,32.28,7.43,79.9,33.25,123.44
		c58.04,97.85,153.48,99.81,245.77,101.71c4.76,0.1,9.43,0.13,13.86,0.1c0,0,0.01,0,0.01,0c63.34-0.48,106.88-14.8,137.05-45.08
		c25.05-25.14,65.91-84.36,57.98-198.53c-3.38-48.65-16.5-88.15-40.09-120.76c-25.5-35.24-57.61-62.92-92.87-80.05
		C328.2,13.65,291.24,6.18,247.5,6.51C242.39,6.55,237.1,6.7,231.76,6.95z"/>
</g>
<path class="st2" d="M4.26,248.55c1.21,42.76,11.56,87.19,33.43,124.07c56.6,95.41,147.27,100.29,246.84,102.34
	c53.14,1.1,112.03-5.4,151.84-45.35c50.42-50.59,63.16-130.39,58.35-199.55c-3.07-44.16-14.31-85.47-40.34-121.44
	c-24.26-33.53-56.32-62.46-93.35-80.45C320.51,8.46,276.21,3.53,231.7,5.65c-41.05,1.95-82.25,9.05-119.05,28.55
	c-37.12,19.68-66.06,50.04-84.02,88.66C10.57,161.74,3.04,205.65,4.26,248.55z M90.63,208.08c3.43-8.14,9.41-14.95,14.69-21.87
	c5.29-6.95,9.13-13.8,10.65-22.12c-0.73-5.36-0.73-10.2,0.64-15.16c-0.19-5.48-0.47-10.96,0.33-16.39
	c1.44-9.68,7.45-18.11,10.65-27.23c2.72-7.74,4.98-15.73,9.88-22.41c5.46-7.46,13.8-10.96,22.35-13.32c4.96-1.37,10-2.39,14.9-4.03
	c6.22-2.08,11.27-5.71,15.81-10.44c6.55-6.82,11.74-14.71,19.54-20.2c9.3-6.54,21.54-8.54,32.59-8.98
	c12.2-0.49,24.42,1.74,36.32,4.27c9.2,1.95,18.3,4.41,27.58,5.88c7.55,1.19,15.18,1.87,22.78,2.62c17.4,1.71,35.38,3.32,51.6,10.49
	c9.45,4.17,16.9,10.62,22.11,18.77c11.14,11.11,19.52,25.37,30.11,36.88c13.23,14.37,26.95,28.34,33.52,47.33
	c4.04,11.7,5.03,24.65,7.13,36.81c2.3,13.35,4.76,26.67,7.46,39.94c2.01,9.91,2.47,19.96,0.52,29.91
	c-1.83,9.38-6.03,18.12-10.41,26.49c-5.38,10.28-11.29,19.76-13.99,31.22c-2.45,10.4-3.14,21.14-5.7,31.52
	c-4.87,19.74-19.82,35.05-37.97,42.8c-8.9,3.79-18.58,5.41-28.17,5.86c-10.74,0.51-21.13-1.72-31.8-2.04
	c-10.6-0.32-20.38,2.97-29.68,7.89c-9.69,5.13-18.27,11.92-29.09,14.48c-9.12,2.16-18.59,1.05-27.83,0.61
	c-5.06-0.24-10.12-0.18-15.16,0.33c-5.85,0.59-11.46,2.69-16.96,4.66c-8.88,3.17-17.69,5.94-27.09,3.56
	c-10.8-2.73-17.55-11.97-24.52-20.05c-3.95-4.59-8.09-8.61-13.37-11.58c-5.25-2.95-11.12-4.45-16.91-5.83
	c-9.65-2.3-18.95-4.78-26.98-10.97c-12.61-9.72-15.38-25.76-15.54-40.94c-0.11-10.41,1.26-20.78,0.67-31.19
	c-0.03-0.51-0.1-1-0.14-1.5c-0.14-1.32-0.28-2.64-0.41-3.96c-1.47-10.67-5.31-20.25-9.63-30.25
	C92.76,250.65,81.69,229.25,90.63,208.08z"/>
<path class="st2" d="M28.63,122.86c17.95-38.62,46.89-68.98,84.02-88.66c22.91-12.14,47.51-19.47,72.72-23.74
	c-1.18,0.67-2.35,1.39-3.5,2.18c-6.19,4.29-11.66,9.5-17.03,14.79c-3.47,3.42-6.8,7.31-11.19,9.53c-4.46,2.26-9.26,3.32-14.18,3.96
	c-7.87,1.02-16.39,1.47-23.35,5.76c-7.24,4.46-12.23,11.73-16.31,19.14c-5.08,9.23-9.25,19.5-16.55,27.21
	c-6.89,7.28-15.05,13.24-22.06,20.42c-6.22,6.36-11.66,13.32-15.18,21.62c-4.06,9.59-4.12,19.53-4,29.79
	c0.15,12.62-0.42,24.86-3.87,37.06c-3.22,11.4-9.42,22.38-10.4,34.35c-1.86,22.84,14.37,41.44,15.26,63.78
	c0.74,18.62,0.21,38.08,11.78,53.73c6.29,8.5,14.3,15.28,22.15,22.21c4.02,3.54,8.04,7.16,11.43,11.35
	c3.49,4.32,5.87,8.96,8.42,13.86c7.93,15.23,19.2,26.65,35.47,32.17c11.31,3.84,22.56,4.71,34.41,4.62
	c13.02-0.09,25.43,0.93,37.9,4.99c19.39,6.31,37.71,16.55,58.69,15.15c12.46-0.82,24.63-4.54,36.85-6.92
	c13.7-2.67,26.45-3.1,40.22-0.78c10.18,1.73,20.81,3.93,31.11,1.95c11.2-2.15,20.07-8.64,28.86-15.71
	c9.55-7.68,18.95-14.85,29.33-21.32c8.1-5.05,15.65-11.08,21.59-18.7c6.48-8.32,10.96-17.6,15.18-27.27
	c4.84-11.1,9.44-22.34,13.18-33.88c3.7-11.42,6.77-23.12,8.21-35.07c0.75-6.19,1.19-12.44,0.95-18.67
	c-0.23-6.11-0.83-12.14-0.64-18.27c0.42-13.5,3.38-26.36,5.17-39.66c0.19-1.45,0.37-2.89,0.54-4.35c0.35,3.52,0.68,7.04,0.92,10.59
	c4.8,69.16-7.94,148.96-58.35,199.55c-39.81,39.95-98.7,46.45-151.84,45.35c-99.58-2.05-190.25-6.93-246.84-102.34
	C15.81,335.74,5.47,291.31,4.26,248.55C3.04,205.65,10.57,161.74,28.63,122.86z"/>
<g>
	<g>
		<path class="st3" d="M85.65,273.99c-9.49,20.73-0.67,42.14,17.62,47.69c0,0-6.11,33.14,26.42,40.06
			c12.2,30.39,43.34,26.26,43.34,26.26s10.85,24.84,44.71,16.56c14.92,18.66,42.68,12.45,56.24-1.38
			c16.24,13.81,33.28,5.35,48.76-6.22c10.16-7.59,25.75,0.68,38.63-13.8c12.86-14.5,12.86-15.88,22.35-18.65
			c9.47-2.76,16.25-8.98,17.6-32.45c1.36-15.91,14.91-7.62,15.58-34.55c0.67-26.94-1.34-20.03,4.06-30.39
			c5.42-10.37,1.37-15.89-1.35-26.93c-2.7-11.08,6.12-26.25-7.45-41.45c-8.12-9.66-4.74-10.38-6.09-23.47
			c-1.38-13.16-6.77-13.16-12.88-19.37c-4.74-5.52-2.7-22.1-23.7-33.84c-11.53-5.52-11.53-6.89-17.61-13.11
			c-6.11-6.22-18.98-10.34-29.8-10.34c0,0-16.94-26.96-51.5-18.65c-27.76-13.16-52.84-10.4-66.36,7.57
			c-12.86-5.54-25.08,11.08-25.08,11.08c-23.03-6.25-37.95,10.34-44.03,24.15c-25.75-4.13-41.31,24.85-36.57,42.82
			c0,0-15.58,9.67-12.19,24.2c-16.95,13.79-9.5,37.29-6.1,44.88C70.08,251.22,74.82,260.9,85.65,273.99z"/>
		<path class="st4" d="M217.26,406.01c-4.41,1.03-8.67,1.55-12.67,1.55c-21.17,0-30.31-14.47-32.3-18.17
			c-0.68,0.05-1.72,0.11-3.04,0.11l0,0c-8.89,0-30.49-2.61-40.49-26.62c-29.17-6.62-27.62-34.26-26.91-40.28
			c-8.25-2.82-14.75-8.83-18.36-17.03c-4.18-9.46-3.92-20.85,0.66-31.36c-11.11-13.59-14.93-23.64-5.36-39.66
			c-2.16-5.12-11.49-30.21,6.13-45.29c-2.5-13.05,8.94-22.04,12.15-24.28c-2.13-9.49,0.84-21.31,7.68-30.43
			c7.45-9.92,18.12-14.74,29.59-13.24c5.77-12.44,17.85-25.38,35.03-25.38c3.01,0,6.13,0.4,9.28,1.19
			c2.14-2.68,10.34-12.03,20.13-12.03c1.71,0,3.39,0.29,5.02,0.87c8.01-10.15,19.77-15.52,34.08-15.52
			c10.28,0,21.32,2.74,32.85,8.14c4.34-1.01,8.63-1.53,12.77-1.53c23.73,0,36.85,16.83,39.26,20.24
			c11.51,0.17,24.05,4.63,30.04,10.73c1.03,1.05,1.89,1.97,2.66,2.79c3.69,3.95,5.22,5.58,14.66,10.1
			c15.26,8.54,18.79,19.8,21.12,27.25c0.91,2.93,1.7,5.46,2.87,6.81c1.51,1.54,2.98,2.68,4.4,3.78c4.17,3.24,7.77,6.05,8.85,16.38
			c0.4,3.9,0.39,6.73,0.39,8.99c-0.02,5.31-0.03,7.3,5.38,13.73c9.44,10.57,8.5,20.99,7.66,30.19c-0.39,4.3-0.76,8.35,0.09,11.82
			c0.58,2.35,1.21,4.42,1.82,6.42c2.19,7.17,3.92,12.84-0.58,21.45c-0.6,1.15-1.11,2.09-1.54,2.89c-2.24,4.13-2.24,4.13-2.21,11.37
			c0.01,3.26,0.03,8.19-0.15,15.55c-0.4,16-5.27,20.11-9.57,23.74c-3.06,2.58-5.49,4.62-6.02,10.86
			c-1.37,23.83-8.4,30.68-18.53,33.63c-7.74,2.26-8.78,3.45-16.86,12.71c-1.4,1.6-3.01,3.45-4.89,5.57
			c-7.88,8.85-16.77,9.57-24.61,10.21c-5.29,0.43-10.29,0.83-14.22,3.76c-8.49,6.34-19.72,13.62-31.36,13.62
			c-6.43,0-12.5-2.26-18.08-6.71c-8.11,7.79-19.97,12.6-31.26,12.6C235.5,417.52,225.21,415.5,217.26,406.01z M274.79,402.18
			c5.42,4.6,11.09,6.85,17.34,6.85c10.89,0,21.67-7.01,29.85-13.12c4.51-3.36,9.86-3.8,15.53-4.27c7.72-0.63,15.71-1.28,22.91-9.36
			c1.87-2.11,3.47-3.95,4.87-5.55c8.15-9.34,9.61-11.02,18.07-13.49c9.34-2.73,15.39-8.91,16.68-31.31
			c0.63-7.35,3.83-10.06,6.94-12.68c4.06-3.43,8.27-6.98,8.64-21.79c0.18-7.32,0.16-12.23,0.15-15.47
			c-0.02-7.62-0.03-7.92,2.53-12.64c0.42-0.79,0.93-1.72,1.52-2.86c3.99-7.65,2.56-12.34,0.39-19.44c-0.59-1.94-1.26-4.14-1.86-6.56
			c-0.95-3.9-0.56-8.18-0.15-12.7c0.78-8.66,1.68-18.47-7.03-28.21c-6.05-7.2-6.04-9.97-6.02-15.47c0.01-2.21,0.02-4.95-0.37-8.71
			c-0.96-9.21-3.85-11.46-7.85-14.57c-1.41-1.1-3.02-2.35-4.71-4.08c-1.57-1.83-2.44-4.6-3.44-7.81
			c-2.34-7.48-5.55-17.72-19.84-25.72c-9.8-4.69-11.54-6.55-15.35-10.62c-0.76-0.81-1.61-1.71-2.62-2.75
			c-5.58-5.68-18-9.96-28.9-9.96h-0.7l-0.38-0.6c-0.12-0.2-12.62-19.64-37.51-19.64c-4.07,0-8.32,0.53-12.61,1.56l-0.43,0.11
			l-0.4-0.19c-11.33-5.37-22.15-8.09-32.17-8.09c-13.84,0-25.12,5.28-32.64,15.27l-0.6,0.8l-0.91-0.39
			c-1.58-0.68-3.24-1.02-4.94-1.02c-9.89,0-18.53,11.57-18.61,11.68l-0.52,0.71l-0.84-0.22c-3.21-0.88-6.38-1.31-9.44-1.31
			c-16.37,0-27.83,12.78-33.09,24.73l-0.4,0.91l-0.96-0.15c-10.85-1.75-21.04,2.68-28.12,12.11c-6.5,8.65-9.32,20.34-7.01,29.08
			l0.25,0.95l-0.82,0.51c-0.15,0.1-14.75,9.33-11.62,22.78l0.19,0.81l-0.64,0.52c-17.91,14.56-7.03,40.41-5.73,43.31l0.29,0.64
			l-0.36,0.6c-9.4,15.34-5.78,24.42,5.3,37.81l0.53,0.64l-0.35,0.76c-4.6,10.03-4.96,20.95-0.99,29.95
			c3.46,7.84,9.79,13.5,17.81,15.93l1.11,0.34l-0.22,1.16c-0.24,1.3-5.52,31.96,25.42,38.54l0.67,0.14l0.26,0.64
			c9.29,23.14,29.93,25.64,38.37,25.64c2.23,0,3.6-0.18,3.61-0.18l0.95-0.12l0.39,0.89c0.08,0.17,7.89,17.48,30.39,17.48
			c4.04,0,8.36-0.56,12.85-1.66l0.78-0.19l0.51,0.64c7.38,9.23,17.16,11.17,24.06,11.17c10.85,0,22.74-4.96,30.27-12.65l0.83-0.85
			L274.79,402.18z"/>
	</g>
</g>
<g class="st5">
	<g>
		<path class="st6" d="M209.32,97.46c-18.14-4.81-42.17,9.75-48.93,26.47c-0.55,1.37,0.9,0.84,1.35,0.12
			c5.9-9.39,12.63-15.68,23.11-19.58c7.53-2.83,15.48-2.4,23.17-4.2C208.73,100.12,210.55,97.79,209.32,97.46z"/>
		<path class="st7" d="M160.59,126.02L160.59,126.02c-0.54,0-1.01-0.25-1.29-0.67c-0.34-0.5-0.36-1.14-0.06-1.88
			c6.17-15.28,25.7-28.18,42.65-28.18c2.71,0,5.31,0.33,7.75,0.98c0.84,0.23,1.36,0.93,1.33,1.78c-0.04,1.29-1.53,3.18-2.7,3.43
			c-3.17,0.74-6.42,1.11-9.56,1.48c-4.68,0.53-9.1,1.04-13.43,2.67c-9.62,3.58-16.35,9.29-22.5,19.08
			C162.37,125.36,161.48,126.02,160.59,126.02z M201.89,97.76c-10.47,0-21.99,5.2-30.35,12.83c3.76-3.1,7.96-5.45,12.87-7.28
			c4.61-1.73,9.39-2.28,14.02-2.81c3.07-0.35,6.25-0.72,9.3-1.43c0.08-0.06,0.31-0.33,0.49-0.6C206.23,98,204.1,97.76,201.89,97.76z
			"/>
	</g>
	<g>
		<path class="st6" d="M124.17,186.06c-10.81,3.93-17.79,17.43-14.22,28.53c0.42,1.4,3.03-1.84,2.93-2.79
			c-1.03-9.96,1.46-19.05,10.79-24.08C124.06,187.53,124.99,185.75,124.17,186.06z"/>
		<path class="st7" d="M110.34,216.17L110.34,216.17c-0.75,0-1.35-0.47-1.57-1.22c-3.72-11.51,3.42-25.85,14.98-30.06l0.59-0.11
			c0.66,0,1.21,0.43,1.36,1.07c0.24,1.01-0.75,2.61-1.46,2.97c-7.83,4.21-11.24,11.9-10.12,22.85c0.14,1.26-1.26,2.88-1.54,3.19
			C111.78,215.75,111.05,216.17,110.34,216.17z M113.39,197.01c-2.81,4.9-3.92,10.77-2.57,16.1c0.39-0.46,0.77-1.04,0.83-1.33
			C111.06,206.06,111.64,201.13,113.39,197.01z"/>
	</g>
	<g>
		<path class="st6" d="M202.61,163.21c-2.55,0.64-5.18-0.31-7.75-0.05c-2.62,0.26-5.24,1.87-7.32,3.35
			c-4.06,2.88-7.4,7.38-8.19,12.38c-0.41,2.32,2.48-0.33,2.79-1.26c1.61-5.12,4.91-8.37,9.8-10.44c3.24-1.37,6.95,0.12,10.01-1.75
			C202.37,165.19,203.87,162.89,202.61,163.21z"/>
		<path class="st7" d="M179.69,181.05L179.69,181.05c-0.48,0-0.91-0.2-1.21-0.55c-0.55-0.65-0.4-1.54-0.34-1.83
			c0.78-4.93,4.03-9.87,8.69-13.17c2.12-1.51,4.94-3.28,7.91-3.57c1.18-0.12,2.39-0.01,3.6,0.11c1.41,0.14,2.88,0.24,3.97-0.03
			l0.51-0.07c0.71,0,1.28,0.43,1.47,1.09c0.35,1.26-1.12,3.13-1.68,3.47c-1.94,1.18-3.99,1.21-5.98,1.24
			c-1.51,0.02-2.93,0.05-4.19,0.58c-4.77,2.01-7.66,5.09-9.11,9.67C182.99,179.01,181.11,181.05,179.69,181.05z M195.84,164.35
			c-0.28,0-0.57,0.01-0.85,0.04c-2.4,0.24-4.85,1.8-6.73,3.13c-0.87,0.61-1.68,1.29-2.42,2.01c1.56-1.4,3.43-2.56,5.63-3.48
			c1.71-0.72,3.44-0.75,5.12-0.78c1.51-0.02,2.93-0.05,4.18-0.6c-0.86-0.01-1.78-0.08-2.68-0.16
			C197.34,164.43,196.59,164.35,195.84,164.35z"/>
	</g>
	<g>
		<path class="st6" d="M114.34,271.11c-6.87-9.87-10.38-19.97-2.63-30.55c0.46-0.64,0.18-1.44-0.51-0.64
			c-3.65,4.3-6.34,8.3-6.87,14.02c-0.64,7.22,2.79,14.92,7.82,19.9C112.87,274.54,114.86,271.87,114.34,271.11z"/>
		<path class="st7" d="M112.44,275.19L112.44,275.19c-0.44,0-0.85-0.17-1.16-0.47c-5.61-5.55-8.82-13.75-8.19-20.9
			c0.54-5.86,3.13-9.97,7.15-14.71c0.44-0.51,0.93-0.77,1.44-0.77h0.76l0.54,0.79c0.32,0.63,0.21,1.47-0.28,2.14
			c-6.33,8.66-5.54,17.36,2.65,29.12c0.31,0.46,0.54,1.27-0.13,2.54C115.11,273.18,114,275.19,112.44,275.19z M106.21,250.59
			c-0.32,1.09-0.54,2.24-0.65,3.46c-0.55,6.24,2.18,13.4,6.99,18.43c0.24-0.27,0.5-0.66,0.6-0.92
			C109.09,265.69,105.23,258.49,106.21,250.59z"/>
	</g>
	<g>
		<path class="st6" d="M178.41,264.2c-3.33-2.8-6.97-5.73-9.26-9.48c-2.89-4.77-0.29-9.58,2.15-13.75c0.66-1.12-0.4-1.14-0.97-0.34
			c-3.14,4.41-5.39,7.49-5.32,13.16c0.1,6.38,6.11,10.96,11.1,13.69C177.21,268.07,179.4,265.03,178.41,264.2z"/>
		<path class="st7" d="M176.41,268.8L176.41,268.8c-0.32,0-0.62-0.07-0.89-0.22c-7.61-4.15-11.67-9.26-11.75-14.76
			c-0.08-5.99,2.34-9.4,5.41-13.71c1.11-1.57,2.76-1.56,3.36-0.52c0.23,0.4,0.38,1.07-0.18,2.01c-2.62,4.46-4.58,8.48-2.16,12.48
			c2.04,3.35,5.26,6.05,8.38,8.66l0.62,0.52c0.33,0.28,1.04,1.09,0.49,2.63C179.27,267.06,177.93,268.8,176.41,268.8z
			 M166.64,249.91c-0.28,1.16-0.42,2.42-0.4,3.86c0.09,5.66,5.55,9.9,10.21,12.48c0.34-0.23,0.83-0.89,0.94-1.29l-0.4-0.34
			c-3.27-2.74-6.65-5.57-8.91-9.27C166.98,253.53,166.59,251.69,166.64,249.91z"/>
	</g>
	<g>
		<path class="st6" d="M236.52,249.43c-4.13-3.15-7.72-6.62-9.54-11.6c-1.15-3.23-0.59-6.63,0.72-9.65c0.6-1.46,0.84-2.37,0.53-3.87
			c-0.11-0.52-1.05,0.64-1.08,0.9c-0.31,2.65-2.46,4.89-3.1,7.54c-0.5,2.2-0.7,4.54-0.21,6.76c1.26,5.96,4.86,10.62,10.45,13.07
			C235.4,253.06,237.52,250.21,236.52,249.43z"/>
		<path class="st7" d="M234.55,253.88L234.55,253.88c-0.27,0-0.52-0.05-0.75-0.15c-5.85-2.56-9.82-7.51-11.18-13.95
			c-0.48-2.15-0.41-4.54,0.22-7.29c0.34-1.39,0.99-2.6,1.62-3.77c0.68-1.25,1.32-2.43,1.46-3.64c0.08-0.64,1.08-2.13,2.18-2.13h1
			l0.34,1.1c0.38,1.78,0.1,2.94-0.59,4.61c-0.96,2.21-1.86,5.51-0.7,8.76c1.83,4.97,5.64,8.36,9.13,11.03
			c0.72,0.57,0.93,1.52,0.57,2.55C237.42,252.2,236.05,253.88,234.55,253.88z M225.12,233.6c-0.43,2.14-0.45,3.99-0.09,5.65
			c1.18,5.57,4.56,9.86,9.54,12.11c0.32-0.18,0.78-0.77,0.92-1.16c-3.69-2.85-7.69-6.5-9.69-11.95
			C225.29,236.79,225.06,235.23,225.12,233.6z"/>
	</g>
	<g>
		<path class="st6" d="M244.3,183.48c-5-3.84-10.11-3.61-15.36-0.53c-2.96,1.69-6.07,4.44-6.09,8.09c-0.02,0.9,1.27-0.6,1.37-0.94
			c0.85-3.66,6.14-5.56,9.32-5.72c2.92-0.17,5.75,1.45,8.4,2.42C243.11,187.25,245.36,184.31,244.3,183.48z"/>
		<path class="st7" d="M223,192.57h-0.52l-0.46-0.41c-0.2-0.2-0.43-0.56-0.42-1.14c0.02-3.43,2.4-6.68,6.72-9.14
			c5.97-3.5,11.63-3.29,16.73,0.62c0.73,0.57,0.95,1.53,0.59,2.57c-0.43,1.27-1.88,3.02-3.45,3.02l0,0c-0.25,0-0.48-0.04-0.7-0.13
			c-0.63-0.23-1.27-0.5-1.93-0.78c-1.85-0.78-3.77-1.58-5.62-1.58l-0.35,0.01c-2.93,0.15-7.52,1.94-8.18,4.77
			C225.27,190.87,224.21,192.57,223,192.57z M233.95,183.13c2.34,0,4.49,0.9,6.57,1.77c0.62,0.26,1.23,0.52,1.84,0.74
			c0.15-0.11,0.79-0.9,0.95-1.37c-4.13-3.06-8.42-3.22-13.32-0.5c1.22-0.37,2.42-0.59,3.48-0.64
			C233.62,183.13,233.79,183.13,233.95,183.13z"/>
	</g>
	<g>
		<path class="st6" d="M249.23,133.22c-1.65-5.33-8.99-6.54-13.74-6.3c-4.97,0.23-9.63,2.86-12.8,6.61
			c-0.69,0.81-0.7,2.35,0.49,1.14c3.35-3.35,7.97-4.11,12.54-3.73c4.81,0.38,7.09,3.4,10.93,5.45
			C247.92,137.08,249.55,134.24,249.23,133.22z"/>
		<path class="st7" d="M247.06,137.74L247.06,137.74c-0.35,0-0.68-0.09-0.99-0.25c-1.29-0.69-2.39-1.47-3.45-2.22
			c-2.17-1.53-4.05-2.86-7-3.09c-0.67-0.05-1.33-0.09-1.99-0.09c-4.06,0-7.28,1.16-9.58,3.46c-0.34,0.34-0.88,0.81-1.58,0.81
			c-0.58,0-1.09-0.33-1.33-0.86c-0.4-0.87-0.01-2.05,0.59-2.77c3.59-4.24,8.58-6.81,13.69-7.05c0.39-0.02,0.79-0.03,1.21-0.03
			c2.71,0,11.7,0.52,13.77,7.2c0.35,1.1-0.29,2.52-0.94,3.41C248.77,137.22,247.91,137.74,247.06,137.74z M233.63,129.62
			c0.73,0,1.46,0.03,2.19,0.1c3.62,0.28,5.96,1.94,8.23,3.53c0.96,0.68,1.94,1.37,3.04,1.98c0.39-0.27,0.97-1.29,0.95-1.7
			c-1.23-3.95-6.69-5.39-11.39-5.39c-0.38,0-0.74,0.01-1.09,0.03c-2.38,0.11-4.79,0.84-6.98,2.08
			C230.11,129.83,231.81,129.62,233.63,129.62z"/>
	</g>
	<g>
		<path class="st6" d="M292.46,198.11c-0.76,0.07-2.51,2.3-1.37,2.54c9.49,2.08,14.62,12.86,15.34,21.8
			c0.15,1.72,2.55-1.1,2.67-1.89C310.5,210.89,303.82,197,292.46,198.11z"/>
		<path class="st7" d="M306.84,224.23L306.84,224.23c-0.74,0-1.53-0.52-1.63-1.68c-0.7-8.6-5.5-18.74-14.38-20.7
			c-0.85-0.18-1.39-0.89-1.34-1.77c0.07-1.22,1.56-3.09,2.86-3.21c4.73-0.46,9.06,1.42,12.47,5.35c4.2,4.84,6.41,12.28,5.52,18.52
			C310.19,221.72,308.41,224.23,306.84,224.23z M292.31,199.68c9.01,2.56,14.07,12.39,15.21,21.22c0.18-0.24,0.33-0.46,0.38-0.6
			c0.77-5.39-1.27-12.19-4.96-16.46c-1.96-2.26-5.48-4.98-10.36-4.51C292.55,199.38,292.44,199.52,292.31,199.68z"/>
	</g>
	<g>
		<path class="st6" d="M314.15,157.32c-0.6,0.09-1.96,2.14-1.04,2.28c9.95,1.12,14.42,9.52,17.92,17.83
			c0.48,1.12,2.28-1.46,2.25-2.13C332.62,165.24,324.86,155.78,314.15,157.32z"/>
		<path class="st7" d="M331.37,178.94L331.37,178.94c-0.66,0-1.22-0.39-1.49-1.03c-3.24-7.71-7.49-16.02-16.91-17.08
			c-0.86-0.13-1.41-0.77-1.41-1.6c-0.01-1.14,1.23-2.95,2.4-3.14c11.78-1.69,19.9,8.91,20.54,19.12c0.06,1.05-1,2.4-1.41,2.83
			C332.51,178.65,331.95,178.94,331.37,178.94z M314.5,158.55c9.41,1.64,13.86,9.59,17.19,17.29c0.17-0.25,0.31-0.51,0.35-0.65
			c-0.58-8.72-7.4-17.99-17.51-16.67C314.52,158.53,314.51,158.53,314.5,158.55z"/>
	</g>
	<g>
		<path class="st6" d="M356.62,126.13c-1.59-1.63-3.37-3.03-5.49-3.9c-2.54-1.03-5.69,0.04-8.29,0.04c-0.73,0-2.28,2.06-1.27,2.32
			c1.96,0.55,3.99,0.66,6,0.93c2.17,0.3,3.86,2.39,5.36,3.81c3.1,2.96,5.51,6.61,7.52,10.38c0.71,1.33,2.84-1.75,2.75-2.63
			C362.63,132.61,359.72,129.24,356.62,126.13z"/>
		<path class="st7" d="M360.93,141.29L360.93,141.29c-0.67,0-1.24-0.36-1.57-0.98c-2.28-4.27-4.66-7.56-7.28-10.07
			c-0.27-0.26-0.54-0.53-0.83-0.82c-1.15-1.16-2.47-2.48-3.84-2.67c-0.52-0.07-1.04-0.13-1.56-0.19c-1.51-0.17-3.07-0.35-4.61-0.78
			c-0.83-0.21-1.33-0.96-1.22-1.87c0.14-1.11,1.49-2.88,2.82-2.88c0.78,0,1.65-0.11,2.57-0.23c2.15-0.27,4.5-0.4,6.19,0.27
			c2.05,0.85,3.98,2.21,5.91,4.18c3.01,3.02,6.28,6.66,6.93,11.67c0.1,1.08-0.84,2.53-1.49,3.25
			C362.27,140.92,361.6,141.29,360.93,141.29z M342.89,123.64c1.05,0.22,2.12,0.34,3.24,0.47c0.54,0.06,1.08,0.12,1.61,0.19
			c2.21,0.31,3.9,2.01,5.27,3.37c0.27,0.27,0.52,0.53,0.78,0.77c2.67,2.56,5.09,5.84,7.39,10.01c0.36-0.43,0.75-1.08,0.79-1.37
			c-0.54-4.07-3.5-7.35-6.23-10.08c-1.7-1.74-3.36-2.92-5.08-3.63c-1.19-0.48-3.11-0.34-4.94-0.11c-0.89,0.11-1.8,0.23-2.69,0.25
			C342.99,123.54,342.94,123.59,342.89,123.64z"/>
	</g>
	<g>
		<path class="st6" d="M357.81,228.01c-0.75-0.4-2.15,1.55-1.52,2.12c10.37,9.39,6.65,26.49-2.04,35.34
			c-0.89,0.93-1.56,3.79,0.46,2.3C365.07,259.96,372.6,235.63,357.81,228.01z"/>
		<path class="st7" d="M353.8,269.42L353.8,269.42c-0.66,0-1.23-0.38-1.49-0.99c-0.49-1.16,0.29-3.04,1.05-3.83
			c5.05-5.14,8.18-13.05,7.97-20.16c-0.16-5.43-2.19-10.06-5.87-13.4c-0.58-0.52-0.72-1.36-0.38-2.24c0.39-1.01,1.4-2.08,2.51-2.08
			h0.31l0.5,0.2c5.22,2.69,8.29,7.55,8.84,14.06c0.84,9.78-4.45,22.24-11.78,27.76C354.84,269.21,354.31,269.42,353.8,269.42z
			 M357.46,229.53c3.98,3.77,6.17,8.89,6.35,14.84c0.15,5.12-1.2,10.47-3.71,15.15c3.23-5.55,5.16-12.54,4.67-18.32
			c-0.33-3.84-1.85-8.98-7.19-11.9C357.56,229.36,357.51,229.44,357.46,229.53z"/>
	</g>
	<g>
		<path class="st6" d="M402.97,217.46c-0.5-0.77-1.93,1.14-1.68,1.8c1.77,4.28,3.87,8.37,5.24,12.77
			c2.41,7.61-2.35,14.25-6.32,20.25c-0.61,0.93-0.82,3.3,0.79,1.81c4.65-4.37,7.52-9.85,9.13-15.99
			C412.21,230.25,407,223.66,402.97,217.46z"/>
		<path class="st7" d="M400.17,255.8L400.17,255.8c-0.59,0-1.11-0.31-1.4-0.84c-0.55-1.03-0.08-2.61,0.41-3.36l0.54-0.81
			c3.82-5.75,7.76-11.68,5.64-18.39c-0.9-2.9-2.17-5.75-3.4-8.5c-0.61-1.38-1.23-2.76-1.81-4.16c-0.36-0.93,0.16-1.89,0.5-2.39
			c0.34-0.49,1.04-1.31,2.01-1.31c0.55,0,1.04,0.27,1.35,0.74l1.24,1.88c3.79,5.7,8.09,12.16,6.09,19.75
			c-1.78,6.76-4.97,12.34-9.48,16.57C401.48,255.34,400.89,255.8,400.17,255.8z M402.56,219.07c0.53,1.27,1.1,2.54,1.66,3.82
			c1.26,2.81,2.55,5.73,3.5,8.76c2.01,6.35-0.55,11.96-3.68,17.02c2.17-3.12,3.82-6.77,4.9-10.9c1.72-6.52-2.08-12.22-5.75-17.75
			L402.56,219.07z"/>
	</g>
	<g>
		<path class="st6" d="M307.07,265.86c-0.4-1.02-2.37,1.43-2.13,2.33c1.18,4.03,1.5,8.3-0.34,12.21c-1.99,4.25-6.91,6-11,7.5
			c-0.74,0.28-2.92,3.5-1.57,3.38C304.31,290.15,311.73,276.94,307.07,265.86z"/>
		<path class="st7" d="M291.96,292.53c-0.8,0-1.44-0.51-1.57-1.29c-0.26-1.43,1.7-4.1,2.78-4.5c4.1-1.5,8.56-3.14,10.31-6.87
			c1.49-3.16,1.58-6.88,0.27-11.34c-0.3-1.11,0.51-2.32,0.88-2.79c0.48-0.63,1.23-1.36,2.13-1.36c0.66,0,1.22,0.39,1.47,1.03
			c2.39,5.67,1.87,12.32-1.39,17.76c-3.23,5.38-8.58,8.79-14.69,9.36L291.96,292.53z M302.25,285.1c-2.43,1.84-5.44,2.95-8.06,3.91
			c-0.19,0.12-0.48,0.46-0.75,0.84C296.81,289.21,299.86,287.56,302.25,285.1z M306.38,267.55c-0.12,0.2-0.21,0.38-0.23,0.5
			c0.69,2.29,1.02,4.5,0.98,6.58C307.38,272.24,307.13,269.83,306.38,267.55z"/>
	</g>
	<g>
		<path class="st6" d="M217.35,305.06c-9.57-1.51-23.21-1.02-23.6-13.99c-0.06-1.33-2.09,0.96-2.13,1.78
			c-0.66,13.4,12.73,17.07,23.88,15.65C216.47,308.36,218.87,305.33,217.35,305.06z"/>
		<path class="st7" d="M211.01,310.03L211.01,310.03c-7.2,0-13.15-2.08-16.76-5.87c-2.8-2.94-4.1-6.76-3.88-11.36
			c0.06-1.17,1.72-3.36,3.09-3.36c0.69,0,1.47,0.5,1.51,1.59c0.3,10.08,9.42,11.18,18.24,12.24c1.49,0.18,2.95,0.35,4.32,0.57
			c0.95,0.17,1.55,0.87,1.54,1.8c-0.01,1.5-1.98,3.87-3.39,4.09C214.12,309.93,212.56,310.03,211.01,310.03z M192.83,293.96
			c0.03,3.39,1.11,6.27,3.22,8.49c3.09,3.24,8.54,5.1,14.97,5.1l0,0c1.44,0,2.9-0.09,4.34-0.27c0.2-0.11,0.67-0.65,0.97-1.12
			c-1.09-0.16-2.24-0.29-3.41-0.44C204.74,304.73,194.73,303.52,192.83,293.96z"/>
	</g>
	<g>
		<path class="st6" d="M163.56,321.79c-7.06-7.07-17.59-16.43-11.29-27.42c0.58-1.04-0.37-1.09-0.91-0.33
			c-7.13,10.55-1.27,25.67,9.93,30.94C162.43,325.55,164.46,322.68,163.56,321.79z"/>
		<path class="st7" d="M161.61,326.29L161.61,326.29c-0.31,0-0.6-0.07-0.88-0.2c-6.17-2.9-11-8.75-12.9-15.63
			c-1.69-6.15-0.81-12.23,2.5-17.12c0.87-1.23,2.54-1.34,3.14-0.33c0.22,0.38,0.39,1.03-0.12,1.95c-5.46,9.52,3,17.91,9.79,24.65
			l1.3,1.29c0.65,0.65,0.76,1.66,0.31,2.76C164.2,324.97,162.95,326.29,161.61,326.29z M149.48,304.51
			c0.01,1.73,0.26,3.51,0.75,5.29c1.68,6.13,5.95,11.33,11.41,13.97c0.34-0.2,0.82-0.88,0.9-1.26l-1.14-1.14
			C156.76,316.79,151.01,311.08,149.48,304.51z"/>
	</g>
	<g>
		<path class="st6" d="M170.83,354.77c-9.95,3.36-18.7,0.35-26.83-5.74c-7.95-5.94-10.88-13.61-11.16-23.24
			c-0.03-0.85-1.31,0.55-1.36,0.97c-1.49,11.19,0.91,19.01,9.23,26.87c8.17,7.68,19.26,10.58,29.09,4.68
			C170.5,357.9,172.67,354.15,170.83,354.77z"/>
		<path class="st7" d="M158.71,362.69c-6.56,0-13.26-2.9-18.85-8.16c-8.41-7.95-11.19-16.04-9.61-27.93
			c0.09-0.83,1.31-2.31,2.4-2.31c0.68,0,1.39,0.49,1.42,1.45c0.3,10.13,3.59,17.01,10.67,22.3c8.92,6.69,17.15,8.45,25.69,5.56
			c1.11-0.37,2.04,0.1,2.29,1.02c0.41,1.5-1.45,4.25-2.29,4.75C166.77,361.57,162.82,362.69,158.71,362.69z M132.27,332.32
			c-0.07,8.18,2.75,14.23,9.29,20.42c8.3,7.8,19.03,9.67,27.61,4.52c0.13-0.12,0.37-0.47,0.6-0.86c-8.77,2.51-17.41,0.45-26.51-6.37
			C137.25,345.53,133.67,339.81,132.27,332.32z"/>
	</g>
	<g>
		<path class="st6" d="M253.28,354.3c-7.29,2.82-13.86,3.93-21.35,1.14c-5.25-1.97-9.39-7.07-14.13-10c-0.74-0.46-2.29,1.7-1.6,2.23
			c5.08,3.84,9.45,10.65,15.79,12.54c7.31,2.2,13.64,0.91,20.3-2.58C253.09,357.22,254.86,353.69,253.28,354.3z"/>
		<path class="st7" d="M239.08,362.52L239.08,362.52c-2.47,0-4.9-0.37-7.44-1.14c-4.43-1.32-7.84-4.76-11.15-8.09
			c-1.71-1.73-3.33-3.36-5.03-4.64c-0.63-0.48-0.83-1.3-0.53-2.19c0.33-0.97,1.36-2.33,2.64-2.33h0.35l0.53,0.25
			c1.95,1.21,3.81,2.77,5.6,4.28c2.62,2.21,5.33,4.5,8.31,5.61c2.77,1.04,5.48,1.54,8.28,1.54c3.65,0,7.4-0.82,12.18-2.68
			c1.09-0.42,2.05,0.09,2.27,1.04c0.34,1.39-1.23,4.03-2.24,4.54C247.91,361.31,243.53,362.52,239.08,362.52z M217.39,347.01
			c1.68,1.33,3.29,2.96,4.86,4.54c3.08,3.11,6.27,6.32,10.1,7.46c2.31,0.7,4.51,1.04,6.73,1.04l0,0c4.03,0,8.05-1.12,12.64-3.53
			c0.09-0.07,0.22-0.26,0.35-0.48c-8,2.9-14.02,3.01-20.57,0.56c-3.37-1.26-6.25-3.69-9.03-6.03c-1.68-1.41-3.26-2.75-4.92-3.83
			C217.51,346.81,217.44,346.91,217.39,347.01z"/>
	</g>
	<g>
		<path class="st6" d="M252.07,381.66c-16.51,5.98-32.82,12.4-46.61-2.59c-0.61-0.64-2.48,1.76-1.8,2.56
			c12.84,16.08,31.22,11.52,47.47,3.2C251.86,384.46,253.63,381.1,252.07,381.66z"/>
		<path class="st7" d="M225.43,393.64C225.43,393.64,225.43,393.64,225.43,393.64c-9.15,0-16.8-3.78-22.75-11.22
			c-0.29-0.34-0.72-1.17-0.1-2.51c0.35-0.75,1.35-2.17,2.62-2.17c0.44,0,0.85,0.18,1.16,0.49c5.47,5.95,11.79,8.83,19.33,8.83
			c7.88,0,16.06-2.97,24.72-6.11l1.24-0.45c1.06-0.38,2.01,0.11,2.23,1.05c0.32,1.34-1.22,3.89-2.19,4.4
			C241.58,391.12,232.99,393.64,225.43,393.64z M204.78,381.06c10.23,12.6,24.59,13.52,45.78,2.67c0.05-0.04,0.12-0.15,0.22-0.29
			c-8.33,3.02-16.93,6.08-25.08,6.08c-8.01,0-14.75-2.96-20.58-9.03C204.96,380.69,204.83,380.9,204.78,381.06z"/>
	</g>
	<g>
		<path class="st6" d="M334.12,332.01c-3.2,9.58-11.13,12.21-20.27,13.82c-1.09,0.22-3.16,3.92-1.78,3.81
			c11.55-0.7,20.94-7.18,24.07-18.56C336.6,329.49,334.35,331.27,334.12,332.01z"/>
		<path class="st7" d="M312.02,350.88c-0.88,0-1.55-0.62-1.63-1.5c-0.15-1.5,1.66-4.46,3.22-4.77c9.84-1.74,16.5-4.52,19.34-13
			c0.27-0.89,1.84-2.41,3.02-2.41h0.61l0.55,0.57c0.32,0.43,0.39,0.98,0.2,1.64c-3.13,11.41-12.54,18.69-25.18,19.46L312.02,350.88z
			 M327.53,342.56c-4.03,2.58-8.88,3.68-13.46,4.49c-0.18,0.12-0.59,0.71-0.88,1.26C318.85,347.75,323.75,345.75,327.53,342.56z"/>
	</g>
	<g>
		<path class="st6" d="M370.13,334.45c-0.74,13.98-17.18,15.82-27.79,18.48c-0.92,0.23-3.49,3.63-1.78,3.89
			c13.24,2.03,32.63-9.68,31.88-24.29C372.37,331.08,370.19,333.59,370.13,334.45z"/>
		<path class="st7" d="M343.68,358.28L343.68,358.28c-1.14,0-2.25-0.08-3.31-0.25c-0.94-0.14-1.58-0.83-1.62-1.75
			c-0.08-1.62,1.97-4.22,3.28-4.55c1.29-0.33,2.65-0.63,4.07-0.96c10.4-2.36,22.19-5.03,22.79-16.39c0.08-1.1,1.79-3.54,3.26-3.54
			c0.7,0,1.48,0.51,1.53,1.62c0.27,5.34-1.92,10.62-6.33,15.27C361.35,354.04,351.85,358.28,343.68,358.28z M341.41,355.68
			c7.83,0.89,18.01-3.2,24.14-9.65c0.11-0.12,0.22-0.24,0.34-0.36c-5.13,4.32-12.91,6.08-19.24,7.52c-1.4,0.32-2.74,0.62-4.01,0.94
			C342.38,354.28,341.74,355.08,341.41,355.68z"/>
	</g>
</g>
<g>
	<g>
		<g>
			<path class="st8" d="M142.43,143.86c2.1-3.69,4.67-7.06,7.41-10.28c2.75-3.21,5.72-6.22,8.91-9.05
				c6.36-5.63,13.52-10.54,21.54-14.05c2.01-0.86,4.06-1.64,6.16-2.31c2.11-0.65,4.26-1.21,6.45-1.6c4.38-0.78,8.94-1.01,13.4-0.38
				c4.46,0.61,8.81,2.05,12.62,4.26c3.81,2.22,7.11,5.12,9.64,8.52c-3.74-2-7.46-3.67-11.26-4.7c-3.81-1.06-7.63-1.53-11.43-1.46
				c-7.61,0.12-15.05,2.31-22.23,5.4c-7.17,3.12-14.09,7.15-20.87,11.56C155.95,134.18,149.3,138.97,142.43,143.86z"/>
		</g>
		<g>
			<path class="st8" d="M353.79,141.65c-6.36-4.33-12.58-8.32-18.95-11.88c-6.36-3.55-12.86-6.63-19.57-8.93
				c-6.7-2.3-13.59-3.83-20.69-4.31c-7.12-0.52-14.38,0.11-21.99,1.38c6.26-4.55,13.93-7.22,21.85-8.01
				c7.94-0.78,16.08,0.35,23.57,2.96c7.52,2.59,14.44,6.56,20.52,11.43c3.03,2.45,5.88,5.1,8.45,7.99
				C349.55,135.19,351.94,138.24,353.79,141.65z"/>
		</g>
	</g>
	<g>
		<path class="st8" d="M225.7,355.6c-6.59,0-9.71-7.03-12.73-13.83c-2.56-5.76-4.97-11.19-8.91-11.66
			c-2.65-0.32-3.19,0.81-4.16,5.39c-0.99,4.67-2.5,11.71-12.21,11.2c-9.19-0.49-11.42-6.95-13.4-12.66
			c-1.65-4.76-3.07-8.88-8.03-10.47c-2.64-0.84-4.62-0.67-6.04,0.53c-2.84,2.4-3.1,8.57-2.96,10.75c0.08,1.11-0.71,2.08-1.76,2.16
			c-1.06,0.07-1.97-0.76-2.04-1.88c-0.02-0.4-0.6-9.97,4.38-14.18c2.44-2.06,5.64-2.48,9.52-1.24c6.79,2.18,8.76,7.9,10.51,12.95
			c1.87,5.4,3.34,9.67,10.01,10.02c6.51,0.36,7.29-3.36,8.29-8.05c0.82-3.92,1.96-9.27,8.31-8.51c6.06,0.71,9.04,7.44,11.93,13.95
			c2.64,5.92,5.12,11.51,9.29,11.51c4.36,0,7.21-5.53,10.22-11.39c3.09-6,6.28-12.2,11.84-13.12c6.07-1.01,10.13,4.55,13.72,9.47
			c3.09,4.24,6.01,8.23,9.61,8.04c3.66-0.21,5.13-3.12,7.22-7.82c1.8-4.04,3.84-8.64,8.59-10.16c5.91-1.9,9.77,2.96,12.87,6.87
			c2.15,2.71,4.18,5.27,6.39,5.45c1.98,0.17,3.89-3.97,5.74-7.96c2.68-5.77,5.71-12.31,11.61-13.33
			c7.43-1.28,10.53,5.23,13.02,10.44c1.32,2.79,2.59,5.44,4.3,7.01c0.79,0.72,0.88,2,0.2,2.85c-0.69,0.85-1.9,0.94-2.7,0.2
			c-2.28-2.09-3.77-5.21-5.22-8.24c-2.68-5.63-4.56-9.04-9-8.28c-3.96,0.69-6.53,6.23-8.8,11.11c-2.51,5.43-4.91,10.56-9.45,10.21
			c-3.81-0.3-6.47-3.65-9.03-6.88c-3.31-4.2-5.57-6.65-8.84-5.61c-3.13,1.01-4.65,4.42-6.25,8.02c-2.04,4.59-4.34,9.78-10.48,10.14
			c-5.58,0.33-9.26-4.73-12.83-9.6c-3.22-4.42-6.29-8.59-10.12-7.95c-3.69,0.62-6.42,5.93-9.07,11.06
			C235.86,348.74,232.32,355.6,225.7,355.6z"/>
	</g>
	<g>
		<g>
			<path class="st8" d="M159.01,340.17c-1.33,1.58-3.03,2.65-4.97,3.29c-0.98,0.32-2.04,0.48-3.22,0.38
				c-1.15-0.14-2.46-0.57-3.51-1.69c-1.02-1.15-1.39-2.48-1.54-3.63c-0.15-1.16-0.08-2.23,0.05-3.25c0.31-2.04,0.89-3.89,1.74-5.78
				c0.71,1.97,0.93,3.97,1.22,5.78c0.13,0.9,0.29,1.77,0.49,2.5c0.21,0.74,0.49,1.28,0.75,1.54c0.24,0.27,0.71,0.55,1.35,0.7
				c0.63,0.18,1.4,0.24,2.22,0.26C155.25,340.32,157.04,340.18,159.01,340.17z"/>
		</g>
		<g>
			<path class="st8" d="M335.91,340.17c1.97,0,3.77,0.15,5.42,0.11c0.81-0.02,1.59-0.08,2.21-0.26c0.64-0.15,1.11-0.44,1.35-0.7
				c0.26-0.26,0.54-0.8,0.75-1.54c0.2-0.73,0.36-1.6,0.5-2.5c0.29-1.81,0.51-3.81,1.21-5.78c0.85,1.89,1.44,3.74,1.74,5.78
				c0.13,1.03,0.21,2.09,0.05,3.25c-0.14,1.14-0.53,2.48-1.54,3.63c-1.05,1.13-2.36,1.56-3.52,1.69c-1.18,0.1-2.24-0.06-3.21-0.38
				C338.93,342.82,337.24,341.75,335.91,340.17z"/>
		</g>
	</g>
	<g>
		<g>
			<g>
				<g>
					<path class="st9" d="M247.73,219.42c-10.58,32.69-39.07,52.75-63.63,44.8c-24.55-7.94-35.89-40.89-25.31-73.6
						c10.57-32.69,39.06-52.75,63.63-44.81C246.97,153.77,258.31,186.71,247.73,219.42z"/>
					<path class="st8" d="M195.86,267.88c-4.23,0.07-8.38-0.53-12.36-1.83c-25.54-8.26-37.46-42.36-26.56-76.03
						c8.99-27.81,31.08-47.5,53.71-47.89c4.22-0.07,8.39,0.54,12.37,1.83c25.53,8.27,37.45,42.38,26.56,76.04
						C240.58,247.81,218.49,267.49,195.86,267.88z M210.72,146.02c-20.99,0.36-41.58,18.95-50.09,45.2
						c-10.23,31.63,0.57,63.54,24.07,71.15c3.56,1.15,7.29,1.7,11.09,1.63c21-0.36,41.59-18.95,50.09-45.2
						c10.23-31.62-0.57-63.54-24.07-71.14C218.25,146.52,214.52,145.96,210.72,146.02z"/>
				</g>
				<g>
					<g>
						<path class="st4" d="M230.32,192.97c-6.94,17.19-22.8,27-35.41,21.9c-12.59-5.1-17.18-23.16-10.23-40.35
							c6.96-17.19,22.8-27,35.4-21.9C232.7,157.71,237.27,175.78,230.32,192.97z"/>
					</g>
					<g>
						<path class="st8" d="M219.49,188.59c-3.65,9.03-11.97,14.18-18.59,11.51c-6.61-2.68-9.02-12.16-5.38-21.2
							c3.65-9.03,11.98-14.17,18.6-11.5C220.74,170.07,223.14,179.56,219.49,188.59z"/>
					</g>
					<g>
						<path class="st9" d="M210.34,170.97c-3.15,4.49-8.38,6.27-11.68,3.95c-3.28-2.31-3.41-7.83-0.25-12.32
							c3.15-4.49,8.38-6.26,11.67-3.96C213.38,160.96,213.49,166.48,210.34,170.97z"/>
					</g>
				</g>
				<g>
					<path class="st0" d="M192.86,256.96c-23.69-7.62-34.63-39.24-24.41-70.61c4.74-14.56,12.66-26.83,22.74-34.7
						c-13.48,7.15-24.72,21.61-30.66,39.85c-10.22,31.37,0.65,63.37,24.34,71.01c12.71,4.08,26.56,0.06,38.2-9.02
						C213.36,258.62,202.79,260.14,192.86,256.96z"/>
				</g>
			</g>
			<g>
				<path class="st3" d="M156.79,218.02c10.51,0.13,9.27,11.02,11.21,15.65c1.95,4.63,7.71,8.46,18.11,5.43
					c10.41-3.01,13.72,2.4,16.9,6.55c3.19,4.13,7.74,2.84,14.22-4.29c7.25-7.97,19.71-5.44,20.6-4.74
					c-6.29,9.34-13.79,17.1-22.4,21.92c-11.37,6.39-21.65,6.78-31.85,3.48c-7.48-2.43-15.94-9.83-20.55-19.1
					C157.31,231.47,156.46,218.02,156.79,218.02z"/>
			</g>
			<g>
				<path class="st4" d="M163.03,242.93c-5.72-11.47-6.57-24.91-6.24-24.91c0.11,0,2.55,12.99,6.17,20.25
					c4.62,9.27,13.07,16.68,20.55,19.09c10.2,3.31,20.48,2.91,31.86-3.47c7.2-4.02,15.9-10.05,22.24-17.37
					c0.1,0.04,0.18,0.09,0.22,0.11c-6.29,9.34-13.79,17.1-22.4,21.92c-11.37,6.39-21.65,6.78-31.85,3.48
					C176.1,259.6,167.65,252.2,163.03,242.93z"/>
			</g>
		</g>
		<g>
			<g>
				<path class="st0" d="M356.73,246.71c0,0,29.9,5.27,36.8,23.67c6.9,18.4-21.11,30.07-30.64,14.95
					C353.37,270.21,369.55,265.75,356.73,246.71z"/>
				<path class="st10" d="M376.01,293.68c-6.14,0-11.21-2.7-14.3-7.59c-4.75-7.54-3.5-12.75-2.29-17.81
					c1.36-5.72,2.65-11.11-3.85-20.78c-0.32-0.46-0.33-1.06-0.02-1.55c0.31-0.47,0.87-0.72,1.42-0.62
					c1.25,0.21,30.78,5.62,37.87,24.55c2.01,5.32,1.41,10.69-1.66,15.12C389.53,290.28,382.79,293.68,376.01,293.68z M359.69,248.82
					c5.12,9.03,3.72,14.89,2.46,20.11c-1.17,4.89-2.18,9.12,1.93,15.65c2.56,4.05,6.8,6.28,11.93,6.28c5.89,0,11.72-2.92,14.87-7.45
					c1.79-2.58,3.47-6.86,1.35-12.54C386.99,256.92,367.44,250.75,359.69,248.82z"/>
			</g>
			<g>
				<path class="st2" d="M374.04,281.86c-10.94-7.67-5.16-15.69-10.96-24.44c2.75,10.66-6.11,15.77,0.95,26.97
					c6.75,10.72,23.64,6.75,28.02-3.42C386.85,284.77,379.89,285.97,374.04,281.86z"/>
			</g>
		</g>
		<g>
			<g>
				<path class="st0" d="M362.13,228.52c0,0,11.66-10.03,26.82-4.49c15.16,5.55,16.28,22.54,2.82,19.59
					C378.3,240.67,379.3,231.9,362.13,228.52z"/>
				<path class="st10" d="M394.68,245.37c-1,0-2.09-0.14-3.21-0.38c-6.61-1.44-10.01-4.3-13.3-7.06c-3.68-3.1-7.48-6.3-16.32-8.03
					c-0.53-0.11-0.95-0.5-1.09-1.02c-0.13-0.52,0.04-1.07,0.44-1.43c0.32-0.26,7.69-6.5,18.48-6.5c3.29,0,6.56,0.59,9.75,1.76
					c9.37,3.44,13.97,11.21,13,16.76C401.77,243.16,398.87,245.37,394.68,245.37z M365.53,227.87c7.39,1.98,11.12,5.1,14.45,7.91
					c3.3,2.77,6.17,5.17,12.09,6.47c0.93,0.2,1.81,0.3,2.62,0.3c2.8,0,4.57-1.26,4.97-3.56c0.76-4.31-3.3-10.75-11.18-13.64
					c-2.88-1.05-5.83-1.58-8.78-1.58C373.44,223.77,368.36,226.15,365.53,227.87z"/>
			</g>
			<g>
				<path class="st2" d="M392.17,237.4c-8.44,1.04-12.66-6.32-20.55-7.91c8.47,3.73,9.78,11.06,19.76,13.22
					c9.55,2.09,9.91-7.25,3.61-12.73C396.39,233.87,396.69,236.84,392.17,237.4z"/>
			</g>
		</g>
		<g>
			<g>
				<path class="st0" d="M137.76,226.29c0,0-7.26-12.22-22.75-11.17c-15.49,1.06-22.02,16.24-8.91,17.1
					C119.22,233.08,121.17,224.83,137.76,226.29z"/>
				<path class="st10" d="M108,233.68L108,233.68c-0.64,0-1.31-0.01-1.99-0.06c-5.21-0.34-8.33-2.89-8.34-6.82
					c0-5.75,6.93-12.38,17.26-13.07c0.66-0.05,1.32-0.07,1.97-0.07c13.96,0,20.95,10.13,21.96,11.72c0.21,0.24,0.34,0.56,0.34,0.91
					c0,0.78-0.63,1.37-1.41,1.4c-0.04,0-0.09,0-0.14-0.01c-1.27-0.1-2.5-0.15-3.66-0.15c-6.22,0-10.01,1.61-13.67,3.16
					C116.85,232.17,113.28,233.68,108,233.68z M116.89,216.46c-0.59,0-1.19,0.03-1.78,0.07c-9.06,0.61-14.62,6.39-14.62,10.27
					c0,3.17,3.58,3.88,5.71,4.02c0.63,0.04,1.22,0.06,1.8,0.06l0,0c4.71,0,7.87-1.35,11.21-2.77c3.89-1.66,8.38-3.54,15.64-3.38
					C132.15,221.62,126.3,216.46,116.89,216.46z"/>
			</g>
			<g>
				<path class="st2" d="M107.75,226.45c7.28,3.17,13.49-2.41,21.12-1.79c-8.85,1.17-12.41,7.49-22.13,6.84
					c-9.3-0.62-6.58-9.22,0.88-12.55C105.1,222.13,103.86,224.75,107.75,226.45z"/>
			</g>
		</g>
		<g>
			<g>
				<path class="st0" d="M146.3,254.01c0,0-23,4.05-28.3,18.2c-5.31,14.16,16.24,23.13,23.56,11.5
					C148.89,272.08,136.44,268.66,146.3,254.01z"/>
				<path class="st10" d="M131.47,290.45L131.47,290.45c-5.32,0-10.61-2.67-13.46-6.8c-2.43-3.5-2.9-7.74-1.33-11.93
					c5.53-14.74,28.41-18.92,29.37-19.1c0.56-0.09,1.11,0.14,1.42,0.62c0.31,0.47,0.3,1.08-0.01,1.55
					c-4.93,7.31-3.95,11.39-2.91,15.72c0.95,3.95,1.92,8.03-1.8,13.94C140.32,288.32,136.3,290.45,131.47,290.45z M143.37,256.12
					c-6.33,1.68-20.25,6.42-24.07,16.58c-1.58,4.24-0.33,7.42,1.01,9.35c2.35,3.39,6.74,5.59,11.16,5.59c3.84,0,7-1.67,8.9-4.68
					c3.09-4.91,2.33-8.09,1.44-11.78C140.87,267.22,139.82,262.8,143.37,256.12z"/>
			</g>
			<g>
				<path class="st2" d="M132.99,281.04c8.4-5.9,3.96-12.07,8.43-18.8c-2.12,8.2,4.7,12.13-0.73,20.75
					c-5.2,8.24-18.2,5.18-21.57-2.64C123.13,283.27,128.49,284.2,132.99,281.04z"/>
			</g>
		</g>
		<g>
			<g>
				<g>
					<path class="st9" d="M256.61,220.33c11.96,32.97,41.7,52.41,66.48,43.45c24.77-8.97,35.16-42.98,23.22-75.94
						c-11.94-32.97-41.71-52.42-66.48-43.45C255.06,153.37,244.66,187.37,256.61,220.33z"/>
					<path class="st8" d="M311.22,267.76L311.22,267.76c-23.02,0.4-46.18-18.85-56.32-46.81c-12.25-33.86-1.36-68.96,24.3-78.26
						c3.99-1.44,8.19-2.21,12.49-2.28c23.01-0.4,46.17,18.85,56.3,46.81c12.27,33.85,1.37,68.95-24.3,78.25
						C319.71,266.92,315.51,267.69,311.22,267.76z M291.76,144.02c-3.9,0.07-7.71,0.77-11.32,2.08
						c-23.78,8.61-33.72,41.64-22.13,73.62c9.62,26.54,31.35,44.81,52.85,44.43l0,0c3.9-0.07,7.7-0.77,11.32-2.07
						c23.78-8.62,33.71-41.65,22.13-73.63C334.98,161.92,313.25,143.64,291.76,144.02z"/>
				</g>
				<g>
					<g>
						<path class="st4" d="M273.43,192.76c7.69,17.28,24.2,26.72,36.87,21.08c12.67-5.64,16.7-24.23,9-41.51
							c-7.69-17.28-24.2-26.72-36.87-21.07C269.76,156.9,265.73,175.48,273.43,192.76z"/>
					</g>
					<g>
						<path class="st8" d="M284.31,187.9c4.04,9.08,12.72,14.04,19.37,11.07c6.66-2.96,8.78-12.72,4.73-21.8
							c-4.05-9.08-12.72-14.04-19.37-11.07C282.39,169.07,280.27,178.83,284.31,187.9z"/>
					</g>
					<g>
						<path class="st9" d="M293.02,169.62c3.39,4.47,8.78,6.09,12.06,3.62c3.28-2.48,3.2-8.11-0.18-12.58
							c-3.37-4.47-8.77-6.09-12.04-3.62C289.58,159.52,289.65,165.15,293.02,169.62z"/>
					</g>
				</g>
				<g>
					<path class="st0" d="M313.89,256.68c23.89-8.61,33.92-41.23,22.4-72.87c-5.36-14.68-13.86-26.92-24.41-34.58
						c13.99,6.81,25.98,21.15,32.68,39.55c11.52,31.63,1.58,64.64-22.33,73.26c-12.8,4.61-27.32,0.66-39.51-8.19
						C292.81,258.77,303.89,260.29,313.89,256.68z"/>
				</g>
			</g>
			<g>
				<g>
					<path class="st3" d="M349.37,215.7c-10.71,0.51-9.06,11.58-10.88,16.36c-1.81,4.79-7.57,8.89-18.29,6.19
						c-10.72-2.71-13.91,2.94-16.99,7.27c-3.1,4.33-7.8,3.18-14.65-3.86c-7.68-7.88-20.28-4.85-21.17-4.11
						c6.75,9.3,14.67,16.95,23.62,21.57c11.83,6.1,22.33,6.14,32.61,2.41c7.54-2.74,15.89-10.59,20.27-20.19
						C349.32,229.42,349.7,215.69,349.37,215.7z"/>
				</g>
				<g>
					<path class="st4" d="M343.89,241.33c5.43-11.91,5.82-25.65,5.48-25.64c-0.1,0.01-2.15,13.34-5.58,20.87
						c-4.39,9.61-12.74,17.46-20.28,20.19c-10.29,3.73-20.79,3.68-32.62-2.41c-7.47-3.86-16.57-9.7-23.3-16.94
						c-0.09,0.05-0.17,0.09-0.22,0.13c6.75,9.3,14.67,16.95,23.62,21.57c11.83,6.1,22.33,6.14,32.61,2.41
						C331.16,258.79,339.5,250.94,343.89,241.33z"/>
				</g>
			</g>
		</g>
	</g>
</g>
</svg>
