<?xml version="1.0" encoding="utf-8"?>
<!-- Generator: Adobe Illustrator 25.4.1, SVG Export Plug-In . SVG Version: 6.00 Build 0)  -->
<svg version="1.1" id="Layer_1" xmlns="http://www.w3.org/2000/svg" xmlns:xlink="http://www.w3.org/1999/xlink" x="0px" y="0px"
	 viewBox="0 0 500 500" style="enable-background:new 0 0 500 500;" xml:space="preserve">
<style type="text/css">
	.st0{fill:#D0E5F6;}
	.st1{fill:#338CCC;}
	.st2{fill:#C6E8ED;}
	.st3{fill:#93CBDC;}
	.st4{fill:#228FB9;}
	.st5{opacity:0.3;}
	.st6{fill:#6091B1;}
	.st7{fill:#1CA8C0;}
	.st8{fill:#FFFFFF;}
	.st9{fill:#323031;}
	.st10{fill:#5184A6;}
</style>
<g>
	<path class="st0" d="M8.03,247.67c1.2,42.6,11.48,86.86,33.22,123.61c56.23,95.05,146.33,99.92,245.26,101.96
		c52.8,1.1,111.31-5.38,150.87-45.18c50.09-50.4,62.75-129.9,57.98-198.8c-3.05-43.99-14.22-85.15-40.08-120.99
		c-24.1-33.4-55.96-62.23-92.75-80.15C322.25,8.48,278.24,3.58,234.01,5.68c-40.79,1.94-81.72,9.01-118.28,28.44
		c-36.89,19.61-65.64,49.85-83.48,88.32C14.3,161.19,6.82,204.93,8.03,247.67z"/>
	<path class="st1" d="M285.92,474.54c-92.64-1.91-188.44-3.87-246.98-102.59C12.93,328.1,6.37,280.19,5.45,247.72
		c-1.28-45.19,7.16-88.7,24.41-125.82c17.84-38.41,46.98-69.16,84.26-88.92C146.54,15.79,184.4,6.7,233.25,4.39
		c5.35-0.25,10.66-0.4,15.79-0.44c43.97-0.34,81.16,7.19,113.68,23c35.5,17.25,67.82,45.11,93.47,80.56
		c23.8,32.89,37.03,72.69,40.43,121.67c7.97,114.77-33.24,174.45-58.51,199.81c-30.55,30.66-74.5,45.17-138.31,45.66c0,0,0,0-0.01,0
		C295.36,474.67,290.69,474.64,285.92,474.54z M233.37,6.99c-48.47,2.3-85.99,11.3-118.07,28.3c-36.78,19.5-65.53,49.83-83.13,87.73
		C15.09,159.77,6.73,202.86,8,247.64c0.91,32.16,7.4,79.6,33.12,122.97c57.82,97.48,152.9,99.43,244.85,101.33
		c4.74,0.1,9.39,0.13,13.81,0.1c0,0,0.01,0,0.01,0c63.1-0.48,106.48-14.75,136.54-44.91c24.96-25.05,65.66-84.05,57.76-197.78
		c-3.37-48.47-16.43-87.82-39.94-120.3c-25.4-35.1-57.4-62.68-92.52-79.75C329.45,13.66,292.63,6.22,249.06,6.55
		C243.97,6.59,238.69,6.74,233.37,6.99z"/>
</g>
<path class="st2" d="M6.73,247.68c1.21,42.6,11.51,86.86,33.31,123.61c56.38,95.05,146.71,99.91,245.91,101.95
	c52.94,1.09,111.61-5.38,151.27-45.18c50.23-50.4,62.92-129.9,58.14-198.8c-3.06-43.99-14.25-85.15-40.18-120.99
	c-24.17-33.4-56.11-62.23-93-80.15C321.79,8.49,277.66,3.58,233.31,5.69c-40.9,1.94-81.94,9.01-118.6,28.44
	c-36.98,19.61-65.82,49.85-83.7,88.33C13.01,161.2,5.51,204.94,6.73,247.68z M92.77,207.36c3.42-8.1,9.38-14.89,14.63-21.79
	c5.27-6.93,9.1-13.75,10.61-22.04c-0.73-5.34-0.73-10.16,0.64-15.1c-0.19-5.46-0.47-10.91,0.33-16.32
	c1.44-9.64,7.43-18.04,10.61-27.12c2.71-7.72,4.96-15.67,9.84-22.32c5.44-7.43,13.75-10.91,22.27-13.27
	c4.94-1.37,9.96-2.38,14.84-4.01c6.19-2.08,11.22-5.69,15.75-10.4c6.52-6.79,11.69-14.65,19.47-20.12
	c9.26-6.52,21.46-8.51,32.46-8.95c12.16-0.48,24.33,1.74,36.18,4.25c9.16,1.94,18.23,4.4,27.48,5.86c7.53,1.18,15.12,1.86,22.7,2.61
	c17.34,1.71,35.25,3.3,51.4,10.45c9.41,4.16,16.84,10.58,22.03,18.7c11.1,11.07,19.45,25.28,30,36.74
	c13.18,14.31,26.85,28.24,33.39,47.15c4.03,11.66,5.01,24.56,7.1,36.68c2.29,13.3,4.74,26.57,7.44,39.79
	c2.01,9.87,2.46,19.88,0.52,29.8c-1.83,9.34-6.01,18.05-10.37,26.39c-5.36,10.24-11.25,19.69-13.93,31.11
	c-2.44,10.36-3.13,21.06-5.68,31.4c-4.85,19.67-19.74,34.92-37.82,42.64c-8.86,3.78-18.51,5.39-28.06,5.84
	c-10.7,0.51-21.05-1.71-31.68-2.03c-10.56-0.32-20.31,2.95-29.57,7.86c-9.65,5.11-18.21,11.88-28.98,14.43
	c-9.08,2.15-18.52,1.05-27.72,0.61c-5.04-0.24-10.08-0.18-15.1,0.33c-5.82,0.59-11.41,2.68-16.9,4.64
	c-8.84,3.16-17.62,5.92-26.99,3.55c-10.76-2.72-17.49-11.92-24.42-19.97c-3.94-4.58-8.06-8.58-13.32-11.53
	c-5.23-2.93-11.08-4.43-16.84-5.81c-9.62-2.29-18.87-4.76-26.88-10.93c-12.56-9.69-15.32-25.67-15.48-40.79
	c-0.11-10.37,1.25-20.7,0.67-31.07c-0.03-0.51-0.1-0.99-0.14-1.5c-0.14-1.31-0.28-2.63-0.41-3.94c-1.47-10.63-5.29-20.18-9.59-30.14
	C94.9,249.77,83.87,228.45,92.77,207.36z"/>
<path class="st2" d="M31.01,122.45c17.88-38.48,46.72-68.72,83.7-88.33c22.82-12.09,47.33-19.4,72.44-23.66
	c-1.17,0.67-2.34,1.38-3.49,2.17c-6.17,4.27-11.62,9.46-16.96,14.74c-3.46,3.41-6.78,7.28-11.15,9.49
	c-4.44,2.25-9.22,3.31-14.12,3.95c-7.84,1.02-16.32,1.47-23.27,5.74c-7.21,4.44-12.18,11.69-16.25,19.06
	c-5.06,9.19-9.21,19.43-16.49,27.11c-6.87,7.25-14.99,13.19-21.98,20.34c-6.2,6.34-11.62,13.27-15.12,21.54
	c-4.05,9.56-4.11,19.46-3.98,29.67c0.15,12.57-0.42,24.77-3.86,36.92c-3.21,11.35-9.39,22.3-10.37,34.22
	c-1.86,22.75,14.32,41.29,15.21,63.54c0.74,18.55,0.21,37.94,11.73,53.53c6.27,8.47,14.25,15.23,22.07,22.12
	c4,3.52,8.01,7.14,11.38,11.31c3.48,4.3,5.85,8.93,8.39,13.81c7.9,15.17,19.13,26.55,35.33,32.05c11.27,3.82,22.47,4.7,34.28,4.61
	c12.97-0.09,25.33,0.92,37.76,4.97c19.32,6.28,37.57,16.48,58.47,15.1c12.41-0.82,24.54-4.53,36.71-6.9
	c13.65-2.66,26.35-3.09,40.07-0.77c10.14,1.72,20.73,3.91,30.99,1.94c11.16-2.14,20-8.61,28.75-15.65
	c9.51-7.65,18.88-14.8,29.22-21.24c8.07-5.03,15.59-11.04,21.51-18.63c6.46-8.29,10.92-17.53,15.12-27.16
	c4.82-11.06,9.41-22.26,13.13-33.75c3.69-11.37,6.75-23.03,8.18-34.94c0.74-6.16,1.19-12.39,0.95-18.6
	c-0.23-6.08-0.82-12.09-0.64-18.2c0.42-13.45,3.37-26.26,5.15-39.51c0.19-1.44,0.37-2.88,0.54-4.33c0.35,3.5,0.67,7.02,0.92,10.55
	c4.79,68.9-7.91,148.4-58.14,198.8c-39.66,39.8-98.33,46.28-151.27,45.18c-99.2-2.04-189.53-6.9-245.91-101.95
	c-21.8-36.75-32.1-81.01-33.31-123.61C5.51,204.94,13.01,161.2,31.01,122.45z"/>
<g>
	<g>
		<path class="st3" d="M87.81,273.03c-9.46,20.65-0.67,41.99,17.55,47.51c0,0-6.08,33.02,26.32,39.9
			c12.15,30.27,43.18,26.16,43.18,26.16s10.81,24.75,44.54,16.49c14.87,18.59,42.52,12.4,56.03-1.37
			c16.18,13.76,33.15,5.33,48.57-6.2c10.12-7.56,25.65,0.67,38.49-13.75c12.81-14.44,12.81-15.82,22.26-18.58
			c9.43-2.75,16.19-8.94,17.53-32.33c1.35-15.85,14.85-7.59,15.52-34.42c0.67-26.83-1.34-19.95,4.04-30.28
			c5.4-10.33,1.36-15.83-1.35-26.83c-2.69-11.04,6.1-26.16-7.43-41.29c-8.09-9.62-4.72-10.34-6.07-23.38
			c-1.37-13.11-6.74-13.11-12.83-19.29c-4.72-5.5-2.69-22.02-23.61-33.72c-11.48-5.5-11.48-6.87-17.54-13.06
			c-6.09-6.19-18.91-10.3-29.69-10.3c0,0-16.88-26.86-51.3-18.58c-27.66-13.11-52.64-10.36-66.11,7.54
			c-12.81-5.52-24.98,11.04-24.98,11.04c-22.94-6.22-37.81,10.3-43.86,24.06c-25.66-4.12-41.16,24.76-36.44,42.66
			c0,0-15.52,9.63-12.15,24.11c-16.88,13.74-9.46,37.15-6.08,44.71C72.3,250.34,77.02,259.98,87.81,273.03z"/>
		<path class="st4" d="M218.93,404.55c-4.39,1.02-8.63,1.54-12.62,1.54c-21.09,0-30.2-14.41-32.18-18.11
			c-0.68,0.05-1.71,0.11-3.03,0.11l0,0c-8.85,0-30.38-2.6-40.33-26.52c-29.06-6.6-27.51-34.14-26.81-40.12
			c-8.22-2.81-14.69-8.79-18.29-16.97c-4.16-9.43-3.91-20.77,0.66-31.24c-11.07-13.54-14.88-23.55-5.34-39.51
			c-2.15-5.1-11.44-30.1,6.11-45.12c-2.49-13,8.9-21.96,12.11-24.18c-2.12-9.46,0.83-21.23,7.65-30.31
			c7.43-9.88,18.06-14.69,29.48-13.19c5.75-12.39,17.78-25.28,34.9-25.28c3,0,6.11,0.4,9.24,1.18c2.13-2.67,10.31-11.99,20.05-11.99
			c1.7,0,3.38,0.29,5,0.86c7.98-10.12,19.7-15.46,33.95-15.46c10.24,0,21.24,2.73,32.72,8.11c4.32-1.01,8.6-1.52,12.72-1.52
			c23.64,0,36.71,16.77,39.11,20.17c11.46,0.17,23.96,4.61,29.93,10.69c1.03,1.05,1.88,1.96,2.65,2.78
			c3.68,3.93,5.2,5.55,14.6,10.06c15.21,8.51,18.72,19.72,21.04,27.15c0.91,2.91,1.7,5.44,2.86,6.79c1.5,1.54,2.97,2.67,4.38,3.77
			c4.15,3.23,7.74,6.02,8.81,16.32c0.4,3.89,0.39,6.7,0.38,8.96c-0.02,5.29-0.03,7.27,5.36,13.68c9.4,10.53,8.46,20.91,7.63,30.07
			c-0.39,4.28-0.75,8.32,0.09,11.77c0.58,2.34,1.21,4.4,1.81,6.39c2.18,7.14,3.9,12.79-0.58,21.37c-0.6,1.15-1.11,2.09-1.54,2.88
			c-2.23,4.11-2.23,4.11-2.2,11.32c0.01,3.25,0.03,8.16-0.15,15.49c-0.4,15.94-5.25,20.03-9.53,23.65c-3.05,2.57-5.47,4.61-6,10.82
			c-1.37,23.74-8.37,30.56-18.46,33.5c-7.71,2.26-8.75,3.44-16.8,12.67c-1.4,1.6-3,3.43-4.87,5.55c-7.85,8.82-16.7,9.54-24.51,10.17
			c-5.27,0.42-10.25,0.83-14.16,3.75c-8.45,6.32-19.65,13.57-31.24,13.57c-6.4,0-12.46-2.25-18.01-6.69
			c-8.08,7.76-19.9,12.55-31.14,12.55C237.1,416.01,226.85,414,218.93,404.55z M276.25,400.73c5.4,4.59,11.05,6.82,17.27,6.82
			c10.85,0,21.59-6.98,29.74-13.07c4.49-3.35,9.82-3.79,15.47-4.25c7.7-0.62,15.65-1.27,22.82-9.32c1.87-2.1,3.46-3.93,4.85-5.53
			c8.12-9.3,9.58-10.98,18.01-13.44c9.3-2.72,15.33-8.88,16.62-31.19c0.62-7.32,3.82-10.02,6.91-12.63
			c4.05-3.41,8.24-6.95,8.61-21.71c0.18-7.29,0.16-12.18,0.15-15.41c-0.02-7.59-0.03-7.89,2.52-12.59c0.42-0.79,0.92-1.71,1.52-2.85
			c3.98-7.62,2.55-12.29,0.39-19.37c-0.59-1.93-1.26-4.12-1.86-6.54c-0.95-3.89-0.56-8.14-0.15-12.65c0.78-8.62,1.67-18.4-7-28.11
			c-6.03-7.17-6.02-9.93-6-15.41c0.01-2.2,0.02-4.93-0.37-8.68c-0.96-9.17-3.84-11.42-7.82-14.52c-1.41-1.1-3-2.34-4.69-4.06
			c-1.57-1.82-2.43-4.58-3.43-7.78c-2.33-7.45-5.53-17.65-19.76-25.62c-9.77-4.67-11.5-6.52-15.3-10.58
			c-0.76-0.81-1.6-1.71-2.61-2.74c-5.56-5.66-17.94-9.92-28.79-9.92h-0.7l-0.38-0.6c-0.12-0.2-12.58-19.56-37.37-19.56
			c-4.06,0-8.29,0.53-12.56,1.55l-0.43,0.11l-0.4-0.19c-11.28-5.35-22.07-8.06-32.05-8.06c-13.79,0-25.03,5.26-32.52,15.21l-0.6,0.8
			l-0.91-0.39c-1.58-0.68-3.23-1.02-4.92-1.02c-9.85,0-18.46,11.52-18.54,11.64l-0.52,0.7l-0.83-0.22c-3.2-0.87-6.36-1.31-9.4-1.31
			c-16.31,0-27.73,12.73-32.97,24.64l-0.4,0.91l-0.96-0.15c-10.81-1.74-20.96,2.67-28.02,12.06c-6.47,8.62-9.28,20.26-6.99,28.97
			l0.25,0.94l-0.82,0.51c-0.15,0.1-14.69,9.3-11.57,22.69l0.19,0.81l-0.63,0.52c-17.84,14.51-7.01,40.26-5.71,43.15l0.29,0.64
			l-0.36,0.6c-9.37,15.28-5.76,24.33,5.28,37.67l0.52,0.64l-0.34,0.76c-4.58,9.99-4.94,20.87-0.98,29.83
			c3.45,7.81,9.75,13.45,17.75,15.87l1.1,0.34l-0.21,1.15c-0.24,1.3-5.5,31.84,25.32,38.39l0.66,0.14l0.26,0.64
			c9.25,23.05,29.81,25.54,38.23,25.54c2.22,0,3.59-0.18,3.6-0.18l0.94-0.12l0.39,0.89c0.08,0.17,7.86,17.41,30.28,17.41
			c4.02,0,8.33-0.56,12.8-1.65l0.78-0.19l0.51,0.64c7.35,9.2,17.1,11.13,23.97,11.13c10.81,0,22.66-4.94,30.16-12.6l0.83-0.84
			L276.25,400.73z"/>
	</g>
</g>
<g class="st5">
	<g>
		<path class="st6" d="M211.02,97.15c-18.07-4.79-42.02,9.71-48.75,26.37c-0.55,1.37,0.89,0.83,1.35,0.12
			c5.87-9.35,12.59-15.62,23.02-19.51c7.5-2.82,15.42-2.39,23.08-4.18C210.43,99.8,212.25,97.49,211.02,97.15z"/>
		<path class="st7" d="M162.48,125.61L162.48,125.61c-0.54,0-1.01-0.24-1.29-0.66c-0.34-0.5-0.36-1.13-0.06-1.88
			c6.15-15.22,25.6-28.07,42.49-28.07c2.7,0,5.29,0.33,7.72,0.97c0.83,0.23,1.35,0.92,1.33,1.78c-0.04,1.29-1.52,3.17-2.69,3.41
			c-3.16,0.74-6.39,1.11-9.52,1.47c-4.66,0.53-9.06,1.04-13.38,2.66c-9.59,3.57-16.29,9.26-22.41,19.01
			C164.25,124.95,163.36,125.61,162.48,125.61z M203.62,97.46c-10.43,0-21.91,5.18-30.23,12.78c3.74-3.09,7.93-5.43,12.82-7.25
			c4.6-1.73,9.36-2.27,13.97-2.8c3.06-0.35,6.22-0.71,9.27-1.43c0.08-0.06,0.31-0.33,0.49-0.6
			C207.94,97.7,205.82,97.46,203.62,97.46z"/>
	</g>
	<g>
		<path class="st6" d="M126.19,185.42c-10.77,3.92-17.73,17.37-14.16,28.42c0.42,1.39,3.02-1.84,2.92-2.78
			c-1.02-9.92,1.45-18.98,10.75-23.99C126.07,186.88,127,185.11,126.19,185.42z"/>
		<path class="st7" d="M112.41,215.42L112.41,215.42c-0.74,0-1.34-0.46-1.57-1.22c-3.7-11.47,3.41-25.75,14.92-29.94l0.58-0.11
			c0.66,0,1.2,0.43,1.35,1.07c0.24,1.01-0.75,2.6-1.45,2.96c-7.8,4.2-11.2,11.86-10.08,22.76c0.14,1.25-1.25,2.86-1.53,3.18
			C113.84,215,113.12,215.42,112.41,215.42z M115.45,196.33c-2.8,4.88-3.9,10.73-2.56,16.04c0.38-0.46,0.77-1.04,0.83-1.33
			C113.12,205.35,113.71,200.43,115.45,196.33z"/>
	</g>
	<g>
		<path class="st6" d="M204.34,162.65c-2.54,0.64-5.16-0.31-7.72-0.05c-2.61,0.26-5.22,1.86-7.29,3.34
			c-4.05,2.87-7.37,7.36-8.16,12.33c-0.41,2.31,2.48-0.33,2.78-1.26c1.61-5.1,4.89-8.34,9.77-10.4c3.22-1.36,6.92,0.12,9.98-1.74
			C204.1,164.63,205.59,162.34,204.34,162.65z"/>
		<path class="st7" d="M181.5,180.43L181.5,180.43c-0.48,0-0.91-0.19-1.2-0.55c-0.55-0.65-0.39-1.53-0.34-1.83
			c0.78-4.92,4.01-9.83,8.66-13.12c2.11-1.5,4.92-3.26,7.88-3.55c1.17-0.12,2.39-0.01,3.58,0.11c1.4,0.14,2.87,0.24,3.96-0.03
			l0.51-0.07c0.71,0,1.28,0.42,1.46,1.08c0.35,1.25-1.11,3.12-1.67,3.46c-1.93,1.18-3.98,1.21-5.96,1.24
			c-1.5,0.02-2.92,0.05-4.18,0.58c-4.75,2.01-7.63,5.07-9.07,9.64C184.79,178.4,182.91,180.43,181.5,180.43z M197.59,163.79
			c-0.28,0-0.56,0.01-0.85,0.04c-2.39,0.24-4.83,1.79-6.7,3.12c-0.86,0.61-1.67,1.28-2.41,2c1.55-1.39,3.42-2.55,5.61-3.47
			c1.71-0.72,3.43-0.75,5.1-0.78c1.5-0.02,2.92-0.05,4.17-0.6c-0.86-0.01-1.78-0.07-2.67-0.16
			C199.08,163.87,198.33,163.79,197.59,163.79z"/>
	</g>
	<g>
		<path class="st6" d="M116.39,270.15c-6.84-9.84-10.34-19.89-2.62-30.44c0.46-0.64,0.18-1.44-0.5-0.64
			c-3.64,4.28-6.32,8.27-6.84,13.97c-0.64,7.19,2.78,14.87,7.79,19.83C114.93,273.57,116.91,270.9,116.39,270.15z"/>
		<path class="st7" d="M114.51,274.22L114.51,274.22c-0.44,0-0.85-0.17-1.16-0.47c-5.59-5.53-8.79-13.7-8.16-20.82
			c0.54-5.84,3.12-9.94,7.13-14.65c0.44-0.51,0.93-0.77,1.44-0.77h0.76l0.53,0.79c0.32,0.62,0.21,1.46-0.28,2.14
			c-6.31,8.63-5.51,17.29,2.64,29.01c0.31,0.46,0.54,1.26-0.13,2.53C117.16,272.21,116.06,274.22,114.51,274.22z M108.3,249.71
			c-0.31,1.09-0.54,2.23-0.65,3.45c-0.55,6.21,2.17,13.35,6.96,18.37c0.24-0.26,0.49-0.65,0.6-0.91
			C111.17,264.75,107.32,257.58,108.3,249.71z"/>
	</g>
	<g>
		<path class="st6" d="M180.22,263.27c-3.32-2.79-6.95-5.71-9.23-9.45c-2.88-4.75-0.29-9.55,2.14-13.7c0.66-1.12-0.4-1.13-0.97-0.34
			c-3.13,4.4-5.37,7.46-5.3,13.11c0.1,6.36,6.08,10.92,11.06,13.64C179.02,267.12,181.21,264.09,180.22,263.27z"/>
		<path class="st7" d="M178.23,267.85L178.23,267.85c-0.32,0-0.62-0.07-0.89-0.22c-7.58-4.14-11.62-9.22-11.71-14.71
			c-0.08-5.97,2.33-9.36,5.39-13.66c1.11-1.56,2.75-1.55,3.35-0.51c0.23,0.4,0.38,1.06-0.17,2c-2.61,4.44-4.56,8.45-2.15,12.43
			c2.03,3.33,5.24,6.02,8.35,8.62l0.62,0.52c0.33,0.27,1.04,1.09,0.49,2.62C181.08,266.12,179.75,267.85,178.23,267.85z
			 M168.5,249.04c-0.28,1.16-0.42,2.41-0.4,3.85c0.09,5.64,5.53,9.86,10.17,12.44c0.34-0.23,0.82-0.89,0.94-1.29l-0.4-0.34
			c-3.26-2.73-6.63-5.55-8.87-9.23C168.84,252.64,168.45,250.81,168.5,249.04z"/>
	</g>
	<g>
		<path class="st6" d="M238.11,248.55c-4.11-3.14-7.69-6.59-9.51-11.55c-1.15-3.21-0.59-6.61,0.72-9.61
			c0.6-1.45,0.84-2.36,0.53-3.86c-0.11-0.52-1.04,0.64-1.08,0.9c-0.31,2.64-2.45,4.87-3.09,7.51c-0.5,2.2-0.7,4.52-0.21,6.74
			c1.26,5.94,4.85,10.58,10.41,13.02C237,252.17,239.11,249.33,238.11,248.55z"/>
		<path class="st7" d="M236.15,252.98L236.15,252.98c-0.26,0-0.52-0.05-0.75-0.15c-5.83-2.55-9.78-7.48-11.14-13.9
			c-0.47-2.14-0.41-4.52,0.21-7.27c0.33-1.38,0.98-2.59,1.62-3.76c0.68-1.24,1.31-2.42,1.45-3.62c0.08-0.64,1.07-2.12,2.17-2.12
			h0.99l0.34,1.1c0.38,1.77,0.1,2.93-0.59,4.59c-0.96,2.21-1.85,5.49-0.7,8.73c1.82,4.95,5.62,8.33,9.1,10.99
			c0.72,0.57,0.93,1.51,0.57,2.54C239.01,251.32,237.65,252.98,236.15,252.98z M226.76,232.79c-0.42,2.13-0.45,3.98-0.09,5.63
			c1.18,5.55,4.55,9.82,9.5,12.07c0.32-0.18,0.78-0.77,0.92-1.16c-3.68-2.84-7.66-6.48-9.65-11.91
			C226.93,235.96,226.7,234.41,226.76,232.79z"/>
	</g>
	<g>
		<path class="st6" d="M245.87,182.85c-4.98-3.82-10.08-3.59-15.31-0.53c-2.95,1.69-6.05,4.42-6.07,8.06
			c-0.02,0.9,1.26-0.6,1.36-0.94c0.85-3.65,6.12-5.54,9.28-5.7c2.91-0.17,5.73,1.44,8.37,2.41
			C244.68,186.61,246.92,183.68,245.87,182.85z"/>
		<path class="st7" d="M224.65,191.9h-0.52l-0.46-0.4c-0.19-0.2-0.43-0.56-0.42-1.13c0.02-3.41,2.4-6.65,6.69-9.11
			c5.95-3.49,11.59-3.28,16.67,0.62c0.73,0.57,0.94,1.53,0.58,2.56c-0.43,1.26-1.87,3-3.43,3l0,0c-0.25,0-0.48-0.04-0.7-0.13
			c-0.63-0.23-1.27-0.5-1.92-0.78c-1.85-0.77-3.76-1.57-5.59-1.57l-0.35,0.01c-2.92,0.15-7.5,1.93-8.15,4.75
			C226.91,190.21,225.85,191.9,224.65,191.9z M235.55,182.5c2.33,0,4.48,0.9,6.55,1.77c0.62,0.26,1.23,0.51,1.83,0.74
			c0.15-0.11,0.79-0.9,0.94-1.36c-4.12-3.05-8.39-3.21-13.27-0.49c1.21-0.37,2.42-0.58,3.47-0.64
			C235.23,182.51,235.39,182.5,235.55,182.5z"/>
	</g>
	<g>
		<path class="st6" d="M250.78,132.78c-1.64-5.31-8.95-6.52-13.69-6.28c-4.95,0.23-9.59,2.85-12.75,6.58
			c-0.68,0.81-0.7,2.34,0.49,1.14c3.34-3.34,7.94-4.09,12.49-3.71c4.8,0.37,7.07,3.38,10.89,5.43
			C249.47,136.62,251.1,133.8,250.78,132.78z"/>
		<path class="st7" d="M248.62,137.29L248.62,137.29c-0.35,0-0.68-0.09-0.98-0.25c-1.29-0.69-2.38-1.46-3.44-2.21
			c-2.17-1.53-4.03-2.85-6.97-3.08c-0.67-0.05-1.33-0.09-1.98-0.09c-4.04,0-7.25,1.16-9.54,3.44c-0.34,0.34-0.87,0.81-1.57,0.81
			c-0.58,0-1.09-0.33-1.33-0.85c-0.4-0.87-0.01-2.04,0.59-2.76c3.58-4.23,8.55-6.79,13.64-7.02c0.39-0.02,0.79-0.03,1.21-0.03
			c2.7,0,11.66,0.52,13.72,7.17c0.35,1.1-0.29,2.52-0.93,3.4C250.32,136.76,249.47,137.29,248.62,137.29z M235.24,129.19
			c0.73,0,1.46,0.03,2.18,0.1c3.61,0.28,5.94,1.93,8.19,3.52c0.95,0.68,1.94,1.37,3.02,1.97c0.38-0.27,0.97-1.28,0.94-1.7
			c-1.22-3.94-6.67-5.37-11.35-5.37c-0.37,0-0.74,0.01-1.08,0.03c-2.37,0.11-4.77,0.84-6.96,2.08
			C231.73,129.4,233.42,129.19,235.24,129.19z"/>
	</g>
	<g>
		<path class="st6" d="M293.85,197.42c-0.76,0.07-2.5,2.29-1.36,2.53c9.45,2.08,14.57,12.81,15.29,21.72
			c0.15,1.72,2.54-1.09,2.66-1.88C311.81,210.16,305.16,196.32,293.85,197.42z"/>
		<path class="st7" d="M308.17,223.45L308.17,223.45c-0.74,0-1.53-0.52-1.62-1.68c-0.7-8.57-5.48-18.67-14.33-20.62
			c-0.85-0.18-1.39-0.89-1.34-1.76c0.07-1.22,1.55-3.08,2.85-3.2c4.71-0.46,9.03,1.41,12.42,5.33c4.18,4.82,6.39,12.24,5.49,18.45
			C311.51,220.95,309.73,223.45,308.17,223.45z M293.7,198.99c8.97,2.55,14.02,12.35,15.15,21.14c0.18-0.24,0.33-0.46,0.38-0.6
			c0.76-5.37-1.26-12.15-4.94-16.39c-1.95-2.25-5.46-4.96-10.32-4.49C293.94,198.69,293.82,198.83,293.7,198.99z"/>
	</g>
	<g>
		<path class="st6" d="M315.45,156.79c-0.59,0.09-1.96,2.13-1.04,2.27c9.91,1.11,14.37,9.48,17.85,17.76
			c0.48,1.12,2.27-1.46,2.24-2.12C333.86,164.68,326.12,155.26,315.45,156.79z"/>
		<path class="st7" d="M332.61,178.33L332.61,178.33c-0.66,0-1.21-0.39-1.49-1.03c-3.23-7.68-7.46-15.96-16.85-17.01
			c-0.86-0.13-1.4-0.77-1.4-1.59c-0.01-1.13,1.23-2.94,2.39-3.12c11.74-1.68,19.82,8.87,20.47,19.05c0.06,1.04-1,2.39-1.41,2.82
			C333.75,178.04,333.19,178.33,332.61,178.33z M315.8,158.01c9.37,1.64,13.81,9.55,17.13,17.23c0.17-0.25,0.31-0.5,0.35-0.65
			c-0.58-8.68-7.37-17.92-17.45-16.61C315.82,157.99,315.81,158,315.8,158.01z"/>
	</g>
	<g>
		<path class="st6" d="M357.76,125.71c-1.59-1.62-3.36-3.02-5.47-3.89c-2.54-1.02-5.66,0.04-8.26,0.04c-0.73,0-2.27,2.06-1.27,2.31
			c1.96,0.55,3.98,0.66,5.98,0.93c2.16,0.3,3.84,2.38,5.34,3.8c3.09,2.95,5.49,6.59,7.49,10.34c0.71,1.33,2.83-1.75,2.74-2.62
			C363.75,132.18,360.85,128.81,357.76,125.71z"/>
		<path class="st7" d="M362.06,140.82L362.06,140.82c-0.66,0-1.23-0.36-1.56-0.98c-2.27-4.26-4.64-7.54-7.25-10.03
			c-0.27-0.25-0.54-0.53-0.83-0.81c-1.15-1.15-2.46-2.47-3.83-2.66c-0.52-0.07-1.03-0.13-1.55-0.19c-1.5-0.17-3.06-0.35-4.59-0.78
			c-0.83-0.21-1.33-0.96-1.21-1.86c0.14-1.11,1.48-2.87,2.81-2.87c0.78,0,1.64-0.11,2.56-0.23c2.14-0.27,4.49-0.4,6.16,0.27
			c2.04,0.84,3.97,2.2,5.89,4.17c2.99,3,6.25,6.64,6.9,11.62c0.1,1.08-0.83,2.52-1.49,3.24
			C363.4,140.45,362.72,140.82,362.06,140.82z M344.09,123.24c1.05,0.22,2.11,0.34,3.22,0.47c0.53,0.06,1.07,0.12,1.61,0.19
			c2.2,0.3,3.89,2,5.25,3.36c0.27,0.27,0.52,0.53,0.77,0.76c2.66,2.55,5.07,5.81,7.36,9.98c0.36-0.43,0.75-1.07,0.79-1.36
			c-0.54-4.06-3.49-7.32-6.2-10.05c-1.69-1.73-3.35-2.91-5.07-3.62c-1.18-0.48-3.09-0.34-4.92-0.11c-0.89,0.11-1.8,0.23-2.68,0.25
			C344.18,123.14,344.14,123.18,344.09,123.24z"/>
	</g>
	<g>
		<path class="st6" d="M358.95,227.22c-0.75-0.4-2.14,1.54-1.52,2.11c10.33,9.35,6.63,26.39-2.03,35.2
			c-0.89,0.92-1.55,3.78,0.46,2.29C366.18,259.04,373.68,234.8,358.95,227.22z"/>
		<path class="st7" d="M354.96,268.47L354.96,268.47c-0.65,0-1.23-0.38-1.48-0.99c-0.49-1.15,0.29-3.03,1.04-3.81
			c5.03-5.12,8.15-13,7.94-20.09c-0.16-5.41-2.18-10.02-5.85-13.35c-0.58-0.52-0.72-1.35-0.38-2.23c0.39-1.01,1.4-2.08,2.5-2.08
			h0.31l0.5,0.2c5.2,2.68,8.26,7.53,8.81,14.01c0.83,9.75-4.43,22.16-11.73,27.66C355.99,268.26,355.47,268.47,354.96,268.47z
			 M358.6,228.73c3.97,3.75,6.15,8.85,6.32,14.79c0.15,5.1-1.2,10.43-3.69,15.09c3.22-5.53,5.15-12.49,4.65-18.26
			c-0.32-3.82-1.84-8.94-7.16-11.86C358.7,228.55,358.65,228.64,358.6,228.73z"/>
	</g>
	<g>
		<path class="st6" d="M403.94,216.7c-0.5-0.77-1.92,1.14-1.67,1.8c1.76,4.26,3.86,8.34,5.22,12.72c2.4,7.58-2.34,14.2-6.3,20.17
			c-0.61,0.93-0.81,3.29,0.79,1.8c4.63-4.35,7.49-9.82,9.1-15.93C413.14,229.45,407.96,222.88,403.94,216.7z"/>
		<path class="st7" d="M401.15,254.9L401.15,254.9c-0.59,0-1.11-0.31-1.39-0.83c-0.55-1.02-0.08-2.6,0.41-3.35l0.53-0.8
			c3.8-5.72,7.74-11.64,5.62-18.32c-0.9-2.89-2.17-5.73-3.39-8.47c-0.61-1.37-1.22-2.75-1.8-4.15c-0.36-0.92,0.16-1.88,0.5-2.38
			c0.33-0.49,1.04-1.3,2-1.3c0.55,0,1.04,0.27,1.34,0.74l1.24,1.88c3.78,5.68,8.06,12.12,6.06,19.68
			c-1.77,6.74-4.95,12.29-9.44,16.51C402.45,254.44,401.87,254.9,401.15,254.9z M403.53,218.31c0.53,1.26,1.09,2.54,1.66,3.81
			c1.25,2.8,2.54,5.71,3.49,8.73c2,6.32-0.54,11.92-3.67,16.96c2.17-3.11,3.8-6.75,4.88-10.86c1.72-6.49-2.07-12.18-5.73-17.68
			L403.53,218.31z"/>
	</g>
	<g>
		<path class="st6" d="M308.4,264.92c-0.4-1.01-2.36,1.43-2.12,2.32c1.18,4.01,1.5,8.27-0.34,12.16c-1.98,4.23-6.88,5.98-10.96,7.47
			c-0.74,0.28-2.91,3.49-1.56,3.37C305.65,289.12,313.04,275.96,308.4,264.92z"/>
		<path class="st7" d="M293.35,291.49c-0.8,0-1.43-0.51-1.57-1.28c-0.25-1.43,1.69-4.09,2.77-4.48c4.09-1.49,8.53-3.13,10.27-6.84
			c1.49-3.15,1.57-6.85,0.27-11.3c-0.29-1.1,0.51-2.31,0.88-2.78c0.47-0.62,1.23-1.36,2.12-1.36c0.65,0,1.21,0.39,1.46,1.02
			c2.38,5.65,1.86,12.27-1.38,17.69c-3.22,5.36-8.55,8.76-14.63,9.32L293.35,291.49z M303.6,284.09c-2.42,1.83-5.42,2.94-8.03,3.89
			c-0.19,0.12-0.48,0.46-0.75,0.84C298.18,288.19,301.22,286.54,303.6,284.09z M307.72,266.61c-0.12,0.19-0.21,0.38-0.23,0.5
			c0.69,2.28,1.01,4.48,0.98,6.55C308.71,271.28,308.46,268.88,307.72,266.61z"/>
	</g>
	<g>
		<path class="st6" d="M219.02,303.98c-9.54-1.51-23.12-1.02-23.51-13.94c-0.06-1.32-2.08,0.95-2.12,1.77
			c-0.65,13.35,12.68,17.01,23.8,15.59C218.14,307.26,220.54,304.24,219.02,303.98z"/>
		<path class="st7" d="M212.71,308.92L212.71,308.92c-7.17,0-13.1-2.07-16.69-5.85c-2.78-2.92-4.09-6.73-3.86-11.32
			c0.06-1.16,1.71-3.35,3.08-3.35c0.69,0,1.46,0.5,1.51,1.58c0.3,10.04,9.38,11.13,18.17,12.2c1.49,0.18,2.94,0.35,4.3,0.57
			c0.95,0.17,1.54,0.87,1.53,1.79c-0.01,1.5-1.97,3.86-3.38,4.07C215.8,308.82,214.24,308.92,212.71,308.92z M194.59,292.92
			c0.03,3.38,1.1,6.24,3.21,8.46c3.08,3.23,8.51,5.08,14.91,5.08l0,0c1.43,0,2.89-0.09,4.32-0.27c0.19-0.11,0.66-0.65,0.97-1.11
			c-1.09-0.16-2.23-0.29-3.39-0.43C206.46,303.65,196.48,302.44,194.59,292.92z"/>
	</g>
	<g>
		<path class="st6" d="M165.43,320.64c-7.03-7.04-17.53-16.37-11.25-27.31c0.57-1.04-0.37-1.09-0.9-0.33
			c-7.1,10.51-1.26,25.57,9.89,30.82C164.31,324.39,166.32,321.53,165.43,320.64z"/>
		<path class="st7" d="M163.49,325.13L163.49,325.13c-0.31,0-0.6-0.07-0.87-0.2c-6.15-2.89-10.96-8.72-12.85-15.57
			c-1.69-6.12-0.8-12.18,2.49-17.05c0.86-1.23,2.53-1.34,3.13-0.33c0.22,0.38,0.39,1.03-0.12,1.95c-5.44,9.49,2.98,17.84,9.75,24.56
			l1.29,1.29c0.65,0.65,0.76,1.65,0.31,2.75C166.07,323.81,164.83,325.13,163.49,325.13z M151.4,303.43
			c0.01,1.73,0.26,3.5,0.75,5.27c1.68,6.1,5.92,11.29,11.37,13.92c0.34-0.2,0.82-0.87,0.9-1.26l-1.14-1.14
			C158.66,315.66,152.93,309.97,151.4,303.43z"/>
	</g>
	<g>
		<path class="st6" d="M172.67,353.5c-9.91,3.35-18.63,0.35-26.73-5.72c-7.92-5.92-10.84-13.56-11.12-23.15
			c-0.03-0.85-1.31,0.55-1.35,0.97c-1.49,11.15,0.91,18.94,9.19,26.77c8.14,7.66,19.19,10.54,28.99,4.66
			C172.35,356.61,174.5,352.88,172.67,353.5z"/>
		<path class="st7" d="M160.59,361.39c-6.54,0-13.21-2.89-18.78-8.13c-8.38-7.92-11.15-15.98-9.57-27.83
			c0.09-0.82,1.3-2.31,2.39-2.31c0.68,0,1.38,0.49,1.42,1.45c0.3,10.09,3.57,16.94,10.63,22.22c8.88,6.66,17.09,8.42,25.6,5.54
			c1.1-0.37,2.03,0.1,2.28,1.02c0.41,1.5-1.45,4.24-2.28,4.74C168.63,360.28,164.7,361.39,160.59,361.39z M134.26,331.13
			c-0.07,8.15,2.74,14.18,9.25,20.34c8.26,7.77,18.95,9.63,27.5,4.5c0.13-0.12,0.37-0.47,0.59-0.85c-8.73,2.5-17.35,0.45-26.41-6.34
			C139.22,344.29,135.66,338.59,134.26,331.13z"/>
	</g>
	<g>
		<path class="st6" d="M254.81,353.03c-7.26,2.81-13.81,3.92-21.27,1.13c-5.23-1.96-9.35-7.04-14.07-9.96
			c-0.74-0.46-2.28,1.69-1.59,2.22c5.06,3.82,9.41,10.61,15.73,12.49c7.28,2.2,13.59,0.91,20.23-2.57
			C254.62,355.93,256.39,352.42,254.81,353.03z"/>
		<path class="st7" d="M240.67,361.22L240.67,361.22c-2.46,0-4.88-0.37-7.41-1.13c-4.42-1.32-7.81-4.74-11.1-8.06
			c-1.71-1.72-3.32-3.35-5.01-4.63c-0.63-0.48-0.83-1.3-0.53-2.18c0.33-0.96,1.36-2.32,2.63-2.32h0.35l0.53,0.25
			c1.95,1.21,3.8,2.76,5.58,4.27c2.61,2.2,5.31,4.48,8.27,5.59c2.76,1.03,5.46,1.53,8.25,1.53c3.63,0,7.37-0.82,12.14-2.67
			c1.08-0.41,2.04,0.09,2.26,1.04c0.33,1.39-1.22,4.01-2.23,4.53C249.47,360.02,245.1,361.22,240.67,361.22z M219.06,345.77
			c1.67,1.33,3.28,2.95,4.84,4.52c3.07,3.09,6.25,6.3,10.06,7.44c2.3,0.69,4.49,1.03,6.7,1.03l0,0c4.02,0,8.02-1.12,12.6-3.51
			c0.09-0.07,0.22-0.26,0.35-0.48c-7.97,2.89-13.96,3-20.5,0.55c-3.36-1.26-6.23-3.68-9-6.01c-1.67-1.41-3.25-2.74-4.9-3.82
			C219.17,345.57,219.11,345.67,219.06,345.77z"/>
	</g>
	<g>
		<path class="st6" d="M253.61,380.29c-16.45,5.95-32.69,12.36-46.44-2.58c-0.6-0.64-2.47,1.75-1.8,2.55
			c12.79,16.02,31.1,11.48,47.29,3.19C253.4,383.08,255.16,379.72,253.61,380.29z"/>
		<path class="st7" d="M227.07,392.22C227.07,392.22,227.07,392.22,227.07,392.22c-9.11,0-16.74-3.76-22.66-11.18
			c-0.29-0.34-0.72-1.16-0.1-2.5c0.35-0.75,1.34-2.16,2.61-2.16c0.44,0,0.85,0.18,1.15,0.49c5.45,5.93,11.75,8.8,19.26,8.8
			c7.85,0,16-2.96,24.62-6.08l1.24-0.45c1.05-0.38,2,0.11,2.23,1.04c0.32,1.34-1.21,3.88-2.19,4.38
			C243.15,389.71,234.59,392.22,227.07,392.22z M206.49,379.69c10.19,12.55,24.5,13.47,45.61,2.66c0.05-0.04,0.12-0.15,0.21-0.29
			c-8.3,3.01-16.87,6.06-24.99,6.06c-7.98,0-14.7-2.94-20.51-8.99C206.68,379.32,206.55,379.53,206.49,379.69z"/>
	</g>
	<g>
		<path class="st6" d="M335.35,330.82c-3.19,9.54-11.09,12.16-20.19,13.77c-1.09,0.22-3.15,3.91-1.77,3.8
			c11.51-0.7,20.86-7.15,23.98-18.49C337.82,328.32,335.58,330.09,335.35,330.82z"/>
		<path class="st7" d="M313.34,349.62c-0.87,0-1.54-0.61-1.63-1.49c-0.15-1.5,1.65-4.44,3.21-4.75c9.8-1.74,16.43-4.5,19.26-12.96
			c0.27-0.89,1.84-2.4,3.01-2.4h0.61l0.55,0.57c0.32,0.42,0.39,0.97,0.2,1.64c-3.12,11.37-12.5,18.62-25.09,19.39L313.34,349.62z
			 M328.79,341.33c-4.02,2.57-8.84,3.67-13.41,4.48c-0.18,0.12-0.58,0.71-0.88,1.26C320.13,346.51,325.01,344.51,328.79,341.33z"/>
	</g>
	<g>
		<path class="st6" d="M371.22,333.25c-0.74,13.92-17.12,15.76-27.69,18.41c-0.91,0.23-3.47,3.61-1.77,3.87
			c13.19,2.03,32.51-9.64,31.76-24.2C373.46,329.9,371.28,332.4,371.22,333.25z"/>
		<path class="st7" d="M344.88,357L344.88,357c-1.14,0-2.25-0.08-3.3-0.25c-0.93-0.14-1.57-0.83-1.62-1.75
			c-0.08-1.62,1.96-4.2,3.27-4.53c1.28-0.32,2.64-0.63,4.05-0.95c10.36-2.35,22.11-5.01,22.71-16.33c0.08-1.09,1.78-3.52,3.24-3.52
			c0.7,0,1.47,0.5,1.53,1.61c0.27,5.32-1.91,10.58-6.31,15.21C362.48,352.77,353.01,357,344.88,357z M342.61,354.4
			c7.8,0.89,17.94-3.19,24.05-9.61c0.11-0.12,0.22-0.24,0.33-0.36c-5.11,4.3-12.86,6.06-19.17,7.49c-1.39,0.32-2.73,0.62-3.99,0.94
			C343.58,353.01,342.94,353.81,342.61,354.4z"/>
	</g>
</g>
<g>
	<g>
		<g>
			<g>
				<path class="st8" d="M242.7,214.87c-11.87,34.62-42.57,55.45-68.57,46.54c-26.01-8.91-37.47-44.21-25.6-78.82
					c11.87-34.62,42.58-55.46,68.57-46.54C243.1,144.97,254.56,180.25,242.7,214.87z"/>
				<path class="st9" d="M186.57,265.27c-4.47,0-8.86-0.73-13.03-2.16c-26.91-9.23-38.89-45.61-26.72-81.12
					c10.06-29.34,33.84-49.82,57.83-49.82c4.47,0,8.87,0.72,13.04,2.15c26.91,9.23,38.89,45.61,26.72,81.11
					C234.34,244.79,210.57,265.27,186.57,265.27z M204.64,135.79c-22.47,0-44.85,19.49-54.41,47.37
					c-11.53,33.63-0.56,67.96,24.47,76.54c3.8,1.3,7.8,1.97,11.87,1.97c22.49,0,44.85-19.49,54.41-47.38
					c11.53-33.62,0.55-67.95-24.47-76.53C212.71,136.45,208.72,135.79,204.64,135.79z"/>
			</g>
			<g>
				<g>
					<path class="st4" d="M219.73,189.35c-7.72,18.17-24.78,28.33-38.09,22.66c-13.33-5.65-17.87-24.97-10.15-43.16
						c7.71-18.17,24.77-28.31,38.09-22.65C222.9,151.86,227.45,171.18,219.73,189.35z"/>
				</g>
				<g>
					<path class="st9" d="M208.28,186c-4.06,9.55-13.01,14.88-20.01,11.91c-7-2.98-9.38-13.13-5.33-22.68
						c4.05-9.54,13.02-14.87,20.02-11.9C209.95,166.31,212.33,176.45,208.28,186z"/>
				</g>
				<g>
					<path class="st8" d="M199.94,169.21c-3.45,4.73-9.04,6.51-12.52,3.99c-3.46-2.52-3.48-8.4-0.04-13.12
						c3.45-4.73,9.04-6.51,12.51-3.99C203.36,158.61,203.37,164.48,199.94,169.21z"/>
				</g>
			</g>
			<g>
				<path class="st0" d="M183.45,253.84c-25.09-8.56-36.16-42.42-24.7-75.64c5.31-15.41,14.62-28.7,25.5-36.88
					c-14.48,7.35-27.37,22.91-34.03,42.22c-11.45,33.22-0.56,67.41,24.54,75.98c13.44,4.57,28.35,0.63,40.91-8.84
					C205.24,255.98,193.95,257.41,183.45,253.84z"/>
			</g>
		</g>
		<g>
			<path class="st10" d="M147.21,194.68c-6.26,35.61,8.3,58.66,27.55,64.84c26.12,8.36,48.73-11.45,60.04-31.46
				c0,0-25.4-21.55-41.14-26.71C175.93,195.57,147.21,194.68,147.21,194.68z"/>
		</g>
		<g>
			<path class="st9" d="M233.7,231.52c-0.65-0.89-1.54-1.92-2.41-2.86c-0.89-0.95-1.82-1.88-2.79-2.78c-1.92-1.8-3.96-3.5-6.09-5.11
				c-4.25-3.21-8.82-6.06-13.57-8.58c-9.5-5.04-19.74-8.8-30.23-11.59c-10.51-2.77-21.29-4.56-32.15-5.59
				c-10.87-1.04-21.82-1.33-32.77-1.05c10.92-0.73,21.9-0.9,32.87-0.31c10.95,0.59,21.9,1.94,32.69,4.32
				c10.77,2.37,21.37,5.78,31.43,10.58c5.02,2.41,9.89,5.17,14.51,8.37c2.31,1.61,4.55,3.31,6.7,5.16c1.08,0.93,2.13,1.89,3.16,2.9
				c1.04,1.04,2,2.02,3.01,3.29L233.7,231.52z"/>
		</g>
	</g>
	<g>
		<g>
			<g>
				<path class="st8" d="M249.14,215.79c12.55,36.57,45,58.6,72.47,49.17c27.48-9.42,39.59-46.71,27.06-83.3
					c-12.54-36.6-44.99-58.6-72.47-49.18C248.71,141.9,236.6,179.21,249.14,215.79z"/>
				<path class="st9" d="M308.45,268.95L308.45,268.95c-25.31,0-50.41-21.63-61.02-52.58c-12.85-37.46-0.21-75.87,28.17-85.59
					c4.41-1.51,9.04-2.28,13.75-2.28c25.31,0,50.41,21.63,61.02,52.58c12.84,37.47,0.21,75.87-28.17,85.6
					C317.8,268.19,313.17,268.95,308.45,268.95z M289.35,132.11c-4.32,0-8.55,0.71-12.59,2.08c-26.49,9.09-38.12,45.42-25.92,81.01
					c10.12,29.52,33.81,50.14,57.61,50.14l0,0c4.31,0,8.55-0.7,12.58-2.08c26.5-9.09,38.12-45.43,25.93-81.01
					C336.84,152.73,313.15,132.11,289.35,132.11z"/>
			</g>
			<g>
				<g>
					<path class="st4" d="M273.41,188.82c8.15,19.21,26.17,29.93,40.25,23.95c14.08-5.97,18.88-26.39,10.73-45.6
						c-8.15-19.21-26.19-29.92-40.27-23.95C270.05,149.2,265.25,169.62,273.41,188.82z"/>
				</g>
				<g>
					<path class="st9" d="M285.51,185.27c4.28,10.09,13.74,15.72,21.15,12.59c7.39-3.15,9.92-13.86,5.63-23.96
						c-4.28-10.08-13.75-15.72-21.15-12.57C283.74,164.45,281.23,175.18,285.51,185.27z"/>
				</g>
				<g>
					<path class="st8" d="M294.33,167.53c3.64,5,9.55,6.89,13.2,4.22c3.67-2.66,3.69-8.87,0.05-13.87c-3.63-5-9.55-6.89-13.21-4.21
						C290.71,156.32,290.69,162.54,294.33,167.53z"/>
				</g>
			</g>
			<g>
				<path class="st0" d="M311.75,256.97c26.52-9.04,38.2-44.83,26.1-79.93c-5.61-16.3-15.45-30.34-26.94-38.99
					c15.31,7.78,28.92,24.22,35.96,44.63c12.11,35.1,0.58,71.25-25.93,80.29c-14.21,4.84-29.96,0.66-43.24-9.34
					C288.72,259.24,300.65,260.76,311.75,256.97z"/>
			</g>
		</g>
		<g>
			<path class="st10" d="M350.05,194.45c6.61,37.64-8.77,62.01-29.11,68.53c-27.61,8.84-51.5-12.09-63.45-33.25
				c0,0,26.84-22.77,43.47-28.21C319.7,195.4,350.05,194.45,350.05,194.45z"/>
		</g>
		<g>
			<path class="st9" d="M254.17,230.07c1.07-1.34,2.06-2.39,3.15-3.47c1.08-1.07,2.19-2.09,3.33-3.06c2.27-1.95,4.64-3.75,7.07-5.46
				c4.87-3.38,10.02-6.3,15.31-8.85c10.61-5.09,21.82-8.69,33.18-11.21c11.39-2.52,22.96-3.95,34.54-4.59
				c11.58-0.65,23.19-0.48,34.73,0.27c-11.56-0.29-23.15-0.01-34.63,1.08c-11.48,1.09-22.88,2.97-33.99,5.87
				c-11.11,2.93-21.93,6.9-32,12.22c-5.02,2.66-9.86,5.67-14.36,9.06c-2.25,1.7-4.41,3.49-6.46,5.4c-1.02,0.95-2.01,1.93-2.95,2.93
				c-0.92,1-1.88,2.09-2.57,3.05L254.17,230.07z"/>
		</g>
	</g>
</g>
<g>
	<g>
		<path class="st9" d="M270.57,107.25c1.67-0.52,3.12-0.87,4.64-1.23c1.5-0.34,3-0.64,4.51-0.9c3-0.53,6.02-0.91,9.05-1.16
			c6.05-0.49,12.16-0.42,18.2,0.32c6.04,0.74,12.03,2.17,17.7,4.4c5.68,2.22,11.04,5.26,15.78,9.01c4.76,3.74,8.89,8.16,12.35,12.98
			c3.47,4.82,6.26,10.03,8.53,15.39c4.52,10.78,6.96,22.16,8.29,33.53c-2.36-11.21-5.84-22.21-11.14-32.16
			c-2.65-4.97-5.78-9.65-9.4-13.83c-3.63-4.17-7.77-7.84-12.32-10.79c-9.11-5.93-19.81-8.8-30.54-9.09
			c-5.39-0.15-10.78,0.28-16.09,1.22c-2.65,0.46-5.29,1.05-7.88,1.75c-1.29,0.36-2.57,0.74-3.82,1.15c-1.23,0.4-2.55,0.87-3.57,1.29
			L270.57,107.25z"/>
	</g>
	<g>
		<path class="st9" d="M231.13,119.14c-1.02-0.43-2.33-0.9-3.56-1.29c-1.26-0.42-2.55-0.79-3.84-1.15
			c-2.58-0.71-5.21-1.29-7.88-1.75c-5.3-0.94-10.7-1.37-16.08-1.22c-10.74,0.29-21.44,3.16-30.55,9.09
			c-4.55,2.95-8.69,6.61-12.32,10.79c-3.63,4.17-6.75,8.86-9.4,13.83c-5.32,9.95-8.78,20.95-11.14,32.16
			c1.32-11.37,3.76-22.75,8.29-33.53c2.27-5.37,5.07-10.57,8.53-15.39c3.46-4.82,7.6-9.24,12.35-12.98
			c4.74-3.75,10.1-6.79,15.79-9.01c5.68-2.23,11.66-3.66,17.7-4.4c6.04-0.74,12.15-0.81,18.21-0.32c3.02,0.25,6.03,0.63,9.04,1.16
			c1.5,0.26,3.01,0.55,4.51,0.9c1.52,0.37,2.96,0.71,4.64,1.23L231.13,119.14z"/>
	</g>
</g>
<g>
	<g>
		<path class="st4" d="M344.19,298.82c-0.72,3.01-1.52,6-2.42,8.94c-1.8,5.91-3.89,11.72-6.39,17.35
			c-4.92,11.28-11.35,21.93-19.55,31.03c-4.11,4.55-8.67,8.66-13.62,12.25c-4.96,3.57-10.35,6.55-16.01,8.87
			c-5.67,2.32-11.6,4.02-17.66,5.05c-3.03,0.53-6.1,0.89-9.18,1.12c-3.08,0.24-6.13,0.28-9.29,0.27
			c-6.25,0.08-12.39-0.34-18.46-1.38c-6.08-1.03-12-2.74-17.66-5.06c-5.68-2.31-11.06-5.29-16.02-8.87
			c-4.95-3.58-9.51-7.69-13.62-12.24c-8.21-9.11-14.63-19.77-19.55-31.04c-2.49-5.63-4.59-11.44-6.38-17.35
			c-0.89-2.95-1.7-5.93-2.42-8.94c-0.34-1.38-0.65-2.76-0.94-4.16c3.05,4.26,8.95,11.29,18.65,18.35
			c13.8,10.04,38.22,21.99,76.36,22.14h0.68l0,0c38.15-0.15,62.56-12.1,76.35-22.14c8.87-6.47,14.57-12.89,17.81-17.2
			C344.66,296.83,344.43,297.82,344.19,298.82z"/>
	</g>
	<g>
		<path class="st8" d="M343.56,295.28c-3.34,4.27-8.83,10.22-17.04,16.21c-13.8,10.04-38.22,22-76.36,22.14l0,0h-0.68
			c-38.14-0.14-62.56-12.09-76.36-22.14c-8.01-5.84-13.42-11.63-16.79-15.88c15.68,25.87,44.43,57,92.37,57.99v0.04
			c0.39,0,0.77-0.02,1.15-0.03c0.39,0.01,0.77,0.03,1.15,0.03v-0.04C299.14,352.61,327.93,321.22,343.56,295.28z"/>
	</g>
	<g>
		<path class="st0" d="M299.57,369.95c-13.33-7.61-29.26-12.7-48.18-13.1v-0.03c-0.4,0-0.77,0.01-1.16,0.02
			c-0.38-0.01-0.76-0.02-1.15-0.02v0.03c-19.2,0.39-35.32,5.63-48.75,13.43c4.18,2.74,8.63,5.08,13.26,6.97
			c5.66,2.32,11.59,4.03,17.66,5.06c6.07,1.05,12.21,1.46,18.46,1.38c3.15,0.01,6.21-0.04,9.29-0.27c3.08-0.23,6.13-0.59,9.17-1.12
			c6.07-1.03,12-2.73,17.66-5.05C290.65,375.29,295.25,372.84,299.57,369.95z"/>
	</g>
	<g>
		<g>
			<path class="st9" d="M322.52,285.36c3.56-1.43,7.41-2.01,11.3-2.01c3.89,0.05,7.9,0.78,11.53,2.65c3.63,1.82,6.69,4.97,8.23,8.63
				c1.57,3.65,1.84,7.61,1.15,11.27c-0.89-3.62-1.95-7.08-3.79-9.96c-1.79-2.9-4.33-5.15-7.34-6.69c-3.02-1.55-6.46-2.46-10.01-3.02
				C330.02,285.66,326.33,285.45,322.52,285.36z"/>
		</g>
		<g>
			<path class="st9" d="M177.38,285.36c-3.81,0.09-7.5,0.3-11.06,0.87c-3.57,0.56-7,1.46-10.02,3.02c-3.02,1.55-5.54,3.79-7.34,6.69
				c-1.84,2.89-2.9,6.34-3.79,9.96c-0.68-3.66-0.41-7.62,1.16-11.27c1.54-3.66,4.6-6.81,8.23-8.63c3.63-1.87,7.65-2.6,11.53-2.65
				C169.96,283.35,173.82,283.93,177.38,285.36z"/>
		</g>
	</g>
	<g>
		<g>
			<path class="st9" d="M250.28,335.05h-0.68c-38.13-0.14-62.54-12.1-76.33-22.13c-15.12-11.01-21.01-21.94-21.26-22.4l3.34-1.69
				c0.05,0.1,5.84,10.76,20.35,21.27c13.36,9.67,37.08,21.21,74.24,21.27c71.33-0.13,94.37-42.12,94.58-42.54l3.35,1.69
				c-0.24,0.46-6.14,11.39-21.27,22.4C312.83,322.95,288.42,334.91,250.28,335.05L250.28,335.05z"/>
		</g>
		<g>
			<path class="st9" d="M153.69,289.67c0.47,3.06,1.12,6.09,1.84,9.09c0.72,3,1.51,5.99,2.41,8.94c1.79,5.91,3.88,11.73,6.37,17.36
				c4.92,11.27,11.33,21.94,19.54,31.06c4.11,4.53,8.67,8.65,13.62,12.24c4.96,3.58,10.35,6.57,16.03,8.88
				c5.67,2.31,11.59,4.03,17.67,5.06c6.08,1.05,12.23,1.45,18.47,1.38c3.16,0.02,6.22-0.04,9.3-0.27c3.07-0.23,6.14-0.59,9.18-1.11
				c6.07-1.04,12.01-2.74,17.66-5.07c5.68-2.32,11.06-5.3,16.02-8.88c4.96-3.58,9.52-7.71,13.64-12.25
				c8.19-9.11,14.62-19.78,19.54-31.05c2.49-5.63,4.58-11.45,6.36-17.36c0.9-2.96,1.71-5.94,2.42-8.95c0.72-3,1.38-6.03,1.84-9.09
				c-0.49,6.17-1.58,12.3-2.99,18.35c-1.44,6.06-3.28,12.03-5.5,17.87c-4.49,11.66-10.61,22.86-18.9,32.56
				c-8.2,9.72-18.75,17.7-30.68,22.79c-11.92,5.11-25.07,7.17-37.9,7.05c-12.83,0.12-25.97-1.94-37.89-7.05
				c-11.93-5.09-22.48-13.07-30.67-22.8c-8.29-9.69-14.41-20.9-18.9-32.55c-2.21-5.84-4.07-11.81-5.49-17.87
				C155.26,301.97,154.18,295.85,153.69,289.67z"/>
		</g>
	</g>
	<g>
		<g>
			<path class="st9" d="M361.61,292.62c0.18-2.64,0.36-5.2,0.2-7.67c-0.16-2.41-0.77-4.84-2.27-5.96c-0.74-0.54-1.81-0.84-2.99-0.96
				c-1.18-0.12-2.44-0.1-3.73-0.04c-2.58,0.12-5.26,0.45-7.97,0.34c2.51-1,5-1.88,7.68-2.46c1.34-0.27,2.72-0.48,4.2-0.44
				c1.45,0.05,3.08,0.35,4.49,1.35c1.41,1.04,2.18,2.53,2.55,3.95c0.37,1.45,0.41,2.88,0.28,4.24
				C363.77,287.73,362.95,290.3,361.61,292.62z"/>
		</g>
		<g>
			<path class="st9" d="M138.74,292.62c-1.33-2.32-2.16-4.89-2.44-7.63c-0.12-1.37-0.08-2.79,0.28-4.24
				c0.38-1.42,1.14-2.91,2.55-3.95c1.42-1,3.05-1.3,4.5-1.35c1.47-0.04,2.85,0.17,4.2,0.44c2.67,0.58,5.17,1.46,7.68,2.46
				c-2.72,0.11-5.39-0.23-7.97-0.34c-1.29-0.06-2.55-0.09-3.74,0.04c-1.17,0.12-2.24,0.42-2.98,0.96c-1.5,1.11-2.12,3.55-2.27,5.96
				C138.39,287.42,138.56,289.98,138.74,292.62z"/>
		</g>
	</g>
</g>
</svg>
