<?xml version="1.0" encoding="utf-8"?>
<!-- Generator: Adobe Illustrator 25.4.1, SVG Export Plug-In . SVG Version: 6.00 Build 0)  -->
<svg version="1.1" id="Layer_1" xmlns="http://www.w3.org/2000/svg" xmlns:xlink="http://www.w3.org/1999/xlink" x="0px" y="0px"
	 viewBox="0 0 500 500" style="enable-background:new 0 0 500 500;" xml:space="preserve">
<style type="text/css">
	.st0{fill:#D0E5F6;}
	.st1{fill:#338CCC;}
	.st2{fill:#C6E8ED;}
	.st3{fill:#93CBDC;}
	.st4{fill:#228FB9;}
	.st5{display:none;opacity:0.3;}
	.st6{display:inline;}
	.st7{fill:#BCBCBC;}
	.st8{fill:#84B4C1;}
	.st9{opacity:0.3;}
	.st10{fill:#6091B1;}
	.st11{fill:#1CA8C0;}
	.st12{fill:#FFFFFF;}
	.st13{fill:#323031;}
</style>
<g id="beta5">
	<g>
		<g>
			<g>
				<g>
					<path class="st0" d="M5.49,242.73c1.2,42.59,11.48,86.84,33.22,123.58c56.22,95.03,146.29,99.9,245.21,101.94
						c52.79,1.1,111.29-5.38,150.83-45.17c50.08-50.39,62.74-129.87,57.96-198.76c-3.05-43.98-14.21-85.13-40.07-120.96
						c-24.1-33.39-55.95-62.22-92.73-80.14C319.65,3.6,275.64-1.31,231.42,0.8c-40.78,1.94-81.7,9.01-118.26,28.43
						c-36.88,19.6-65.63,49.84-83.46,88.3C11.76,156.27,4.28,200,5.49,242.73z"/>
					<path class="st1" d="M283.33,469.56C190.71,467.65,94.93,465.69,36.4,367C10.39,323.15,3.84,275.24,2.91,242.78
						c-1.28-45.18,7.16-88.68,24.41-125.79c17.84-38.4,46.97-69.14,84.25-88.9c32.41-17.18,70.26-26.27,119.1-28.59
						c5.35-0.25,10.66-0.4,15.78-0.44c43.96-0.33,81.14,7.19,113.66,23c35.49,17.25,67.81,45.1,93.45,80.54
						c23.79,32.88,37.02,72.67,40.42,121.65c7.97,114.74-33.23,174.42-58.5,199.77c-30.55,30.66-74.49,45.16-138.28,45.65
						c0,0,0,0-0.01,0C292.76,469.69,288.09,469.66,283.33,469.56z M230.79,2.1c-48.46,2.3-85.97,11.3-118.04,28.3
						c-36.77,19.49-65.52,49.82-83.12,87.71C12.55,154.85,4.2,197.93,5.47,242.7c0.91,32.16,7.4,79.58,33.12,122.95
						c57.81,97.46,152.87,99.41,244.8,101.31c4.74,0.1,9.39,0.13,13.8,0.1c0,0,0.01,0,0.01,0c63.09-0.48,106.46-14.75,136.51-44.9
						c24.96-25.04,65.64-84.03,57.75-197.74c-3.37-48.46-16.43-87.8-39.93-120.28c-25.4-35.1-57.39-62.67-92.5-79.73
						C326.85,8.77,290.04,1.33,246.47,1.67C241.38,1.7,236.11,1.85,230.79,2.1z"/>
				</g>
				<path class="st2" d="M4.19,242.74c1.21,42.59,11.51,86.84,33.3,123.58c56.37,95.03,146.68,99.89,245.86,101.93
					c52.93,1.09,111.58-5.38,151.24-45.17c50.22-50.39,62.91-129.87,58.12-198.76c-3.06-43.98-14.25-85.13-40.18-120.96
					c-24.16-33.39-56.1-62.22-92.98-80.13C319.19,3.6,275.07-1.3,230.73,0.8c-40.89,1.94-81.92,9.01-118.58,28.44
					c-36.98,19.6-65.8,49.84-83.68,88.31C10.48,156.28,2.98,200.01,4.19,242.74z M90.22,202.43c3.42-8.1,9.38-14.89,14.63-21.79
					c5.27-6.93,9.1-13.75,10.6-22.03c-0.73-5.34-0.73-10.16,0.64-15.09c-0.19-5.46-0.47-10.91,0.33-16.32
					c1.43-9.64,7.42-18.04,10.61-27.12c2.71-7.71,4.96-15.66,9.84-22.32c5.44-7.43,13.74-10.91,22.26-13.27
					c4.94-1.37,9.96-2.38,14.84-4.01c6.19-2.07,11.22-5.68,15.75-10.4c6.52-6.79,11.69-14.65,19.46-20.12
					c9.26-6.52,21.45-8.51,32.46-8.94c12.16-0.48,24.33,1.74,36.17,4.25c9.16,1.94,18.23,4.4,27.47,5.86
					c7.52,1.18,15.12,1.86,22.69,2.61c17.34,1.71,35.24,3.3,51.39,10.44c9.41,4.16,16.84,10.58,22.03,18.69
					c11.09,11.07,19.44,25.27,29.99,36.73c13.17,14.31,26.84,28.23,33.38,47.14c4.03,11.66,5.01,24.55,7.1,36.67
					c2.29,13.3,4.74,26.57,7.43,39.78c2,9.87,2.46,19.88,0.52,29.79c-1.83,9.34-6.01,18.05-10.37,26.38
					c-5.36,10.24-11.24,19.69-13.93,31.1c-2.44,10.36-3.13,21.05-5.68,31.39c-4.85,19.66-19.74,34.91-37.82,42.63
					c-8.86,3.78-18.51,5.39-28.06,5.84c-10.69,0.51-21.05-1.71-31.68-2.03c-10.56-0.32-20.3,2.95-29.57,7.86
					c-9.65,5.11-18.2,11.87-28.97,14.42c-9.08,2.15-18.52,1.05-27.72,0.61c-5.04-0.24-10.08-0.18-15.1,0.33
					c-5.82,0.59-11.41,2.68-16.9,4.64c-8.84,3.16-17.62,5.91-26.99,3.55c-10.75-2.72-17.48-11.92-24.42-19.97
					c-3.94-4.58-8.06-8.58-13.32-11.53c-5.22-2.93-11.08-4.43-16.84-5.8c-9.62-2.29-18.87-4.76-26.87-10.93
					c-12.56-9.69-15.32-25.66-15.48-40.78c-0.11-10.37,1.25-20.7,0.67-31.07c-0.03-0.51-0.1-0.99-0.14-1.5
					c-0.14-1.31-0.28-2.63-0.41-3.94c-1.47-10.62-5.29-20.17-9.59-30.13C92.35,244.84,81.32,223.52,90.22,202.43z"/>
				<path class="st2" d="M28.47,117.55c17.88-38.47,46.71-68.7,83.68-88.31c22.81-12.09,47.32-19.39,72.43-23.65
					c-1.17,0.67-2.34,1.38-3.49,2.17c-6.17,4.27-11.61,9.46-16.96,14.73c-3.46,3.41-6.78,7.28-11.14,9.49
					c-4.44,2.25-9.22,3.31-14.12,3.94c-7.83,1.02-16.32,1.47-23.26,5.74c-7.21,4.44-12.18,11.69-16.25,19.06
					c-5.06,9.19-9.21,19.42-16.48,27.1c-6.87,7.25-14.99,13.19-21.98,20.34c-6.19,6.34-11.62,13.27-15.12,21.54
					c-4.05,9.56-4.11,19.45-3.98,29.67c0.15,12.57-0.42,24.76-3.86,36.91c-3.21,11.35-9.39,22.29-10.36,34.21
					c-1.86,22.74,14.31,41.28,15.2,63.53c0.74,18.55,0.21,37.93,11.73,53.52c6.27,8.47,14.24,15.22,22.07,22.12
					c4,3.52,8.01,7.14,11.38,11.31c3.48,4.3,5.84,8.93,8.39,13.81c7.9,15.17,19.13,26.54,35.33,32.04
					c11.26,3.82,22.47,4.7,34.28,4.61c12.97-0.09,25.33,0.92,37.75,4.97c19.32,6.28,37.56,16.48,58.46,15.09
					c12.41-0.82,24.53-4.52,36.71-6.9c13.65-2.66,26.35-3.09,40.06-0.77c10.14,1.72,20.72,3.91,30.99,1.94
					c11.16-2.14,19.99-8.61,28.74-15.65c9.51-7.65,18.88-14.8,29.21-21.24c8.07-5.03,15.59-11.03,21.5-18.62
					c6.46-8.28,10.92-17.53,15.12-27.16c4.82-11.05,9.4-22.25,13.13-33.75c3.69-11.37,6.75-23.03,8.18-34.93
					c0.74-6.16,1.19-12.39,0.95-18.6c-0.23-6.08-0.82-12.09-0.64-18.19c0.42-13.45,3.37-26.26,5.15-39.5
					c0.19-1.44,0.37-2.88,0.54-4.33c0.35,3.5,0.67,7.02,0.92,10.55c4.78,68.88-7.91,148.37-58.12,198.76
					c-39.66,39.79-98.31,46.27-151.24,45.17c-99.18-2.04-189.49-6.9-245.86-101.93C15.7,329.58,5.4,285.33,4.19,242.74
					C2.98,200.01,10.48,156.28,28.47,117.55z"/>
				<g>
					<g>
						<path class="st3" d="M85.26,268.09c-9.45,20.64-0.67,41.98,17.55,47.5c0,0-6.08,33.01,26.31,39.9
							c12.15,30.27,43.17,26.16,43.17,26.16s10.81,24.74,44.54,16.49c14.86,18.59,42.51,12.4,56.01-1.37
							c16.17,13.75,33.15,5.33,48.56-6.19c10.12-7.56,25.64,0.67,38.48-13.75c12.81-14.44,12.81-15.82,22.26-18.58
							c9.43-2.75,16.18-8.94,17.53-32.32c1.35-15.85,14.85-7.59,15.52-34.41c0.67-26.83-1.34-19.95,4.04-30.27
							c5.39-10.33,1.36-15.82-1.35-26.82c-2.69-11.04,6.1-26.15-7.42-41.28c-8.09-9.62-4.72-10.34-6.07-23.38
							c-1.37-13.1-6.74-13.1-12.82-19.29c-4.72-5.5-2.69-22.01-23.6-33.71c-11.48-5.5-11.48-6.87-17.54-13.06
							c-6.09-6.19-18.9-10.3-29.68-10.3c0,0-16.88-26.85-51.29-18.57c-27.65-13.1-52.63-10.36-66.1,7.54
							c-12.81-5.52-24.98,11.03-24.98,11.03c-22.93-6.22-37.8,10.3-43.85,24.05c-25.65-4.12-41.15,24.75-36.43,42.65
							c0,0-15.52,9.63-12.15,24.1c-16.88,13.73-9.46,37.14-6.07,44.7C69.75,245.41,74.47,255.04,85.26,268.09z"/>
						<path class="st4" d="M216.35,399.58c-4.39,1.02-8.63,1.54-12.62,1.54c-21.08,0-30.19-14.41-32.18-18.1
							c-0.68,0.05-1.71,0.11-3.02,0.11l0,0c-8.85,0-30.37-2.6-40.33-26.52c-29.06-6.59-27.51-34.13-26.81-40.12
							c-8.22-2.81-14.69-8.79-18.29-16.96c-4.16-9.42-3.91-20.77,0.66-31.24c-11.07-13.54-14.88-23.55-5.34-39.51
							c-2.15-5.1-11.44-30.09,6.1-45.11c-2.49-13,8.9-21.95,12.1-24.18c-2.12-9.45,0.83-21.23,7.65-30.3
							c7.43-9.88,18.05-14.68,29.47-13.19c5.75-12.39,17.78-25.28,34.89-25.28c3,0,6.11,0.4,9.24,1.18
							c2.13-2.67,10.3-11.99,20.05-11.99c1.7,0,3.38,0.29,5,0.86c7.98-10.11,19.69-15.46,33.94-15.46c10.23,0,21.24,2.73,32.72,8.11
							c4.32-1.01,8.6-1.52,12.72-1.52c23.64,0,36.7,16.77,39.11,20.16c11.46,0.17,23.95,4.61,29.92,10.68
							c1.03,1.05,1.88,1.96,2.65,2.78c3.68,3.93,5.2,5.55,14.6,10.06c15.2,8.5,18.71,19.72,21.03,27.15
							c0.91,2.91,1.7,5.43,2.85,6.79c1.5,1.54,2.97,2.67,4.38,3.77c4.15,3.23,7.74,6.02,8.81,16.31c0.4,3.89,0.39,6.7,0.38,8.96
							c-0.02,5.29-0.03,7.27,5.36,13.68c9.4,10.53,8.46,20.9,7.63,30.07c-0.39,4.28-0.75,8.32,0.09,11.77
							c0.58,2.34,1.21,4.4,1.81,6.39c2.18,7.14,3.9,12.79-0.58,21.37c-0.6,1.15-1.11,2.09-1.54,2.88c-2.23,4.11-2.23,4.11-2.2,11.32
							c0.01,3.25,0.03,8.16-0.15,15.49c-0.4,15.94-5.25,20.03-9.53,23.64c-3.05,2.57-5.47,4.61-6,10.81
							c-1.37,23.73-8.37,30.55-18.45,33.5c-7.71,2.26-8.75,3.44-16.79,12.66c-1.4,1.6-3,3.43-4.87,5.55
							c-7.85,8.81-16.7,9.53-24.51,10.17c-5.27,0.42-10.25,0.83-14.16,3.75c-8.45,6.32-19.65,13.57-31.24,13.57
							c-6.4,0-12.45-2.25-18.01-6.69c-8.07,7.76-19.89,12.55-31.13,12.55C234.51,411.04,224.27,409.03,216.35,399.58z
							 M273.65,395.76c5.4,4.59,11.05,6.82,17.27,6.82c10.85,0,21.59-6.98,29.73-13.07c4.49-3.35,9.82-3.79,15.47-4.25
							c7.69-0.62,15.65-1.27,22.82-9.32c1.87-2.1,3.46-3.93,4.85-5.52c8.11-9.3,9.58-10.97,18-13.44
							c9.3-2.72,15.32-8.87,16.61-31.19c0.62-7.32,3.82-10.02,6.91-12.63c4.05-3.41,8.24-6.95,8.61-21.7
							c0.18-7.29,0.16-12.18,0.15-15.41c-0.02-7.59-0.03-7.89,2.52-12.59c0.42-0.79,0.92-1.71,1.52-2.85
							c3.98-7.62,2.55-12.29,0.39-19.37c-0.59-1.93-1.26-4.12-1.86-6.53c-0.95-3.89-0.56-8.14-0.15-12.65
							c0.78-8.62,1.67-18.39-7-28.1c-6.03-7.17-6.02-9.93-5.99-15.41c0.01-2.2,0.02-4.93-0.37-8.67
							c-0.96-9.17-3.83-11.41-7.82-14.51c-1.41-1.1-3-2.34-4.69-4.06c-1.57-1.82-2.43-4.58-3.43-7.78
							c-2.33-7.45-5.52-17.65-19.76-25.62c-9.76-4.67-11.5-6.52-15.29-10.57c-0.76-0.81-1.6-1.71-2.61-2.74
							c-5.56-5.66-17.93-9.92-28.78-9.92h-0.7l-0.38-0.6c-0.12-0.2-12.57-19.56-37.36-19.56c-4.06,0-8.28,0.53-12.56,1.55
							l-0.43,0.11l-0.4-0.19c-11.28-5.35-22.06-8.06-32.04-8.06c-13.78,0-25.02,5.26-32.51,15.2l-0.6,0.8l-0.91-0.39
							c-1.58-0.68-3.23-1.02-4.92-1.02c-9.85,0-18.45,11.52-18.54,11.64l-0.52,0.7l-0.83-0.22c-3.2-0.87-6.36-1.31-9.4-1.31
							c-16.31,0-27.72,12.73-32.96,24.63l-0.4,0.91l-0.96-0.15c-10.81-1.74-20.95,2.67-28.01,12.06
							c-6.47,8.62-9.28,20.26-6.98,28.96l0.25,0.94l-0.82,0.51c-0.15,0.1-14.69,9.3-11.57,22.69l0.19,0.8l-0.63,0.52
							c-17.83,14.51-7,40.25-5.71,43.14l0.29,0.64l-0.36,0.6c-9.36,15.28-5.76,24.32,5.28,37.66l0.52,0.64l-0.34,0.76
							c-4.58,9.99-4.94,20.86-0.98,29.83c3.45,7.81,9.75,13.45,17.74,15.87l1.1,0.34l-0.21,1.15c-0.24,1.3-5.49,31.83,25.32,38.38
							l0.66,0.14l0.26,0.64c9.25,23.05,29.81,25.54,38.22,25.54c2.22,0,3.59-0.18,3.6-0.18l0.94-0.12l0.39,0.89
							c0.08,0.17,7.86,17.41,30.27,17.41c4.02,0,8.33-0.56,12.8-1.65l0.78-0.19l0.51,0.64c7.35,9.2,17.09,11.13,23.97,11.13
							c10.81,0,22.65-4.94,30.15-12.6l0.83-0.84L273.65,395.76z"/>
					</g>
				</g>
				<g>
					<g class="st5">
						<g class="st6">
							<path class="st7" d="M429.75,363.46c11.63-2.64,28.35-20.91,17.18-33.08c-0.67-0.72-2.01-4.45,0.08-3.15
								c9.01,5.72,12.05,15.16,8.72,25.71c-3.14,9.98-12.7,23.63-23.44,17.63C431.1,369.9,426.82,364.12,429.75,363.46z"/>
							<path class="st8" d="M431.65,371.89c-1.15-0.65-4.61-4.83-4.25-7.6c0.16-1.18,0.91-2.01,2.07-2.27
								c7.07-1.61,16.78-9.87,19.2-18.54c1.29-4.63,0.38-8.68-2.71-12.05c-0.68-0.72-1.87-3.28-1.3-4.78
								c0.44-1.14,1.64-1.56,3.04-0.69c9.52,6.04,12.92,16.05,9.32,27.46c-2.54,8.08-9.8,20.11-19.4,20.11h0
								C435.61,373.53,433.61,372.98,431.65,371.89z M451.31,344.33c-2.77,9.91-13.43,18.79-21.18,20.37
								c-0.14,0.93,1.98,4.04,2.8,4.57c1.55,0.86,3.14,1.3,4.71,1.3h0c7.21,0,14.04-9.33,16.79-18.09
								c2.84-9.02,0.69-17.02-5.9-22.42C451.84,334.08,452.8,338.99,451.31,344.33z"/>
						</g>
						<g class="st6">
							<path class="st7" d="M363.92,338.41c6.44-0.68,12.54-1.76,17.89-5.95c5.82-4.58,7.33-14.02,5.64-21.13
								c-0.57-2.47,2.25,0.16,2.64,0.85c4.59,8.23,5.15,18.59-0.06,26.64c-5.07,7.88-14.54,9.49-22.68,7.59
								C365.54,345.97,360.75,338.78,363.92,338.41z"/>
							<path class="st8" d="M367.06,347.85c-2.1-0.49-5.71-5.51-5.56-8.39c0.07-1.4,0.94-2.36,2.29-2.51
								c5.84-0.62,11.97-1.57,17.21-5.67c5.4-4.25,6.67-13.07,5.12-19.58c-0.08-0.34-0.32-1.38,0.26-2.18
								c0.31-0.44,0.8-0.69,1.33-0.69c1.5,0,3.29,2.15,3.55,2.6c5.18,9.3,5.14,20.12-0.11,28.24c-3.72,5.77-9.98,8.95-17.63,8.95
								C371.39,348.61,369.22,348.35,367.06,347.85z M382.62,333.66c-5.73,4.48-12.18,5.54-18.38,6.21
								c0.17,1.37,2.51,4.74,3.41,5.09c1.96,0.46,3.94,0.69,5.88,0.69c3.89,0,11.07-1,15.37-7.68c4.51-6.98,4.62-16.29,0.35-24.4
								C390.15,320.66,388.29,329.2,382.62,333.66z"/>
						</g>
						<g class="st6">
							<path class="st7" d="M476.28,315.25c1.78-5.78,7.1-9.82,9.19-15.75c3.29-9.47-3.7-17.93-7.83-26.03
								c-1.15-2.33,4.03,0.04,4.73,0.94c6.77,8.77,13.88,16.35,13.43,28.07c-0.31,8.03-4.83,16.42-12.5,18.04
								C481.26,320.91,475.46,318.05,476.28,315.25z"/>
							<path class="st8" d="M483.63,321.94c-2.03,0.41-5.8-1.24-7.6-3.31c-1.07-1.24-1.46-2.61-1.08-3.9
								c0.98-3.16,2.92-5.81,4.79-8.37c1.7-2.32,3.45-4.72,4.41-7.43c2.41-6.95-1.37-13.55-5.03-19.93
								c-0.95-1.65-1.88-3.28-2.72-4.93c-0.7-1.41-0.19-2.45,0.63-2.86c1.66-0.82,5.58,1.26,6.4,2.31c0.71,0.93,1.44,1.85,2.15,2.75
								c6.19,7.87,12.03,15.29,11.61,26.34c-0.31,8-4.42,15.3-10.25,18.18c0,0,0,0,0,0C485.89,321.31,484.78,321.7,483.63,321.94z
								 M481.49,277.61c3.82,6.66,8.15,14.21,5.29,22.46c-1.1,3.1-2.97,5.66-4.79,8.14c-1.82,2.49-3.54,4.84-4.37,7.53
								c-0.09,0.3,0.19,0.71,0.43,0.99c1.32,1.52,4.1,2.5,4.9,2.34c0.93-0.2,1.84-0.51,2.69-0.93c0,0,0,0,0,0
								c4.98-2.46,8.5-8.82,8.77-15.82c0.38-9.9-4.87-16.56-10.93-24.27c-0.72-0.92-1.45-1.84-2.13-2.72
								c-0.25-0.25-1-0.65-1.68-0.97C480.24,275.43,480.87,276.51,481.49,277.61z"/>
						</g>
						<g class="st6">
							<path class="st7" d="M362.31,213.37c5.72-2.06,11.13-2.89,17.03-1.6c8.34,1.85,10.37,6.78,14.92,11.42
								c0.74,0.75-0.45,4.22-2.22,3.81c-9.13-2.11-12.9-8.72-24.22-7.56c-10.92,1.16-16.05,7.59-22.46,13.31
								c-1.6,1.45-2.83,0.04-2.57-1.24C344.31,223.9,352.96,216.74,362.31,213.37z"/>
							<path class="st8" d="M341.56,231.43c1.47-7.34,9.81-15.11,20.27-18.87c6.59-2.37,12.29-2.9,17.94-1.66
								c5.21,1.15,7.97,3.42,9.99,5.49c0.92,0.94,1.77,1.95,2.63,2.97c0.88,1.05,1.79,2.13,2.89,3.26c0,0,0,0,0,0
								c0.91,0.93,0.26,3.28-0.91,4.43c-0.76,0.74-1.8,1.05-2.79,0.82c-3.69-0.86-6.5-2.38-9.22-3.86
								c-4.11-2.23-7.99-4.34-14.47-3.67c-8.74,0.93-13.6,5.48-18.75,10.31c-0.94,0.88-1.89,1.77-2.86,2.64
								c-0.88,0.8-1.74,0.98-2.31,0.98c-0.72,0.01-1.37-0.24-1.82-0.71l0,0C341.64,233.01,341.4,232.21,341.56,231.43z
								 M378.91,212.65c-5.09-1.12-10.06-0.64-16.12,1.54c-9.7,3.5-17.43,10.65-18.78,17.38c-0.06,0.32,0.03,0.64,0.17,0.81
								c0.06-0.04,0.14-0.1,0.24-0.19c0.96-0.86,1.9-1.74,2.83-2.61c5.25-4.92,10.68-10.02,20.48-11.05
								c7.47-0.77,11.91,1.65,16.22,3.98c2.56,1.39,5.22,2.83,8.33,3.62c0.53-0.24,1.18-1.95,0.89-2.46
								c-1.07-1.1-2.01-2.21-2.91-3.28c-0.84-1-1.66-1.97-2.54-2.88C385.91,215.67,383.46,213.66,378.91,212.65z"/>
						</g>
						<g class="st6">
							<path class="st7" d="M337.58,162.8c9.47-1.68,14.65,5.94,16.7,12.83c0.29,0.92-1.32,5.15-2.72,3.88
								c-5.28-4.79-9.06-10.11-17.94-8.03c-3.57,0.83-6.95,3.02-9.97,4.93c-2.04,1.27-4.02,3.2-6.6,2.8
								c-1.91-0.31,0.31-4.34,0.84-5.02C322.14,168.75,330.53,164.06,337.58,162.8z"/>
							<path class="st8" d="M317.05,173.68c4.28-5.5,12.86-10.47,20.4-11.81c5.8-1.03,10.76,1.07,14.35,6.09
								c1.48,2.07,2.69,4.62,3.51,7.36c0.35,1.1-0.75,4.26-2.26,5.11c-0.77,0.43-1.63,0.35-2.25-0.22
								c-0.74-0.67-1.44-1.35-2.14-2.01c-4.34-4.16-7.77-7.44-14.82-5.79c-3.22,0.75-6.41,2.75-9.22,4.53l-0.4,0.25
								c-0.4,0.25-0.8,0.53-1.2,0.8c-1.73,1.2-3.69,2.55-6.2,2.15c-0.53-0.08-0.95-0.33-1.22-0.71l0,0
								C314.31,177.63,317.03,173.71,317.05,173.68z M353.27,175.94c-0.77-2.58-1.9-4.96-3.27-6.88c-3.16-4.42-7.29-6.21-12.28-5.33
								c-7.01,1.25-14.99,5.86-18.97,10.97c-0.56,0.71-1.59,2.96-1.39,3.57c1.56,0.22,2.96-0.75,4.44-1.77
								c0.43-0.3,0.87-0.6,1.29-0.86l0.39-0.25c2.97-1.87,6.33-3.99,9.95-4.83c8.23-1.93,12.39,2.06,16.8,6.28
								c0.64,0.61,1.28,1.22,1.96,1.85C352.7,178.13,353.34,176.44,353.27,175.94z"/>
						</g>
						<g class="st6">
							<path class="st7" d="M247.23,214.38c3.98-1.37,7.63-2.13,11.53-1.94c4.64,0.26,4.19,3,6.92,4.85
								c0.89,0.62,0.43,4.64-1.55,4.36c-2.53-0.41-3.32-2.1-6.25-2.17c-3.34-0.1-7.78,1.33-11.02,2.6
								c-3.86,1.53-6.85,3.69-9.65,6.36c-1.92,1.84-3.78,4.03-6.66,4.12c-2.41,0.07-1.43-3.96-0.61-5.15
								C233.64,222.04,240.14,216.8,247.23,214.38z"/>
							<path class="st8" d="M229.02,227.16c4.09-5.97,10.99-11.16,18.01-13.56c4.59-1.58,8.32-2.2,12.09-2.02
								c1.17,0.07,2.13,0.28,2.93,0.65c1.25,0.58,1.91,1.47,2.54,2.33c0.52,0.7,1.05,1.42,1.93,2.02c1.03,0.72,0.88,3.49-0.26,4.86
								c-0.65,0.79-1.61,1.18-2.58,1.04c-1.06-0.17-2.05-0.63-2.99-1.16c-0.97-0.54-1.96-0.98-3.1-1.01
								c-3.12-0.09-7.4,1.3-10.43,2.49c-3.33,1.32-6.16,3.19-9.16,6.05l-0.67,0.65c-1.72,1.69-3.86,3.79-7,3.9
								c-0.45,0.01-0.85-0.06-1.19-0.22l0,0C227.03,232.21,228.22,228.33,229.02,227.16z M262.22,219.86
								c0.77,0.43,1.67,0.78,2.23,1.01c0.52-0.39,0.8-2.46,0.41-2.86c-1.07-0.72-1.69-1.57-2.24-2.32
								c-0.95-1.29-1.88-2.26-4.19-2.38c-3.39-0.17-6.78,0.4-10.99,1.85c-6.43,2.2-12.77,6.98-16.55,12.49
								c-0.63,0.92-1.18,3.62-0.32,4.02c0.06,0.03,0.13,0.04,0.22,0.04c1.81-0.06,3.09-1.18,4.96-3.03l0.69-0.67
								c3.25-3.1,6.47-5.22,10.15-6.68c3.31-1.29,8-2.81,11.6-2.7c1.42,0.04,2.38,0.41,2.98,0.69
								C261.53,219.48,261.88,219.67,262.22,219.86z"/>
						</g>
						<g class="st6">
							<path class="st7" d="M362.84,394.63c-0.29-0.79,2.16-2.28,2.99-1.83c4.59,2.38,7.77,6.04,12.69,8.01
								c9.12,3.65,19.82-2.43,26.63-6.83c3.12-2.03,6.62-1,3.19,1.97C395.68,406.88,369.33,413.26,362.84,394.63z"/>
							<path class="st8" d="M409.1,396.55c-7.92,6.84-21.94,12.57-33.38,10.27c-6.84-1.37-11.64-5.5-13.88-11.93l-0.07-0.37
								c-0.02-1.03,1.33-1.93,2.13-2.29c0.98-0.45,1.88-0.51,2.49-0.17c2.09,1.08,3.89,2.41,5.63,3.7c2.23,1.65,4.33,3.21,6.96,4.26
								c8.37,3.35,18.58-2.24,25.53-6.73c1.73-1.13,3.78-1.54,5.09-1.02c0.76,0.3,1.2,0.87,1.22,1.56l0,0
								C410.83,394.64,410.25,395.56,409.1,396.55z M376.22,405.13c10.56,2.12,24.04-3.45,31.37-9.78c1.1-0.95,1.12-1.43,1.12-1.48
								l0.01,0c-0.19-0.14-1.43-0.17-2.92,0.8c-7.4,4.78-18.32,10.7-27.74,6.93c-2.89-1.17-5.2-2.88-7.44-4.53
								c-1.68-1.24-3.41-2.52-5.17-3.48c-0.41,0-1.46,0.64-1.59,0.8C365.91,400.28,370.07,403.89,376.22,405.13z"/>
						</g>
						<g class="st6">
							<path class="st7" d="M215.47,279.03c1.77-0.47,5.12,2.38,3.55,3.23c-8.53,4.6-14.81,9-16.94,16.33
								c-3.04,10.45,4.2,17.78,9.68,27.1c1.89,3.23-3.17,1.88-4.85,0.25C190.81,310.41,183.12,287.27,215.47,279.03z"/>
							<path class="st8" d="M205.58,326.53c-9.54-9.2-17.83-23.01-12.49-34.2c3.15-6.6,10.48-11.4,21.77-14.27
								c0.33-0.08,0.68-0.13,1.03-0.13c2.19,0,4.23,1.6,4.88,2.76c0.77,1.39-0.25,2.14-0.72,2.4c-8.65,4.66-14.41,8.91-16.38,15.71
								c-2.34,8.06,1.62,14.12,6.2,21.13c1.15,1.75,2.31,3.54,3.41,5.41c0.68,1.17,0.7,2.05,0.03,2.68
								c-0.49,0.47-1.29,0.72-2.24,0.72l0,0C209.06,328.71,206.66,327.58,205.58,326.53z M211.07,326.61v1.05V326.61
								C211.07,326.61,211.07,326.61,211.07,326.61z M216.06,280.02c-10.35,2.64-17.04,6.99-19.88,12.94
								c-5,10.48,2.96,23.61,12.09,32.4c0.52,0.51,1.5,0.96,2.21,1.15c-0.05-0.12-0.11-0.26-0.22-0.44
								c-1.09-1.84-2.24-3.61-3.37-5.33c-4.59-7.02-8.93-13.66-6.4-22.35c2.14-7.36,8.21-11.92,17.31-16.84
								C217.7,281.08,216.49,280.1,216.06,280.02z"/>
						</g>
						<g class="st6">
							<path class="st7" d="M275.05,402.49c14.73,3.52,37.56,1.51,41.86-17.44c0.51-2.44,4.47,3.34,4.51,4.71
								c0.96,23.99-29.01,29.91-44.52,19.57C275.72,408.53,271.46,401.67,275.05,402.49z"/>
							<path class="st8" d="M276.18,410.58c-1.16-0.77-4.46-5.54-3.82-7.99c0.33-1.26,1.41-1.91,2.99-1.54
								c3.8,0.91,7.94,1.39,11.98,1.39c7.28,0,24.62-1.73,28.24-17.71c0.27-1.29,1.14-1.75,1.87-1.75c2.18,0,5.31,4.98,5.36,6.72
								c0.26,6.54-1.7,12.36-5.67,16.82c-5.19,5.82-13.51,9.17-22.83,9.17c0,0,0,0,0,0C287.54,415.67,281.11,413.86,276.18,410.58z
								 M287.33,405.39c-4.01,0-8.12-0.45-12.16-1.34c0.47,1.32,1.88,3.57,2.45,4.01c4.5,3,10.42,4.65,16.67,4.65h0
								c8.45,0,16.25-3.09,20.85-8.25c3.49-3.92,5.14-8.84,4.92-14.58c-0.13-0.66-1.3-2.48-2.08-3.41
								C313.41,403.52,295.11,405.39,287.33,405.39z"/>
						</g>
						<g class="st6">
							<path class="st7" d="M461.62,415.73c6.61-3.59,12.92-6.14,18.35-11.84c6.97-7.34,11.41-19.84,5.63-29.24
								c-0.68-1.14-0.96-3.88,0.87-2.15c17.59,16.47,2.93,56.06-21.11,50.62C463.86,422.82,459.25,417.01,461.62,415.73z"/>
							<path class="st8" d="M465.09,424.58c-1.78-0.37-5.13-4.41-5.48-7.12c-0.17-1.37,0.33-2.49,1.38-3.05
								c1.3-0.71,2.6-1.38,3.88-2.04c5.11-2.64,9.93-5.13,14.13-9.53c6.72-7.07,10.75-18.74,5.44-27.38
								c-0.54-0.91-1.07-2.8-0.47-3.99c0.61-1.19,2.01-1.38,3.39-0.07c8.12,7.6,10.47,20.8,6.01,33.63
								c-4.25,12.2-13.5,20.09-23.57,20.09c0,0,0,0,0,0C468.25,425.12,466.66,424.94,465.09,424.58z M480.93,404.95
								c-4.52,4.74-9.54,7.33-14.85,10.08c-1.27,0.65-2.55,1.31-3.74,1.86c-0.18,0.99,2.33,4.4,3.3,4.79
								c1.4,0.31,2.8,0.47,4.17,0.47l0,0c8.92,0,17.16-7.13,21-18.17c3.53-10.16,2.43-20.51-2.7-27.5
								C492.08,386.05,487.81,397.72,480.93,404.95z"/>
						</g>
						<g class="st6">
							<path class="st7" d="M364.71,442.76c9.09,4.17,16.96,10.63,27.02,11.88c10.45,1.33,19.99-6.99,27.08-14.18
								c1.23-1.28,4.39,3.39,3.26,4.89c-7.9,10.55-16.57,17.97-29.61,16.97c-9.91-0.73-19.18-8.1-26.77-14.3
								C364.9,447.38,362.16,441.6,364.71,442.76z"/>
							<path class="st8" d="M392.37,463.78c-10.59-0.78-20.37-8.77-27.49-14.59c-0.82-0.65-3.09-4.74-2.48-6.71
								c0.36-1.19,1.48-1.72,2.86-1.09c2.92,1.34,5.74,2.93,8.46,4.46c5.94,3.34,11.55,6.49,18.18,7.31
								c9.83,1.27,19.11-6.81,25.97-13.78c0.4-0.41,0.91-0.63,1.46-0.63c1.57,0,3.09,1.83,3.84,3.54c0.71,1.61,0.7,3.02-0.02,3.97
								c-6.53,8.71-15,17.61-28.36,17.61C393.99,463.88,393.18,463.84,392.37,463.78z M391.57,456.11
								c-7.13-0.88-13.23-4.32-19.13-7.63c-2.28-1.28-4.62-2.6-7.03-3.78c0.36,0.89,0.86,1.86,1.11,2.14
								c6.87,5.61,16.26,13.28,26.04,14c13.46,1.03,21.97-7.78,28.38-16.28c0.11-0.6-0.87-2.3-1.46-2.74
								C412.21,449.14,402.31,457.48,391.57,456.11z"/>
						</g>
						<g class="st6">
							<path class="st7" d="M196.36,364.39c6.1,1.72,10.83,2.92,17.79,2.63c5.57-0.23,13.08-1.99,15.75-4.93
								c0.58-0.63,2.5,0.89,2.27,1.41c-4.52,9.09-25.3,7.81-35.45,3.11C195.8,366.17,193.57,363.6,196.36,364.39z"/>
							<path class="st8" d="M196.13,367.01c-0.81-0.38-2.47-1.98-1.96-2.79c0.33-0.52,1.3-0.69,2.61-0.31
								c6.03,1.7,10.64,2.85,17.31,2.57c5.42-0.22,12.51-1.93,14.98-4.64c0.25-0.28,0.7-0.44,1.22-0.44c0.77,0,1.44,0.37,1.86,0.68
								c0.21,0.15,1.21,0.93,0.92,1.56c-2.26,4.53-8.79,7.14-17.94,7.14h0C208.42,370.77,201.14,369.33,196.13,367.01z
								 M214.22,367.55c-7.12,0.29-11.93-0.89-18.17-2.65c0.26,0.45,0.91,1.13,1.27,1.29c4.69,2.17,11.51,3.52,17.81,3.52h0
								c4.84,0,13.38-0.83,16.12-6.31c0-0.18-0.45-0.6-0.76-0.81C227.5,365.52,220.13,367.3,214.22,367.55z"/>
						</g>
						<g class="st6">
							<path class="st7" d="M241.15,414.8c1.26-2.39,2.67,3.5,2.73,4.08c1.04,9.27,2.7,16.95,8.1,23.12
								c5.69,6.54,14.18,5.09,22.07,3.58c1.67-0.34,2.55,4.74,1.05,5.93c-11.9,9.44-20.77,7.41-28.29-4.05
								C242.37,440.7,235.78,424.85,241.15,414.8z"/>
							<path class="st8" d="M245.86,448.49c-3.68-5.61-11.86-22.71-5.65-34.34c0.67-1.26,1.56-1.5,2.17-1.3
								c1.79,0.59,2.63,5.56,2.64,5.6c1.08,9.56,2.76,16.65,7.81,22.41c1.56,1.8,3.4,3.03,5.63,3.76
								c4.84,1.59,10.81,0.45,15.59-0.47c1.75-0.35,2.94,2.32,2.97,4.68c0.02,1.72-0.5,3.13-1.43,3.86
								c-7.02,5.57-13.12,7.39-18.66,5.57l0,0C252.93,456.94,249.32,453.75,245.86,448.49z M257.53,447.44
								c-2.53-0.83-4.62-2.24-6.41-4.29c-5.44-6.21-7.29-14.01-8.39-23.82c-0.1-0.65-0.59-2.37-0.98-3.22
								c-4.33,9.36,2.1,24.38,6,30.33c3.2,4.87,6.51,7.82,10.11,9.01l0,0c4.89,1.61,10.36-0.07,16.7-5.08
								c0.1-0.17,0.23-0.9,0.07-1.87c-0.17-0.94-0.5-1.44-0.6-1.48C269.02,447.98,262.8,449.17,257.53,447.44z"/>
						</g>
					</g>
					<g class="st9">
						<g>
							<path class="st10" d="M208.44,92.25c-18.07-4.79-42.01,9.71-48.74,26.36c-0.55,1.37,0.89,0.83,1.35,0.12
								c5.87-9.35,12.58-15.62,23.02-19.51c7.5-2.82,15.41-2.39,23.08-4.18C207.85,94.9,209.67,92.58,208.44,92.25z"/>
							<path class="st11" d="M159.91,120.7L159.91,120.7c-0.54,0-1.01-0.24-1.29-0.66c-0.34-0.5-0.36-1.13-0.06-1.88
								c6.14-15.22,25.6-28.07,42.48-28.07c2.7,0,5.29,0.33,7.72,0.97c0.83,0.23,1.35,0.92,1.33,1.78
								c-0.04,1.29-1.52,3.17-2.69,3.41c-3.16,0.74-6.39,1.11-9.52,1.47c-4.66,0.53-9.06,1.04-13.38,2.66
								c-9.59,3.57-16.28,9.26-22.41,19.01C161.68,120.04,160.79,120.7,159.91,120.7z M201.04,92.55c-10.43,0-21.9,5.18-30.23,12.77
								c3.74-3.09,7.92-5.43,12.82-7.25c4.6-1.73,9.35-2.27,13.96-2.8c3.06-0.35,6.22-0.71,9.26-1.43c0.08-0.06,0.31-0.33,0.49-0.6
								C205.36,92.79,203.24,92.55,201.04,92.55z"/>
						</g>
						<g>
							<path class="st10" d="M123.63,180.5c-10.76,3.92-17.72,17.37-14.16,28.42c0.42,1.39,3.01-1.84,2.92-2.78
								c-1.02-9.92,1.45-18.98,10.75-23.99C123.52,181.96,124.44,180.19,123.63,180.5z"/>
							<path class="st11" d="M109.86,210.5L109.86,210.5c-0.74,0-1.34-0.46-1.57-1.22c-3.7-11.46,3.41-25.74,14.92-29.94l0.58-0.11
								c0.66,0,1.2,0.43,1.35,1.07c0.24,1.01-0.75,2.6-1.45,2.96c-7.8,4.19-11.2,11.86-10.08,22.75c0.14,1.25-1.25,2.86-1.53,3.18
								C111.29,210.07,110.56,210.5,109.86,210.5z M112.89,191.41c-2.8,4.88-3.9,10.73-2.56,16.03c0.38-0.46,0.77-1.04,0.83-1.33
								C110.57,200.42,111.15,195.51,112.89,191.41z"/>
						</g>
						<g>
							<path class="st10" d="M201.76,157.74c-2.54,0.64-5.16-0.31-7.72-0.05c-2.61,0.26-5.22,1.86-7.29,3.34
								c-4.05,2.87-7.37,7.35-8.15,12.33c-0.41,2.31,2.47-0.33,2.78-1.26c1.61-5.1,4.89-8.34,9.77-10.39
								c3.22-1.36,6.92,0.12,9.97-1.74C201.52,159.72,203.01,157.42,201.76,157.74z"/>
							<path class="st11" d="M178.93,175.51L178.93,175.51c-0.48,0-0.91-0.19-1.2-0.55c-0.55-0.65-0.39-1.53-0.34-1.83
								c0.78-4.91,4.01-9.83,8.66-13.12c2.11-1.5,4.92-3.26,7.88-3.55c1.17-0.12,2.39-0.01,3.58,0.11c1.4,0.14,2.87,0.24,3.95-0.03
								l0.51-0.07c0.7,0,1.28,0.42,1.46,1.08c0.35,1.25-1.11,3.12-1.67,3.46c-1.93,1.18-3.98,1.21-5.95,1.24
								c-1.5,0.02-2.92,0.05-4.18,0.58c-4.75,2-7.63,5.07-9.07,9.63C182.22,173.47,180.34,175.51,178.93,175.51z M195.01,158.87
								c-0.28,0-0.56,0.01-0.85,0.04c-2.39,0.24-4.83,1.79-6.7,3.12c-0.86,0.61-1.67,1.28-2.41,2c1.55-1.39,3.42-2.55,5.61-3.47
								c1.71-0.72,3.43-0.75,5.1-0.77c1.5-0.02,2.92-0.05,4.17-0.6c-0.86-0.01-1.78-0.07-2.67-0.16
								C196.51,158.95,195.76,158.87,195.01,158.87z"/>
						</g>
						<g>
							<path class="st10" d="M113.84,265.21c-6.84-9.83-10.34-19.89-2.62-30.43c0.46-0.64,0.18-1.44-0.5-0.64
								c-3.64,4.28-6.32,8.27-6.84,13.96c-0.64,7.19,2.78,14.86,7.79,19.82C112.37,268.63,114.35,265.96,113.84,265.21z"/>
							<path class="st11" d="M111.95,269.28L111.95,269.28c-0.44,0-0.85-0.17-1.16-0.47c-5.59-5.53-8.79-13.69-8.15-20.81
								c0.54-5.83,3.12-9.93,7.13-14.65c0.44-0.51,0.93-0.77,1.44-0.77h0.76l0.53,0.79c0.32,0.62,0.21,1.46-0.28,2.14
								c-6.31,8.62-5.51,17.29,2.64,29.01c0.31,0.46,0.54,1.26-0.13,2.53C114.6,267.27,113.5,269.28,111.95,269.28z M105.74,244.77
								c-0.31,1.09-0.54,2.23-0.65,3.45c-0.55,6.21,2.17,13.35,6.96,18.36c0.24-0.26,0.49-0.65,0.6-0.91
								C108.61,259.81,104.76,252.64,105.74,244.77z"/>
						</g>
						<g>
							<path class="st10" d="M177.65,258.33c-3.32-2.79-6.94-5.71-9.23-9.45c-2.88-4.75-0.29-9.54,2.14-13.7
								c0.66-1.12-0.4-1.13-0.97-0.34c-3.13,4.4-5.37,7.46-5.3,13.11c0.1,6.36,6.08,10.91,11.05,13.63
								C176.45,262.18,178.64,259.16,177.65,258.33z"/>
							<path class="st11" d="M175.66,262.91L175.66,262.91c-0.32,0-0.62-0.07-0.89-0.22c-7.58-4.14-11.62-9.22-11.7-14.7
								c-0.08-5.97,2.33-9.36,5.38-13.65c1.11-1.56,2.75-1.55,3.35-0.51c0.23,0.4,0.38,1.06-0.17,2c-2.61,4.44-4.56,8.45-2.15,12.43
								c2.03,3.33,5.24,6.02,8.35,8.62l0.62,0.52c0.33,0.27,1.04,1.09,0.49,2.62C178.51,261.18,177.18,262.91,175.66,262.91z
								 M165.93,244.1c-0.28,1.16-0.42,2.41-0.4,3.85c0.09,5.64,5.52,9.86,10.17,12.43c0.34-0.23,0.82-0.89,0.94-1.29l-0.4-0.34
								c-3.26-2.73-6.63-5.55-8.87-9.23C166.27,247.7,165.88,245.87,165.93,244.1z"/>
						</g>
						<g>
							<path class="st10" d="M235.53,243.62c-4.11-3.14-7.69-6.59-9.51-11.55c-1.15-3.21-0.59-6.61,0.72-9.61
								c0.6-1.45,0.84-2.36,0.53-3.86c-0.11-0.52-1.04,0.64-1.08,0.9c-0.31,2.64-2.45,4.87-3.09,7.51c-0.5,2.2-0.7,4.52-0.21,6.74
								c1.26,5.93,4.84,10.58,10.41,13.02C234.42,247.24,236.53,244.4,235.53,243.62z"/>
							<path class="st11" d="M233.57,248.05L233.57,248.05c-0.26,0-0.52-0.05-0.75-0.15c-5.83-2.55-9.78-7.48-11.13-13.9
								c-0.47-2.14-0.4-4.52,0.21-7.27c0.33-1.38,0.98-2.59,1.62-3.76c0.68-1.24,1.31-2.42,1.45-3.62c0.08-0.64,1.07-2.12,2.17-2.12
								h0.99l0.34,1.1c0.38,1.77,0.1,2.93-0.59,4.59c-0.96,2.21-1.85,5.49-0.7,8.73c1.82,4.95,5.62,8.33,9.09,10.98
								c0.72,0.57,0.93,1.51,0.57,2.54C236.43,246.38,235.06,248.05,233.57,248.05z M224.18,227.85c-0.42,2.13-0.45,3.98-0.09,5.63
								c1.18,5.55,4.55,9.82,9.5,12.07c0.32-0.18,0.78-0.77,0.92-1.16c-3.68-2.83-7.66-6.48-9.65-11.91
								C224.34,231.03,224.12,229.47,224.18,227.85z"/>
						</g>
						<g>
							<path class="st10" d="M243.28,177.93c-4.98-3.82-10.07-3.59-15.3-0.53c-2.95,1.69-6.05,4.42-6.07,8.06
								c-0.02,0.9,1.26-0.6,1.36-0.94c0.85-3.65,6.12-5.54,9.28-5.7c2.91-0.17,5.73,1.44,8.37,2.41
								C242.09,181.69,244.34,178.76,243.28,177.93z"/>
							<path class="st11" d="M222.07,186.98h-0.52l-0.46-0.4c-0.19-0.2-0.43-0.56-0.42-1.13c0.02-3.41,2.4-6.65,6.69-9.11
								c5.95-3.49,11.59-3.28,16.66,0.62c0.73,0.57,0.94,1.53,0.58,2.56c-0.43,1.26-1.87,3-3.43,3l0,0c-0.25,0-0.48-0.04-0.7-0.13
								c-0.63-0.23-1.27-0.5-1.92-0.77c-1.85-0.77-3.76-1.57-5.59-1.57l-0.35,0.01c-2.92,0.15-7.49,1.93-8.15,4.75
								C224.33,185.29,223.27,186.98,222.07,186.98z M232.97,177.58c2.33,0,4.48,0.9,6.55,1.76c0.62,0.26,1.23,0.51,1.83,0.74
								c0.15-0.11,0.79-0.9,0.94-1.36c-4.11-3.05-8.39-3.21-13.27-0.49c1.21-0.37,2.41-0.58,3.47-0.64
								C232.65,177.59,232.81,177.58,232.97,177.58z"/>
						</g>
						<g>
							<path class="st10" d="M248.19,127.87c-1.64-5.31-8.95-6.52-13.69-6.28c-4.95,0.23-9.59,2.85-12.75,6.58
								c-0.68,0.81-0.7,2.34,0.49,1.14c3.34-3.34,7.94-4.09,12.49-3.71c4.8,0.37,7.06,3.38,10.89,5.43
								C246.89,131.71,248.51,128.89,248.19,127.87z"/>
							<path class="st11" d="M246.03,132.37L246.03,132.37c-0.35,0-0.68-0.09-0.98-0.25c-1.28-0.69-2.38-1.46-3.44-2.21
								c-2.17-1.53-4.03-2.85-6.97-3.08c-0.67-0.05-1.33-0.09-1.98-0.09c-4.04,0-7.25,1.16-9.54,3.44
								c-0.34,0.34-0.87,0.81-1.57,0.81c-0.58,0-1.09-0.33-1.33-0.85c-0.4-0.87-0.01-2.04,0.59-2.76c3.58-4.23,8.54-6.79,13.63-7.02
								c0.39-0.02,0.79-0.03,1.21-0.03c2.7,0,11.66,0.52,13.72,7.17c0.35,1.1-0.29,2.51-0.93,3.4
								C247.74,131.85,246.88,132.37,246.03,132.37z M232.66,124.28c0.73,0,1.46,0.03,2.18,0.1c3.6,0.28,5.94,1.93,8.19,3.52
								c0.95,0.68,1.94,1.37,3.02,1.97c0.38-0.27,0.97-1.28,0.94-1.7c-1.22-3.94-6.67-5.36-11.35-5.36c-0.37,0-0.74,0.01-1.08,0.03
								c-2.37,0.11-4.77,0.84-6.96,2.08C229.15,124.49,230.84,124.28,232.66,124.28z"/>
						</g>
						<g>
							<path class="st10" d="M291.25,192.5c-0.76,0.07-2.5,2.29-1.36,2.53c9.45,2.08,14.56,12.81,15.28,21.71
								c0.15,1.72,2.54-1.09,2.66-1.88C309.21,205.23,302.56,191.39,291.25,192.5z"/>
							<path class="st11" d="M305.57,218.52L305.57,218.52c-0.74,0-1.53-0.52-1.62-1.68c-0.7-8.57-5.48-18.67-14.33-20.61
								c-0.85-0.18-1.39-0.89-1.33-1.76c0.07-1.22,1.55-3.08,2.85-3.2c4.71-0.46,9.03,1.41,12.42,5.33
								c4.18,4.82,6.39,12.23,5.49,18.44C308.91,216.02,307.14,218.52,305.57,218.52z M291.1,194.07
								c8.97,2.55,14.02,12.34,15.15,21.14c0.18-0.24,0.33-0.46,0.38-0.6c0.76-5.37-1.26-12.14-4.94-16.39
								c-1.95-2.25-5.46-4.96-10.32-4.49C291.34,193.76,291.23,193.9,291.1,194.07z"/>
						</g>
						<g>
							<path class="st10" d="M312.85,151.87c-0.59,0.09-1.95,2.13-1.04,2.27c9.91,1.11,14.36,9.48,17.84,17.76
								c0.48,1.12,2.27-1.46,2.24-2.12C331.25,159.77,323.52,150.34,312.85,151.87z"/>
							<path class="st11" d="M330.01,173.41L330.01,173.41c-0.66,0-1.21-0.39-1.49-1.03c-3.23-7.68-7.46-15.96-16.85-17.01
								c-0.86-0.13-1.4-0.77-1.4-1.59c-0.01-1.13,1.23-2.94,2.39-3.12c11.74-1.68,19.82,8.87,20.46,19.04
								c0.06,1.04-1,2.39-1.41,2.82C331.14,173.12,330.59,173.41,330.01,173.41z M313.2,153.1c9.37,1.64,13.81,9.55,17.12,17.22
								c0.17-0.25,0.31-0.5,0.35-0.65c-0.58-8.68-7.37-17.92-17.44-16.6C313.22,153.07,313.21,153.08,313.2,153.1z"/>
						</g>
						<g>
							<path class="st10" d="M355.16,120.81c-1.59-1.62-3.36-3.01-5.47-3.88c-2.53-1.02-5.66,0.04-8.25,0.04
								c-0.73,0-2.27,2.05-1.27,2.31c1.95,0.55,3.98,0.66,5.98,0.93c2.16,0.3,3.84,2.38,5.34,3.8c3.09,2.95,5.48,6.59,7.49,10.34
								c0.71,1.33,2.82-1.75,2.74-2.62C361.14,127.27,358.24,123.9,355.16,120.81z"/>
							<path class="st11" d="M359.45,135.91L359.45,135.91c-0.66,0-1.23-0.36-1.56-0.98c-2.27-4.25-4.64-7.53-7.25-10.03
								c-0.27-0.25-0.54-0.53-0.83-0.81c-1.15-1.15-2.46-2.47-3.83-2.66c-0.52-0.07-1.03-0.13-1.55-0.19
								c-1.5-0.17-3.06-0.35-4.59-0.78c-0.83-0.21-1.33-0.96-1.21-1.86c0.14-1.11,1.48-2.87,2.81-2.87c0.78,0,1.64-0.11,2.56-0.23
								c2.14-0.27,4.49-0.4,6.16,0.27c2.04,0.84,3.96,2.2,5.89,4.17c2.99,3,6.25,6.64,6.9,11.62c0.1,1.08-0.83,2.52-1.49,3.24
								C360.79,135.54,360.11,135.91,359.45,135.91z M341.48,118.33c1.05,0.22,2.11,0.34,3.22,0.47c0.53,0.06,1.07,0.12,1.61,0.19
								c2.2,0.3,3.89,2,5.25,3.36c0.27,0.27,0.52,0.53,0.77,0.76c2.66,2.55,5.07,5.81,7.36,9.97c0.36-0.43,0.75-1.07,0.79-1.36
								c-0.54-4.06-3.48-7.32-6.2-10.04c-1.69-1.73-3.35-2.91-5.06-3.62c-1.18-0.48-3.09-0.34-4.92-0.11
								c-0.88,0.11-1.8,0.23-2.68,0.25C341.58,118.23,341.53,118.28,341.48,118.33z"/>
						</g>
						<g>
							<path class="st10" d="M356.35,222.28c-0.75-0.4-2.14,1.54-1.52,2.11c10.33,9.35,6.63,26.38-2.03,35.2
								c-0.89,0.92-1.55,3.78,0.46,2.29C363.57,254.1,371.07,229.87,356.35,222.28z"/>
							<path class="st11" d="M352.35,263.53L352.35,263.53c-0.65,0-1.22-0.38-1.48-0.99c-0.49-1.15,0.29-3.03,1.04-3.81
								c5.03-5.12,8.15-13,7.94-20.08c-0.16-5.41-2.18-10.02-5.85-13.34c-0.58-0.52-0.72-1.35-0.38-2.23
								c0.39-1.01,1.4-2.08,2.5-2.08h0.31l0.5,0.2c5.2,2.68,8.25,7.52,8.8,14.01c0.83,9.75-4.43,22.15-11.73,27.65
								C353.38,263.32,352.86,263.53,352.35,263.53z M356,223.79c3.97,3.75,6.15,8.85,6.32,14.78c0.15,5.1-1.2,10.43-3.69,15.09
								c3.22-5.52,5.14-12.49,4.65-18.25c-0.32-3.82-1.84-8.94-7.16-11.86C356.09,223.62,356.04,223.71,356,223.79z"/>
						</g>
						<g>
							<path class="st10" d="M401.32,211.78c-0.5-0.77-1.92,1.14-1.67,1.8c1.76,4.26,3.86,8.34,5.22,12.71
								c2.4,7.58-2.34,14.19-6.29,20.17c-0.61,0.93-0.81,3.29,0.79,1.8c4.63-4.35,7.49-9.82,9.09-15.93
								C410.52,224.52,405.34,217.95,401.32,211.78z"/>
							<path class="st11" d="M398.53,249.96L398.53,249.96c-0.59,0-1.11-0.31-1.39-0.83c-0.55-1.02-0.08-2.6,0.4-3.35l0.53-0.8
								c3.8-5.72,7.73-11.63,5.62-18.32c-0.9-2.89-2.16-5.73-3.39-8.47c-0.61-1.37-1.22-2.75-1.8-4.15
								c-0.36-0.92,0.16-1.88,0.5-2.38c0.33-0.49,1.04-1.3,2-1.3c0.55,0,1.04,0.27,1.34,0.74l1.24,1.88
								c3.78,5.68,8.06,12.11,6.06,19.67c-1.77,6.73-4.95,12.29-9.44,16.51C399.83,249.5,399.25,249.96,398.53,249.96z
								 M400.91,213.38c0.53,1.26,1.09,2.53,1.66,3.81c1.25,2.8,2.54,5.71,3.49,8.73c2,6.32-0.54,11.91-3.67,16.96
								c2.17-3.11,3.8-6.74,4.88-10.86c1.72-6.49-2.07-12.17-5.73-17.68L400.91,213.38z"/>
						</g>
						<g>
							<path class="st10" d="M305.8,259.98c-0.4-1.01-2.36,1.43-2.12,2.32c1.18,4.01,1.5,8.27-0.34,12.16
								c-1.98,4.23-6.88,5.98-10.96,7.47c-0.74,0.28-2.91,3.49-1.56,3.37C303.05,284.18,310.44,271.02,305.8,259.98z"/>
							<path class="st11" d="M290.75,286.54c-0.8,0-1.43-0.51-1.57-1.28c-0.25-1.43,1.69-4.09,2.77-4.48
								c4.09-1.49,8.53-3.13,10.27-6.84c1.49-3.15,1.57-6.85,0.27-11.29c-0.29-1.1,0.51-2.31,0.88-2.78
								c0.47-0.62,1.23-1.36,2.12-1.36c0.65,0,1.21,0.39,1.46,1.02c2.38,5.65,1.86,12.27-1.38,17.68
								c-3.22,5.36-8.55,8.76-14.63,9.32L290.75,286.54z M301,279.14c-2.42,1.83-5.42,2.94-8.03,3.89
								c-0.19,0.12-0.48,0.46-0.75,0.84C295.58,283.24,298.62,281.6,301,279.14z M305.12,261.67c-0.12,0.19-0.21,0.38-0.23,0.5
								c0.69,2.28,1.01,4.48,0.98,6.55C306.11,266.34,305.87,263.94,305.12,261.67z"/>
						</g>
						<g>
							<path class="st10" d="M216.44,299.03c-9.53-1.51-23.12-1.02-23.51-13.93c-0.06-1.32-2.08,0.95-2.12,1.77
								c-0.65,13.34,12.68,17.01,23.79,15.58C215.56,302.31,217.96,299.3,216.44,299.03z"/>
							<path class="st11" d="M210.13,303.97L210.13,303.97c-7.17,0-13.1-2.07-16.69-5.85c-2.78-2.92-4.09-6.73-3.86-11.32
								c0.06-1.16,1.71-3.35,3.08-3.35c0.69,0,1.46,0.5,1.51,1.58c0.3,10.04,9.38,11.13,18.16,12.2c1.49,0.18,2.94,0.35,4.3,0.57
								c0.95,0.17,1.54,0.87,1.53,1.79c-0.01,1.5-1.97,3.86-3.37,4.07C213.22,303.88,211.66,303.97,210.13,303.97z M192.01,287.97
								c0.03,3.37,1.1,6.24,3.21,8.46c3.08,3.23,8.51,5.08,14.91,5.08l0,0c1.43,0,2.89-0.09,4.32-0.27
								c0.19-0.11,0.66-0.65,0.97-1.11c-1.09-0.16-2.23-0.29-3.39-0.43C203.88,298.7,193.91,297.5,192.01,287.97z"/>
						</g>
						<g>
							<path class="st10" d="M162.86,315.69c-7.03-7.04-17.52-16.37-11.25-27.31c0.57-1.04-0.37-1.09-0.9-0.33
								c-7.1,10.51-1.26,25.57,9.89,30.82C161.74,319.44,163.75,316.58,162.86,315.69z"/>
							<path class="st11" d="M160.92,320.17L160.92,320.17c-0.31,0-0.6-0.07-0.87-0.2c-6.15-2.89-10.96-8.72-12.85-15.57
								c-1.69-6.12-0.8-12.18,2.49-17.05c0.86-1.22,2.53-1.34,3.13-0.33c0.22,0.38,0.39,1.03-0.12,1.94
								c-5.44,9.48,2.98,17.84,9.75,24.55l1.29,1.29c0.65,0.65,0.76,1.65,0.31,2.75C163.5,318.86,162.26,320.17,160.92,320.17z
								 M148.83,298.48c0.01,1.73,0.26,3.5,0.75,5.27c1.68,6.1,5.92,11.29,11.37,13.92c0.34-0.2,0.82-0.87,0.9-1.26l-1.14-1.13
								C156.09,310.71,150.36,305.02,148.83,298.48z"/>
						</g>
						<g>
							<path class="st10" d="M170.1,348.54c-9.91,3.35-18.63,0.35-26.73-5.72c-7.91-5.92-10.83-13.55-11.12-23.15
								c-0.03-0.85-1.31,0.55-1.35,0.97c-1.49,11.15,0.91,18.94,9.19,26.76c8.13,7.65,19.19,10.54,28.98,4.66
								C169.78,351.66,171.93,347.92,170.1,348.54z"/>
							<path class="st11" d="M158.03,356.43c-6.54,0-13.21-2.89-18.78-8.12c-8.37-7.91-11.15-15.97-9.57-27.82
								c0.09-0.82,1.3-2.31,2.39-2.31c0.68,0,1.38,0.49,1.42,1.45c0.3,10.09,3.57,16.94,10.62,22.21
								c8.88,6.66,17.08,8.41,25.59,5.54c1.1-0.37,2.03,0.1,2.28,1.02c0.41,1.5-1.45,4.24-2.28,4.73
								C166.06,355.32,162.13,356.43,158.03,356.43z M131.69,326.18c-0.07,8.15,2.74,14.18,9.25,20.34
								c8.26,7.77,18.95,9.63,27.5,4.5c0.13-0.12,0.37-0.47,0.59-0.85c-8.73,2.5-17.34,0.45-26.4-6.34
								C136.66,339.34,133.09,333.64,131.69,326.18z"/>
						</g>
						<g>
							<path class="st10" d="M252.22,348.07c-7.26,2.81-13.81,3.92-21.26,1.13c-5.23-1.96-9.35-7.04-14.07-9.96
								c-0.74-0.46-2.28,1.69-1.59,2.22c5.06,3.82,9.41,10.61,15.72,12.49c7.28,2.2,13.59,0.91,20.22-2.57
								C252.04,350.98,253.8,347.46,252.22,348.07z"/>
							<path class="st11" d="M238.08,356.26L238.08,356.26c-2.46,0-4.88-0.37-7.41-1.13c-4.41-1.32-7.81-4.74-11.1-8.06
								c-1.7-1.72-3.32-3.35-5.01-4.62c-0.63-0.48-0.83-1.29-0.53-2.18c0.33-0.96,1.36-2.32,2.63-2.32h0.35l0.53,0.25
								c1.95,1.21,3.8,2.76,5.58,4.27c2.61,2.2,5.31,4.48,8.27,5.59c2.76,1.03,5.46,1.53,8.24,1.53c3.63,0,7.37-0.82,12.14-2.67
								c1.08-0.41,2.04,0.09,2.26,1.04c0.33,1.39-1.22,4.01-2.23,4.53C246.88,355.06,242.51,356.26,238.08,356.26z M216.48,340.81
								c1.67,1.33,3.28,2.95,4.84,4.52c3.07,3.09,6.25,6.3,10.06,7.43c2.3,0.69,4.49,1.03,6.7,1.03l0,0c4.02,0,8.02-1.12,12.59-3.51
								c0.09-0.07,0.22-0.26,0.35-0.48c-7.96,2.89-13.96,3-20.49,0.55c-3.36-1.26-6.23-3.67-9-6.01c-1.67-1.41-3.25-2.74-4.9-3.82
								C216.59,340.61,216.53,340.71,216.48,340.81z"/>
						</g>
						<g>
							<path class="st10" d="M251.02,375.33c-16.44,5.95-32.69,12.35-46.43-2.58c-0.6-0.64-2.47,1.75-1.8,2.55
								c12.79,16.02,31.09,11.48,47.28,3.19C250.81,378.11,252.58,374.76,251.02,375.33z"/>
							<path class="st11" d="M224.49,387.25C224.49,387.25,224.49,387.25,224.49,387.25c-9.11,0-16.73-3.76-22.66-11.18
								c-0.29-0.34-0.72-1.16-0.1-2.5c0.35-0.75,1.34-2.16,2.61-2.16c0.44,0,0.85,0.18,1.15,0.49c5.45,5.93,11.74,8.8,19.25,8.8
								c7.85,0,15.99-2.96,24.62-6.08l1.24-0.45c1.05-0.38,2,0.11,2.22,1.04c0.32,1.34-1.21,3.88-2.19,4.38
								C240.57,384.75,232.01,387.25,224.49,387.25z M203.92,374.73c10.19,12.55,24.5,13.46,45.6,2.66
								c0.05-0.04,0.12-0.15,0.21-0.29c-8.3,3.01-16.86,6.06-24.98,6.06c-7.98,0-14.69-2.94-20.5-8.99
								C204.1,374.36,203.97,374.57,203.92,374.73z"/>
						</g>
						<g>
							<path class="st10" d="M332.75,325.87c-3.19,9.54-11.09,12.16-20.19,13.77c-1.09,0.22-3.15,3.9-1.77,3.8
								c11.51-0.7,20.86-7.15,23.98-18.49C335.21,323.36,332.97,325.14,332.75,325.87z"/>
							<path class="st11" d="M310.74,344.67c-0.87,0-1.54-0.61-1.63-1.49c-0.15-1.5,1.65-4.44,3.21-4.75
								c9.8-1.74,16.43-4.5,19.26-12.95c0.27-0.88,1.84-2.4,3.01-2.4h0.61l0.55,0.57c0.32,0.42,0.39,0.97,0.2,1.64
								c-3.12,11.36-12.5,18.61-25.08,19.38L310.74,344.67z M326.18,336.38c-4.02,2.57-8.84,3.67-13.41,4.48
								c-0.18,0.12-0.58,0.71-0.88,1.26C317.53,341.55,322.41,339.56,326.18,336.38z"/>
						</g>
						<g>
							<path class="st10" d="M368.61,328.3c-0.74,13.92-17.12,15.75-27.68,18.4c-0.91,0.23-3.47,3.61-1.77,3.87
								c13.19,2.03,32.5-9.64,31.75-24.19C370.85,324.95,368.67,327.45,368.61,328.3z"/>
							<path class="st11" d="M342.27,352.04L342.27,352.04c-1.14,0-2.25-0.08-3.3-0.25c-0.93-0.14-1.57-0.83-1.62-1.75
								c-0.08-1.62,1.96-4.2,3.27-4.53c1.28-0.32,2.64-0.63,4.05-0.95c10.36-2.35,22.1-5.01,22.7-16.33
								c0.08-1.09,1.78-3.52,3.24-3.52c0.7,0,1.47,0.5,1.53,1.61c0.27,5.32-1.91,10.58-6.31,15.21
								C359.87,347.81,350.4,352.04,342.27,352.04z M340.01,349.45c7.8,0.89,17.94-3.18,24.04-9.61c0.11-0.12,0.22-0.24,0.33-0.36
								c-5.11,4.3-12.86,6.06-19.16,7.49c-1.39,0.32-2.73,0.62-3.99,0.94C340.97,348.05,340.33,348.85,340.01,349.45z"/>
						</g>
					</g>
				</g>
			</g>
		</g>
	</g>
	<g>
		<g>
			<path class="st4" d="M352.83,272.2c-0.78,3.51-1.66,7-2.64,10.44c-1.96,6.89-4.25,13.67-6.97,20.23
				c-5.38,13.15-12.39,25.58-21.33,36.2c-4.49,5.3-9.47,10.1-14.87,14.28c-5.42,4.17-11.28,7.64-17.48,10.34
				c-6.19,2.71-12.65,4.7-19.27,5.9c-3.31,0.62-6.66,1.03-10.01,1.3c-3.36,0.28-6.7,0.33-10.14,0.31
				c-6.82,0.09-13.52-0.39-20.16-1.61c-6.63-1.2-13.09-3.2-19.27-5.89c-6.2-2.7-12.06-6.18-17.48-10.35
				c-5.4-4.19-10.38-8.98-14.87-14.28c-8.96-10.62-15.96-23.06-21.34-36.2c-2.72-6.58-5.01-13.35-6.97-20.24
				c-0.97-3.44-1.86-6.93-2.64-10.44c-0.36-1.6-0.71-3.21-1.02-4.85c3.33,4.97,9.76,13.16,20.35,21.41
				c15.06,11.71,41.72,25.65,83.34,25.82h0.74l0,0c41.63-0.17,68.28-14.11,83.34-25.82c9.68-7.54,15.9-15.03,19.43-20.05
				C353.35,269.88,353.09,271.04,352.83,272.2z"/>
		</g>
		<g>
			<path class="st12" d="M352.14,268.08c-3.65,4.98-9.63,11.92-18.6,18.9c-15.05,11.72-41.71,25.66-83.33,25.82l0,0h-0.74
				c-41.63-0.16-68.29-14.11-83.33-25.82c-8.75-6.8-14.65-13.57-18.33-18.52c17.1,30.18,48.49,66.48,100.81,67.62v0.05
				c0.42,0,0.83-0.02,1.26-0.03c0.41,0,0.83,0.03,1.26,0.03v-0.05C303.66,334.95,335.09,298.34,352.14,268.08z"/>
		</g>
		<g>
			<path class="st0" d="M304.13,355.18c-14.55-8.89-31.93-14.82-52.59-15.28v-0.04c-0.42,0-0.84,0.02-1.26,0.02
				c-0.41-0.01-0.83-0.02-1.27-0.02v0.04c-20.94,0.46-38.53,6.56-53.2,15.66c4.56,3.2,9.41,5.93,14.47,8.14
				c6.18,2.69,12.65,4.7,19.28,5.89c6.64,1.23,13.33,1.7,20.15,1.61c3.44,0.01,6.78-0.04,10.13-0.31c3.37-0.27,6.7-0.68,10.01-1.3
				c6.62-1.21,13.1-3.19,19.28-5.9C294.39,361.4,299.42,358.54,304.13,355.18z"/>
		</g>
		<g>
			<g>
				<path class="st13" d="M329.18,256.52c3.88-1.66,8.08-2.35,12.33-2.35c4.24,0.05,8.62,0.91,12.59,3.09
					c3.96,2.13,7.3,5.79,8.98,10.07c1.72,4.27,2.01,8.87,1.25,13.14c-0.96-4.22-2.12-8.25-4.13-11.62c-1.96-3.38-4.73-6-8.02-7.8
					c-3.29-1.81-7.05-2.87-10.93-3.53C337.36,256.87,333.33,256.62,329.18,256.52z"/>
			</g>
			<g>
				<path class="st13" d="M170.76,256.52c-4.16,0.11-8.17,0.35-12.07,1c-3.89,0.66-7.64,1.71-10.93,3.53
					c-3.3,1.8-6.06,4.42-8.02,7.8c-2.01,3.38-3.17,7.4-4.14,11.62c-0.76-4.28-0.45-8.88,1.26-13.14c1.69-4.28,5.02-7.94,8.98-10.07
					c3.96-2.17,8.35-3.03,12.58-3.09C162.68,254.17,166.89,254.85,170.76,256.52z"/>
			</g>
		</g>
		<g>
			<g>
				<path class="st13" d="M250.34,314.46h-0.74c-41.61-0.17-68.25-14.11-83.3-25.81c-16.51-12.84-22.93-25.59-23.21-26.13l3.65-1.97
					c0.06,0.12,6.37,12.55,22.21,24.81c14.59,11.28,40.47,24.73,81.03,24.81c77.85-0.15,102.99-49.13,103.23-49.62l3.65,1.97
					c-0.27,0.54-6.69,13.29-23.2,26.13C318.61,300.35,291.96,314.29,250.34,314.46L250.34,314.46z"/>
			</g>
			<g>
				<path class="st13" d="M144.92,261.54c0.51,3.57,1.21,7.1,2,10.61c0.79,3.5,1.66,6.98,2.64,10.43
					c1.95,6.89,4.23,13.67,6.95,20.25c5.38,13.14,12.37,25.59,21.33,36.23c4.49,5.29,9.46,10.09,14.87,14.28
					c5.42,4.17,11.3,7.66,17.49,10.36c6.18,2.7,12.66,4.7,19.29,5.91c6.64,1.23,13.34,1.69,20.16,1.6
					c3.44,0.02,6.78-0.04,10.14-0.31c3.36-0.27,6.7-0.69,10.02-1.3c6.63-1.21,13.1-3.2,19.29-5.91c6.19-2.7,12.06-6.19,17.48-10.36
					c5.41-4.18,10.38-8.99,14.88-14.29c8.94-10.62,15.95-23.07,21.32-36.22c2.71-6.57,5-13.34,6.95-20.24
					c0.98-3.45,1.85-6.93,2.63-10.44c0.79-3.49,1.5-7.03,2.01-10.6c-0.53,7.2-1.72,14.35-3.26,21.41
					c-1.57,7.06-3.58,14.02-5.99,20.84c-4.9,13.6-11.58,26.66-20.63,37.97c-8.95,11.34-20.46,20.65-33.48,26.58
					c-13.02,5.96-27.37,8.36-41.36,8.22c-13.99,0.13-28.34-2.26-41.36-8.22c-13.01-5.93-24.53-15.25-33.48-26.59
					c-9.04-11.3-15.72-24.38-20.62-37.97c-2.41-6.82-4.44-13.78-5.99-20.84C146.63,275.89,145.45,268.74,144.92,261.54z"/>
			</g>
		</g>
		<g>
			<g>
				<path class="st13" d="M371.84,264.98c0.2-3.07,0.39-6.07,0.22-8.94c-0.17-2.81-0.84-5.66-2.49-6.95
					c-0.81-0.63-1.97-0.98-3.26-1.13c-1.29-0.14-2.67-0.11-4.07-0.03c-2.82,0.13-5.74,0.52-8.7,0.39c2.74-1.17,5.46-2.19,8.38-2.87
					c1.46-0.31,2.97-0.56,4.58-0.51c1.58,0.06,3.36,0.4,4.9,1.58c1.54,1.21,2.38,2.96,2.79,4.61c0.4,1.69,0.44,3.35,0.3,4.95
					C374.2,259.26,373.3,262.27,371.84,264.98z"/>
			</g>
			<g>
				<path class="st13" d="M128.61,264.98c-1.46-2.7-2.36-5.71-2.66-8.89c-0.14-1.6-0.09-3.26,0.31-4.95
					c0.41-1.66,1.25-3.4,2.79-4.61c1.54-1.18,3.32-1.52,4.91-1.58c1.61-0.04,3.12,0.2,4.58,0.51c2.91,0.68,5.64,1.7,8.38,2.87
					c-2.98,0.12-5.89-0.26-8.7-0.39c-1.41-0.08-2.79-0.11-4.08,0.03c-1.29,0.15-2.45,0.5-3.26,1.13c-1.64,1.29-2.31,4.14-2.48,6.95
					C128.22,258.91,128.41,261.9,128.61,264.98z"/>
			</g>
		</g>
		<g>
			<g>
				<path class="st13" d="M127.83,160.2c1.97-3.86,4.45-7.42,7.11-10.84c2.67-3.41,5.6-6.65,8.74-9.71
					c6.3-6.08,13.48-11.48,21.65-15.5c2.05-0.99,4.15-1.9,6.3-2.72c2.16-0.77,4.38-1.48,6.65-1.99c4.53-1.07,9.28-1.57,13.99-1.21
					c4.7,0.36,9.34,1.54,13.45,3.55c4.14,2.01,7.76,4.75,10.63,8.03c-4.03-1.8-8.04-3.26-12.09-4.08
					c-4.03-0.84-8.06-1.08-12.04-0.78c-7.95,0.58-15.6,3.24-22.9,6.81c-7.31,3.59-14.3,8.09-21.12,12.95
					C141.35,149.58,134.7,154.82,127.83,160.2z"/>
			</g>
			<g>
				<path class="st13" d="M371.92,160.2c-5.82-5.39-11.55-10.43-17.52-15.05c-5.96-4.62-12.15-8.79-18.67-12.21
					c-6.52-3.42-13.38-6.1-20.64-7.77c-7.26-1.72-14.87-2.29-22.95-2.31c7.25-3.49,15.64-4.88,23.97-4.34
					c8.34,0.55,16.54,3.06,23.84,6.92c7.32,3.85,13.78,8.99,19.23,14.87c2.71,2.95,5.18,6.08,7.34,9.39
					C368.66,153.02,370.6,156.48,371.92,160.2z"/>
			</g>
		</g>
		<g>
			<g>
				<g>
					<path class="st13" d="M373.87,212.19c-3.05-6.6-6.64-12.85-11-18.45c-4.29-5.63-9.33-10.62-14.92-14.69
						c-5.63-4.01-11.84-7.11-18.37-8.58c-6.51-1.5-13.29-1.31-19.47,0.86c-6.2,2.1-11.67,6.11-15.88,11.29
						c-4.26,5.18-7.27,11.46-9.26,18.09c-0.99,3.31-1.64,6.75-2.11,10.22c-0.49,3.48-0.69,7.01-0.67,10.55
						c-0.01,7.1,0.99,14.24,2.59,21.33c-6.02-13.2-8.19-28.62-5-43.43c1.56-7.39,4.62-14.6,9.33-20.81
						c2.37-3.08,5.17-5.88,8.33-8.25c3.18-2.34,6.72-4.2,10.45-5.5c3.75-1.28,7.69-1.98,11.63-2.08c3.94-0.08,7.87,0.41,11.62,1.4
						c7.52,1.99,14.34,5.83,20.1,10.69C362.81,184.55,370.53,198.06,373.87,212.19z"/>
				</g>
			</g>
			<g>
				<g>
					<path class="st13" d="M125.87,212.19c3.34-14.14,11.06-27.65,22.65-37.36c5.76-4.86,12.58-8.7,20.1-10.69
						c3.75-0.99,7.68-1.48,11.62-1.4c3.94,0.09,7.89,0.8,11.63,2.08c3.73,1.3,7.27,3.17,10.45,5.5c3.16,2.37,5.96,5.17,8.32,8.25
						c4.7,6.21,7.77,13.42,9.33,20.81c3.2,14.8,1.02,30.22-5.01,43.43c1.61-7.09,2.61-14.23,2.6-21.33
						c0.01-3.55-0.18-7.08-0.67-10.55c-0.48-3.47-1.13-6.91-2.12-10.22c-1.99-6.63-4.99-12.9-9.25-18.09
						c-4.22-5.18-9.69-9.19-15.89-11.29c-6.17-2.17-12.95-2.36-19.47-0.86c-6.53,1.47-12.75,4.57-18.37,8.58
						c-5.59,4.08-10.63,9.06-14.92,14.69C132.52,199.35,128.94,205.59,125.87,212.19z"/>
				</g>
			</g>
		</g>
	</g>
</g>
</svg>
