<?xml version="1.0" encoding="utf-8"?>
<!-- Generator: Adobe Illustrator 25.4.1, SVG Export Plug-In . SVG Version: 6.00 Build 0)  -->
<svg version="1.1" id="Layer_1" xmlns="http://www.w3.org/2000/svg" xmlns:xlink="http://www.w3.org/1999/xlink" x="0px" y="0px"
	 viewBox="0 0 500 500" style="enable-background:new 0 0 500 500;" xml:space="preserve">
<style type="text/css">
	.st0{fill:#D0E5F6;}
	.st1{fill:#338CCC;}
	.st2{fill:#C6E8ED;}
	.st3{fill:#93CBDC;}
	.st4{fill:#228FB9;}
	.st5{opacity:0.3;}
	.st6{fill:#6091B1;}
	.st7{fill:#1CA8C0;}
	.st8{fill:#323031;}
	.st9{fill:#231F20;}
	.st10{fill:#FFFFFF;}
	.st11{fill:#5184A6;}
</style>
<g id="beta8">
	<g>
		<g>
			<g>
				<g>
					<path class="st0" d="M6.78,248.82c1.2,42.56,11.47,86.78,33.19,123.49C96.15,467.28,186.16,472.14,285,474.18
						c52.75,1.09,111.21-5.38,150.73-45.14c50.05-50.35,62.69-129.78,57.92-198.61c-3.05-43.95-14.2-85.07-40.04-120.88
						c-24.08-33.37-55.91-62.17-92.66-80.08C320.7,9.86,276.73,4.96,232.54,7.06c-40.75,1.94-81.64,9-118.17,28.41
						c-36.85,19.59-65.58,49.8-83.4,88.24C13.04,162.42,5.57,206.12,6.78,248.82z"/>
					<path class="st1" d="M284.41,475.49C191.86,473.58,96.15,471.62,37.66,373C11.67,329.18,5.12,281.31,4.2,248.87
						c-1.28-45.15,7.15-88.61,24.39-125.7c17.83-38.38,46.94-69.09,84.19-88.83c32.39-17.17,70.21-26.25,119.02-28.57
						c5.34-0.25,10.65-0.4,15.77-0.44c43.93-0.33,81.08,7.18,113.58,22.98c35.47,17.24,67.76,45.07,93.39,80.48
						c23.78,32.86,36.99,72.62,40.39,121.56c7.96,114.66-33.21,174.29-58.46,199.63c-30.53,30.63-74.44,45.13-138.18,45.61
						c0,0,0,0-0.01,0C293.84,475.62,289.17,475.59,284.41,475.49z M231.91,8.37c-48.43,2.3-85.91,11.29-117.96,28.28
						C77.2,56.12,48.48,86.42,30.89,124.28C13.83,161,5.48,204.06,6.75,248.79c0.91,32.13,7.39,79.53,33.09,122.86
						c57.77,97.39,152.76,99.34,244.62,101.23c4.74,0.1,9.38,0.13,13.79,0.1c0,0,0.01,0,0.01,0
						c63.04-0.48,106.38-14.73,136.41-44.87c24.94-25.03,65.6-83.97,57.7-197.6c-3.36-48.42-16.42-87.74-39.9-120.19
						c-25.38-35.07-57.34-62.62-92.43-79.68C327.9,15.03,291.12,7.6,247.58,7.93C242.5,7.97,237.22,8.12,231.91,8.37z"/>
				</g>
				<path class="st2" d="M5.48,248.83c1.21,42.56,11.5,86.78,33.28,123.49c56.33,94.96,146.58,99.82,245.69,101.86
					c52.89,1.09,111.5-5.38,151.13-45.14c50.18-50.35,62.86-129.78,58.08-198.61c-3.05-43.95-14.24-85.07-40.15-120.87
					c-24.15-33.37-56.06-62.17-92.91-80.08C320.24,9.86,276.16,4.96,231.85,7.07c-40.86,1.94-81.86,9-118.49,28.42
					c-36.95,19.59-65.76,49.8-83.62,88.24C11.76,162.43,4.26,206.13,5.48,248.83z M91.44,208.55c3.42-8.1,9.37-14.88,14.62-21.77
					c5.27-6.92,9.09-13.74,10.6-22.02c-0.73-5.33-0.73-10.15,0.64-15.08c-0.19-5.45-0.47-10.9,0.33-16.31
					c1.43-9.63,7.42-18.02,10.6-27.1c2.7-7.71,4.96-15.65,9.83-22.3c5.44-7.42,13.73-10.9,22.24-13.26
					c4.94-1.37,9.95-2.38,14.83-4.01c6.19-2.07,11.21-5.68,15.74-10.39c6.52-6.79,11.68-14.64,19.45-20.11
					c9.25-6.51,21.44-8.5,32.43-8.94c12.15-0.48,24.31,1.74,36.15,4.25c9.15,1.94,18.22,4.39,27.45,5.85
					c7.52,1.18,15.11,1.86,22.68,2.61c17.32,1.71,35.22,3.3,51.36,10.44c9.41,4.15,16.82,10.57,22.01,18.68
					c11.09,11.06,19.43,25.25,29.97,36.7c13.17,14.3,26.82,28.21,33.36,47.11c4.02,11.65,5.01,24.54,7.09,36.64
					c2.29,13.29,4.74,26.55,7.43,39.75c2,9.86,2.46,19.86,0.52,29.77c-1.83,9.33-6,18.03-10.37,26.36
					c-5.36,10.24-11.24,19.67-13.92,31.08c-2.44,10.36-3.13,21.04-5.68,31.37c-4.84,19.65-19.73,34.89-37.79,42.6
					c-8.86,3.78-18.49,5.39-28.04,5.84c-10.69,0.51-21.04-1.71-31.65-2.03c-10.55-0.32-20.29,2.95-29.54,7.85
					c-9.64,5.11-18.19,11.87-28.95,14.41c-9.07,2.15-18.5,1.04-27.7,0.61c-5.04-0.24-10.07-0.18-15.09,0.33
					c-5.82,0.59-11.4,2.68-16.88,4.64c-8.84,3.15-17.61,5.91-26.97,3.55c-10.75-2.72-17.47-11.91-24.4-19.96
					c-3.94-4.57-8.05-8.57-13.31-11.52c-5.22-2.93-11.07-4.43-16.83-5.8c-9.61-2.29-18.86-4.76-26.85-10.92
					c-12.55-9.68-15.31-25.64-15.47-40.75c-0.11-10.36,1.25-20.68,0.67-31.04c-0.03-0.5-0.1-0.99-0.14-1.49
					c-0.14-1.31-0.28-2.63-0.41-3.94c-1.47-10.62-5.28-20.16-9.58-30.11C93.57,250.92,82.54,229.62,91.44,208.55z"/>
				<path class="st2" d="M29.74,123.73c17.87-38.44,46.67-68.65,83.62-88.24c22.8-12.08,47.29-19.38,72.38-23.63
					c-1.17,0.67-2.34,1.38-3.49,2.17c-6.16,4.27-11.61,9.45-16.95,14.72c-3.46,3.41-6.77,7.27-11.14,9.49
					c-4.44,2.25-9.22,3.31-14.11,3.94c-7.83,1.02-16.31,1.47-23.25,5.74c-7.21,4.44-12.17,11.68-16.23,19.05
					c-5.05,9.19-9.2,19.41-16.47,27.08c-6.86,7.25-14.98,13.18-21.96,20.32c-6.19,6.33-11.61,13.26-15.11,21.52
					c-4.04,9.55-4.1,19.44-3.98,29.65c0.15,12.56-0.42,24.74-3.86,36.88c-3.2,11.34-9.38,22.28-10.36,34.18
					c-1.85,22.73,14.3,41.25,15.19,63.48c0.74,18.54,0.21,37.9,11.72,53.48c6.26,8.46,14.23,15.21,22.05,22.1
					c4,3.52,8,7.13,11.37,11.3c3.48,4.3,5.84,8.92,8.38,13.8c7.89,15.16,19.11,26.52,35.3,32.02c11.26,3.82,22.45,4.69,34.25,4.6
					c12.96-0.09,25.31,0.92,37.73,4.97c19.3,6.28,37.53,16.47,58.42,15.08c12.4-0.82,24.51-4.52,36.68-6.89
					c13.64-2.65,26.33-3.09,40.04-0.77c10.13,1.72,20.71,3.91,30.96,1.94c11.15-2.14,19.98-8.6,28.72-15.63
					c9.5-7.64,18.87-14.78,29.19-21.23c8.06-5.03,15.58-11.03,21.49-18.61c6.45-8.28,10.91-17.52,15.1-27.14
					c4.82-11.05,9.4-22.24,13.12-33.72c3.68-11.36,6.74-23.01,8.18-34.91c0.74-6.16,1.19-12.38,0.95-18.59
					c-0.23-6.08-0.82-12.08-0.64-18.18c0.42-13.44,3.37-26.24,5.14-39.48c0.19-1.44,0.37-2.88,0.54-4.33
					c0.35,3.5,0.67,7.01,0.92,10.55c4.78,68.83-7.9,148.26-58.08,198.61c-39.63,39.76-98.24,46.23-151.13,45.14
					c-99.11-2.04-189.36-6.9-245.69-101.86C16.98,335.61,6.68,291.39,5.48,248.83C4.26,206.13,11.76,162.43,29.74,123.73z"/>
				<g>
					<g>
						<path class="st3" d="M86.48,274.16c-9.45,20.63-0.67,41.95,17.54,47.46c0,0-6.08,32.99,26.29,39.87
							c12.14,30.25,43.14,26.14,43.14,26.14s10.8,24.73,44.5,16.48c14.85,18.57,42.48,12.39,55.97-1.37
							c16.16,13.74,33.12,5.32,48.53-6.19c10.11-7.55,25.63,0.67,38.45-13.74c12.8-14.43,12.8-15.81,22.24-18.57
							c9.42-2.75,16.17-8.93,17.52-32.3c1.35-15.84,14.84-7.58,15.51-34.39c0.67-26.81-1.34-19.93,4.04-30.25
							c5.39-10.32,1.36-15.81-1.35-26.81c-2.69-11.03,6.09-26.13-7.42-41.25c-8.08-9.62-4.72-10.33-6.06-23.36
							c-1.37-13.1-6.74-13.1-12.82-19.28c-4.72-5.49-2.69-22-23.59-33.69c-11.47-5.5-11.47-6.86-17.53-13.05
							c-6.08-6.19-18.89-10.29-29.66-10.29c0,0-16.87-26.83-51.26-18.56c-27.63-13.09-52.59-10.35-66.05,7.53
							c-12.8-5.51-24.96,11.03-24.96,11.03c-22.92-6.22-37.77,10.29-43.82,24.03c-25.63-4.11-41.12,24.74-36.4,42.62
							c0,0-15.51,9.62-12.14,24.08c-16.87,13.72-9.46,37.11-6.07,44.67C70.98,251.49,75.7,261.12,86.48,274.16z"/>
						<path class="st4" d="M217.48,405.56c-4.39,1.02-8.63,1.54-12.61,1.54c-21.07,0-30.17-14.4-32.15-18.09
							c-0.68,0.05-1.71,0.11-3.02,0.11l0,0c-8.85,0-30.35-2.6-40.3-26.5c-29.03-6.59-27.49-34.1-26.79-40.09
							c-8.21-2.81-14.68-8.79-18.28-16.95c-4.16-9.42-3.91-20.75,0.66-31.22c-11.06-13.53-14.86-23.53-5.33-39.48
							c-2.15-5.1-11.43-30.07,6.1-45.07c-2.49-12.99,8.9-21.94,12.09-24.16c-2.12-9.45,0.83-21.21,7.65-30.28
							c7.42-9.87,18.04-14.67,29.45-13.18c5.74-12.38,17.76-25.26,34.87-25.26c3,0,6.1,0.4,9.23,1.18
							c2.13-2.67,10.3-11.98,20.03-11.98c1.7,0,3.38,0.29,4.99,0.86c7.98-10.11,19.68-15.44,33.92-15.44
							c10.23,0,21.22,2.73,32.69,8.1c4.32-1.01,8.59-1.52,12.71-1.52c23.62,0,36.67,16.75,39.08,20.15
							c11.45,0.17,23.93,4.61,29.9,10.68c1.03,1.05,1.88,1.96,2.64,2.77c3.67,3.93,5.19,5.55,14.59,10.05
							c15.19,8.5,18.7,19.71,21.02,27.13c0.91,2.91,1.7,5.43,2.85,6.78c1.5,1.53,2.97,2.67,4.38,3.76c4.15,3.23,7.73,6.02,8.81,16.3
							c0.4,3.88,0.39,6.7,0.38,8.95c-0.02,5.29-0.03,7.26,5.35,13.67c9.4,10.52,8.46,20.89,7.62,30.04
							c-0.39,4.28-0.75,8.31,0.09,11.76c0.58,2.34,1.21,4.4,1.81,6.39c2.18,7.14,3.9,12.78-0.58,21.35
							c-0.6,1.14-1.11,2.08-1.54,2.88c-2.22,4.11-2.22,4.11-2.2,11.31c0.01,3.25,0.03,8.15-0.15,15.48
							c-0.4,15.93-5.25,20.01-9.52,23.63c-3.05,2.57-5.46,4.6-5.99,10.81c-1.36,23.71-8.36,30.53-18.44,33.47
							c-7.71,2.25-8.74,3.44-16.78,12.65c-1.4,1.6-2.99,3.43-4.87,5.54c-7.84,8.81-16.69,9.53-24.49,10.16
							c-5.27,0.42-10.25,0.83-14.15,3.75c-8.45,6.31-19.63,13.56-31.21,13.56c-6.4,0-12.45-2.25-17.99-6.68
							c-8.07,7.76-19.88,12.54-31.11,12.54C235.63,417.01,225.4,415,217.48,405.56z M274.74,401.74c5.39,4.58,11.04,6.81,17.25,6.81
							c10.84,0,21.57-6.98,29.71-13.06c4.49-3.35,9.81-3.79,15.46-4.25c7.69-0.62,15.64-1.27,22.8-9.32
							c1.87-2.1,3.46-3.93,4.85-5.52c8.11-9.29,9.57-10.97,17.99-13.43c9.29-2.72,15.31-8.87,16.6-31.16
							c0.62-7.32,3.82-10.01,6.91-12.62c4.05-3.41,8.23-6.94,8.6-21.69c0.18-7.28,0.16-12.17,0.15-15.4
							c-0.02-7.58-0.03-7.88,2.52-12.58c0.42-0.79,0.92-1.71,1.52-2.84c3.97-7.62,2.55-12.28,0.39-19.35
							c-0.59-1.93-1.26-4.12-1.86-6.53c-0.95-3.88-0.56-8.14-0.15-12.64c0.78-8.62,1.67-18.38-7-28.08
							c-6.02-7.17-6.01-9.92-5.99-15.4c0.01-2.2,0.02-4.93-0.37-8.67c-0.95-9.17-3.83-11.41-7.82-14.5c-1.41-1.1-3-2.34-4.69-4.06
							c-1.57-1.82-2.43-4.58-3.42-7.77c-2.33-7.44-5.52-17.63-19.74-25.6c-9.76-4.67-11.49-6.52-15.28-10.57
							c-0.76-0.81-1.6-1.71-2.6-2.74c-5.56-5.65-17.92-9.91-28.76-9.91h-0.7l-0.38-0.6c-0.12-0.2-12.56-19.54-37.33-19.54
							c-4.05,0-8.28,0.53-12.55,1.55l-0.43,0.11l-0.4-0.19c-11.27-5.34-22.05-8.05-32.02-8.05c-13.77,0-25.01,5.25-32.49,15.19
							l-0.6,0.8L204,89.75c-1.58-0.68-3.23-1.02-4.92-1.02c-9.84,0-18.44,11.51-18.53,11.63l-0.52,0.7l-0.83-0.22
							c-3.19-0.87-6.35-1.31-9.39-1.31c-16.3,0-27.7,12.72-32.94,24.61l-0.4,0.91l-0.96-0.15c-10.8-1.74-20.94,2.67-27.99,12.05
							c-6.47,8.61-9.28,20.24-6.98,28.94l0.25,0.94l-0.82,0.51c-0.15,0.1-14.68,9.29-11.56,22.67l0.19,0.8l-0.63,0.52
							c-17.82,14.5-7,40.22-5.71,43.11l0.29,0.64l-0.36,0.59c-9.36,15.27-5.75,24.3,5.28,37.64l0.52,0.64l-0.34,0.75
							c-4.57,9.99-4.93,20.85-0.98,29.81c3.45,7.81,9.74,13.44,17.73,15.86l1.1,0.34l-0.21,1.15c-0.24,1.3-5.49,31.81,25.3,38.36
							l0.66,0.14l0.26,0.64c9.24,23.03,29.79,25.52,38.19,25.52c2.22,0,3.58-0.18,3.6-0.18l0.94-0.12l0.39,0.89
							c0.08,0.17,7.85,17.39,30.25,17.39c4.02,0,8.32-0.56,12.79-1.65l0.78-0.19l0.51,0.64c7.35,9.19,17.08,11.12,23.95,11.12
							c10.8,0,22.64-4.94,30.13-12.59l0.83-0.84L274.74,401.74z"/>
					</g>
				</g>
				<g>
					<g class="st5">
						<g>
							<path class="st6" d="M209.58,98.45c-18.05-4.78-41.98,9.7-48.7,26.34c-0.55,1.36,0.89,0.83,1.35,0.12
								c5.87-9.34,12.58-15.6,23-19.49c7.5-2.82,15.4-2.39,23.06-4.18C208.99,101.09,210.8,98.78,209.58,98.45z"/>
							<path class="st7" d="M161.08,126.87L161.08,126.87c-0.54,0-1.01-0.24-1.29-0.66c-0.34-0.5-0.36-1.13-0.06-1.88
								c6.14-15.21,25.58-28.05,42.45-28.05c2.69,0,5.29,0.33,7.71,0.97c0.83,0.22,1.35,0.92,1.32,1.78
								c-0.04,1.29-1.52,3.17-2.68,3.41c-3.15,0.74-6.39,1.11-9.51,1.47c-4.66,0.53-9.05,1.04-13.37,2.66
								c-9.58,3.57-16.27,9.25-22.39,18.99C162.85,126.22,161.96,126.87,161.08,126.87z M202.19,98.75
								c-10.42,0-21.89,5.18-30.2,12.77c3.74-3.09,7.92-5.42,12.81-7.25c4.59-1.73,9.35-2.27,13.95-2.8
								c3.06-0.35,6.22-0.71,9.26-1.42c0.08-0.06,0.31-0.33,0.49-0.6C206.5,98.99,204.39,98.75,202.19,98.75z"/>
						</g>
						<g>
							<path class="st6" d="M124.83,186.64c-10.76,3.91-17.71,17.35-14.15,28.4c0.42,1.39,3.01-1.83,2.91-2.78
								c-1.02-9.91,1.45-18.96,10.74-23.97C124.71,188.09,125.64,186.32,124.83,186.64z"/>
							<path class="st7" d="M111.06,216.61L111.06,216.61c-0.74,0-1.34-0.46-1.57-1.22c-3.7-11.45,3.4-25.72,14.91-29.92l0.58-0.11
								c0.66,0,1.2,0.43,1.35,1.07c0.24,1-0.74,2.6-1.45,2.96c-7.79,4.19-11.19,11.85-10.08,22.74c0.14,1.25-1.25,2.86-1.53,3.17
								C112.49,216.18,111.77,216.61,111.06,216.61z M114.09,197.54c-2.8,4.88-3.9,10.72-2.56,16.02c0.38-0.46,0.77-1.03,0.83-1.33
								C111.77,206.54,112.35,201.63,114.09,197.54z"/>
						</g>
						<g>
							<path class="st6" d="M202.9,163.89c-2.54,0.64-5.16-0.31-7.71-0.05c-2.61,0.26-5.22,1.86-7.29,3.33
								c-4.04,2.87-7.36,7.35-8.15,12.32c-0.41,2.31,2.47-0.33,2.78-1.26c1.61-5.1,4.89-8.33,9.76-10.39
								c3.22-1.36,6.91,0.12,9.97-1.74C202.66,165.86,204.15,163.58,202.9,163.89z"/>
							<path class="st7" d="M180.09,181.64L180.09,181.64c-0.48,0-0.91-0.19-1.2-0.55c-0.55-0.65-0.39-1.53-0.34-1.82
								c0.78-4.91,4.01-9.82,8.65-13.11c2.11-1.5,4.92-3.26,7.88-3.55c1.17-0.12,2.38-0.01,3.58,0.11c1.4,0.14,2.87,0.24,3.95-0.03
								l0.51-0.07c0.7,0,1.28,0.42,1.46,1.08c0.35,1.25-1.11,3.12-1.67,3.45c-1.93,1.18-3.97,1.21-5.95,1.24
								c-1.5,0.02-2.91,0.05-4.17,0.58c-4.75,2-7.63,5.06-9.06,9.63C183.37,179.61,181.5,181.64,180.09,181.64z M196.16,165.02
								c-0.28,0-0.56,0.01-0.85,0.04c-2.39,0.24-4.83,1.79-6.7,3.11c-0.86,0.61-1.67,1.28-2.41,2c1.55-1.39,3.42-2.54,5.61-3.47
								c1.71-0.72,3.43-0.75,5.09-0.77c1.5-0.02,2.92-0.05,4.16-0.6c-0.86-0.01-1.78-0.07-2.66-0.16
								C197.65,165.1,196.9,165.02,196.16,165.02z"/>
						</g>
						<g>
							<path class="st6" d="M115.04,271.28c-6.84-9.83-10.33-19.88-2.62-30.41c0.46-0.63,0.18-1.43-0.5-0.63
								c-3.63,4.28-6.31,8.26-6.84,13.95c-0.64,7.18,2.77,14.85,7.78,19.81C113.58,274.7,115.56,272.04,115.04,271.28z"/>
							<path class="st7" d="M113.15,275.35L113.15,275.35c-0.44,0-0.85-0.17-1.15-0.47c-5.58-5.52-8.78-13.68-8.15-20.8
								c0.54-5.83,3.12-9.93,7.12-14.64c0.44-0.51,0.93-0.77,1.44-0.77h0.75l0.53,0.79c0.32,0.62,0.21,1.46-0.28,2.13
								c-6.3,8.62-5.51,17.28,2.64,28.99c0.31,0.46,0.54,1.26-0.13,2.53C115.81,273.34,114.71,275.35,113.15,275.35z M106.95,250.86
								c-0.31,1.09-0.53,2.23-0.64,3.44c-0.55,6.21,2.17,13.34,6.95,18.35c0.24-0.26,0.49-0.65,0.6-0.91
								C109.82,265.89,105.97,258.73,106.95,250.86z"/>
						</g>
						<g>
							<path class="st6" d="M178.81,264.41c-3.32-2.79-6.94-5.71-9.22-9.44c-2.88-4.75-0.29-9.54,2.14-13.69
								c0.66-1.12-0.4-1.13-0.97-0.33c-3.13,4.39-5.36,7.46-5.29,13.1c0.1,6.35,6.08,10.91,11.05,13.62
								C177.61,268.26,179.79,265.23,178.81,264.41z"/>
							<path class="st7" d="M176.82,268.98L176.82,268.98c-0.32,0-0.62-0.07-0.89-0.22c-7.57-4.13-11.61-9.21-11.69-14.69
								c-0.08-5.97,2.33-9.36,5.38-13.64c1.1-1.56,2.75-1.55,3.34-0.51c0.23,0.4,0.38,1.06-0.17,2c-2.6,4.44-4.56,8.44-2.15,12.42
								c2.03,3.33,5.24,6.02,8.34,8.62l0.62,0.52c0.33,0.27,1.04,1.09,0.49,2.62C179.66,267.26,178.34,268.98,176.82,268.98z
								 M167.1,250.19c-0.28,1.16-0.42,2.41-0.4,3.85c0.09,5.64,5.52,9.85,10.17,12.42c0.34-0.23,0.82-0.89,0.93-1.29l-0.4-0.34
								c-3.26-2.73-6.62-5.55-8.87-9.22C167.43,253.79,167.05,251.96,167.1,250.19z"/>
						</g>
						<g>
							<path class="st6" d="M236.65,249.7c-4.11-3.14-7.68-6.58-9.5-11.54c-1.14-3.21-0.59-6.6,0.72-9.6
								c0.6-1.45,0.84-2.36,0.52-3.85c-0.11-0.52-1.04,0.64-1.08,0.9c-0.31,2.64-2.45,4.86-3.09,7.5c-0.5,2.19-0.7,4.52-0.21,6.73
								c1.26,5.93,4.84,10.57,10.4,13.01C235.53,253.32,237.64,250.49,236.65,249.7z"/>
							<path class="st7" d="M234.69,254.13L234.69,254.13c-0.26,0-0.52-0.05-0.75-0.15c-5.82-2.55-9.77-7.48-11.13-13.89
								c-0.47-2.14-0.4-4.51,0.21-7.26c0.33-1.38,0.98-2.58,1.61-3.75c0.68-1.24,1.31-2.42,1.45-3.62c0.08-0.64,1.07-2.12,2.17-2.12
								h0.99l0.34,1.1c0.38,1.77,0.1,2.93-0.59,4.58c-0.96,2.2-1.85,5.49-0.7,8.72c1.82,4.94,5.61,8.32,9.09,10.98
								c0.72,0.57,0.93,1.51,0.57,2.54C237.55,252.47,236.18,254.13,234.69,254.13z M225.31,233.96c-0.42,2.13-0.45,3.98-0.09,5.62
								c1.17,5.54,4.54,9.82,9.49,12.06c0.32-0.18,0.78-0.77,0.92-1.15c-3.68-2.83-7.66-6.47-9.64-11.9
								C225.47,237.13,225.24,235.57,225.31,233.96z"/>
						</g>
						<g>
							<path class="st6" d="M244.39,184.07c-4.97-3.82-10.07-3.59-15.29-0.52c-2.94,1.68-6.04,4.42-6.06,8.06
								c-0.02,0.9,1.26-0.6,1.36-0.94c0.85-3.64,6.11-5.53,9.27-5.7c2.91-0.17,5.73,1.44,8.36,2.41
								C243.21,187.82,245.45,184.89,244.39,184.07z"/>
							<path class="st7" d="M223.19,193.11h-0.52l-0.46-0.4c-0.19-0.2-0.43-0.56-0.41-1.13c0.02-3.41,2.39-6.65,6.69-9.1
								c5.94-3.49,11.58-3.28,16.65,0.62c0.73,0.57,0.94,1.52,0.58,2.56c-0.43,1.26-1.87,3-3.43,3l0,0c-0.25,0-0.48-0.04-0.7-0.13
								c-0.63-0.23-1.26-0.5-1.92-0.77c-1.84-0.77-3.75-1.57-5.59-1.57l-0.35,0.01c-2.92,0.15-7.49,1.93-8.14,4.75
								C225.46,191.42,224.39,193.11,223.19,193.11z M234.09,183.72c2.33,0,4.47,0.9,6.54,1.76c0.62,0.26,1.23,0.51,1.83,0.74
								c0.15-0.11,0.79-0.9,0.94-1.36c-4.11-3.04-8.38-3.21-13.26-0.49c1.21-0.37,2.41-0.58,3.47-0.64
								C233.76,183.72,233.93,183.72,234.09,183.72z"/>
						</g>
						<g>
							<path class="st6" d="M249.3,134.05c-1.64-5.31-8.94-6.51-13.68-6.27c-4.95,0.23-9.59,2.85-12.74,6.58
								c-0.68,0.81-0.69,2.34,0.49,1.14c3.34-3.34,7.94-4.09,12.48-3.71c4.79,0.37,7.06,3.38,10.88,5.43
								C248,137.88,249.62,135.06,249.3,134.05z"/>
							<path class="st7" d="M247.14,138.54L247.14,138.54c-0.34,0-0.68-0.09-0.98-0.25c-1.28-0.69-2.38-1.46-3.44-2.21
								c-2.16-1.53-4.03-2.85-6.96-3.08c-0.67-0.05-1.32-0.09-1.98-0.09c-4.04,0-7.24,1.16-9.53,3.44c-0.34,0.34-0.87,0.8-1.57,0.8
								c-0.57,0-1.08-0.33-1.33-0.85c-0.4-0.87-0.01-2.04,0.59-2.75c3.57-4.22,8.54-6.78,13.62-7.02c0.39-0.02,0.79-0.03,1.21-0.03
								c2.7,0,11.65,0.52,13.71,7.16c0.34,1.1-0.29,2.51-0.93,3.39C248.85,138.02,247.99,138.54,247.14,138.54z M233.78,130.46
								c0.73,0,1.45,0.03,2.18,0.1c3.6,0.28,5.93,1.93,8.19,3.52c0.95,0.68,1.94,1.37,3.02,1.97c0.38-0.27,0.97-1.28,0.94-1.7
								c-1.22-3.94-6.66-5.36-11.34-5.36c-0.37,0-0.74,0.01-1.08,0.03c-2.37,0.11-4.76,0.84-6.95,2.07
								C230.27,130.67,231.96,130.46,233.78,130.46z"/>
						</g>
						<g>
							<path class="st6" d="M292.33,198.63c-0.76,0.07-2.49,2.29-1.36,2.53c9.45,2.07,14.55,12.8,15.27,21.7
								c0.15,1.72,2.54-1.09,2.66-1.88C310.28,211.35,303.63,197.52,292.33,198.63z"/>
							<path class="st7" d="M306.64,224.63L306.64,224.63c-0.74,0-1.52-0.52-1.62-1.67c-0.7-8.56-5.47-18.66-14.32-20.6
								c-0.85-0.18-1.39-0.89-1.33-1.76c0.07-1.22,1.55-3.08,2.84-3.2c4.7-0.45,9.02,1.41,12.41,5.32
								c4.18,4.81,6.38,12.22,5.49,18.43C309.98,222.13,308.2,224.63,306.64,224.63z M292.18,200.19
								c8.97,2.55,14.01,12.34,15.14,21.12c0.18-0.24,0.33-0.46,0.38-0.6c0.76-5.36-1.26-12.14-4.94-16.38
								c-1.95-2.25-5.45-4.96-10.31-4.48C292.42,199.89,292.3,200.03,292.18,200.19z"/>
						</g>
						<g>
							<path class="st6" d="M313.91,158.03c-0.59,0.09-1.95,2.13-1.04,2.27c9.9,1.11,14.35,9.47,17.83,17.75
								c0.48,1.12,2.27-1.45,2.23-2.12C332.3,165.92,324.57,156.5,313.91,158.03z"/>
							<path class="st7" d="M331.06,179.55L331.06,179.55c-0.66,0-1.21-0.39-1.49-1.03c-3.23-7.67-7.45-15.95-16.83-17
								c-0.85-0.13-1.4-0.77-1.4-1.59c-0.01-1.13,1.23-2.94,2.38-3.12c11.73-1.68,19.8,8.87,20.45,19.03c0.06,1.04-1,2.39-1.4,2.81
								C332.19,179.26,331.64,179.55,331.06,179.55z M314.26,159.25c9.36,1.64,13.8,9.54,17.11,17.21c0.17-0.25,0.31-0.5,0.35-0.65
								c-0.58-8.68-7.36-17.9-17.43-16.59C314.28,159.23,314.27,159.24,314.26,159.25z"/>
						</g>
						<g>
							<path class="st6" d="M356.19,126.98c-1.59-1.62-3.36-3.01-5.46-3.88c-2.53-1.02-5.66,0.04-8.25,0.04
								c-0.73,0-2.27,2.05-1.27,2.31c1.95,0.55,3.97,0.66,5.98,0.93c2.16,0.3,3.84,2.38,5.33,3.79c3.09,2.95,5.48,6.58,7.48,10.33
								c0.71,1.33,2.82-1.74,2.74-2.62C362.16,133.44,359.27,130.08,356.19,126.98z"/>
							<path class="st7" d="M360.48,142.07L360.48,142.07c-0.66,0-1.23-0.36-1.56-0.98c-2.27-4.25-4.64-7.53-7.24-10.02
								c-0.27-0.25-0.54-0.53-0.83-0.81c-1.15-1.15-2.45-2.46-3.83-2.65c-0.52-0.07-1.03-0.13-1.55-0.19
								c-1.5-0.17-3.05-0.34-4.59-0.78c-0.83-0.21-1.32-0.96-1.21-1.86c0.14-1.1,1.48-2.87,2.81-2.87c0.78,0,1.64-0.11,2.55-0.23
								c2.14-0.27,4.48-0.4,6.16,0.27c2.04,0.84,3.96,2.2,5.88,4.16c2.99,3,6.25,6.63,6.89,11.61c0.1,1.08-0.83,2.52-1.49,3.24
								C361.81,141.71,361.14,142.07,360.48,142.07z M342.52,124.51c1.04,0.22,2.11,0.34,3.22,0.46c0.53,0.06,1.07,0.12,1.61,0.19
								c2.2,0.3,3.89,2,5.24,3.36c0.27,0.27,0.52,0.52,0.77,0.76c2.66,2.55,5.07,5.81,7.36,9.97c0.36-0.43,0.75-1.07,0.79-1.36
								c-0.54-4.05-3.48-7.31-6.2-10.04c-1.69-1.73-3.34-2.91-5.06-3.61c-1.18-0.48-3.09-0.34-4.91-0.11
								c-0.88,0.11-1.8,0.23-2.68,0.25C342.62,124.41,342.57,124.45,342.52,124.51z"/>
						</g>
						<g>
							<path class="st6" d="M357.38,228.39c-0.75-0.4-2.14,1.54-1.51,2.11c10.32,9.34,6.62,26.36-2.03,35.17
								c-0.89,0.92-1.55,3.78,0.46,2.28C364.59,260.19,372.09,235.97,357.38,228.39z"/>
							<path class="st7" d="M353.38,269.61L353.38,269.61c-0.65,0-1.22-0.38-1.48-0.99c-0.49-1.15,0.29-3.03,1.04-3.81
								c5.03-5.12,8.14-12.99,7.93-20.07c-0.16-5.41-2.18-10.01-5.84-13.33c-0.57-0.52-0.72-1.35-0.38-2.23
								c0.39-1.01,1.39-2.07,2.5-2.07h0.31l0.5,0.2c5.2,2.67,8.25,7.52,8.8,14c0.83,9.74-4.42,22.14-11.72,27.63
								C354.42,269.39,353.89,269.61,353.38,269.61z M357.03,229.9c3.96,3.75,6.14,8.85,6.32,14.77c0.15,5.1-1.2,10.42-3.69,15.08
								c3.22-5.52,5.14-12.48,4.65-18.24c-0.32-3.82-1.84-8.93-7.16-11.85C357.12,229.73,357.07,229.81,357.03,229.9z"/>
						</g>
						<g>
							<path class="st6" d="M402.32,217.89c-0.5-0.77-1.92,1.14-1.67,1.79c1.76,4.26,3.85,8.33,5.22,12.71
								c2.4,7.57-2.34,14.18-6.29,20.15c-0.61,0.93-0.81,3.28,0.79,1.8c4.63-4.35,7.48-9.81,9.09-15.91
								C411.51,230.62,406.34,224.05,402.32,217.89z"/>
							<path class="st7" d="M399.54,256.05L399.54,256.05c-0.59,0-1.1-0.31-1.39-0.83c-0.55-1.02-0.08-2.6,0.4-3.35l0.53-0.8
								c3.8-5.72,7.73-11.63,5.61-18.3c-0.9-2.88-2.16-5.72-3.38-8.46c-0.61-1.37-1.22-2.75-1.8-4.14c-0.36-0.92,0.16-1.88,0.5-2.38
								c0.33-0.49,1.04-1.3,2-1.3c0.55,0,1.03,0.27,1.34,0.73l1.24,1.87c3.78,5.67,8.05,12.1,6.06,19.66
								c-1.77,6.73-4.94,12.28-9.44,16.5C400.83,255.59,400.25,256.05,399.54,256.05z M401.91,219.49c0.52,1.26,1.09,2.53,1.66,3.81
								c1.25,2.8,2.54,5.7,3.48,8.72c2,6.32-0.54,11.91-3.67,16.94c2.16-3.11,3.8-6.74,4.88-10.85c1.71-6.48-2.07-12.17-5.72-17.66
								L401.91,219.49z"/>
						</g>
						<g>
							<path class="st6" d="M306.87,266.06c-0.4-1.01-2.36,1.42-2.12,2.32c1.18,4.01,1.5,8.26-0.34,12.15
								c-1.98,4.23-6.88,5.97-10.95,7.47c-0.74,0.28-2.91,3.49-1.56,3.37C304.12,290.24,311.5,277.09,306.87,266.06z"/>
							<path class="st7" d="M291.83,292.6c-0.8,0-1.43-0.51-1.56-1.28c-0.25-1.42,1.69-4.08,2.77-4.48
								c4.08-1.49,8.52-3.12,10.26-6.84c1.48-3.15,1.57-6.84,0.27-11.28c-0.29-1.1,0.51-2.31,0.87-2.78
								c0.47-0.62,1.23-1.36,2.12-1.36c0.65,0,1.21,0.39,1.46,1.02c2.38,5.65,1.86,12.26-1.38,17.67
								c-3.21,5.35-8.54,8.75-14.62,9.31L291.83,292.6z M302.07,285.21c-2.41,1.83-5.42,2.94-8.02,3.89
								c-0.19,0.12-0.48,0.46-0.75,0.84C296.65,289.31,299.69,287.66,302.07,285.21z M306.19,267.74c-0.12,0.19-0.21,0.38-0.23,0.5
								c0.68,2.28,1.01,4.47,0.98,6.54C307.18,272.42,306.93,270.01,306.19,267.74z"/>
						</g>
						<g>
							<path class="st6" d="M217.57,305.08c-9.53-1.5-23.1-1.02-23.49-13.92c-0.06-1.32-2.08,0.95-2.12,1.77
								c-0.65,13.33,12.67,16.99,23.77,15.57C216.69,308.36,219.09,305.34,217.57,305.08z"/>
							<path class="st7" d="M211.26,310.02L211.26,310.02c-7.17,0-13.09-2.07-16.68-5.84c-2.78-2.92-4.08-6.73-3.86-11.31
								c0.06-1.16,1.71-3.35,3.07-3.35c0.69,0,1.46,0.5,1.51,1.58c0.3,10.03,9.38,11.12,18.15,12.19c1.49,0.18,2.93,0.35,4.3,0.57
								c0.95,0.17,1.54,0.87,1.53,1.79c-0.01,1.5-1.97,3.85-3.37,4.07C214.35,309.92,212.8,310.02,211.26,310.02z M193.16,294.03
								c0.03,3.37,1.1,6.24,3.21,8.45c3.07,3.22,8.5,5.08,14.89,5.08l0,0c1.43,0,2.88-0.09,4.32-0.27c0.19-0.11,0.66-0.64,0.97-1.11
								c-1.09-0.16-2.23-0.29-3.39-0.43C205.02,304.75,195.06,303.55,193.16,294.03z"/>
						</g>
						<g>
							<path class="st6" d="M164.03,321.73c-7.02-7.04-17.51-16.36-11.24-27.29c0.57-1.04-0.37-1.09-0.9-0.33
								c-7.1,10.5-1.26,25.55,9.88,30.8C162.91,325.47,164.92,322.62,164.03,321.73z"/>
							<path class="st7" d="M162.09,326.21L162.09,326.21c-0.31,0-0.6-0.07-0.87-0.2c-6.14-2.89-10.95-8.71-12.84-15.55
								c-1.68-6.12-0.8-12.17,2.48-17.04c0.86-1.22,2.52-1.34,3.12-0.33c0.22,0.38,0.39,1.03-0.12,1.94
								c-5.43,9.48,2.98,17.83,9.74,24.53l1.29,1.29c0.65,0.65,0.76,1.65,0.31,2.74C164.67,324.9,163.43,326.21,162.09,326.21z
								 M150.01,304.53c0.01,1.73,0.26,3.49,0.75,5.27c1.68,6.1,5.92,11.28,11.36,13.91c0.34-0.2,0.82-0.87,0.89-1.26l-1.14-1.13
								C157.27,316.75,151.54,311.07,150.01,304.53z"/>
						</g>
						<g>
							<path class="st6" d="M171.27,354.56c-9.9,3.35-18.62,0.35-26.71-5.72c-7.91-5.92-10.83-13.55-11.11-23.13
								c-0.03-0.85-1.31,0.55-1.35,0.97c-1.49,11.14,0.91,18.93,9.18,26.74c8.13,7.65,19.17,10.53,28.96,4.66
								C170.94,357.67,173.09,353.94,171.27,354.56z"/>
							<path class="st7" d="M159.2,362.44c-6.53,0-13.2-2.88-18.76-8.12c-8.37-7.91-11.14-15.96-9.56-27.8
								c0.09-0.82,1.3-2.3,2.39-2.3c0.68,0,1.38,0.49,1.42,1.45c0.3,10.08,3.57,16.93,10.62,22.2c8.87,6.66,17.07,8.41,25.57,5.53
								c1.1-0.37,2.03,0.1,2.28,1.02c0.41,1.5-1.44,4.23-2.28,4.73C167.23,361.32,163.3,362.44,159.2,362.44z M132.89,332.21
								c-0.07,8.14,2.73,14.17,9.25,20.32c8.26,7.76,18.94,9.62,27.48,4.49c0.13-0.12,0.37-0.47,0.59-0.85
								c-8.72,2.49-17.33,0.45-26.38-6.34C137.84,345.36,134.29,339.66,132.89,332.21z"/>
						</g>
						<g>
							<path class="st6" d="M253.33,354.09c-7.25,2.8-13.8,3.92-21.25,1.13c-5.23-1.96-9.34-7.03-14.06-9.95
								c-0.74-0.46-2.28,1.69-1.59,2.22c5.06,3.82,9.41,10.6,15.71,12.48c7.27,2.19,13.58,0.91,20.21-2.57
								C253.14,356.99,254.9,353.48,253.33,354.09z"/>
							<path class="st7" d="M239.2,362.27L239.2,362.27c-2.45,0-4.88-0.37-7.41-1.13c-4.41-1.32-7.81-4.74-11.09-8.06
								c-1.7-1.72-3.32-3.34-5-4.62c-0.63-0.48-0.83-1.29-0.53-2.18c0.33-0.96,1.35-2.32,2.62-2.32h0.35l0.53,0.25
								c1.94,1.2,3.79,2.76,5.58,4.26c2.61,2.2,5.31,4.48,8.27,5.59c2.76,1.03,5.45,1.53,8.24,1.53c3.63,0,7.37-0.82,12.13-2.66
								c1.08-0.41,2.04,0.09,2.26,1.04c0.33,1.38-1.22,4.01-2.23,4.52C247.99,361.07,243.63,362.27,239.2,362.27z M217.61,346.83
								c1.67,1.33,3.28,2.95,4.83,4.52c3.07,3.09,6.24,6.29,10.05,7.43c2.3,0.69,4.49,1.03,6.7,1.03l0,0
								c4.02,0,8.01-1.12,12.58-3.51c0.09-0.07,0.22-0.26,0.35-0.48c-7.96,2.89-13.95,3-20.48,0.55c-3.36-1.26-6.22-3.67-8.99-6
								c-1.67-1.41-3.25-2.74-4.9-3.81C217.72,346.63,217.66,346.73,217.61,346.83z"/>
						</g>
						<g>
							<path class="st6" d="M252.13,381.32c-16.43,5.95-32.66,12.34-46.4-2.57c-0.6-0.64-2.47,1.75-1.8,2.55
								c12.78,16.01,31.07,11.47,47.25,3.19C251.92,384.11,253.68,380.76,252.13,381.32z"/>
							<path class="st7" d="M225.61,393.24C225.61,393.24,225.61,393.24,225.61,393.24c-9.1,0-16.72-3.76-22.64-11.17
								c-0.29-0.34-0.72-1.16-0.1-2.5c0.35-0.75,1.34-2.16,2.61-2.16c0.44,0,0.85,0.18,1.15,0.49c5.45,5.92,11.74,8.79,19.24,8.79
								c7.84,0,15.98-2.95,24.6-6.08l1.23-0.45c1.05-0.38,2,0.11,2.22,1.04c0.32,1.33-1.21,3.88-2.18,4.38
								C241.68,390.73,233.13,393.24,225.61,393.24z M205.06,380.73c10.18,12.54,24.48,13.45,45.57,2.66
								c0.05-0.04,0.12-0.15,0.21-0.29c-8.29,3-16.85,6.05-24.97,6.05c-7.98,0-14.68-2.94-20.49-8.98
								C205.24,380.35,205.11,380.56,205.06,380.73z"/>
						</g>
						<g>
							<path class="st6" d="M333.79,331.9c-3.19,9.53-11.08,12.15-20.17,13.76c-1.09,0.22-3.14,3.9-1.77,3.79
								c11.5-0.7,20.85-7.14,23.96-18.47C336.26,329.39,334.02,331.17,333.79,331.9z"/>
							<path class="st7" d="M311.8,350.68c-0.87,0-1.54-0.61-1.63-1.49c-0.15-1.5,1.65-4.44,3.21-4.75
								c9.8-1.73,16.42-4.5,19.24-12.94c0.27-0.88,1.84-2.4,3.01-2.4h0.61l0.55,0.57c0.32,0.42,0.39,0.97,0.2,1.64
								c-3.12,11.36-12.49,18.6-25.06,19.37L311.8,350.68z M327.24,342.4c-4.01,2.56-8.84,3.67-13.4,4.47
								c-0.18,0.12-0.58,0.71-0.88,1.26C318.59,347.57,323.47,345.58,327.24,342.4z"/>
						</g>
						<g>
							<path class="st6" d="M369.63,334.33c-0.74,13.91-17.1,15.74-27.66,18.39c-0.91,0.23-3.47,3.61-1.77,3.87
								c13.18,2.02,32.48-9.63,31.73-24.17C371.87,330.98,369.69,333.48,369.63,334.33z"/>
							<path class="st7" d="M343.31,358.05L343.31,358.05c-1.14,0-2.24-0.08-3.3-0.25c-0.93-0.14-1.57-0.83-1.61-1.75
								c-0.08-1.61,1.96-4.2,3.27-4.53c1.28-0.32,2.64-0.63,4.05-0.95c10.35-2.35,22.09-5.01,22.69-16.31
								c0.08-1.09,1.78-3.52,3.24-3.52c0.7,0,1.47,0.5,1.52,1.61c0.27,5.31-1.91,10.57-6.3,15.2
								C360.9,353.83,351.44,358.05,343.31,358.05z M341.05,355.46c7.79,0.89,17.93-3.18,24.03-9.6c0.11-0.12,0.22-0.24,0.33-0.36
								c-5.1,4.3-12.85,6.05-19.15,7.48c-1.39,0.32-2.73,0.62-3.99,0.93C342.01,354.07,341.37,354.86,341.05,355.46z"/>
						</g>
					</g>
				</g>
			</g>
		</g>
	</g>
	<g>
		<g>
			<g>
				<path class="st8" d="M115.37,165.76c2.17-4.21,4.87-8.12,7.74-11.87c2.9-3.74,6.07-7.29,9.44-10.65
					c6.78-6.68,14.48-12.6,23.22-17.06c2.18-1.08,4.43-2.08,6.73-2.99c2.33-0.84,4.68-1.62,7.11-2.21
					c4.83-1.18,9.89-1.74,14.93-1.37c5.01,0.36,9.97,1.63,14.39,3.81c4.43,2.19,8.33,5.16,11.45,8.74
					c-4.29-2.05-8.57-3.71-12.91-4.67c-4.33-0.97-8.68-1.27-12.98-0.97c-8.59,0.6-16.87,3.55-24.73,7.5
					c-7.87,3.99-15.38,9-22.68,14.43C129.75,153.87,122.65,159.74,115.37,165.76z"/>
			</g>
			<g>
				<path class="st8" d="M377.34,165.76c-6.12-6.03-12.24-11.66-18.63-16.82c-6.38-5.16-13.03-9.8-20.05-13.62
					c-7.03-3.79-14.45-6.75-22.26-8.55c-7.85-1.85-16.04-2.42-24.68-2.31c7.81-3.72,16.79-5.16,25.68-4.53
					c8.91,0.64,17.68,3.42,25.47,7.67c7.82,4.25,14.74,9.9,20.61,16.35c2.92,3.24,5.59,6.67,7.94,10.3
					C373.76,157.9,375.88,161.69,377.34,165.76z"/>
			</g>
		</g>
		<g>
			<g>
				<path class="st9" d="M180.17,291.84c5.58-0.64,10.8-2.24,15.54-4.55c4.73-2.33,8.93-5.5,12.47-9.33
					c3.56-3.82,6.49-8.25,8.97-13.01c2.49-4.77,4.5-9.86,6.57-15.09c-0.06,5.63-1.11,11.24-3.04,16.62
					c-1.96,5.37-4.89,10.51-8.9,14.8c-3.99,4.29-9.07,7.67-14.6,9.54c-2.76,0.94-5.63,1.52-8.5,1.72
					C185.79,292.69,182.92,292.6,180.17,291.84z"/>
			</g>
			<g>
				<path class="st9" d="M313.51,291.84c-2.75,0.77-5.63,0.86-8.5,0.71c-2.87-0.19-5.74-0.78-8.5-1.72
					c-5.54-1.88-10.61-5.25-14.61-9.54c-4.01-4.3-6.95-9.43-8.9-14.8c-1.93-5.38-2.98-10.99-3.04-16.62
					c2.06,5.23,4.08,10.32,6.57,15.09c2.48,4.77,5.4,9.19,8.96,13.01c3.55,3.83,7.74,7,12.48,9.33
					C302.71,289.6,307.92,291.2,313.51,291.84z"/>
			</g>
		</g>
		<g>
			<g>
				<g>
					<path class="st10" d="M227.18,229.71c-12.59,36.6-45.19,58.64-72.77,49.21c-27.6-9.43-39.76-46.74-27.16-83.35
						c12.59-36.59,45.17-58.63,72.77-49.2C227.61,155.81,239.77,193.12,227.18,229.71z"/>
					<path class="st8" d="M167.62,283.05c-4.75,0-9.42-0.77-13.85-2.28c-28.57-9.76-41.31-48.26-28.39-85.82
						c10.69-31.02,35.94-52.69,61.41-52.69c4.75,0,9.41,0.77,13.86,2.29c13.94,4.76,24.55,16.38,29.88,32.72
						c5.27,16.13,4.73,34.98-1.51,53.09C218.35,261.38,193.1,283.05,167.62,283.05z M186.8,146.15c-23.83,0-47.56,20.59-57.71,50.07
						c-12.22,35.52-0.58,71.8,25.95,80.86c4.03,1.37,8.26,2.06,12.57,2.06c23.84,0,47.57-20.59,57.71-50.05
						c5.95-17.31,6.48-35.29,1.48-50.62c-4.95-15.15-14.68-25.89-27.43-30.24C195.35,146.86,191.12,146.15,186.8,146.15z"/>
				</g>
				<g>
					<g>
						<path class="st4" d="M215.41,242.63c-8.2,19.2-26.29,29.94-40.44,23.96c-14.14-5.99-18.95-26.4-10.76-45.63
							c8.19-19.22,26.29-29.93,40.43-23.95C218.78,202.99,223.59,223.42,215.41,242.63z"/>
					</g>
					<g>
						<path class="st8" d="M203.25,237.49c-4.3,10.09-13.81,15.73-21.24,12.59c-7.43-3.13-9.97-13.86-5.65-23.96
							c4.3-10.09,13.8-15.72,21.23-12.59C205.02,216.66,207.55,227.39,203.25,237.49z"/>
					</g>
					<g>
						<path class="st10" d="M199.23,251.77c-3.66,5.01-9.6,6.89-13.28,4.22c-3.68-2.67-3.7-8.88-0.06-13.87
							c3.66-5.01,9.6-6.9,13.28-4.24C202.84,240.56,202.88,246.77,199.23,251.77z"/>
					</g>
				</g>
				<g>
					<path class="st0" d="M164.31,270.92c-26.63-9.05-38.37-44.85-26.21-79.96c5.64-16.3,15.51-30.34,27.05-39.02
						c-15.36,7.79-29.05,24.24-36.11,44.66c-12.15,35.11-0.58,71.27,26.05,80.33c14.26,4.84,30.09,0.65,43.41-9.35
						C187.44,273.19,175.45,274.71,164.31,270.92z"/>
				</g>
				<g>
					<path class="st11" d="M228.04,218.87c8.96-37.23-8.17-63.85-28.69-70.87c-26.49-9.04-57.77,12.1-69.85,47.23
						c-3.05,8.85,26.77,23.33,43.62,28.97C192.1,230.57,226.24,226.32,228.04,218.87z"/>
				</g>
			</g>
			<g>
				<g>
					<g>
						<path class="st10" d="M265.54,229.71c12.59,36.6,45.18,58.64,72.78,49.21c27.6-9.43,39.76-46.74,27.17-83.35
							c-12.61-36.59-45.18-58.63-72.79-49.2C265.1,155.81,252.94,193.12,265.54,229.71z"/>
						<path class="st8" d="M325.09,283.05L325.09,283.05c-25.48,0-50.73-21.67-61.41-52.7c-6.23-18.1-6.77-36.95-1.5-53.09
							c5.34-16.34,15.95-27.97,29.88-32.72c4.44-1.52,9.1-2.29,13.85-2.29c25.49,0,50.74,21.67,61.42,52.69
							c12.92,37.56,0.19,76.06-28.38,85.82C334.52,282.28,329.85,283.05,325.09,283.05z M305.91,146.15
							c-4.31,0-8.55,0.71-12.58,2.08c-12.75,4.35-22.49,15.09-27.43,30.24c-5,15.33-4.46,33.3,1.47,50.62
							c10.15,29.46,33.89,50.05,57.71,50.05l0,0c4.33,0,8.56-0.69,12.58-2.06c26.53-9.06,38.16-45.34,25.94-80.86
							C353.48,166.74,329.76,146.15,305.91,146.15z"/>
					</g>
					<g>
						<g>
							<path class="st4" d="M277.32,242.63c8.18,19.2,26.29,29.94,40.42,23.96c14.14-5.99,18.97-26.4,10.76-45.63
								c-8.18-19.22-26.28-29.93-40.42-23.95C273.94,202.99,269.12,223.42,277.32,242.63z"/>
						</g>
						<g>
							<path class="st8" d="M289.46,237.49c4.31,10.09,13.82,15.73,21.24,12.59c7.43-3.13,9.97-13.86,5.66-23.96
								c-4.31-10.09-13.82-15.72-21.24-12.59C287.69,216.66,285.16,227.39,289.46,237.49z"/>
						</g>
						<g>
							<path class="st10" d="M292.44,251.77c3.64,5.01,9.59,6.89,13.26,4.22c3.69-2.67,3.71-8.88,0.05-13.87
								c-3.65-5.01-9.59-6.9-13.27-4.24C288.81,240.56,288.78,246.77,292.44,251.77z"/>
						</g>
					</g>
					<g>
						<path class="st0" d="M328.27,270.92c26.63-9.05,38.37-44.85,26.21-79.96c-5.64-16.3-14.83-29.96-26.36-38.62
							c15.36,7.79,28.35,23.84,35.41,44.26c12.16,35.11,0.52,71.36-26.11,80.4c-14.27,4.84-30.01,0.58-43.33-9.42
							C305.13,273.19,317.12,274.71,328.27,270.92z"/>
					</g>
				</g>
				<g>
					<path class="st11" d="M264.37,218.87c-8.95-37.23,8.17-63.85,28.69-70.87c26.48-9.04,57.76,12.1,69.85,47.23
						c3.05,8.85-26.79,23.33-43.62,28.97C300.32,230.57,266.17,226.32,264.37,218.87z"/>
				</g>
			</g>
		</g>
	</g>
	<g>
		<path class="st8" d="M230.87,215.38c-1.33,0.64-6.43,2.59-7.97,3.14c-1.58,0.55-3.19,1.06-4.78,1.5c-3.2,0.91-6.41,1.61-9.6,2.16
			c-6.38,1.09-12.71,1.55-18.89,1.52c-12.37-0.07-18.25-1.09-29.08-5.44c-12.73-5.11-21.24-15.26-31.17-20.89c0,0-4.22-0.8-1.6,2.54
			c9.61,6.21,17.59,15.53,30.96,21.83c10.63,5.01,16.56,6.68,29.18,7.37c6.31,0.33,12.81,0.17,19.49-0.68
			c3.35-0.43,6.73-1.02,10.15-1.84c1.72-0.41,3.45-0.88,5.2-1.42c1.78-0.56,3.46-1.11,5.43-1.96L230.87,215.38z"/>
	</g>
	<g>
		<path class="st8" d="M261.53,214.75c1.33,0.64,6.43,2.59,7.97,3.14c1.58,0.55,3.19,1.06,4.78,1.5c3.2,0.91,6.41,1.61,9.6,2.16
			c6.38,1.09,12.71,1.55,18.89,1.52c12.37-0.07,18.25-1.09,29.08-5.44c12.73-5.11,21.24-15.26,31.17-20.89c0,0,4.22-0.8,1.6,2.54
			c-9.61,6.21-17.59,15.53-30.96,21.83c-10.63,5.01-16.56,6.68-29.18,7.37c-6.31,0.33-12.81,0.17-19.49-0.68
			c-3.35-0.43-6.73-1.02-10.15-1.84c-1.72-0.41-3.45-0.88-5.2-1.42c-1.78-0.56-3.46-1.11-5.43-1.96L261.53,214.75z"/>
	</g>
	<g>
		<g>
			<path class="st4" d="M283.25,353.49c-0.1,12.48-18.01,22.46-40.03,22.29c-22-0.17-39.77-10.43-39.67-22.9
				c0.1-12.48,18.02-22.46,40.02-22.29C265.59,330.76,283.35,341.01,283.25,353.49z"/>
			<path class="st8" d="M243.21,376.8c-23.23-0.18-42.05-10.92-41.95-23.94c0.1-13.02,19.08-23.48,42.32-23.3
				c23.25,0.18,42.07,10.92,41.97,23.95C285.45,366.53,266.46,376.98,243.21,376.8z M243.56,331.61
				c-20.7-0.16-39.92,9.37-40.01,21.26c-0.09,11.89,18.98,21.72,39.68,21.88c20.71,0.16,39.93-9.37,40.02-21.26
				C283.34,341.6,264.28,331.77,243.56,331.61z"/>
		</g>
		<g>
			<path class="st10" d="M213.45,339.09c12.38,3.08,38.18,6.71,60.68,0.81c-6.77-5.23-19.64-8.12-31.91-8.21
				C230.68,331.6,220.34,334.48,213.45,339.09z"/>
		</g>
		<g>
			<path class="st0" d="M273.36,367.05c-2.9-1.6-7.35-4.29-10.96-4.32l-17.66-0.14l-1.78-0.01l-17.65-0.14
				c-3.62-0.03-8.93,2.43-11.85,3.99c6.65,4.82,18.21,8.24,29.78,8.33C254.81,374.84,266.63,371.76,273.36,367.05z"/>
		</g>
	</g>
</g>
</svg>
