<?xml version="1.0" encoding="utf-8"?>
<!-- Generator: Adobe Illustrator 25.4.1, SVG Export Plug-In . SVG Version: 6.00 Build 0)  -->
<svg version="1.1" id="Layer_1" xmlns="http://www.w3.org/2000/svg" xmlns:xlink="http://www.w3.org/1999/xlink" x="0px" y="0px"
	 viewBox="0 0 500 500" style="enable-background:new 0 0 500 500;" xml:space="preserve">
<style type="text/css">
	.st0{fill:#D0E5F6;}
	.st1{fill:#338CCC;}
	.st2{fill:#C6E8ED;}
	.st3{fill:#93CBDC;}
	.st4{fill:#228FB9;}
	.st5{opacity:0.3;}
	.st6{fill:#6091B1;}
	.st7{fill:#1CA8C0;}
	.st8{fill:#382D33;}
	.st9{fill:#FFFFFF;}
	.st10{fill:#323031;}
</style>
<g id="beta3">
	<g>
		<g>
			<g>
				<g>
					<path class="st0" d="M5.72,248.02c1.21,42.75,11.52,87.16,33.34,124.04c56.43,95.38,146.83,100.26,246.11,102.31
						c52.98,1.1,111.7-5.4,151.39-45.33c50.27-50.58,62.97-130.35,58.18-199.49c-3.06-44.14-14.26-85.44-40.22-121.41
						c-24.19-33.52-56.16-62.45-93.07-80.43C321.02,8.01,276.86,3.09,232.48,5.2c-40.93,1.95-82,9.04-118.69,28.54
						c-37.01,19.68-65.87,50.02-83.77,88.63C12.01,161.24,4.5,205.13,5.72,248.02z"/>
					<path class="st1" d="M284.58,475.69c-92.96-1.91-189.09-3.89-247.84-102.94c-26.1-44.01-32.68-92.09-33.61-124.67
						c-1.29-45.35,7.18-89,24.5-126.26c17.9-38.54,47.15-69.4,84.56-89.23C144.71,15.34,182.7,6.22,231.72,3.9
						c5.37-0.26,10.7-0.4,15.84-0.44c44.12-0.34,81.44,7.22,114.08,23.08c35.62,17.31,68.06,45.27,93.8,80.83
						c23.88,33,37.16,72.94,40.57,122.09c8,115.17-33.35,175.06-58.72,200.51c-30.66,30.77-74.76,45.32-138.79,45.82c0,0,0,0-0.01,0
						C294.04,475.82,289.36,475.79,284.58,475.69z M231.84,6.51c-48.64,2.31-86.29,11.34-118.48,28.4
						c-36.91,19.57-65.76,50-83.42,88.03C12.8,159.82,4.42,203.06,5.69,247.99c0.92,32.27,7.43,79.88,33.24,123.4
						c58.02,97.82,153.43,99.78,245.7,101.68c4.76,0.1,9.42,0.13,13.85,0.1c0,0,0.01,0,0.01,0c63.32-0.48,106.85-14.8,137.01-45.06
						c25.05-25.14,65.89-84.34,57.96-198.47c-3.38-48.64-16.49-88.13-40.08-120.72c-25.49-35.23-57.6-62.9-92.84-80.03
						C328.25,13.2,291.31,5.74,247.58,6.07C242.47,6.11,237.18,6.26,231.84,6.51z"/>
				</g>
				<path class="st2" d="M4.41,248.03c1.21,42.75,11.55,87.16,33.42,124.04c56.58,95.38,147.22,100.26,246.77,102.31
					c53.12,1.1,111.99-5.4,151.79-45.34c50.4-50.58,63.14-130.35,58.34-199.49c-3.07-44.14-14.3-85.44-40.32-121.41
					c-24.25-33.52-56.31-62.44-93.32-80.43C320.56,8.01,276.28,3.09,231.78,5.2c-41.04,1.95-82.22,9.04-119.01,28.54
					c-37.11,19.68-66.04,50.02-83.99,88.63C10.72,161.25,3.19,205.14,4.41,248.03z M90.76,207.57c3.43-8.13,9.41-14.94,14.69-21.87
					c5.29-6.95,9.13-13.8,10.64-22.11c-0.73-5.35-0.73-10.2,0.64-15.15c-0.19-5.48-0.47-10.95,0.33-16.38
					c1.44-9.67,7.45-18.1,10.65-27.22c2.72-7.74,4.98-15.72,9.87-22.4c5.46-7.46,13.8-10.95,22.34-13.32
					c4.96-1.37,10-2.39,14.89-4.03c6.22-2.08,11.26-5.71,15.81-10.44c6.54-6.82,11.73-14.7,19.53-20.19
					c9.29-6.54,21.53-8.54,32.58-8.98c12.2-0.49,24.42,1.74,36.31,4.26c9.19,1.95,18.3,4.41,27.57,5.88
					c7.55,1.19,15.17,1.87,22.78,2.62c17.4,1.71,35.37,3.32,51.58,10.48c9.45,4.17,16.9,10.62,22.11,18.76
					c11.13,11.11,19.51,25.37,30.1,36.87c13.22,14.36,26.94,28.33,33.51,47.32c4.04,11.7,5.03,24.64,7.13,36.8
					c2.3,13.35,4.76,26.66,7.46,39.93c2.01,9.91,2.47,19.95,0.52,29.9c-1.83,9.37-6.03,18.11-10.41,26.48
					c-5.38,10.28-11.28,19.76-13.98,31.21c-2.45,10.4-3.14,21.13-5.7,31.51c-4.87,19.73-19.81,35.04-37.96,42.78
					c-8.89,3.79-18.58,5.41-28.16,5.86c-10.73,0.51-21.13-1.72-31.79-2.04c-10.6-0.32-20.38,2.96-29.67,7.89
					c-9.69,5.13-18.27,11.92-29.08,14.48c-9.11,2.16-18.59,1.05-27.82,0.61c-5.06-0.24-10.11-0.18-15.16,0.33
					c-5.84,0.59-11.45,2.69-16.96,4.66c-8.87,3.17-17.68,5.94-27.09,3.56c-10.79-2.73-17.55-11.96-24.51-20.04
					c-3.95-4.59-8.09-8.61-13.37-11.57c-5.24-2.94-11.12-4.45-16.9-5.83c-9.65-2.3-18.94-4.78-26.97-10.97
					c-12.61-9.72-15.38-25.76-15.53-40.93c-0.11-10.41,1.26-20.77,0.67-31.18c-0.03-0.51-0.1-1-0.14-1.5
					c-0.14-1.32-0.28-2.64-0.41-3.96c-1.47-10.66-5.31-20.25-9.62-30.24C92.89,250.13,81.82,228.74,90.76,207.57z"/>
				<path class="st2" d="M28.78,122.38c17.95-38.61,46.88-68.96,83.99-88.63c22.9-12.14,47.49-19.47,72.7-23.74
					c-1.18,0.67-2.35,1.39-3.5,2.18c-6.19,4.29-11.66,9.49-17.02,14.79c-3.47,3.42-6.8,7.31-11.19,9.53
					c-4.46,2.26-9.26,3.32-14.17,3.96c-7.86,1.02-16.38,1.47-23.35,5.76c-7.24,4.46-12.23,11.73-16.3,19.13
					c-5.08,9.23-9.24,19.5-16.54,27.2c-6.89,7.28-15.05,13.24-22.06,20.41c-6.22,6.36-11.66,13.32-15.18,21.61
					c-4.06,9.59-4.12,19.52-4,29.78c0.15,12.62-0.42,24.85-3.87,37.05c-3.22,11.39-9.42,22.37-10.4,34.33
					c-1.86,22.83,14.37,41.43,15.26,63.76c0.74,18.62,0.21,38.07,11.77,53.71c6.29,8.5,14.3,15.28,22.15,22.2
					c4.01,3.53,8.04,7.16,11.42,11.35c3.49,4.31,5.87,8.96,8.42,13.86c7.93,15.22,19.2,26.64,35.46,32.16
					c11.31,3.84,22.55,4.71,34.4,4.62c13.02-0.09,25.42,0.93,37.89,4.99c19.39,6.3,37.7,16.54,58.68,15.15
					c12.46-0.82,24.62-4.54,36.84-6.92c13.7-2.67,26.45-3.1,40.21-0.78c10.17,1.73,20.8,3.92,31.1,1.95
					c11.2-2.14,20.07-8.64,28.85-15.7c9.55-7.68,18.95-14.85,29.32-21.32c8.1-5.05,15.65-11.07,21.58-18.69
					c6.48-8.31,10.96-17.59,15.17-27.26c4.84-11.09,9.44-22.33,13.18-33.87c3.7-11.41,6.77-23.11,8.21-35.06
					c0.75-6.18,1.19-12.43,0.95-18.67c-0.23-6.11-0.83-12.14-0.64-18.26c0.42-13.5,3.38-26.35,5.17-39.65
					c0.19-1.45,0.37-2.89,0.54-4.35c0.35,3.52,0.68,7.04,0.92,10.59c4.8,69.14-7.93,148.91-58.34,199.49
					c-39.8,39.94-98.67,46.44-151.79,45.34c-99.54-2.05-190.19-6.93-246.77-102.31C15.96,335.19,5.62,290.78,4.41,248.03
					C3.19,205.14,10.72,161.25,28.78,122.38z"/>
				<g>
					<g>
						<path class="st3" d="M85.77,273.47c-9.49,20.72-0.67,42.13,17.61,47.67c0,0-6.1,33.13,26.41,40.04
							c12.2,30.38,43.33,26.26,43.33,26.26s10.85,24.84,44.7,16.55c14.92,18.66,42.67,12.45,56.22-1.38
							c16.23,13.8,33.27,5.35,48.74-6.22c10.16-7.58,25.74,0.68,38.62-13.8c12.86-14.49,12.86-15.88,22.34-18.65
							c9.47-2.76,16.24-8.97,17.6-32.44c1.36-15.91,14.9-7.61,15.58-34.54c0.67-26.93-1.34-20.02,4.05-30.38
							c5.41-10.37,1.37-15.88-1.35-26.92c-2.7-11.08,6.12-26.25-7.45-41.44c-8.12-9.66-4.74-10.37-6.09-23.46
							c-1.38-13.15-6.77-13.15-12.87-19.36c-4.74-5.52-2.7-22.09-23.69-33.83c-11.52-5.52-11.52-6.89-17.61-13.11
							c-6.11-6.22-18.97-10.34-29.79-10.34c0,0-16.94-26.95-51.48-18.64c-27.76-13.15-52.82-10.4-66.34,7.57
							c-12.86-5.54-25.07,11.07-25.07,11.07c-23.02-6.25-37.94,10.34-44.02,24.14c-25.75-4.13-41.3,24.85-36.56,42.81
							c0,0-15.57,9.67-12.19,24.19c-16.94,13.78-9.5,37.27-6.1,44.87C70.21,250.71,74.95,260.38,85.77,273.47z"/>
						<path class="st4" d="M217.35,405.45c-4.41,1.03-8.66,1.54-12.67,1.54c-21.16,0-30.3-14.46-32.29-18.17
							c-0.68,0.05-1.72,0.11-3.04,0.11l0,0c-8.88,0-30.48-2.61-40.47-26.61c-29.16-6.62-27.61-34.25-26.9-40.26
							c-8.25-2.82-14.74-8.82-18.36-17.02c-4.17-9.46-3.92-20.84,0.66-31.35c-11.11-13.58-14.93-23.63-5.36-39.65
							c-2.16-5.12-11.48-30.2,6.13-45.27c-2.5-13.04,8.94-22.03,12.15-24.27c-2.13-9.49,0.84-21.31,7.68-30.42
							c7.45-9.91,18.12-14.74,29.58-13.24c5.77-12.43,17.84-25.37,35.02-25.37c3.01,0,6.13,0.4,9.27,1.19
							c2.14-2.68,10.34-12.03,20.12-12.03c1.71,0,3.39,0.29,5.01,0.87c8.01-10.15,19.77-15.51,34.07-15.51
							c10.27,0,21.31,2.74,32.84,8.14c4.34-1.01,8.63-1.53,12.76-1.53c23.72,0,36.84,16.83,39.25,20.24
							c11.5,0.17,24.04,4.63,30.03,10.72c1.03,1.05,1.89,1.97,2.66,2.79c3.69,3.94,5.22,5.57,14.66,10.1
							c15.26,8.54,18.78,19.79,21.11,27.25c0.91,2.92,1.7,5.45,2.86,6.81c1.51,1.54,2.98,2.68,4.4,3.78
							c4.17,3.24,7.77,6.05,8.84,16.37c0.4,3.9,0.39,6.72,0.39,8.99c-0.02,5.31-0.03,7.3,5.38,13.73
							c9.44,10.56,8.49,20.98,7.66,30.18c-0.39,4.29-0.76,8.35,0.09,11.81c0.58,2.35,1.21,4.42,1.82,6.42
							c2.19,7.17,3.92,12.84-0.58,21.44c-0.6,1.15-1.11,2.09-1.54,2.89c-2.23,4.12-2.23,4.12-2.21,11.36
							c0.01,3.26,0.03,8.19-0.15,15.54c-0.4,16-5.27,20.1-9.57,23.73c-3.06,2.58-5.49,4.62-6.02,10.85
							c-1.37,23.82-8.4,30.67-18.52,33.62c-7.74,2.26-8.78,3.45-16.85,12.71c-1.4,1.6-3.01,3.44-4.89,5.57
							c-7.88,8.85-16.76,9.57-24.6,10.21c-5.29,0.43-10.29,0.83-14.21,3.76c-8.48,6.34-19.72,13.62-31.35,13.62
							c-6.42,0-12.5-2.26-18.07-6.71c-8.1,7.79-19.97,12.59-31.25,12.59C235.58,416.95,225.3,414.94,217.35,405.45z M274.86,401.61
							c5.42,4.6,11.09,6.84,17.33,6.84c10.89,0,21.67-7.01,29.84-13.11c4.51-3.36,9.86-3.8,15.52-4.26
							c7.72-0.63,15.71-1.28,22.9-9.36c1.87-2.11,3.47-3.95,4.87-5.54c8.14-9.33,9.61-11.01,18.07-13.49
							c9.34-2.73,15.38-8.91,16.67-31.3c0.63-7.35,3.83-10.06,6.94-12.68c4.06-3.43,8.27-6.97,8.64-21.78
							c0.18-7.31,0.16-12.22,0.15-15.47c-0.02-7.61-0.03-7.92,2.53-12.63c0.42-0.79,0.93-1.72,1.52-2.86
							c3.99-7.65,2.56-12.34,0.39-19.44c-0.59-1.94-1.26-4.13-1.86-6.56c-0.95-3.9-0.56-8.17-0.15-12.69
							c0.78-8.65,1.67-18.46-7.03-28.2c-6.05-7.2-6.04-9.96-6.02-15.47c0.01-2.2,0.02-4.95-0.37-8.71
							c-0.96-9.21-3.85-11.46-7.85-14.57c-1.41-1.1-3.02-2.35-4.71-4.07c-1.57-1.83-2.44-4.6-3.44-7.8
							c-2.34-7.47-5.55-17.71-19.83-25.71c-9.8-4.69-11.54-6.54-15.35-10.61c-0.76-0.81-1.61-1.71-2.62-2.75
							c-5.58-5.68-18-9.96-28.89-9.96h-0.7l-0.38-0.6c-0.12-0.2-12.62-19.63-37.5-19.63c-4.07,0-8.32,0.53-12.61,1.56l-0.43,0.11
							l-0.4-0.19c-11.32-5.37-22.14-8.09-32.16-8.09c-13.84,0-25.12,5.28-32.63,15.26l-0.6,0.8l-0.91-0.39
							c-1.58-0.68-3.24-1.02-4.94-1.02c-9.88,0-18.52,11.56-18.61,11.68l-0.52,0.71l-0.84-0.22c-3.21-0.88-6.38-1.31-9.43-1.31
							c-16.37,0-27.82,12.78-33.08,24.72l-0.4,0.91l-0.96-0.15c-10.85-1.75-21.03,2.68-28.12,12.11c-6.5,8.65-9.32,20.33-7.01,29.07
							l0.25,0.95l-0.82,0.51c-0.15,0.1-14.74,9.33-11.61,22.77l0.19,0.81l-0.64,0.52c-17.9,14.56-7.03,40.4-5.73,43.3l0.29,0.64
							l-0.36,0.6c-9.4,15.34-5.78,24.41,5.3,37.8l0.53,0.64l-0.35,0.76c-4.59,10.03-4.95,20.94-0.99,29.94
							c3.46,7.84,9.78,13.5,17.81,15.93l1.11,0.34l-0.22,1.15c-0.24,1.3-5.51,31.95,25.41,38.52l0.67,0.14l0.26,0.64
							c9.28,23.13,29.92,25.63,38.36,25.63c2.23,0,3.6-0.18,3.61-0.18l0.95-0.12l0.39,0.89c0.08,0.17,7.89,17.47,30.38,17.47
							c4.04,0,8.36-0.56,12.84-1.66l0.78-0.19l0.51,0.64c7.38,9.23,17.16,11.17,24.05,11.17c10.85,0,22.73-4.96,30.26-12.65
							l0.83-0.85L274.86,401.61z"/>
					</g>
				</g>
				<g>
					<g class="st5">
						<g>
							<path class="st6" d="M209.41,96.99c-18.13-4.81-42.16,9.75-48.91,26.46c-0.55,1.37,0.89,0.84,1.35,0.12
								c5.89-9.38,12.63-15.67,23.1-19.58c7.53-2.83,15.47-2.4,23.16-4.2C208.82,99.64,210.64,97.32,209.41,96.99z"/>
							<path class="st7" d="M160.7,125.54L160.7,125.54c-0.54,0-1.01-0.25-1.29-0.67c-0.34-0.5-0.36-1.14-0.06-1.88
								c6.17-15.27,25.69-28.17,42.64-28.17c2.71,0,5.31,0.33,7.75,0.97c0.84,0.23,1.36,0.93,1.33,1.78
								c-0.04,1.29-1.53,3.18-2.7,3.43c-3.17,0.74-6.41,1.11-9.56,1.48c-4.68,0.53-9.09,1.04-13.43,2.67
								c-9.62,3.58-16.34,9.29-22.49,19.08C162.48,124.88,161.59,125.54,160.7,125.54z M201.99,97.29
								c-10.47,0-21.99,5.2-30.34,12.82c3.76-3.1,7.95-5.45,12.87-7.28c4.61-1.73,9.39-2.28,14.01-2.81
								c3.07-0.35,6.25-0.72,9.3-1.43c0.08-0.06,0.31-0.33,0.49-0.6C206.32,97.53,204.2,97.29,201.99,97.29z"/>
						</g>
						<g>
							<path class="st6" d="M124.29,185.56c-10.8,3.93-17.79,17.43-14.21,28.52c0.42,1.4,3.03-1.84,2.93-2.79
								c-1.03-9.96,1.46-19.05,10.79-24.07C124.17,187.03,125.1,185.25,124.29,185.56z"/>
							<path class="st7" d="M110.46,215.67L110.46,215.67c-0.74,0-1.35-0.47-1.57-1.22c-3.71-11.51,3.42-25.84,14.97-30.05
								l0.59-0.11c0.66,0,1.21,0.43,1.36,1.07c0.24,1.01-0.75,2.61-1.46,2.97c-7.82,4.21-11.24,11.9-10.12,22.84
								c0.14,1.26-1.26,2.87-1.54,3.19C111.9,215.24,111.17,215.67,110.46,215.67z M113.51,196.51c-2.81,4.9-3.92,10.77-2.57,16.09
								c0.39-0.46,0.77-1.04,0.83-1.33C111.18,205.56,111.76,200.63,113.51,196.51z"/>
						</g>
						<g>
							<path class="st6" d="M202.71,162.71c-2.55,0.64-5.18-0.31-7.75-0.05c-2.62,0.26-5.24,1.87-7.32,3.35
								c-4.06,2.88-7.4,7.38-8.18,12.37c-0.41,2.32,2.48-0.33,2.79-1.26c1.61-5.12,4.91-8.37,9.8-10.43
								c3.24-1.37,6.94,0.12,10.01-1.75C202.47,164.7,203.96,162.4,202.71,162.71z"/>
							<path class="st7" d="M179.79,180.55L179.79,180.55c-0.48,0-0.91-0.2-1.21-0.55c-0.55-0.65-0.4-1.54-0.34-1.83
								c0.78-4.93,4.03-9.86,8.69-13.17c2.12-1.5,4.94-3.28,7.91-3.57c1.18-0.12,2.39-0.01,3.6,0.11c1.41,0.14,2.88,0.24,3.97-0.03
								l0.51-0.07c0.71,0,1.28,0.43,1.47,1.09c0.35,1.26-1.12,3.13-1.68,3.47c-1.94,1.18-3.99,1.21-5.98,1.24
								c-1.51,0.02-2.93,0.05-4.19,0.58c-4.77,2.01-7.66,5.09-9.1,9.67C183.09,178.51,181.21,180.55,179.79,180.55z M195.93,163.86
								c-0.28,0-0.57,0.01-0.85,0.04c-2.4,0.24-4.85,1.8-6.73,3.13c-0.87,0.61-1.68,1.29-2.42,2.01c1.56-1.4,3.43-2.55,5.63-3.48
								c1.71-0.72,3.44-0.75,5.12-0.78c1.5-0.02,2.93-0.05,4.18-0.6c-0.86-0.01-1.78-0.08-2.68-0.16
								C197.43,163.93,196.68,163.86,195.93,163.86z"/>
						</g>
						<g>
							<path class="st6" d="M114.46,270.58c-6.87-9.87-10.37-19.96-2.63-30.54c0.46-0.64,0.18-1.44-0.51-0.64
								c-3.65,4.3-6.34,8.3-6.87,14.01c-0.64,7.21,2.79,14.92,7.82,19.89C112.99,274.02,114.98,271.34,114.46,270.58z"/>
							<path class="st7" d="M112.56,274.67L112.56,274.67c-0.44,0-0.85-0.17-1.16-0.47c-5.61-5.55-8.82-13.74-8.18-20.89
								c0.54-5.86,3.13-9.97,7.15-14.7c0.44-0.51,0.93-0.77,1.44-0.77h0.76l0.53,0.79c0.32,0.63,0.21,1.47-0.28,2.14
								c-6.33,8.66-5.53,17.35,2.65,29.12c0.31,0.46,0.54,1.27-0.13,2.54C115.23,272.65,114.12,274.67,112.56,274.67z
								 M106.33,250.07c-0.32,1.09-0.54,2.23-0.65,3.46c-0.55,6.24,2.17,13.4,6.98,18.43c0.24-0.27,0.5-0.66,0.6-0.92
								C109.21,265.17,105.35,257.97,106.33,250.07z"/>
						</g>
						<g>
							<path class="st6" d="M178.51,263.68c-3.33-2.8-6.97-5.73-9.26-9.48c-2.89-4.77-0.29-9.58,2.15-13.75
								c0.66-1.12-0.4-1.13-0.97-0.34c-3.14,4.41-5.39,7.49-5.32,13.16c0.1,6.38,6.1,10.95,11.1,13.68
								C177.31,267.55,179.5,264.51,178.51,263.68z"/>
							<path class="st7" d="M176.51,268.27L176.51,268.27c-0.32,0-0.62-0.07-0.89-0.22c-7.6-4.15-11.66-9.25-11.75-14.76
								c-0.08-5.99,2.34-9.4,5.4-13.7c1.11-1.57,2.76-1.56,3.36-0.52c0.23,0.4,0.38,1.07-0.18,2.01c-2.62,4.46-4.58,8.48-2.16,12.47
								c2.04,3.34,5.26,6.04,8.38,8.65l0.62,0.52c0.33,0.28,1.04,1.09,0.49,2.63C179.37,266.54,178.03,268.27,176.51,268.27z
								 M166.75,249.4c-0.28,1.16-0.42,2.42-0.4,3.86c0.09,5.66,5.55,9.89,10.21,12.48c0.34-0.23,0.83-0.89,0.94-1.29l-0.4-0.34
								c-3.27-2.74-6.65-5.57-8.9-9.27C167.08,253.01,166.69,251.17,166.75,249.4z"/>
						</g>
						<g>
							<path class="st6" d="M236.6,248.91c-4.13-3.15-7.71-6.61-9.54-11.59c-1.15-3.23-0.59-6.63,0.72-9.64
								c0.6-1.46,0.84-2.37,0.53-3.87c-0.11-0.52-1.05,0.64-1.08,0.9c-0.31,2.65-2.46,4.89-3.1,7.54c-0.5,2.2-0.7,4.54-0.21,6.76
								c1.26,5.96,4.86,10.62,10.45,13.07C235.48,252.54,237.6,249.69,236.6,248.91z"/>
							<path class="st7" d="M234.63,253.36L234.63,253.36c-0.27,0-0.52-0.05-0.75-0.15c-5.85-2.56-9.81-7.51-11.18-13.95
								c-0.48-2.15-0.41-4.53,0.22-7.29c0.34-1.39,0.99-2.59,1.62-3.77c0.68-1.25,1.32-2.43,1.46-3.64
								c0.08-0.64,1.08-2.13,2.18-2.13h1l0.34,1.1c0.38,1.77,0.1,2.94-0.59,4.6c-0.96,2.21-1.86,5.51-0.7,8.76
								c1.82,4.96,5.64,8.36,9.13,11.02c0.72,0.57,0.93,1.52,0.57,2.55C237.5,251.68,236.13,253.36,234.63,253.36z M225.21,233.09
								c-0.43,2.14-0.45,3.99-0.09,5.65c1.18,5.57,4.56,9.86,9.54,12.11c0.32-0.18,0.78-0.77,0.92-1.16
								c-3.69-2.85-7.69-6.5-9.68-11.95C225.37,236.28,225.14,234.72,225.21,233.09z"/>
						</g>
						<g>
							<path class="st6" d="M244.38,182.98c-4.99-3.84-10.11-3.61-15.36-0.53c-2.96,1.69-6.07,4.44-6.09,8.09
								c-0.02,0.9,1.27-0.6,1.36-0.94c0.85-3.66,6.14-5.56,9.31-5.72c2.92-0.17,5.75,1.45,8.4,2.42
								C243.19,186.75,245.44,183.81,244.38,182.98z"/>
							<path class="st7" d="M223.09,192.06h-0.52l-0.46-0.41c-0.2-0.2-0.43-0.56-0.42-1.14c0.02-3.42,2.4-6.68,6.72-9.14
								c5.97-3.5,11.63-3.29,16.72,0.62c0.73,0.57,0.95,1.53,0.59,2.57c-0.43,1.27-1.88,3.01-3.45,3.01l0,0
								c-0.25,0-0.48-0.04-0.7-0.13c-0.63-0.23-1.27-0.5-1.93-0.78c-1.85-0.78-3.77-1.58-5.61-1.58l-0.35,0.01
								c-2.93,0.15-7.52,1.94-8.18,4.77C225.36,190.37,224.29,192.06,223.09,192.06z M234.03,182.63c2.34,0,4.49,0.9,6.57,1.77
								c0.62,0.26,1.23,0.52,1.84,0.74c0.15-0.11,0.79-0.9,0.95-1.36c-4.13-3.06-8.42-3.22-13.32-0.5c1.22-0.37,2.42-0.59,3.48-0.64
								C233.7,182.64,233.87,182.63,234.03,182.63z"/>
						</g>
						<g>
							<path class="st6" d="M249.31,132.74c-1.65-5.33-8.98-6.54-13.74-6.3c-4.97,0.23-9.63,2.86-12.79,6.61
								c-0.68,0.81-0.7,2.35,0.49,1.14c3.35-3.35,7.97-4.11,12.54-3.73c4.81,0.38,7.09,3.4,10.93,5.45
								C248,136.59,249.63,133.76,249.31,132.74z"/>
							<path class="st7" d="M247.14,137.26L247.14,137.26c-0.35,0-0.68-0.09-0.99-0.25c-1.29-0.69-2.39-1.47-3.45-2.22
								c-2.17-1.53-4.05-2.86-6.99-3.09c-0.67-0.05-1.33-0.09-1.99-0.09c-4.06,0-7.28,1.16-9.58,3.46
								c-0.34,0.34-0.88,0.81-1.57,0.81c-0.58,0-1.09-0.33-1.33-0.86c-0.4-0.87-0.01-2.05,0.59-2.77c3.59-4.24,8.58-6.81,13.68-7.05
								c0.39-0.02,0.79-0.03,1.21-0.03c2.71,0,11.7,0.52,13.77,7.2c0.35,1.1-0.29,2.52-0.94,3.41
								C248.85,136.73,247.99,137.26,247.14,137.26z M233.72,129.14c0.73,0,1.46,0.03,2.19,0.1c3.62,0.28,5.96,1.94,8.22,3.53
								c0.96,0.68,1.94,1.37,3.04,1.97c0.39-0.27,0.97-1.28,0.95-1.7c-1.23-3.95-6.69-5.38-11.39-5.38c-0.38,0-0.74,0.01-1.09,0.03
								c-2.38,0.11-4.78,0.84-6.98,2.08C230.2,129.35,231.89,129.14,233.72,129.14z"/>
						</g>
						<g>
							<path class="st6" d="M292.53,197.61c-0.76,0.07-2.5,2.3-1.37,2.54c9.49,2.08,14.62,12.85,15.34,21.79
								c0.15,1.72,2.55-1.1,2.67-1.89C310.55,210.39,303.88,196.49,292.53,197.61z"/>
							<path class="st7" d="M306.9,223.72L306.9,223.72c-0.74,0-1.53-0.52-1.63-1.68c-0.7-8.6-5.5-18.74-14.38-20.69
								c-0.85-0.18-1.39-0.89-1.34-1.77c0.07-1.22,1.56-3.09,2.86-3.21c4.73-0.46,9.06,1.42,12.47,5.35
								c4.19,4.84,6.41,12.28,5.51,18.51C310.25,221.21,308.47,223.72,306.9,223.72z M292.38,199.18c9,2.56,14.07,12.39,15.21,21.22
								c0.18-0.24,0.33-0.46,0.38-0.6c0.77-5.39-1.27-12.19-4.96-16.45c-1.96-2.26-5.48-4.98-10.35-4.5
								C292.61,198.87,292.5,199.01,292.38,199.18z"/>
						</g>
						<g>
							<path class="st6" d="M314.2,156.83c-0.6,0.09-1.96,2.14-1.04,2.28c9.94,1.12,14.42,9.51,17.91,17.82
								c0.48,1.12,2.28-1.46,2.24-2.13C332.68,164.75,324.91,155.29,314.2,156.83z"/>
							<path class="st7" d="M331.43,178.45L331.43,178.45c-0.66,0-1.22-0.39-1.49-1.03c-3.24-7.71-7.49-16.02-16.91-17.07
								c-0.86-0.13-1.41-0.77-1.41-1.6c-0.01-1.14,1.23-2.95,2.39-3.13c11.78-1.69,19.89,8.9,20.54,19.11c0.06,1.05-1,2.4-1.41,2.83
								C332.56,178.15,332.01,178.45,331.43,178.45z M314.56,158.06c9.4,1.64,13.86,9.58,17.19,17.29c0.17-0.25,0.31-0.51,0.35-0.65
								c-0.58-8.71-7.4-17.98-17.51-16.66C314.58,158.04,314.57,158.04,314.56,158.06z"/>
						</g>
						<g>
							<path class="st6" d="M356.67,125.65c-1.59-1.63-3.37-3.03-5.49-3.9c-2.54-1.03-5.68,0.04-8.28,0.04
								c-0.73,0-2.28,2.06-1.27,2.32c1.96,0.55,3.99,0.66,6,0.93c2.17,0.3,3.86,2.39,5.36,3.81c3.1,2.96,5.5,6.61,7.52,10.38
								c0.71,1.33,2.83-1.75,2.75-2.63C362.67,132.13,359.76,128.76,356.67,125.65z"/>
							<path class="st7" d="M360.97,140.8L360.97,140.8c-0.67,0-1.24-0.36-1.57-0.98c-2.28-4.27-4.66-7.56-7.28-10.07
								c-0.27-0.26-0.54-0.53-0.83-0.82c-1.15-1.16-2.47-2.48-3.84-2.67c-0.52-0.07-1.04-0.13-1.56-0.19
								c-1.51-0.17-3.07-0.35-4.61-0.78c-0.83-0.21-1.33-0.96-1.22-1.87c0.14-1.11,1.49-2.88,2.82-2.88c0.78,0,1.65-0.11,2.56-0.23
								c2.15-0.27,4.5-0.4,6.18,0.27c2.05,0.85,3.98,2.21,5.91,4.18c3,3.01,6.27,6.66,6.92,11.66c0.1,1.08-0.84,2.53-1.49,3.25
								C362.32,140.43,361.64,140.8,360.97,140.8z M342.94,123.16c1.05,0.22,2.12,0.34,3.24,0.47c0.54,0.06,1.08,0.12,1.61,0.19
								c2.21,0.31,3.9,2.01,5.27,3.37c0.27,0.27,0.52,0.53,0.78,0.77c2.67,2.56,5.09,5.83,7.39,10.01c0.36-0.43,0.75-1.08,0.79-1.36
								c-0.54-4.07-3.5-7.35-6.22-10.08c-1.7-1.74-3.36-2.92-5.08-3.63c-1.19-0.48-3.11-0.34-4.94-0.11
								c-0.89,0.11-1.8,0.23-2.69,0.25C343.04,123.06,342.99,123.11,342.94,123.16z"/>
						</g>
						<g>
							<path class="st6" d="M357.86,227.5c-0.75-0.4-2.15,1.55-1.52,2.12c10.37,9.39,6.65,26.48-2.04,35.32
								c-0.89,0.92-1.55,3.79,0.46,2.29C365.11,259.44,372.64,235.11,357.86,227.5z"/>
							<path class="st7" d="M353.85,268.9L353.85,268.9c-0.65,0-1.23-0.38-1.49-0.99c-0.49-1.15,0.29-3.04,1.05-3.83
								c5.05-5.14,8.18-13.05,7.97-20.16c-0.16-5.43-2.19-10.06-5.87-13.39c-0.58-0.52-0.72-1.36-0.38-2.24
								c0.39-1.01,1.4-2.08,2.51-2.08h0.31l0.5,0.2c5.22,2.69,8.28,7.55,8.84,14.06c0.84,9.78-4.44,22.23-11.77,27.76
								C354.89,268.68,354.36,268.9,353.85,268.9z M357.51,229.02c3.98,3.77,6.17,8.88,6.34,14.84c0.15,5.12-1.2,10.46-3.71,15.14
								c3.23-5.55,5.16-12.53,4.67-18.32c-0.33-3.84-1.84-8.97-7.19-11.9C357.6,228.84,357.55,228.93,357.51,229.02z"/>
						</g>
						<g>
							<path class="st6" d="M403,216.95c-0.5-0.77-1.93,1.14-1.68,1.8c1.76,4.27,3.87,8.37,5.24,12.76
								c2.41,7.61-2.35,14.24-6.32,20.24c-0.61,0.93-0.82,3.3,0.79,1.81c4.65-4.36,7.51-9.85,9.13-15.98
								C412.24,229.74,407.03,223.15,403,216.95z"/>
							<path class="st7" d="M400.2,255.28L400.2,255.28c-0.59,0-1.11-0.31-1.4-0.84c-0.55-1.03-0.08-2.61,0.41-3.36l0.54-0.81
								c3.81-5.74,7.76-11.68,5.64-18.38c-0.9-2.9-2.17-5.75-3.4-8.5c-0.61-1.38-1.23-2.76-1.81-4.16c-0.36-0.93,0.16-1.89,0.5-2.39
								c0.34-0.49,1.04-1.31,2.01-1.31c0.55,0,1.04,0.27,1.35,0.74l1.24,1.88c3.79,5.7,8.09,12.16,6.08,19.75
								c-1.77,6.76-4.97,12.33-9.48,16.57C401.51,254.82,400.93,255.28,400.2,255.28z M402.59,218.57c0.53,1.27,1.1,2.54,1.66,3.82
								c1.26,2.81,2.55,5.73,3.5,8.76c2,6.34-0.55,11.96-3.68,17.02c2.17-3.12,3.81-6.77,4.9-10.9c1.72-6.51-2.08-12.22-5.75-17.74
								L402.59,218.57z"/>
						</g>
						<g>
							<path class="st6" d="M307.13,265.34c-0.4-1.02-2.37,1.43-2.13,2.33c1.18,4.03,1.5,8.3-0.34,12.21c-1.99,4.24-6.91,6-11,7.5
								c-0.74,0.28-2.92,3.5-1.57,3.38C304.37,289.62,311.79,276.42,307.13,265.34z"/>
							<path class="st7" d="M292.02,292c-0.8,0-1.43-0.51-1.57-1.28c-0.26-1.43,1.7-4.1,2.78-4.5c4.1-1.5,8.56-3.14,10.31-6.87
								c1.49-3.16,1.58-6.87,0.27-11.33c-0.3-1.11,0.51-2.32,0.88-2.79c0.48-0.62,1.23-1.36,2.13-1.36c0.66,0,1.22,0.39,1.47,1.03
								c2.39,5.67,1.87,12.32-1.39,17.75c-3.23,5.38-8.58,8.79-14.69,9.35L292.02,292z M302.31,284.57
								c-2.43,1.84-5.44,2.95-8.06,3.91c-0.19,0.12-0.48,0.46-0.75,0.84C296.87,288.68,299.92,287.03,302.31,284.57z M306.44,267.03
								c-0.12,0.2-0.21,0.38-0.23,0.5c0.69,2.29,1.02,4.49,0.98,6.57C307.44,271.72,307.19,269.31,306.44,267.03z"/>
						</g>
						<g>
							<path class="st6" d="M217.44,304.53c-9.57-1.51-23.2-1.02-23.59-13.98c-0.06-1.32-2.09,0.96-2.13,1.78
								c-0.66,13.39,12.72,17.07,23.88,15.64C216.55,307.82,218.96,304.79,217.44,304.53z"/>
							<path class="st7" d="M211.1,309.49L211.1,309.49c-7.2,0-13.15-2.08-16.75-5.87c-2.79-2.93-4.1-6.76-3.87-11.36
								c0.06-1.17,1.72-3.36,3.09-3.36c0.69,0,1.47,0.5,1.51,1.59c0.3,10.07,9.42,11.17,18.23,12.24c1.49,0.18,2.95,0.35,4.32,0.57
								c0.95,0.17,1.55,0.87,1.54,1.8c-0.01,1.5-1.98,3.87-3.39,4.09C214.21,309.39,212.65,309.49,211.1,309.49z M192.92,293.43
								c0.03,3.39,1.11,6.27,3.22,8.49c3.09,3.24,8.54,5.1,14.96,5.1l0,0c1.44,0,2.9-0.09,4.34-0.27c0.2-0.11,0.67-0.65,0.97-1.12
								c-1.09-0.16-2.24-0.29-3.4-0.44C204.83,304.2,194.82,302.99,192.92,293.43z"/>
						</g>
						<g>
							<path class="st6" d="M163.66,321.25c-7.05-7.07-17.59-16.43-11.29-27.41c0.58-1.04-0.37-1.09-0.91-0.33
								c-7.13,10.55-1.27,25.66,9.93,30.93C162.54,325.01,164.56,322.14,163.66,321.25z"/>
							<path class="st7" d="M161.71,325.75L161.71,325.75c-0.31,0-0.6-0.07-0.88-0.2c-6.17-2.9-11-8.75-12.89-15.62
								c-1.69-6.15-0.8-12.23,2.5-17.11c0.86-1.23,2.54-1.34,3.14-0.33c0.22,0.38,0.39,1.03-0.12,1.95
								c-5.46,9.52,3,17.91,9.79,24.64l1.3,1.29c0.65,0.65,0.76,1.66,0.31,2.76C164.31,324.43,163.06,325.75,161.71,325.75z
								 M149.58,303.98c0.01,1.73,0.26,3.51,0.75,5.29c1.68,6.13,5.94,11.33,11.41,13.97c0.34-0.2,0.82-0.88,0.9-1.26l-1.14-1.14
								C156.87,316.25,151.12,310.54,149.58,303.98z"/>
						</g>
						<g>
							<path class="st6" d="M170.93,354.22c-9.95,3.36-18.7,0.35-26.82-5.74c-7.94-5.94-10.87-13.6-11.16-23.23
								c-0.03-0.85-1.31,0.55-1.36,0.97c-1.49,11.19,0.91,19.01,9.22,26.86c8.16,7.68,19.26,10.58,29.09,4.68
								C170.6,357.35,172.77,353.6,170.93,354.22z"/>
							<path class="st7" d="M158.81,362.14c-6.56,0-13.25-2.9-18.84-8.15c-8.4-7.94-11.19-16.03-9.6-27.92
								c0.09-0.83,1.31-2.31,2.4-2.31c0.68,0,1.39,0.49,1.42,1.45c0.3,10.13,3.59,17,10.66,22.29c8.91,6.69,17.15,8.45,25.69,5.56
								c1.11-0.37,2.04,0.1,2.29,1.02c0.41,1.5-1.45,4.25-2.29,4.75C166.87,361.02,162.93,362.14,158.81,362.14z M132.38,331.77
								c-0.07,8.18,2.75,14.23,9.29,20.41c8.29,7.8,19.02,9.67,27.6,4.51c0.13-0.12,0.37-0.47,0.6-0.86
								c-8.76,2.51-17.41,0.45-26.5-6.36C137.36,344.98,133.79,339.26,132.38,331.77z"/>
						</g>
						<g>
							<path class="st6" d="M253.35,353.75c-7.29,2.82-13.86,3.93-21.34,1.14c-5.25-1.97-9.38-7.06-14.12-10
								c-0.74-0.46-2.29,1.7-1.6,2.23c5.08,3.84,9.45,10.65,15.78,12.53c7.31,2.2,13.64,0.91,20.3-2.58
								C253.17,356.67,254.94,353.14,253.35,353.75z"/>
							<path class="st7" d="M239.16,361.97L239.16,361.97c-2.47,0-4.9-0.37-7.44-1.14c-4.43-1.32-7.84-4.76-11.14-8.09
								c-1.71-1.73-3.33-3.36-5.03-4.64c-0.63-0.48-0.83-1.3-0.53-2.19c0.33-0.97,1.36-2.33,2.64-2.33h0.35l0.53,0.25
								c1.95,1.21,3.81,2.77,5.6,4.28c2.62,2.21,5.33,4.5,8.3,5.61c2.77,1.04,5.48,1.54,8.27,1.54c3.65,0,7.4-0.82,12.18-2.68
								c1.09-0.42,2.04,0.09,2.27,1.04c0.34,1.39-1.23,4.03-2.23,4.54C247.99,360.76,243.61,361.97,239.16,361.97z M217.48,346.46
								c1.68,1.33,3.29,2.96,4.86,4.54c3.08,3.1,6.27,6.32,10.1,7.46c2.31,0.7,4.51,1.03,6.73,1.03l0,0c4.03,0,8.05-1.12,12.64-3.53
								c0.09-0.07,0.22-0.26,0.35-0.48c-7.99,2.9-14.01,3.01-20.57,0.56c-3.37-1.26-6.25-3.69-9.03-6.03
								c-1.68-1.41-3.26-2.75-4.92-3.83C217.59,346.26,217.53,346.36,217.48,346.46z"/>
						</g>
						<g>
							<path class="st6" d="M252.15,381.11c-16.5,5.97-32.81,12.4-46.6-2.59c-0.61-0.64-2.48,1.76-1.8,2.56
								c12.84,16.08,31.21,11.52,47.45,3.2C251.94,383.9,253.71,380.54,252.15,381.11z"/>
							<path class="st7" d="M225.52,393.08C225.52,393.08,225.52,393.08,225.52,393.08c-9.14,0-16.79-3.77-22.74-11.22
								c-0.29-0.34-0.72-1.17-0.1-2.51c0.35-0.75,1.35-2.17,2.62-2.17c0.44,0,0.85,0.18,1.16,0.49c5.47,5.95,11.79,8.83,19.32,8.83
								c7.87,0,16.05-2.97,24.71-6.11l1.24-0.45c1.06-0.38,2.01,0.11,2.23,1.05c0.32,1.34-1.22,3.89-2.19,4.4
								C241.66,390.56,233.07,393.08,225.52,393.08z M204.87,380.51c10.22,12.6,24.59,13.51,45.77,2.67
								c0.05-0.04,0.12-0.15,0.22-0.29c-8.33,3.02-16.92,6.08-25.08,6.08c-8.01,0-14.75-2.95-20.58-9.02
								C205.06,380.13,204.93,380.35,204.87,380.51z"/>
						</g>
						<g>
							<path class="st6" d="M334.17,331.47c-3.2,9.57-11.13,12.21-20.26,13.82c-1.09,0.22-3.16,3.92-1.78,3.81
								c11.55-0.7,20.94-7.18,24.06-18.56C336.65,328.95,334.4,330.73,334.17,331.47z"/>
							<path class="st7" d="M312.08,350.33c-0.88,0-1.55-0.61-1.63-1.5c-0.15-1.5,1.66-4.46,3.22-4.77
								c9.84-1.74,16.49-4.52,19.33-13c0.27-0.89,1.84-2.41,3.02-2.41h0.61l0.55,0.57c0.32,0.43,0.39,0.98,0.2,1.64
								c-3.13,11.41-12.54,18.68-25.18,19.46L312.08,350.33z M327.59,342.01c-4.03,2.58-8.87,3.68-13.46,4.49
								c-0.18,0.12-0.59,0.71-0.88,1.26C318.9,347.21,323.8,345.2,327.59,342.01z"/>
						</g>
						<g>
							<path class="st6" d="M370.17,333.9c-0.74,13.97-17.18,15.81-27.78,18.47c-0.92,0.23-3.48,3.63-1.77,3.88
								c13.24,2.03,32.62-9.68,31.87-24.28C372.41,330.54,370.23,333.05,370.17,333.9z"/>
							<path class="st7" d="M343.73,357.73L343.73,357.73c-1.14,0-2.25-0.08-3.31-0.25c-0.94-0.14-1.57-0.83-1.62-1.75
								c-0.08-1.62,1.97-4.21,3.28-4.55c1.28-0.33,2.65-0.63,4.06-0.95c10.4-2.36,22.18-5.03,22.79-16.39
								c0.08-1.09,1.79-3.53,3.25-3.53c0.7,0,1.48,0.51,1.53,1.62c0.27,5.34-1.92,10.62-6.33,15.26
								C361.4,353.49,351.89,357.73,343.73,357.73z M341.46,355.13c7.82,0.89,18.01-3.2,24.13-9.64c0.11-0.12,0.22-0.24,0.34-0.36
								c-5.13,4.32-12.91,6.08-19.23,7.51c-1.4,0.32-2.74,0.62-4.01,0.94C342.43,353.73,341.79,354.53,341.46,355.13z"/>
						</g>
					</g>
				</g>
			</g>
		</g>
	</g>
	<g>
		<g>
			<g>
				<path class="st8" d="M119.08,168.24c4.14-7.5,9.3-14.48,15.12-20.92c5.84-6.42,12.5-12.27,20.03-17.07
					c7.52-4.8,15.98-8.51,25.04-10.46c9.06-1.98,18.64-2.13,27.91-0.59l-3.35,14.41c-7.34-2.35-15.1-3.39-22.93-2.85
					c-7.83,0.53-15.69,2.62-23.13,5.99c-7.47,3.35-14.52,7.92-21.01,13.27C130.27,155.38,124.23,161.42,119.08,168.24z"/>
			</g>
			<g>
				<path class="st8" d="M383.53,168.24c-5.16-6.82-11.18-12.87-17.67-18.23c-6.5-5.35-13.56-9.91-21.02-13.27
					c-7.45-3.37-15.3-5.46-23.14-5.99c-7.83-0.54-15.6,0.5-22.94,2.85l-3.33-14.41c9.27-1.54,18.85-1.39,27.9,0.59
					c9.06,1.96,17.52,5.66,25.04,10.46c7.54,4.8,14.18,10.65,20.03,17.07C374.24,153.77,379.4,160.75,383.53,168.24z"/>
			</g>
		</g>
		<g>
			<g>
				<g>
					<path class="st9" d="M232.09,238.35c-12.63,36.82-45.28,58.98-72.95,49.51c-27.66-9.49-39.84-47.03-27.23-83.85
						c12.62-36.82,45.29-58.98,72.94-49.49C232.52,164,244.71,201.54,232.09,238.35z"/>
					<path class="st8" d="M172.39,292.16c-4.78,0-9.46-0.78-13.94-2.3c-14-4.81-24.67-16.53-30.03-33.02
						c-5.29-16.27-4.75-35.27,1.5-53.51c10.72-31.27,36.09-53.12,61.69-53.12c4.78,0,9.47,0.77,13.93,2.3
						c14.02,4.81,24.69,16.53,30.04,33.02c5.28,16.27,4.75,35.27-1.5,53.51C223.36,270.32,197.99,292.16,172.39,292.16z
						 M191.61,154.43c-23.83,0-47.55,20.67-57.7,50.26c-5.96,17.37-6.48,35.43-1.48,50.84c4.93,15.19,14.67,25.96,27.39,30.32
						c4.03,1.37,8.26,2.08,12.57,2.08c23.83,0,47.56-20.67,57.7-50.27c5.96-17.37,6.49-35.43,1.48-50.84
						c-4.92-15.19-14.66-25.96-27.39-30.32C200.15,155.13,195.92,154.43,191.61,154.43z"/>
				</g>
				<g>
					<g>
						<path class="st4" d="M220.28,251.34c-8.21,19.33-26.36,30.13-40.52,24.11c-14.17-6.02-19.01-26.57-10.79-45.89
							c8.21-19.34,26.34-30.13,40.51-24.11C223.66,211.47,228.49,232.01,220.28,251.34z"/>
					</g>
					<g>
						<path class="st8" d="M208.1,246.17c-4.3,10.15-13.85,15.83-21.29,12.66c-7.44-3.16-9.98-13.95-5.68-24.11
							c4.32-10.15,13.85-15.82,21.3-12.66C209.88,225.22,212.42,236.02,208.1,246.17z"/>
					</g>
					<g>
						<path class="st9" d="M198.09,226.04c-3.67,5.03-9.63,6.93-13.31,4.25c-3.68-2.69-3.7-8.94-0.05-13.96
							c3.67-5.04,9.62-6.93,13.3-4.25C201.72,214.76,201.75,221.01,198.09,226.04z"/>
					</g>
				</g>
				<g>
					<path class="st0" d="M169.06,279.8c-26.69-9.1-38.45-45.12-26.27-80.45c5.65-16.4,15.56-30.53,27.12-39.24
						c-15.41,7.83-29.12,24.37-36.2,44.91c-12.18,35.34-0.6,71.72,26.1,80.82c14.3,4.88,30.16,0.66,43.52-9.39
						C192.25,282.09,180.23,283.62,169.06,279.8z"/>
				</g>
			</g>
			<g>
				<g>
					<path class="st9" d="M270.53,238.35c12.62,36.82,45.28,58.98,72.94,49.51c27.66-9.49,39.85-47.03,27.23-83.85
						c-12.63-36.82-45.29-58.98-72.95-49.49C270.09,164,257.9,201.54,270.53,238.35z"/>
					<path class="st8" d="M330.23,292.16L330.23,292.16c-25.6,0-50.98-21.84-61.7-53.12c-12.97-37.86-0.17-76.69,28.55-86.53
						c4.47-1.53,9.15-2.3,13.93-2.3c25.6,0,50.97,21.85,61.69,53.12c12.98,37.87,0.19,76.68-28.54,86.52
						C339.69,291.38,335.01,292.16,330.23,292.16z M311,154.43c-4.31,0-8.54,0.7-12.56,2.08c-26.52,9.09-38.14,45.5-25.92,81.16
						c10.15,29.6,33.87,50.26,57.7,50.27h0c4.32,0,8.54-0.71,12.55-2.08c26.53-9.09,38.15-45.5,25.92-81.16
						C358.56,175.11,334.83,154.43,311,154.43z"/>
				</g>
				<g>
					<g>
						<path class="st4" d="M282.33,251.34c8.2,19.33,26.35,30.13,40.52,24.11c14.17-6.02,19.01-26.57,10.79-45.89
							c-8.21-19.34-26.35-30.13-40.52-24.11C278.96,211.47,274.12,232.01,282.33,251.34z"/>
					</g>
					<g>
						<path class="st8" d="M294.51,246.17c4.31,10.15,13.85,15.83,21.3,12.66c7.44-3.16,9.98-13.95,5.67-24.11
							c-4.32-10.15-13.85-15.82-21.29-12.66C292.73,225.22,290.2,236.02,294.51,246.17z"/>
					</g>
					<g>
						<path class="st9" d="M304.53,226.04c3.67,5.03,9.62,6.93,13.31,4.25c3.69-2.69,3.71-8.94,0.05-13.96
							c-3.66-5.04-9.61-6.93-13.3-4.25C300.9,214.76,300.87,221.01,304.53,226.04z"/>
					</g>
				</g>
				<g>
					<path class="st0" d="M333.4,279.8c26.69-9.1,38.45-45.12,26.27-80.45c-5.65-16.4-14.87-30.13-26.44-38.84
						c15.41,7.82,28.43,23.97,35.52,44.52c12.18,35.34,0.51,71.79-26.19,80.9c-14.29,4.88-30.08,0.58-43.43-9.47
						C310.22,282.09,322.23,283.62,333.4,279.8z"/>
				</g>
			</g>
		</g>
	</g>
	<g>
		<g>
			<path class="st4" d="M335.48,325.61c-0.69,2.02-1.45,4.02-2.31,5.99c-1.72,3.96-3.71,7.86-6.09,11.63
				c-4.69,7.56-10.82,14.7-18.63,20.8c-3.91,3.05-8.26,5.81-12.98,8.21c-4.73,2.39-9.86,4.39-15.26,5.95
				c-5.4,1.55-11.06,2.7-16.83,3.39c-2.89,0.36-5.82,0.6-8.74,0.75c-2.94,0.16-5.84,0.19-8.85,0.18c-5.96,0.05-11.8-0.23-17.6-0.93
				c-5.79-0.69-11.43-1.84-16.83-3.39c-5.41-1.55-10.54-3.55-15.27-5.94c-4.72-2.4-9.07-5.16-12.98-8.21
				c-7.82-6.1-13.94-13.25-18.63-20.81c-2.37-3.78-4.37-7.67-6.08-11.63c-0.85-1.98-1.62-3.98-2.31-5.99
				c-0.32-0.92-0.62-1.85-0.9-2.79c2.91,2.85,8.53,7.57,17.78,12.3c13.15,6.73,36.43,14.74,72.77,14.84h0.65l0,0
				c36.35-0.1,59.62-8.11,72.77-14.84c8.46-4.33,13.89-8.64,16.97-11.53C335.93,324.27,335.71,324.94,335.48,325.61z"/>
		</g>
		<g>
			<path class="st9" d="M334.89,323.24c-3.18,2.86-8.42,6.85-16.24,10.86c-13.15,6.73-36.42,14.75-72.77,14.84l0,0h-0.64
				c-36.35-0.09-59.62-8.11-72.77-14.84c-7.64-3.91-12.79-7.8-16-10.64c14.94,17.34,42.34,38.21,88.03,38.87v0.02
				c0.37,0,0.73-0.01,1.1-0.02c0.37,0.01,0.73,0.02,1.1,0.02v-0.02C292.55,361.67,319.99,340.63,334.89,323.24z"/>
		</g>
		<g>
			<path class="st0" d="M292.96,373.3c-12.7-5.1-27.88-8.52-45.92-8.78v-0.02c-0.38,0-0.74,0.01-1.11,0.01
				c-0.36-0.01-0.73-0.01-1.1-0.01v0.02c-18.3,0.26-33.66,3.77-46.46,9c3.98,1.84,8.22,3.4,12.64,4.67
				c5.4,1.55,11.05,2.7,16.83,3.39c5.79,0.7,11.64,0.98,17.6,0.93c3,0,5.92-0.02,8.85-0.18c2.93-0.15,5.84-0.39,8.74-0.75
				c5.78-0.69,11.43-1.83,16.83-3.39C284.46,376.87,288.85,375.23,292.96,373.3z"/>
		</g>
		<g>
			<g>
				<path class="st10" d="M314.83,316.59c3.39-0.96,7.06-1.35,10.77-1.35c3.71,0.03,7.53,0.52,10.99,1.77
					c3.46,1.22,6.38,3.33,7.85,5.79c1.5,2.45,1.75,5.1,1.1,7.55c-0.85-2.43-1.85-4.74-3.62-6.68c-1.71-1.94-4.13-3.45-7-4.49
					c-2.87-1.04-6.16-1.65-9.54-2.02C321.98,316.79,318.46,316.65,314.83,316.59z"/>
			</g>
			<g>
				<path class="st10" d="M176.51,316.59c-3.63,0.06-7.14,0.2-10.54,0.58c-3.4,0.37-6.67,0.98-9.55,2.02
					c-2.87,1.04-5.28,2.54-7,4.49c-1.76,1.94-2.76,4.25-3.62,6.68c-0.65-2.46-0.39-5.11,1.1-7.55c1.47-2.46,4.39-4.57,7.85-5.79
					c3.46-1.25,7.29-1.74,10.99-1.77C169.44,315.24,173.12,315.63,176.51,316.59z"/>
			</g>
		</g>
		<g>
			<g>
				<path class="st10" d="M245.99,349.9h-0.64c-36.34-0.1-59.6-8.11-72.75-14.84c-14.41-7.38-20.02-14.71-20.26-15.02l3.19-1.13
					c0.05,0.07,5.56,7.21,19.39,14.26c12.74,6.48,35.33,14.21,70.75,14.26c67.98-0.09,89.93-28.23,90.14-28.52l3.19,1.13
					c-0.23,0.31-5.85,7.64-20.27,15.02C305.6,341.79,282.33,349.8,245.99,349.9L245.99,349.9z"/>
			</g>
			<g>
				<path class="st10" d="M153.93,319.48c0.45,2.05,1.06,4.08,1.75,6.09c0.68,2.01,1.44,4.01,2.3,5.99
					c1.71,3.96,3.7,7.86,6.07,11.64c4.69,7.56,10.8,14.71,18.62,20.82c3.92,3.04,8.26,5.8,12.98,8.21c4.73,2.4,9.87,4.41,15.27,5.96
					c5.41,1.55,11.05,2.7,16.84,3.39c5.8,0.71,11.65,0.97,17.61,0.93c3.01,0.01,5.92-0.03,8.86-0.18c2.93-0.15,5.85-0.39,8.75-0.75
					c5.78-0.7,11.44-1.84,16.83-3.4c5.41-1.55,10.54-3.55,15.27-5.95c4.73-2.4,9.08-5.17,13-8.21c7.81-6.11,13.93-13.26,18.62-20.81
					c2.37-3.78,4.36-7.68,6.06-11.64c0.85-1.98,1.63-3.98,2.3-6c0.68-2.01,1.31-4.04,1.75-6.09c-0.46,4.14-1.5,8.24-2.85,12.3
					c-1.37,4.06-3.12,8.06-5.24,11.98c-4.28,7.82-10.11,15.33-18.01,21.83c-7.81,6.52-17.87,11.86-29.24,15.28
					c-11.36,3.42-23.9,4.8-36.12,4.72c-12.22,0.08-24.75-1.3-36.11-4.72c-11.37-3.41-21.42-8.76-29.23-15.28
					c-7.9-6.49-13.73-14.01-18.01-21.82c-2.11-3.91-3.88-7.92-5.23-11.98C155.43,327.72,154.4,323.62,153.93,319.48z"/>
			</g>
		</g>
		<g>
			<g>
				<path class="st10" d="M352.09,321.45c0.17-1.77,0.34-3.49,0.19-5.14c-0.15-1.61-0.73-3.25-2.17-3.99
					c-0.7-0.36-1.72-0.56-2.84-0.65c-1.12-0.08-2.33-0.07-3.55-0.02c-2.46,0.08-5.01,0.3-7.6,0.23c2.39-0.67,4.76-1.26,7.32-1.65
					c1.27-0.18,2.6-0.32,4-0.29c1.38,0.03,2.93,0.23,4.28,0.91c1.35,0.7,2.08,1.69,2.43,2.65c0.35,0.97,0.39,1.93,0.26,2.84
					C354.15,318.18,353.36,319.9,352.09,321.45z"/>
			</g>
			<g>
				<path class="st10" d="M139.69,321.45c-1.27-1.55-2.06-3.28-2.32-5.11c-0.12-0.92-0.08-1.87,0.27-2.84
					c0.36-0.95,1.09-1.95,2.43-2.65c1.35-0.67,2.9-0.87,4.29-0.91c1.4-0.03,2.72,0.11,4,0.29c2.55,0.39,4.93,0.98,7.32,1.65
					c-2.6,0.07-5.14-0.15-7.6-0.23c-1.23-0.04-2.43-0.06-3.56,0.02c-1.12,0.08-2.13,0.28-2.84,0.65c-1.43,0.74-2.02,2.38-2.17,3.99
					C139.35,317.97,139.52,319.69,139.69,321.45z"/>
			</g>
		</g>
	</g>
</g>
</svg>
