<?xml version="1.0" encoding="utf-8"?>
<!-- Generator: Adobe Illustrator 25.4.1, SVG Export Plug-In . SVG Version: 6.00 Build 0)  -->
<svg version="1.1" id="Layer_1" xmlns="http://www.w3.org/2000/svg" xmlns:xlink="http://www.w3.org/1999/xlink" x="0px" y="0px"
	 viewBox="0 0 167.56 165.14" style="enable-background:new 0 0 167.56 165.14;" xml:space="preserve">
<style type="text/css">
	.st0{display:none;}
	.st1{display:inline;fill:#238EB8;}
	.st2{fill:#1B616D;}
	.st3{fill:#238EB8;}
	.st4{fill:#CEE6FF;}
	.st5{fill:#66C45D;}
	.st6{fill:#FF4140;}
	.st7{fill:#E2E2E2;}
	.st8{fill:#575756;}
</style>
<g class="st0">
	<path class="st1" d="M161.81,164.3c-10.52-0.94-19.19-4.98-24.33-14.74c-2.64-5.02-2.77-10.46-2.35-15.97
		c0.84-11.12,4.51-21.57,7.42-32.21c2.65-9.7,5.7-19.29,7.75-29.15c0.95-4.6,1.55-9.23,0.66-13.93c-0.81-4.3-2.87-6.43-7.17-7.4
		c-5.42-1.21-10.72-0.63-15.96,0.97c-1.97,0.6-3.92,1.29-6.2,2.05c0.93-3.76,1.81-7.24,2.64-10.74c0.15-0.61,0.52-0.83,1.02-1.02
		c9.03-3.43,17.95-7.27,27.53-8.94c9.24-1.61,18.41-1.39,27.07,2.86c9.11,4.47,13.94,14.09,13.53,24.2
		c-0.54,13.67-5.27,26.3-8.66,39.27c-2.23,8.53-5.12,16.9-6.66,25.61c-0.81,4.61-1.61,9.24-0.53,13.93
		c0.75,3.29,2.59,5.55,5.95,6.55c5.82,1.73,11.57,1.2,17.29-0.4c2.1-0.59,4.17-1.3,6.46-2.01c-0.88,3.63-1.73,7.14-2.58,10.65
		c-0.14,0.59-0.59,0.8-1.1,0.99c-7.4,2.8-14.69,5.89-22.3,8.1c-2.49,0.73-5.07,1.16-7.67,1.33c-0.4,0.03-0.94-0.24-1.19,0.36
		c-0.65,0-1.3,0-1.95,0c-0.26-0.25-0.52-0.25-0.78,0c-1.17,0-2.34,0-3.51,0c-0.79-0.42-1.64-0.1-2.46-0.2
		C163.08,164.38,162.43,164.55,161.81,164.3z"/>
	<path class="st1" d="M188.43-35.31c1.01,0.65,2.21,0.51,3.31,0.78c8.77,2.19,18.72,10.79,18.2,23.51
		c-0.41,10.05-8,19.01-18.59,21.57C180,13.29,167.96,8.24,162.71-1.46c-5.81-10.71-1.87-23.8,9.13-30.31
		c2.94-1.74,6.06-2.93,9.5-3.21c0.77-0.38,1.66,0.15,2.41-0.33c0.65,0,1.3,0,1.95,0c0.78,0.32,1.56,0.32,2.34,0
		C188.17-35.31,188.3-35.31,188.43-35.31z"/>
</g>
<g>
	<path class="st2" d="M158.32,163.97L9.93,165.14c-5.12,0.04-9.33-3.65-9.37-8.19L-0.61,9.52c-0.04-4.55,4.12-8.3,9.24-8.34
		L157.02,0c5.12-0.04,9.33,3.65,9.37,8.19l1.17,147.43C167.59,160.17,163.43,163.93,158.32,163.97z"/>
	<path class="st3" d="M158.23,153.66L9.85,154.83c-5.12,0.04-9.33-3.41-9.37-7.68L-0.61,8.96C-0.65,4.7,3.51,1.18,8.63,1.14
		l148.39-1.17c5.12-0.04,9.33,3.41,9.37,7.68l1.09,138.19C167.51,150.1,163.35,153.62,158.23,153.66z"/>
	<g>
		<g>
			<path class="st4" d="M114.38,97.99l-98.39,0.78c-2.1,0.02-3.82-1.67-3.83-3.77L12,76.54c-0.02-2.1,1.67-3.82,3.77-3.83
				l98.39-0.78c2.1-0.02,3.82,1.67,3.83,3.77l0.15,18.46C118.17,96.26,116.48,97.98,114.38,97.99z"/>
		</g>
		<g>
			<path class="st4" d="M114.64,134.16l-98.62,0.78c-2.1,0.02-3.82-1.67-3.83-3.77l-0.15-18.46c-0.02-2.1,1.67-3.82,3.77-3.83
				l98.62-0.78c2.1-0.02,3.82,1.67,3.83,3.77l0.15,18.46C118.43,132.42,116.74,134.14,114.64,134.16z"/>
		</g>
		<g>
			<path class="st5" d="M154.14,97.69l-22.6,0.18c-2.1,0.02-3.82-1.67-3.83-3.77l-0.15-18.46c-0.02-2.1,1.67-3.82,3.77-3.83
				l22.6-0.18c2.1-0.02,3.82,1.67,3.83,3.77l0.15,18.46C157.93,95.96,156.24,97.68,154.14,97.69z"/>
		</g>
		<g>
			<path class="st6" d="M154.4,133.86l-22.6,0.18c-2.1,0.02-3.82-1.67-3.83-3.77l-0.15-18.46c-0.02-2.1,1.67-3.82,3.77-3.83
				l22.6-0.18c2.1-0.02,3.82,1.67,3.83,3.77l0.15,18.46C158.19,132.12,156.51,133.84,154.4,133.86z"/>
		</g>
	</g>
	<path class="st7" d="M146.98,59.78h-126c-5.52,0-10-4.48-10-10v-26c0-5.52,4.48-10,10-10h126c5.52,0,10,4.48,10,10v26
		C156.98,55.31,152.5,59.78,146.98,59.78z"/>
	<g>
		<path class="st8" d="M39.13,36.9V21.8l4.89,4.94v7.1L39.13,36.9z M41.25,49.85l-2.12-2.17V37.51l4.89,2.47v7.06L41.25,49.85z
			 M52.03,52.62h-8.01L41.9,50.5l2.77-2.81h6.75l2.82,2.81L52.03,52.62z M52.03,33.83v-7.1l4.98-4.94V36.9L52.03,33.83z
			 M54.85,49.85l-2.82-2.81v-7.06l4.98-2.47v10.17L54.85,49.85z"/>
		<path class="st8" d="M59.61,36.9V26.73l2.12-2.16l2.77,2.81v6.45L59.61,36.9z M59.61,52.62V37.51l4.89,2.47v8.31L59.61,52.62z
			 M71.9,26.73h-6.75l-2.77-2.81l2.12-2.12h8.01l2.21,2.12L71.9,26.73z M72.51,33.83v-6.45l2.82-2.81l2.16,2.16V36.9L72.51,33.83z
			 M72.51,47.04v-7.06l4.98-2.47v15.11L72.51,47.04z"/>
		<path class="st8" d="M80.09,33.83v-7.1l4.89-4.94V36.9L80.09,33.83z M80.09,47.69v-7.71l4.89-2.47v15.11L80.09,47.69z"/>
		<path class="st8" d="M102.04,26.73h-2.42l-2.99-3.07l-3.16,3.07h-2.51l-3.38-4.94h17.92L102.04,26.73z M96.54,52.62l-2.6-2.73
			v-9.65l2.6-2.77l2.47,2.77v9.65L96.54,52.62z M96.58,36.9l-2.6-2.73v-6.67l2.6-2.86l2.42,2.81v6.71L96.58,36.9z"/>
		<path class="st8" d="M108.1,36.9V26.73l2.12-2.16l2.77,2.81v6.45L108.1,36.9z M121,52.62h-12.9l5.54-4.94h6.75l2.82,2.81
			L121,52.62z M120.39,39.33h-6.75l-4.33-2.14l4.33-2.8h6.75l4.33,2.8L120.39,39.33z M120.39,26.73h-6.75l-2.77-2.81l2.12-2.12
			h12.99L120.39,26.73z M123.81,49.85L121,47.04v-7.06l4.98-2.47v10.17L123.81,49.85z"/>
	</g>
</g>
</svg>
