<?xml version="1.0" encoding="utf-8"?>
<!-- Generator: Adobe Illustrator 25.4.1, SVG Export Plug-In . SVG Version: 6.00 Build 0)  -->
<svg version="1.1" id="Layer_1" xmlns="http://www.w3.org/2000/svg" xmlns:xlink="http://www.w3.org/1999/xlink" x="0px" y="0px"
	 viewBox="0 0 159.83 195.23" style="enable-background:new 0 0 159.83 195.23;" xml:space="preserve">
<style type="text/css">
	.st0{fill:#FED8B5;}
	.st1{opacity:0.2;fill:#010101;}
	.st2{fill:#FFFFFF;}
	.st3{fill:#228FB9;}
	.st4{fill:#3C3D43;}
	.st5{opacity:0.3;fill:#010101;}
	.st6{fill:#E1E2E1;}
	.st7{fill:#F1F0F0;}
	.st8{fill:#8D4636;}
	.st9{fill:#9D7851;}
	.st10{fill:#B2B2B2;}
	.st11{fill:#2D2E2D;}
	.st12{opacity:0.15;fill:#010101;}
	.st13{fill:#A7A6A6;}
	.st14{fill:#484848;}
	.st15{fill:#5E5F5F;}
	.st16{fill:#65B6E5;}
	.st17{opacity:0.3;fill:#FFFFFF;}
	.st18{opacity:0.2;fill:#FFFFFF;}
	.st19{fill:#D0D1D1;}
	.st20{fill:#D0E5F6;}
	.st21{fill:#797980;}
	.st22{fill:#EDEDEE;}
	.st23{fill:#75B9D6;}
	.st24{fill:#5184A6;}
</style>
<g>
	<rect x="58.9" y="85.59" class="st0" width="41.35" height="47.12"/>
	<path class="st1" d="M100.25,85.59v5.43c-0.79,0.61-1.7,1.24-2.6,1.87c-0.34,0.24-0.68,0.47-1.02,0.7c-4.8,3.24-9.9,6.35-9.9,6.35
		c-3.78,2.19-9.88,2.19-13.66,0c0,0-6.22-3.8-11.39-7.4c-0.97-0.68-1.9-1.37-2.77-2v-4.96H100.25z"/>
	<path class="st0" d="M109.5,42.45c0,14.25-0.24,30.49-0.88,33.49c-0.5,2.48-3.28,7.06-5.11,8.86c-0.75,0.73-1.9,1.65-3.26,2.68
		c-0.89,0.65-1.92,1.36-2.94,2.09c-0.39,0.27-0.78,0.53-1.19,0.83c-4.72,3.17-9.74,6.23-9.74,6.23c-3.75,2.16-9.86,2.16-13.63,0
		c0,0-6.26-3.82-11.39-7.42c-0.85-0.61-1.68-1.2-2.46-1.75c-1.34-1-2.5-1.92-3.27-2.65c-1.82-1.81-4.57-6.38-5.11-8.86
		c-0.63-2.99-0.88-19.21-0.88-33.44c0-9.35,0.13-17.87,0.3-21.25c0.27-5.46,3.82-12.51,7.83-13.42c0.59-0.12,1.17-0.24,1.7-0.36
		c3.19-0.7,5.55-1.21,5.55-1.21c0.27-0.05,0.54-0.12,0.83-0.17c7.95-1.58,20.17-1.55,27.91,0.1C93.9,6.2,94,6.22,94.1,6.25
		c2.65,0.56,5.13,1.12,7.28,1.57c2.79,0.63,5.38,4.27,6.77,8.26c0.61,1.73,0.97,3.53,1.07,5.16c0.08,1.24,0.13,3.19,0.17,5.6
		C109.46,30.97,109.5,36.52,109.5,42.45z"/>
	<path class="st2" d="M114.27,118.52v54.91H44.89v-54.91h34.7c0,0,0,0,0.03,0H114.27z"/>
	<g>
		<polygon class="st3" points="88.18,173.43 70.88,173.43 71.34,169.44 71.36,169.12 72.27,161.41 72.41,160.1 75.55,132.71 
			75.6,132.27 83.49,132.27 83.53,132.71 86.75,160.92 86.89,162.21 87.75,169.51 87.77,169.78 		"/>
		<polygon class="st3" points="83.57,132.28 75.59,132.28 70.88,118.31 79.63,118.52 88.27,118.31 		"/>
	</g>
	<path class="st4" d="M61.35,4.21c-12,13.84,25.63,35.85,43.83,26.48c9-4.63,7.69-19.53-0.5-24.89C95.67-0.1,67.74-3.13,61.35,4.21z
		"/>
	<path class="st4" d="M61.35,4.21C46.88,7.11,46.01,23.93,49.29,43.66c3.6-11.6,6.95-23.39,12.06-26.1
		C66.99,14.58,68.89,2.7,61.35,4.21z"/>
	<path class="st4" d="M109.87,43.66c-0.13-0.41-0.25-0.8-0.37-1.21c-1.24-4.09-2.36-8.33-3.53-12.18
		c-1.29-4.23-2.63-8.03-4.24-10.64c-0.93-1.51-1.95-2.63-3.09-3.24c-3.36-1.78-5.35-6.81-4.86-10.22c0.34-2.26,1.77-3.8,4.64-3.17
		c0.08,0,0.15,0.03,0.22,0.05c6.74,1.71,10.49,5.77,12.22,11.63C112.98,21.92,112.04,31.9,109.87,43.66z"/>
	<path class="st5" d="M104.72,113.43c0.34,6.5-1.07,13.33-4.09,18.78c-0.6,1.2-1.34,2.35-2.15,3.38c-0.3-0.4-0.63-0.84-1.04-1.3
		c-0.63-0.77-1.37-1.61-2.24-2.48c-5.22-5.42-13.49-11.96-14.12-12.46c-0.04,0-0.04,0-0.04-0.04c12.02-2.84,17.44-8.93,19.19-20.39
		c0.4,0.54,0.73,1.11,1.07,1.71c1.31,2.31,2.25,4.92,2.79,7.7C104.45,109.98,104.65,111.69,104.72,113.43z"/>
	<path class="st2" d="M104.73,114.26c-0.09,1.44-0.27,2.85-0.51,4.26c-0.27,1.58-0.66,3.12-1.14,4.63v0.02
		c-0.7,2.29-1.65,4.46-2.83,6.43c-0.53,0.93-1.11,1.82-1.74,2.66c-0.08-0.1-0.15-0.19-0.25-0.3v-0.02c-2.24-2.98-7.25-6.5-11.49-9.2
		c-2.29-1.44-4.38-2.65-5.69-3.38l-0.03-0.03c-0.05-0.02-0.12-0.05-0.17-0.1c-0.71-0.39-1.14-0.63-1.27-0.7
		c10.56-2.54,17.18-9.51,19.79-19.01c0.34-1.26,0.63-2.58,0.83-3.94c0,0.02,0.02,0.02,0.02,0.05c0.03,0.02,0.06,0.07,0.08,0.09v0.03
		c1.89,2.7,3.16,5.99,3.84,9.49v0.03c0.15,0.7,0.26,1.44,0.34,2.16v0.03c0.05,0.25,0.08,0.52,0.08,0.78
		C104.81,110.2,104.85,112.25,104.73,114.26z"/>
	<path class="st5" d="M78.1,119.32c0,0.04,0,0.04-0.03,0.04c-0.64,0.5-9.04,7.17-14.29,12.63c-0.81,0.8-1.51,1.57-2.08,2.31
		c-0.4,0.46-0.74,0.9-1.04,1.3c-0.8-1.04-1.54-2.18-2.14-3.38c-3.01-5.45-4.42-12.29-4.08-18.78c0.03-1.41,0.19-2.81,0.47-4.18
		c0.03-0.31,0.1-0.6,0.17-0.91c0.53-2.78,1.47-5.39,2.78-7.7c0.34-0.6,0.67-1.17,1.08-1.71C60.66,110.39,66.08,116.48,78.1,119.32z"
		/>
	<path class="st6" d="M147.64,118.52c-1.39-1.87-3.16-3.47-5.16-4.5c-0.44-0.27-0.88-0.46-1.31-0.63c-0.17-0.08-0.37-0.15-0.54-0.2
		l-10.4-4.06l-4.89-1.92l-4.23-1.41l-8.89-1.89l-0.76-0.17l-4.65-0.98l-2.14,4.36l-0.17,0.31v0.03l-0.44,0.9l-0.1,0.22l-0.77,1.56
		l-1.1,2.94c-0.03,0.85-0.1,1.71-0.17,2.58c-0.07,0.95-0.2,1.9-0.32,2.87c-0.07,0.54-0.16,1.09-0.26,1.66
		c-0.1,0.56-0.2,1.11-0.31,1.68c-0.1,0.56-0.23,1.12-0.37,1.71c-0.12,0.56-0.24,1.15-0.42,1.73c-0.34,1.37-0.73,2.76-1.19,4.19
		c-0.27,0.83-0.53,1.61-0.8,2.46v0.02c-0.1,0.25-0.17,0.49-0.24,0.76c-0.21,0.51-0.39,1.05-0.56,1.58c-0.8,2.39-1.65,4.77-2.56,7.13
		c-0.39,1.07-0.8,2.14-1.22,3.22c-2.29,5.92-4.7,11.53-6.93,16.28c0,0.03,0,0.03,0,0.03c-0.29,0.65-0.61,1.29-0.9,1.89
		c-0.3,0.61-0.59,1.19-0.85,1.75c-1.78,3.58-3.39,6.45-4.65,8.28c-0.17,0.19-0.29,0.39-0.44,0.56c-0.12-0.17-0.27-0.36-0.43-0.56
		c-1.77-2.56-4.29-7.11-7.06-12.78c-3.57-7.35-7.52-16.58-10.7-25.81c-0.17-0.53-0.37-1.07-0.53-1.58c-0.1-0.27-0.17-0.51-0.27-0.76
		v-0.02c-0.27-0.85-0.53-1.63-0.8-2.46c-0.02-0.05-0.02-0.08-0.02-0.12c-0.47-1.38-0.86-2.75-1.17-4.07
		c-0.61-2.33-1.05-4.57-1.36-6.77c-0.17-1.16-0.29-2.33-0.39-3.47c0,0,0,0,0-0.05l-1.34-3.41v-0.02l-0.93-2.31l-0.34-0.78
		l-0.03-0.05v-0.05l-2.04-5.25v-0.03l-0.13-0.34h-0.03l-4.67,1l-0.73,0.15l-0.03,0.02l-8.83,1.88l-4.27,1.41l-15.26,5.98
		c-5.52,1.86-10.02,8.03-10.02,13.88l-9.42,67.85h160.97l-9.42-67.85C150.66,124.1,149.49,121.05,147.64,118.52z"/>
	<polygon class="st7" points="71.79,194.91 79.91,194.91 79.91,173.43 71.79,167.92 	"/>
	<path class="st2" d="M58.93,95.58c1.72,11.46,8.63,20.07,20.65,22.94c0,0-14.91,8.03-18.93,13.74
		C53.2,122.53,52.05,105.33,58.93,95.58z"/>
	<g>
		<rect x="105.66" y="167.3" class="st2" width="30.61" height="8.65"/>
		<rect x="22.89" y="167.3" class="st2" width="30.61" height="8.65"/>
	</g>
	<g>
		<g>
			<path class="st8" d="M75.86,182.83c-1.65,0-2.95,1.3-2.95,2.92c0,1.62,1.3,2.95,2.95,2.95c1.62,0,2.92-1.33,2.92-2.95
				C78.78,184.13,77.48,182.83,75.86,182.83z M76.99,186.36c-0.31,0-0.61-0.26-0.61-0.61c0-0.32,0.3-0.61,0.61-0.61
				c0.35,0,0.61,0.29,0.61,0.61C77.6,186.1,77.34,186.36,76.99,186.36z M74.7,186.36c-0.35,0-0.6-0.26-0.6-0.61
				c0-0.32,0.26-0.61,0.6-0.61c0.35,0,0.61,0.29,0.61,0.61C75.31,186.1,75.05,186.36,74.7,186.36z"/>
			<path class="st9" d="M75.86,182.42c-1.85,0-3.35,1.51-3.35,3.33c0,1.82,1.5,3.33,3.35,3.33c1.83,0,3.32-1.51,3.32-3.33
				C79.18,183.93,77.69,182.42,75.86,182.42z M75.86,188.3c-1.42,0-2.55-1.12-2.55-2.54c0-1.39,1.13-2.55,2.55-2.55
				c1.39,0,2.52,1.16,2.52,2.55C78.38,187.17,77.25,188.3,75.86,188.3z"/>
		</g>
		<path class="st10" d="M76.97,186.04h-2.35c-0.16,0-0.29-0.13-0.29-0.29c0-0.16,0.13-0.28,0.29-0.28h2.35
			c0.16,0,0.29,0.12,0.29,0.28C77.26,185.91,77.13,186.04,76.97,186.04z"/>
	</g>
	<path class="st11" d="M87.67,43.02c-1.39,0.35-6.61,2.11-8.09,2.11c-1.48,0-6.69-1.76-8.09-2.11c-4.46-1.1-14.22-0.7-18.33,1.05
		v4.56c0.9,0.4,1.7,7.26,2.5,9.41c0.53,1.44,1.81,2.99,3.3,3.51c3.99,1.37,8.5,1.01,11.67,0.3c1.79-0.4,3.14-1.05,4.16-2.5
		c1.65-2.37,2.26-9.61,4.78-9.61s3.13,7.24,4.78,9.61c1.02,1.46,2.37,2.1,4.16,2.5c3.17,0.71,7.68,1.07,11.67-0.3
		c1.49-0.51,2.77-2.06,3.3-3.51c0.8-2.15,1.6-9.01,2.51-9.41v-4.56C101.89,42.32,92.12,41.91,87.67,43.02z M76.2,50.68
		c-0.15,1.05-0.7,3.6-1.95,6.51c-1.25,2.9-3.26,3.4-4.91,3.75c-0.99,0.21-6.31,0.5-8.41,0c-2.1-0.5-3.56-2.15-4.06-3.41
		c-0.5-1.25-1.4-5.01-1.35-8.26c0.05-3.26,2.61-4.02,4.8-4.61c0.85-0.22,9.46-0.55,13.22,0.9C76.36,46.66,76.35,49.63,76.2,50.68z
		 M102.28,57.54c-0.5,1.25-1.95,2.9-4.05,3.41c-2.1,0.5-7.42,0.21-8.41,0c-1.65-0.35-3.66-0.85-4.91-3.75
		c-1.25-2.9-1.8-5.46-1.95-6.51c-0.15-1.05-0.17-4.02,2.66-5.11c3.75-1.45,12.37-1.13,13.21-0.9c2.19,0.59,4.76,1.35,4.81,4.61
		C103.69,52.53,102.78,56.28,102.28,57.54z"/>
	<path class="st12" d="M64.14,180.74l-6.2-32.77l0.77-0.13l-2.61-14.5c-0.28-1.52-0.85-2.95-1.68-4.21c0,0-0.02-0.05-0.05-0.08
		c-0.49-0.8-1.09-1.53-1.73-2.2c-0.02,0-0.02-0.02-0.02-0.02c-2.38-2.38-5.66-3.93-9.02-3.93h-1.83l-0.26-1.71l-0.75-4.73h-0.85
		v-1.55c0-2.43,0.49-4.76,1.37-6.87c0.03-0.03,0.05-0.08,0.05-0.1c0-0.03,0.03-0.05,0.03-0.08c0.21-0.47,0.41-0.91,0.65-1.34
		c0.05-0.08,0.1-0.16,0.15-0.26c0.23-0.39,0.47-0.8,0.72-1.19c0.08-0.1,0.16-0.21,0.23-0.31c0.03-0.03,0.03-0.05,0.05-0.08
		c-0.13-0.57-0.54-1.06-1.11-1.37h-0.03c-0.21-0.13-0.41-0.23-0.65-0.31c-0.33-0.13-0.75-0.21-1.16-0.23
		c-1.24,1.78-2.22,3.75-2.87,5.84c-0.49,1.55-0.8,3.18-0.91,4.86c-0.03,0.44-0.05,0.88-0.05,1.32v0.39h-0.03v1.29H35.5l-0.03,0.16
		l-0.72,4.58l-0.26,1.71h-1.83c-5.87,0-11.47,4.68-12.51,10.44l-2.3,12.74l-0.05,0.26l-0.26,1.5l0.77,0.13l-6.2,32.77
		c-0.23,1.63,0.05,3.31,0.72,4.86v0.03c0.98,2.3,2.79,4.24,5.02,5.12c3.33,1.35,7.08,1.5,8.53,1.5v0.9h2.27l3.28,0.49
		c0.72,0.1,1.29-0.39,1.29-1.11v-2.53c0-0.57-0.36-1.03-0.91-1.11c-0.13-0.03-0.26-0.03-0.39,0l-3.28,0.52h-2.27v0.88
		c-0.23,0-0.54,0-0.9-0.03c-1.65-0.05-4.42-0.31-6.9-1.32c-1.32-0.54-2.46-1.58-3.26-2.82c0-0.03-0.02-0.03-0.05-0.05
		c-0.28-0.47-0.52-0.9-0.7-1.4c-0.03,0,0-0.03,0-0.03c-0.49-1.16-0.67-2.43-0.52-3.62l6.2-32.69l0.75,0.13l0.54-3
		c0.52-0.65,1.08-1.24,1.68-1.81c1.34-1.34,2.84-2.53,4.44-3.57c3.18-2.02,6.77-3.59,10.44-3.59c3.69,0,7.29,1.58,10.47,3.59
		c1.6,1.03,3.1,2.22,4.44,3.57c0.31,0.28,0.62,0.62,0.93,0.93c0.26,0.28,0.49,0.57,0.75,0.85l0.21,1.14v0.08l0.34,1.81l0.18-0.03
		h0.03l0.54-0.1l6.2,32.69c0.15,1.06,0.03,2.17-0.34,3.23c-0.03,0.05-0.08,0.13-0.08,0.18c-0.73,1.99-2.25,3.75-4.11,4.5
		c-0.91,0.36-1.86,0.62-2.77,0.83c-0.05,0-0.13,0.03-0.21,0.05c-2.07,0.41-3.93,0.47-4.83,0.47v-0.88H47.6l-0.9-0.16l-2.38-0.36
		c-0.72-0.1-1.29,0.41-1.29,1.11v2.53c0,0.72,0.57,1.21,1.29,1.11l3.28-0.49h2.27v-0.9c1.45,0,5.19-0.15,8.55-1.5
		C62.15,189.27,64.7,184.77,64.14,180.74z M53.8,143.7l-0.03-0.05c-1.32-1.65-2.92-3.1-4.63-4.39c-1.39-1.01-2.87-1.89-4.47-2.56
		c-0.08-0.05-0.15-0.08-0.23-0.1c-1.99-0.85-4.11-1.37-6.33-1.42c-4.08,0.05-7.86,1.78-11.01,4.08c-2.02,1.53-3.9,3.31-5.4,5.35
		l0.44-2.48l0.1-0.52l0.1-0.62l1.26-7.03c0.75-4.16,4.81-7.55,9.05-7.55h10.93c3.03,0,5.94,1.73,7.68,4.24
		c0.03,0.03,0.03,0.08,0.05,0.1c0.65,0.98,1.11,2.07,1.32,3.2l1.81,10.08l0.03,0.16l0.08,0.41c-0.13-0.18-0.29-0.39-0.47-0.57
		C53.98,143.93,53.9,143.81,53.8,143.7z"/>
	<g>
		<path class="st13" d="M55.66,146.45c-0.9-1.71-2.15-3.18-3.53-4.5c-1.36-1.34-2.86-2.53-4.45-3.56
			c-3.17-2.02-6.76-3.58-10.46-3.59c-3.69,0.01-7.28,1.57-10.45,3.6c-1.6,1.03-3.09,2.22-4.45,3.56c-1.38,1.31-2.63,2.79-3.53,4.5
			c1.39-3.66,4.29-6.55,7.41-8.88c3.16-2.29,6.94-4.02,11.03-4.07c4.09,0.05,7.87,1.78,11.03,4.08
			C51.37,139.9,54.27,142.79,55.66,146.45z"/>
		<path class="st1" d="M52.14,141.53c-1.36-1.33-2.86-2.53-4.45-3.56c-3.17-2.02-6.76-3.58-10.46-3.59
			c-3.69,0.01-7.28,1.57-10.45,3.6c-1.6,1.03-3.09,2.22-4.45,3.55c-0.97,0.93-1.87,1.94-2.64,3.05c-0.33,0.6-0.64,1.22-0.89,1.86
			c0.9-1.71,2.15-3.18,3.53-4.5c1.36-1.34,2.85-2.53,4.45-3.56c3.17-2.03,6.76-3.58,10.45-3.6c3.69,0.01,7.29,1.57,10.46,3.59
			c1.6,1.03,3.09,2.22,4.45,3.56c1.38,1.32,2.62,2.79,3.53,4.5c-0.25-0.65-0.56-1.27-0.9-1.88C54,143.46,53.1,142.46,52.14,141.53z"
			/>
		<path class="st14" d="M31.04,187.2c0.71-0.11,1.29,0.39,1.29,1.11v2.53c0,0.72-0.58,1.22-1.29,1.11l-3.28-0.5v-3.76L31.04,187.2z"
			/>
		<rect x="25.47" y="187.69" class="st15" width="2.29" height="3.76"/>
		<path class="st13" d="M17.47,146.03l1.94,0.28l-6.25,33c-0.44,3.14,1.62,6.77,4.51,7.92c3.04,1.21,6.47,1.34,7.81,1.34v1.96
			c-1.45,0-5.18-0.14-8.53-1.49c-3.73-1.49-6.3-5.98-5.72-10.02L17.47,146.03z"/>
		<path class="st14" d="M43.42,187.2c-0.72-0.11-1.29,0.39-1.29,1.11v2.53c0,0.72,0.58,1.22,1.29,1.11l3.28-0.5v-3.76L43.42,187.2z"
			/>
		<rect x="46.7" y="187.69" class="st15" width="2.28" height="3.76"/>
		<path class="st13" d="M56.99,146.03l6.25,33.01c0.57,4.04-2,8.53-5.72,10.02c-3.36,1.34-7.09,1.49-8.54,1.49v-1.96
			c1.34,0,4.77-0.13,7.81-1.34c2.89-1.15,4.96-4.78,4.51-7.92l-6.25-33L56.99,146.03z"/>
		<path class="st16" d="M42.01,103.31c0,0,0-0.03,0.03,0c-0.05,0.05-0.08,0.1-0.13,0.18c-0.31,0.47-0.59,0.96-0.85,1.45
			c-0.26,0.49-0.51,1.01-0.72,1.52c-0.28,0.67-0.52,1.37-0.7,2.07c-0.13,0.39-0.21,0.75-0.28,1.14c-0.23,1.16-0.36,2.35-0.36,3.57
			v8.61h-3.51v-8.61c0-1.76,0.2-3.44,0.62-5.07c0.44-1.83,1.11-3.59,2.02-5.19c0.08-0.03,0.18-0.05,0.26-0.08
			c0.65-0.13,1.27-0.18,1.84-0.13c0.41,0.03,0.83,0.1,1.16,0.23C41.6,103.08,41.81,103.18,42.01,103.31z"/>
		<path class="st17" d="M41.36,103c0.23,0.08,0.44,0.18,0.65,0.31c-0.05,0.05-0.08,0.1-0.1,0.18c-0.34,0.47-0.62,0.96-0.85,1.45
			c-0.28,0.49-0.51,1.01-0.72,1.52c-0.28,0.67-0.52,1.37-0.7,2.07c-0.13,0.39-0.21,0.75-0.28,1.14c-0.23,1.16-0.36,2.35-0.36,3.57
			v8.61h-0.88v-8.61c0-1.58,0.21-3.1,0.62-4.57C39.25,106.59,40.15,104.68,41.36,103z"/>
		<rect x="35.47" y="113.47" class="st1" width="3.53" height="8.19"/>
		<polygon class="st16" points="34.62,114.78 39.84,114.78 41.15,122.97 33.31,122.97 		"/>
		<polygon class="st17" points="40.56,122.97 39.26,114.78 37.43,114.78 38.74,122.97 		"/>
		<path class="st17" d="M18.89,146.31l-6.25,33c-0.45,3.14,1.62,6.77,4.51,7.92c3.04,1.21,6.48,1.34,7.81,1.34h0.52
			c-1.33,0-4.76-0.13-7.81-1.34c-2.89-1.15-4.95-4.78-4.51-7.92l6.25-33H18.89z"/>
		<path class="st17" d="M62.72,179.04c0.57,4.04-2,8.53-5.73,10.02c-3.02,1.21-6.32,1.44-8.01,1.48v0.01c1.45,0,5.18-0.14,8.54-1.49
			c3.73-1.49,6.29-5.98,5.72-10.02l-6.25-33.01l-0.51,0.08L62.72,179.04z"/>
		<path class="st16" d="M31.76,121.2H42.7c5.85,0,11.46,4.69,12.51,10.45l2.62,14.48l-3.47,0.63l-2.62-14.49
			c-0.75-4.16-4.8-7.55-9.03-7.55H31.76c-4.23,0-8.28,3.39-9.03,7.55l-2.62,14.49l-3.47-0.63l2.62-14.48
			C20.3,125.89,25.91,121.2,31.76,121.2z"/>
		<path class="st17" d="M22.21,132.28l-2.6,14.39l0.51,0.09l2.62-14.49c0.75-4.16,4.8-7.55,9.03-7.55h-0.52
			C27.01,124.73,22.96,128.12,22.21,132.28z"/>
		<path class="st17" d="M54.68,131.65l2.62,14.48l-2.96,0.53l0.01,0.09l3.47-0.63l-2.62-14.48c-1.04-5.76-6.65-10.45-12.51-10.45
			h-0.52C48.03,121.2,53.64,125.89,54.68,131.65z"/>
	</g>
	<path class="st12" d="M129.06,155.18c0,0.6-0.05,1.19-0.18,1.73c-0.02,0.16-0.08,0.28-0.13,0.41c-0.1,0.41-0.21,0.83-0.39,1.22
		c-0.05,0.13-0.13,0.23-0.18,0.33c-0.21,0.39-0.39,0.78-0.65,1.14c-0.05,0.1-0.15,0.18-0.23,0.26c-0.26,0.36-0.54,0.7-0.85,1.01
		c-1.29,1.27-3,2.09-4.89,2.3c-0.31,0.05-0.62,0.08-0.96,0.08c-4.68,0-8.48-3.8-8.48-8.48c0-2.17,0.85-4.14,2.2-5.63
		c-0.03,0.03-0.08,0.03-0.1,0.05c0.05-0.03,0.1-0.08,0.15-0.13c0.26-0.28,0.57-0.54,0.88-0.8c0.13-0.13,0.26-0.23,0.39-0.34
		c0.34-0.23,0.67-0.44,1.03-0.62c0.15-0.08,0.31-0.18,0.46-0.26c0.39-0.16,0.78-0.28,1.19-0.39c0.15-0.05,0.31-0.13,0.46-0.15
		c0.03,0,0.03,0,0.03,0v-29.28c0-3.39-0.7-6.59-1.89-9.28c-0.7-1.6-1.58-3.02-2.61-4.24c0.23-0.39,0.62-0.7,1.11-0.93
		c0.62-0.31,1.42-0.46,2.27-0.41c0.47,0.62,0.91,1.27,1.29,1.96c0.67,1.14,1.24,2.35,1.71,3.64c1.06,2.79,1.65,5.92,1.65,9.25v29.28
		c0.36,0.08,0.72,0.18,1.06,0.31c0.31,0.08,0.6,0.21,0.88,0.34c0.06,0.03,0.1,0.05,0.16,0.08
		C127.19,149.03,129.06,151.87,129.06,155.18z"/>
	<g>
		<path class="st16" d="M124.3,117.63v32.54h-3.51V117.6c0-3.26-0.65-6.31-1.76-8.92c-0.88-2.2-2.12-4.06-3.59-5.51
			c0.62-0.31,1.42-0.46,2.27-0.41c0.36,0,0.75,0.05,1.14,0.13c0.03,0,0.03,0,0.05,0.03c0.39,0.08,0.78,0.21,1.11,0.36
			c0.02,0,0.02,0,0.05,0.03c0.54,0.75,1.01,1.52,1.45,2.35v0.03c0.1,0.26,0.23,0.49,0.36,0.75c0.13,0.23,0.26,0.49,0.36,0.75
			c0.16,0.36,0.28,0.7,0.41,1.06c0.13,0.36,0.26,0.72,0.36,1.09c0.44,1.27,0.75,2.58,0.96,3.98
			C124.2,114.71,124.3,116.15,124.3,117.63z"/>
		<path class="st14" d="M114.07,155.17c0,4.68,3.79,8.47,8.47,8.47c4.68,0,8.47-3.79,8.47-8.47c0-4.68-3.79-8.47-8.47-8.47
			C117.86,146.71,114.07,150.5,114.07,155.17z"/>
		<path class="st18" d="M130.46,155.74c0-4.67-3.79-8.46-8.47-8.46c-2.26,0-4.3,0.89-5.82,2.33c1.55-1.77,3.82-2.9,6.36-2.9
			c4.68,0,8.47,3.79,8.47,8.47c0,2.42-1.02,4.6-2.65,6.14C129.66,159.83,130.46,157.88,130.46,155.74z"/>
		<rect x="120.77" y="140.83" class="st10" width="3.52" height="10.77"/>
		<path class="st17" d="M124.3,117.63v32.54h-0.88v-32.54c0-3.51-0.65-6.82-1.81-9.74c-0.7-1.83-1.63-3.49-2.71-4.96
			c0.39,0.08,0.78,0.21,1.11,0.36c0.54,0.75,1.03,1.55,1.5,2.38c-0.03,0.03-0.03,0.03,0,0.03c0.23,0.49,0.49,1.01,0.7,1.52
			c0.31,0.67,0.57,1.4,0.8,2.12c0.41,1.27,0.72,2.58,0.96,3.98C124.2,114.71,124.3,116.15,124.3,117.63z"/>
		<path class="st1" d="M120.77,149.5v2.1h3.52v-2.1c-0.55-0.18-1.15-0.29-1.76-0.29C121.92,149.22,121.32,149.32,120.77,149.5z"/>
		<path class="st10" d="M117.31,155.17c0,2.89,2.34,5.22,5.22,5.22c2.89,0,5.22-2.34,5.22-5.22c0-2.89-2.34-5.22-5.22-5.22
			C119.65,149.95,117.31,152.29,117.31,155.17z"/>
		<path class="st17" d="M126.19,157.19c0-2.92-2.36-5.28-5.28-5.28c-0.58,0-1.13,0.12-1.65,0.29c0.81-1.02,2.06-1.7,3.46-1.7
			c2.45,0,4.44,1.99,4.44,4.44c0,1.07-0.39,2.04-1.02,2.8C126.15,157.56,126.19,157.38,126.19,157.19z"/>
	</g>
	<g>
		<path class="st5" d="M79.91,173.43c-23.73-9.61-39.4-27.39-45.2-37.5c3.62-2.15,10.82-5.76,10.82-5.76s-7.2-2.88-10.82-3.61
			c0.5-5.26,5.29-15.24,12.19-22.63l0.03-0.03l0.74-0.16l4.65-0.98l0.17,0.34v0.04l2.14,4.31l0.44,0.9l0.87,1.77
			c-0.07,0.47-0.1,0.97-0.13,1.44c0,0-0.03,0,0,0.03c-0.4,3.65-0.37,7.47,0.27,11.56c0.33,2.05,0.8,4.15,1.51,6.33
			c0.3,0.9,0.6,1.84,0.93,2.74c5.93,16.97,16.57,34.55,20.96,40.65C79.65,173.06,79.78,173.26,79.91,173.43z"/>
		<path class="st19" d="M79.91,173.43c-23.77-10.62-36.93-27.39-42.68-37.5c3.61-2.15,10.81-5.76,10.81-5.76s-7.2-2.88-10.81-3.61
			c0.5-5.26,4.18-15.37,10.44-22.8v-0.03c3.11-3.69,6.86-6.73,11.18-8.14c0,0.06-0.03,0.1-0.03,0.16c-0.4,1.63-0.7,3.28-0.97,4.89
			c-0.8,4.69-1.1,9.38-0.7,14.36c0,0.03,0,0.03,0,0.03c0.37,4.53,1.31,9.25,2.95,14.44c0.27,0.84,0.54,1.64,0.8,2.47
			c0.27,0.77,0.54,1.58,0.8,2.35c5.66,16.31,13.69,32.71,17.78,38.57C79.65,173.06,79.78,173.26,79.91,173.43z"/>
	</g>
	<g>
		<path class="st5" d="M114.27,130.52c1.87,0.92,7.2,3.65,10.18,5.4c-2.14,3.73-5.53,8.52-10.18,13.54
			c-1.36,1.49-2.83,2.99-4.43,4.51c-5.87,5.62-13.24,11.26-22.07,15.82c-2.51,1.31-5.11,2.53-7.87,3.65
			c0.15-0.17,0.27-0.36,0.44-0.56c1.58-2.22,3.94-5.97,6.54-10.64c0,0,0,0,0-0.03c4.61-8.17,10.03-19.2,13.75-29.98
			c0.31-0.92,0.64-1.85,0.92-2.75c0.72-2.19,1.18-4.26,1.52-6.31v-0.02c0.25-1.58,0.41-3.12,0.48-4.63c0.13-2.92-0.02-5.7-0.36-8.39
			l0.75-1.56h0.02l0.1-0.22l0.44-0.9v-0.03l0.17-0.31l2.14-4.36l4.65,0.98l0.76,0.17c2.72,2.92,5.11,6.23,7.03,9.51
			c2.99,5.02,4.87,9.96,5.19,13.14c-2.97,0.59-8.3,2.63-10.18,3.36c-0.42,0.17-0.65,0.26-0.65,0.26S113.86,130.3,114.27,130.52z"/>
		<path class="st19" d="M114.27,131.81c2.4,1.22,5.6,2.9,7.64,4.11c-1.83,3.22-4.31,7.09-7.64,11.22c-1.34,1.65-2.8,3.38-4.43,5.11
			c-5.55,5.92-12.78,12.03-22.1,17.26c-2.46,1.36-5.09,2.68-7.84,3.92c0.15-0.17,0.27-0.36,0.44-0.56c1.26-1.83,2.87-4.7,4.65-8.28
			c0.26-0.56,0.56-1.14,0.85-1.75c0.29-0.61,0.61-1.24,0.9-1.89c0,0,0,0,0-0.03c2.24-4.75,4.65-10.37,6.93-16.28
			c0.42-1.07,0.83-2.14,1.22-3.22c0.9-2.36,1.75-4.75,2.56-7.13c0.17-0.53,0.36-1.07,0.56-1.58c0.07-0.27,0.14-0.51,0.24-0.76v-0.02
			c0.27-0.85,0.54-1.63,0.8-2.46c0.46-1.43,0.85-2.82,1.19-4.19c0.17-0.58,0.3-1.17,0.42-1.73c0.14-0.58,0.27-1.15,0.37-1.71
			c0.12-0.56,0.22-1.12,0.31-1.68c0.1-0.57,0.2-1.12,0.26-1.66c0.12-0.97,0.25-1.92,0.32-2.87c0.07-0.87,0.14-1.73,0.17-2.58
			c0.05-1.15,0.07-2.28,0.03-3.42c-0.03-2.36-0.19-4.67-0.51-6.98v-0.03c-0.09-0.66-0.19-1.34-0.31-2.02
			c-0.26-1.6-0.56-3.24-0.97-4.89v-0.03c0-0.05-0.03-0.07-0.03-0.11c4.31,1.38,8.05,4.45,11.17,8.13c2.66,3.14,4.84,6.76,6.52,10.29
			c2.32,4.82,3.65,9.49,3.92,12.53c-2.05,0.41-5.24,1.54-7.64,2.41c-1.8,0.66-3.16,1.22-3.16,1.22S112.48,130.87,114.27,131.81z"/>
	</g>
	<g>
		<path class="st20" d="M125.94,171.15H96.88c-0.78,0-1.41,0.63-1.41,1.4v17.35c0,0.77,0.63,1.4,1.41,1.4h29.06
			c0.78,0,1.41-0.63,1.41-1.4v-17.35C127.35,171.78,126.71,171.15,125.94,171.15z M114.45,174.59h-6.1v-1.99h6.1V174.59z"/>
		<path class="st21" d="M125.94,191.78H96.88c-1.04,0-1.88-0.84-1.88-1.87v-17.35c0-1.03,0.84-1.87,1.88-1.87h29.06
			c1.03,0,1.88,0.84,1.88,1.87v17.35C127.81,190.94,126.97,191.78,125.94,191.78z M96.88,171.62c-0.52,0-0.94,0.42-0.94,0.93v17.35
			c0,0.52,0.42,0.94,0.94,0.94h29.06c0.52,0,0.94-0.42,0.94-0.94v-17.35c0-0.51-0.42-0.93-0.94-0.93H96.88z"/>
		<g>
			<rect x="114.54" y="176.59" class="st3" width="9.99" height="1.85"/>
			<rect x="111.41" y="180.69" class="st22" width="13.12" height="1.48"/>
			<rect x="111.41" y="184.25" class="st22" width="13.12" height="1.48"/>
			<rect x="111.41" y="187.8" class="st22" width="13.12" height="1.48"/>
		</g>
		<g>
			<rect x="98.66" y="176.59" class="st23" width="10.41" height="12.98"/>
		</g>
		<polygon class="st5" points="113.45,173.5 114.74,170.68 113.45,170.68 		"/>
		<polygon class="st24" points="113.45,173.5 109.35,173.5 108.06,163.64 114.74,163.64 		"/>
		<g>
			<rect x="111.4" y="176.59" class="st3" width="3.14" height="3.14"/>
			<rect x="112.62" y="177.07" class="st2" width="0.7" height="2.15"/>
			<rect x="111.9" y="177.79" class="st2" width="2.15" height="0.71"/>
		</g>
	</g>
</g>
</svg>
