<?xml version="1.0" encoding="utf-8"?>
<!-- Generator: Adobe Illustrator 25.4.1, SVG Export Plug-In . SVG Version: 6.00 Build 0)  -->
<svg version="1.1" id="Layer_1" xmlns="http://www.w3.org/2000/svg" xmlns:xlink="http://www.w3.org/1999/xlink" x="0px" y="0px"
	 viewBox="0 0 500 500" style="enable-background:new 0 0 500 500;" xml:space="preserve">
<style type="text/css">
	.st0{fill:#EDEDEE;}
	.st1{opacity:0.3;fill:#C7C7E4;}
	.st2{fill:#EF4645;}
	.st3{fill:#228FB9;}
</style>
<g id="екг">
	<g>
		<rect x="9.17" y="14.25" class="st0" width="483.41" height="472.26"/>
		<path class="st1" d="M173.16,136.92H4.57V9.64h168.6V136.92z M13.77,127.71h150.18V18.85H13.77V127.71z"/>
		<path class="st1" d="M332.55,136.92h-168.6V9.64h168.6V136.92z M173.16,127.71h150.18V18.85H173.16V127.71z"/>
		<path class="st1" d="M491.93,136.92H323.35V9.64h168.59V136.92z M332.55,127.71h150.17V18.85H332.55V127.71z"/>
		<path class="st1" d="M173.16,254.98H4.57V127.71h168.6V254.98z M13.77,245.78h150.18V136.92H13.77V245.78z"/>
		<path class="st1" d="M332.55,254.98h-168.6V127.71h168.6V254.98z M173.16,245.78h150.18V136.92H173.16V245.78z"/>
		<path class="st1" d="M491.93,254.98H323.35V127.71h168.59V254.98z M332.55,245.78h150.17V136.92H332.55V245.78z"/>
		<path class="st1" d="M173.16,373.05H4.57V245.78h168.6V373.05z M13.77,363.84h150.18V254.98H13.77V363.84z"/>
		<path class="st1" d="M332.55,373.05h-168.6V245.78h168.6V373.05z M173.16,363.84h150.18V254.98H173.16V363.84z"/>
		<path class="st1" d="M491.93,373.05H323.35V245.78h168.59V373.05z M332.55,363.84h150.17V254.98H332.55V363.84z"/>
		<path class="st1" d="M173.16,491.11H4.57V363.84h168.6V491.11z M13.77,481.91h150.18V373.05H13.77V481.91z"/>
		<path class="st1" d="M332.55,491.11h-168.6V363.84h168.6V491.11z M173.16,481.91h150.18V373.05H173.16V481.91z"/>
		<path class="st1" d="M491.93,491.11H323.35V363.84h168.59V491.11z M332.55,481.91h150.17V373.05H332.55V481.91z"/>
	</g>
	<g>
		<polygon class="st2" points="150.43,276.8 113.93,94.08 91.73,181.3 73.03,150.6 62.55,174.16 6.24,174.16 6.24,164.95 
			56.57,164.95 71.75,130.81 88.21,157.81 115.01,52.48 151.16,233.48 167.3,164.95 225.45,164.95 225.45,174.16 174.58,174.16 		
			"/>
		<polygon class="st2" points="362.53,276.8 326.03,94.08 303.84,181.3 285.13,150.6 274.66,174.16 218.34,174.16 218.34,164.95 
			268.67,164.95 283.86,130.81 300.31,157.81 327.11,52.48 363.27,233.48 379.4,164.95 437.55,164.95 437.55,174.16 386.68,174.16 
					"/>
		<polyline class="st2" points="492.58,174.45 434,174.16 434,164.95 492.58,163.78 		"/>
	</g>
	<g>
		<g>
			<polygon class="st3" points="150.44,416.9 113.95,295.61 91.61,353.89 72.96,333.56 62.01,349.89 6.24,349.89 6.24,340.69 
				57.1,340.69 71.82,318.71 88.34,336.69 114.99,267.14 151.16,387.31 167.68,340.69 225.45,340.69 225.45,349.89 174.19,349.89 
							"/>
			<polygon class="st3" points="362.54,416.9 326.05,295.61 303.71,353.89 285.06,333.56 274.12,349.89 218.34,349.89 
				218.34,340.69 269.21,340.69 283.93,318.71 300.44,336.69 327.09,267.14 363.26,387.31 379.79,340.69 437.55,340.69 
				437.55,349.89 386.3,349.89 			"/>
			<path class="st3" d="M496.04,318.71"/>
			<polyline class="st3" points="492.58,349.89 430.44,349.89 430.44,340.69 492.58,341.68 			"/>
		</g>
		<g>
			<polygon class="st3" points="150.44,416.9 113.95,295.61 91.61,353.89 72.96,333.56 62.01,349.89 6.24,349.89 6.24,340.69 
				57.1,340.69 71.82,318.71 88.34,336.69 114.99,267.14 151.16,387.31 167.68,340.69 225.45,340.69 225.45,349.89 174.19,349.89 
							"/>
			<polygon class="st3" points="362.54,416.9 326.05,295.61 303.71,353.89 285.06,333.56 274.12,349.89 218.34,349.89 
				218.34,340.69 269.21,340.69 283.93,318.71 300.44,336.69 327.09,267.14 363.26,387.31 379.79,340.69 437.55,340.69 
				437.55,349.89 386.3,349.89 			"/>
		</g>
	</g>
</g>
</svg>
