<svg xmlns="http://www.w3.org/2000/svg" viewBox="0 0 330.11 544.57"><defs><style>.cls-1{isolation:isolate;}.cls-2{fill:#228fb9;}.cls-3,.cls-4{fill:#0399ae;mix-blend-mode:multiply;}.cls-3,.cls-9{opacity:0.3;}.cls-4{opacity:0.5;}.cls-5{fill:#ebe6e4;}.cls-6{fill:#4e4f55;}.cls-7{fill:#2d2e2d;}.cls-8{fill:#e2e2e2;}.cls-9{fill:#010101;}.cls-10{fill:#ededee;}.cls-11{fill:#ef4645;}.cls-12{fill:#585856;}</style></defs><g class="cls-1"><g id="Layer_1" data-name="Layer 1"><g id="глюкометр"><rect class="cls-2" width="330.11" height="429.25" rx="19"/><path class="cls-3" d="M431.36,29.06a61.85,61.85,0,0,1,4.3,22.71V356.85a62.07,62.07,0,0,1-62.08,62.08h-190a62.08,62.08,0,0,1-62.09-62.08V51.77a61.86,61.86,0,0,1,4.31-22.71,63.28,63.28,0,0,0-12.3,37.58v302a63.65,63.65,0,0,0,63.65,63.65H380a63.65,63.65,0,0,0,63.65-63.65v-302A63.34,63.34,0,0,0,431.36,29.06Z" transform="translate(-113.54 -3)"/><path class="cls-4" d="M236,432.25h85.19V390.48c0-6.84-4.29-12.39-9.59-12.39h-66c-5.3,0-9.6,5.55-9.6,12.39Z" transform="translate(-113.54 -3)"/><rect class="cls-4" x="42.6" y="297.12" width="78.09" height="78.09" rx="0.47"/><rect class="cls-5" x="42.6" y="288.25" width="78.09" height="78.09" rx="0.47"/><polygon class="cls-6" points="98.55 304.38 56.45 328.68 98.55 353 98.55 304.38"/><polygon class="cls-7" points="95.6 310.27 60.08 330.79 56.45 328.68 98.55 304.38 98.55 353 95.6 351.31 95.6 310.27"/><rect class="cls-4" x="209.42" y="297.12" width="78.09" height="78.09" rx="0.47"/><rect class="cls-5" x="209.42" y="288.25" width="78.09" height="78.09" rx="0.47"/><polygon class="cls-6" points="231.11 304.38 273.21 328.68 231.11 353 231.11 304.38"/><polygon class="cls-7" points="234.06 310.27 269.58 330.79 273.21 328.68 231.11 304.38 231.11 353 234.06 351.31 234.06 310.27"/><path class="cls-8" d="M373.68,260.21H180.12c-16,0-28.89-10.83-28.89-24.16V74.27c0-13.34,12.93-24.14,28.89-24.14H373.68c16,0,28.9,10.8,28.9,24.14V236.05C402.58,249.38,389.65,260.21,373.68,260.21Z" transform="translate(-113.54 -3)"/><path class="cls-9" d="M158.4,243.23V81.47c0-13.35,12.94-24.16,28.9-24.16H380.87a32.39,32.39,0,0,1,18.05,5.42c-4.89-7.47-14.31-12.6-25.24-12.6H180.12c-16,0-28.89,10.8-28.89,24.14V236.05c0,7.62,4.26,14.29,10.83,18.7A20.93,20.93,0,0,1,158.4,243.23Z" transform="translate(-113.54 -3)"/><rect class="cls-10" x="131.28" y="387.88" width="64.99" height="156.69" rx="4.25"/><path class="cls-11" d="M288.93,547.57h-23.4v-33c0-4.9,5.23-8.86,11.7-8.86h0c6.46,0,11.7,4,11.7,8.86Z" transform="translate(-113.54 -3)"/><path class="cls-12" d="M209,119.36a12.51,12.51,0,1,1-25,0c0-6.9,12.51-34.23,12.51-34.23S209,112.46,209,119.36Z" transform="translate(-113.54 -3)"/><path class="cls-12" d="M234.81,194.74l-2.1,25.35-10.38,9.51,3.27-37.14,3.78-3.67Zm38.73,36.64H223.77l10.41-9.51H265Zm-47-49.69,3.28-37.26,8.58,9.5-2.23,25.35-6.37,6Zm43.08.64,4.44,4.75-5.32,4.75H235.57l-4.1-4.75,5.07-4.75Zm11.65-39.55-10.14,9.51H240.34l-8.62-9.51Zm-2.54,49.69-3.29,37.13L267,220.1l2.12-25.35,6.46-6Z" transform="translate(-113.54 -3)"/><path class="cls-12" d="M290.52,231.38l.89-9.51h9.5l-.88,9.51Z" transform="translate(-113.54 -3)"/><path class="cls-12" d="M325.62,220.09l-10.39,9.51,3.27-37.14,3.78-3.67,5.43,6Zm40.82,11.29H316.68l10.4-9.51h30.85Zm-37.36-52.1-6.38,6-3.26-3.56,3.28-37.26,8.58,9.5Zm45.1-36.5L364,152.29H333.24l-8.62-9.51Zm-5.84,86.82-8.45-9.5,2.1-25.35,6.46-6,3.15,3.67Zm4.21-47.91-3.71,3.56-5.49-6,2.23-25.34,10.24-9.51Z" transform="translate(-113.54 -3)"/></g></g></g></svg>