<?xml version="1.0" encoding="utf-8"?>
<!-- Generator: Adobe Illustrator 25.4.1, SVG Export Plug-In . SVG Version: 6.00 Build 0)  -->
<svg version="1.1" id="Layer_1" xmlns="http://www.w3.org/2000/svg" xmlns:xlink="http://www.w3.org/1999/xlink" x="0px" y="0px"
	 viewBox="0 0 88.34 201.35" style="enable-background:new 0 0 88.34 201.35;" xml:space="preserve">
<style type="text/css">
	.st0{fill:#238EB8;}
</style>
<g>
	<path class="st0" d="M40.2,199.61c-10.52-0.94-19.19-4.98-24.33-14.74c-2.64-5.02-2.77-10.46-2.35-15.97
		c0.84-11.12,4.51-21.57,7.42-32.21c2.65-9.7,5.7-19.29,7.75-29.15c0.95-4.6,1.55-9.23,0.66-13.93c-0.81-4.3-2.87-6.43-7.17-7.4
		C16.75,85,11.44,85.58,6.2,87.18c-1.97,0.6-3.92,1.29-6.2,2.05c0.93-3.76,1.81-7.24,2.64-10.74c0.15-0.61,0.52-0.83,1.02-1.02
		c9.03-3.43,17.95-7.27,27.53-8.94c9.24-1.61,18.41-1.39,27.07,2.86c9.11,4.47,13.94,14.09,13.53,24.2
		c-0.54,13.67-5.27,26.3-8.66,39.27c-2.23,8.53-5.12,16.9-6.66,25.61c-0.81,4.61-1.61,9.24-0.53,13.93
		c0.75,3.29,2.59,5.55,5.95,6.55c5.82,1.73,11.57,1.2,17.29-0.4c2.1-0.59,4.17-1.29,6.46-2.01c-0.88,3.63-1.73,7.14-2.58,10.65
		c-0.14,0.59-0.59,0.8-1.1,0.99c-7.4,2.8-14.69,5.89-22.3,8.1c-2.49,0.73-5.07,1.16-7.67,1.33c-0.4,0.03-0.94-0.24-1.19,0.36
		c-0.65,0-1.3,0-1.95,0c-0.26-0.25-0.52-0.25-0.78,0c-1.17,0-2.34,0-3.51,0c-0.79-0.42-1.64-0.1-2.46-0.2
		C41.46,199.69,40.82,199.86,40.2,199.61z"/>
	<path class="st0" d="M66.81,0c1.01,0.65,2.21,0.51,3.31,0.78c8.77,2.19,18.72,10.79,18.2,23.51c-0.41,10.05-8,19.01-18.59,21.57
		c-11.34,2.73-23.38-2.32-28.64-12.01c-5.81-10.71-1.87-23.8,9.13-30.31c2.94-1.74,6.06-2.93,9.5-3.21
		c0.77-0.38,1.66,0.15,2.41-0.33c0.65,0,1.3,0,1.95,0c0.78,0.32,1.56,0.32,2.34,0C66.55,0,66.68,0,66.81,0z"/>
</g>
</svg>
