<?xml version="1.0" encoding="utf-8"?>
<!-- Generator: Adobe Illustrator 25.4.1, SVG Export Plug-In . SVG Version: 6.00 Build 0)  -->
<svg version="1.1" id="Layer_1" xmlns="http://www.w3.org/2000/svg" xmlns:xlink="http://www.w3.org/1999/xlink" x="0px" y="0px"
	 viewBox="0 0 500 500" style="enable-background:new 0 0 500 500;" xml:space="preserve">
<style type="text/css">
	.st0{fill:#228FB9;}
	.st1{fill:#D5D4D9;}
	.st2{fill:#B4E3F7;}
	.st3{fill:#88C7E4;}
	.st4{fill:#484848;}
	.st5{fill:#7C7B7B;}
	.st6{opacity:0.5;fill:#FFFFFF;}
	.st7{fill:#B2B2B2;}
	.st8{opacity:0.3;fill:#D5D4D9;}
	.st9{fill:#FFC646;}
	.st10{opacity:0.3;fill:#8384B5;}
	.st11{fill:#EDEDEE;}
	.st12{fill:#5B4843;}
	.st13{fill:#FFFFFF;}
</style>
<g id="insulinka2" transform="translate(-60 0)">
	<g>
		<polygon class="st0" points="286.71,8.63 326.66,8.62 326.66,19.15 286.71,19.15 		"/>
	</g>
	<polygon class="st1" points="299,425.73 299,434.44 314.37,434.44 314.37,425.71 324.87,419.25 324.87,145.23 288.49,145.23 
		288.49,419.25 	"/>
	<polygon class="st0" points="323.07,277.85 323.07,416.96 312.54,423.44 312.54,434.44 300.79,434.44 300.79,423.44 290.3,416.96 
		290.3,277.85 	"/>
	<g>
		<rect x="291.85" y="19.15" class="st2" width="29.67" height="217.49"/>
		<rect x="302.47" y="19.15" class="st3" width="8.41" height="217.49"/>
	</g>
	<g>
		<polygon class="st0" points="272.82,134.71 340.53,134.71 340.53,145.23 272.82,145.25 		"/>
	</g>
	<polygon class="st4" points="289.05,264.11 324.32,264.13 324.32,277.85 289.04,277.85 	"/>
	<polygon class="st4" points="289.05,236.63 324.32,236.65 324.32,250.37 289.04,250.37 	"/>
	<polygon class="st5" points="292.25,250.37 321.12,250.39 321.12,264.11 292.23,264.11 	"/>
	<polygon class="st6" points="313.9,414.14 310.54,420.62 310.54,434.44 314.37,434.44 314.37,425.71 321.29,419.22 321.29,145.25 
		313.9,145.23 	"/>
	<g>
		<polygon class="st7" points="290.62,416.36 323.18,416.37 323.18,419.59 290.62,419.59 		"/>
	</g>
	<rect x="288.49" y="145.25" class="st8" width="36.38" height="132.62"/>
	<path class="st9" d="M326,418.4c0,0,0.01,1.67,0.02,3.74c0.01,2.07-0.57,3.75-1.86,3.75l-35.41,0.04c-1.29,0-1.89-1.67-1.9-3.75
		l-0.02-3.74L326,418.4z"/>
	<path class="st9" d="M323.1,423.72l0.26,46.56c0.04,6.96,1.5,13.47-2.17,16.1c-1.9,1.36-9.38,2.65-14.98,2.65
		c-5.38,0.01-12.26-1.37-14.3-2.62c-4.37-2.68-2.25-9.14-2.28-16.1l-0.26-46.56L323.1,423.72z"/>
	<g>
		<g>
			<path class="st7" d="M317.12,425.97c0.78,0,1.43,1.59,1.44,3.56l0.29,53.41c0.01,1.97-0.61,3.56-1.4,3.56
				c-0.78,0-1.43-1.59-1.44-3.56l-0.29-53.41C315.71,427.56,316.33,425.97,317.12,425.97z"/>
		</g>
		<g>
			<path class="st7" d="M309.76,425.98c0.78,0,1.43,1.59,1.44,3.56l0.29,53.41c0.01,1.97-0.61,3.56-1.4,3.56
				c-0.78,0-1.43-1.59-1.44-3.56l-0.29-53.41C308.35,427.57,308.98,425.98,309.76,425.98z"/>
		</g>
		<g>
			<path class="st7" d="M302.41,425.99c0.78,0,1.43,1.59,1.44,3.56l0.29,53.41c0.01,1.97-0.62,3.56-1.4,3.56
				c-0.78,0-1.43-1.59-1.44-3.56l-0.29-53.41C301,427.58,301.62,425.99,302.41,425.99z"/>
		</g>
		<g>
			<path class="st7" d="M295.05,425.99c0.78,0,1.43,1.59,1.44,3.56l0.29,53.41c0.01,1.97-0.62,3.56-1.4,3.56
				c-0.78,0-1.43-1.59-1.44-3.56l-0.29-53.41C293.64,427.58,294.27,425.99,295.05,425.99z"/>
		</g>
	</g>
</g>
</svg>
