<?xml version="1.0" encoding="utf-8"?>
<!-- Generator: Adobe Illustrator 25.4.1, SVG Export Plug-In . SVG Version: 6.00 Build 0)  -->
<svg version="1.1" id="Layer_1" xmlns="http://www.w3.org/2000/svg" xmlns:xlink="http://www.w3.org/1999/xlink" x="0px" y="0px"
	 viewBox="0 0 500 500" style="enable-background:new 0 0 500 500;" xml:space="preserve">
<style type="text/css">
	.st0{fill:#228FB9;}
	.st1{fill:#D5D4D9;}
	.st2{fill:#B4E3F7;}
	.st3{fill:#88C7E4;}
	.st4{fill:#484848;}
	.st5{fill:#7C7B7B;}
	.st6{opacity:0.5;fill:#FFFFFF;}
	.st7{fill:#B2B2B2;}
	.st8{opacity:0.3;fill:#D5D4D9;}
	.st9{fill:#FFC646;}
	.st10{opacity:0.3;fill:#8384B5;}
	.st11{fill:#EDEDEE;}
	.st12{fill:#5B4843;}
	.st13{fill:#FFFFFF;}
</style>
<g id="insulinka2">
	<g>
		<polygon class="st0" points="286.71,8.63 326.66,8.62 326.66,19.15 286.71,19.15 		"/>
	</g>
	<polygon class="st1" points="299,425.73 299,434.44 314.37,434.44 314.37,425.71 324.87,419.25 324.87,145.23 288.49,145.23 
		288.49,419.25 	"/>
	<polygon class="st0" points="323.07,277.85 323.07,416.96 312.54,423.44 312.54,434.44 300.79,434.44 300.79,423.44 290.3,416.96 
		290.3,277.85 	"/>
	<g>
		<rect x="291.85" y="19.15" class="st2" width="29.67" height="217.49"/>
		<rect x="302.47" y="19.15" class="st3" width="8.41" height="217.49"/>
	</g>
	<g>
		<polygon class="st0" points="272.82,134.71 340.53,134.71 340.53,145.23 272.82,145.25 		"/>
	</g>
	<polygon class="st4" points="289.05,264.11 324.32,264.13 324.32,277.85 289.04,277.85 	"/>
	<polygon class="st4" points="289.05,236.63 324.32,236.65 324.32,250.37 289.04,250.37 	"/>
	<polygon class="st5" points="292.25,250.37 321.12,250.39 321.12,264.11 292.23,264.11 	"/>
	<polygon class="st6" points="313.9,414.14 310.54,420.62 310.54,434.44 314.37,434.44 314.37,425.71 321.29,419.22 321.29,145.25 
		313.9,145.23 	"/>
	<g>
		<polygon class="st7" points="290.62,416.36 323.18,416.37 323.18,419.59 290.62,419.59 		"/>
	</g>
	<rect x="288.49" y="145.25" class="st8" width="36.38" height="132.62"/>
	<path class="st9" d="M326,418.4c0,0,0.01,1.67,0.02,3.74c0.01,2.07-0.57,3.75-1.86,3.75l-35.41,0.04c-1.29,0-1.89-1.67-1.9-3.75
		l-0.02-3.74L326,418.4z"/>
	<path class="st9" d="M323.1,423.72l0.26,46.56c0.04,6.96,1.5,13.47-2.17,16.1c-1.9,1.36-9.38,2.65-14.98,2.65
		c-5.38,0.01-12.26-1.37-14.3-2.62c-4.37-2.68-2.25-9.14-2.28-16.1l-0.26-46.56L323.1,423.72z"/>
	<g>
		<g>
			<path class="st7" d="M317.12,425.97c0.78,0,1.43,1.59,1.44,3.56l0.29,53.41c0.01,1.97-0.61,3.56-1.4,3.56
				c-0.78,0-1.43-1.59-1.44-3.56l-0.29-53.41C315.71,427.56,316.33,425.97,317.12,425.97z"/>
		</g>
		<g>
			<path class="st7" d="M309.76,425.98c0.78,0,1.43,1.59,1.44,3.56l0.29,53.41c0.01,1.97-0.61,3.56-1.4,3.56
				c-0.78,0-1.43-1.59-1.44-3.56l-0.29-53.41C308.35,427.57,308.98,425.98,309.76,425.98z"/>
		</g>
		<g>
			<path class="st7" d="M302.41,425.99c0.78,0,1.43,1.59,1.44,3.56l0.29,53.41c0.01,1.97-0.62,3.56-1.4,3.56
				c-0.78,0-1.43-1.59-1.44-3.56l-0.29-53.41C301,427.58,301.62,425.99,302.41,425.99z"/>
		</g>
		<g>
			<path class="st7" d="M295.05,425.99c0.78,0,1.43,1.59,1.44,3.56l0.29,53.41c0.01,1.97-0.62,3.56-1.4,3.56
				c-0.78,0-1.43-1.59-1.44-3.56l-0.29-53.41C293.64,427.58,294.27,425.99,295.05,425.99z"/>
		</g>
	</g>
</g>
<g id="инсулин">
	<path class="st0" d="M224.97,60.9l-53.26,0.74l-1.29-50.5c-0.03-1,1.06-1.83,2.42-1.85l48.34-0.67c1.36-0.02,2.48,0.78,2.51,1.78
		L224.97,60.9z"/>
	<path class="st10" d="M207.42,8.81L186.57,9.1c-2.24,0.03-4.36,0.39-6.28,1.03c1.28,0.1,2.55,0.25,3.79,0.49
		c29.71,5.66,25.55,48.07-12.69,38.88l0.31,12.15l53.27-0.74l-1.04-40.38C223.76,13.93,216.37,8.68,207.42,8.81z"/>
	<path class="st11" d="M244.88,214.49c-0.06-2.92-0.12-5.82-0.19-8.78c-1.8-70.16-4.26-123.32-5.42-138.92
		c-0.46-6.24-5.23-11.06-13.25-10.94l-55.75,0.78c-7.99,0.11-12.52,5-12.68,11.23c-0.36,14.79-0.03,66.54,1.83,139.04
		c0.08,2.95,0.17,5.86,0.26,8.78L244.88,214.49z"/>
	<path class="st0" d="M244.88,214.49l-85.2,1.19c4.43,146.12,18.7,230.96,25.08,267.82c0.82,4.75,6.88,8.28,14.02,8.18l21.09-0.29
		c7.15-0.1,13.03-3.74,13.58-8.51c4.46-38.57,15.07-127.96,11.25-277.15C244.76,208.67,244.82,211.57,244.88,214.49z"/>
	<path class="st10" d="M245.32,239.26c-0.03-2.18-0.05-4.33-0.08-6.54l-84.94,1.18c0.08,2.19,0.16,4.38,0.25,6.54L245.32,239.26z"/>
	<g>
		<polygon class="st12" points="224.52,166.76 177.58,167.42 175.94,103.52 222.88,102.87 		"/>
		<polygon class="st13" points="219.32,162.77 182.57,163.28 181.14,107.52 217.89,107.01 		"/>
		<g>
			<g>
				<path class="st12" d="M214.29,136.61c0.04,1.77-0.59,3.13-1.92,4.11c-1.33,0.97-3.13,1.46-5.45,1.5l-12.25,0.15
					c-2.4,0.02-4.29-0.4-5.71-1.29c-1.4-0.9-2.14-2.25-2.19-4.09c-0.05-1.8,0.64-3.15,2.01-4.09c1.36-0.94,3.23-1.41,5.61-1.46
					l12.25-0.15c2.27-0.03,4.09,0.41,5.49,1.35C213.52,133.57,214.25,134.91,214.29,136.61z M208.83,136.68
					c0-0.58-0.75-0.88-2.26-0.86l-11.85,0.16c0,0-0.11-0.01-0.24-0.01c-0.16,0-0.27,0.03-0.33,0.01c-0.07,0.02-0.17,0.05-0.35,0.01
					c-0.16,0-0.28,0.04-0.38,0.06c-0.08,0.02-0.19,0.05-0.35,0.06c-0.13,0.03-0.26,0.07-0.33,0.13c-0.06,0.05-0.17,0.08-0.24,0.14
					c-0.07,0.1-0.15,0.16-0.18,0.24c-0.04,0.09-0.03,0.2-0.03,0.32c-0.01,0.12,0.02,0.26,0.08,0.37c0.07,0.1,0.17,0.19,0.31,0.26
					c0.14,0.04,0.25,0.09,0.38,0.13c0.12,0.08,0.28,0.08,0.47,0.11c0.21-0.02,0.36-0.02,0.44,0c0.05-0.01,0.12,0.01,0.2-0.02
					c0.07,0.02,0.16,0,0.27,0.01c0.21-0.02,0.32-0.01,0.33-0.01l11.84-0.16C208.12,137.6,208.84,137.29,208.83,136.68z"/>
				<path class="st12" d="M213.47,125.15l-20.93,0.27l1.86,2.44l-4.5,0.05c-0.05-0.07-0.23-0.29-0.56-0.66
					c-0.31-0.38-0.61-0.73-0.89-1.04c-0.26-0.32-0.53-0.63-0.85-0.97c-0.32-0.34-0.54-0.55-0.7-0.7l-0.08-3.49l26.54-0.38
					L213.47,125.15z"/>
			</g>
		</g>
	</g>
	<path class="st10" d="M158.7,63.17c13.93-0.93,56.89,8.05,58.34,153.84c1.73,174.09,1.14,257.63-19.32,258.92
		c-6.07,0.38-11.24-2.91-15.55-7.68c0.95,5.77,1.83,10.86,2.59,15.25c0.82,4.75,6.88,8.28,14.02,8.18l21.09-0.29
		c7.15-0.1,13.03-3.73,13.58-8.51c4.46-38.57,15.07-127.96,11.24-277.15c-1.8-70.16-4.26-123.32-5.42-138.92
		c-0.46-6.24-5.23-11.05-13.25-10.94l-55.75,0.78C164.45,56.71,160.49,59.34,158.7,63.17z"/>
</g>
</svg>
