<?xml version="1.0" encoding="utf-8"?>
<!-- Generator: Adobe Illustrator 25.4.1, SVG Export Plug-In . SVG Version: 6.00 Build 0)  -->
<svg version="1.1" id="Layer_1" xmlns="http://www.w3.org/2000/svg" xmlns:xlink="http://www.w3.org/1999/xlink" x="0px" y="0px"
	 viewBox="0 0 131.85 131.93" style="enable-background:new 0 0 131.85 131.93;" xml:space="preserve">
<style type="text/css">
	.st0{fill:#238EB8;}
</style>
<path class="st0" d="M77.01,54.93l0.01-43.87C77.01,4.96,72.09,0,66,0c-6.1,0-11.1,4.96-11.06,11.02l-0.01,43.92l-43.92,0.01
	C4.92,54.94,0,59.9,0,66s4.96,11.02,11.06,11.02l43.87-0.01l-0.01,43.87c0,6.1,4.92,11.06,11.02,11.06c3.05,0,5.83-1.24,7.82-3.23
	c1.99-1.99,3.25-4.76,3.23-7.78L77,77l43.92-0.01c3.05,0,5.79-1.24,7.78-3.23c1.99-1.99,3.23-4.78,3.23-7.83
	c0-6.1-4.96-11.02-11.06-11.02L77.01,54.93z"/>
</svg>
