<?xml version="1.0" encoding="utf-8"?>
<!-- Generator: Adobe Illustrator 25.4.1, SVG Export Plug-In . SVG Version: 6.00 Build 0)  -->
<svg version="1.1" id="Layer_1" xmlns="http://www.w3.org/2000/svg" xmlns:xlink="http://www.w3.org/1999/xlink" x="0px" y="0px"
	 viewBox="0 0 257.36 94.69" style="enable-background:new 0 0 257.36 94.69;" xml:space="preserve">
<style type="text/css">
	.st0{display:none;fill:#228FB9;}
	.st1{display:none;opacity:0.3;fill:#0399AE;}
	.st2{display:none;fill:#E2E2E2;}
	.st3{display:none;opacity:0.3;fill:#010101;}
	.st4{display:none;fill:#585856;}
	.st5{display:none;}
	.st6{display:inline;fill:#585856;}
	.st7{display:inline;fill:#FFFFFF;}
	.st8{display:inline;fill:#D0E5F6;}
	.st9{fill:#16525C;}
	.st10{fill:#1D626E;}
	.st11{fill:#21768A;}
	.st12{fill:#318CC5;}
	.st13{fill:none;stroke:#FFFFFF;stroke-width:7;stroke-linejoin:round;stroke-miterlimit:10;stroke-dasharray:2,12;}
</style>
<path class="st0" d="M264.49,386.78H71.02c-12.15,0-22-9.85-22-22V-79.97c0-12.15,9.85-22,22-22h193.47c12.15,0,22,9.85,22,22
	v444.75C286.49,376.93,276.64,386.78,264.49,386.78z"/>
<path class="st1" d="M280.38-95.18c1.99,8.01,0.37,36.52,0.37,45.65v347.35c0,39.04,0.6,73.59-24.06,73.59l-177.7-0.68
	c-24.67,0-24.21-33.87-24.21-72.91V-49.53c0-9.13-1.98-41.47,0.36-45.65c-5.19,10.71-3.87,0.34-6.11,17.61L49,321.03
	c0,40.02-1.31,62.64,22.01,62.64h193.47c25.29,0,21.02-29.22,21.02-69.24l0.98-347.03C287.49-98.33,285.93-83.19,280.38-95.18z"/>
<path class="st2" d="M241.89,226.32H93.61c-12.22,0-22.13-14.19-22.13-31.67V-17.37c0-17.47,9.9-31.64,22.13-31.64h148.28
	c12.23,0,22.14,14.16,22.14,31.64v212.03C264.03,212.13,254.12,226.32,241.89,226.32z"/>
<path class="st3" d="M76.97,204.07v-212c0-17.49,9.92-31.67,22.14-31.67h148.28c5.27,0,10.03,2.75,13.83,7.11
	c-3.75-9.79-10.97-16.52-19.33-16.52H93.61c-12.22,0-22.13,14.16-22.13,31.64v212.03c0,9.98,3.26,18.73,8.29,24.51
	C78.05,214.67,76.97,209.57,76.97,204.07z"/>
<path class="st4" d="M187.11,218.67c0,0-0.01,0-0.03,0c-0.8,0-1.47-0.61-1.63-1.45l-7.49-39.38l-6.9,24.79
	c-0.22,0.78-0.88,1.3-1.63,1.3h-24.14v-3.63h22.87l8.5-30.44c0.22-0.78,0.88-1.35,1.7-1.29c0.77,0.04,1.43,0.64,1.59,1.45
	l7.26,38.25l5.44-25.4c0.18-0.83,0.85-1.41,1.63-1.43c0,0,0,0,0.03,0c0.77,0,1.45,0.56,1.64,1.38l4.11,17.49h41.51v3.63h-42.85
	c-0.77,0-1.45-0.56-1.63-1.37l-2.71-11.53l-5.58,26.24C188.6,218.07,187.9,218.67,187.11,218.67z"/>
<path class="st4" d="M122.08,178.19c-3.34,0-6.32,1.72-8.21,4.41c-1.91-2.68-4.88-4.41-8.2-4.41c-5.76,0-10.42,5.06-10.42,11.28
	c0,11.28,18.63,22.89,18.63,22.89s18.59-11.75,18.59-22.89C132.45,183.25,127.85,178.19,122.08,178.19z"/>
<g class="st5">
	<path class="st6" d="M120.18,17.28V-6.98l5.06-5.16l6.61,6.71V11.4L120.18,17.28z M150.94,54.76h-30.76l13.21-11.77h16.1l6.71,6.71
		L150.94,54.76z M149.5,24.61h-16.1l-10.32-6.66l10.32-5.1h16.1l10.32,5.1L149.5,24.61z M149.5-6.98h-16.1l-6.61-6.71l5.06-5.06
		h19.1l5.26,5.06L149.5-6.98z M150.94,11.4V-5.43l6.71-6.71l5.16,5.16v24.26L150.94,11.4z M157.65,48.15l-6.71-6.71V26.06
		l11.87-7.33v24.26L157.65,48.15z"/>
	<path class="st6" d="M194.92-6.98h-16.21l-11.77-11.77h39.74L194.92-6.98z M196.37,9.95V-5.43l11.66-11.87v34.58L196.37,9.95z
		 M196.37,42.99V24.61l11.66-5.88v36.03L196.37,42.99z"/>
</g>
<g class="st5">
	<path class="st6" d="M124.27,113.19V89.92l4.85-4.95l6.33,6.43v14.75L124.27,113.19z M129.12,142.78l-4.85-4.95v-23.26l11.19,5.64
		v16.13L129.12,142.78z M152.38,118.73h-15.44l-9.9-4.89l9.9-6.39h15.44l9.9,6.39L152.38,118.73z M152.38,89.92h-15.44l-6.34-6.43
		l4.85-4.85h29.7L152.38,89.92z M153.77,149.12h-18.31l-4.85-4.85l6.34-6.43h15.44l6.43,6.43L153.77,149.12z M160.2,142.78
		l-6.43-6.43v-16.13l11.38-5.64v23.26L160.2,142.78z"/>
	<path class="st6" d="M199.4,149.12h-30.29l13.36-11.28h15.44l6.43,6.43L199.4,149.12z M169.8,113.19V79.43l11.19,11.98v14.75
		L169.8,113.19z M197.82,89.92h-15.44l-10.79-11.28h39L197.82,89.92z M197.92,118.73h-15.44l-9.9-4.89l9.9-6.39h15.44l9.9,6.39
		L197.92,118.73z M205.68,142.78l-6.28-6.43v-16.13l11.19-5.64v23.26L205.68,142.78z"/>
</g>
<g class="st5">
	<path class="st7" d="M167.44,248.77c26.36,0,47.73,21.37,47.73,47.73c0,26.36-21.37,47.73-47.73,47.73
		c-26.36,0-47.73-21.37-47.73-47.73C119.71,270.14,141.08,248.77,167.44,248.77z"/>
	
		<ellipse transform="matrix(0.7071 -0.7071 0.7071 0.7071 -160.6156 205.243)" class="st8" cx="167.44" cy="296.5" rx="35.68" ry="35.68"/>
</g>
<g>
	<path class="st9" d="M137.09,7.62C71.43,7.03,5.99,14.19,5.99,14.19l3.8,30.08l127.3-1.76c51.8,0,95.84,8.28,111.95,19.82
		l0.14-31.49C249.17,20.32,215.61,8.33,137.09,7.62z"/>
	<path class="st10" d="M103.94,20.64c51.64-1.99,95.31,5.53,95.31,17.01l-0.1,25.53c-11.35-8.12-58.73-13.96-95.21-13.96
		c-36.48,0-67.49,5.83-78.84,13.96L25,34.31C25,29.08,54.18,20.64,103.94,20.64z"/>
	<path class="st9" d="M129.81,26.26c30.04,0,62.12,3.61,62.12,11.09l-0.06,16.64c-7.4-5.3-38.28-9.1-62.06-9.1
		c-23.78,0-43.99,3.8-51.38,9.1l-0.06-18.82C78.36,31.76,97.38,26.26,129.81,26.26z"/>
	<path class="st11" d="M191.87,36.12c-5.71,4.09-19.43,5.74-36.49,6.22v20.5c21.9-1.03,36.54-4.85,36.54-10.9L191.87,36.12z"/>
	<path class="st11" d="M138.8,70.88c35.29,0,60.44-4.97,60.44-13.76l-0.07-19.47c-8.69,6.22-32.43,7.85-60.37,7.85
		c-27.94,0-51.68-4.47-60.37-10.69l-0.07,22.3C78.36,65.91,103.51,70.88,138.8,70.88z"/>
	<path class="st12" d="M137.09,87.85c65.45,0,112.08-9.22,112.08-25.53l-0.14-31.49c-16.11,11.54-60.14,19.82-111.95,19.82
		c-51.8,0-95.84-4.8-111.95-16.34L25,62.32C25,78.63,71.64,87.85,137.09,87.85z"/>
	<path class="st13" d="M31.61,64.01c15.06,10.15,54.58,15.73,105.48,15.73c53.01,0,93.68-6.05,107.22-17.02"/>
</g>
</svg>
