<?xml version="1.0" encoding="utf-8"?>
<!-- Generator: Adobe Illustrator 25.4.1, SVG Export Plug-In . SVG Version: 6.00 Build 0)  -->
<svg version="1.1" id="Layer_1" xmlns="http://www.w3.org/2000/svg" xmlns:xlink="http://www.w3.org/1999/xlink" x="0px" y="0px"
	 viewBox="0 0 500 500" style="enable-background:new 0 0 500 500;" xml:space="preserve">
<style type="text/css">
	.st0{fill:#228FB9;}
	.st1{opacity:0.2;fill:#010101;}
	.st2{fill:#FFFFFF;}
	.st3{fill:#D6D2DB;}
	.st4{opacity:0.3;fill:#8384B5;}
	.st5{fill:#D8D9D8;}
	.st6{fill:#B2B2B2;}
</style>
<g id="лек">
	<path class="st0" d="M342.9,487.45H157.11c-12.57,0-22.75-10.18-22.75-22.75V133.88h231.29V464.7
		C365.65,477.27,355.47,487.45,342.9,487.45z"/>
	<rect x="134.36" y="133.88" class="st1" width="231.29" height="5.69"/>
	<rect x="122.79" y="103.77" class="st1" width="254.43" height="3.04"/>
	<rect x="161.38" y="217.02" class="st2" width="177.26" height="187.3"/>
	<rect x="111.65" y="106.67" class="st0" width="276.7" height="27.21"/>
	<rect x="128.19" y="106.67" class="st3" width="60.5" height="27.21"/>
	<rect x="342.01" y="106.67" class="st3" width="23.13" height="27.21"/>
	<path class="st3" d="M205.81,133.88h-54.39V464.7c0,12.57,7.76,22.75,17.32,22.75h37.07V133.88z"/>
	<path class="st3" d="M326.78,133.88h21.21V464.7c0,12.57-3.02,22.75-6.75,22.75h-14.46V133.88z"/>
	<g>
		<rect x="194.11" y="256.3" class="st4" width="109.25" height="21.37"/>
		<rect x="170.34" y="303.78" class="st4" width="156.79" height="13.04"/>
		<rect x="170.34" y="332.87" class="st4" width="156.79" height="13.04"/>
	</g>
	<path class="st5" d="M122.79,106.67c0,0,0-3.62,0-8.09c0-4.48,3.86-8.1,12.24-8.1h229.95c8.38,0,12.24,3.62,12.24,8.1v8.09H122.79z
		"/>
	<path class="st5" d="M135.03,90.47V27.72c0-8.37,6.79-15.16,15.17-15.16h199.62c8.37,0,15.16,6.79,15.16,15.16v62.75H135.03z"/>
	<g>
		<g>
			<path class="st6" d="M151.72,81.85c-2.1,0-3.79-1.59-3.79-3.57V24.75c0-1.98,1.7-3.57,3.79-3.57c2.1,0,3.79,1.59,3.79,3.57v53.53
				C155.51,80.25,153.82,81.85,151.72,81.85z"/>
		</g>
		<g>
			<path class="st6" d="M171.37,81.85c-2.1,0-3.79-1.59-3.79-3.57V24.75c0-1.98,1.7-3.57,3.79-3.57s3.79,1.59,3.79,3.57v53.53
				C175.17,80.25,173.47,81.85,171.37,81.85z"/>
		</g>
		<g>
			<path class="st6" d="M191.03,81.85c-2.1,0-3.79-1.59-3.79-3.57V24.75c0-1.98,1.7-3.57,3.79-3.57s3.79,1.59,3.79,3.57v53.53
				C194.83,80.25,193.13,81.85,191.03,81.85z"/>
		</g>
		<g>
			<path class="st6" d="M210.69,81.85c-2.1,0-3.79-1.59-3.79-3.57V24.75c0-1.98,1.7-3.57,3.79-3.57c2.1,0,3.79,1.59,3.79,3.57v53.53
				C214.48,80.25,212.78,81.85,210.69,81.85z"/>
		</g>
		<g>
			<path class="st6" d="M230.35,81.85c-2.1,0-3.79-1.59-3.79-3.57V24.75c0-1.98,1.69-3.57,3.79-3.57c2.1,0,3.79,1.59,3.79,3.57
				v53.53C234.14,80.25,232.45,81.85,230.35,81.85z"/>
		</g>
		<g>
			<path class="st6" d="M250,81.85c-2.1,0-3.79-1.59-3.79-3.57V24.75c0-1.98,1.69-3.57,3.79-3.57c2.1,0,3.79,1.59,3.79,3.57v53.53
				C253.8,80.25,252.1,81.85,250,81.85z"/>
		</g>
		<g>
			<path class="st6" d="M269.66,81.85c-2.1,0-3.79-1.59-3.79-3.57V24.75c0-1.98,1.69-3.57,3.79-3.57c2.1,0,3.79,1.59,3.79,3.57
				v53.53C273.45,80.25,271.75,81.85,269.66,81.85z"/>
		</g>
		<g>
			<path class="st6" d="M289.32,81.85c-2.1,0-3.79-1.59-3.79-3.57V24.75c0-1.98,1.69-3.57,3.79-3.57c2.1,0,3.79,1.59,3.79,3.57
				v53.53C293.11,80.25,291.41,81.85,289.32,81.85z"/>
		</g>
		<g>
			<path class="st6" d="M308.97,81.85c-2.1,0-3.79-1.59-3.79-3.57V24.75c0-1.98,1.69-3.57,3.79-3.57s3.79,1.59,3.79,3.57v53.53
				C312.77,80.25,311.07,81.85,308.97,81.85z"/>
		</g>
		<g>
			<path class="st6" d="M328.63,81.85c-2.09,0-3.79-1.59-3.79-3.57V24.75c0-1.98,1.7-3.57,3.79-3.57c2.1,0,3.79,1.59,3.79,3.57
				v53.53C332.43,80.25,330.73,81.85,328.63,81.85z"/>
		</g>
		<g>
			<path class="st6" d="M348.29,81.85c-2.1,0-3.79-1.59-3.79-3.57V24.75c0-1.98,1.7-3.57,3.79-3.57c2.1,0,3.79,1.59,3.79,3.57v53.53
				C352.08,80.25,350.39,81.85,348.29,81.85z"/>
		</g>
	</g>
</g>
</svg>
