<?xml version="1.0" encoding="utf-8"?>
<!-- Generator: Adobe Illustrator 25.4.1, SVG Export Plug-In . SVG Version: 6.00 Build 0)  -->
<svg version="1.1" id="Layer_1" xmlns="http://www.w3.org/2000/svg" xmlns:xlink="http://www.w3.org/1999/xlink" x="0px" y="0px"
	 viewBox="0 0 500 500" style="enable-background:new 0 0 500 500;" xml:space="preserve">
<style type="text/css">
	.st0{fill:#228FB9;}
	.st1{fill:#FFFFFF;}
	.st2{fill:#EDEDEE;}
	.st3{opacity:0.05;fill:#1D1D1B;}
	.st4{opacity:0.3;}
	.st5{fill:#0399AE;}
	.st6{opacity:0.1;fill:#1D1D1B;}
	.st7{display:none;}
	.st8{display:inline;}
	.st9{fill:#F9A027;}
	.st10{fill:#F1EEDB;}
	.st11{fill:#DDD9C8;}
	.st12{display:inline;opacity:0.1;fill:#1D1D1B;}
</style>
<g id="таблетки">
	<g>
		<g>
			<path class="st0" d="M337.72,487.6H195.84c-27.1,0-49.06-23.48-49.06-52.44V83.09c0-28.96,21.97-52.44,49.06-52.44h141.87
				c27.1,0,49.06,23.48,49.06,52.44v352.07C386.78,464.12,364.81,487.6,337.72,487.6z"/>
			<g>
				<g>
					<path class="st1" d="M237.77,127.19c-1.45,1.55-2.98,2.95-4.61,4.17c-14.14,10.79-33.85,9.39-46.54-4.17
						c-12.69-13.57-14-34.63-3.9-49.74c1.15-1.75,2.46-3.38,3.9-4.93c1.45-1.55,3-2.98,4.64-4.2c14.14-10.74,33.85-9.39,46.54,4.17
						c12.69,13.57,13.95,34.63,3.9,49.74C240.56,123.98,239.22,125.64,237.77,127.19z"/>
					<path class="st2" d="M237.77,127.19c-1.45,1.55-2.98,2.95-4.61,4.17l-50.44-53.91c1.15-1.75,2.46-3.38,3.9-4.93
						c1.45-1.55,3-2.98,4.64-4.2l50.44,53.91C240.56,123.98,239.22,125.64,237.77,127.19z"/>
					<path class="st3" d="M237.8,72.49c-1.44-1.54-2.98-2.9-4.59-4.13c8.95,13.38,8.94,31.44,0.04,44.84
						c-1.15,1.75-2.48,3.41-3.93,4.96c-1.45,1.55-2.98,2.95-4.61,4.17c-12.53,9.57-29.43,9.53-41.95-0.04
						c1.15,1.71,2.42,3.36,3.86,4.9c12.69,13.57,32.4,14.97,46.54,4.17c1.64-1.23,3.17-2.63,4.61-4.17
						c1.45-1.55,2.78-3.21,3.93-4.96C251.75,107.11,250.49,86.05,237.8,72.49z"/>
				</g>
				<g>
					<path class="st1" d="M346.94,127.19c-1.45,1.55-2.98,2.95-4.61,4.17c-14.14,10.79-33.85,9.39-46.54-4.17
						c-12.69-13.57-14-34.63-3.9-49.74c1.15-1.75,2.46-3.38,3.9-4.93s3-2.98,4.64-4.2c14.14-10.74,33.85-9.39,46.54,4.17
						c12.69,13.57,13.95,34.63,3.9,49.74C349.72,123.98,348.38,125.64,346.94,127.19z"/>
					<path class="st2" d="M346.94,127.19c-1.45,1.55-2.98,2.95-4.61,4.17l-50.44-53.91c1.15-1.75,2.46-3.38,3.9-4.93
						s3-2.98,4.64-4.2l50.44,53.91C349.72,123.98,348.38,125.64,346.94,127.19z"/>
					<path class="st3" d="M346.96,72.49c-1.44-1.54-2.98-2.9-4.59-4.13c8.95,13.38,8.94,31.44,0.04,44.84
						c-1.15,1.75-2.48,3.41-3.93,4.96c-1.45,1.55-2.98,2.95-4.61,4.17c-12.53,9.57-29.43,9.53-41.95-0.04
						c1.15,1.71,2.42,3.36,3.86,4.9c12.69,13.57,32.4,14.97,46.54,4.17c1.64-1.23,3.17-2.63,4.61-4.17
						c1.45-1.55,2.78-3.21,3.93-4.96C360.91,107.11,359.65,86.05,346.96,72.49z"/>
				</g>
				<g>
					<path class="st1" d="M237.77,233.37c-1.45,1.55-2.98,2.95-4.61,4.17c-14.14,10.79-33.85,9.39-46.54-4.17
						c-12.69-13.57-14-34.63-3.9-49.74c1.15-1.75,2.46-3.38,3.9-4.93c1.45-1.55,3-2.98,4.64-4.2c14.14-10.74,33.85-9.39,46.54,4.17
						c12.69,13.57,13.95,34.63,3.9,49.74C240.56,230.16,239.22,231.82,237.77,233.37z"/>
					<path class="st2" d="M237.77,233.37c-1.45,1.55-2.98,2.95-4.61,4.17l-50.44-53.91c1.15-1.75,2.46-3.38,3.9-4.93
						c1.45-1.55,3-2.98,4.64-4.2l50.44,53.91C240.56,230.16,239.22,231.82,237.77,233.37z"/>
					<path class="st3" d="M237.8,178.67c-1.44-1.54-2.98-2.9-4.59-4.13c8.95,13.38,8.94,31.44,0.04,44.84
						c-1.15,1.75-2.48,3.41-3.93,4.96c-1.45,1.55-2.98,2.95-4.61,4.17c-12.53,9.57-29.43,9.53-41.95-0.04
						c1.15,1.71,2.42,3.36,3.86,4.9c12.69,13.57,32.4,14.97,46.54,4.17c1.64-1.23,3.17-2.63,4.61-4.17
						c1.45-1.55,2.78-3.21,3.93-4.96C251.75,213.3,250.49,192.24,237.8,178.67z"/>
				</g>
				<g>
					<path class="st1" d="M346.94,233.37c-1.45,1.55-2.98,2.95-4.61,4.17c-14.14,10.79-33.85,9.39-46.54-4.17
						c-12.69-13.57-14-34.63-3.9-49.74c1.15-1.75,2.46-3.38,3.9-4.93c1.45-1.55,3-2.98,4.64-4.2c14.14-10.74,33.85-9.39,46.54,4.17
						c12.69,13.57,13.95,34.63,3.9,49.74C349.72,230.16,348.38,231.82,346.94,233.37z"/>
					<path class="st2" d="M346.94,233.37c-1.45,1.55-2.98,2.95-4.61,4.17l-50.44-53.91c1.15-1.75,2.46-3.38,3.9-4.93
						c1.45-1.55,3-2.98,4.64-4.2l50.44,53.91C349.72,230.16,348.38,231.82,346.94,233.37z"/>
					<path class="st3" d="M346.96,178.67c-1.44-1.54-2.98-2.9-4.59-4.13c8.95,13.38,8.94,31.44,0.04,44.84
						c-1.15,1.75-2.48,3.41-3.93,4.96c-1.45,1.55-2.98,2.95-4.61,4.17c-12.53,9.57-29.43,9.53-41.95-0.04
						c1.15,1.71,2.42,3.36,3.86,4.9c12.69,13.57,32.4,14.97,46.54,4.17c1.64-1.23,3.17-2.63,4.61-4.17
						c1.45-1.55,2.78-3.21,3.93-4.96C360.91,213.3,359.65,192.24,346.96,178.67z"/>
				</g>
				<g>
					<path class="st1" d="M237.77,339.55c-1.45,1.55-2.98,2.95-4.61,4.17c-14.14,10.79-33.85,9.39-46.54-4.17
						c-12.69-13.57-14-34.63-3.9-49.74c1.15-1.75,2.46-3.38,3.9-4.93c1.45-1.55,3-2.98,4.64-4.2c14.14-10.74,33.85-9.39,46.54,4.17
						c12.69,13.57,13.95,34.63,3.9,49.74C240.56,336.34,239.22,338,237.77,339.55z"/>
					<path class="st2" d="M237.77,339.55c-1.45,1.55-2.98,2.95-4.61,4.17l-50.44-53.91c1.15-1.75,2.46-3.38,3.9-4.93
						c1.45-1.55,3-2.98,4.64-4.2l50.44,53.91C240.56,336.34,239.22,338,237.77,339.55z"/>
					<path class="st3" d="M237.8,284.85c-1.44-1.54-2.98-2.9-4.59-4.13c8.95,13.38,8.94,31.44,0.04,44.84
						c-1.15,1.75-2.48,3.41-3.93,4.96c-1.45,1.55-2.98,2.95-4.61,4.17c-12.53,9.57-29.43,9.53-41.95-0.04
						c1.15,1.71,2.42,3.36,3.86,4.9c12.69,13.57,32.4,14.97,46.54,4.17c1.64-1.23,3.17-2.63,4.61-4.17
						c1.45-1.55,2.78-3.21,3.93-4.96C251.75,319.48,250.49,298.42,237.8,284.85z"/>
				</g>
				<g>
					<path class="st1" d="M346.94,339.55c-1.45,1.55-2.98,2.95-4.61,4.17c-14.14,10.79-33.85,9.39-46.54-4.17
						c-12.69-13.57-14-34.63-3.9-49.74c1.15-1.75,2.46-3.38,3.9-4.93c1.45-1.55,3-2.98,4.64-4.2c14.14-10.74,33.85-9.39,46.54,4.17
						c12.69,13.57,13.95,34.63,3.9,49.74C349.72,336.34,348.38,338,346.94,339.55z"/>
					<path class="st2" d="M346.94,339.55c-1.45,1.55-2.98,2.95-4.61,4.17l-50.44-53.91c1.15-1.75,2.46-3.38,3.9-4.93
						c1.45-1.55,3-2.98,4.64-4.2l50.44,53.91C349.72,336.34,348.38,338,346.94,339.55z"/>
					<path class="st3" d="M346.96,284.85c-1.44-1.54-2.98-2.9-4.59-4.13c8.95,13.38,8.94,31.44,0.04,44.84
						c-1.15,1.75-2.48,3.41-3.93,4.96c-1.45,1.55-2.98,2.95-4.61,4.17c-12.53,9.57-29.43,9.53-41.95-0.04
						c1.15,1.71,2.42,3.36,3.86,4.9c12.69,13.57,32.4,14.97,46.54,4.17c1.64-1.23,3.17-2.63,4.61-4.17
						c1.45-1.55,2.78-3.21,3.93-4.96C360.91,319.48,359.65,298.42,346.96,284.85z"/>
				</g>
				<g>
					<path class="st1" d="M237.77,445.73c-1.45,1.55-2.98,2.95-4.61,4.17c-14.14,10.79-33.85,9.39-46.54-4.17
						c-12.69-13.57-14-34.63-3.9-49.74c1.15-1.75,2.46-3.38,3.9-4.93c1.45-1.55,3-2.98,4.64-4.2c14.14-10.74,33.85-9.39,46.54,4.17
						c12.69,13.57,13.95,34.63,3.9,49.74C240.56,442.52,239.22,444.19,237.77,445.73z"/>
					<path class="st2" d="M237.77,445.73c-1.45,1.55-2.98,2.95-4.61,4.17L182.72,396c1.15-1.75,2.46-3.38,3.9-4.93
						c1.45-1.55,3-2.98,4.64-4.2l50.44,53.91C240.56,442.52,239.22,444.19,237.77,445.73z"/>
					<path class="st3" d="M237.8,391.04c-1.44-1.54-2.98-2.9-4.59-4.13c8.95,13.38,8.94,31.44,0.04,44.84
						c-1.15,1.75-2.48,3.41-3.93,4.96c-1.45,1.55-2.98,2.95-4.61,4.17c-12.53,9.57-29.43,9.53-41.95-0.04
						c1.15,1.71,2.42,3.36,3.86,4.9c12.69,13.57,32.4,14.97,46.54,4.17c1.64-1.23,3.17-2.63,4.61-4.17
						c1.45-1.55,2.78-3.21,3.93-4.96C251.75,425.66,250.49,404.6,237.8,391.04z"/>
				</g>
				<g>
					<path class="st1" d="M346.94,445.73c-1.45,1.55-2.98,2.95-4.61,4.17c-14.14,10.79-33.85,9.39-46.54-4.17
						c-12.69-13.57-14-34.63-3.9-49.74c1.15-1.75,2.46-3.38,3.9-4.93c1.45-1.55,3-2.98,4.64-4.2c14.14-10.74,33.85-9.39,46.54,4.17
						c12.69,13.57,13.95,34.63,3.9,49.74C349.72,442.52,348.38,444.19,346.94,445.73z"/>
					<path class="st2" d="M346.94,445.73c-1.45,1.55-2.98,2.95-4.61,4.17L291.88,396c1.15-1.75,2.46-3.38,3.9-4.93
						c1.45-1.55,3-2.98,4.64-4.2l50.44,53.91C349.72,442.52,348.38,444.19,346.94,445.73z"/>
					<path class="st3" d="M346.96,391.04c-1.44-1.54-2.98-2.9-4.59-4.13c8.95,13.38,8.94,31.44,0.04,44.84
						c-1.15,1.75-2.48,3.41-3.93,4.96c-1.45,1.55-2.98,2.95-4.61,4.17c-12.53,9.57-29.43,9.53-41.95-0.04
						c1.15,1.71,2.42,3.36,3.86,4.9c12.69,13.57,32.4,14.97,46.54,4.17c1.64-1.23,3.17-2.63,4.61-4.17
						c1.45-1.55,2.78-3.21,3.93-4.96C360.91,425.66,359.65,404.6,346.96,391.04z"/>
				</g>
			</g>
			<g class="st4">
				<path class="st5" d="M266.78,62.32c-2.03,0-3.68-1.76-3.68-3.93v-7.87c0-2.17,1.65-3.93,3.68-3.93c2.03,0,3.68,1.76,3.68,3.93
					v7.87C270.46,60.56,268.81,62.32,266.78,62.32z"/>
				<path class="st5" d="M266.78,437.72c-2.03,0-3.68-1.76-3.68-3.93v-15.64c0-2.17,1.65-3.93,3.68-3.93c2.03,0,3.68,1.76,3.68,3.93
					v15.64C270.46,435.96,268.81,437.72,266.78,437.72z M266.78,396.01c-2.03,0-3.68-1.76-3.68-3.93v-15.64
					c0-2.17,1.65-3.93,3.68-3.93c2.03,0,3.68,1.76,3.68,3.93v15.64C270.46,394.25,268.81,396.01,266.78,396.01z M266.78,354.3
					c-2.03,0-3.68-1.76-3.68-3.93v-15.64c0-2.17,1.65-3.93,3.68-3.93c2.03,0,3.68,1.76,3.68,3.93v15.64
					C270.46,352.53,268.81,354.3,266.78,354.3z M266.78,312.59c-2.03,0-3.68-1.76-3.68-3.93v-15.64c0-2.17,1.65-3.93,3.68-3.93
					c2.03,0,3.68,1.76,3.68,3.93v15.64C270.46,310.82,268.81,312.59,266.78,312.59z M266.78,270.87c-2.03,0-3.68-1.76-3.68-3.93
					V251.3c0-2.17,1.65-3.93,3.68-3.93c2.03,0,3.68,1.76,3.68,3.93v15.64C270.46,269.11,268.81,270.87,266.78,270.87z
					 M266.78,229.17c-2.03,0-3.68-1.76-3.68-3.93v-15.64c0-2.17,1.65-3.93,3.68-3.93c2.03,0,3.68,1.76,3.68,3.93v15.64
					C270.46,227.4,268.81,229.17,266.78,229.17z M266.78,187.46c-2.03,0-3.68-1.76-3.68-3.93v-15.64c0-2.17,1.65-3.93,3.68-3.93
					c2.03,0,3.68,1.76,3.68,3.93v15.64C270.46,185.69,268.81,187.46,266.78,187.46z M266.78,145.75c-2.03,0-3.68-1.76-3.68-3.93
					v-15.64c0-2.17,1.65-3.93,3.68-3.93c2.03,0,3.68,1.76,3.68,3.93v15.64C270.46,143.98,268.81,145.75,266.78,145.75z
					 M266.78,104.03c-2.03,0-3.68-1.76-3.68-3.93V84.46c0-2.17,1.65-3.93,3.68-3.93c2.03,0,3.68,1.76,3.68,3.93v15.64
					C270.46,102.27,268.81,104.03,266.78,104.03z"/>
				<path class="st5" d="M266.78,471.65c-2.03,0-3.68-1.76-3.68-3.93v-7.87c0-2.17,1.65-3.93,3.68-3.93c2.03,0,3.68,1.76,3.68,3.93
					v7.87C270.46,469.89,268.81,471.65,266.78,471.65z"/>
			</g>
		</g>
		<path class="st6" d="M366.54,40.72l0.61,394.44c0,17.35-13.2,31.46-29.44,31.46l-180.64,0.59c8.97,12.38,22.98,20.38,38.77,20.38
			h141.87c27.1,0,49.06-23.48,49.06-52.44V83.09C386.78,65.66,378.79,50.26,366.54,40.72z"/>
	</g>
	<g class="st7">
		<g class="st8">
			<path class="st9" d="M350.84,487.6H199.22c-28.96,0-52.44-23.48-52.44-52.44V83.09c0-28.96,23.48-52.44,52.44-52.44h151.63
				c28.96,0,52.44,23.48,52.44,52.44v352.07C403.28,464.12,379.8,487.6,350.84,487.6z"/>
			<g>
				<g>
					<path class="st10" d="M244.03,127.19c-1.55,1.55-3.18,2.95-4.93,4.17c-15.11,10.79-36.17,9.39-49.74-4.17
						c-13.57-13.57-14.96-34.63-4.17-49.74c1.23-1.75,2.63-3.38,4.17-4.93c1.55-1.55,3.21-2.98,4.96-4.2
						c15.11-10.74,36.17-9.39,49.74,4.17c13.57,13.57,14.91,34.63,4.17,49.74C247,123.98,245.57,125.64,244.03,127.19z"/>
					<path class="st11" d="M244.03,127.19c-1.55,1.55-3.18,2.95-4.93,4.17l-53.91-53.91c1.23-1.75,2.63-3.38,4.17-4.93
						c1.55-1.55,3.21-2.98,4.96-4.2l53.91,53.91C247,123.98,245.57,125.64,244.03,127.19z"/>
					<path class="st3" d="M244.06,72.49c-1.54-1.54-3.19-2.9-4.9-4.13c9.56,13.38,9.56,31.44,0.04,44.84
						c-1.23,1.75-2.65,3.41-4.2,4.96c-1.55,1.55-3.18,2.95-4.93,4.17c-13.4,9.57-31.46,9.53-44.84-0.04
						c1.23,1.71,2.59,3.36,4.13,4.9c13.57,13.57,34.63,14.97,49.74,4.17c1.75-1.23,3.38-2.63,4.93-4.17
						c1.55-1.55,2.98-3.21,4.2-4.96C258.96,107.11,257.62,86.05,244.06,72.49z"/>
				</g>
				<g>
					<path class="st10" d="M360.7,127.19c-1.55,1.55-3.18,2.95-4.93,4.17c-15.11,10.79-36.17,9.39-49.74-4.17
						c-13.57-13.57-14.97-34.63-4.17-49.74c1.22-1.75,2.63-3.38,4.17-4.93c1.55-1.55,3.21-2.98,4.96-4.2
						c15.11-10.74,36.17-9.39,49.74,4.17c13.57,13.57,14.91,34.63,4.17,49.74C363.67,123.98,362.24,125.64,360.7,127.19z"/>
					<path class="st11" d="M360.7,127.19c-1.55,1.55-3.18,2.95-4.93,4.17l-53.91-53.91c1.22-1.75,2.63-3.38,4.17-4.93
						c1.55-1.55,3.21-2.98,4.96-4.2l53.91,53.91C363.67,123.98,362.24,125.64,360.7,127.19z"/>
					<path class="st3" d="M360.73,72.49c-1.54-1.54-3.19-2.9-4.9-4.13c9.56,13.38,9.56,31.44,0.04,44.84
						c-1.23,1.75-2.65,3.41-4.2,4.96c-1.55,1.55-3.18,2.95-4.93,4.17c-13.4,9.57-31.46,9.53-44.84-0.04
						c1.23,1.71,2.59,3.36,4.13,4.9c13.57,13.57,34.63,14.97,49.74,4.17c1.75-1.23,3.38-2.63,4.93-4.17
						c1.55-1.55,2.98-3.21,4.2-4.96C375.63,107.11,374.29,86.05,360.73,72.49z"/>
				</g>
				<g>
					<path class="st10" d="M244.03,233.37c-1.55,1.55-3.18,2.95-4.93,4.17c-15.11,10.79-36.17,9.39-49.74-4.17
						c-13.57-13.57-14.96-34.63-4.17-49.74c1.23-1.75,2.63-3.38,4.17-4.93c1.55-1.55,3.21-2.98,4.96-4.2
						c15.11-10.74,36.17-9.39,49.74,4.17c13.57,13.57,14.91,34.63,4.17,49.74C247,230.16,245.57,231.82,244.03,233.37z"/>
					<path class="st11" d="M244.03,233.37c-1.55,1.55-3.18,2.95-4.93,4.17l-53.91-53.91c1.23-1.75,2.63-3.38,4.17-4.93
						c1.55-1.55,3.21-2.98,4.96-4.2l53.91,53.91C247,230.16,245.57,231.82,244.03,233.37z"/>
					<path class="st3" d="M244.06,178.67c-1.54-1.54-3.19-2.9-4.9-4.13c9.56,13.38,9.56,31.44,0.04,44.84
						c-1.23,1.75-2.65,3.41-4.2,4.96c-1.55,1.55-3.18,2.95-4.93,4.17c-13.4,9.57-31.46,9.53-44.84-0.04
						c1.23,1.71,2.59,3.36,4.13,4.9c13.57,13.57,34.63,14.97,49.74,4.17c1.75-1.23,3.38-2.63,4.93-4.17
						c1.55-1.55,2.98-3.21,4.2-4.96C258.96,213.3,257.62,192.24,244.06,178.67z"/>
				</g>
				<g>
					<path class="st10" d="M360.7,233.37c-1.55,1.55-3.18,2.95-4.93,4.17c-15.11,10.79-36.17,9.39-49.74-4.17
						c-13.57-13.57-14.97-34.63-4.17-49.74c1.22-1.75,2.63-3.38,4.17-4.93c1.55-1.55,3.21-2.98,4.96-4.2
						c15.11-10.74,36.17-9.39,49.74,4.17c13.57,13.57,14.91,34.63,4.17,49.74C363.67,230.16,362.24,231.82,360.7,233.37z"/>
					<path class="st11" d="M360.7,233.37c-1.55,1.55-3.18,2.95-4.93,4.17l-53.91-53.91c1.22-1.75,2.63-3.38,4.17-4.93
						c1.55-1.55,3.21-2.98,4.96-4.2l53.91,53.91C363.67,230.16,362.24,231.82,360.7,233.37z"/>
					<path class="st3" d="M360.73,178.67c-1.54-1.54-3.19-2.9-4.9-4.13c9.56,13.38,9.56,31.44,0.04,44.84
						c-1.23,1.75-2.65,3.41-4.2,4.96c-1.55,1.55-3.18,2.95-4.93,4.17c-13.4,9.57-31.46,9.53-44.84-0.04
						c1.23,1.71,2.59,3.36,4.13,4.9c13.57,13.57,34.63,14.97,49.74,4.17c1.75-1.23,3.38-2.63,4.93-4.17
						c1.55-1.55,2.98-3.21,4.2-4.96C375.63,213.3,374.29,192.24,360.73,178.67z"/>
				</g>
				<g>
					<path class="st10" d="M244.03,339.55c-1.55,1.55-3.18,2.95-4.93,4.17c-15.11,10.79-36.17,9.39-49.74-4.17
						c-13.57-13.57-14.96-34.63-4.17-49.74c1.23-1.75,2.63-3.38,4.17-4.93c1.55-1.55,3.21-2.98,4.96-4.2
						c15.11-10.74,36.17-9.39,49.74,4.17c13.57,13.57,14.91,34.63,4.17,49.74C247,336.34,245.57,338,244.03,339.55z"/>
					<path class="st11" d="M244.03,339.55c-1.55,1.55-3.18,2.95-4.93,4.17l-53.91-53.91c1.23-1.75,2.63-3.38,4.17-4.93
						c1.55-1.55,3.21-2.98,4.96-4.2l53.91,53.91C247,336.34,245.57,338,244.03,339.55z"/>
					<path class="st3" d="M244.06,284.85c-1.54-1.54-3.19-2.9-4.9-4.13c9.56,13.38,9.56,31.44,0.04,44.84
						c-1.23,1.75-2.65,3.41-4.2,4.96c-1.55,1.55-3.18,2.95-4.93,4.17c-13.4,9.57-31.46,9.53-44.84-0.04
						c1.23,1.71,2.59,3.36,4.13,4.9c13.57,13.57,34.63,14.97,49.74,4.17c1.75-1.23,3.38-2.63,4.93-4.17
						c1.55-1.55,2.98-3.21,4.2-4.96C258.96,319.48,257.62,298.42,244.06,284.85z"/>
				</g>
				<g>
					<path class="st10" d="M360.7,339.55c-1.55,1.55-3.18,2.95-4.93,4.17c-15.11,10.79-36.17,9.39-49.74-4.17
						c-13.57-13.57-14.97-34.63-4.17-49.74c1.22-1.75,2.63-3.38,4.17-4.93c1.55-1.55,3.21-2.98,4.96-4.2
						c15.11-10.74,36.17-9.39,49.74,4.17c13.57,13.57,14.91,34.63,4.17,49.74C363.67,336.34,362.24,338,360.7,339.55z"/>
					<path class="st11" d="M360.7,339.55c-1.55,1.55-3.18,2.95-4.93,4.17l-53.91-53.91c1.22-1.75,2.63-3.38,4.17-4.93
						c1.55-1.55,3.21-2.98,4.96-4.2l53.91,53.91C363.67,336.34,362.24,338,360.7,339.55z"/>
					<path class="st3" d="M360.73,284.85c-1.54-1.54-3.19-2.9-4.9-4.13c9.56,13.38,9.56,31.44,0.04,44.84
						c-1.23,1.75-2.65,3.41-4.2,4.96c-1.55,1.55-3.18,2.95-4.93,4.17c-13.4,9.57-31.46,9.53-44.84-0.04
						c1.23,1.71,2.59,3.36,4.13,4.9c13.57,13.57,34.63,14.97,49.74,4.17c1.75-1.23,3.38-2.63,4.93-4.17
						c1.55-1.55,2.98-3.21,4.2-4.96C375.63,319.48,374.29,298.42,360.73,284.85z"/>
				</g>
				<g>
					<path class="st10" d="M244.03,445.73c-1.55,1.55-3.18,2.95-4.93,4.17c-15.11,10.79-36.17,9.39-49.74-4.17
						c-13.57-13.57-14.96-34.63-4.17-49.74c1.23-1.75,2.63-3.38,4.17-4.93c1.55-1.55,3.21-2.98,4.96-4.2
						c15.11-10.74,36.17-9.39,49.74,4.17c13.57,13.57,14.91,34.63,4.17,49.74C247,442.52,245.57,444.19,244.03,445.73z"/>
					<path class="st11" d="M244.03,445.73c-1.55,1.55-3.18,2.95-4.93,4.17L185.19,396c1.23-1.75,2.63-3.38,4.17-4.93
						c1.55-1.55,3.21-2.98,4.96-4.2l53.91,53.91C247,442.52,245.57,444.19,244.03,445.73z"/>
					<path class="st3" d="M244.06,391.04c-1.54-1.54-3.19-2.9-4.9-4.13c9.56,13.38,9.56,31.44,0.04,44.84
						c-1.23,1.75-2.65,3.41-4.2,4.96c-1.55,1.55-3.18,2.95-4.93,4.17c-13.4,9.57-31.46,9.53-44.84-0.04
						c1.23,1.71,2.59,3.36,4.13,4.9c13.57,13.57,34.63,14.97,49.74,4.17c1.75-1.23,3.38-2.63,4.93-4.17
						c1.55-1.55,2.98-3.21,4.2-4.96C258.96,425.66,257.62,404.6,244.06,391.04z"/>
				</g>
				<g>
					<path class="st10" d="M360.7,445.73c-1.55,1.55-3.18,2.95-4.93,4.17c-15.11,10.79-36.17,9.39-49.74-4.17
						c-13.57-13.57-14.97-34.63-4.17-49.74c1.22-1.75,2.63-3.38,4.17-4.93c1.55-1.55,3.21-2.98,4.96-4.2
						c15.11-10.74,36.17-9.39,49.74,4.17c13.57,13.57,14.91,34.63,4.17,49.74C363.67,442.52,362.24,444.19,360.7,445.73z"/>
					<path class="st11" d="M360.7,445.73c-1.55,1.55-3.18,2.95-4.93,4.17L301.86,396c1.22-1.75,2.63-3.38,4.17-4.93
						c1.55-1.55,3.21-2.98,4.96-4.2l53.91,53.91C363.67,442.52,362.24,444.19,360.7,445.73z"/>
					<path class="st3" d="M360.73,391.04c-1.54-1.54-3.19-2.9-4.9-4.13c9.56,13.38,9.56,31.44,0.04,44.84
						c-1.23,1.75-2.65,3.41-4.2,4.96s-3.18,2.95-4.93,4.17c-13.4,9.57-31.46,9.53-44.84-0.04c1.23,1.71,2.59,3.36,4.13,4.9
						c13.57,13.57,34.63,14.97,49.74,4.17c1.75-1.23,3.38-2.63,4.93-4.17c1.55-1.55,2.98-3.21,4.2-4.96
						C375.63,425.66,374.29,404.6,360.73,391.04z"/>
				</g>
			</g>
			<g>
				<path class="st6" d="M275.03,62.32c-2.17,0-3.93-1.76-3.93-3.93v-7.87c0-2.17,1.76-3.93,3.93-3.93c2.17,0,3.93,1.76,3.93,3.93
					v7.87C278.96,60.56,277.2,62.32,275.03,62.32z"/>
				<path class="st6" d="M275.03,437.72c-2.17,0-3.93-1.76-3.93-3.93v-15.64c0-2.17,1.76-3.93,3.93-3.93c2.17,0,3.93,1.76,3.93,3.93
					v15.64C278.96,435.96,277.2,437.72,275.03,437.72z M275.03,396.01c-2.17,0-3.93-1.76-3.93-3.93v-15.64
					c0-2.17,1.76-3.93,3.93-3.93c2.17,0,3.93,1.76,3.93,3.93v15.64C278.96,394.25,277.2,396.01,275.03,396.01z M275.03,354.3
					c-2.17,0-3.93-1.76-3.93-3.93v-15.64c0-2.17,1.76-3.93,3.93-3.93c2.17,0,3.93,1.76,3.93,3.93v15.64
					C278.96,352.53,277.2,354.3,275.03,354.3z M275.03,312.59c-2.17,0-3.93-1.76-3.93-3.93v-15.64c0-2.17,1.76-3.93,3.93-3.93
					c2.17,0,3.93,1.76,3.93,3.93v15.64C278.96,310.82,277.2,312.59,275.03,312.59z M275.03,270.87c-2.17,0-3.93-1.76-3.93-3.93
					V251.3c0-2.17,1.76-3.93,3.93-3.93c2.17,0,3.93,1.76,3.93,3.93v15.64C278.96,269.11,277.2,270.87,275.03,270.87z M275.03,229.17
					c-2.17,0-3.93-1.76-3.93-3.93v-15.64c0-2.17,1.76-3.93,3.93-3.93c2.17,0,3.93,1.76,3.93,3.93v15.64
					C278.96,227.4,277.2,229.17,275.03,229.17z M275.03,187.46c-2.17,0-3.93-1.76-3.93-3.93v-15.64c0-2.17,1.76-3.93,3.93-3.93
					c2.17,0,3.93,1.76,3.93,3.93v15.64C278.96,185.69,277.2,187.46,275.03,187.46z M275.03,145.75c-2.17,0-3.93-1.76-3.93-3.93
					v-15.64c0-2.17,1.76-3.93,3.93-3.93c2.17,0,3.93,1.76,3.93,3.93v15.64C278.96,143.98,277.2,145.75,275.03,145.75z
					 M275.03,104.03c-2.17,0-3.93-1.76-3.93-3.93V84.46c0-2.17,1.76-3.93,3.93-3.93c2.17,0,3.93,1.76,3.93,3.93v15.64
					C278.96,102.27,277.2,104.03,275.03,104.03z"/>
			</g>
		</g>
		<path class="st12" d="M381.66,40.72l0.65,394.44c0,17.35-14.11,31.46-31.46,31.46l-71.88,0.22v-6.99c0-2.17-1.76-3.93-3.93-3.93
			c-2.17,0-3.93,1.76-3.93,3.93v7.01l-113.32,0.35c9.59,12.38,24.56,20.38,41.44,20.38h151.63c28.96,0,52.44-23.48,52.44-52.44
			V83.09C403.28,65.66,394.74,50.26,381.66,40.72z"/>
	</g>
</g>
</svg>
