<?xml version="1.0" encoding="utf-8"?>
<!-- Generator: Adobe Illustrator 25.4.1, SVG Export Plug-In . SVG Version: 6.00 Build 0)  -->
<svg version="1.1" id="Layer_1" xmlns="http://www.w3.org/2000/svg" xmlns:xlink="http://www.w3.org/1999/xlink" x="0px" y="0px"
	 viewBox="0 0 127.49 195.23" style="enable-background:new 0 0 127.49 195.23;" xml:space="preserve">
<style type="text/css">
	.st0{fill:#805125;}
	.st1{fill:#FDD0AF;}
	.st2{opacity:0.3;fill:#010101;}
	.st3{fill:#228FB9;}
	.st4{fill:#D0E5F6;}
	.st5{fill:#F1F0F0;}
	.st6{fill:#D0D1D1;}
	.st7{fill:#E1E2E1;}
	.st8{opacity:0.3;fill:#FFFFFF;}
	.st9{opacity:0.2;fill:#010101;}
</style>
<g>
	<path class="st0" d="M96.11,117.57c-21.46,6.23-44.27,6.23-65.73,0c-6.88-2-11.94-10.09-11.58-17.24
		c0.69-13.75,5.42-27.7,6.15-41.86c28.22,0,48.57-0.47,76.79-0.47c0.73,14.16,5.27,28.59,5.95,42.33
		C108.05,107.48,102.99,115.58,96.11,117.57z"/>
	<path class="st1" d="M89.39,127.41c-6.67-1.56-12.07-5.81-12.07-9.46v-8.51c0-2.33,0-4.17,0-4.17H49.19v12.68
		c0,3.65-5.41,7.9-12.06,9.46c-1.49,0.36,12.26,10.6,26.12,10.51C76.25,137.85,89.39,127.41,89.39,127.41z"/>
	<polygon class="st1" points="37.13,127.41 16.95,132.45 63.13,184.1 109.46,132.45 89.39,127.41 	"/>
	<path class="st0" d="M24.99,58.47c0-29.24,14.92-47.88,38.26-47.88c23.39,0,38.48,18.18,38.48,47.41
		c0,29.27-15.1,22.43-38.48,22.43C39.91,80.43,24.99,87.74,24.99,58.47z"/>
	<path class="st2" d="M77.33,105.27c0,0,0,1.83,0,4.17c-4.87,4.28-9.86,6.78-14.07,6.78c-4.03,0-9.09-2.66-14.06-7.1v-3.85H77.33z"
		/>
	<g>
		<path class="st1" d="M92.42,62.46c1.04-2.21,1.28-4.07,2.81-4.14c2.59-0.14-1.56,21.48-4.35,23.53
			C89.59,78.88,92.42,62.46,92.42,62.46z"/>
		<path class="st1" d="M33.98,62.46c-1.03-2.21-1.28-4.07-2.8-4.14c-2.59-0.14,1.57,21.48,4.34,23.53
			C36.82,78.88,33.98,62.46,33.98,62.46z"/>
	</g>
	<path class="st1" d="M92.34,67.63c-0.49,3.95-1.11,8.06-1.75,11.89c-1.13,6.57-2.38,12.33-3.54,15.31
		c-3.36,8.7-17.05,18.47-23.81,18.47c-0.05,0-0.12-0.02-0.2-0.02c-6.85-0.17-20.24-9.85-23.6-18.45c-1.18-3.02-2.44-8.97-3.56-15.67
		c0-0.05,0-0.12-0.03-0.2c-2.09-12.45-3.69-27.54-3.27-31.5c0.66-6.07,1.45-25.4,30.46-25.5h0.2c29.24,0,30.04,19.38,30.69,25.5
		C94.23,50.26,93.52,58.57,92.34,67.63z"/>
	<path class="st0" d="M96.19,55.12V30.68c-2.88-2.51-8.58-9.53-11.96-11.29H42.31c-1.39,0.71-3.15,2.3-4.95,4.12
		c3.3,9.69,11.45,17.35,22.29,22.78c0.5,0.41,1.12,0.62,1.8,0.88c6.81,3.17,14.56,5.49,22.81,6.95L96.19,55.12z"/>
	<path class="st0" d="M44.87,20.93c19.07-0.7,2.24,26.46-13.19,36.1C20.34,43.81,31.04,21.46,44.87,20.93z"/>
	<path class="st3" d="M128.03,195.98H-1.55c0.94-13.71,2.92-47.56,3.98-50.38c2.08-5.51,7.24-9.88,12.53-12.21
		c10.35-4.52,22.11-8.4,32.98-11.81c0.52,2.05,15.24,27.15,15.24,27.15s15.14-25.32,15.61-27.15c7.09,2.22,14.03,5.61,21.12,7.83
		c9.22,2.92,22.21,6.43,24.41,17.47l0.07,0.32c0.05,0.27,0.07,0.35,0.07,0.35C125.66,154.52,127.27,185.58,128.03,195.98z"/>
	<path class="st4" d="M63.18,151.15l-1.06-1.8c-2.47-4.21-14.84-25.34-15.39-27.45l1.89-1.82c0.43,1.46,8.95,16.62,14.57,26.21
		c5.74-9.63,14.43-24.47,14.89-25.88l1.92,1.49c-0.49,1.86-12.18,21.48-15.75,27.45L63.18,151.15z"/>
	<g>
		<path class="st5" d="M89.19,70.6c0.54-2.29,1.41-4.44,2.36-6.55c0.99-2.09,2.06-4.14,3.47-6.04c-0.54,2.3-1.42,4.45-2.36,6.56
			C91.66,66.64,90.59,68.7,89.19,70.6z"/>
		<path class="st6" d="M89.17,70.59l-3.28,24.52c-3.86,6.14-12.58,15.03-22.66,15.03V70.59c3.66,0,10.38,4.45,13.73,3.89
			C80.32,73.91,87.04,71.98,89.17,70.59z"/>
		<path class="st7" d="M63.23,70.59v39.55c-10.09,0-18.8-8.89-22.66-15.03l-3.28-24.52c2.12,1.39,8.84,3.32,12.21,3.89
			C52.85,75.04,59.56,70.59,63.23,70.59z"/>
		<path class="st5" d="M63.23,110.74c-10.7,0-19.6-9.62-23.18-15.31l-0.09-0.24l-3.45-25.84l1.11,0.73
			c2.04,1.33,8.7,3.24,11.98,3.79c1.64,0.29,4.31-0.83,6.9-1.89c2.51-1.03,4.89-2,6.73-2c1.83,0,4.21,0.97,6.73,2
			c2.59,1.06,5.25,2.18,6.9,1.89c3.27-0.55,9.95-2.46,11.98-3.79l1.12-0.73l-3.54,26.08C82.83,101.12,73.93,110.74,63.23,110.74z
			 M41.15,94.9c3.49,5.49,11.99,14.63,22.08,14.63c10.09,0,18.58-9.14,22.07-14.63l3.1-23.2c-2.87,1.35-8.43,2.89-11.35,3.38
			c-1.92,0.31-4.8-0.83-7.56-1.96c-2.29-0.95-4.67-1.92-6.26-1.92c-1.59,0-3.97,0.97-6.27,1.92c-2.77,1.13-5.64,2.28-7.56,1.96
			c-2.92-0.49-8.49-2.02-11.35-3.38L41.15,94.9z"/>
		<path class="st5" d="M90.36,80.8c-0.46,2.47-1.18,4.86-1.88,7.26c-0.78,2.38-1.55,4.76-2.58,7.05c0.45-2.47,1.18-4.86,1.88-7.26
			C88.56,85.47,89.32,83.09,90.36,80.8z"/>
		<path class="st5" d="M37.26,70.6c-1.4-1.89-2.47-3.95-3.46-6.04c-0.95-2.11-1.83-4.26-2.36-6.56c1.4,1.9,2.47,3.95,3.46,6.04
			C35.85,66.15,36.72,68.3,37.26,70.6z"/>
		<path class="st5" d="M36.1,80.8c1.03,2.3,1.8,4.67,2.58,7.05c0.7,2.4,1.43,4.79,1.88,7.26c-1.03-2.29-1.8-4.67-2.58-7.05
			C37.27,85.66,36.55,83.27,36.1,80.8z"/>
	</g>
	<path class="st3" d="M26,45.92c0.22-13.08,0.44-21.22,0.65-34.3c0-4.09,3.27-8.21,7.34-8.96C53.32-0.95,73.14-0.97,92.46,2.6
		c4.07,0.75,7.34,4.85,7.34,8.95c0.33,13.1,0.66,21.27,0.98,34.37C76.21,40.01,50.58,40.01,26,45.92z"/>
	<path class="st8" d="M35.38,18.98c0.93-3.12,3.68-9.23,8.26-10.08c17.21-3.21,34.76-3.85,52.11-2c-1.26-1.62-3.04-2.85-5.03-3.21
		C72.47,0.32,53.74,0.33,35.49,3.74c-3.85,0.71-6.94,4.6-6.94,8.47c-0.21,12.36-0.41,20.05-0.62,32.41
		C30.25,44.06,33.47,25.37,35.38,18.98z"/>
	<polygon class="st9" points="107.15,195.98 103.87,195.98 103.33,175.92 	"/>
	<polygon class="st9" points="23.13,175.92 22.58,195.98 19.32,195.98 	"/>
</g>
</svg>
