<?xml version="1.0" encoding="utf-8"?>
<!-- Generator: Adobe Illustrator 25.4.1, SVG Export Plug-In . SVG Version: 6.00 Build 0)  -->
<svg version="1.1" id="Layer_1" xmlns="http://www.w3.org/2000/svg" xmlns:xlink="http://www.w3.org/1999/xlink" x="0px" y="0px"
	 viewBox="0 0 500 500" style="enable-background:new 0 0 500 500;" xml:space="preserve">
<style type="text/css">
	.st0{fill:#228FB9;}
	.st1{opacity:0.3;fill:#0399AE;}
	.st2{fill:#E2E2E2;}
	.st3{opacity:0.3;fill:#010101;}
	.st4{fill:#585856;}
	.st5{fill:#FFFFFF;}
	.st6{fill:#D0E5F6;}
</style>
<path class="st0" d="M346.64,495.77H153.17c-12.15,0-22-9.85-22-22V29.02c0-12.15,9.85-22,22-22h193.47c12.15,0,22,9.85,22,22
	v444.75C368.64,485.92,358.79,495.77,346.64,495.77z"/>
<path class="st1" d="M362.53,13.81c1.99,8.01,0.37,36.52,0.37,45.65v347.35c0,39.04,0.6,73.59-24.06,73.59l-177.7-0.68
	c-24.67,0-24.21-33.87-24.21-72.91V59.46c0-9.13-1.98-41.47,0.36-45.65c-5.19,10.71-3.87,0.34-6.11,17.61l-0.01,398.6
	c0,40.02-1.31,62.64,22.01,62.64h193.47c25.29,0,21.02-29.22,21.02-69.24l0.98-347.03C369.64,10.66,368.08,25.8,362.53,13.81z"/>
<path class="st2" d="M324.04,335.31H175.76c-12.22,0-22.13-14.19-22.13-31.67V91.62c0-17.47,9.9-31.64,22.13-31.64h148.28
	c12.23,0,22.14,14.16,22.14,31.64v212.03C346.17,321.12,336.27,335.31,324.04,335.31z"/>
<path class="st3" d="M159.12,313.06v-212c0-17.49,9.92-31.67,22.14-31.67h148.28c5.27,0,10.03,2.75,13.83,7.11
	c-3.75-9.79-10.97-16.52-19.33-16.52H175.76c-12.22,0-22.13,14.16-22.13,31.64v212.03c0,9.98,3.26,18.73,8.29,24.51
	C160.2,323.66,159.12,318.56,159.12,313.06z"/>
<path class="st4" d="M269.26,327.66c0,0-0.01,0-0.03,0c-0.8,0-1.47-0.61-1.63-1.45l-7.49-39.38l-6.9,24.79
	c-0.22,0.78-0.88,1.3-1.63,1.3h-24.14v-3.63h22.87l8.5-30.44c0.22-0.78,0.88-1.35,1.7-1.29c0.77,0.04,1.43,0.64,1.59,1.45
	l7.26,38.25l5.44-25.4c0.18-0.83,0.85-1.41,1.63-1.43c0,0,0,0,0.03,0c0.77,0,1.45,0.56,1.64,1.38l4.11,17.49h41.51v3.63h-42.85
	c-0.77,0-1.45-0.56-1.63-1.37l-2.71-11.53l-5.58,26.24C270.74,327.06,270.05,327.66,269.26,327.66z"/>
<path class="st4" d="M204.22,287.18c-3.34,0-6.32,1.72-8.21,4.41c-1.91-2.68-4.88-4.41-8.2-4.41c-5.76,0-10.42,5.06-10.42,11.28
	c0,11.28,18.63,22.89,18.63,22.89s18.59-11.75,18.59-22.89C214.6,292.23,210,287.18,204.22,287.18z"/>
<g>
	<path class="st4" d="M202.33,126.27v-24.26l5.06-5.16l6.61,6.71v16.83L202.33,126.27z M233.09,163.74h-30.76l13.21-11.77h16.1
		l6.71,6.71L233.09,163.74z M231.65,133.6h-16.1l-10.32-6.66l10.32-5.1h16.1l10.32,5.1L231.65,133.6z M231.65,102.01h-16.1
		l-6.61-6.71l5.06-5.06h19.1l5.26,5.06L231.65,102.01z M233.09,120.39v-16.83l6.71-6.71l5.16,5.16v24.26L233.09,120.39z
		 M239.8,157.14l-6.71-6.71v-15.38l11.87-7.33v24.26L239.8,157.14z"/>
	<path class="st4" d="M277.07,102.01h-16.21l-11.77-11.77h39.74L277.07,102.01z M278.51,118.94v-15.38l11.66-11.87v34.58
		L278.51,118.94z M278.51,151.98V133.6l11.66-5.88v36.03L278.51,151.98z"/>
</g>
<g>
	<path class="st4" d="M206.42,222.18v-23.26l4.85-4.95l6.33,6.43v14.75L206.42,222.18z M211.27,251.77l-4.85-4.95v-23.26l11.19,5.64
		v16.13L211.27,251.77z M234.53,227.72h-15.44l-9.9-4.89l9.9-6.39h15.44l9.9,6.39L234.53,227.72z M234.53,198.91h-15.44l-6.34-6.43
		l4.85-4.85h29.7L234.53,198.91z M235.92,258.11h-18.31l-4.85-4.85l6.34-6.43h15.44l6.43,6.43L235.92,258.11z M242.35,251.77
		l-6.43-6.43V229.2l11.38-5.64v23.26L242.35,251.77z"/>
	<path class="st4" d="M281.55,258.11h-30.29l13.36-11.28h15.44l6.43,6.43L281.55,258.11z M251.95,222.18v-33.75l11.19,11.98v14.75
		L251.95,222.18z M279.97,198.91h-15.44l-10.79-11.28h39L279.97,198.91z M280.06,227.72h-15.44l-9.9-4.89l9.9-6.39h15.44l9.9,6.39
		L280.06,227.72z M287.83,251.77l-6.28-6.43V229.2l11.19-5.64v23.26L287.83,251.77z"/>
</g>
<g>
	<path class="st5" d="M249.59,357.76c26.36,0,47.73,21.37,47.73,47.73c0,26.36-21.37,47.73-47.73,47.73
		c-26.36,0-47.73-21.37-47.73-47.73C201.86,379.13,223.23,357.76,249.59,357.76z"/>
	
		<ellipse transform="matrix(0.7071 -0.7071 0.7071 0.7071 -213.6219 295.2533)" class="st6" cx="249.59" cy="405.49" rx="35.68" ry="35.68"/>
</g>
</svg>
