<?xml version="1.0" encoding="utf-8"?>
<!-- Generator: Adobe Illustrator 25.4.1, SVG Export Plug-In . SVG Version: 6.00 Build 0)  -->
<svg version="1.1" id="Layer_1" xmlns="http://www.w3.org/2000/svg" xmlns:xlink="http://www.w3.org/1999/xlink" x="0px" y="0px"
	 viewBox="0 0 128.57 129.45" style="enable-background:new 0 0 128.57 129.45;" xml:space="preserve">
<style type="text/css">
	.st0{fill:#238EB8;}
	.st1{fill:#006C79;}
	.st2{fill:#CEE6FF;}
	.st3{fill:#575756;}
	.st4{fill:#3B3C42;}
</style>
<g>
	<path class="st0" d="M78.13,79.01L78.13,79.01c1.69-1.69,1.69-4.45,0-6.14l-9.42-9.42c-1.69-1.69-4.45-1.69-6.14,0l0,0
		c-1.69,1.69-1.69,4.45,0,6.14l9.42,9.42C73.68,80.7,76.44,80.7,78.13,79.01z"/>
	
		<rect x="54.64" y="53.88" transform="matrix(-0.7071 0.7071 -0.7071 -0.7071 147.964 62.5365)" class="st1" width="12.78" height="16.06"/>
	<path class="st0" d="M9.57,60.91c13.93,13.93,36.52,13.93,50.46,0c13.93-13.93,13.93-36.52,0-50.46
		C46.09-3.48,23.5-3.48,9.57,10.45C-4.37,24.38-4.37,46.97,9.57,60.91z M14.84,55.64c-11.02-11.02-11.02-28.89,0-39.91
		c11.02-11.02,28.89-11.02,39.91,0c11.02,11.02,11.02,28.89,0,39.91C43.73,66.66,25.86,66.66,14.84,55.64z"/>
	<path class="st1" d="M56.82,13.65c-12.16-12.16-31.89-12.16-44.05,0c-12.16,12.16-12.16,31.89,0,44.05
		c12.16,12.16,31.89,12.16,44.05,0C68.99,45.54,68.99,25.82,56.82,13.65z M54.75,55.64c-11.02,11.02-28.89,11.02-39.91,0
		c-11.02-11.02-11.02-28.89,0-39.91c11.02-11.02,28.89-11.02,39.91,0C65.77,26.74,65.77,44.61,54.75,55.64z"/>
	<g>
		<path class="st2" d="M30.85,7.74c-8,8.02-16,16.03-24,24.05C8.57,19.34,18.4,9.49,30.85,7.74z"/>
		<path class="st2" d="M6.58,35.83c9.43-9.46,18.87-18.91,28.31-28.37c1.45,0,2.87,0.12,4.26,0.33L6.91,40.03
			C6.7,38.66,6.59,37.26,6.58,35.83z"/>
		<path class="st2" d="M8.72,46.47L45.58,9.6c1.66,0.69,3.24,1.53,4.72,2.5C37.27,25.13,24.25,38.16,11.22,51.18
			C10.25,49.7,9.41,48.12,8.72,46.47z"/>
		<path class="st2" d="M23.65,61.6l37.07-37.07c0.37,0.85,0.7,1.73,0.98,2.62C49.89,38.97,38.08,50.78,26.27,62.59
			C25.38,62.3,24.5,61.97,23.65,61.6z"/>
		<path class="st2" d="M31.52,63.71l31.3-31.3c0.09,0.75,0.14,1.51,0.17,2.28c-9.73,9.73-19.46,19.46-29.19,29.19
			C33.03,63.84,32.27,63.79,31.52,63.71z"/>
		<path class="st2" d="M44.89,62.04l16.26-16.26C58.3,53.24,52.36,59.18,44.89,62.04z"/>
		<path class="st2" d="M19.64,59.48c-1.27-0.81-2.47-1.71-3.59-2.71c13.28-13.28,26.55-26.55,39.83-39.83
			c1,1.12,1.91,2.33,2.72,3.61C45.59,33.49,32.6,46.47,19.64,59.48z"/>
	</g>
	<path class="st3" d="M126.27,127.15L126.27,127.15c3.07-3.07,3.07-8.09,0-11.16L83.98,73.71c-3.07-3.07-8.09-3.07-11.16,0l0,0
		c-3.07,3.07-3.07,8.09,0,11.16l42.28,42.28C118.18,130.22,123.2,130.22,126.27,127.15z"/>
	<path class="st4" d="M70.63,78.05l42.27,42.27c3.07,3.07,8.09,3.07,11.16,0h0c1.22-1.22,1.95-2.75,2.2-4.34l0.01,0.01
		c3.07,3.07,3.07,8.09,0,11.16l0,0c-3.07,3.07-8.09,3.07-11.16,0L72.83,84.87C70.98,83.02,70.25,80.46,70.63,78.05z"/>
</g>
</svg>
