<?xml version="1.0" encoding="utf-8"?>
<!-- Generator: Adobe Illustrator 25.4.1, SVG Export Plug-In . SVG Version: 6.00 Build 0)  -->
<svg version="1.1" id="Layer_1" xmlns="http://www.w3.org/2000/svg" xmlns:xlink="http://www.w3.org/1999/xlink" x="0px" y="0px"
	 viewBox="0 0 500 500" style="enable-background:new 0 0 500 500;" xml:space="preserve">
<style type="text/css">
	.st0{display:none;fill:#228FB9;}
	.st1{display:none;opacity:0.3;fill:#0399AE;}
	.st2{display:none;fill:#E2E2E2;}
	.st3{display:none;opacity:0.3;fill:#010101;}
	.st4{display:none;fill:#585856;}
	.st5{display:none;}
	.st6{display:inline;fill:#585856;}
	.st7{display:inline;fill:#FFFFFF;}
	.st8{display:inline;fill:#D0E5F6;}
	.st9{display:inline;fill:#16525C;}
	.st10{display:inline;fill:#1D626E;}
	.st11{display:inline;fill:#21768A;}
	.st12{display:inline;fill:#318CC5;}
	.st13{display:inline;fill:none;stroke:#FFFFFF;stroke-width:7;stroke-linejoin:round;stroke-miterlimit:10;stroke-dasharray:2,12;}
	.st14{fill:#D0E5F6;}
	.st15{fill:#EDEDEE;}
	.st16{fill:#228FB9;}
</style>
<path class="st0" d="M346.64,495.77H153.17c-12.15,0-22-9.85-22-22V29.02c0-12.15,9.85-22,22-22h193.47c12.15,0,22,9.85,22,22
	v444.75C368.64,485.92,358.79,495.77,346.64,495.77z"/>
<path class="st1" d="M362.53,13.81c1.99,8.01,0.37,36.52,0.37,45.65v347.35c0,39.04,0.6,73.59-24.06,73.59l-177.7-0.68
	c-24.67,0-24.21-33.87-24.21-72.91V59.46c0-9.13-1.98-41.47,0.36-45.65c-5.19,10.71-3.87,0.34-6.11,17.61l-0.01,398.6
	c0,40.02-1.31,62.64,22.01,62.64h193.47c25.29,0,21.02-29.22,21.02-69.24l0.98-347.03C369.64,10.66,368.08,25.8,362.53,13.81z"/>
<path class="st2" d="M324.04,335.31H175.76c-12.22,0-22.13-14.19-22.13-31.67V91.62c0-17.47,9.9-31.64,22.13-31.64h148.28
	c12.23,0,22.14,14.16,22.14,31.64v212.03C346.17,321.12,336.27,335.31,324.04,335.31z"/>
<path class="st3" d="M159.12,313.06v-212c0-17.49,9.92-31.67,22.14-31.67h148.28c5.27,0,10.03,2.75,13.83,7.11
	c-3.75-9.79-10.97-16.52-19.33-16.52H175.76c-12.22,0-22.13,14.16-22.13,31.64v212.03c0,9.98,3.26,18.73,8.29,24.51
	C160.2,323.66,159.12,318.56,159.12,313.06z"/>
<path class="st4" d="M269.26,327.66c0,0-0.01,0-0.03,0c-0.8,0-1.47-0.61-1.63-1.45l-7.49-39.38l-6.9,24.79
	c-0.22,0.78-0.88,1.3-1.63,1.3h-24.14v-3.63h22.87l8.5-30.44c0.22-0.78,0.88-1.35,1.7-1.29c0.77,0.04,1.43,0.64,1.59,1.45
	l7.26,38.25l5.44-25.4c0.18-0.83,0.85-1.41,1.63-1.43c0,0,0,0,0.03,0c0.77,0,1.45,0.56,1.64,1.38l4.11,17.49h41.51v3.63h-42.85
	c-0.77,0-1.45-0.56-1.63-1.37l-2.71-11.53l-5.58,26.24C270.74,327.06,270.05,327.66,269.26,327.66z"/>
<path class="st4" d="M204.22,287.18c-3.34,0-6.32,1.72-8.21,4.41c-1.91-2.68-4.88-4.41-8.2-4.41c-5.76,0-10.42,5.06-10.42,11.28
	c0,11.28,18.63,22.89,18.63,22.89s18.59-11.75,18.59-22.89C214.6,292.23,210,287.18,204.22,287.18z"/>
<g class="st5">
	<path class="st6" d="M202.33,126.27v-24.26l5.06-5.16l6.61,6.71v16.83L202.33,126.27z M233.09,163.74h-30.76l13.21-11.77h16.1
		l6.71,6.71L233.09,163.74z M231.65,133.6h-16.1l-10.32-6.66l10.32-5.1h16.1l10.32,5.1L231.65,133.6z M231.65,102.01h-16.1
		l-6.61-6.71l5.06-5.06h19.1l5.26,5.06L231.65,102.01z M233.09,120.39v-16.83l6.71-6.71l5.16,5.16v24.26L233.09,120.39z
		 M239.8,157.14l-6.71-6.71v-15.38l11.87-7.33v24.26L239.8,157.14z"/>
	<path class="st6" d="M277.07,102.01h-16.21l-11.77-11.77h39.74L277.07,102.01z M278.51,118.94v-15.38l11.66-11.87v34.58
		L278.51,118.94z M278.51,151.98V133.6l11.66-5.88v36.03L278.51,151.98z"/>
</g>
<g class="st5">
	<path class="st6" d="M206.42,222.18v-23.26l4.85-4.95l6.33,6.43v14.75L206.42,222.18z M211.27,251.77l-4.85-4.95v-23.26l11.19,5.64
		v16.13L211.27,251.77z M234.53,227.72h-15.44l-9.9-4.89l9.9-6.39h15.44l9.9,6.39L234.53,227.72z M234.53,198.91h-15.44l-6.34-6.43
		l4.85-4.85h29.7L234.53,198.91z M235.92,258.11h-18.31l-4.85-4.85l6.34-6.43h15.44l6.43,6.43L235.92,258.11z M242.35,251.77
		l-6.43-6.43V229.2l11.38-5.64v23.26L242.35,251.77z"/>
	<path class="st6" d="M281.55,258.11h-30.29l13.36-11.28h15.44l6.43,6.43L281.55,258.11z M251.95,222.18v-33.75l11.19,11.98v14.75
		L251.95,222.18z M279.97,198.91h-15.44l-10.79-11.28h39L279.97,198.91z M280.06,227.72h-15.44l-9.9-4.89l9.9-6.39h15.44l9.9,6.39
		L280.06,227.72z M287.83,251.77l-6.28-6.43V229.2l11.19-5.64v23.26L287.83,251.77z"/>
</g>
<g class="st5">
	<path class="st7" d="M249.59,357.76c26.36,0,47.73,21.37,47.73,47.73c0,26.36-21.37,47.73-47.73,47.73
		c-26.36,0-47.73-21.37-47.73-47.73C201.86,379.13,223.23,357.76,249.59,357.76z"/>
	
		<ellipse transform="matrix(0.7071 -0.7071 0.7071 0.7071 -213.6219 295.2533)" class="st8" cx="249.59" cy="405.49" rx="35.68" ry="35.68"/>
</g>
<g class="st5">
	<path class="st9" d="M219.24,116.61c-65.66-0.59-131.1,6.57-131.1,6.57l3.8,30.08l127.3-1.76c51.8,0,95.84,8.28,111.95,19.82
		l0.14-31.49C331.32,129.31,297.76,117.32,219.24,116.61z"/>
	<path class="st10" d="M186.08,129.63c51.64-1.99,95.31,5.53,95.31,17.01l-0.1,25.53c-11.35-8.12-58.73-13.96-95.21-13.96
		c-36.48,0-67.49,5.83-78.84,13.96l-0.1-28.87C107.15,138.07,136.33,129.63,186.08,129.63z"/>
	<path class="st9" d="M211.95,135.25c30.04,0,62.12,3.61,62.12,11.09l-0.06,16.64c-7.4-5.3-38.28-9.1-62.06-9.1
		c-23.78,0-43.99,3.8-51.38,9.1l-0.06-18.82C160.51,140.75,179.53,135.25,211.95,135.25z"/>
	<path class="st11" d="M274.02,145.11c-5.71,4.09-19.43,5.74-36.49,6.22v20.5c21.9-1.03,36.54-4.85,36.54-10.9L274.02,145.11z"/>
	<path class="st11" d="M220.95,179.87c35.29,0,60.44-4.97,60.44-13.76l-0.07-19.47c-8.69,6.22-32.43,7.85-60.37,7.85
		c-27.94,0-51.68-4.47-60.37-10.69l-0.07,22.3C160.51,174.9,185.66,179.87,220.95,179.87z"/>
	<path class="st12" d="M219.24,196.84c65.45,0,112.08-9.22,112.08-25.53l-0.14-31.49c-16.11,11.54-60.14,19.82-111.95,19.82
		s-95.84-4.8-111.95-16.34l-0.14,28.01C107.15,187.62,153.79,196.84,219.24,196.84z"/>
	<path class="st13" d="M113.76,172.99c15.06,10.15,54.58,15.73,105.48,15.73c53.01,0,93.68-6.05,107.22-17.02"/>
</g>
<g id="run">
	<g>
		<path class="st14" d="M147.8,113.61c0,0,26.56,25.3,67.01,23.05c40.44-2.25,50.35-28.22,50.35-28.22s45.07,47.99,75.28,60.19
			c30.21,12.2,105.63,41.73,133.83,48.01c28.21,6.27,24.32,28.93,9.19,48.7c-15.13,19.78-97.07,42.29-172.39,31.07
			c-40.87-6.09-82.36-11.17-122.43-10.02c-53.44,1.55-124.08-30.5-89.77-50.53C98.88,235.86,78.27,186.17,147.8,113.61z"/>
		<g>
			<path class="st15" d="M324.03,181.57c34.07,13.75,119.13,47.06,150.94,54.14c9.1,2.02,15.23,5.57,18.95,10.1
				c3.8-13.24-0.6-24.95-19.65-29.18c-28.2-6.28-103.62-35.81-133.83-48.01c-30.21-12.2-75.28-60.19-75.28-60.19
				s-3.45,9.02-14.56,16.89C267.57,142.02,299.97,171.86,324.03,181.57z"/>
			<path class="st16" d="M182.35,145.52c14.79-0.81,25.94-4.46,34.29-9c-0.61,0.04-1.21,0.1-1.83,0.14
				c-40.45,2.25-67.01-23.05-67.01-23.05c-6.92,7.23-12.92,14.21-18.16,20.96C142.69,140.96,160.76,146.73,182.35,145.52z"/>
		</g>
		<path class="st15" d="M107.62,169.78c-19.19,40.8-8.74,66.08-8.74,66.08c-34.31,20.03,36.32,52.08,89.77,50.53
			c4.88-0.14,9.78-0.18,14.69-0.15C192.74,234.04,156.66,190.24,107.62,169.78z"/>
		<g>
			<path class="st15" d="M215.53,150.07c32.15-1.79,51.07-19.99,59.81-31.29c-6.27-6.17-10.19-10.33-10.19-10.33
				s-9.92,25.97-50.35,28.22c-40.45,2.25-67.01-23.05-67.01-23.05c-3.35,3.5-6.43,6.93-9.37,10.32
				C143.12,128.09,172.56,152.46,215.53,150.07z"/>
		</g>
		<g>
			<path class="st16" d="M485.4,243.03c-15.13,19.78-97.07,42.29-172.39,31.07c-40.87-6.09-82.36-11.17-122.43-10.01
				c-35.05,1.01-77.5-12.43-92.88-27.45c-31.26,20.07,38.19,51.28,90.95,49.75c40.07-1.16,81.56,3.93,122.43,10.02
				c75.32,11.22,157.26-11.29,172.39-31.07c9.44-12.33,14.5-25.8,10.11-35.7C491.56,234.1,488.76,238.64,485.4,243.03z"/>
		</g>
		<path class="st16" d="M265.09,169.82c-2.07,1.74-5.15,1.47-6.89-0.6l0,0c-1.74-2.07-1.47-5.16,0.6-6.9l37.86-31.83
			c2.07-1.74,5.16-1.47,6.89,0.6l0,0c1.74,2.07,1.47,5.16-0.6,6.89L265.09,169.82z"/>
		<path class="st16" d="M296.55,184.97c-2.07,1.74-5.16,1.47-6.89-0.6l0,0c-1.74-2.07-1.47-5.16,0.6-6.89l32.23-27.1
			c2.07-1.73,5.16-1.46,6.89,0.6l0,0c1.74,2.07,1.48,5.16-0.6,6.89L296.55,184.97z"/>
		<path class="st16" d="M330.11,195.31c-2.07,1.74-5.15,1.47-6.89-0.6l0,0c-1.74-2.06-1.47-5.16,0.6-6.89l27.23-22.89
			c2.07-1.74,5.15-1.47,6.89,0.6l0,0c1.74,2.07,1.47,5.15-0.6,6.9L330.11,195.31z"/>
	</g>
	<g>
		<path class="st14" d="M59.64,166.9c0,0,27.14,24.66,67.52,21.48c40.38-3.19,49.68-29.39,49.68-29.39s46.19,46.92,76.67,58.41
			c30.48,11.49,106.58,39.26,134.92,44.87c28.34,5.61,24.99,28.36,10.33,48.48c-14.66,20.12-96.05,44.54-171.62,35.08
			c-41-5.13-82.6-9.24-122.63-7.15c-53.39,2.8-124.76-27.59-90.92-48.42C13.59,290.26-8.18,241.06,59.64,166.9z"/>
		<g>
			<path class="st15" d="M237.41,230.73c34.39,12.95,120.19,44.26,152.16,50.6c9.14,1.81,15.36,5.21,19.18,9.66
				c3.49-13.33-1.19-24.93-20.32-28.72c-28.34-5.62-104.43-33.38-134.92-44.87c-30.48-11.49-76.67-58.41-76.67-58.41
				s-3.24,9.1-14.16,17.22C180.03,192.51,213.13,221.58,237.41,230.73z"/>
			<path class="st16" d="M94.92,198c14.77-1.17,25.83-5.07,34.07-9.8c-0.61,0.05-1.21,0.13-1.83,0.18
				c-40.38,3.19-67.52-21.48-67.52-21.48c-6.76,7.38-12.58,14.5-17.67,21.37C55.17,194.36,73.37,199.71,94.92,198z"/>
		</g>
		<path class="st15" d="M20.78,223.99c-18.24,41.24-7.19,66.27-7.19,66.27c-33.84,20.82,37.53,51.22,90.92,48.42
			c4.87-0.25,9.77-0.41,14.68-0.49C107.37,286.24,70.28,243.3,20.78,223.99z"/>
		<g>
			<path class="st15" d="M128.2,201.77c32.1-2.54,50.6-21.18,59.07-32.69c-6.41-6.02-10.42-10.09-10.42-10.09
				s-9.31,26.2-49.68,29.39c-40.38,3.19-67.52-21.48-67.52-21.48c-3.27,3.57-6.27,7.07-9.13,10.52
				C55.29,181.48,85.3,205.16,128.2,201.77z"/>
		</g>
		<g>
			<path class="st16" d="M400.17,288.4c-14.66,20.12-96.05,44.54-171.62,35.08c-41-5.13-82.6-9.24-122.63-7.15
				c-35.02,1.83-77.77-10.61-93.5-25.27c-30.79,20.79,39.38,50.38,92.09,47.61c40.03-2.09,81.63,2.02,122.63,7.15
				c75.57,9.46,156.96-14.96,171.62-35.08c9.15-12.55,13.89-26.13,9.28-35.93C406.12,279.33,403.42,283.93,400.17,288.4z"/>
		</g>
		<path class="st16" d="M178.2,220.36c-2.02,1.79-5.12,1.59-6.9-0.44l0,0c-1.79-2.03-1.59-5.12,0.44-6.91l37.11-32.7
			c2.03-1.78,5.12-1.59,6.9,0.44l0,0c1.79,2.03,1.6,5.12-0.44,6.9L178.2,220.36z"/>
		<path class="st16" d="M210.01,234.76c-2.02,1.79-5.12,1.59-6.91-0.44l0,0c-1.78-2.03-1.59-5.12,0.44-6.91l31.59-27.84
			c2.03-1.78,5.12-1.59,6.9,0.44l0,0c1.79,2.02,1.59,5.12-0.44,6.9L210.01,234.76z"/>
		<path class="st16" d="M243.81,244.32c-2.03,1.78-5.12,1.59-6.91-0.44l0,0c-1.79-2.02-1.59-5.12,0.44-6.9l26.69-23.52
			c2.03-1.79,5.12-1.59,6.91,0.44l0,0c1.79,2.03,1.59,5.12-0.44,6.9L243.81,244.32z"/>
	</g>
</g>
</svg>
