<?xml version="1.0" encoding="utf-8"?>
<!-- Generator: Adobe Illustrator 25.4.1, SVG Export Plug-In . SVG Version: 6.00 Build 0)  -->
<svg version="1.1" id="Layer_1" xmlns="http://www.w3.org/2000/svg" xmlns:xlink="http://www.w3.org/1999/xlink" x="0px" y="0px"
	 viewBox="0 0 500 500" style="enable-background:new 0 0 500 500;" xml:space="preserve">
<style type="text/css">
	.st0{fill:#273C40;}
	.st1{fill:#228FB9;stroke:#55A4DB;stroke-width:0.25;stroke-miterlimit:10;}
	.st2{opacity:0.3;fill:#0399AE;}
	.st3{fill:#D6D2DB;}
	.st4{fill:#228FB9;}
	.st5{fill:#4E4F55;}
	.st6{fill:#FFFFFF;}
	.st7{display:none;opacity:0.21;}
	.st8{display:inline;}
	.st9{opacity:0.3;fill:#010101;}
	.st10{display:none;}
	.st11{display:inline;fill:#20525A;}
	.st12{display:none;fill:#C3C5C6;}
	.st13{fill:#C72F2F;}
	.st14{fill:#EDEDEE;}
	.st15{fill:#F27071;}
	.st16{fill:#D0E5F6;}
</style>
<g id="узд2">
	<path class="st0" d="M436.4,388.54c0,31.15-20.99,24.94-51.2,24.94H89.87c-30.21,0-68.07,4.3-65.65-24.82
		c0,0-3.13-19.01,7.29-21.47c2.95-0.7,12.12-0.37,12.12-0.37v-7.28c0,0-8.93,0.05-12.13,0c-17.64-0.27-13.84,31.91-13.84,31.91
		c0,34.82,38.44,28.68,72.2,28.68h295.33c33.76,0,57.64,3.23,57.64-31.59l-2.74-116.78h-6.44L436.4,388.54z"/>
	<g>
		<path class="st1" d="M418.61,341.77h-363c-5.61,0-10.2,2.06-10.2,4.58v50.85c0,2.52,4.59,4.58,10.2,4.58h363
			c5.61,0,10.21-2.06,10.21-4.58v-50.85C428.81,343.83,424.22,341.77,418.61,341.77z"/>
		<path class="st2" d="M423.17,342.28c0.12,0.28,0.19,0.56,0.19,0.85v50.85c0,2.52-4.59,4.58-10.21,4.58h-363
			c-1.65,0-3.18-0.19-4.56-0.51c0.9,2.11,5.05,3.72,10.01,3.72h363c5.61,0,10.21-2.06,10.21-4.58v-50.85
			C428.81,344.57,426.5,343.03,423.17,342.28z"/>
	</g>
	<g>
		<path class="st3" d="M479.05,170.88h-84.97c-6.06,0-11.02,4.96-11.02,11.02v7.84c0,6.06,4.96,11.02,11.02,11.02h84.97
			c6.06,0,11.02-4.96,11.02-11.02v-7.84C490.08,175.84,485.12,170.88,479.05,170.88z"/>
		<path class="st4" d="M383.06,219.03c0,14.06,11.4,25.45,25.45,25.45h55.95c14.06,0,25.45-11.4,25.45-25.45v-24.8H383.06V219.03z"
			/>
		<path class="st4" d="M408.51,244.48c0,0,9.7,3.17,12.56,7.99c3.08,5.18,4.06,26.76,4.06,26.76h11.35h11.35
			c0,0,0.98-21.58,4.06-26.76c2.86-4.81,12.56-7.99,12.56-7.99h-27.97H408.51z"/>
		<path class="st4" d="M436.44,269.54c-6.6,0-12,5.4-12,12v10.9c0,6.6,5.4,12,12,12c6.6,0,12-5.4,12-12v-10.9
			C448.45,274.95,443.04,269.54,436.44,269.54z"/>
		<rect x="383.06" y="184.89" class="st0" width="106.85" height="9.34"/>
		<path class="st3" d="M484.97,215.2c-0.09,12.76-10.52,23.02-23.27,22.92l-70.55-0.57c4.55,4.28,10.64,6.94,17.38,6.94h0
			c0,0,9.7,3.17,12.56,7.99c0.23,0.39,0.44,0.98,0.65,1.54c2.49,0,5.3,0.04,8.04,0.09c7.46,0.14,13.43,6.22,13.43,13.68v21.29
			c0,5.09-4.12,9.21-9.21,9.21c-2.93,0-5.68-1.39-7.42-3.75l-2.13-2.89v0.48c0,4.83,2.65,9.52,7.13,11.34
			c8.59,3.49,16.88-2.85,16.88-11.03v-10.9c0-1.19-0.23-2.32-0.55-3.4c0.24-4.4,1.34-21.18,4.01-25.68
			c2.86-4.81,12.56-7.99,12.56-7.99c14.06,0,25.45-11.39,25.45-25.45v-24.8h-4.79L484.97,215.2z"/>
		<path class="st0" d="M450.03,261.86h-27.09c-1.69,0-3.07,1.38-3.07,3.07v13.29c0,1.69,1.38,3.07,3.07,3.07h27.09
			c1.69,0,3.07-1.38,3.07-3.07v-13.29C453.1,263.24,451.72,261.86,450.03,261.86z"/>
	</g>
	<g>
		<polygon class="st4" points="140.51,341.77 333.7,341.77 342.62,312.09 131.6,312.09 		"/>
		<path class="st4" d="M380.47,45.56L90.71,49.05C71.09,49.28,55.23,65.91,55.46,86l2.2,191.74c0.23,20.09,16.47,36.33,36.08,36.09
			l289.28-1.54c19.62-0.24,35.96-18.81,35.73-38.89l-2.2-191.74C416.33,61.57,400.09,45.32,380.47,45.56z"/>
		<path class="st5" d="M382,65.56H92.21c-9.85,0-17.83,8.18-17.83,18.26v191.75c0,10.09,7.98,18.26,17.83,18.26H382
			c9.85,0,17.83-8.18,17.83-18.26V83.82C399.84,73.73,391.85,65.56,382,65.56z"/>
		<path class="st2" d="M413.18,78.75V270.5c0,20.09-16.05,36.52-35.67,36.52H87.73c-9.23,0-17.6-3.73-23.95-9.68
			c6.52,8.89,16.8,14.76,28.44,14.76H382c19.62,0,35.67-16.44,35.67-36.52V83.82c0-10.63-4.57-20.15-11.71-26.84
			C410.43,63.08,413.18,70.57,413.18,78.75z"/>
		<polygon class="st3" points="134.78,322.69 303.95,322.69 309.51,341.77 333.7,341.77 342.62,312.09 131.6,312.09 		"/>
		<path class="st3" d="M382,65.56H92.21c-9.85,0-17.83,8.18-17.83,18.26v191.75c0,7.7,4.67,14.26,11.26,16.95
			c-0.6-1.83-1-3.75-1-5.78V94.98c0-10.09,7.98-18.26,17.83-18.26h289.79c2.33,0,4.53,0.49,6.57,1.32
			C396.46,70.8,389.86,65.56,382,65.56z"/>
		<g>
			<g>
				<path class="st6" d="M237.78,94.86c-17.2,0-33.73-3.38-49.18-9.51L93.21,243.21c43.31,26.19,92.46,40.99,144.57,40.99
					s101.26-14.8,144.57-40.99L286.96,85.35C271.51,91.48,254.98,94.86,237.78,94.86z"/>
			</g>
			<g class="st7">
				<g class="st8">
					<rect x="-250.64" y="106.14" class="st9" width="0.74" height="167.04"/>
					<rect x="-321.11" y="106.14" class="st9" width="0.75" height="167.04"/>
					<rect x="-426.83" y="106.14" class="st9" width="0.74" height="167.04"/>
					<rect x="-391.59" y="106.14" class="st9" width="0.74" height="167.04"/>
					<rect x="-356.35" y="106.14" class="st9" width="0.75" height="167.04"/>
					<rect x="-285.88" y="106.14" class="st9" width="0.74" height="167.04"/>
					<rect x="-461.87" y="139.17" class="st9" width="247.05" height="0.74"/>
					<rect x="-461.87" y="172.53" class="st9" width="247.05" height="0.75"/>
					<rect x="-461.87" y="205.9" class="st9" width="247.05" height="0.74"/>
					<rect x="-461.87" y="239.26" class="st9" width="247.05" height="0.75"/>
					<rect x="-463.17" y="271.49" class="st9" width="249.64" height="2.99"/>
					<rect x="-461.83" y="104.08" class="st9" width="250.73" height="2.99"/>
					<rect x="-463.3" y="104.64" class="st9" width="2.99" height="169.79"/>
					<polygon class="st9" points="-214.34,272.06 -211.1,273.22 -211.1,106.18 -214.09,106.18 					"/>
				</g>
			</g>
			<g class="st10">
				<rect x="-287.68" y="108.66" class="st11" width="33.04" height="2.45"/>
				<rect x="-283.68" y="114.91" class="st11" width="29.04" height="2.45"/>
				<rect x="-268.94" y="120.78" class="st11" width="14.3" height="2.45"/>
			</g>
		</g>
		<path class="st12" d="M-451.18,72.31c-7.73,0-13.99,6.26-13.99,13.99v143.05c3.89,0.14,7.81,0.21,11.75,0.21
			c124.29,0,225.05-68.44,225.05-152.87c0-1.47-0.1-2.92-0.16-4.37H-451.18z"/>
	</g>
	<rect x="34.5" y="353.07" class="st0" width="10.9" height="19.95"/>
	<g>
		<rect x="210.55" y="148.61" class="st13" width="57.5" height="110.44"/>
		<g>
			<path class="st14" d="M273.32,190.76c-22.42,4.74-45.6,4.74-68.02,0c-2.12-0.45-3.47-2.31-3.02-4.1
				c1.01-4.15,2.02-8.31,3.04-12.46c0.44-1.79,2.29-2.89,4.14-2.5c19.68,4.16,40.03,4.16,59.71,0c1.85-0.39,3.69,0.7,4.14,2.5
				c1.01,4.15,2.02,8.31,3.03,12.46C276.78,188.45,275.44,190.31,273.32,190.76z"/>
		</g>
		<g>
			<path class="st14" d="M273.32,216.91c-22.42,4.74-45.6,4.74-68.02,0c-2.12-0.45-3.47-2.31-3.02-4.1
				c1.01-4.15,2.02-8.31,3.04-12.46c0.44-1.79,2.29-2.88,4.14-2.5c19.68,4.17,40.03,4.17,59.71,0c1.85-0.39,3.69,0.7,4.14,2.5
				c1.01,4.15,2.02,8.31,3.03,12.46C276.78,214.6,275.44,216.46,273.32,216.91z"/>
		</g>
		<g>
			<path class="st14" d="M273.32,243.05c-22.42,4.74-45.6,4.74-68.02,0c-2.12-0.45-3.47-2.31-3.02-4.1
				c1.01-4.16,2.02-8.31,3.04-12.46c0.44-1.79,2.29-2.89,4.14-2.5c19.68,4.17,40.03,4.17,59.71,0c1.85-0.39,3.69,0.71,4.14,2.5
				c1.01,4.15,2.02,8.31,3.03,12.46C276.78,240.74,275.44,242.6,273.32,243.05z"/>
		</g>
		<path class="st14" d="M283.76,129.5c1.79-8.89-3.82-17.07-9.37-13.64c-10.41,6.42-18.41,13.72-35.08,13.72
			c-16.67,0-24.67-7.29-35.08-13.72c-5.55-3.43-11.17,4.75-9.37,13.64l5.16,25.58c0.02,0.09,0.04,0.18,0.06,0.28
			c1.8,8.44,12.18,11.76,18.74,6.06c4.03-3.5,10.61-7.55,19.5-7.55c9.46,0,17.06,4.67,21.59,8.37c6.52,5.32,16.44,2.14,18.43-5.97
			c0.08-0.33,0.16-0.67,0.23-1.01L283.76,129.5z"/>
		<path class="st15" d="M281.8,246.83c-2.23,0-3.62-1.13-4.74-2.04c-0.99-0.8-1.64-1.3-2.52-1.3c-0.57,0.01-1.14,0.18-1.74,0.36
			c-0.34,0.1-0.69,0.2-1.03,0.28c-1.23,0.29-2.43,0.43-3.56,0.43h0c-7.53,0-11.07-6.11-14.2-11.49c-1.59-2.75-3.1-5.34-4.9-6.75
			c-0.74-0.48-5.98-2.7-7.52-3.14c-1.35,0.57-2.87,0.86-4.45,0.86c-2.13,0-4.18-0.53-5.84-1.49c-0.63,0.96-1.05,2.06-1.49,3.2
			c-0.66,1.72-1.35,3.5-2.83,5.03c-1.24,1.28-4.03,2.29-6.02,2.73c-0.74,2.41-1.98,3.73-3.85,5.51c-0.29,0.27-0.57,0.58-0.86,0.89
			c-0.87,0.94-1.85,1.99-3.22,2.6c-0.54,0.24-2.57,0.54-3.57,0.61c-2.39,2-5.18,3.09-7.93,3.09c-1.66,0-3.27-0.39-4.8-1.16
			c-3.72-1.87-8.17-4.92-8.25-8.88c0,0,0-0.18-0.01-0.22c-0.07-0.03-0.15-0.06-0.22-0.08c-3.32-1.23-6.02-3.51-7.47-6.28
			c-0.65-1.22-0.72-2.48-0.79-3.58c-0.06-1-0.12-1.95-0.58-2.74c-0.2-0.34-0.58-0.67-0.97-1.02c-0.3-0.27-0.62-0.54-0.91-0.87
			c-2.45-2.72-1.37-6.38-0.15-9.25c0.27-0.64,0.61-1.42,0.4-1.96c-0.14-0.38-0.57-0.75-1.03-1.14c-0.14-0.12-0.28-0.24-0.42-0.37
			c-3.01-2.74-3.81-6.99-1.94-10.35c0.14-0.26,0.3-0.51,0.46-0.78c0.54-0.88,1.05-1.71,0.81-2.35c-0.11-0.3-0.39-0.61-0.72-0.96
			c-0.19-0.21-0.39-0.43-0.56-0.65c-1.51-1.94-1.55-4.67-0.11-7.14c1.08-1.85,2.77-3.35,4.37-4.67c-2.51-5.68-0.26-9.08,3.17-13.18
			c0.18-0.22,0.36-0.44,0.52-0.67c0.19-0.25,0.36-0.5,0.52-0.74c0.39-0.58,0.78-1.21,1.15-1.81c0.38-0.62,0.78-1.26,1.2-1.88
			c0.34-0.5,0.62-0.89,0.89-1.23c0.13-0.16,0.25-0.32,0.38-0.47v-0.01l0.28-0.31c0.23-0.25,0.47-0.5,0.7-0.72
			c1.81-1.7,3.91-2.52,6.44-2.52c0.46,0,0.9,0.02,1.33,0.07c0.17,0.02,0.35,0.04,0.52,0.07c6.2,0.93,10.56,6.11,13.75,9.9l0.38,0.45
			c0.15,0.17,0.3,0.35,0.45,0.52c0.17,0.19,0.32,0.35,0.47,0.5c1.17,1.22,2.38,2.25,3.55,3.24c1.41,1.2,2.75,2.33,3.85,3.66
			c1.72,2.06,2.57,4.3,2.62,6.96c0.06,0,0.12,0,0.17,0c2.81,0,5.43,0.6,7.57,1.75c3.77,2.02,3.83,5.52,3.51,8.65
			c0.2-0.02,0.4-0.03,0.62-0.03c0.29,0,0.61,0.02,0.99,0.05c2.39,0.21,4.76,0.78,6.95,1.66c0.54-2.28,1.99-5.44,3.84-6.18
			c0.64-0.26,1.34-0.38,2.14-0.38c0.84,0,1.64,0.14,2.42,0.27c0.3,0.05,0.6,0.1,0.89,0.14c0.22,0.03,0.45,0.05,0.68,0.05
			c0.63,0,1.2-0.12,1.51-0.32c0.16-0.1,0.2-0.19,0.23-0.27c0.04-0.15,0.03-0.41,0.01-0.66c-0.04-0.63-0.09-1.49,0.68-2.22
			c0.44-0.41,0.96-0.6,1.35-0.73c0.44-0.16,0.88-0.3,1.32-0.44c1.71-0.55,2.78-0.93,3.1-1.72c0.13-0.3-0.02-0.86-0.16-1.41
			c-0.2-0.76-0.42-1.62-0.15-2.48c0.22-0.71,0.58-1.32,1.09-1.87c0.15-0.15,0.25-0.25,0.36-0.35l0.09-0.08l0.04-0.03
			c0.14-0.11,0.26-0.2,0.4-0.3c0.17-0.11,0.31-0.2,0.47-0.29c0.11-0.06,0.25-0.14,0.38-0.2c0.05-0.02,0.6-0.28,0.6-0.28l0.51-0.2
			c0.1-0.04,0.25-0.1,0.41-0.15c0.22-0.08,0.46-0.16,0.7-0.25c0.41-0.14,0.83-0.29,1.24-0.45c0.24-0.1,0.48-0.2,0.71-0.31
			c0.09-0.05,0.18-0.09,0.26-0.14c0.09-0.05,0.14-0.08,0.18-0.11c0.12-0.07,0.22-0.14,0.32-0.21c0.13-0.09,0.21-0.15,0.29-0.21
			c0.7-0.58,1.3-1.35,1.88-2.09c0.48-0.62,0.98-1.26,1.56-1.83c0.44-0.43,0.87-0.79,1.26-1.11c1.21-1.02,1.88-1.58,1.85-3.15
			c-0.01-0.26-0.03-0.52-0.05-0.79c-0.05-0.56-0.1-1.15-0.02-1.77c0.51-4.08,5.31-6.22,9.79-6.22c1.49,0,2.93,0.24,4.15,0.68
			c5.1,1.86,8.56,6.4,11.26,10.6c2.95,4.59,3.04,6.9,2.96,11.71c0,0.13,0,0.37,0.03,0.45c0.04,0.03,0.27,0.14,0.42,0.21l0.12,0.06
			c2.37,1.16,4.12,3.21,4.82,5.64c0.74,2.58,0.23,5.25-1.38,7.31c-0.17,0.23-0.37,0.44-0.57,0.66c-0.31,0.34-0.6,0.66-0.71,0.95
			c-0.23,0.64,0.28,1.46,0.81,2.34c0.16,0.26,0.32,0.53,0.47,0.79c1.87,3.36,1.07,7.61-1.93,10.34c-0.14,0.13-0.28,0.25-0.43,0.37
			c-0.46,0.39-0.89,0.77-1.03,1.14c-0.2,0.53,0.12,1.29,0.4,1.97c1.22,2.87,2.31,6.52-0.15,9.25c-0.29,0.32-0.6,0.59-0.9,0.86
			c-0.4,0.35-0.78,0.69-0.98,1.03c-0.57,0.96-0.44,2.01-0.29,3.22c0.22,1.77,0.5,3.96-1.85,6c-0.94,0.82-2,1.44-3.02,2.03
			c-1.22,0.71-2.37,1.38-3.22,2.33c-0.83,0.92-1.08,1.76-1.39,2.81c-0.18,0.62-0.38,1.26-0.7,1.98c-1.15,2.49-4.48,5.18-7.85,5.2
			H281.8z"/>
		<g>
			<path class="st13" d="M194.1,210.91c-0.56-0.4-1.34-0.31-1.87,0.05c-1.1,0.74-1.95,1.63-2.6,2.6c-4.35-2.74-6.94-6.99-6.31-11.31
				c0.66-4.46,4.51-8.33,9.8-10.26c0.95-0.35,0.73-1.41-0.08-1.74c-6.13-2.51-9.15-8.19-7.17-13.22c0.49-1.24-2.1-1.67-2.59-0.44
				c-2.1,5.33,0.79,11.24,6.62,14.48c-5.08,2.41-8.63,6.56-9.22,11.11c-0.67,5.13,2.5,10.34,7.98,13.37
				c-0.73,2.19-0.49,4.56,0.85,6.61c0.32,0.49,1.25,0.59,1.82,0.33c0.66-0.31,0.75-0.89,0.43-1.38c-1.91-2.92-0.77-6.64,2.39-8.78
				C194.7,211.96,194.59,211.25,194.1,210.91z"/>
			<path class="st13" d="M272.87,224.26c-3.82-0.91-5.97-4.25-4.43-7.12c0.27-0.5,0.12-1.08-0.56-1.35
				c-0.59-0.23-1.52-0.08-1.79,0.42c-0.92,1.71-0.98,3.56-0.23,5.28c-3.38,0.22-6.93-0.85-9-2.91c-2.43-2.42-2.62-5.78-0.72-8.42
				c0.55-0.76-0.48-1.67-1.56-1.42c-6.31,1.42-11.88-3.04-9.94-7.73c0.51-1.23-2.08-1.67-2.59-0.44c-1.17,2.82-0.19,6.01,2.56,8.12
				c2.16,1.65,5.22,2.42,8.23,2.29c-1.24,3-0.61,6.4,2.01,8.9c2.91,2.79,7.67,4.03,12.24,3.49c1.26,1.35,3.1,2.35,5.19,2.85
				c0.68,0.16,1.44-0.26,1.58-0.76C274.04,224.89,273.55,224.42,272.87,224.26z"/>
			<path class="st13" d="M291.7,193.85c0.2-3.49-2.44-6.4-5.37-8.9c3.4-2.31,5.46-5.66,5.18-9.17c-0.29-3.78-3.15-7.17-7.38-9.15
				c-1.45-0.68-2.67,1.1-1.23,1.78c7.43,3.48,7.88,11.66,0.83,15.58c-0.73,0.4-0.83,1.08-0.21,1.59c2.45,2,5.03,4.28,5.47,7.1
				c0.39,2.48-1.38,5.13-4.8,5.38c-1.1-1.87-2.77-3.55-4.98-4.76c-0.58-0.32-1.34-0.38-1.87,0.05c-0.44,0.36-0.52,1.1,0.07,1.42
				c4.58,2.52,6.67,7.07,5.06,11.19c-0.48,1.24,2.1,1.68,2.59,0.44c0.81-2.07,0.76-4.28,0.05-6.36
				C288.9,199.53,291.53,196.76,291.7,193.85z"/>
			<path class="st13" d="M296.54,217.55c-1.1-2.63-3.82-4.88-7.25-5.85c-0.65-0.18-1.46-0.11-1.79,0.42
				c-0.27,0.44-0.13,1.16,0.56,1.35c0.74,0.21,1.45,0.48,2.11,0.8c0.08,0.04,0.18,0.08,0.26,0.13c-0.03-0.02-0.03-0.02-0.04-0.03
				c0.03,0.02,0.07,0.05,0.09,0.06c0.17,0.09,0.33,0.19,0.48,0.29c0.3,0.19,0.59,0.4,0.87,0.61c0.13,0.1,0.26,0.21,0.38,0.32
				c0.03,0.03,0.07,0.06,0.1,0.09c0.06,0.06,0.04,0.04-0.06-0.06c0.04,0.01,0.16,0.16,0.19,0.18c0.24,0.24,0.46,0.49,0.66,0.74
				c0.19,0.24,0.36,0.49,0.52,0.75c0.02,0.04,0.05,0.08,0.06,0.1c0.04,0.07,0.08,0.14,0.11,0.22c0.07,0.15,0.14,0.29,0.2,0.44
				c0.21,0.5,0.97,0.85,1.65,0.67C296.32,218.62,296.77,218.08,296.54,217.55z"/>
			<path class="st13" d="M289.88,226.83c-0.44-2.25-1.96-4.33-4.31-5.75c-0.56-0.34-1.36-0.37-1.87,0.05
				c-0.46,0.37-0.5,1.08,0.07,1.42c3.82,2.32,4.78,6.57,1.81,9.61c-0.43,0.44-0.5,1.02,0.07,1.42c0.48,0.34,1.44,0.39,1.87-0.05
				C289.38,231.61,290.34,229.22,289.88,226.83z"/>
			<path class="st13" d="M274.57,233.91c-0.67-0.09-1.47,0.2-1.58,0.76c-0.25,1.21-0.5,2.41-0.74,3.62c-0.11,0.52,0.26,1.1,1,1.2
				c0.67,0.09,1.47-0.2,1.58-0.76c0.25-1.21,0.5-2.41,0.74-3.62C275.67,234.59,275.3,234.01,274.57,233.91z"/>
			<path class="st13" d="M208,235.35c-2.88-1.27-5.82-2.72-7.76-4.82c-1.78-1.92-2.72-4.52-1.42-6.75c0.68-1.17-1.66-2.11-2.35-0.93
				c-1.6,2.75-0.89,5.9,1.21,8.39c2.19,2.59,5.64,4.36,9.09,5.88C208.25,237.78,209.47,236,208,235.35z"/>
			<path class="st13" d="M223.77,220.86c-2.41-0.01-4.8-0.68-6.6-1.9c-1.78-1.2-2.89-2.81-3.29-4.58c-0.03-0.14-0.12-0.26-0.24-0.36
				c2.36-0.89,4.4-2.14,5.69-4.03c0.78-1.15-1.57-2.08-2.35-0.93c-2.27,3.33-7.58,4.21-11.99,4.95c-0.7,0.12-1.08,0.76-0.89,1.25
				c0.22,0.55,0.95,0.79,1.65,0.67c1.84-0.31,3.75-0.67,5.58-1.17c0,0.06-0.01,0.13,0.01,0.19c1.04,4.57,6.46,7.88,12.52,7.91
				C225.57,222.87,225.47,220.87,223.77,220.86z"/>
			<path class="st13" d="M217.43,198.48c-1.57-0.57-3.3-0.83-5.01-0.81c-0.09-2.6,1.35-5.08,3.93-6.8c0.54-0.36,0.42-1.07-0.07-1.42
				c-0.57-0.4-1.33-0.31-1.87,0.05c-3.13,2.08-4.86,5.29-4.63,8.44c-2.05,0.39-3.97,1.17-5.45,2.36c-1.17,0.94,0.77,2.31,1.94,1.37
				c2.46-1.98,6.65-2.61,9.93-1.41C217.73,200.81,218.97,199.04,217.43,198.48z"/>
			<path class="st13" d="M199.7,169.82c-3.37,2.6-4.79,6.32-3.96,9.88c0.12,0.53,1.02,0.81,1.65,0.67c0.75-0.17,1.01-0.71,0.89-1.25
				c-0.66-2.86,0.69-5.89,3.36-7.94C202.83,170.26,200.89,168.89,199.7,169.82z"/>
			<path class="st13" d="M299.68,185.13c-0.25-0.51-0.93-0.84-1.65-0.67c-0.65,0.15-1.14,0.74-0.89,1.25
				c1.61,3.2,1.47,6.78-0.48,9.88c-0.73,1.16,1.61,2.1,2.35,0.93C301.24,192.97,301.53,188.8,299.68,185.13z"/>
		</g>
	</g>
	<g>
		<path class="st6" d="M397.72,361.18c10-1.26,18.4,7.14,17.14,17.14c-0.86,6.81-6.36,12.31-13.17,13.17
			c-9.99,1.26-18.4-7.15-17.14-17.14C385.42,367.54,390.91,362.04,397.72,361.18z"/>
		<path class="st16" d="M398.23,365.01c7.47-0.94,13.75,5.34,12.81,12.81c-0.64,5.09-4.75,9.2-9.84,9.84
			c-7.47,0.94-13.75-5.34-12.81-12.81C389.02,369.76,393.14,365.65,398.23,365.01z"/>
	</g>
</g>
</svg>
