<?xml version="1.0" encoding="utf-8"?>
<!-- Generator: Adobe Illustrator 25.4.1, SVG Export Plug-In . SVG Version: 6.00 Build 0)  -->
<svg version="1.1" id="Layer_1" xmlns="http://www.w3.org/2000/svg" xmlns:xlink="http://www.w3.org/1999/xlink" x="0px" y="0px"
	 viewBox="0 0 500 500" style="enable-background:new 0 0 500 500;" xml:space="preserve">
<style type="text/css">
	.st0{fill:#273C40;}
	.st1{fill:#228FB9;stroke:#55A4DB;stroke-width:0.25;stroke-miterlimit:10;}
	.st2{opacity:0.3;fill:#0399AE;}
	.st3{fill:#D6D2DB;}
	.st4{fill:#228FB9;}
	.st5{fill:#4E4F55;}
	.st6{fill:#FFFFFF;}
	.st7{display:none;opacity:0.21;}
	.st8{display:inline;}
	.st9{opacity:0.3;fill:#010101;}
	.st10{display:none;}
	.st11{display:inline;fill:#20525A;}
	.st12{display:none;fill:#C3C5C6;}
	.st13{fill:#D0E5F6;}
	.st14{fill:#7E3A2A;}
	.st15{fill:#C72F2F;}
	.st16{fill:#A1503D;}
	.st17{fill:#8D4636;}
</style>
<g id="узд">
	<path class="st0" d="M436.99,394.65c0,31.82-21.44,25.47-52.29,25.47H83.09c-30.85,0-69.52,4.39-67.04-25.34
		c0,0-3.19-19.42,7.44-21.92c3.01-0.71,12.38-0.38,12.38-0.38v-7.43c0,0-9.12,0.05-12.39,0c-18.01-0.27-14.13,32.58-14.13,32.58
		c0,35.56,39.26,29.29,73.74,29.29H384.7c34.48,0,58.87,3.29,58.87-32.26l-2.8-119.27h-6.58L436.99,394.65z"/>
	<g>
		<path class="st1" d="M418.82,346.89H48.1c-5.73,0-10.42,2.1-10.42,4.68v51.94c0,2.57,4.69,4.68,10.42,4.68h370.72
			c5.73,0,10.42-2.1,10.42-4.68v-51.94C429.25,348.99,424.56,346.89,418.82,346.89z"/>
		<path class="st2" d="M423.48,347.41c0.12,0.28,0.2,0.57,0.2,0.87v51.94c0,2.57-4.69,4.68-10.42,4.68H42.54
			c-1.68,0-3.25-0.2-4.66-0.52c0.92,2.16,5.16,3.8,10.22,3.8h370.72c5.73,0,10.42-2.1,10.42-4.68v-51.94
			C429.25,349.75,426.88,348.18,423.48,347.41z"/>
	</g>
	<g>
		<path class="st3" d="M480.55,172.37h-86.78c-6.19,0-11.26,5.07-11.26,11.26v8.01c0,6.19,5.07,11.26,11.26,11.26h86.78
			c6.19,0,11.26-5.07,11.26-11.26v-8.01C491.81,177.43,486.75,172.37,480.55,172.37z"/>
		<path class="st4" d="M382.52,221.54c0,14.36,11.64,25.99,25.99,25.99h57.14c14.36,0,25.99-11.64,25.99-25.99v-25.33H382.52V221.54
			z"/>
		<path class="st4" d="M408.51,247.53c0,0,9.91,3.24,12.83,8.16c3.15,5.29,4.15,27.33,4.15,27.33h11.59h11.59
			c0,0,1-22.03,4.15-27.33c2.92-4.91,12.83-8.16,12.83-8.16h-28.57H408.51z"/>
		<path class="st4" d="M437.04,273.13c-6.74,0-12.26,5.52-12.26,12.26v11.13c0,6.74,5.52,12.26,12.26,12.26s12.26-5.52,12.26-12.26
			v-11.13C449.3,278.64,443.78,273.13,437.04,273.13z"/>
		<rect x="382.52" y="186.68" class="st0" width="109.12" height="9.54"/>
		<path class="st3" d="M486.59,217.62c-0.1,13.03-10.74,23.51-23.77,23.41l-72.05-0.58c4.65,4.37,10.86,7.09,17.75,7.09h0
			c0,0,9.91,3.24,12.83,8.16c0.24,0.4,0.45,1,0.66,1.57c2.55,0,5.41,0.04,8.21,0.1c7.62,0.15,13.72,6.35,13.72,13.97v21.75
			c0,5.2-4.21,9.41-9.41,9.41c-2.99,0-5.8-1.42-7.57-3.83l-2.17-2.95v0.49c0,4.94,2.71,9.72,7.28,11.58
			c8.77,3.56,17.24-2.91,17.24-11.26v-11.13c0-1.21-0.23-2.37-0.57-3.47c0.25-4.5,1.36-21.63,4.09-26.22
			c2.92-4.91,12.83-8.16,12.83-8.16c14.36,0,25.99-11.64,25.99-25.99v-25.33h-4.9L486.59,217.62z"/>
		<path class="st0" d="M450.91,265.28h-27.66c-1.72,0-3.14,1.41-3.14,3.14v13.57c0,1.73,1.41,3.14,3.14,3.14h27.66
			c1.73,0,3.14-1.41,3.14-3.14v-13.57C454.05,266.69,452.64,265.28,450.91,265.28z"/>
	</g>
	<g>
		<polygon class="st4" points="134.81,346.89 332.11,346.89 341.22,316.58 125.71,316.58 		"/>
		<path class="st4" d="M379.88,44.38L83.95,47.94c-20.03,0.24-36.23,17.22-35.99,37.74l2.25,195.82
			c0.23,20.51,16.82,37.1,36.85,36.86l295.44-1.58c20.03-0.24,36.72-19.21,36.49-39.72l-2.25-195.82
			C416.49,60.73,399.91,44.14,379.88,44.38z"/>
		<path class="st5" d="M381.44,64.8H85.49c-10.06,0-18.21,8.35-18.21,18.65v195.83c0,10.3,8.15,18.65,18.21,18.65h295.95
			c10.06,0,18.21-8.35,18.21-18.65V83.45C399.65,73.15,391.5,64.8,381.44,64.8z"/>
		<path class="st2" d="M413.28,78.27V274.1c0,20.51-16.39,37.3-36.42,37.3H80.91c-9.43,0-17.97-3.81-24.46-9.89
			c6.66,9.08,17.16,15.07,29.04,15.07h295.95c20.03,0,36.42-16.79,36.42-37.3V83.45c0-10.86-4.67-20.58-11.96-27.41
			C410.47,62.27,413.28,69.92,413.28,78.27z"/>
		<polygon class="st3" points="128.96,327.4 301.73,327.4 307.4,346.89 332.11,346.89 341.22,316.58 125.71,316.58 		"/>
		<path class="st3" d="M381.44,64.8H85.49c-10.06,0-18.21,8.35-18.21,18.65v195.83c0,7.87,4.77,14.57,11.5,17.31
			c-0.61-1.87-1.02-3.83-1.02-5.91V94.85c0-10.3,8.15-18.65,18.21-18.65h295.95c2.38,0,4.63,0.5,6.71,1.35
			C396.21,70.16,389.47,64.8,381.44,64.8z"/>
		<g>
			<g>
				<path class="st6" d="M234.15,94.72c-17.57,0-34.45-3.45-50.23-9.71L86.5,246.23c44.23,26.74,94.43,41.86,147.64,41.86
					s103.42-15.12,147.64-41.86L284.38,85.01C268.6,91.28,251.71,94.72,234.15,94.72z"/>
			</g>
			<g class="st7">
				<g class="st8">
					<rect x="325.89" y="103.91" class="st9" width="0.76" height="170.59"/>
					<rect x="253.92" y="103.91" class="st9" width="0.76" height="170.59"/>
					<rect x="145.95" y="103.91" class="st9" width="0.76" height="170.59"/>
					<rect x="181.94" y="103.91" class="st9" width="0.76" height="170.59"/>
					<rect x="217.93" y="103.91" class="st9" width="0.76" height="170.59"/>
					<rect x="289.9" y="103.91" class="st9" width="0.76" height="170.59"/>
					<rect x="110.16" y="137.65" class="st9" width="252.31" height="0.76"/>
					<rect x="110.16" y="171.72" class="st9" width="252.31" height="0.76"/>
					<rect x="110.16" y="205.79" class="st9" width="252.31" height="0.76"/>
					<rect x="110.16" y="239.86" class="st9" width="252.31" height="0.76"/>
					<rect x="108.84" y="272.78" class="st9" width="254.95" height="3.05"/>
					<rect x="110.21" y="101.81" class="st9" width="256.06" height="3.05"/>
					<rect x="108.71" y="102.38" class="st9" width="3.05" height="173.41"/>
					<polygon class="st9" points="362.96,273.36 366.27,274.55 366.27,103.96 363.22,103.96 					"/>
				</g>
			</g>
			<g class="st10">
				<rect x="288.06" y="106.49" class="st11" width="33.74" height="2.5"/>
				<rect x="292.14" y="112.87" class="st11" width="29.66" height="2.5"/>
				<rect x="307.2" y="118.87" class="st11" width="14.61" height="2.5"/>
			</g>
		</g>
		<path class="st12" d="M121.08,69.36c-7.89,0-14.29,6.4-14.29,14.29v146.09c3.97,0.14,7.97,0.21,12,0.21
			c126.93,0,229.83-69.9,229.83-156.12c0-1.5-0.1-2.98-0.17-4.46H121.08z"/>
	</g>
	<rect x="26.55" y="358.43" class="st0" width="11.13" height="20.38"/>
	<g>
		<g>
			<path class="st13" d="M264.56,219.61c-0.11-0.09-0.23-0.16-0.36-0.22c-0.02-0.03-0.03-0.06-0.05-0.08c0.02,0,0.04,0,0.06,0
				c1.28,0.06,1.51-1.99,0.35-2.46c-6.49-2.61-12.74,4.47-16.17,9.9c-2.12,3.36-3.81,7.03-5.28,10.81
				c-0.02,0.06-0.04,0.12-0.06,0.17c-0.56,1.36-1.06,2.77-1.5,4.21c-0.01,0.02-0.01,0.04-0.02,0.06c0,0.01-0.01,0.02-0.01,0.03
				c-0.46,1.47-0.87,2.96-1.16,4.48c-0.2,1,0.03,2.03,0.62,2.7c0.8,1.38,2.32,1.31,3.74,1.8c1.12,0.39,2.24-0.38,2.61-1.61
				c1.73-5.8,3.91-11.28,6.75-16.5c0.92-1.71,1.9-3.39,3-4.96c1.38-1.05,2.76-2.08,4.16-3.1c1.19-0.87,3.33-2.19,3.35-4.03
				c0.07-0.07,0.13-0.16,0.19-0.24C264.97,220.27,264.81,219.8,264.56,219.61z"/>
			<path class="st14" d="M286.76,219.46c1.63-5.61,2.65-11.19,1.98-17.2c-0.73-6.57-3.85-12.68-7.65-18.07
				c-3.98-5.64-8.66-11.22-14.23-15.45c-1.23-0.93-2.54-1.79-4.02-2.33c-3.05-1.11-4.51,3.39-1.58,4.6l0,0
				c-0.31-0.12-0.18-0.06-0.01,0.02c-2.76,5.6-4.32,11.85-5.28,17.92c-1.1,6.97-0.93,14.16,0.89,20.99c0.91,3.44,2.3,6.77,4.12,9.86
				c1.53,2.61,3.36,4.88,5.12,7.36c1.78,2.5,3.72,5.01,6.33,6.73c2.28,1.51,5.58,1.99,7.7-0.01c1.86-1.75,2.96-4.28,3.91-6.56
				C285.12,224.78,285.99,222.12,286.76,219.46z"/>
			<g>
				<path class="st15" d="M281.94,228.01c-0.03-0.39-0.55-0.77-0.89-0.4c-2.89,3.21-7.73,3.77-11.83,4.29
					c-5.2,0.65-10.73-0.25-15.33-2.73c-2.02-1.1-3.33-2.46-4.22-4.55c-0.84-1.98-1.25-4.1-2.32-5.99c-0.94-1.66-2.35-2.91-3.94-3.94
					c5.33-2.15,9.92-5.46,13.25-10.3c3.48-5.07,4.19-11.02,5.83-16.78c0.57-1.99,1.14-4.05,2.04-5.92c0.5-1.06,1.22-2.65,2.52-2.92
					c0.77-0.16,0.88-1.39,0.05-1.56c-4.82-0.99-7.16,6.88-8.26,10.09c-1.96,5.7-3.32,11.01-7.28,15.62
					c-4.45,5.17-9.46,7.89-17.17,8.91c-3.97,0.53-7.82,1.43-11.8,1.71c-0.18,0.98-0.22,1.97-0.01,3.01
					c0.11,0.53,0.28,1.07,0.53,1.56c1.46-0.01,3.96-2.08,5.42-2.17c3.11-0.17,5.22-1.03,8.19,0.79c1.91,0.07,3.57,1.17,5.07,2.26
					c1.66,1.2,2.34,3.15,2.96,5c0.75,2.23,1.57,4.32,3.16,6.12c1.82,2.08,4.64,3.38,7.23,4.26c5.23,1.8,11.26,1.88,16.6,0.54
					c2.29-0.57,4.47-1.12,6.58-2.23C280.09,231.75,282.1,230.16,281.94,228.01z"/>
				<path class="st4" d="M263.34,206.51c-2.05-1.07-4.34-0.37-6.43,0.87c-0.21-4.46-3.51-8.95-4.4-13.24
					c-1.2-5.79,2.96-12.06,7.99-16.02c0.22-0.18-0.04-0.49-0.33-0.36c-3.06,1.31-5.16,3.79-6.79,6.14
					c-1.86,2.69-3.29,5.64-3.87,8.67c-1.17,6.14,5.17,12.24,2.17,18.22c-0.15,0.28-0.16,0.96-0.2,1.01
					c-4.11,3.8-7.48,7.49-13.09,9.85c-4.7,1.98-7.15,0.9-13.63-0.81c0,1.3-3.34-0.99-2.16,0c0.47,0.4,5.8,4.93,6.48,5.11
					c5.26,1.42,8.85,0.92,13.63-1.64c5.32-2.86,8.33-7.23,12.15-11.17c1.32-1.37,2.67-2.78,4.26-3.96c0.9-0.66,2.21-1.67,3.56-1.49
					C263.49,207.81,264.07,206.89,263.34,206.51z"/>
				<g>
					<path class="st15" d="M289.13,214.61c0.01-0.01,0.02-0.01,0.03-0.02C289.21,214.56,289.2,214.55,289.13,214.61z"/>
				</g>
			</g>
			<path class="st16" d="M281.11,148.14c-8.52-3.04-18.67-3.91-26.11,1.88c-8.01,6.23-11.74,16.41-7.76,25.74
				c3.98,9.36,12.43,16.33,15.9,25.93c4.46,12.35-6.63,23.28-3.99,35.76c1.69,8.02,8.23,15.13,16.74,16.65
				c5.05,0.91,9.63,1.88,14.76,0.81c5.03-1.05,9.71-3.35,13.86-6.23c25.79-17.83,24.51-53.9,7.36-76.95
				c-1.3-1.75-2.69-3.42-4.17-5.01C302.9,161.6,291.51,151.86,281.11,148.14z"/>
			<path class="st17" d="M311.87,171.75c-1.3-1.75-2.69-3.42-4.17-5.01c-2.6-2.78-7.13-6.91-12.38-10.71
				c2.21,3.6,4.75,7.07,6.88,10.84c9.22,16.51,19.76,35.62,9.27,53.96c-6.23,11.13-21.68,13.57-32.62,8.08
				c-5.42-2.87-4.92-10.52-6.54-16.17c-1.63-4.85-4.94-8.9-8.51-12.24c-0.56-0.53-1.15-1.01-1.76-1.46
				c0.41,0.87,0.78,1.75,1.11,2.66c4.46,12.35-6.63,23.28-3.99,35.76c1.69,8.02,8.23,15.13,16.74,16.65
				c5.05,0.91,9.63,1.88,14.76,0.81c5.03-1.05,9.71-3.35,13.86-6.23C330.3,230.86,329.03,194.8,311.87,171.75z"/>
		</g>
		<g>
			<path class="st13" d="M204.72,219.57c0.12-0.09,0.23-0.16,0.36-0.22c0.02-0.03,0.03-0.05,0.05-0.09c-0.02,0-0.04,0-0.07,0
				c-1.28,0.07-1.51-1.99-0.35-2.46c6.48-2.63,12.75,4.44,16.19,9.86c2.13,3.35,3.83,7.01,5.31,10.79c0.02,0.06,0.05,0.12,0.06,0.17
				c0.57,1.36,1.07,2.77,1.51,4.21c0.01,0.02,0.01,0.04,0.02,0.06c0,0.01,0.01,0.02,0.01,0.03c0.47,1.47,0.87,2.96,1.17,4.48
				c0.2,1.01-0.02,2.03-0.61,2.71c-0.8,1.38-2.32,1.32-3.73,1.8c-1.13,0.4-2.25-0.36-2.61-1.6c-1.74-5.79-3.94-11.27-6.78-16.48
				c-0.93-1.7-1.91-3.38-3.01-4.95c-1.37-1.05-2.76-2.07-4.16-3.09c-1.19-0.87-3.33-2.18-3.36-4.02c-0.07-0.07-0.13-0.16-0.19-0.24
				C204.31,220.22,204.47,219.76,204.72,219.57z"/>
			<path class="st14" d="M182.51,219.47c-1.64-5.6-2.68-11.18-2.03-17.2c0.71-6.57,3.82-12.69,7.6-18.08
				c3.96-5.65,8.63-11.24,14.19-15.49c1.23-0.93,2.54-1.79,4.01-2.34c3.05-1.12,4.52,3.39,1.59,4.6l0,0
				c0.3-0.13,0.17-0.06,0.01,0.02c2.78,5.6,4.35,11.85,5.33,17.91c1.12,6.97,0.97,14.16-0.83,21c-0.9,3.44-2.29,6.77-4.09,9.86
				c-1.53,2.61-3.35,4.89-5.11,7.38c-1.76,2.51-3.69,5.01-6.31,6.76c-2.27,1.5-5.56,2-7.7,0c-1.86-1.74-2.97-4.27-3.92-6.54
				C184.16,224.78,183.29,222.13,182.51,219.47z"/>
			<g>
				<path class="st15" d="M184.04,228c0.02-0.39,0.55-0.77,0.88-0.39c2.9,3.2,7.75,3.74,11.84,4.25c5.2,0.64,10.74-0.27,15.31-2.77
					c2.03-1.1,3.32-2.47,4.2-4.56c0.84-1.99,1.24-4.1,2.31-6c0.92-1.67,2.34-2.92,3.92-3.95c-5.33-2.14-9.93-5.44-13.27-10.27
					c-3.5-5.06-4.22-11.01-5.88-16.76c-0.57-1.99-1.15-4.05-2.05-5.92c-0.5-1.05-1.23-2.64-2.53-2.91
					c-0.77-0.16-0.88-1.39-0.06-1.56c4.82-1,7.17,6.86,8.28,10.06c1.97,5.7,3.34,11,7.32,15.6c4.46,5.16,10.52,8.74,17.19,8.88
					c6.43,0.13,6.63-1.16,10.61-0.9c0.18,0.98,1.42,4.55,1.22,5.57c-0.11,0.54-0.28,1.07-0.53,1.56c-1.46-0.01-3.4-0.9-4.86-0.98
					c-3.11-0.17-4.17-1.03-8.76-0.36c-1.91,0.07-3.56,1.19-5.06,2.27c-1.66,1.2-2.32,3.15-2.94,5c-0.73,2.23-1.57,4.31-3.13,6.12
					c-1.83,2.1-4.64,3.39-7.23,4.28c-5.23,1.82-11.26,1.91-16.61,0.59c-2.29-0.57-4.47-1.11-6.58-2.22
					C185.9,231.73,183.88,230.15,184.04,228z"/>
				<path class="st4" d="M215.61,210.71c0.14,0.29,0.16,0.96,0.21,1.01c4.12,3.8,7.51,7.48,13.12,9.82
					c4.71,1.96,6.63,1.85,13.11-0.7c0,1.3,0.1,2.41-1.08,3.41c-0.47,0.4-3.77,1.34-4.32,1.7c-5.56-0.16-7.24,0.82-12.02-1.74
					c-5.33-2.85-8.35-7.21-12.18-11.14c-1.32-1.36-2.68-2.78-4.28-3.95c-0.9-0.66-2.21-1.66-3.56-1.48
					c-0.8,0.11-1.39-0.81-0.66-1.19c2.05-1.08,4.34-0.39,6.43,0.86c0.19-4.45,3.47-8.96,4.35-13.25c1.18-5.78-3-12.04-8.04-16
					c-0.23-0.18,0.03-0.49,0.33-0.37c3.07,1.3,5.18,3.78,6.81,6.13c1.86,2.69,3.3,5.63,3.9,8.66"/>
				<g>
					<path class="st15" d="M180.12,214.63c-0.01-0.01-0.02-0.01-0.03-0.02C180.04,214.58,180.05,214.58,180.12,214.63z"/>
				</g>
			</g>
			<path class="st16" d="M187.97,148.14c8.51-3.06,18.65-3.96,26.11,1.82c8.02,6.22,11.78,16.39,7.82,25.73
				c-3.96,9.36-12.38,16.35-15.83,25.97c-4.43,12.36,6.7,23.26,4.09,35.76c-1.68,8.01-8.2,15.14-16.7,16.69
				c-5.04,0.92-9.62,1.9-14.76,0.84c-5.03-1.04-9.71-3.33-13.87-6.19c-25.83-17.78-24.65-53.84-7.56-76.93
				c1.3-1.75,2.69-3.43,4.16-5.02C166.22,161.65,177.57,151.89,187.97,148.14z"/>
			<path class="st17" d="M157.27,171.83c1.3-1.75,2.69-3.43,4.16-5.02c2.6-2.79,7.11-6.94,12.36-10.73
				c-2.2,3.6-4.73,7.08-6.85,10.85c-9.18,16.54-19.67,35.66-9.13,53.98c6.26,11.12,21.71,13.51,32.63,7.99
				c5.42-2.88,4.9-10.52,6.5-16.18c1.62-4.86,4.92-8.91,8.48-12.26c0.56-0.52,1.15-1.01,1.76-1.46c-0.41,0.87-0.78,1.75-1.11,2.66
				c-4.43,12.36,6.7,23.26,4.09,35.76c-1.68,8.01-8.2,15.14-16.7,16.69c-5.04,0.92-9.62,1.9-14.76,0.84
				c-5.03-1.04-9.71-3.33-13.87-6.19C138.99,230.98,140.17,194.91,157.27,171.83z"/>
		</g>
	</g>
	<g>
		<path class="st6" d="M388.16,364.38c10.21-1.29,18.79,7.3,17.5,17.5c-0.88,6.95-6.49,12.57-13.45,13.45
			c-10.21,1.29-18.79-7.3-17.5-17.5C375.59,370.87,381.2,365.26,388.16,364.38z"/>
		<path class="st13" d="M388.67,368.29c7.63-0.96,14.05,5.45,13.08,13.08c-0.66,5.2-4.85,9.4-10.05,10.05
			c-7.63,0.96-14.05-5.45-13.08-13.08C379.27,373.14,383.47,368.94,388.67,368.29z"/>
	</g>
</g>
</svg>
