<?xml version="1.0" encoding="utf-8"?>
<!-- Generator: Adobe Illustrator 25.4.1, SVG Export Plug-In . SVG Version: 6.00 Build 0)  -->
<svg version="1.1" id="Layer_1" xmlns="http://www.w3.org/2000/svg" xmlns:xlink="http://www.w3.org/1999/xlink" x="0px" y="0px"
	 viewBox="0 0 500 500" style="enable-background:new 0 0 500 500;" xml:space="preserve">
<style type="text/css">
	.st0{fill:#228FB9;}
	.st1{fill:#FFFFFF;}
	.st2{fill:#D0E5F6;}
	.st3{fill:#EDEDEE;}
	.st4{fill:none;stroke:#EDEDEE;stroke-width:10;stroke-miterlimit:10;}
</style>
<g id="NEU">
	<path class="st0" d="M418.61,452.23c0,19.99-16.19,36.18-36.19,36.18H106.07c-19.99,0-36.18-16.2-36.18-36.18V62.37
		c0-19.99,16.19-36.18,36.18-36.18h276.34c19.99,0,36.19,16.19,36.19,36.18V452.23z"/>
	<path class="st1" d="M390.82,440.81c0,9.99-8.11,18.1-18.09,18.1H115.78c-9.99,0-18.1-8.11-18.1-18.1V90.96
		c0-9.99,8.11-18.09,18.1-18.09h256.95c9.99,0,18.09,8.1,18.09,18.09V440.81z"/>
	<path class="st2" d="M340.15,74.65c0,9.99-8.1,18.09-18.09,18.09H166.44c-9.99,0-18.09-8.1-18.09-18.09v-38.6
		c0-9.99,8.1-18.09,18.09-18.09h155.62c9.99,0,18.09,8.1,18.09,18.09V74.65z"/>
	<rect x="120.11" y="305.04" class="st3" width="105.11" height="15.98"/>
	<rect x="120.11" y="407.3" class="st3" width="105.11" height="15.98"/>
	<rect x="249.3" y="310.97" class="st4" width="111.88" height="106.52"/>
	<path class="st3" d="M304.93,53.42c0,10-8.1,18.1-18.09,18.1H204.4c-9.99,0-18.09-8.1-18.09-18.1V23.98c0-9.99,8.1-18.1,18.09-18.1
		h82.44c9.99,0,18.09,8.1,18.09,18.1V53.42z"/>
</g>
</svg>
