<svg id="Layer_1" data-name="Layer 1" xmlns="http://www.w3.org/2000/svg" viewBox="0 0 142.47 545.43"><defs><style>.cls-1{fill:#585856;}.cls-2{fill:#ededee;}.cls-3{fill:#318cc5;}.cls-4{fill:#fff;}.cls-5{fill:#d0e5f6;}</style></defs><g id="градусник"><path class="cls-1" d="M275.68,457.32v80.14c0,6.37-6.21,11.54-13.88,11.54h-.28c-7.67,0-13.89-5.17-13.89-11.55V457.32c0-6.38,6.22-11.55,13.89-11.55h.28C269.47,445.77,275.68,450.94,275.68,457.32Z" transform="translate(-190.51 -3.57)"/><path class="cls-2" d="M190.55,47.23,214.42,323a4.94,4.94,0,0,0,4.93,4.52h.09a5,5,0,0,1,4.89,4.19l23.42,149.67h28l23.42-149.67a5,5,0,0,1,4.89-4.19h.09a5,5,0,0,0,4.94-4.52L332.94,47.23C334.11,23.38,310.65,3.57,282,3.57H241.48C212.84,3.57,189.38,23.38,190.55,47.23Z" transform="translate(-190.51 -3.57)"/><path class="cls-3" d="M190.55,47.23,214.42,323a4.94,4.94,0,0,0,4.93,4.52h.09a4.93,4.93,0,0,1,3.61,1.59h77.4a4.91,4.91,0,0,1,3.6-1.59h.09a5,5,0,0,0,4.94-4.52L332.94,47.23C334.11,23.38,310.65,3.57,282,3.57H241.48C212.84,3.57,189.38,23.38,190.55,47.23Z" transform="translate(-190.51 -3.57)"/><path class="cls-4" d="M261.75,33.7A40.76,40.76,0,1,1,221,74.46,40.75,40.75,0,0,1,261.75,33.7Z" transform="translate(-190.51 -3.57)"/><circle class="cls-5" cx="261.75" cy="74.46" r="30.47" transform="translate(-166.5 203.32) rotate(-45)"/><path class="cls-1" d="M294.94,145.89v129c0,5-4.55,9.1-10.17,9.1H238.55c-5.62,0-10.18-4.08-10.18-9.11v-129c0-5,4.56-9.1,10.18-9.11h46.22C290.39,136.78,294.94,140.86,294.94,145.89Z" transform="translate(-190.51 -3.57)"/><path class="cls-2" d="M288.81,151.58V269.2a8.29,8.29,0,0,1-8.3,8.3H242.8a8.31,8.31,0,0,1-8.3-8.3V151.58a8.31,8.31,0,0,1,8.3-8.3h37.71A8.29,8.29,0,0,1,288.81,151.58Z" transform="translate(-190.51 -3.57)"/><path class="cls-1" d="M247.14,250v9.35a1.25,1.25,0,0,1-.85,1.18l-3,1a1.25,1.25,0,0,1-1.64-1.19V249a1.24,1.24,0,0,1,1.64-1.18l3,1A1.25,1.25,0,0,1,247.14,250Z" transform="translate(-190.51 -3.57)"/><path class="cls-1" d="M247.14,222.76v9.36a1.25,1.25,0,0,1-.85,1.18l-3,1a1.25,1.25,0,0,1-1.64-1.19V221.77a1.25,1.25,0,0,1,1.64-1.19l3,1A1.25,1.25,0,0,1,247.14,222.76Z" transform="translate(-190.51 -3.57)"/><path class="cls-1" d="M265.51,250v9.36a1.25,1.25,0,0,1-.85,1.18l-3,1a1.25,1.25,0,0,1-1.64-1.19V249a1.24,1.24,0,0,1,1.64-1.18l3,1A1.25,1.25,0,0,1,265.51,250Z" transform="translate(-190.51 -3.57)"/><path class="cls-1" d="M248.39,247.3l9.35,0a1.23,1.23,0,0,0,1.18-.86l1-3a1.25,1.25,0,0,0-1.19-1.65l-11.34,0a1.25,1.25,0,0,0-1.18,1.64l1,3A1.26,1.26,0,0,0,248.39,247.3Z" transform="translate(-190.51 -3.57)"/><path class="cls-1" d="M248.39,232.47l9.35,0a1.24,1.24,0,0,1,1.18.85l1,3a1.24,1.24,0,0,1-1.18,1.64l-11.35,0a1.25,1.25,0,0,1-1.18-1.65l1-3A1.25,1.25,0,0,1,248.39,232.47Z" transform="translate(-190.51 -3.57)"/><path class="cls-1" d="M249,222.56h11.7a1.57,1.57,0,0,0,1.48-.86l1.24-3c.33-.8-.43-1.64-1.49-1.64l-14.2,0c-1.06,0-1.81.84-1.47,1.65l1.25,3A1.57,1.57,0,0,0,249,222.56Z" transform="translate(-190.51 -3.57)"/><path class="cls-1" d="M268.89,222.61h11.84a1.58,1.58,0,0,0,1.49-.86l1.25-3c.34-.81-.42-1.64-1.5-1.63H267.61c-1.08,0-1.84.84-1.49,1.64l1.27,3A1.6,1.6,0,0,0,268.89,222.61Z" transform="translate(-190.51 -3.57)"/><path class="cls-1" d="M266.94,247.3l9.35,0a1.25,1.25,0,0,0,1.18-.85l1-3a1.23,1.23,0,0,0-1.18-1.63l-11.35,0a1.25,1.25,0,0,0-1.18,1.64l1,3A1.24,1.24,0,0,0,266.94,247.3Z" transform="translate(-190.51 -3.57)"/><path class="cls-1" d="M278.22,259.38V250a1.25,1.25,0,0,1,.85-1.19l3-1A1.25,1.25,0,0,1,283.7,249v11.34a1.25,1.25,0,0,1-1.64,1.19l-3-1A1.25,1.25,0,0,1,278.22,259.38Z" transform="translate(-190.51 -3.57)"/><path class="cls-1" d="M247.14,195.33v9.36a1.25,1.25,0,0,1-.85,1.18l-3,1a1.25,1.25,0,0,1-1.64-1.19V194.34a1.25,1.25,0,0,1,1.64-1.19l3,1A1.25,1.25,0,0,1,247.14,195.33Z" transform="translate(-190.51 -3.57)"/><path class="cls-1" d="M248.57,205l10.09,0a1.36,1.36,0,0,1,1.28.86l1.07,3a1.27,1.27,0,0,1-1.29,1.64l-12.24,0a1.27,1.27,0,0,1-1.27-1.65l1.08-3A1.35,1.35,0,0,1,248.57,205Z" transform="translate(-190.51 -3.57)"/><path class="cls-1" d="M248.57,195.13h10.09a1.33,1.33,0,0,0,1.27-.86l1.07-3a1.26,1.26,0,0,0-1.28-1.64l-12.24,0a1.27,1.27,0,0,0-1.27,1.65l1.08,3A1.34,1.34,0,0,0,248.57,195.13Z" transform="translate(-190.51 -3.57)"/><path class="cls-1" d="M266.1,205.08l10,0a1.33,1.33,0,0,1,1.27.86l1.06,3a1.26,1.26,0,0,1-1.27,1.64l-12.16,0a1.26,1.26,0,0,1-1.27-1.64l1.08-3A1.32,1.32,0,0,1,266.1,205.08Z" transform="translate(-190.51 -3.57)"/><path class="cls-1" d="M266.1,195.18l10,0a1.34,1.34,0,0,0,1.27-.86l1.06-3a1.27,1.27,0,0,0-1.28-1.64l-12.16,0a1.26,1.26,0,0,0-1.26,1.64l1.07,3A1.34,1.34,0,0,0,266.1,195.18Z" transform="translate(-190.51 -3.57)"/><path class="cls-1" d="M278.21,204.69v-9.36a1.25,1.25,0,0,1,.85-1.18l3-1a1.25,1.25,0,0,1,1.64,1.19v11.34a1.25,1.25,0,0,1-1.64,1.19l-3-1A1.26,1.26,0,0,1,278.21,204.69Z" transform="translate(-190.51 -3.57)"/><rect class="cls-1" x="89.96" y="208.27" width="3.23" height="3.23"/><path class="cls-1" d="M243.54,175.11v3.79a.51.51,0,0,1-.34.48l-1.22.4a.5.5,0,0,1-.66-.48v-4.6a.5.5,0,0,1,.66-.48l1.21.41A.5.5,0,0,1,243.54,175.11Z" transform="translate(-190.51 -3.57)"/><path class="cls-1" d="M244.12,179.44h4.09a.55.55,0,0,1,.52.35l.43,1.21a.52.52,0,0,1-.52.67h-5a.51.51,0,0,1-.52-.67l.44-1.21A.54.54,0,0,1,244.12,179.44Z" transform="translate(-190.51 -3.57)"/><path class="cls-1" d="M244.12,174.54h4.09a.55.55,0,0,0,.52-.35l.43-1.21a.52.52,0,0,0-.52-.67h-5a.51.51,0,0,0-.52.67l.44,1.21A.52.52,0,0,0,244.12,174.54Z" transform="translate(-190.51 -3.57)"/><path class="cls-1" d="M248.73,178.9v-3.79a.5.5,0,0,1,.35-.48l1.21-.41a.51.51,0,0,1,.66.48v4.6a.5.5,0,0,1-.66.48l-1.22-.4A.52.52,0,0,1,248.73,178.9Z" transform="translate(-190.51 -3.57)"/><path class="cls-1" d="M245.3,155.75v6.8a.9.9,0,0,1-.62.86l-2.17.73a.91.91,0,0,1-1.19-.87V155a.9.9,0,0,1,1.19-.86l2.17.72A.91.91,0,0,1,245.3,155.75Z" transform="translate(-190.51 -3.57)"/><path class="cls-1" d="M246.34,163.53h7.33a1,1,0,0,1,.93.62l.78,2.18a.92.92,0,0,1-.93,1.19l-8.9,0a.92.92,0,0,1-.93-1.19l.79-2.18A1,1,0,0,1,246.34,163.53Z" transform="translate(-190.51 -3.57)"/><path class="cls-1" d="M254.6,162.55v-6.79a.92.92,0,0,1,.62-.87l2.17-.72a.91.91,0,0,1,1.2.86v8.24a.91.91,0,0,1-1.19.87l-2.18-.73A.9.9,0,0,1,254.6,162.55Z" transform="translate(-190.51 -3.57)"/></g></svg>