<svg xmlns="http://www.w3.org/2000/svg" viewBox="0 0 469.13 463.72"><defs><style>.cls-1{isolation:isolate;}.cls-2{fill:#4e4f55;}.cls-3{fill:#3c3d43;}.cls-4{fill:#228fb9;}.cls-5{fill:#ededee;}.cls-6{fill:#0399ae;mix-blend-mode:multiply;}.cls-6,.cls-8{opacity:0.3;}.cls-7{fill:#e2e2e2;}.cls-8{fill:#010101;}.cls-9{fill:#2d2e2d;}.cls-10{fill:#585856;}</style></defs><g class="cls-1"><g id="Layer_1" data-name="Layer 1"><g id="тонометр"><path class="cls-2" d="M360.26,476.48H193.7c-22.33,0-40.49-21.8-40.49-48.6V303.67h13.5V427.88c0,17.87,12.11,32.4,27,32.4H360.26c14.63,0,27-9.27,27-20.25s-12.37-20.25-27-20.25H244.13c-22.71,0-40.49-14.67-40.49-33.42S221.42,353,244.13,353H360.26a26.88,26.88,0,0,0,27-26.71V303.67h13.5v22.58c0,23.65-18.17,42.9-40.5,42.9H244.13c-15.91,0-27,9.08-27,17.21s11.09,17.22,27,17.22H360.26c22.71,0,40.5,16,40.5,36.45S383,476.48,360.26,476.48Z" transform="translate(-10.36 -12.76)"/><rect class="cls-3" x="373.52" y="290.9" width="20.25" height="22.59"/><rect class="cls-3" x="139.47" y="290.9" width="20.25" height="32.07"/><rect class="cls-4" x="233.31" y="6.1" width="235.82" height="286.27"/><rect class="cls-5" x="233.31" width="235.82" height="12.19"/><rect class="cls-5" x="233.31" y="286.28" width="235.82" height="12.17"/><path class="cls-4" d="M310.57,311.22h-66.9V12.76h66.9c36.94,0,66.9,50.27,66.9,112.3v73.86C377.47,260.94,347.51,311.22,310.57,311.22Z" transform="translate(-10.36 -12.76)"/><path class="cls-5" d="M310.64,311.22h-67V300.39h67c33.2,0,60.21-46.13,60.21-102.8v-71.2c0-56.69-27-102.81-60.21-102.81h-67V12.76h67c37.93,0,68.75,51,68.75,113.63v71.2C379.39,260.25,348.57,311.22,310.64,311.22Z" transform="translate(-10.36 -12.76)"/><path class="cls-5" d="M65.76,358.05c-30.55,0-55.4-26.63-55.4-59.37V109.78c0-32.73,24.85-59.37,55.4-59.37H242c30.54,0,55.4,26.64,55.4,59.37v188.9c0,32.74-24.86,59.37-55.4,59.37Z" transform="translate(-10.36 -12.76)"/><rect class="cls-4" x="27.93" y="60.5" width="234.56" height="260.55" rx="19"/><path class="cls-6" d="M262.59,75.4c2,4.27,4.58,22.6,4.58,27.47V288.05c0,20.81-1.85,37.42-26.21,37.42L68.62,326C44.25,326,44,308.86,44,288.05V102.87c0-4.87,0-21.54,1.93-25.81-5.48,6.39-7.61,7.13-7.61,34.84V295.18c0,21.34-1.44,38.63,23.53,38.63l178.36-.33c38.56.33,32.67-15,32.67-38.3V111.9C274.4,83.94,268.71,80.26,262.59,75.4Z" transform="translate(-10.36 -12.76)"/><path class="cls-7" d="M224.77,270.5H83c-11.69,0-21.16-8.5-21.16-19v-127c0-10.47,9.47-19,21.16-19H224.77c11.69,0,21.17,8.48,21.17,19v127C245.94,262,236.46,270.5,224.77,270.5Z" transform="translate(-10.36 -12.76)"/><path class="cls-8" d="M67.07,257.17v-127c0-10.47,9.48-19,21.17-19H230a22.63,22.63,0,0,1,13.23,4.26,21.55,21.55,0,0,0-18.49-9.89H83c-11.69,0-21.16,8.48-21.16,19v127a18.09,18.09,0,0,0,7.94,14.68A17.16,17.16,0,0,1,67.07,257.17Z" transform="translate(-10.36 -12.76)"/><path class="cls-7" d="M110.06,298c0,9.35-7.08,16.91-15.78,16.91S78.49,307.31,78.49,298,85.55,281,94.28,281,110.06,288.62,110.06,298Z" transform="translate(-10.36 -12.76)"/><path class="cls-7" d="M143.38,314.87c-5.8,0-10.5-5.05-10.5-11.27V292.32c0-6.23,4.7-11.28,10.5-11.28h29.16v33.83Z" transform="translate(-10.36 -12.76)"/><path class="cls-7" d="M206.94,314.87H177.79V281h29.15c5.8,0,10.5,5,10.5,11.28V303.6C217.44,309.82,212.74,314.87,206.94,314.87Z" transform="translate(-10.36 -12.76)"/><rect class="cls-2" x="81.28" y="276.74" width="5.26" height="16.93"/><polygon class="cls-2" points="176.78 272.2 197.75 285.19 176.78 298.17 176.78 272.2"/><polygon class="cls-9" points="178.24 275.36 195.95 286.31 197.75 285.19 176.78 272.2 176.78 298.17 178.24 297.27 178.24 275.36"/><polygon class="cls-2" points="152.67 272.21 131.69 285.19 152.67 298.18 152.67 272.21"/><polygon class="cls-9" points="151.2 275.36 133.5 286.32 131.69 285.19 152.67 272.21 152.67 298.18 151.2 297.28 151.2 275.36"/><path class="cls-3" d="M115.19,227.58a5.69,5.69,0,0,0-4.64,2.46,5.73,5.73,0,0,0-4.64-2.46,6.12,6.12,0,0,0-5.9,6.31c0,6.31,10.54,12.8,10.54,12.8s10.51-6.57,10.51-12.8A6.09,6.09,0,0,0,115.19,227.58Z" transform="translate(-10.36 -12.76)"/><path class="cls-3" d="M109.53,203.48h0a1.07,1.07,0,0,1-1-.91l-4.73-25-4.36,15.74a1.09,1.09,0,0,1-1,.82H83.1v-2.3H97.55l5.37-19.33a1.05,1.05,0,0,1,1.08-.82,1.12,1.12,0,0,1,1,.92l4.59,24.28L113,180.75a1.11,1.11,0,0,1,1-.9h0a1.08,1.08,0,0,1,1,.87l2.59,11.11h26.24v2.3H116.86a1.07,1.07,0,0,1-1-.87l-1.72-7.32-3.53,16.66A1.1,1.1,0,0,1,109.53,203.48Z" transform="translate(-10.36 -12.76)"/><path class="cls-10" d="M163.24,130.16h-4l-6.33-6.22h16.7Zm.78,9V131l6.34-6.27V143Zm0,16.64v-8.89l6.34-3.11V162Z" transform="translate(-10.36 -12.76)"/><path class="cls-10" d="M172.65,162.79v-19l6.34,3.11v8.89Zm15.92-32.63H173.05l5.94-6.22h10.37l2.86,2.68Zm0,15.88h-8.74l-5.61-2.7,5.61-3.52h8.74l5.61,3.52Zm-14.35,16.75,5.61-6.22h8.74l7.23,6.22Zm15.14-23.68V131l3.64-3.54,2.8,2.72V143Z" transform="translate(-10.36 -12.76)"/><path class="cls-10" d="M198,143V130.16l2.75-2.72,3.59,3.54v8.13Zm2.75,16.31L198,156.57V143.75l6.34,3.11v8.89ZM214,130.16h-8.74l-3.59-3.54,2.75-2.68h10.37l2.85,2.68Zm.79,32.63H204.38l-2.75-2.68,3.59-3.54H214l3.64,3.54Zm0-23.68V131l3.64-3.54,2.8,2.72V143Zm3.64,20.18-3.64-3.54v-8.89l6.44-3.11v12.82Z" transform="translate(-10.36 -12.76)"/><path class="cls-10" d="M172.65,190.46V177.64l2.75-2.72,3.59,3.54v8.13Zm2.75,16.31-2.75-2.72V191.23l6.34,3.11v8.89Zm13.17-13.25h-8.74l-5.61-2.7,5.61-3.52h8.74l5.61,3.52Zm0-15.88h-8.74l-3.59-3.54,2.75-2.67h10.37l2.86,2.67Zm.79,32.63H179l-2.75-2.68,3.59-3.54h8.74l3.65,3.54Zm0-23.68v-8.13l3.64-3.54,2.8,2.72v12.82ZM193,206.77l-3.64-3.54v-8.89l6.44-3.11v12.82Z" transform="translate(-10.36 -12.76)"/><path class="cls-10" d="M198,190.46V177.64l2.75-2.72,3.59,3.54v8.13Zm2.75,16.31L198,204.05V191.23l6.34,3.11v8.89ZM214,177.64h-8.74l-3.59-3.54,2.75-2.67h10.37l2.85,2.67Zm.79,32.63H204.38l-2.75-2.68,3.59-3.54H214l3.64,3.54Zm0-23.68v-8.13l3.64-3.54,2.8,2.72v12.82Zm3.64,20.18-3.64-3.54v-8.89l6.44-3.11v12.82Z" transform="translate(-10.36 -12.76)"/><path class="cls-10" d="M172.65,237.94V225.12l2.75-2.72,3.59,3.54v8.13Zm2.75,16.32-2.75-2.73V238.71l6.34,3.11v8.89ZM188.57,241h-8.74l-5.61-2.7,5.61-3.52h8.74l5.61,3.52Zm0-15.88h-8.74l-3.59-3.54,2.75-2.67H195.8Zm.79,32.63H179l-2.75-2.68,3.59-3.54h8.74l3.65,3.54Zm3.64-3.49-3.64-3.55v-8.89l6.44-3.11v12.82Z" transform="translate(-10.36 -12.76)"/><path class="cls-10" d="M198,237.94V225.12l2.75-2.72,3.59,3.54v8.13Zm2.75,16.32L198,251.53V238.71l6.34,3.11v8.89ZM214,225.12h-8.74l-3.59-3.54,2.75-2.67h10.37l2.85,2.67Zm.79,32.63H204.38l-2.75-2.68,3.59-3.54H214l3.64,3.54Zm0-23.68v-8.13l3.64-3.54,2.8,2.72v12.82Zm3.64,20.19-3.64-3.55v-8.89l6.44-3.11v12.82Z" transform="translate(-10.36 -12.76)"/></g></g></g></svg>