<?xml version="1.0" encoding="utf-8"?>
<!-- Generator: Adobe Illustrator 25.4.1, SVG Export Plug-In . SVG Version: 6.00 Build 0)  -->
<svg version="1.1" id="Layer_1" xmlns="http://www.w3.org/2000/svg" xmlns:xlink="http://www.w3.org/1999/xlink" x="0px" y="0px"
	 viewBox="0 0 500 500" style="enable-background:new 0 0 500 500;" xml:space="preserve">
<style type="text/css">
	.st0{display:none;}
	.st1{display:inline;fill:#D0E5F6;}
	.st2{display:inline;}
	.st3{fill:#EDEDEE;}
	.st4{fill:#228FB9;}
	.st5{display:inline;fill:#EDEDEE;}
	.st6{display:inline;fill:#228FB9;}
	.st7{opacity:0.3;fill:#8384B5;}
	.st8{fill:#FFC646;}
	.st9{opacity:0.6;}
	.st10{fill:#FFFFFF;}
	.st11{opacity:0.3;}
	.st12{fill:#0399AE;}
</style>
<g id="run" class="st0">
	<g>
		<path class="st1" d="M147.8,113.61c0,0,26.56,25.3,67.01,23.05c40.44-2.25,50.35-28.22,50.35-28.22s45.07,47.99,75.28,60.19
			c30.21,12.2,105.63,41.73,133.83,48.01c28.21,6.27,24.32,28.93,9.19,48.7c-15.13,19.78-97.07,42.29-172.39,31.07
			c-40.87-6.09-82.36-11.17-122.43-10.02c-53.44,1.55-124.08-30.5-89.77-50.53C98.88,235.86,78.27,186.17,147.8,113.61z"/>
		<g class="st2">
			<path class="st3" d="M324.03,181.57c34.07,13.75,119.13,47.06,150.94,54.14c9.1,2.02,15.23,5.57,18.95,10.1
				c3.8-13.24-0.6-24.95-19.65-29.18c-28.2-6.28-103.62-35.81-133.83-48.01c-30.21-12.2-75.28-60.19-75.28-60.19
				s-3.45,9.02-14.56,16.89C267.57,142.02,299.97,171.86,324.03,181.57z"/>
			<path class="st4" d="M182.35,145.52c14.79-0.81,25.94-4.46,34.29-9c-0.61,0.04-1.21,0.1-1.83,0.14
				c-40.45,2.25-67.01-23.05-67.01-23.05c-6.92,7.23-12.92,14.21-18.16,20.96C142.69,140.96,160.76,146.73,182.35,145.52z"/>
		</g>
		<path class="st5" d="M107.62,169.78c-19.19,40.8-8.74,66.08-8.74,66.08c-34.31,20.03,36.32,52.08,89.77,50.53
			c4.88-0.14,9.78-0.18,14.69-0.15C192.74,234.04,156.66,190.24,107.62,169.78z"/>
		<g class="st2">
			<path class="st3" d="M215.53,150.07c32.15-1.79,51.07-19.99,59.81-31.29c-6.27-6.17-10.19-10.33-10.19-10.33
				s-9.92,25.97-50.35,28.22c-40.45,2.25-67.01-23.05-67.01-23.05c-3.35,3.5-6.43,6.93-9.37,10.32
				C143.12,128.09,172.56,152.46,215.53,150.07z"/>
		</g>
		<g class="st2">
			<path class="st4" d="M485.4,243.03c-15.13,19.78-97.07,42.29-172.39,31.07c-40.87-6.09-82.36-11.17-122.43-10.01
				c-35.05,1.01-77.5-12.43-92.88-27.45c-31.26,20.07,38.19,51.28,90.95,49.75c40.07-1.16,81.56,3.93,122.43,10.02
				c75.32,11.22,157.26-11.29,172.39-31.07c9.44-12.33,14.5-25.8,10.11-35.7C491.56,234.1,488.76,238.64,485.4,243.03z"/>
		</g>
		<path class="st6" d="M265.09,169.82c-2.07,1.74-5.15,1.47-6.89-0.6l0,0c-1.74-2.07-1.47-5.16,0.6-6.9l37.86-31.83
			c2.07-1.74,5.16-1.47,6.89,0.6l0,0c1.74,2.07,1.47,5.16-0.6,6.89L265.09,169.82z"/>
		<path class="st6" d="M296.55,184.97c-2.07,1.74-5.16,1.47-6.89-0.6l0,0c-1.74-2.07-1.47-5.16,0.6-6.89l32.23-27.1
			c2.07-1.73,5.16-1.46,6.89,0.6l0,0c1.74,2.07,1.48,5.16-0.6,6.89L296.55,184.97z"/>
		<path class="st6" d="M330.11,195.31c-2.07,1.74-5.15,1.47-6.89-0.6l0,0c-1.74-2.06-1.47-5.16,0.6-6.89l27.23-22.89
			c2.07-1.74,5.15-1.47,6.89,0.6l0,0c1.74,2.07,1.47,5.15-0.6,6.9L330.11,195.31z"/>
	</g>
	<g>
		<path class="st1" d="M59.64,166.9c0,0,27.14,24.66,67.52,21.48c40.38-3.19,49.68-29.39,49.68-29.39s46.19,46.92,76.67,58.41
			c30.48,11.49,106.58,39.26,134.92,44.87c28.34,5.61,24.99,28.36,10.33,48.48c-14.66,20.12-96.05,44.54-171.62,35.08
			c-41-5.13-82.6-9.24-122.63-7.15c-53.39,2.8-124.76-27.59-90.92-48.42C13.59,290.26-8.18,241.06,59.64,166.9z"/>
		<g class="st2">
			<path class="st3" d="M237.41,230.73c34.39,12.95,120.19,44.26,152.16,50.6c9.14,1.81,15.36,5.21,19.18,9.66
				c3.49-13.33-1.19-24.93-20.32-28.72c-28.34-5.62-104.43-33.38-134.92-44.87c-30.48-11.49-76.67-58.41-76.67-58.41
				s-3.24,9.1-14.16,17.22C180.03,192.51,213.13,221.58,237.41,230.73z"/>
			<path class="st4" d="M94.92,198c14.77-1.17,25.83-5.07,34.07-9.8c-0.61,0.05-1.21,0.13-1.83,0.18
				c-40.38,3.19-67.52-21.48-67.52-21.48c-6.76,7.38-12.58,14.5-17.67,21.37C55.17,194.36,73.37,199.71,94.92,198z"/>
		</g>
		<path class="st5" d="M20.78,223.99c-18.24,41.24-7.19,66.27-7.19,66.27c-33.84,20.82,37.53,51.22,90.92,48.42
			c4.87-0.25,9.77-0.41,14.68-0.49C107.37,286.24,70.28,243.3,20.78,223.99z"/>
		<g class="st2">
			<path class="st3" d="M128.2,201.77c32.1-2.54,50.6-21.18,59.07-32.69c-6.41-6.02-10.42-10.09-10.42-10.09s-9.31,26.2-49.68,29.39
				c-40.38,3.19-67.52-21.48-67.52-21.48c-3.27,3.57-6.27,7.07-9.13,10.52C55.29,181.48,85.3,205.16,128.2,201.77z"/>
		</g>
		<g class="st2">
			<path class="st4" d="M400.17,288.4c-14.66,20.12-96.05,44.54-171.62,35.08c-41-5.13-82.6-9.24-122.63-7.15
				c-35.02,1.83-77.77-10.61-93.5-25.27c-30.79,20.79,39.38,50.38,92.09,47.61c40.03-2.09,81.63,2.02,122.63,7.15
				c75.57,9.46,156.96-14.96,171.62-35.08c9.15-12.55,13.89-26.13,9.28-35.93C406.12,279.33,403.42,283.93,400.17,288.4z"/>
		</g>
		<path class="st6" d="M178.2,220.36c-2.02,1.79-5.12,1.59-6.9-0.44l0,0c-1.79-2.03-1.59-5.12,0.44-6.91l37.11-32.7
			c2.03-1.78,5.12-1.59,6.9,0.44l0,0c1.79,2.03,1.6,5.12-0.44,6.9L178.2,220.36z"/>
		<path class="st6" d="M210.01,234.76c-2.02,1.79-5.12,1.59-6.91-0.44l0,0c-1.78-2.03-1.59-5.12,0.44-6.91l31.59-27.84
			c2.03-1.78,5.12-1.59,6.9,0.44l0,0c1.79,2.02,1.59,5.12-0.44,6.9L210.01,234.76z"/>
		<path class="st6" d="M243.81,244.32c-2.03,1.78-5.12,1.59-6.91-0.44l0,0c-1.79-2.02-1.59-5.12,0.44-6.9l26.69-23.52
			c2.03-1.79,5.12-1.59,6.91,0.44l0,0c1.79,2.03,1.59,5.12-0.44,6.9L243.81,244.32z"/>
	</g>
</g>
<g id="мочушка">
	<polygon class="st3" points="396.65,484.16 115.7,484.16 93.12,87.43 419.23,87.43 	"/>
	<polygon class="st7" points="378.04,463.14 134.31,463.14 114.72,118.98 397.63,118.98 	"/>
	<polygon class="st8" points="125.19,302.95 134.31,463.14 378.04,463.14 387.16,302.95 	"/>
	<g class="st9">
		<polygon class="st8" points="387.12,303.65 387.16,302.95 125.19,302.95 125.23,303.65 		"/>
		<polygon class="st8" points="368.62,451.46 143.72,451.46 125.92,315.79 134.31,463.14 378.04,463.14 386.43,315.79 		"/>
	</g>
	<polygon class="st10" points="392.38,355.35 402.2,182.83 110.15,182.83 119.97,355.35 	"/>
	<polygon class="st7" points="418.06,108.02 419.23,87.43 93.12,87.43 94.29,108.02 	"/>
	<g>
		<path class="st4" d="M439.13,90.36H73.22c-0.3,0-0.54-0.24-0.54-0.54V10.18c0-0.3,0.24-0.54,0.54-0.54h365.9
			c0.3,0,0.54,0.24,0.54,0.54v79.64C439.67,90.12,439.42,90.36,439.13,90.36z"/>
		<g class="st11">
			<rect x="93.91" y="9.64" class="st12" width="19.61" height="80.73"/>
			<rect x="145.62" y="9.64" class="st12" width="19.62" height="80.73"/>
			<rect x="197.33" y="9.64" class="st12" width="19.62" height="80.73"/>
			<rect x="249.04" y="9.64" class="st12" width="19.61" height="80.73"/>
			<rect x="300.74" y="9.64" class="st12" width="19.61" height="80.73"/>
			<rect x="349.78" y="9.64" class="st12" width="19.61" height="80.73"/>
			<rect x="398.82" y="9.64" class="st12" width="19.61" height="80.73"/>
		</g>
	</g>
	<g>
		<rect x="193" y="216.82" class="st7" width="126.35" height="24.71"/>
		<rect x="165.5" y="271.73" class="st7" width="181.34" height="15.08"/>
		<rect x="165.5" y="305.38" class="st7" width="181.34" height="15.08"/>
	</g>
</g>
</svg>
