<svg id="Layer_1" data-name="Layer 1" xmlns="http://www.w3.org/2000/svg" viewBox="0 0 496.73 534.59"><defs><style>.cls-1{fill:#ededee;}.cls-2{fill:#228fb9;}.cls-3{fill:#fff;}.cls-4{fill:#ef4645;}.cls-5{fill:#d0e5f6;}.cls-6{fill:#3d3d3c;}.cls-7{fill:#585856;}</style></defs><g id="вага"><path class="cls-1" d="M429.25,550l-306.1-.8c-33.12-.08-60.71-24.84-63.28-56.78l-33-411.37C24,45.52,53,15.31,89.8,15.41l370.09.95c36.84.1,66,30.47,63.31,66l-31,411.2C489.84,525.47,462.37,550.09,429.25,550Z" transform="translate(-26.63 -15.41)"/><path class="cls-2" d="M405.66,510.44l-260.9-.67c-28.23-.07-51.75-21.18-53.94-48.4L62.66,110.74c-2.43-30.28,22.27-56,53.67-55.95l315.45.82c31.4.08,56.23,26,54,56.23L459.35,462.32C457.3,489.54,433.9,510.52,405.66,510.44Z" transform="translate(-26.63 -15.41)"/><rect class="cls-3" x="240.33" y="267.21" width="16.73" height="193.23"/><path class="cls-3" d="M371.86,117.71l-2.58,58.69-.78,17.77c-.34,7.65-6.2,13.57-13.34,13.57H195.8c-7.15,0-13.09-5.92-13.35-13.57l-.77-17.77-2.58-58.51c-.26-7,4.21-13.3,10.67-14.67,59.32-12.76,116.75-12.3,171.59-.09C367.73,104.59,372.12,110.79,371.86,117.71Z" transform="translate(-26.63 -15.41)"/><path class="cls-4" d="M369.28,146.68c-28.35-30.63-78.75-43.19-123.63-32.2l18.43,95.22,101-4.19Z" transform="translate(-26.63 -15.41)"/><path class="cls-5" d="M369.28,176.4l-.78,17.77c-.34,7.65-6.2,13.57-13.34,13.57H195.8c-7.15,0-13.09-5.92-13.35-13.57l-.77-17.77A121.35,121.35,0,0,1,210,150.79c2.16-1.46,4.39-2.82,6.63-4.1a118.12,118.12,0,0,1,55-15.58c1.2-.09,2.49-.09,3.87-.09s2.58,0,3.79.09a117.76,117.76,0,0,1,54.93,15.58,64.67,64.67,0,0,1,6.71,4.1A121.39,121.39,0,0,1,369.28,176.4Z" transform="translate(-26.63 -15.41)"/><path class="cls-2" d="M228.79,169c-2.23,1.23-4.46,2.61-6.61,4.08L210,150.75c2.15-1.38,4.38-2.77,6.61-4.07Z" transform="translate(-26.63 -15.41)"/><path class="cls-2" d="M340.93,150.75l-12.15,22.31c-2.23-1.47-4.39-2.85-6.69-4.08l12.15-22.3C336.55,148,338.78,149.28,340.93,150.75Z" transform="translate(-26.63 -15.41)"/><path class="cls-2" d="M279.32,131.13v25.81c-1.3-.08-2.53-.25-3.84-.25s-2.54.17-3.85.25V131.13c1.23-.08,2.54-.08,3.85-.08S278.09,131.05,279.32,131.13Z" transform="translate(-26.63 -15.41)"/><polygon class="cls-6" points="248.91 108.16 242.31 81.11 255.38 81.11 248.91 108.16"/><path class="cls-7" d="M355.16,212.3H195.8c-9.56,0-17.31-7.89-17.65-18l-3.35-76.21c-.35-9.41,5.59-17.54,14.12-19.35C247.38,86.18,306,86.15,362.24,98.68c8.42,1.93,14.26,10,13.92,19.21l-3.36,76.49C372.35,204.42,364.6,212.3,355.16,212.3ZM276.6,98.37a409.22,409.22,0,0,0-86,9.32c-4.3.91-7.41,5.22-7.23,10L186.75,194a9.26,9.26,0,0,0,9.05,9.24H355.16c4.83,0,8.81-4.06,9-9.24l3.35-76.45a9.61,9.61,0,0,0-7.11-9.92A386.9,386.9,0,0,0,276.6,98.37Z" transform="translate(-26.63 -15.41)"/></g></svg>