<?xml version="1.0" encoding="utf-8"?>
<!-- Generator: Adobe Illustrator 25.4.1, SVG Export Plug-In . SVG Version: 6.00 Build 0)  -->
<svg version="1.1" id="Layer_1" xmlns="http://www.w3.org/2000/svg" xmlns:xlink="http://www.w3.org/1999/xlink" x="0px" y="0px"
	 viewBox="0 0 500 500" style="enable-background:new 0 0 500 500;" xml:space="preserve">
<style type="text/css">
	.st0{fill:#D0E5F6;}
	.st1{fill:#338CCC;}
	.st2{fill:#C6E8ED;}
	.st3{fill:#93CBDC;}
	.st4{fill:#228FB9;}
	.st5{display:none;opacity:0.3;}
	.st6{display:inline;}
	.st7{fill:#BCBCBC;}
	.st8{fill:#84B4C1;}
	.st9{opacity:0.3;}
	.st10{fill:#6091B1;}
	.st11{fill:#1CA8C0;}
	.st12{fill:#382D33;}
	.st13{fill:#FFFFFF;}
	.st14{fill:#323031;}
</style>
<g id="beta1_00000042725028311213816490000008174157798416858809_">
	<g>
		<g>
			<g>
				<g>
					<path class="st0" d="M5.71,246.58c1.21,42.63,11.49,86.93,33.25,123.71c56.28,95.13,146.44,100,245.46,102.04
						c52.84,1.1,111.4-5.38,150.99-45.21c50.13-50.44,62.8-130,58.02-198.95c-3.05-44.03-14.23-85.22-40.11-121.08
						c-24.12-33.43-56.01-62.28-92.82-80.22C320.18,7.21,276.13,2.3,231.86,4.4c-40.82,1.94-81.78,9.02-118.38,28.46
						c-36.91,19.62-65.69,49.89-83.54,88.39C11.98,160.03,4.5,203.8,5.71,246.58z"/>
					<path class="st1" d="M283.82,473.64c-92.71-1.91-188.58-3.88-247.18-102.67c-26.03-43.89-32.6-91.84-33.52-124.34
						c-1.28-45.23,7.16-88.77,24.43-125.92c17.86-38.44,47.02-69.21,84.33-88.99c32.44-17.2,70.33-26.29,119.22-28.61
						c5.35-0.25,10.67-0.4,15.8-0.44c44-0.34,81.22,7.2,113.77,23.02c35.53,17.27,67.88,45.15,93.55,80.62
						c23.82,32.91,37.06,72.75,40.46,121.77c7.98,114.86-33.26,174.59-58.56,199.97c-30.58,30.69-74.56,45.2-138.42,45.69
						c0,0,0,0-0.01,0C293.27,473.77,288.59,473.74,283.82,473.64z M231.23,5.71c-48.51,2.31-86.06,11.31-118.16,28.32
						c-36.81,19.51-65.58,49.87-83.2,87.79C12.78,158.61,4.41,201.74,5.68,246.55c0.91,32.19,7.41,79.66,33.15,123.07
						c57.87,97.56,153.02,99.51,245.04,101.41c4.75,0.1,9.4,0.13,13.82,0.1c0,0,0.01,0,0.01,0c63.15-0.48,106.57-14.76,136.64-44.94
						c24.98-25.07,65.71-84.11,57.8-197.94c-3.37-48.51-16.45-87.89-39.97-120.4c-25.43-35.13-57.44-62.73-92.59-79.81
						c-32.2-15.65-69.05-23.1-112.66-22.76C241.83,5.31,236.55,5.46,231.23,5.71z"/>
				</g>
				<path class="st2" d="M4.41,246.59c1.21,42.63,11.52,86.93,33.33,123.71c56.43,95.13,146.83,99.99,246.11,102.03
					c52.98,1.1,111.69-5.39,151.39-45.22c50.27-50.44,62.97-130,58.18-198.96c-3.06-44.03-14.26-85.22-40.22-121.08
					c-24.19-33.43-56.15-62.28-93.07-80.21C319.72,7.21,275.55,2.3,231.17,4.41c-40.93,1.94-82,9.02-118.69,28.47
					C75.46,52.5,46.61,82.76,28.71,121.27C10.7,160.04,3.19,203.81,4.41,246.59z M90.52,206.24c3.42-8.11,9.39-14.9,14.65-21.81
					c5.28-6.93,9.1-13.76,10.61-22.06c-0.73-5.34-0.73-10.17,0.64-15.11c-0.19-5.46-0.47-10.92,0.33-16.34
					c1.44-9.65,7.43-18.05,10.62-27.15c2.71-7.72,4.97-15.68,9.85-22.34c5.45-7.44,13.76-10.92,22.28-13.28
					c4.94-1.37,9.97-2.38,14.85-4.02c6.2-2.08,11.23-5.69,15.76-10.41c6.53-6.8,11.7-14.66,19.48-20.14
					c9.27-6.53,21.47-8.52,32.49-8.95c12.17-0.49,24.35,1.74,36.21,4.25c9.17,1.94,18.25,4.4,27.5,5.86
					c7.53,1.19,15.13,1.87,22.72,2.61c17.35,1.71,35.28,3.31,51.44,10.45c9.42,4.16,16.85,10.59,22.05,18.71
					c11.11,11.08,19.46,25.3,30.02,36.77c13.19,14.32,26.87,28.26,33.42,47.19c4.03,11.67,5.02,24.58,7.11,36.71
					c2.29,13.31,4.75,26.59,7.44,39.82c2.01,9.88,2.46,19.9,0.52,29.82c-1.83,9.35-6.01,18.06-10.38,26.41
					c-5.36,10.25-11.25,19.71-13.94,31.13c-2.44,10.37-3.13,21.07-5.69,31.42c-4.85,19.68-19.76,34.95-37.85,42.67
					c-8.87,3.78-18.53,5.4-28.09,5.85c-10.71,0.51-21.07-1.71-31.71-2.04c-10.57-0.32-20.32,2.96-29.6,7.87
					c-9.66,5.12-18.22,11.89-29,14.44c-9.09,2.16-18.54,1.05-27.75,0.61c-5.05-0.24-10.09-0.18-15.12,0.33
					c-5.83,0.59-11.42,2.69-16.91,4.65c-8.85,3.16-17.64,5.92-27.01,3.55c-10.76-2.72-17.5-11.93-24.44-19.99
					c-3.94-4.58-8.07-8.59-13.33-11.54c-5.23-2.94-11.09-4.44-16.86-5.81c-9.62-2.29-18.89-4.77-26.9-10.94
					c-12.57-9.69-15.34-25.69-15.49-40.82c-0.11-10.38,1.25-20.72,0.67-31.1c-0.03-0.51-0.1-0.99-0.14-1.5
					c-0.14-1.31-0.28-2.63-0.41-3.95c-1.47-10.63-5.29-20.19-9.6-30.16C92.65,248.69,81.61,227.34,90.52,206.24z"/>
				<path class="st2" d="M28.71,121.27c17.9-38.51,46.75-68.77,83.77-88.39c22.84-12.1,47.37-19.41,72.5-23.67
					c-1.17,0.67-2.34,1.38-3.49,2.17c-6.17,4.28-11.63,9.47-16.98,14.75c-3.46,3.41-6.78,7.29-11.16,9.5
					c-4.45,2.26-9.23,3.32-14.13,3.95c-7.84,1.02-16.34,1.47-23.29,5.75c-7.22,4.45-12.19,11.7-16.26,19.08
					c-5.06,9.2-9.22,19.44-16.5,27.13c-6.87,7.26-15.01,13.2-22,20.36c-6.2,6.34-11.63,13.28-15.13,21.56
					c-4.05,9.57-4.11,19.47-3.99,29.7c0.15,12.58-0.42,24.79-3.86,36.95c-3.21,11.36-9.4,22.31-10.37,34.24
					c-1.86,22.77,14.33,41.32,15.22,63.59c0.74,18.57,0.21,37.97,11.74,53.57c6.28,8.48,14.26,15.24,22.09,22.14
					c4,3.53,8.02,7.14,11.39,11.32c3.48,4.3,5.85,8.93,8.39,13.82c7.91,15.18,19.15,26.57,35.36,32.08
					c11.28,3.83,22.49,4.7,34.31,4.61c12.98-0.09,25.35,0.92,37.79,4.98c19.34,6.29,37.6,16.5,58.52,15.11
					c12.42-0.82,24.55-4.53,36.74-6.9c13.66-2.66,26.37-3.09,40.1-0.77c10.15,1.72,20.74,3.91,31.02,1.94
					c11.17-2.14,20.01-8.62,28.77-15.66c9.52-7.65,18.9-14.81,29.24-21.26c8.07-5.04,15.61-11.05,21.52-18.64
					c6.46-8.29,10.93-17.55,15.13-27.18c4.83-11.06,9.41-22.27,13.14-33.78c3.69-11.38,6.75-23.05,8.19-34.97
					c0.74-6.17,1.19-12.4,0.95-18.62c-0.23-6.09-0.83-12.1-0.64-18.21c0.42-13.46,3.37-26.28,5.15-39.54
					c0.19-1.44,0.37-2.89,0.54-4.33c0.35,3.51,0.67,7.02,0.92,10.56c4.79,68.95-7.91,148.51-58.18,198.96
					c-39.69,39.83-98.41,46.31-151.39,45.22c-99.28-2.04-189.68-6.91-246.11-102.03C15.93,333.52,5.61,289.22,4.41,246.59
					C3.19,203.81,10.7,160.04,28.71,121.27z"/>
				<g>
					<g>
						<path class="st3" d="M85.55,271.96c-9.46,20.66-0.67,42.02,17.57,47.54c0,0-6.09,33.05,26.34,39.94
							c12.16,30.3,43.21,26.19,43.21,26.19s10.82,24.77,44.58,16.51c14.88,18.61,42.55,12.41,56.07-1.37
							c16.19,13.77,33.18,5.33,48.61-6.2c10.13-7.56,25.67,0.67,38.52-13.76c12.82-14.45,12.82-15.84,22.28-18.6
							c9.44-2.76,16.2-8.95,17.55-32.36c1.35-15.86,14.87-7.59,15.54-34.44c0.67-26.86-1.34-19.97,4.04-30.3
							c5.4-10.34,1.36-15.84-1.35-26.85c-2.7-11.05,6.1-26.18-7.43-41.32c-8.1-9.63-4.73-10.35-6.07-23.4
							c-1.37-13.12-6.75-13.12-12.84-19.31c-4.73-5.5-2.69-22.04-23.63-33.74c-11.49-5.5-11.49-6.87-17.56-13.08
							c-6.09-6.2-18.92-10.31-29.71-10.31c0,0-16.89-26.88-51.34-18.59c-27.68-13.12-52.68-10.37-66.17,7.55
							c-12.82-5.52-25,11.04-25,11.04c-22.96-6.23-37.84,10.31-43.9,24.07c-25.68-4.12-41.19,24.78-36.47,42.69
							c0,0-15.53,9.64-12.16,24.13c-16.9,13.75-9.47,37.18-6.08,44.75C70.03,249.26,74.75,258.9,85.55,271.96z"/>
						<path class="st4" d="M216.77,403.58c-4.4,1.02-8.64,1.54-12.63,1.54c-21.1,0-30.22-14.43-32.21-18.12
							c-0.68,0.05-1.71,0.11-3.03,0.11l0,0c-8.86,0-30.4-2.6-40.37-26.54c-29.08-6.6-27.53-34.16-26.83-40.16
							c-8.22-2.81-14.7-8.8-18.31-16.98c-4.16-9.43-3.91-20.79,0.66-31.27c-11.08-13.55-14.89-23.57-5.34-39.55
							c-2.15-5.1-11.45-30.12,6.11-45.15c-2.49-13.01,8.91-21.97,12.12-24.2c-2.12-9.46,0.83-21.25,7.66-30.33
							c7.43-9.89,18.07-14.7,29.5-13.2c5.75-12.4,17.79-25.3,34.93-25.3c3,0,6.11,0.4,9.25,1.18c2.14-2.67,10.31-12,20.07-12
							c1.71,0,3.38,0.29,5,0.87C211.33,74.35,223.06,69,237.32,69c10.24,0,21.26,2.73,32.75,8.12c4.33-1.01,8.61-1.52,12.73-1.52
							c23.66,0,36.74,16.78,39.14,20.18c11.47,0.17,23.98,4.62,29.95,10.69c1.03,1.05,1.88,1.96,2.65,2.78
							c3.68,3.93,5.2,5.56,14.62,10.07c15.22,8.51,18.73,19.74,21.06,27.17c0.91,2.92,1.7,5.44,2.86,6.79
							c1.51,1.54,2.97,2.67,4.39,3.77c4.15,3.23,7.74,6.03,8.82,16.33c0.4,3.89,0.39,6.71,0.38,8.97c-0.02,5.3-0.03,7.28,5.36,13.69
							c9.41,10.54,8.47,20.93,7.64,30.1c-0.39,4.28-0.75,8.33,0.09,11.78c0.58,2.35,1.21,4.41,1.81,6.4
							c2.18,7.15,3.91,12.8-0.58,21.39c-0.6,1.15-1.11,2.09-1.54,2.88c-2.23,4.11-2.23,4.11-2.21,11.33
							c0.01,3.25,0.03,8.17-0.15,15.5c-0.4,15.95-5.26,20.05-9.54,23.67c-3.05,2.58-5.47,4.61-6,10.82
							c-1.37,23.75-8.37,30.58-18.47,33.53c-7.72,2.26-8.76,3.44-16.81,12.68c-1.4,1.6-3,3.43-4.87,5.55
							c-7.85,8.82-16.72,9.54-24.53,10.18c-5.28,0.43-10.26,0.83-14.17,3.75c-8.46,6.33-19.67,13.58-31.27,13.58
							c-6.41,0-12.47-2.25-18.03-6.69c-8.08,7.77-19.91,12.56-31.16,12.56C234.96,415.06,224.7,413.05,216.77,403.58z
							 M274.14,399.76c5.4,4.59,11.06,6.83,17.28,6.83c10.86,0,21.61-6.99,29.76-13.08c4.5-3.35,9.83-3.79,15.48-4.25
							c7.7-0.62,15.67-1.27,22.84-9.33c1.87-2.11,3.46-3.94,4.86-5.53c8.12-9.31,9.59-10.98,18.02-13.45
							c9.31-2.72,15.34-8.88,16.63-31.22c0.63-7.33,3.82-10.03,6.92-12.64c4.05-3.42,8.25-6.96,8.61-21.72
							c0.18-7.29,0.16-12.19,0.15-15.43c-0.02-7.59-0.03-7.89,2.53-12.6c0.42-0.79,0.92-1.71,1.52-2.85
							c3.98-7.63,2.55-12.3,0.39-19.39c-0.59-1.93-1.26-4.12-1.86-6.54c-0.95-3.89-0.56-8.15-0.15-12.66
							c0.78-8.63,1.67-18.41-7.01-28.13c-6.03-7.18-6.02-9.94-6-15.43c0.01-2.2,0.02-4.93-0.37-8.68
							c-0.96-9.18-3.84-11.42-7.83-14.53c-1.41-1.1-3.01-2.34-4.7-4.06c-1.57-1.82-2.43-4.58-3.43-7.78
							c-2.33-7.45-5.53-17.67-19.78-25.64c-9.77-4.68-11.51-6.53-15.31-10.58c-0.76-0.81-1.6-1.71-2.61-2.74
							c-5.57-5.66-17.95-9.93-28.81-9.93h-0.7l-0.38-0.6c-0.12-0.2-12.59-19.58-37.4-19.58c-4.06,0-8.29,0.53-12.57,1.55l-0.43,0.11
							l-0.4-0.19c-11.29-5.35-22.08-8.06-32.07-8.06c-13.8,0-25.05,5.26-32.54,15.22l-0.6,0.8l-0.91-0.39
							c-1.58-0.68-3.24-1.02-4.92-1.02c-9.86,0-18.47,11.53-18.56,11.65l-0.52,0.7l-0.84-0.22c-3.2-0.87-6.37-1.31-9.41-1.31
							c-16.32,0-27.75,12.74-33,24.65l-0.4,0.91l-0.96-0.15c-10.82-1.75-20.97,2.67-28.04,12.07c-6.48,8.63-9.29,20.28-6.99,28.99
							l0.25,0.94l-0.82,0.51c-0.15,0.1-14.7,9.31-11.58,22.71l0.19,0.81l-0.63,0.52c-17.85,14.52-7.01,40.29-5.72,43.19l0.29,0.64
							l-0.36,0.6c-9.37,15.3-5.76,24.34,5.29,37.7l0.52,0.64l-0.34,0.76c-4.58,10-4.94,20.89-0.98,29.86
							c3.45,7.82,9.76,13.46,17.76,15.88l1.11,0.34l-0.21,1.15c-0.24,1.3-5.5,31.87,25.34,38.42l0.66,0.14l0.26,0.64
							c9.26,23.07,29.84,25.57,38.26,25.57c2.22,0,3.59-0.18,3.6-0.18l0.94-0.12l0.39,0.89c0.08,0.17,7.87,17.42,30.3,17.42
							c4.03,0,8.34-0.56,12.81-1.65l0.78-0.19l0.51,0.64c7.36,9.21,17.11,11.14,23.99,11.14c10.82,0,22.67-4.95,30.18-12.61
							l0.83-0.84L274.14,399.76z"/>
					</g>
				</g>
				<g>
					<g class="st5">
						<g class="st6">
							<path class="st7" d="M337.41,196.02c1.84-0.42,4.48-3.31,2.72-5.23c-0.11-0.11-0.32-0.7,0.01-0.5
								c1.43,0.91,1.91,2.4,1.38,4.07c-0.5,1.58-2.01,3.74-3.71,2.79C337.63,197.03,336.95,196.12,337.41,196.02z"/>
							<path class="st8" d="M337.71,197.35c-0.18-0.1-0.73-0.76-0.67-1.2c0.02-0.19,0.14-0.32,0.33-0.36
								c1.12-0.25,2.65-1.56,3.04-2.93c0.2-0.73,0.06-1.37-0.43-1.91c-0.11-0.11-0.3-0.52-0.2-0.76c0.07-0.18,0.26-0.25,0.48-0.11
								c1.51,0.96,2.04,2.54,1.47,4.34c-0.4,1.28-1.55,3.18-3.07,3.18h0C338.34,197.61,338.02,197.52,337.71,197.35z M340.82,192.99
								c-0.44,1.57-2.12,2.97-3.35,3.22c-0.02,0.15,0.31,0.64,0.44,0.72c0.25,0.14,0.5,0.21,0.75,0.21h0c1.14,0,2.22-1.48,2.66-2.86
								c0.45-1.43,0.11-2.69-0.93-3.55C340.91,191.37,341.06,192.15,340.82,192.99z"/>
						</g>
						<g class="st6">
							<path class="st7" d="M327,192.05c1.02-0.11,1.98-0.28,2.83-0.94c0.92-0.73,1.16-2.22,0.89-3.34
								c-0.09-0.39,0.36,0.03,0.42,0.13c0.73,1.3,0.81,2.94-0.01,4.21c-0.8,1.25-2.3,1.5-3.59,1.2
								C327.25,193.25,326.5,192.11,327,192.05z"/>
							<path class="st8" d="M327.5,193.55c-0.33-0.08-0.9-0.87-0.88-1.33c0.01-0.22,0.15-0.37,0.36-0.4c0.92-0.1,1.89-0.25,2.72-0.9
								c0.85-0.67,1.05-2.07,0.81-3.1c-0.01-0.05-0.05-0.22,0.04-0.35c0.05-0.07,0.13-0.11,0.21-0.11c0.24,0,0.52,0.34,0.56,0.41
								c0.82,1.47,0.81,3.18-0.02,4.47c-0.59,0.91-1.58,1.42-2.79,1.42C328.18,193.67,327.84,193.63,327.5,193.55z M329.96,191.3
								c-0.91,0.71-1.93,0.88-2.91,0.98c0.03,0.22,0.4,0.75,0.54,0.8c0.31,0.07,0.62,0.11,0.93,0.11c0.62,0,1.75-0.16,2.43-1.21
								c0.71-1.1,0.73-2.58,0.06-3.86C331.15,189.25,330.85,190.6,329.96,191.3z"/>
						</g>
						<g class="st6">
							<path class="st7" d="M344.77,188.39c0.28-0.91,1.12-1.55,1.45-2.49c0.52-1.5-0.59-2.84-1.24-4.12
								c-0.18-0.37,0.64,0.01,0.75,0.15c1.07,1.39,2.2,2.59,2.13,4.44c-0.05,1.27-0.76,2.6-1.98,2.85
								C345.56,189.29,344.64,188.83,344.77,188.39z"/>
							<path class="st8" d="M345.94,189.45c-0.32,0.06-0.92-0.2-1.2-0.52c-0.17-0.2-0.23-0.41-0.17-0.62
								c0.15-0.5,0.46-0.92,0.76-1.32c0.27-0.37,0.55-0.75,0.7-1.17c0.38-1.1-0.22-2.14-0.8-3.15c-0.15-0.26-0.3-0.52-0.43-0.78
								c-0.11-0.22-0.03-0.39,0.1-0.45c0.26-0.13,0.88,0.2,1.01,0.37c0.11,0.15,0.23,0.29,0.34,0.44c0.98,1.24,1.9,2.42,1.84,4.17
								c-0.05,1.27-0.7,2.42-1.62,2.88c0,0,0,0,0,0C346.29,189.35,346.12,189.41,345.94,189.45z M345.6,182.44
								c0.6,1.05,1.29,2.25,0.84,3.55c-0.17,0.49-0.47,0.9-0.76,1.29c-0.29,0.39-0.56,0.76-0.69,1.19
								c-0.01,0.05,0.03,0.11,0.07,0.16c0.21,0.24,0.65,0.4,0.77,0.37c0.15-0.03,0.29-0.08,0.43-0.15c0,0,0,0,0,0
								c0.79-0.39,1.34-1.4,1.39-2.5c0.06-1.57-0.77-2.62-1.73-3.84c-0.11-0.15-0.23-0.29-0.34-0.43c-0.04-0.04-0.16-0.1-0.27-0.15
								C345.4,182.09,345.5,182.26,345.6,182.44z"/>
						</g>
						<g class="st6">
							<path class="st7" d="M326.74,172.27c0.9-0.33,1.76-0.46,2.69-0.25c1.32,0.29,1.64,1.07,2.36,1.81
								c0.12,0.12-0.07,0.67-0.35,0.6c-1.44-0.33-2.04-1.38-3.83-1.2c-1.73,0.18-2.54,1.2-3.55,2.1c-0.25,0.23-0.45,0.01-0.41-0.2
								C323.9,173.94,325.27,172.81,326.74,172.27z"/>
							<path class="st8" d="M323.46,175.13c0.23-1.16,1.55-2.39,3.21-2.99c1.04-0.38,1.94-0.46,2.84-0.26
								c0.82,0.18,1.26,0.54,1.58,0.87c0.15,0.15,0.28,0.31,0.42,0.47c0.14,0.17,0.28,0.34,0.46,0.52c0,0,0,0,0,0
								c0.14,0.15,0.04,0.52-0.14,0.7c-0.12,0.12-0.29,0.17-0.44,0.13c-0.58-0.14-1.03-0.38-1.46-0.61
								c-0.65-0.35-1.26-0.69-2.29-0.58c-1.38,0.15-2.15,0.87-2.97,1.63c-0.15,0.14-0.3,0.28-0.45,0.42
								c-0.14,0.13-0.28,0.15-0.36,0.16c-0.11,0-0.22-0.04-0.29-0.11l0,0C323.47,175.38,323.44,175.25,323.46,175.13z
								 M329.37,172.16c-0.81-0.18-1.59-0.1-2.55,0.24c-1.53,0.55-2.76,1.68-2.97,2.75c-0.01,0.05,0.01,0.1,0.03,0.13
								c0.01-0.01,0.02-0.02,0.04-0.03c0.15-0.14,0.3-0.27,0.45-0.41c0.83-0.78,1.69-1.58,3.24-1.75c1.18-0.12,1.88,0.26,2.57,0.63
								c0.41,0.22,0.83,0.45,1.32,0.57c0.08-0.04,0.19-0.31,0.14-0.39c-0.17-0.17-0.32-0.35-0.46-0.52
								c-0.13-0.16-0.26-0.31-0.4-0.46C330.48,172.64,330.09,172.32,329.37,172.16z"/>
						</g>
						<g class="st6">
							<path class="st7" d="M322.83,164.27c1.5-0.27,2.32,0.94,2.64,2.03c0.05,0.15-0.21,0.81-0.43,0.61
								c-0.84-0.76-1.43-1.6-2.84-1.27c-0.57,0.13-1.1,0.48-1.58,0.78c-0.32,0.2-0.64,0.51-1.04,0.44c-0.3-0.05,0.05-0.69,0.13-0.79
								C320.39,165.21,321.72,164.47,322.83,164.27z"/>
							<path class="st8" d="M319.59,165.99c0.68-0.87,2.03-1.66,3.23-1.87c0.92-0.16,1.7,0.17,2.27,0.96
								c0.23,0.33,0.43,0.73,0.55,1.16c0.05,0.17-0.12,0.67-0.36,0.81c-0.12,0.07-0.26,0.06-0.36-0.03
								c-0.12-0.11-0.23-0.21-0.34-0.32c-0.69-0.66-1.23-1.18-2.34-0.92c-0.51,0.12-1.01,0.44-1.46,0.72l-0.06,0.04
								c-0.06,0.04-0.13,0.08-0.19,0.13c-0.27,0.19-0.58,0.4-0.98,0.34c-0.08-0.01-0.15-0.05-0.19-0.11l0,0
								C319.15,166.62,319.58,166,319.59,165.99z M325.31,166.35c-0.12-0.41-0.3-0.78-0.52-1.09c-0.5-0.7-1.15-0.98-1.94-0.84
								c-1.11,0.2-2.37,0.93-3,1.74c-0.09,0.11-0.25,0.47-0.22,0.56c0.25,0.04,0.47-0.12,0.7-0.28c0.07-0.05,0.14-0.09,0.2-0.14
								l0.06-0.04c0.47-0.3,1-0.63,1.57-0.76c1.3-0.3,1.96,0.33,2.66,0.99c0.1,0.1,0.2,0.19,0.31,0.29
								C325.22,166.7,325.33,166.43,325.31,166.35z"/>
						</g>
						<g class="st6">
							<path class="st7" d="M308.54,172.43c0.63-0.22,1.21-0.34,1.82-0.31c0.73,0.04,0.66,0.48,1.09,0.77
								c0.14,0.1,0.07,0.73-0.24,0.69c-0.4-0.06-0.53-0.33-0.99-0.34c-0.53-0.02-1.23,0.21-1.74,0.41
								c-0.61,0.24-1.08,0.58-1.53,1.01c-0.3,0.29-0.6,0.64-1.05,0.65c-0.38,0.01-0.23-0.63-0.1-0.82
								C306.39,173.65,307.42,172.82,308.54,172.43z"/>
							<path class="st8" d="M305.66,174.46c0.65-0.94,1.74-1.77,2.85-2.14c0.73-0.25,1.32-0.35,1.91-0.32
								c0.19,0.01,0.34,0.04,0.46,0.1c0.2,0.09,0.3,0.23,0.4,0.37c0.08,0.11,0.17,0.23,0.31,0.32c0.16,0.11,0.14,0.55-0.04,0.77
								c-0.1,0.12-0.25,0.19-0.41,0.16c-0.17-0.03-0.32-0.1-0.47-0.18c-0.15-0.09-0.31-0.15-0.49-0.16
								c-0.49-0.01-1.17,0.21-1.65,0.39c-0.53,0.21-0.97,0.5-1.45,0.96l-0.11,0.1c-0.27,0.27-0.61,0.6-1.11,0.62
								c-0.07,0-0.13-0.01-0.19-0.03l0,0C305.34,175.25,305.53,174.64,305.66,174.46z M310.91,173.3c0.12,0.07,0.26,0.12,0.35,0.16
								c0.08-0.06,0.13-0.39,0.07-0.45c-0.17-0.11-0.27-0.25-0.35-0.37c-0.15-0.2-0.3-0.36-0.66-0.38
								c-0.54-0.03-1.07,0.06-1.74,0.29c-1.02,0.35-2.02,1.1-2.62,1.98c-0.1,0.14-0.19,0.57-0.05,0.64c0.01,0,0.02,0.01,0.03,0.01
								c0.29-0.01,0.49-0.19,0.79-0.48l0.11-0.11c0.51-0.49,1.02-0.83,1.61-1.06c0.52-0.2,1.27-0.44,1.83-0.43
								c0.22,0.01,0.38,0.07,0.47,0.11C310.8,173.24,310.86,173.27,310.91,173.3z"/>
						</g>
						<g class="st6">
							<path class="st7" d="M326.83,200.95c-0.05-0.13,0.34-0.36,0.47-0.29c0.73,0.38,1.23,0.96,2.01,1.27
								c1.44,0.58,3.13-0.38,4.21-1.08c0.49-0.32,1.05-0.16,0.5,0.31C332.02,202.88,327.86,203.89,326.83,200.95z"/>
							<path class="st8" d="M334.15,201.25c-1.25,1.08-3.47,1.99-5.28,1.62c-1.08-0.22-1.84-0.87-2.2-1.89l-0.01-0.06
								c0-0.16,0.21-0.3,0.34-0.36c0.16-0.07,0.3-0.08,0.39-0.03c0.33,0.17,0.61,0.38,0.89,0.59c0.35,0.26,0.69,0.51,1.1,0.67
								c1.32,0.53,2.94-0.35,4.04-1.06c0.27-0.18,0.6-0.24,0.8-0.16c0.12,0.05,0.19,0.14,0.19,0.25l0,0
								C334.42,200.95,334.33,201.09,334.15,201.25z M328.95,202.61c1.67,0.34,3.8-0.55,4.96-1.55c0.17-0.15,0.18-0.23,0.18-0.23
								l0,0c-0.03-0.02-0.23-0.03-0.46,0.13c-1.17,0.76-2.9,1.69-4.39,1.1c-0.46-0.18-0.82-0.45-1.18-0.72
								c-0.27-0.2-0.54-0.4-0.82-0.55c-0.07,0-0.23,0.1-0.25,0.13C327.31,201.84,327.97,202.41,328.95,202.61z"/>
						</g>
						<g class="st6">
							<path class="st7" d="M303.52,182.66c0.28-0.07,0.81,0.38,0.56,0.51c-1.35,0.73-2.34,1.42-2.68,2.58
								c-0.48,1.65,0.67,2.81,1.53,4.29c0.3,0.51-0.5,0.3-0.77,0.04C299.62,187.62,298.4,183.96,303.52,182.66z"/>
							<path class="st8" d="M301.95,190.17c-1.51-1.45-2.82-3.64-1.98-5.41c0.5-1.04,1.66-1.8,3.44-2.26
								c0.05-0.01,0.11-0.02,0.16-0.02c0.35,0,0.67,0.25,0.77,0.44c0.12,0.22-0.04,0.34-0.11,0.38c-1.37,0.74-2.28,1.41-2.59,2.48
								c-0.37,1.28,0.26,2.23,0.98,3.34c0.18,0.28,0.37,0.56,0.54,0.86c0.11,0.18,0.11,0.32,0.01,0.42
								c-0.08,0.07-0.2,0.11-0.35,0.11l0,0C302.5,190.52,302.12,190.34,301.95,190.17z M302.82,190.19v0.17V190.19
								C302.82,190.19,302.82,190.19,302.82,190.19z M303.61,182.82c-1.64,0.42-2.7,1.11-3.14,2.05c-0.79,1.66,0.47,3.73,1.91,5.13
								c0.08,0.08,0.24,0.15,0.35,0.18c-0.01-0.02-0.02-0.04-0.03-0.07c-0.17-0.29-0.35-0.57-0.53-0.84
								c-0.73-1.11-1.41-2.16-1.01-3.54c0.34-1.16,1.3-1.89,2.74-2.66C303.87,182.98,303.68,182.83,303.61,182.82z"/>
						</g>
						<g class="st6">
							<path class="st7" d="M312.94,202.19c2.33,0.56,5.94,0.24,6.62-2.76c0.08-0.39,0.71,0.53,0.71,0.74
								c0.15,3.8-4.59,4.73-7.04,3.1C313.05,203.15,312.37,202.06,312.94,202.19z"/>
							<path class="st8" d="M313.12,203.47c-0.18-0.12-0.71-0.88-0.6-1.26c0.05-0.2,0.22-0.3,0.47-0.24
								c0.6,0.14,1.26,0.22,1.89,0.22c1.15,0,3.89-0.27,4.47-2.8c0.04-0.2,0.18-0.28,0.3-0.28c0.35,0,0.84,0.79,0.85,1.06
								c0.04,1.03-0.27,1.95-0.9,2.66c-0.82,0.92-2.14,1.45-3.61,1.45c0,0,0,0,0,0C314.92,204.28,313.9,203.99,313.12,203.47z
								 M314.88,202.65c-0.63,0-1.29-0.07-1.92-0.21c0.07,0.21,0.3,0.56,0.39,0.63c0.71,0.47,1.65,0.74,2.64,0.74h0
								c1.34,0,2.57-0.49,3.3-1.31c0.55-0.62,0.81-1.4,0.78-2.31c-0.02-0.1-0.21-0.39-0.33-0.54
								C319.01,202.35,316.11,202.65,314.88,202.65z"/>
						</g>
						<g class="st6">
							<path class="st7" d="M342.45,204.28c1.05-0.57,2.04-0.97,2.9-1.87c1.1-1.16,1.81-3.14,0.89-4.62
								c-0.11-0.18-0.15-0.61,0.14-0.34c2.78,2.61,0.46,8.87-3.34,8.01C342.81,205.41,342.08,204.49,342.45,204.28z"/>
							<path class="st8" d="M343,205.69c-0.28-0.06-0.81-0.7-0.87-1.13c-0.03-0.22,0.05-0.39,0.22-0.48
								c0.21-0.11,0.41-0.22,0.61-0.32c0.81-0.42,1.57-0.81,2.23-1.51c1.06-1.12,1.7-2.96,0.86-4.33c-0.09-0.14-0.17-0.44-0.07-0.63
								c0.1-0.19,0.32-0.22,0.54-0.01c1.28,1.2,1.66,3.29,0.95,5.32c-0.67,1.93-2.14,3.18-3.73,3.18c0,0,0,0,0,0
								C343.5,205.77,343.25,205.74,343,205.69z M345.51,202.58c-0.72,0.75-1.51,1.16-2.35,1.59c-0.2,0.1-0.4,0.21-0.59,0.29
								c-0.03,0.16,0.37,0.7,0.52,0.76c0.22,0.05,0.44,0.07,0.66,0.07l0,0c1.41,0,2.71-1.13,3.32-2.87
								c0.56-1.61,0.38-3.25-0.43-4.35C347.27,199.59,346.6,201.44,345.51,202.58z"/>
						</g>
						<g class="st6">
							<path class="st7" d="M327.12,208.56c1.44,0.66,2.68,1.68,4.27,1.88c1.65,0.21,3.16-1.11,4.28-2.24
								c0.19-0.2,0.69,0.54,0.52,0.77c-1.25,1.67-2.62,2.84-4.68,2.68c-1.57-0.12-3.03-1.28-4.24-2.26
								C327.15,209.29,326.72,208.38,327.12,208.56z"/>
							<path class="st8" d="M331.5,211.89c-1.67-0.12-3.22-1.39-4.35-2.31c-0.13-0.1-0.49-0.75-0.39-1.06
								c0.06-0.19,0.23-0.27,0.45-0.17c0.46,0.21,0.91,0.46,1.34,0.71c0.94,0.53,1.83,1.03,2.88,1.16c1.56,0.2,3.02-1.08,4.11-2.18
								c0.06-0.06,0.14-0.1,0.23-0.1c0.25,0,0.49,0.29,0.61,0.56c0.11,0.25,0.11,0.48,0,0.63c-1.03,1.38-2.37,2.79-4.49,2.79
								C331.76,211.9,331.63,211.9,331.5,211.89z M331.37,210.67c-1.13-0.14-2.09-0.68-3.03-1.21c-0.36-0.2-0.73-0.41-1.11-0.6
								c0.06,0.14,0.14,0.29,0.18,0.34c1.09,0.89,2.57,2.1,4.12,2.21c2.13,0.16,3.48-1.23,4.49-2.58c0.02-0.1-0.14-0.36-0.23-0.43
								C334.64,209.57,333.07,210.89,331.37,210.67z"/>
						</g>
						<g class="st6">
							<path class="st7" d="M300.49,196.16c0.96,0.27,1.71,0.46,2.81,0.42c0.88-0.04,2.07-0.32,2.49-0.78
								c0.09-0.1,0.4,0.14,0.36,0.22c-0.71,1.44-4,1.24-5.61,0.49C300.4,196.45,300.05,196.04,300.49,196.16z"/>
							<path class="st8" d="M300.46,196.58c-0.13-0.06-0.39-0.31-0.31-0.44c0.05-0.08,0.21-0.11,0.41-0.05
								c0.95,0.27,1.68,0.45,2.74,0.41c0.86-0.04,1.98-0.3,2.37-0.73c0.04-0.04,0.11-0.07,0.19-0.07c0.12,0,0.23,0.06,0.29,0.11
								c0.03,0.02,0.19,0.15,0.15,0.25c-0.36,0.72-1.39,1.13-2.84,1.13h0C302.4,197.17,301.25,196.95,300.46,196.58z M303.32,196.66
								c-1.13,0.05-1.89-0.14-2.87-0.42c0.04,0.07,0.14,0.18,0.2,0.2c0.74,0.34,1.82,0.56,2.82,0.56h0c0.77,0,2.12-0.13,2.55-1
								c0-0.03-0.07-0.1-0.12-0.13C305.42,196.34,304.25,196.62,303.32,196.66z"/>
						</g>
						<g class="st6">
							<path class="st7" d="M307.58,204.14c0.2-0.38,0.42,0.55,0.43,0.65c0.16,1.47,0.43,2.68,1.28,3.66
								c0.9,1.03,2.24,0.81,3.49,0.57c0.26-0.05,0.4,0.75,0.17,0.94c-1.88,1.49-3.29,1.17-4.48-0.64
								C307.77,208.23,306.73,205.73,307.58,204.14z"/>
							<path class="st8" d="M308.32,209.47c-0.58-0.89-1.88-3.59-0.89-5.43c0.11-0.2,0.25-0.24,0.34-0.21
								c0.28,0.09,0.42,0.88,0.42,0.89c0.17,1.51,0.44,2.63,1.24,3.55c0.25,0.28,0.54,0.48,0.89,0.59c0.77,0.25,1.71,0.07,2.47-0.07
								c0.28-0.06,0.47,0.37,0.47,0.74c0,0.27-0.08,0.5-0.23,0.61c-1.11,0.88-2.08,1.17-2.95,0.88l0,0
								C309.44,210.8,308.87,210.3,308.32,209.47z M310.17,209.3c-0.4-0.13-0.73-0.35-1.01-0.68c-0.86-0.98-1.15-2.22-1.33-3.77
								c-0.02-0.1-0.09-0.37-0.16-0.51c-0.68,1.48,0.33,3.86,0.95,4.8c0.51,0.77,1.03,1.24,1.6,1.43l0,0
								c0.77,0.25,1.64-0.01,2.64-0.8c0.02-0.03,0.04-0.14,0.01-0.3c-0.03-0.15-0.08-0.23-0.09-0.23
								C311.99,209.39,311,209.57,310.17,209.3z"/>
						</g>
					</g>
					<g class="st9">
						<g>
							<path class="st10" d="M208.86,95.95c-18.08-4.79-42.05,9.72-48.78,26.39c-0.55,1.37,0.89,0.84,1.35,0.12
								c5.88-9.36,12.6-15.63,23.04-19.53c7.51-2.82,15.43-2.39,23.1-4.19C208.27,98.6,210.09,96.28,208.86,95.95z"/>
							<path class="st11" d="M160.28,124.42L160.28,124.42c-0.54,0-1.01-0.24-1.29-0.67c-0.34-0.5-0.36-1.13-0.06-1.88
								c6.15-15.23,25.62-28.1,42.53-28.1c2.7,0,5.29,0.33,7.73,0.97c0.83,0.23,1.35,0.92,1.33,1.78c-0.04,1.29-1.52,3.17-2.69,3.42
								c-3.16,0.74-6.4,1.11-9.53,1.47c-4.67,0.53-9.07,1.04-13.39,2.66c-9.6,3.57-16.3,9.27-22.43,19.02
								C162.05,123.77,161.16,124.42,160.28,124.42z M201.45,96.25c-10.44,0-21.93,5.18-30.26,12.79c3.75-3.09,7.93-5.43,12.84-7.26
								c4.6-1.73,9.36-2.28,13.98-2.81c3.06-0.35,6.23-0.72,9.27-1.43c0.08-0.06,0.31-0.33,0.49-0.6
								C205.78,96.49,203.66,96.25,201.45,96.25z"/>
						</g>
						<g>
							<path class="st10" d="M123.96,184.29c-10.78,3.92-17.74,17.38-14.17,28.45c0.42,1.4,3.02-1.84,2.92-2.79
								c-1.02-9.93,1.45-19,10.76-24.01C123.85,185.75,124.78,183.98,123.96,184.29z"/>
							<path class="st11" d="M110.18,214.31L110.18,214.31c-0.74,0-1.34-0.47-1.57-1.22c-3.7-11.47,3.41-25.77,14.93-29.97
								l0.58-0.11c0.66,0,1.21,0.43,1.35,1.07c0.24,1.01-0.75,2.6-1.45,2.96c-7.8,4.2-11.21,11.87-10.09,22.78
								c0.14,1.25-1.25,2.87-1.53,3.18C111.61,213.88,110.88,214.31,110.18,214.31z M113.21,195.21c-2.8,4.89-3.91,10.74-2.56,16.05
								c0.38-0.46,0.77-1.04,0.83-1.33C110.89,204.23,111.47,199.31,113.21,195.21z"/>
						</g>
						<g>
							<path class="st10" d="M202.17,161.5c-2.55,0.64-5.17-0.31-7.73-0.05c-2.62,0.26-5.22,1.86-7.3,3.34
								c-4.05,2.87-7.38,7.36-8.16,12.34c-0.41,2.31,2.48-0.33,2.78-1.26c1.61-5.11,4.9-8.35,9.78-10.41
								c3.23-1.36,6.93,0.12,9.98-1.74C201.93,163.48,203.43,161.19,202.17,161.5z"/>
							<path class="st11" d="M179.32,179.29L179.32,179.29c-0.48,0-0.91-0.19-1.21-0.55c-0.55-0.65-0.39-1.54-0.34-1.83
								c0.78-4.92,4.02-9.84,8.66-13.13c2.12-1.5,4.93-3.27,7.89-3.56c1.17-0.12,2.39-0.01,3.59,0.11c1.41,0.14,2.87,0.24,3.96-0.03
								l0.51-0.07c0.71,0,1.28,0.43,1.46,1.08c0.35,1.25-1.11,3.12-1.67,3.46c-1.93,1.18-3.98,1.21-5.96,1.24
								c-1.5,0.02-2.92,0.05-4.18,0.58c-4.76,2.01-7.64,5.07-9.08,9.64C182.61,177.25,180.73,179.29,179.32,179.29z M195.42,162.64
								c-0.28,0-0.56,0.01-0.85,0.04c-2.39,0.24-4.84,1.79-6.71,3.12c-0.86,0.61-1.67,1.28-2.42,2.01c1.55-1.39,3.42-2.55,5.62-3.47
								c1.71-0.72,3.43-0.75,5.1-0.78c1.5-0.02,2.92-0.05,4.17-0.6c-0.86-0.01-1.78-0.07-2.67-0.16
								C196.92,162.72,196.16,162.64,195.42,162.64z"/>
						</g>
						<g>
							<path class="st10" d="M114.16,269.08c-6.85-9.84-10.35-19.91-2.63-30.46c0.46-0.64,0.18-1.44-0.5-0.64
								c-3.64,4.29-6.33,8.28-6.85,13.98c-0.64,7.19,2.78,14.88,7.8,19.84C112.7,272.5,114.68,269.84,114.16,269.08z"/>
							<path class="st11" d="M112.27,273.15L112.27,273.15c-0.44,0-0.85-0.17-1.16-0.47c-5.59-5.53-8.79-13.71-8.16-20.83
								c0.54-5.84,3.12-9.94,7.13-14.67c0.44-0.51,0.93-0.77,1.44-0.77h0.76l0.53,0.79c0.32,0.62,0.21,1.46-0.28,2.14
								c-6.31,8.63-5.52,17.31,2.64,29.04c0.31,0.46,0.54,1.26-0.13,2.53C114.93,271.14,113.82,273.15,112.27,273.15z
								 M106.06,248.62c-0.32,1.09-0.54,2.23-0.65,3.45c-0.55,6.22,2.17,13.36,6.97,18.38c0.24-0.26,0.5-0.66,0.6-0.92
								C108.93,263.68,105.08,256.5,106.06,248.62z"/>
						</g>
						<g>
							<path class="st10" d="M178.04,262.2c-3.32-2.79-6.95-5.72-9.23-9.46c-2.88-4.75-0.29-9.55,2.14-13.71
								c0.66-1.12-0.4-1.13-0.97-0.34c-3.13,4.4-5.37,7.47-5.3,13.12c0.1,6.36,6.09,10.92,11.07,13.65
								C176.84,266.05,179.02,263.02,178.04,262.2z"/>
							<path class="st11" d="M176.05,266.77L176.05,266.77c-0.32,0-0.62-0.07-0.89-0.22c-7.58-4.14-11.63-9.23-11.71-14.72
								c-0.08-5.98,2.33-9.37,5.39-13.67c1.11-1.56,2.76-1.56,3.35-0.51c0.23,0.4,0.38,1.06-0.18,2c-2.61,4.45-4.57,8.45-2.15,12.44
								c2.03,3.34,5.25,6.03,8.36,8.63l0.62,0.52c0.33,0.27,1.04,1.09,0.49,2.62C178.89,265.05,177.56,266.77,176.05,266.77z
								 M166.31,247.95c-0.28,1.16-0.42,2.41-0.4,3.85c0.09,5.64,5.53,9.87,10.18,12.45c0.34-0.23,0.82-0.89,0.94-1.29l-0.4-0.34
								c-3.26-2.73-6.63-5.55-8.88-9.24C166.64,251.56,166.25,249.72,166.31,247.95z"/>
						</g>
						<g>
							<path class="st10" d="M235.97,247.46c-4.12-3.14-7.69-6.6-9.51-11.56c-1.15-3.22-0.59-6.61,0.72-9.62
								c0.6-1.45,0.84-2.36,0.53-3.86c-0.11-0.52-1.04,0.64-1.08,0.9c-0.31,2.64-2.45,4.87-3.09,7.52c-0.5,2.2-0.7,4.52-0.21,6.74
								c1.26,5.94,4.85,10.59,10.42,13.03C234.86,251.09,236.97,248.25,235.97,247.46z"/>
							<path class="st11" d="M234.01,251.9L234.01,251.9c-0.26,0-0.52-0.05-0.75-0.15c-5.83-2.55-9.79-7.49-11.15-13.91
								c-0.47-2.14-0.41-4.52,0.21-7.27c0.33-1.38,0.98-2.59,1.62-3.76c0.68-1.24,1.31-2.43,1.45-3.63
								c0.08-0.64,1.08-2.12,2.17-2.12h0.99l0.34,1.1c0.38,1.77,0.1,2.93-0.59,4.59c-0.96,2.21-1.86,5.49-0.7,8.73
								c1.82,4.95,5.62,8.34,9.1,10.99c0.72,0.57,0.93,1.51,0.57,2.54C236.88,250.23,235.51,251.9,234.01,251.9z M224.62,231.69
								c-0.42,2.13-0.45,3.98-0.09,5.63c1.18,5.55,4.55,9.83,9.51,12.08c0.32-0.18,0.78-0.77,0.92-1.16
								c-3.68-2.84-7.67-6.48-9.66-11.92C224.78,234.87,224.55,233.31,224.62,231.69z"/>
						</g>
						<g>
							<path class="st10" d="M243.73,181.71c-4.98-3.83-10.08-3.6-15.32-0.53c-2.95,1.69-6.05,4.43-6.07,8.07
								c-0.02,0.9,1.26-0.6,1.36-0.94c0.85-3.65,6.12-5.54,9.29-5.71c2.91-0.17,5.74,1.44,8.38,2.42
								C242.55,185.47,244.79,182.54,243.73,181.71z"/>
							<path class="st11" d="M222.5,190.77h-0.52l-0.46-0.4c-0.19-0.2-0.43-0.56-0.42-1.14c0.02-3.41,2.4-6.66,6.7-9.12
								c5.95-3.49,11.6-3.28,16.68,0.62c0.73,0.57,0.94,1.53,0.59,2.57c-0.43,1.26-1.87,3.01-3.44,3.01l0,0
								c-0.25,0-0.48-0.04-0.7-0.13c-0.63-0.23-1.27-0.5-1.92-0.78c-1.85-0.78-3.76-1.58-5.6-1.58l-0.35,0.01
								c-2.92,0.15-7.5,1.93-8.16,4.76C224.77,189.08,223.7,190.77,222.5,190.77z M233.41,181.36c2.34,0,4.48,0.9,6.55,1.77
								c0.62,0.26,1.23,0.51,1.83,0.74c0.15-0.11,0.79-0.9,0.95-1.36c-4.12-3.05-8.4-3.21-13.28-0.49c1.21-0.37,2.42-0.58,3.47-0.64
								C233.09,181.37,233.25,181.36,233.41,181.36z"/>
						</g>
						<g>
							<path class="st10" d="M248.65,131.61c-1.65-5.32-8.96-6.52-13.7-6.28c-4.96,0.23-9.6,2.86-12.76,6.59
								c-0.68,0.81-0.7,2.34,0.49,1.14c3.34-3.34,7.95-4.1,12.5-3.72c4.8,0.37,7.07,3.39,10.9,5.44
								C247.34,135.45,248.97,132.62,248.65,131.61z"/>
							<path class="st11" d="M246.49,136.11L246.49,136.11c-0.35,0-0.68-0.09-0.99-0.25c-1.29-0.69-2.38-1.46-3.44-2.21
								c-2.17-1.53-4.04-2.85-6.97-3.08c-0.67-0.05-1.33-0.09-1.98-0.09c-4.05,0-7.26,1.16-9.55,3.45
								c-0.34,0.34-0.87,0.81-1.57,0.81c-0.58,0-1.09-0.33-1.33-0.85c-0.4-0.87-0.01-2.04,0.59-2.76c3.58-4.23,8.55-6.79,13.65-7.03
								c0.39-0.02,0.79-0.03,1.21-0.03c2.7,0,11.67,0.52,13.73,7.18c0.35,1.1-0.29,2.52-0.93,3.4
								C248.19,135.59,247.34,136.11,246.49,136.11z M233.1,128.01c0.73,0,1.46,0.03,2.18,0.1c3.61,0.28,5.94,1.93,8.2,3.52
								c0.95,0.68,1.94,1.37,3.03,1.97c0.38-0.27,0.97-1.28,0.95-1.7c-1.22-3.94-6.67-5.37-11.36-5.37c-0.37,0-0.74,0.01-1.09,0.03
								c-2.38,0.11-4.77,0.84-6.96,2.08C229.59,128.22,231.28,128.01,233.1,128.01z"/>
						</g>
						<g>
							<path class="st10" d="M291.75,196.3c-0.76,0.07-2.5,2.29-1.36,2.54c9.46,2.08,14.58,12.82,15.3,21.73
								c0.15,1.72,2.55-1.1,2.66-1.88C309.73,209.04,303.08,195.19,291.75,196.3z"/>
							<path class="st11" d="M306.09,222.35L306.09,222.35c-0.74,0-1.53-0.52-1.62-1.68c-0.7-8.58-5.48-18.69-14.34-20.63
								c-0.85-0.18-1.39-0.89-1.34-1.76c0.07-1.22,1.55-3.08,2.85-3.2c4.71-0.46,9.04,1.41,12.43,5.33
								c4.18,4.82,6.4,12.25,5.5,18.46C309.43,219.84,307.65,222.35,306.09,222.35z M291.61,197.86
								c8.98,2.55,14.03,12.36,15.16,21.16c0.18-0.24,0.33-0.46,0.38-0.6c0.77-5.37-1.27-12.16-4.95-16.41
								c-1.95-2.25-5.46-4.97-10.33-4.49C291.84,197.56,291.73,197.7,291.61,197.86z"/>
						</g>
						<g>
							<path class="st10" d="M313.37,155.63c-0.59,0.09-1.96,2.13-1.04,2.27c9.92,1.11,14.38,9.49,17.86,17.78
								c0.48,1.12,2.27-1.46,2.24-2.12C331.8,163.53,324.05,154.1,313.37,155.63z"/>
							<path class="st11" d="M330.55,177.19L330.55,177.19c-0.66,0-1.21-0.39-1.49-1.03c-3.23-7.69-7.47-15.98-16.86-17.03
								c-0.86-0.13-1.4-0.77-1.4-1.59c-0.01-1.14,1.23-2.94,2.39-3.13c11.75-1.68,19.84,8.88,20.48,19.06
								c0.06,1.04-1,2.39-1.41,2.82C331.68,176.9,331.13,177.19,330.55,177.19z M313.73,156.85c9.38,1.64,13.82,9.56,17.14,17.24
								c0.17-0.25,0.31-0.5,0.35-0.65c-0.58-8.69-7.38-17.93-17.46-16.62C313.75,156.83,313.74,156.84,313.73,156.85z"/>
						</g>
						<g>
							<path class="st10" d="M355.72,124.53c-1.59-1.62-3.36-3.02-5.47-3.89c-2.54-1.02-5.67,0.04-8.26,0.04
								c-0.73,0-2.27,2.06-1.27,2.32c1.96,0.55,3.98,0.66,5.99,0.93c2.16,0.3,3.85,2.39,5.34,3.8c3.09,2.95,5.49,6.59,7.49,10.35
								c0.71,1.33,2.83-1.75,2.74-2.62C361.71,131,358.81,127.63,355.72,124.53z"/>
							<path class="st11" d="M360.02,139.65L360.02,139.65c-0.66,0-1.23-0.36-1.57-0.98c-2.27-4.26-4.64-7.54-7.26-10.04
								c-0.27-0.25-0.54-0.53-0.83-0.81c-1.15-1.15-2.46-2.47-3.83-2.66c-0.52-0.07-1.03-0.13-1.55-0.19
								c-1.5-0.17-3.06-0.35-4.6-0.78c-0.83-0.21-1.33-0.96-1.21-1.86c0.14-1.11,1.48-2.87,2.81-2.87c0.78,0,1.65-0.11,2.56-0.23
								c2.14-0.27,4.49-0.4,6.17,0.27c2.04,0.85,3.97,2.21,5.89,4.17c3,3.01,6.26,6.64,6.91,11.63c0.1,1.08-0.84,2.52-1.49,3.24
								C361.36,139.28,360.68,139.65,360.02,139.65z M342.03,122.05c1.05,0.22,2.11,0.34,3.23,0.47c0.54,0.06,1.08,0.12,1.61,0.19
								c2.21,0.3,3.89,2,5.25,3.36c0.27,0.27,0.52,0.53,0.77,0.76c2.67,2.55,5.08,5.82,7.37,9.98c0.36-0.43,0.75-1.07,0.79-1.36
								c-0.54-4.06-3.49-7.33-6.21-10.05c-1.7-1.73-3.35-2.91-5.07-3.62c-1.18-0.48-3.1-0.34-4.92-0.11
								c-0.89,0.11-1.8,0.23-2.68,0.25C342.13,121.95,342.08,122,342.03,122.05z"/>
						</g>
						<g>
							<path class="st10" d="M356.91,226.11c-0.75-0.4-2.15,1.54-1.52,2.11c10.34,9.36,6.64,26.41-2.03,35.23
								c-0.89,0.92-1.55,3.78,0.46,2.29C364.14,257.96,371.65,233.7,356.91,226.11z"/>
							<path class="st11" d="M352.91,267.4L352.91,267.4c-0.65,0-1.23-0.38-1.48-0.99c-0.49-1.15,0.29-3.03,1.04-3.82
								c5.04-5.13,8.15-13.01,7.95-20.1c-0.16-5.42-2.18-10.03-5.85-13.36c-0.58-0.52-0.72-1.35-0.38-2.23
								c0.39-1.01,1.4-2.08,2.5-2.08H357l0.5,0.2c5.21,2.68,8.26,7.53,8.81,14.02c0.83,9.75-4.43,22.17-11.74,27.68
								C353.95,267.19,353.42,267.4,352.91,267.4z M356.56,227.62c3.97,3.76,6.15,8.86,6.33,14.8c0.15,5.11-1.2,10.44-3.7,15.1
								c3.22-5.53,5.15-12.5,4.65-18.27c-0.32-3.83-1.84-8.95-7.17-11.87C356.66,227.45,356.61,227.54,356.56,227.62z"/>
						</g>
						<g>
							<path class="st10" d="M401.94,215.59c-0.5-0.77-1.93,1.14-1.67,1.8c1.76,4.26,3.86,8.35,5.23,12.73
								c2.4,7.59-2.34,14.21-6.3,20.19c-0.61,0.93-0.81,3.29,0.79,1.8c4.63-4.35,7.49-9.82,9.1-15.94
								C411.14,228.35,405.96,221.77,401.94,215.59z"/>
							<path class="st11" d="M399.14,253.82L399.14,253.82c-0.59,0-1.11-0.31-1.39-0.83c-0.55-1.03-0.08-2.6,0.41-3.35l0.53-0.8
								c3.8-5.73,7.74-11.65,5.62-18.33c-0.9-2.89-2.17-5.73-3.39-8.48c-0.61-1.37-1.22-2.75-1.8-4.15
								c-0.36-0.92,0.16-1.89,0.5-2.38c0.33-0.49,1.04-1.31,2-1.31c0.55,0,1.04,0.27,1.34,0.74l1.24,1.88
								c3.78,5.68,8.07,12.13,6.07,19.69c-1.77,6.74-4.95,12.3-9.45,16.52C400.44,253.36,399.86,253.82,399.14,253.82z
								 M401.52,217.2c0.53,1.26,1.09,2.54,1.66,3.81c1.25,2.8,2.55,5.71,3.49,8.73c2,6.33-0.55,11.93-3.67,16.97
								c2.17-3.11,3.8-6.75,4.89-10.87c1.72-6.5-2.07-12.19-5.73-17.69L401.52,217.2z"/>
						</g>
						<g>
							<path class="st10" d="M306.32,263.85c-0.4-1.01-2.36,1.43-2.12,2.32c1.18,4.02,1.5,8.28-0.34,12.17
								c-1.98,4.23-6.89,5.98-10.97,7.48c-0.74,0.28-2.92,3.49-1.56,3.37C303.57,288.07,310.96,274.9,306.32,263.85z"/>
							<path class="st11" d="M291.25,290.44c-0.8,0-1.43-0.51-1.57-1.28c-0.26-1.43,1.69-4.09,2.78-4.49
								c4.09-1.5,8.54-3.13,10.28-6.85c1.49-3.15,1.58-6.86,0.27-11.3c-0.29-1.1,0.51-2.31,0.88-2.78c0.48-0.62,1.23-1.36,2.12-1.36
								c0.65,0,1.21,0.39,1.46,1.02c2.38,5.66,1.86,12.28-1.38,17.7c-3.22,5.36-8.56,8.77-14.65,9.33L291.25,290.44z M301.51,283.03
								c-2.42,1.84-5.43,2.94-8.04,3.89c-0.19,0.12-0.48,0.46-0.75,0.84C296.09,287.13,299.13,285.48,301.51,283.03z M305.63,265.54
								c-0.12,0.19-0.21,0.38-0.23,0.5c0.69,2.29,1.01,4.48,0.98,6.56C306.63,270.21,306.38,267.81,305.63,265.54z"/>
						</g>
						<g>
							<path class="st10" d="M216.86,302.94c-9.54-1.51-23.14-1.02-23.53-13.95c-0.06-1.32-2.08,0.95-2.12,1.78
								c-0.65,13.36,12.69,17.02,23.81,15.6C215.98,306.22,218.38,303.2,216.86,302.94z"/>
							<path class="st11" d="M210.55,307.88L210.55,307.88c-7.18,0-13.11-2.07-16.71-5.85c-2.79-2.93-4.09-6.74-3.86-11.33
								c0.06-1.16,1.71-3.35,3.08-3.35c0.69,0,1.46,0.5,1.51,1.58c0.3,10.05,9.39,11.14,18.18,12.21c1.49,0.18,2.94,0.35,4.31,0.57
								c0.95,0.17,1.55,0.87,1.53,1.79c-0.01,1.5-1.97,3.86-3.38,4.08C213.64,307.79,212.09,307.88,210.55,307.88z M192.41,291.87
								c0.03,3.38,1.1,6.25,3.21,8.46c3.08,3.23,8.52,5.08,14.92,5.08l0,0c1.44,0,2.89-0.09,4.33-0.27
								c0.19-0.11,0.66-0.65,0.97-1.11c-1.09-0.16-2.23-0.29-3.4-0.43C204.29,302.61,194.31,301.4,192.41,291.87z"/>
						</g>
						<g>
							<path class="st10" d="M163.23,319.61c-7.03-7.05-17.54-16.39-11.26-27.33c0.57-1.04-0.37-1.09-0.9-0.33
								c-7.11,10.52-1.26,25.59,9.9,30.85C162.11,323.36,164.13,320.5,163.23,319.61z"/>
							<path class="st11" d="M161.29,324.1L161.29,324.1c-0.31,0-0.6-0.07-0.88-0.2c-6.16-2.9-10.97-8.72-12.86-15.58
								c-1.69-6.13-0.8-12.19,2.49-17.06c0.86-1.23,2.53-1.34,3.13-0.33c0.22,0.38,0.39,1.03-0.12,1.95
								c-5.44,9.49,2.99,17.86,9.76,24.58l1.29,1.29c0.65,0.65,0.76,1.65,0.31,2.75C163.88,322.78,162.63,324.1,161.29,324.1z
								 M149.19,302.38c0.01,1.73,0.26,3.5,0.75,5.28c1.68,6.11,5.93,11.3,11.38,13.93c0.34-0.2,0.82-0.88,0.9-1.26l-1.14-1.14
								C156.46,314.62,150.72,308.93,149.19,302.38z"/>
						</g>
						<g>
							<path class="st10" d="M170.48,352.5c-9.92,3.35-18.65,0.35-26.75-5.73c-7.92-5.93-10.85-13.57-11.13-23.17
								c-0.03-0.85-1.31,0.55-1.35,0.97c-1.49,11.16,0.91,18.96,9.2,26.79c8.14,7.66,19.2,10.55,29.01,4.67
								C170.16,355.61,172.31,351.88,170.48,352.5z"/>
							<path class="st11" d="M158.4,360.39c-6.54,0-13.22-2.89-18.79-8.13c-8.38-7.92-11.16-15.99-9.58-27.85
								c0.09-0.82,1.31-2.31,2.39-2.31c0.68,0,1.38,0.49,1.42,1.45c0.3,10.1,3.58,16.95,10.64,22.23c8.89,6.67,17.1,8.42,25.62,5.54
								c1.1-0.37,2.03,0.1,2.28,1.02c0.41,1.5-1.45,4.24-2.28,4.74C166.44,359.28,162.5,360.39,158.4,360.39z M132.03,330.11
								c-0.07,8.16,2.74,14.19,9.26,20.36c8.27,7.78,18.97,9.64,27.52,4.5c0.13-0.12,0.37-0.47,0.6-0.86
								c-8.74,2.5-17.36,0.45-26.43-6.35C137,343.28,133.44,337.58,132.03,330.11z"/>
						</g>
						<g>
							<path class="st10" d="M252.68,352.02c-7.27,2.81-13.82,3.92-21.28,1.13c-5.24-1.96-9.36-7.04-14.08-9.97
								c-0.74-0.46-2.28,1.69-1.59,2.22c5.07,3.83,9.42,10.62,15.74,12.5c7.29,2.2,13.6,0.91,20.24-2.57
								C252.5,354.93,254.26,351.42,252.68,352.02z"/>
							<path class="st11" d="M238.53,360.22L238.53,360.22c-2.46,0-4.89-0.37-7.42-1.13c-4.42-1.32-7.82-4.75-11.11-8.07
								c-1.71-1.72-3.32-3.35-5.01-4.63c-0.63-0.48-0.83-1.3-0.53-2.18c0.33-0.96,1.36-2.32,2.63-2.32h0.35l0.53,0.25
								c1.95,1.21,3.8,2.77,5.59,4.27c2.62,2.2,5.32,4.48,8.28,5.59c2.76,1.04,5.46,1.53,8.25,1.53c3.64,0,7.38-0.82,12.15-2.67
								c1.08-0.41,2.04,0.09,2.26,1.04c0.33,1.39-1.22,4.02-2.23,4.53C247.34,359.02,242.97,360.22,238.53,360.22z M216.91,344.76
								c1.67,1.33,3.28,2.95,4.84,4.53c3.07,3.1,6.25,6.3,10.07,7.44c2.3,0.69,4.5,1.03,6.71,1.03l0,0c4.02,0,8.03-1.12,12.61-3.52
								c0.09-0.07,0.22-0.26,0.35-0.48c-7.97,2.89-13.98,3-20.51,0.55c-3.36-1.26-6.23-3.68-9.01-6.01
								c-1.67-1.41-3.25-2.74-4.91-3.82C217.02,344.56,216.96,344.66,216.91,344.76z"/>
						</g>
						<g>
							<path class="st10" d="M251.48,379.31c-16.46,5.96-32.72,12.37-46.48-2.58c-0.6-0.64-2.47,1.75-1.8,2.55
								c12.8,16.03,31.12,11.49,47.33,3.19C251.27,382.1,253.04,378.74,251.48,379.31z"/>
							<path class="st11" d="M224.92,391.25C224.92,391.25,224.92,391.25,224.92,391.25c-9.12,0-16.75-3.76-22.68-11.19
								c-0.29-0.34-0.72-1.16-0.1-2.5c0.35-0.75,1.34-2.17,2.61-2.17c0.44,0,0.85,0.18,1.15,0.49c5.46,5.93,11.76,8.81,19.27,8.81
								c7.85,0,16.01-2.96,24.64-6.09l1.24-0.45c1.05-0.38,2,0.11,2.23,1.04c0.32,1.34-1.21,3.88-2.19,4.38
								C241.02,388.74,232.45,391.25,224.92,391.25z M204.33,378.71c10.2,12.56,24.52,13.48,45.64,2.67
								c0.05-0.04,0.12-0.15,0.21-0.29c-8.31,3.01-16.88,6.06-25.01,6.06c-7.99,0-14.71-2.95-20.52-9
								C204.52,378.34,204.39,378.55,204.33,378.71z"/>
						</g>
						<g>
							<path class="st10" d="M333.29,329.8c-3.19,9.55-11.1,12.17-20.21,13.78c-1.09,0.22-3.15,3.91-1.77,3.8
								c11.52-0.7,20.88-7.16,24-18.51C335.76,327.29,333.51,329.07,333.29,329.8z"/>
							<path class="st11" d="M311.26,348.62c-0.87,0-1.54-0.61-1.63-1.49c-0.15-1.5,1.65-4.45,3.21-4.75
								c9.81-1.74,16.45-4.51,19.28-12.97c0.27-0.89,1.84-2.4,3.01-2.4h0.61l0.55,0.57c0.32,0.43,0.39,0.98,0.2,1.64
								c-3.12,11.38-12.51,18.63-25.11,19.4L311.26,348.62z M326.72,340.32c-4.02,2.57-8.85,3.67-13.42,4.48
								c-0.18,0.12-0.58,0.71-0.88,1.26C318.06,345.5,322.94,343.5,326.72,340.32z"/>
						</g>
						<g>
							<path class="st10" d="M369.19,332.23c-0.74,13.93-17.13,15.77-27.71,18.42c-0.92,0.23-3.47,3.62-1.77,3.87
								c13.2,2.03,32.53-9.65,31.78-24.21C371.43,328.88,369.25,331.38,369.19,332.23z"/>
							<path class="st11" d="M342.82,355.99L342.82,355.99c-1.14,0-2.25-0.08-3.3-0.25c-0.93-0.14-1.57-0.83-1.62-1.75
								c-0.08-1.62,1.96-4.2,3.27-4.54c1.28-0.32,2.64-0.63,4.05-0.95c10.37-2.35,22.12-5.01,22.73-16.34
								c0.08-1.09,1.78-3.53,3.25-3.53c0.7,0,1.48,0.5,1.53,1.61c0.27,5.32-1.91,10.59-6.31,15.22
								C360.44,351.77,350.96,355.99,342.82,355.99z M340.56,353.4c7.8,0.89,17.96-3.19,24.07-9.62c0.11-0.12,0.22-0.24,0.33-0.36
								c-5.11,4.31-12.87,6.06-19.18,7.49c-1.39,0.32-2.74,0.62-4,0.94C341.52,352.01,340.88,352.8,340.56,353.4z"/>
						</g>
					</g>
				</g>
			</g>
		</g>
	</g>
	<g>
		<g>
			<g>
				<path class="st12" d="M118.77,167.02c4.13-7.48,9.27-14.44,15.08-20.86c5.83-6.4,12.46-12.24,19.98-17.03
					c7.5-4.79,15.94-8.48,24.97-10.44c9.03-1.98,18.59-2.12,27.83-0.59l-3.35,14.37c-7.32-2.34-15.06-3.38-22.87-2.84
					c-7.8,0.52-15.65,2.62-23.07,5.97c-7.45,3.35-14.48,7.9-20.96,13.23C129.93,154.18,123.9,160.21,118.77,167.02z"/>
			</g>
			<g>
				<path class="st12" d="M382.52,167.02c-5.15-6.8-11.15-12.83-17.62-18.18c-6.48-5.33-13.52-9.88-20.96-13.23
					c-7.43-3.36-15.26-5.45-23.08-5.97c-7.81-0.54-15.55,0.5-22.88,2.84l-3.33-14.37c9.24-1.53,18.8-1.39,27.83,0.59
					c9.04,1.95,17.48,5.65,24.98,10.44c7.52,4.79,14.14,10.62,19.98,17.03C373.25,152.58,378.39,159.54,382.52,167.02z"/>
			</g>
		</g>
		<g>
			<g>
				<g>
					<path class="st13" d="M231.47,236.94c-12.59,36.72-45.16,58.82-72.75,49.38c-27.59-9.46-39.74-46.9-27.15-83.63
						c12.59-36.72,45.17-58.82,72.75-49.35C231.9,162.78,244.06,200.22,231.47,236.94z"/>
					<path class="st12" d="M171.93,290.6c-4.77,0-9.44-0.78-13.91-2.3c-13.97-4.8-24.61-16.48-29.95-32.93
						c-5.27-16.22-4.73-35.18,1.5-53.36c10.7-31.19,35.99-52.98,61.52-52.98c4.77,0,9.45,0.77,13.9,2.3
						c13.99,4.8,24.62,16.49,29.96,32.93c5.27,16.23,4.74,35.17-1.5,53.37C222.77,268.82,197.47,290.6,171.93,290.6z M191.1,153.24
						c-23.76,0-47.42,20.62-57.54,50.13c-5.95,17.32-6.46,35.34-1.48,50.7c4.92,15.15,14.63,25.89,27.31,30.24
						c4.02,1.37,8.24,2.08,12.54,2.08c23.77,0,47.43-20.62,57.55-50.14c5.95-17.33,6.47-35.33,1.47-50.7
						c-4.91-15.15-14.62-25.89-27.31-30.24C199.63,153.94,195.4,153.24,191.1,153.24z"/>
				</g>
				<g>
					<g>
						<path class="st4" d="M219.7,249.89c-8.18,19.28-26.29,30.05-40.42,24.05c-14.13-6-18.96-26.5-10.76-45.77
							c8.19-19.28,26.27-30.05,40.4-24.05C223.07,210.12,227.88,230.61,219.7,249.89z"/>
					</g>
					<g>
						<path class="st12" d="M207.55,244.73c-4.29,10.13-13.81,15.78-21.23,12.62c-7.42-3.15-9.96-13.91-5.66-24.05
							c4.31-10.12,13.82-15.78,21.24-12.63C209.33,223.84,211.86,234.61,207.55,244.73z"/>
					</g>
					<g>
						<path class="st13" d="M197.57,224.66c-3.66,5.02-9.61,6.92-13.28,4.24c-3.67-2.68-3.69-8.91-0.05-13.92
							c3.66-5.03,9.59-6.92,13.26-4.24C201.19,213.41,201.21,219.64,197.57,224.66z"/>
					</g>
				</g>
				<g>
					<path class="st0" d="M168.62,278.28c-26.62-9.07-38.35-45-26.2-80.24c5.64-16.35,15.52-30.45,27.05-39.13
						c-15.37,7.81-29.04,24.31-36.1,44.79c-12.14,35.25-0.59,71.53,26.03,80.6c14.27,4.86,30.08,0.66,43.41-9.36
						C191.74,280.56,179.76,282.08,168.62,278.28z"/>
				</g>
			</g>
			<g>
				<g>
					<path class="st13" d="M269.82,236.94c12.59,36.72,45.15,58.82,72.74,49.38c27.59-9.46,39.74-46.9,27.15-83.63
						c-12.59-36.72-45.17-58.82-72.75-49.35C269.38,162.78,257.22,200.22,269.82,236.94z"/>
					<path class="st12" d="M329.35,290.6L329.35,290.6c-25.53,0-50.84-21.78-61.54-52.97c-12.94-37.76-0.17-76.48,28.47-86.3
						c4.46-1.53,9.13-2.3,13.9-2.3c25.53,0,50.84,21.79,61.53,52.98c12.95,37.77,0.19,76.48-28.47,86.29
						C338.79,289.82,334.12,290.6,329.35,290.6z M310.18,153.24c-4.3,0-8.51,0.7-12.53,2.07c-26.45,9.07-38.04,45.38-25.85,80.94
						c10.12,29.52,33.78,50.12,57.54,50.14h0c4.3,0,8.52-0.71,12.52-2.08c26.46-9.07,38.05-45.38,25.85-80.94
						C357.61,173.86,333.94,153.24,310.18,153.24z"/>
				</g>
				<g>
					<g>
						<path class="st4" d="M281.58,249.89c8.18,19.28,26.28,30.05,40.42,24.05c14.13-6,18.95-26.5,10.76-45.77
							c-8.19-19.28-26.28-30.05-40.41-24.05C278.22,210.12,273.4,230.61,281.58,249.89z"/>
					</g>
					<g>
						<path class="st12" d="M293.73,244.73c4.3,10.13,13.81,15.78,21.24,12.62c7.42-3.15,9.95-13.91,5.65-24.05
							c-4.3-10.12-13.81-15.78-21.23-12.63C291.96,223.84,289.43,234.61,293.73,244.73z"/>
					</g>
					<g>
						<path class="st13" d="M303.72,224.66c3.66,5.02,9.6,6.92,13.27,4.24c3.68-2.68,3.7-8.91,0.05-13.92
							c-3.65-5.03-9.59-6.92-13.27-4.24C300.1,213.41,300.08,219.64,303.72,224.66z"/>
					</g>
				</g>
				<g>
					<path class="st0" d="M332.51,278.28c26.62-9.07,38.35-45,26.2-80.24c-5.64-16.35-14.83-30.05-26.37-38.74
						c15.37,7.8,28.35,23.91,35.42,44.4c12.15,35.25,0.51,71.6-26.12,80.68c-14.26,4.86-30,0.58-43.32-9.44
						C309.4,280.56,321.38,282.08,332.51,278.28z"/>
				</g>
			</g>
		</g>
	</g>
	<g>
		<g>
			<path class="st14" d="M247.14,378.03h-0.65c-36.16-0.13-59.31-11.72-72.39-21.45c-14.34-10.67-19.92-21.27-20.15-21.72l3.14-1.62
				c0.05,0.1,5.54,10.43,19.3,20.63c12.67,9.37,35.17,20.55,70.43,20.62c67.66-0.13,89.51-40.85,89.72-41.25l3.14,1.62
				c-0.23,0.45-5.81,11.05-20.16,21.72C306.44,366.31,283.29,377.89,247.14,378.03L247.14,378.03z"/>
		</g>
		<g>
			<g>
				<path class="st14" d="M315.69,329.87c3.37-1.37,7.03-1.93,10.73-1.93c3.68,0.04,7.48,0.76,10.93,2.55
					c3.44,1.76,6.34,4.82,7.8,8.36c1.5,3.55,1.75,7.37,1.11,10.93c-0.84-3.52-1.85-6.86-3.59-9.66c-1.71-2.82-4.11-4.99-6.98-6.5
					c-2.86-1.51-6.12-2.39-9.5-2.92C322.8,330.16,319.3,329.96,315.69,329.87z"/>
			</g>
			<g>
				<path class="st14" d="M178.03,329.87c-3.61,0.08-7.1,0.29-10.49,0.84c-3.37,0.53-6.64,1.41-9.5,2.92
					c-2.86,1.5-5.27,3.67-6.97,6.5c-1.75,2.8-2.76,6.14-3.59,9.66c-0.64-3.56-0.38-7.38,1.1-10.93c1.47-3.55,4.37-6.6,7.81-8.35
					c3.44-1.81,7.25-2.53,10.93-2.57C171,327.94,174.66,328.5,178.03,329.87z"/>
			</g>
		</g>
		<g>
			<g>
				<path class="st14" d="M346.88,334.07c0.17-2.54,0.34-5.01,0.18-7.38c-0.14-2.32-0.73-4.67-2.14-5.73
					c-0.7-0.52-1.71-0.81-2.81-0.93c-1.12-0.12-2.31-0.1-3.52-0.03c-2.42,0.11-4.94,0.43-7.51,0.32c2.37-0.96,4.71-1.81,7.23-2.37
					c1.27-0.26,2.57-0.46,3.95-0.41c1.36,0.04,2.9,0.32,4.24,1.3c1.32,0.99,2.04,2.44,2.4,3.81c0.34,1.39,0.38,2.76,0.26,4.08
					C348.91,329.35,348.13,331.84,346.88,334.07z"/>
			</g>
			<g>
				<path class="st14" d="M137,334.07c-1.26-2.23-2.04-4.72-2.3-7.35c-0.12-1.32-0.09-2.69,0.26-4.08c0.36-1.37,1.08-2.81,2.4-3.81
					c1.33-0.98,2.87-1.26,4.24-1.3c1.38-0.05,2.69,0.15,3.95,0.41c2.52,0.56,4.87,1.41,7.23,2.37c-2.56,0.11-5.08-0.21-7.5-0.32
					c-1.21-0.07-2.4-0.08-3.52,0.03c-1.11,0.12-2.11,0.41-2.81,0.93c-1.42,1.07-2.01,3.41-2.15,5.73
					C136.66,329.06,136.83,331.53,137,334.07z"/>
			</g>
		</g>
	</g>
</g>
</svg>
