<?xml version="1.0" encoding="utf-8"?>
<!-- Generator: Adobe Illustrator 25.4.1, SVG Export Plug-In . SVG Version: 6.00 Build 0)  -->
<svg version="1.1" id="Layer_1" xmlns="http://www.w3.org/2000/svg" xmlns:xlink="http://www.w3.org/1999/xlink" x="0px" y="0px"
	 viewBox="0 0 279.39 313.34" style="enable-background:new 0 0 279.39 313.34;" xml:space="preserve">
<style type="text/css">
	.st0{fill:#9BB23F;}
	.st1{fill:#ADD14A;}
	.st2{fill:#A6BC47;}
	.st3{fill:#61453F;}
	.st4{fill:#446C4A;}
	.st5{opacity:0.27;fill:#FFFFFF;}
</style>
<g>
	<path class="st0" d="M129.24,62.58c-19.36,1.44-25.62,12.06-49.87,16.09c-2.86,0.48,0.74,6.34,0.22,9.2
		c-0.74,4.04,9.44,3.81,12.83,6.12c3.39,2.32,7.54,3.21,11.58,3.94c22.13,4.02,55.34,9.03,76.03-2.27
		c5.17-2.82,39.42-18.36,33.16-22.65c-17.83-12.22-41.85-1.3-48.66-2.33C149.72,68.43,149.16,61.1,129.24,62.58z"/>
	<path class="st1" d="M150.85,93.54c27.63,0.2,63.61-42.42,99.52-6.32c35.9,36.1,36.46,130.74,12.79,172.38
		c-23.68,41.64-86.49,53.05-127.54,53.72c-47.94,0.79-119.28-21.61-127.86-99.89c-7.5-68.48,9.06-129.58,68.93-134.56
		C113.16,75.84,105.6,93.2,150.85,93.54z"/>
	<path class="st2" d="M250.33,86.79c-11.9-11.97-23.81-15.28-35.42-14.37c29.2,40.5,28.23,125.58,6.12,164.46
		c-23.68,41.64-86.49,53.05-127.54,53.72c-15.03,0.25-32.35-1.79-49.33-7.1c26.86,22.28,63.2,29.86,91.42,29.4
		c41.04-0.67,103.86-12.09,127.54-53.72S286.24,122.89,250.33,86.79z"/>
	<path class="st3" d="M158.41,92.66c0,0-5.24-34.22-12.01-50.8S119.71,0,119.71,0l-12.15,7.27c0,0,18.46,14.88,27.86,35.87
		c6.57,14.67,15.43,50.4,15.43,50.4L158.41,92.66z"/>
	<path class="st4" d="M135.42,43.14c0,0-31.96-27.98-61.92-26.79C33.41,17.95,2.56,31.3,2.56,31.3s28.1,36.66,60.64,39.8
		c32.54,3.14,76.32-17.18,76.32-17.18L135.42,43.14z"/>
	<path class="st5" d="M86.19,32.56c0.43,0.45,0.85,0.96,0.92,1.57c0.1,0.81-0.44,1.64-1.08,2.29c-2.13,2.21-5.43,3.27-8.56,3.51
		c-3.13,0.24-6.2-0.23-9.28-0.52c-7.18-0.68-14.57-0.4-21.85,0.85c-2.57,0.44-5.21,1-7.72,0.63c-7.8-1.17-4.39-8.55-0.23-12.36
		c3.88-3.55,8.05-3.67,13.07-3.73C63.29,24.65,78.22,24.19,86.19,32.56z"/>
</g>
</svg>
