<?xml version="1.0" encoding="utf-8"?>
<!-- Generator: Adobe Illustrator 25.4.1, SVG Export Plug-In . SVG Version: 6.00 Build 0)  -->
<svg version="1.1" id="Layer_1" xmlns="http://www.w3.org/2000/svg" xmlns:xlink="http://www.w3.org/1999/xlink" x="0px" y="0px"
	 viewBox="0 0 126.42 204.71" style="enable-background:new 0 0 126.42 204.71;" xml:space="preserve">
<style type="text/css">
	.st0{fill:#5E853B;}
	.st1{fill:#BED974;}
	.st2{fill:#AED35D;}
	.st3{fill:#9AC44A;}
	.st4{fill:#8FBB43;}
	.st5{fill:#7AA540;}
	.st6{fill:#82AF40;}
	.st7{fill:#71A040;}
</style>
<g>
	<rect x="51.69" y="152.48" class="st0" width="26.11" height="52.23"/>
	<path class="st1" d="M121.32,93c0,38.8-25.89,66.53-57.82,66.53c-31.94,0-57.82-27.72-57.82-66.53S58.99,3.78,63.5,3.78
		C68.17,3.78,121.32,54.2,121.32,93z"/>
	<path class="st2" d="M63.5,38.75L50.29,7.66c0,0-15.78,9.44-19.16,25.94l16.93,17.74L63.5,38.75z"/>
	<path class="st2" d="M63.46,38.75L76.67,7.66c0,0,15.78,9.44,19.16,25.94L78.9,51.34L63.46,38.75z"/>
	<path class="st3" d="M112.64,58.66c0,0,1.85-13.22-12.76-28.77L79.27,50.64l6.99,13.36l17.81,4.94L112.64,58.66z"/>
	<path class="st3" d="M14.68,58.66c0,0-1.85-13.22,12.76-28.77l20.62,20.75l-6.99,13.36l-17.81,4.94L14.68,58.66z"/>
	<path class="st4" d="M41.06,63.06c0,0,1.61-12.65,22.44-24.31c0,0,18.88,10.07,23.66,24.31L70.71,89.27H54.9L41.06,63.06z"/>
	<path class="st5" d="M83.66,104.03l40.56-23.47c0,0,7.37,39.92-22.84,63.38L83.66,104.03z"/>
	<path class="st6" d="M108.44,90.63c0,0,1.57-18.98-10.97-35.56c0,0-27.7,18.42-26.73,33.57l13.06,17L108.44,90.63z"/>
	<path class="st7" d="M121.37,82.27c0,0,5.63-14.63-2.04-31.62l-14.68,17.6c0,0,4.49,11.03,3.47,21.69L121.37,82.27z"/>
	<path class="st5" d="M44.12,104.4L2.38,80.57c0,0-6.42,40.39,23.8,63.85L44.12,104.4z"/>
	<path class="st6" d="M19.79,90.63c0,0-2.61-18.77,10.97-35.56c0,0,27.7,18.42,26.74,33.57l-13.06,17L19.79,90.63z"/>
	<path class="st7" d="M6.54,82.97c0,0-5.63-14.63,2.04-31.62l14.68,17.6c0,0-4.49,11.03-3.47,21.69L6.54,82.97z"/>
	<path class="st7" d="M25.62,143.94c6.65-24.91,19.19-46.09,37.88-63.38c20.73,21.03,34.98,42.14,37.88,63.38
		C101.38,143.94,67.33,179.65,25.62,143.94z"/>
</g>
</svg>
