<?xml version="1.0" encoding="utf-8"?>
<!-- Generator: Adobe Illustrator 25.4.1, SVG Export Plug-In . SVG Version: 6.00 Build 0)  -->
<svg version="1.1" id="Layer_1" xmlns="http://www.w3.org/2000/svg" xmlns:xlink="http://www.w3.org/1999/xlink" x="0px" y="0px"
	 viewBox="0 0 296.53 428.36" style="enable-background:new 0 0 296.53 428.36;" xml:space="preserve">
<style type="text/css">
	.st0{fill:#8FC640;}
	.st1{fill:#92477B;}
	.st2{fill:#E9DA95;}
	.st3{fill:#52A346;}
	.st4{fill:#C66A9C;}
	.st5{fill:#6C285D;}
</style>
<g>
	<g>
		<path class="st0" d="M63.7,428.35c-24.37-54.51-33.1-110.58-25.92-166.83c5.97-46.7,30.15-90.91,30.65-183.96
			c0.03-5.31-4.25-9.67-9.56-9.67h-0.4c-5.07,0-9.16,3.97-9.54,9.03c-3.49,46.52-35.47,113.47-46.13,178.91
			c-9.45,58.02-0.06,116.21,21.86,172.52H63.7z"/>
	</g>
	<g>
		<path class="st1" d="M117.8,428.35c-5.32-34.1-1.56-69.9,2.44-107.58c8.41-79.41,3.83-119.26,0.05-203.24
			c-0.25-5.65-5.19-9.96-10.82-9.41l0,0c-5.13,0.49-9.05,4.85-8.93,10c1.37,56.23-6.3,111.91-15.4,197.93
			c-3.89,36.78-7.87,74.62-3.11,112.31H117.8z"/>
	</g>
	<g>
		<path class="st0" d="M172.36,229.77c-5.26,65.42-20.8,130.19-27.88,198.57h35.58c7.18-65.28,22.16-128.57,27.5-194.97
			c5.05-62.88,1.41-149.9-42.22-216.58c-3.88-5.93-12.42-6.4-17.05-1.05l0,0c-3.12,3.61-3.49,8.86-0.86,12.84
			C185.43,86.16,176.92,173.02,172.36,229.77z"/>
	</g>
	<path class="st2" d="M63.7,428.35c0,0-22.08-51.32-59.72-72.7c0,0,8.36,46.03,20.68,72.7H63.7z"/>
	<path class="st2" d="M15.38,293.85c-4.5,5.76-15.34,25.92-1.47,28.3c5.85,1,10.39-3.76,10.03-8.6
		C23.43,306.68,19.03,299.74,15.38,293.85z"/>
	<path class="st2" d="M30.82,237.35c-5.47,4.16-19.99,19.83-7.5,25.1c5.27,2.22,10.57-1.04,11.27-5.47
		C35.61,250.7,32.98,243.47,30.82,237.35z"/>
	<path class="st2" d="M32.86,177.35c-4.23,3.51-15.55,16.64-6.11,20.78c3.98,1.75,8.07-1.02,8.68-4.68
		C36.3,188.26,34.41,182.34,32.86,177.35z"/>
	<path class="st3" d="M43.29,120.06c-2.91,5.05-9.5,22.43,0.77,23.62c4.33,0.5,7.33-3.73,6.76-7.73
		C50,130.27,46.34,124.75,43.29,120.06z"/>
	<path class="st3" d="M70.11,100.18c-5.01,2.97-19.29,14.88-10.92,20.96c3.53,2.56,8.22,0.35,9.68-3.42
		C70.95,112.36,70.46,105.75,70.11,100.18z"/>
	<path class="st3" d="M43.12,87.65c5.01,2.97,19.29,14.88,10.92,20.95c-3.53,2.56-8.22,0.36-9.68-3.41
		C42.28,99.83,42.76,93.22,43.12,87.65z"/>
	<path class="st3" d="M73.56,73.32c-5.39,2.22-21.23,11.95-13.82,19.17c3.13,3.04,8.08,1.53,10.07-1.99
		C72.63,85.5,73.11,78.89,73.56,73.32z"/>
	<path class="st3" d="M44.3,63.29c5.01,2.97,19.29,14.88,10.92,20.96c-3.53,2.56-8.22,0.36-9.68-3.42
		C43.46,75.48,43.94,68.87,44.3,63.29z"/>
	<path class="st3" d="M70.11,51.26c-5.01,2.97-19.29,14.88-10.92,20.95c3.53,2.56,8.22,0.35,9.68-3.42
		C70.95,63.44,70.46,56.84,70.11,51.26z"/>
	<path class="st3" d="M65.65,148.7c-5.46,2.04-21.6,11.26-14.43,18.71c3.03,3.14,8.03,1.79,10.14-1.67
		C64.34,160.84,65.02,154.25,65.65,148.7z"/>
	<path class="st4" d="M82.04,428.35c0,0-6.17-53.59,35.66-82.59c0,0-4.07,52.81,0.11,82.59H82.04z"/>
	<path class="st4" d="M93.84,305.39c-4.5,5.77-15.34,25.92-1.47,28.3c5.85,1.01,10.39-3.76,10.03-8.61
		C101.89,318.22,97.49,311.28,93.84,305.39z"/>
	<path class="st4" d="M125.24,249.46c-6.11,4.02-22.82,19.65-10.44,26.34c5.22,2.82,11.05-0.25,12.26-4.94
		C128.76,264.19,126.82,256.2,125.24,249.46z"/>
	<path class="st2" d="M96.42,211.62c-2.08,5.09-5.88,22,4.4,21.21c4.33-0.33,6.63-4.7,5.45-8.21
		C104.6,219.63,100.14,215.31,96.42,211.62z"/>
	<path class="st5" d="M127.72,164.65c-5.45,2.04-21.6,11.26-14.43,18.71c3.03,3.14,8.03,1.79,10.13-1.67
		C126.41,176.79,127.09,170.2,127.72,164.65z"/>
	<path class="st5" d="M95.83,147.9c5.01,2.97,19.29,14.88,10.92,20.96c-3.53,2.56-8.22,0.36-9.68-3.42
		C94.99,160.09,95.48,153.48,95.83,147.9z"/>
	<path class="st5" d="M125.62,130.37c-5.01,2.97-19.29,14.88-10.92,20.96c3.53,2.56,8.22,0.35,9.68-3.42
		C126.46,142.55,125.98,135.94,125.62,130.37z"/>
	<path class="st5" d="M95.83,115.82c5.01,2.97,19.29,14.88,10.92,20.95c-3.53,2.57-8.22,0.35-9.68-3.42
		C94.99,128,95.48,121.39,95.83,115.82z"/>
	<path class="st5" d="M111.33,91.5c-3.87,4.36-13.82,20.06-4,23.29c4.15,1.36,7.94-2.17,8.18-6.21
		C115.85,102.85,113.37,96.71,111.33,91.5z"/>
	<path class="st5" d="M123.05,111.09c-4.08,2.41-15.68,12.1-8.88,17.04c2.87,2.09,6.68,0.29,7.87-2.78
		C123.73,121,123.34,115.63,123.05,111.09z"/>
	<path class="st2" d="M144.48,428.35c0,0,9.34-59.44,48.77-89.44c0,0-13.27,78.31-13.18,89.44H144.48z"/>
	<path class="st2" d="M185.46,262.67c4.5,5.76,15.34,25.92,1.47,28.3c-5.84,1-10.39-3.77-10.03-8.61
		C177.42,275.5,181.81,268.55,185.46,262.67z"/>
	<path class="st2" d="M181.11,194.22c5.47,4.16,19.99,19.83,7.49,25.1c-5.27,2.22-10.56-1.04-11.27-5.47
		C176.32,207.57,178.95,200.33,181.11,194.22z"/>
	<path class="st2" d="M194,127.22c4.23,3.51,15.55,16.64,6.11,20.78c-3.98,1.75-8.07-1.02-8.68-4.68
		C190.56,138.13,192.45,132.22,194,127.22z"/>
	<path class="st3" d="M192.62,66.85c2.91,5.05,9.5,22.43-0.77,23.62c-4.33,0.5-7.34-3.73-6.76-7.73
		C185.91,77.05,189.57,71.53,192.62,66.85z"/>
	<path class="st3" d="M159.4,55.97c5.43,2.11,21.47,11.5,14.22,18.88c-3.06,3.1-8.05,1.7-10.11-1.78
		C160.57,68.13,159.96,61.53,159.4,55.97z"/>
	<path class="st3" d="M180.26,36.86c-3.65,4.54-12.84,20.7-2.87,23.45c4.21,1.16,7.82-2.55,7.87-6.6
		C185.32,47.98,182.55,41.95,180.26,36.86z"/>
	<path class="st3" d="M145.96,29.53c5.66,1.38,22.78,8.62,16.54,16.87c-2.63,3.48-7.76,2.73-10.26-0.45
		C148.7,41.43,147.24,34.97,145.96,29.53z"/>
	<path class="st3" d="M166.41,11.01c-3.02,4.98-9.99,22.21,0.25,23.63c4.32,0.6,7.42-3.56,6.93-7.58
		C172.9,21.35,169.36,15.76,166.41,11.01z"/>
	<path class="st3" d="M146.28,0c5.01,2.97,19.29,14.88,10.92,20.96c-3.53,2.56-8.22,0.36-9.69-3.41
		C145.44,12.19,145.92,5.58,146.28,0z"/>
	<path class="st3" d="M168.77,97.82c5.46,2.04,21.6,11.26,14.43,18.71c-3.02,3.14-8.03,1.79-10.13-1.66
		C170.08,109.97,169.4,103.38,168.77,97.82z"/>
	<g>
		<path class="st1" d="M233.21,427.55c22.65-50.67,30.77-102.8,24.09-155.09c-5.55-43.41-28.03-84.51-28.49-171.01
			c-0.03-4.94,3.95-8.98,8.89-8.98h0.38c4.72,0,8.51,3.69,8.87,8.39c3.25,43.25,32.98,105.49,42.88,166.32
			c8.78,53.94,0.06,108.03-20.32,160.37H233.21z"/>
	</g>
	<path class="st4" d="M233.21,427.55c0,0,20.52-47.71,55.51-67.58c0,0-7.77,42.78-19.22,67.58H233.21z"/>
	<path class="st4" d="M278.12,302.53c4.18,5.36,14.26,24.09,1.37,26.31c-5.43,0.93-9.66-3.5-9.32-8
		C270.64,314.45,274.73,308,278.12,302.53z"/>
	<path class="st2" d="M263.76,250c5.08,3.87,18.58,18.44,6.97,23.34c-4.9,2.07-9.82-0.97-10.48-5.09
		C259.31,262.41,261.76,255.69,263.76,250z"/>
	<path class="st4" d="M261.87,194.22c3.93,3.27,14.45,15.47,5.68,19.32c-3.7,1.62-7.5-0.95-8.06-4.35
		C258.67,204.36,260.43,198.87,261.87,194.22z"/>
	<path class="st5" d="M252.18,140.97c2.7,4.69,8.83,20.85-0.72,21.96c-4.03,0.46-6.82-3.46-6.28-7.19
		C245.94,150.46,249.34,145.33,252.18,140.97z"/>
	<path class="st5" d="M227.25,122.48c4.66,2.76,17.93,13.83,10.15,19.48c-3.28,2.38-7.64,0.33-9-3.18
		C226.46,133.81,226.91,127.67,227.25,122.48z"/>
	<path class="st5" d="M252.33,110.83c-4.66,2.76-17.93,13.83-10.15,19.48c3.28,2.38,7.64,0.33,9-3.17
		C253.11,122.16,252.67,116.02,252.33,110.83z"/>
	<path class="st5" d="M224.04,97.52c5.01,2.06,19.73,11.11,12.85,17.82c-2.9,2.83-7.51,1.42-9.37-1.85
		C224.9,108.84,224.46,102.69,224.04,97.52z"/>
	<path class="st5" d="M251.23,88.2c-4.66,2.76-17.93,13.83-10.15,19.48c3.28,2.38,7.64,0.33,9-3.18
		C252.01,99.53,251.56,93.38,251.23,88.2z"/>
	<path class="st5" d="M227.25,77.01c4.66,2.76,17.93,13.83,10.15,19.48c-3.28,2.38-7.64,0.33-9-3.18
		C226.46,88.34,226.91,82.19,227.25,77.01z"/>
	<path class="st5" d="M231.39,167.59c5.07,1.9,20.08,10.47,13.41,17.4c-2.81,2.92-7.47,1.66-9.42-1.55
		C232.61,178.88,231.97,172.75,231.39,167.59z"/>
</g>
</svg>
