<?xml version="1.0" encoding="utf-8"?>
<!-- Generator: Adobe Illustrator 25.4.1, SVG Export Plug-In . SVG Version: 6.00 Build 0)  -->
<svg version="1.1" id="Layer_1" xmlns="http://www.w3.org/2000/svg" xmlns:xlink="http://www.w3.org/1999/xlink" x="0px" y="0px"
	 viewBox="0 0 372.94 315.83" style="enable-background:new 0 0 372.94 315.83;" xml:space="preserve">
<style type="text/css">
	.st0{fill:#92B96F;}
	.st1{fill:#85A564;}
	.st2{fill:#B4D889;}
	.st3{fill:#C6DE87;}
	.st4{fill:#A57463;}
	.st5{fill:#8A5F53;}
	.st6{opacity:0.29;fill:#FFFFFF;}
</style>
<g>
	<path class="st0" d="M14.41,110.06c6.51,11.7,24.16,28.23,31.97,39.11c20.2,28.12,24.33,63.45,46.41,90.13
		c33.81,40.86,83.04,77.54,136.07,76.51c68.18-1.32,108.29-39.87,131.79-87.42c2.74-5.54,5.12-11.43,5.27-17.61
		c0.14-5.58-1.55-11.06-3.92-16.11c-8.35-17.86-24.63-30.69-41.4-41.08C273.42,124.35,218.9,109.4,169,85.07
		C128.96,65.54,92.14,40.09,53.47,17.94C45.3,13.26,26.7,1.65,17.26,8.25c-7.88,5.51-12.37,24.65-14.5,33.4
		C-3.59,67.69,1.33,86.54,14.41,110.06z"/>
	<path class="st1" d="M361.74,195.39c-8.36-17.86-24.63-30.69-41.4-41.07c-12.71-7.88-25.96-14.71-39.51-20.98
		c-0.65,1.18-1.3,2.35-1.95,3.51c-15.63,27.7-37.34,52.4-64.6,68.8c-27.26,16.4-60.28,24.04-91.55,18.24
		c-19.82-3.68-38.71-13.06-53.44-26.71c6.11,15.11,12.58,29.99,23.23,42.86c33.81,40.86,83.04,77.54,136.07,76.51
		c68.18-1.32,108.29-39.87,131.79-87.43c2.74-5.54,5.12-11.43,5.27-17.61C365.8,205.93,364.1,200.45,361.74,195.39z"/>
	<path class="st2" d="M11.8,16.12c-4.14,9.92,0.31,21.64,7.6,29.55c7.28,7.9,16.99,13.04,25.9,19.05
		c25.94,17.51,45.98,43.61,56.2,73.2c6.93,20.07,9.54,41.81,19.82,60.4c7.29,13.17,18.12,24.11,30.05,33.28
		c51.97,39.97,127.82,45.91,185.38,14.51c9.25-5.05,18.19-11.09,24.72-19.37c13.42-17,14.53-41.66,6.18-61.64
		c-8.35-19.98-24.96-35.63-43.57-46.7c-18.62-11.07-39.33-18.05-59.86-24.94c-26.22-8.8-52.44-17.6-78.65-26.4
		C170.59,62.05,155.57,57,141.48,49.9C115.2,36.66,92.53,17.59,65.57,5.51C49.03-1.9,20.52-4.76,11.8,16.12z"/>
	<path class="st3" d="M130.43,130.7c0.45,7.17,3.58,13.88,6.99,20.21c4.74,8.77,10.17,17.24,16.94,24.55
		c10.87,11.73,24.84,20.11,39.07,27.4c15.88,8.13,32.44,15.14,49.83,19.13c17.39,3.99,35.67,4.87,53.05,0.84
		c8.52-1.98,17.17-5.41,22.69-12.19c3.65-4.48,5.65-10.13,6.53-15.85c2.78-18.02-5.32-36.44-17.79-49.74
		c-12.46-13.3-28.87-22.2-45.47-29.73c-15.74-7.15-31.94-13.29-48.46-18.37c-9.37-2.88-18.92-5.44-28.7-6.05
		C161.89,89.45,128.65,102.56,130.43,130.7z"/>
	<path class="st4" d="M167.97,145.85c11.14,23.76,34,40.79,59.07,48.56c18.18,5.64,40.22,5.96,53.86-7.32
		c15.4-15,12.9-42.06-0.71-58.69c-13.61-16.63-35.18-24.6-56.28-28.66c-9.97-1.92-20.24-3.12-30.26-1.51
		c-10.02,1.61-19.85,6.33-25.96,14.43c-0.96,1.27-2.28,2.1-3.83,2.45C164.37,126.36,162.87,134.97,167.97,145.85z"/>
	<path class="st5" d="M280.38,128.64c2.7,13.3,0.06,27.39-9.56,36.76c-13.64,13.28-35.68,12.96-53.86,7.32
		c-20.64-6.4-39.78-19.08-52.11-36.62c0.57,3.13,1.52,6.32,3.12,9.74c11.14,23.76,34,40.79,59.07,48.56
		c18.18,5.64,40.22,5.96,53.86-7.32C296.22,172.16,293.82,145.29,280.38,128.64z"/>
	<path class="st6" d="M197.82,109.16c-4.34,1.41-8.71,3.46-11.47,7.09s-3.39,9.21-0.38,12.65c3.14,3.58,8.86,3.55,13.27,1.76
		c4.42-1.78,8.15-4.94,12.47-6.95c7.53-3.51,16.2-3.28,24.5-2.98c2.72,0.1,6.1-0.21,7.11-2.74c3.71-9.25-11.85-10.35-16.6-10.87
		C216.81,106.03,207.42,106.04,197.82,109.16z"/>
</g>
</svg>
