<?xml version="1.0" encoding="utf-8"?>
<!-- Generator: Adobe Illustrator 25.4.1, SVG Export Plug-In . SVG Version: 6.00 Build 0)  -->
<svg version="1.1" id="Layer_1" xmlns="http://www.w3.org/2000/svg" xmlns:xlink="http://www.w3.org/1999/xlink" x="0px" y="0px"
	 viewBox="0 0 390.99 198.3" style="enable-background:new 0 0 390.99 198.3;" xml:space="preserve">
<style type="text/css">
	.st0{fill:#E5C929;}
	.st1{fill:#E0A32B;}
	.st2{fill:#61453F;}
	.st3{fill:#FBEE3E;}
</style>
<g>
	<path class="st0" d="M13.92,77.41c1.82,0.35,99.95,34.27,150.5,32.72c81.71-2.51,173.62-57.99,173.62-57.99l21.03,11.81
		c0,0-9.9,71.06-73.08,104.87c-63.18,33.81-103.53,37.37-175.12,16.67C32.73,162.89,0.08,95.52,0.08,95.52L13.92,77.41z"/>
	<path class="st1" d="M357.79,63.7c-7.91,23.69-26.44,61.62-67.67,83.68c-63.18,33.81-103.53,37.37-175.12,16.67
		C54.85,146.65,21.66,102.73,9.56,83.43L0,95.95c0,0,32.65,67.37,110.79,89.96c71.58,20.7,111.94,17.14,175.12-16.67
		c63.18-33.81,73.08-104.87,73.08-104.87L357.79,63.7z"/>
	<polygon class="st0" points="338.05,52.14 360.31,15.01 377.91,18.4 359.07,63.94 	"/>
	<path class="st0" d="M362.4-1.55c-7,4.42-12.41,14.57-12.41,14.57l33.88,16.99l7.13-17.4L362.4-1.55z"/>
	<polygon class="st2" points="0.08,95.52 13.92,77.41 28.46,90.59 10.72,98.97 	"/>
	<path class="st3" d="M359.81,9.31c1.05,1.34,2.53,2.25,3.97,3.14c3.43,2.11,6.86,4.22,10.39,6.14c2.32,1.27,5.53,2.33,7.32,0.38
		c1.18-1.28,1.04-3.37,0.14-4.86c-0.9-1.49-2.39-2.51-3.85-3.44c-3.68-2.35-9.55-7.12-13.85-7.93
		C359.89,1.98,356.74,5.4,359.81,9.31z"/>
	<path class="st3" d="M41.31,98.31c24.92,10.34,50.14,20.22,76.39,26.47c26.25,6.25,53.68,8.78,80.28,4.28
		c2.35-0.4,4.78-0.89,6.68-2.31c1.91-1.42,3.13-4.06,2.2-6.25c-0.97-2.29-3.71-3.19-6.16-3.63c-8.93-1.63-18.1-0.88-27.18-0.63
		c-37.44,1.03-74.49-6.59-110.33-16.78c-4.7-1.34-9.47-3.27-14.21-4.34c-1.6-0.36-2.35-1.13-4.13-0.65
		C44.34,94.61,39.95,97.74,41.31,98.31z"/>
	<path class="st3" d="M222.15,117.06c1.09,1.96,3.44,2.93,5.68,2.97c2.24,0.04,4.41-0.71,6.51-1.46
		c14.08-5.04,27.87-10.91,41.27-17.58c3.05-1.52,6.16-3.14,8.4-5.71c0.61-0.7,1.17-1.51,1.3-2.43c0.32-2.12-1.66-3.95-3.7-4.61
		c-4.12-1.34-8.55,0.31-12.56,1.95c-14.28,5.81-28.56,11.62-42.84,17.43c-0.88,0.36-1.81,0.75-2.39,1.51
		C222.6,110.73,221.07,115.12,222.15,117.06z"/>
	<path class="st1" d="M365.67,20.88c0,0,2.96-4.13-2.33,12.09c-5.29,16.22-8.3,26.97-8.3,26.97s1.24,0,0.65,7.21
		c-0.59,7.21,0.39,8.58,0.39,8.58l2.99-11.78l15.89-38.4L365.67,20.88z"/>
	<polygon class="st1" points="383.87,30.01 380.85,24.77 385.71,9.99 390.99,12.6 	"/>
</g>
</svg>
