<?xml version="1.0" encoding="utf-8"?>
<!-- Generator: Adobe Illustrator 25.4.1, SVG Export Plug-In . SVG Version: 6.00 Build 0)  -->
<svg version="1.1" id="Layer_1" xmlns="http://www.w3.org/2000/svg" xmlns:xlink="http://www.w3.org/1999/xlink" x="0px" y="0px"
	 viewBox="0 0 186.68 168.74" style="enable-background:new 0 0 186.68 168.74;" xml:space="preserve">
<style type="text/css">
	.st0{fill:#5F8F3E;}
	.st1{opacity:0.29;fill:#5F8F3E;}
	.st2{fill:#A1CD42;}
	.st3{opacity:0.65;fill:#5F8F3E;}
	.st4{fill:#0072B9;}
	.st5{fill:#0092CA;}
	.st6{fill:#074F89;}
	.st7{fill:#005A99;}
</style>
<g>
	<g>
		<g>
			<path class="st0" d="M95.67,77.56c0,0-15.63-67.41,65.53-77.56c-17.8,27.91-0.9,64.37-36.84,79.13
				C88.41,93.89,95.67,77.56,95.67,77.56z"/>
			<path class="st1" d="M95.67,77.56c0,0-3.81,8.6,7.86,7.66C103.18,24.03,161.19,0,161.19,0C80.03,10.15,95.67,77.56,95.67,77.56z"
				/>
			<path class="st2" d="M135.02,17.12c0,0-32.39,23.64-31.49,68.1c5.23-0.03,5.23-0.03,5.23-0.03S110.36,34.05,135.02,17.12z"/>
		</g>
		<path class="st3" d="M146.32,57.23c-20,5.01-40.16,0.48-51.12-2.98c-1.9,13.09,0.47,23.32,0.47,23.32s-0.01,0.01-0.01,0.03
			c0,0.01-0.01,0.02-0.01,0.04c-0.01,0.02-0.01,0.04-0.02,0.06c-0.01,0.02-0.02,0.05-0.03,0.08c-0.01,0.03-0.02,0.06-0.03,0.09
			c-0.02,0.06-0.04,0.12-0.07,0.2c-0.01,0.03-0.02,0.06-0.03,0.09c-0.02,0.06-0.04,0.11-0.05,0.18c-0.01,0.02-0.01,0.05-0.02,0.07
			c-0.06,0.23-0.13,0.49-0.18,0.78c0,0.01-0.01,0.03-0.01,0.04c-0.42,2.33-0.07,6.28,7.19,6.07c0.07,0,0.13,0,0.2-0.01
			c0.31-0.01,0.62-0.03,0.95-0.05c5.23-0.03,5.23-0.03,5.23-0.03s0.01-0.29,0.04-0.83c3.97-0.92,9.05-2.56,15.56-5.23
			C136.81,74.02,142.91,66.29,146.32,57.23z"/>
	</g>
	<g>
		<g>
			<path class="st0" d="M97.77,61.13c0,0-18.08-53.69-78.99-25.88c24.4,11.8,28.29,44.46,59.68,39.3
				C109.84,69.38,97.77,61.13,97.77,61.13z"/>
			<path class="st1" d="M97.77,61.13c0,0,6.35,4.36-2.19,8.72c-26.06-42.79-76.81-34.6-76.81-34.6
				C79.69,7.44,97.77,61.13,97.77,61.13z"/>
			<path class="st2" d="M44.37,35.93c0,0,32.73,2.55,51.21,33.92c-3.66,2.23-3.66,2.23-3.66,2.23S68.82,37.12,44.37,35.93z"/>
		</g>
		<path class="st3" d="M53.74,68.73c16.08-5.11,28.19-16.92,34.34-24.05c6.95,8.3,9.69,16.45,9.69,16.45s0.01,0.01,0.02,0.02
			c0.01,0,0.01,0.01,0.03,0.02c0.01,0.01,0.03,0.02,0.04,0.03c0.02,0.01,0.03,0.02,0.05,0.04c0.02,0.01,0.04,0.03,0.06,0.05
			c0.04,0.03,0.08,0.07,0.13,0.11c0.02,0.02,0.04,0.03,0.06,0.05c0.04,0.03,0.07,0.06,0.11,0.1c0.01,0.01,0.03,0.03,0.05,0.04
			c0.14,0.13,0.3,0.28,0.46,0.46c0.01,0.01,0.02,0.02,0.02,0.03c1.3,1.44,2.75,4.34-2.4,7.32c-0.05,0.03-0.09,0.05-0.14,0.08
			c-0.22,0.12-0.44,0.25-0.69,0.37c-3.66,2.23-3.66,2.23-3.66,2.23s-0.13-0.2-0.38-0.57c-3.16,1.07-7.4,2.11-13.09,3.04
			C67.58,76.34,60.01,73.58,53.74,68.73z"/>
	</g>
	<g>
		
			<ellipse transform="matrix(0.9279 -0.3729 0.3729 0.9279 -26.0998 51.4409)" class="st4" cx="119.91" cy="93.18" rx="30.01" ry="27.2"/>
		<path class="st5" d="M138.42,81.78c5.6,13.94-2.32,30.24-17.7,36.42c-2.7,1.08-5.44,1.78-8.17,2.12
			c5.59,0.98,11.66,0.44,17.5-1.91c15.38-6.18,23.3-22.49,17.7-36.42c-4.62-11.49-17-17.77-29.82-16.16
			C127.08,67.43,134.94,73.13,138.42,81.78z"/>
		<path class="st6" d="M92.06,104.37c2.16,5.38,6.03,9.61,10.84,12.43c1.26-0.34,2.51-0.75,3.75-1.25
			c15.38-6.18,23.3-22.49,17.7-36.42c-2.16-5.38-6.03-9.61-10.84-12.43c-1.26,0.34-2.51,0.75-3.75,1.25
			C94.39,74.13,86.46,90.43,92.06,104.37z"/>
		<path class="st6" d="M96.51,90.32c2.79-1.12,6.95,2.69,9.3,8.52c2.34,5.83,1.98,11.46-0.81,12.59c-2.79,1.12-6.95-2.69-9.3-8.52
			C93.35,97.08,93.72,91.45,96.51,90.32z"/>
	</g>
	<g>
		<path class="st4" d="M56.63,60.25c15.38-6.18,32.38,0.11,37.99,14.04c5.6,13.94-2.32,30.24-17.7,36.42
			c-15.38,6.18-32.38-0.11-37.99-14.04C33.33,82.74,41.25,66.43,56.63,60.25z"/>
		<path class="st5" d="M85.28,74.08c5.6,13.94-2.32,30.24-17.7,36.42c-2.7,1.08-5.44,1.78-8.17,2.12c5.59,0.98,11.66,0.44,17.5-1.91
			c15.38-6.18,23.3-22.49,17.7-36.42C90,62.8,77.62,56.51,64.8,58.13C73.94,59.73,81.81,65.43,85.28,74.08z"/>
		<path class="st6" d="M38.93,96.67c2.16,5.38,6.03,9.61,10.84,12.43c1.26-0.34,2.51-0.75,3.75-1.25
			c15.38-6.18,23.3-22.49,17.7-36.42c-2.16-5.38-6.03-9.61-10.84-12.43c-1.26,0.34-2.51,0.75-3.75,1.25
			C41.25,66.43,33.33,82.74,38.93,96.67z"/>
		<path class="st6" d="M43.37,82.62c2.79-1.12,6.95,2.69,9.3,8.52c2.34,5.83,1.98,11.46-0.81,12.59c-2.79,1.12-6.95-2.69-9.3-8.52
			C40.22,89.38,40.58,83.75,43.37,82.62z"/>
	</g>
	<g>
		
			<ellipse transform="matrix(0.3366 -0.9417 0.9417 0.3366 -82.8119 101.9019)" class="st4" cx="30.91" cy="109.72" rx="33.69" ry="30.53"/>
		<path class="st7" d="M35.13,85.68c15.88,5.68,23.67,24.48,17.41,42c-1.1,3.07-2.56,5.89-4.3,8.44c4.99-3.97,9.05-9.47,11.43-16.12
			c6.26-17.52-1.53-36.33-17.41-42c-13.09-4.68-27.59,1.04-35.79,13.01C14.63,84.52,25.28,82.16,35.13,85.68z"/>
		<path class="st5" d="M19.57,141.45c6.13,2.19,12.56,2.1,18.52,0.16c0.65-1.31,1.24-2.67,1.75-4.08c6.26-17.52-1.53-36.33-17.41-42
			c-6.13-2.19-12.56-2.1-18.52-0.16c-0.65,1.31-1.24,2.67-1.75,4.08C-4.1,116.97,3.7,135.77,19.57,141.45z"/>
		
			<ellipse transform="matrix(0.3366 -0.9417 0.9417 0.3366 -108.5395 109.0369)" class="st6" cx="23.11" cy="131.55" rx="6.12" ry="12.77"/>
	</g>
	<g>
		
			<ellipse transform="matrix(0.9279 -0.3729 0.3729 0.9279 -29.0426 65.3159)" class="st4" cx="154.3" cy="107.73" rx="32.78" ry="29.71"/>
		<path class="st5" d="M174.53,95.27c6.12,15.22-2.54,33.04-19.34,39.79c-2.95,1.18-5.95,1.94-8.92,2.31
			c6.11,1.07,12.74,0.48,19.12-2.09c16.8-6.75,25.46-24.57,19.34-39.79c-5.05-12.55-18.57-19.42-32.57-17.65
			C162.14,79.6,170.73,85.82,174.53,95.27z"/>
		<path class="st7" d="M123.89,119.95c2.36,5.88,6.58,10.5,11.84,13.58c1.37-0.37,2.74-0.82,4.1-1.36
			c16.8-6.75,25.46-24.57,19.34-39.79c-2.36-5.88-6.58-10.5-11.84-13.58c-1.37,0.37-2.74,0.82-4.1,1.36
			C126.43,86.91,117.77,104.73,123.89,119.95z"/>
		<path class="st6" d="M128.74,104.61c3.05-1.23,7.6,2.94,10.16,9.31s2.16,12.52-0.89,13.75c-3.05,1.23-7.6-2.94-10.16-9.31
			C125.3,111.99,125.69,105.83,128.74,104.61z"/>
	</g>
	<g>
		<ellipse class="st4" cx="92.57" cy="107.08" rx="34.66" ry="38.25"/>
		<path class="st7" d="M97.25,134.4c-19.14,0-34.66-17.12-34.66-38.25c0-3.7,0.49-7.28,1.38-10.67c-3.82,6.15-6.06,13.59-6.06,21.6
			c0,21.12,15.52,38.25,34.66,38.25c15.79,0,29.1-11.65,33.29-27.58C119.61,127.8,109.13,134.4,97.25,134.4z"/>
		<path class="st5" d="M92.57,68.83c-7.39,0-14.23,2.56-19.86,6.9c-0.2,1.65-0.31,3.32-0.31,5.03c0,21.12,15.52,38.25,34.66,38.25
			c7.39,0,14.23-2.56,19.86-6.91c0.2-1.65,0.31-3.32,0.31-5.03C127.23,85.96,111.72,68.83,92.57,68.83z"/>
		<ellipse class="st6" cx="92.57" cy="80.77" rx="14.5" ry="6.94"/>
	</g>
	<g>
		
			<ellipse transform="matrix(0.9279 -0.3729 0.3729 0.9279 -45.9233 28.8099)" class="st4" cx="51.5" cy="133.1" rx="38.25" ry="34.66"/>
		<path class="st5" d="M75.1,118.57c7.14,17.76-2.96,38.55-22.56,46.43c-3.44,1.38-6.94,2.26-10.41,2.7
			c7.13,1.25,14.87,0.56,22.3-2.43c19.6-7.88,29.7-28.66,22.56-46.43c-5.89-14.65-21.66-22.66-38.01-20.6
			C60.64,100.29,70.67,107.55,75.1,118.57z"/>
		<path class="st7" d="M16.01,147.37c2.76,6.86,7.68,12.25,13.81,15.85c1.6-0.43,3.2-0.95,4.78-1.59
			c19.6-7.88,29.7-28.66,22.56-46.43c-2.76-6.85-7.68-12.25-13.81-15.85c-1.6,0.43-3.2,0.95-4.78,1.59
			C18.98,108.82,8.88,129.61,16.01,147.37z"/>
		<path class="st6" d="M21.68,129.46c3.56-1.43,8.86,3.43,11.85,10.86c2.99,7.43,2.52,14.61-1.03,16.04
			c-3.56,1.43-8.86-3.43-11.85-10.86C17.66,138.08,18.12,130.89,21.68,129.46z"/>
	</g>
	<g>
		
			<ellipse transform="matrix(0.8604 -0.5097 0.5097 0.8604 -50.0739 83.4336)" class="st4" cx="127.23" cy="133.1" rx="38.25" ry="34.66"/>
		<path class="st7" d="M106.12,151.06c-9.76-16.47-2.93-38.55,15.24-49.32c3.19-1.89,6.51-3.29,9.88-4.25
			c-7.24-0.15-14.78,1.71-21.68,5.8c-18.17,10.77-25,32.85-15.24,49.32c8.05,13.58,24.86,19.1,40.7,14.58
			C123.19,166.93,112.18,161.27,106.12,151.06z"/>
		<path class="st5" d="M160.14,113.61c-3.77-6.36-9.45-10.94-16.06-13.56c-1.52,0.67-3.02,1.43-4.48,2.3
			c-18.17,10.77-25,32.85-15.24,49.32c3.77,6.36,9.45,10.94,16.06,13.56c1.52-0.67,3.02-1.43,4.48-2.3
			C163.08,152.16,169.9,130.08,160.14,113.61z"/>
		<path class="st6" d="M157.26,132.17c-3.3,1.95-9.28-2.05-13.36-8.94c-4.08-6.89-4.72-14.06-1.42-16.01
			c3.3-1.95,9.28,2.05,13.36,8.94C159.93,123.04,160.56,130.21,157.26,132.17z"/>
	</g>
</g>
</svg>
