<?xml version="1.0" encoding="utf-8"?>
<!-- Generator: Adobe Illustrator 25.4.1, SVG Export Plug-In . SVG Version: 6.00 Build 0)  -->
<svg version="1.1" id="Layer_1" xmlns="http://www.w3.org/2000/svg" xmlns:xlink="http://www.w3.org/1999/xlink" x="0px" y="0px"
	 viewBox="0 0 437.76 264.63" style="enable-background:new 0 0 437.76 264.63;" xml:space="preserve">
<style type="text/css">
	.st0{fill:#A65C26;}
	.st1{fill:#A36A28;}
	.st2{fill:#C99A65;}
	.st3{fill:url(#SVGID_1_);}
	.st4{fill:#70973E;}
	.st5{fill:#BDD633;}
	.st6{fill:#BFB89B;}
	.st7{fill:#F5E7C6;}
	.st8{fill:#FCB017;}
</style>
<g>
	<g>
		<g>
			<g>
				<path class="st0" d="M247.41,219.54c151.71-21.95,194.12-72.23,187.54-112.44c-0.21-1.19-0.47-2.38-0.72-3.57
					c8.87,19.36,0.55,59.44-20.21,84.2c-22.03,28.45-72.65,55.37-167.63,70.06c-115.74,17.83-181.85-0.8-214.38-37.79h0.04
					c-26.28-29.04-29.26-52.86-29-79.23c0.34,3.31,1.19,6.71,2.46,10.19C26.24,206.72,95.7,241.45,247.41,219.54z"/>
				<path class="st1" d="M434.19,103.37c0.04,0.08,0.04,0.13,0.04,0.17c0.25,1.19,0.51,2.38,0.72,3.57
					c6.58,40.21-35.83,90.48-187.54,112.44C95.7,241.45,26.24,206.72,5.52,150.97c-1.27-3.48-2.12-6.88-2.46-10.19
					c0-2.84,0.04-5.82,0.13-8.79v-0.04c6.37-43.65,95.2-67.55,166.57-72.6c35.67-2.5,103.77-8.75,156.42-10.66
					C377.17,46.82,425.27,65.63,434.19,103.37z"/>
				<path class="st2" d="M163.47,221.71c-84.2,0-135.91-24.33-153.74-72.27c-1.19-3.27-1.91-6.24-2.21-9.09
					c0.04-2.38,0.09-5.31,0.17-8.2c5.48-37.58,85.85-62.93,162.37-68.32c9.68-0.68,21.7-1.66,35.16-2.72
					c36.9-2.93,82.8-6.54,121.14-7.94c2.25-0.09,4.5-0.13,6.75-0.13c51.37,0,89.33,20.17,96.72,51.37l0.21,0.77
					c0.17,0.89,0.34,1.78,0.51,2.63c2.08,12.78-1.36,25.35-10.19,37.41c-16.73,22.84-60.42,53.5-173.61,69.84
					C216.42,219.46,188.39,221.71,163.47,221.71z"/>
				<linearGradient id="SVGID_1_" gradientUnits="userSpaceOnUse" x1="206.197" y1="28.2427" x2="238.1239" y2="266.7073">
					<stop  offset="0.0352" style="stop-color:#C16928"/>
					<stop  offset="0.163" style="stop-color:#D89B57"/>
					<stop  offset="0.3326" style="stop-color:#E3B98A"/>
					<stop  offset="0.5507" style="stop-color:#EED4B8"/>
					<stop  offset="0.7423" style="stop-color:#F4E7D7"/>
					<stop  offset="1" style="stop-color:#FFFFFF"/>
				</linearGradient>
				<path class="st3" d="M434.19,103.37c0.04,0.08,0.04,0.13,0.04,0.17c0.25,1.19,0.51,2.38,0.72,3.57
					c6.58,40.21-35.83,90.48-187.54,112.44C95.7,241.45,26.24,206.72,5.52,150.97c-1.27-3.48-2.12-6.88-2.46-10.19
					c0-2.84,0.04-5.82,0.13-8.79v-0.04c6.37-43.65,95.2-67.55,166.57-72.6c35.67-2.5,103.77-8.75,156.42-10.66
					C377.17,46.82,425.27,65.63,434.19,103.37z"/>
			</g>
			<g>
				<path class="st4" d="M415.46,134.24c2.04,15.33-11.84,18.47-50.14,42.89c-38.3,24.37-95.28,20.17-109.59,16.6
					c-14.22-3.57-26.67,0.89-57.96,19.02c-25.6,14.9-61.01,5.18-73.16,1.19c-0.13-0.3-0.3-0.55-0.43-0.85
					c5.99,0.89,11.76,1.06,17.28,0.6c30.83-2.46,54.3-23.65,69.17-37.7c18-16.98,31.25,0,31.25,0s0-0.04,0.04-0.08
					c12.87-18.6,37.49-34.01,50.27-15.76c0,0,18.26-12.18,25.9,10.02c0,0,15.16-15.8,46.32-6.2c0,0,2.67-14.86,20.04-12.06
					c0,0,30.15-11.89,18.3-27.47c-2.12-2.76-2.67-5.01-2.12-7.09c2.21-9.34,26.16-13.8,19.02-38.55
					C436.57,94.84,413.43,118.91,415.46,134.24z"/>
				<g>
					<defs>
						<path id="SVGID_00000129885137987353576100000006690035642144669082_" d="M419.67,78.79c7.13,24.75-16.81,29.21-19.02,38.55
							h-0.04c9.73-38.21,1.07-60.21-29.85-75.03v-0.04C401.03,45.71,407.23,67.03,419.67,78.79z"/>
					</defs>
					<use xlink:href="#SVGID_00000129885137987353576100000006690035642144669082_"  style="overflow:visible;fill:#BDD633;"/>
					<clipPath id="SVGID_00000049206653584494193480000013640270287679835325_">
						<use xlink:href="#SVGID_00000129885137987353576100000006690035642144669082_"  style="overflow:visible;"/>
					</clipPath>
				</g>
				<g>
					<defs>
						<path id="SVGID_00000038413352365912713940000010616112949897844876_" d="M402.77,124.44c11.85,15.58-18.3,27.47-18.3,27.47
							c-0.89-76.68-82.24-93.24-125.13-93.54c15.41-0.34,35.2-3.35,67.68-11.55c18.64-4.71,32.82-5.77,43.73-4.54v0.04
							c30.91,14.82,39.57,36.81,29.85,75.03h0.04C400.1,119.42,400.65,121.67,402.77,124.44z"/>
					</defs>
					<use xlink:href="#SVGID_00000038413352365912713940000010616112949897844876_"  style="overflow:visible;fill:#81AC40;"/>
					<clipPath id="SVGID_00000066491906287070162450000015599699696358934445_">
						<use xlink:href="#SVGID_00000038413352365912713940000010616112949897844876_"  style="overflow:visible;"/>
					</clipPath>
				</g>
				<g>
					<defs>
						<path id="SVGID_00000091716881131729725500000017723154003470412209_" d="M384.47,151.9c-17.37-2.8-20.04,12.06-20.04,12.06
							c-25.6-31.25-38.3-39.66-75.87-40.84c-37.58-1.19-64.45-12.65-71.2-29.47c-6.71-16.81-7.77-39.02-38.81-44.54
							c9.68,0.72,19.83,2.3,30.91,3.82c19.7,2.67,31.84,5.82,49.89,5.43C302.23,58.67,383.58,75.22,384.47,151.9z"/>
					</defs>
					<use xlink:href="#SVGID_00000091716881131729725500000017723154003470412209_"  style="overflow:visible;fill:#81AC40;"/>
					<clipPath id="SVGID_00000109743940041103930550000016867580055841371285_">
						<use xlink:href="#SVGID_00000091716881131729725500000017723154003470412209_"  style="overflow:visible;"/>
					</clipPath>
				</g>
				<g>
					<defs>
						<path id="SVGID_00000156588928778798111750000015550080264409883299_" d="M217.35,93.65c6.75,16.82,33.63,28.28,71.2,29.47
							c37.58,1.19,50.27,9.6,75.87,40.84c-31.17-9.6-46.32,6.2-46.32,6.2c-7.64-22.2-25.9-10.02-25.9-10.02
							c-23.65-53.28-132.69-23.48-153.45-60.93c-0.72-3.36-1.78-6.24-2.97-8.83v-0.04c-7.6-17.03-21.95-20.13-21.95-20.13
							c22.8-19.62,42.46-22.72,64.71-21.1C209.58,54.63,210.64,76.83,217.35,93.65z"/>
					</defs>
					<use xlink:href="#SVGID_00000156588928778798111750000015550080264409883299_"  style="overflow:visible;fill:#BDD633;"/>
					<clipPath id="SVGID_00000029026494404727887390000013758637177424432816_">
						<use xlink:href="#SVGID_00000156588928778798111750000015550080264409883299_"  style="overflow:visible;"/>
					</clipPath>
				</g>
				<g>
					<defs>
						<path id="SVGID_00000092414796702401031330000001363610746048253887_" d="M292.21,160.14c-12.78-18.26-37.41-2.84-50.27,15.76
							c0.6-1.83,7.73-26.97-35.96-30.44c-45.35-3.61-63.82-18-65.86-38.3c-0.3-2.89-0.76-5.56-1.36-7.94
							C159.52,136.66,268.56,106.86,292.21,160.14z"/>
					</defs>
					<use xlink:href="#SVGID_00000092414796702401031330000001363610746048253887_"  style="overflow:visible;fill:#81AC40;"/>
					<clipPath id="SVGID_00000067919540874304832310000008796336854080513183_">
						<use xlink:href="#SVGID_00000092414796702401031330000001363610746048253887_"  style="overflow:visible;"/>
					</clipPath>
				</g>
				<g>
					<defs>
						<path id="SVGID_00000088818644494339690250000015242896557947343796_" d="M205.97,145.45c43.69,3.48,36.56,28.62,35.96,30.44
							c-0.04,0.04-0.04,0.08-0.04,0.08s-13.25-16.98-31.25,0c-14.86,14.05-38.34,35.24-69.17,37.7
							c26.45-14.27,33.29-54.35,9.98-68.23c-23.27-13.89-92.14,3.27-105.9-51.8c22.25-41.31,68.27-23.43,68.27-23.43
							s14.35,3.1,21.95,20.13v0.04c0.55,3.27,1.53,6.2,2.97,8.83c0.6,2.38,1.06,5.05,1.36,7.94
							C142.16,127.45,160.62,141.84,205.97,145.45z"/>
					</defs>
					<use xlink:href="#SVGID_00000088818644494339690250000015242896557947343796_"  style="overflow:visible;fill:#BDD633;"/>
					<clipPath id="SVGID_00000168797467444286497070000016526359165077496489_">
						<use xlink:href="#SVGID_00000088818644494339690250000015242896557947343796_"  style="overflow:visible;"/>
					</clipPath>
				</g>
				<g>
					<defs>
						<path id="SVGID_00000065062589197270473840000013297043978650649010_" d="M45.56,93.65c13.76,55.07,82.63,37.92,105.9,51.8
							c23.31,13.88,16.47,53.97-9.98,68.23c-5.52,0.47-11.3,0.3-17.28-0.6c-11.12-21.74-33.97-12.95-33.97-25.35
							c0-10.4-9.47-26.33-25.14-18.55h-0.08C28.96,153.52,18.94,119.55,45.56,93.65z"/>
					</defs>
					<use xlink:href="#SVGID_00000065062589197270473840000013297043978650649010_"  style="overflow:visible;fill:#81AC40;"/>
					<clipPath id="SVGID_00000036949112933275822430000006362834720234068670_">
						<use xlink:href="#SVGID_00000065062589197270473840000013297043978650649010_"  style="overflow:visible;"/>
					</clipPath>
				</g>
				<path class="st5" d="M65.01,169.19c-3.18,1.57-6.67,4.12-10.32,7.94c0,0-21.61-3.02-37.2-29.81
					C1.87,120.57,45.56,93.65,45.56,93.65C18.94,119.55,28.96,153.52,65.01,169.19z"/>
				<path class="st5" d="M90.23,187.74c0,12.4,22.84,3.61,33.97,25.35c-1.27-0.17-2.55-0.42-3.82-0.68
					c-29.38,2.67-53.46-9.77-65.68-35.28c3.65-3.82,7.13-6.37,10.32-7.94h0.08C80.76,161.41,90.23,177.34,90.23,187.74z"/>
			</g>
			<g>
				<path class="st6" d="M221.81,94.92c13.89,22,66.37,31.97,117.15,15.84c41.57-13.2,55.37-37.53,50.65-62.07
					c4.33,13.25,10.44,73.03-71.5,82.2C252.63,138.19,228.77,107.53,221.81,94.92z"/>
				<path class="st7" d="M389.61,48.69c4.71,24.54-9.09,48.87-50.65,62.07c-50.78,16.13-103.26,6.16-117.15-15.84
					c-0.25-0.42-0.51-0.89-0.72-1.27c-0.59-1.23-1.02-2.17-1.31-2.84c-0.26-0.68-0.38-1.06-0.38-1.06
					c-6.84-20.85,2.55-48.36,46.7-73.11c44.11-24.8,93.75-21.95,113.92,9.13C384.9,33.14,388.21,40.92,389.61,48.69z M346.43,83.25
					c23.06-12.19,24.93-49.97,0-61.06c-24.92-11.08-78.59,2.76-74.34,44.28C275.31,98.32,323.33,95.35,346.43,83.25z"/>
				<g>
					<defs>
						<path id="SVGID_00000138545195165556208200000004469715689914415294_" d="M346.43,22.19c24.93,11.08,23.06,48.87,0,61.06
							c-23.1,12.1-71.12,15.07-74.34-16.77C267.83,24.95,321.5,11.11,346.43,22.19z"/>
					</defs>
					<use xlink:href="#SVGID_00000138545195165556208200000004469715689914415294_"  style="overflow:visible;fill:#FCB017;"/>
					<clipPath id="SVGID_00000023256244661030792280000016878859567952666029_">
						<use xlink:href="#SVGID_00000138545195165556208200000004469715689914415294_"  style="overflow:visible;"/>
					</clipPath>
				</g>
			</g>
			<g>
				<path class="st6" d="M54.22,80.32c13.08,35.24,96.01,72.94,148.31,48.28c22.63-10.66,34.47-29,35.88-47.39h0.04
					c-1.32,43.27-41.87,74.22-92.94,65.17C96.68,137.72,63.73,110.3,54.22,80.32z"/>
				<path class="st7" d="M195.44,27.58c30.32,8.15,44.75,30.87,42.97,53.63c-1.4,18.39-13.25,36.73-35.88,47.39
					C150.22,153.26,67.3,115.56,54.22,80.32c-0.25-0.77-0.47-1.49-0.72-2.17c-0.17-0.85-0.38-1.66-0.59-2.42
					c-1.06-5.64-0.3-11.08,2.89-16.13C79.06,22.07,157.57,17.39,195.44,27.58z M186.61,113.22c31.12-14.82,33.5-60.54-1.7-68.36
					c-40.76-9.04-75.75,6.5-75.7,34.35C109.25,99.85,155.49,128,186.61,113.22z"/>
				<path class="st8" d="M184.91,44.87c35.2,7.81,32.82,53.54,1.7,68.36c-31.13,14.78-77.36-13.37-77.4-34.01
					C109.16,51.36,144.15,35.82,184.91,44.87z"/>
			</g>
		</g>
	</g>
</g>
</svg>
