<?xml version="1.0" encoding="utf-8"?>
<!-- Generator: Adobe Illustrator 25.4.1, SVG Export Plug-In . SVG Version: 6.00 Build 0)  -->
<svg version="1.1" id="Layer_1" xmlns="http://www.w3.org/2000/svg" xmlns:xlink="http://www.w3.org/1999/xlink" x="0px" y="0px"
	 viewBox="0 0 410.26 285.1" style="enable-background:new 0 0 410.26 285.1;" xml:space="preserve">
<style type="text/css">
	.st0{fill:#EC7123;}
	.st1{fill:#F5B032;}
	.st2{fill:#F59337;}
	.st3{fill:#F5E7C6;}
	.st4{fill:#F4E6C6;}
	.st5{fill:#EC7B27;}
	.st6{fill:#E99C27;}
	.st7{fill:#F2B741;}
</style>
<g>
	<g>
		<path class="st0" d="M407.95,72.46c-0.96,9.21-3.12,22.59-7.92,40.97c-0.06,0.19-0.1,0.38-0.17,0.57
			c-2.27,8.17-5.69,16.26-9.85,23.54c-3.61,6.33-6.13,14.2-8.07,22.63c2.47-18.17,5.54-37.64,13.08-50.93
			C401.41,98.02,406.21,84.98,407.95,72.46z"/>
		<path class="st1" d="M376.85,190.92c-2.89,21.44-5.6,39.74-15.75,40.27c-18.91,1-66.47-29.91-126.78-24.16
			c-30.27,2.87-41.95-1.55-46.07-8.68c-0.34-0.68-0.64-1.38-0.93-2.04c-8.43-18.37-6.8-32.08-6.8-32.08
			c0.15,12.23,7.33,22.25,50.61,18.13c63.5-6.05,113.51,26.5,133.43,25.45C370.75,207.46,374.32,200.84,376.85,190.92z"/>
		<path class="st2" d="M408.48,57.9c0.15,2.48,0.21,7.17-0.53,14.57c-1.74,12.52-6.54,25.56-12.93,36.79
			c-7.53,13.29-10.61,32.76-13.08,50.93c-2.23,9.9-3.67,20.63-5.05,30.66c0,0.04-0.04,0.09-0.04,0.09
			c-2.53,9.91-6.09,16.53-12.29,16.9c-19.91,1.04-69.93-31.5-133.43-25.45c-43.29,4.12-50.47-5.9-50.61-18.13
			c0-3.01,0.4-6.2,0.79-9.32c2-15.58,8.98-45.94,8.53-64.81c-1.1-45.92-13.37-66.96,10.63-83.71c17.53-12.29,53.1-5.8,89.61,10.45
			c23.67,10.55,60.95-0.64,90.23,6.53c18.03,4.37,26.24,16.94,27.98,32.29c0,0,0,0.11,0.04,0.36c0.04,0.34,0.1,0.64,0.1,0.98
			C408.44,57.26,408.48,57.56,408.48,57.9z"/>
		<path class="st3" d="M363.6,203.24c-6.14,0-16.5-3.61-28.47-7.81c-22.23-7.77-52.65-18.41-88.08-18.41
			c-5.48,0-10.98,0.26-16.35,0.77c-6.41,0.62-12.23,0.91-17.28,0.91c-28.13,0-28.24-9.09-28.3-14.52c0-2.7,0.38-5.73,0.74-8.68
			c0.61-4.69,1.7-11,2.87-17.66c2.67-15.29,6.01-34.33,5.69-47.85c-0.3-12.99-1.48-23.86-2.53-33.46
			c-2.57-23.87-3.86-35.84,11.21-46.35c5.27-3.69,12.78-5.56,22.36-5.56c16.64,0,38.91,5.84,62.76,16.43
			c10.34,4.63,22.71,5.23,32.31,5.23c5.43,0,11.1-0.23,16.58-0.45c5.58-0.21,11.36-0.43,16.94-0.43c10.34,0,18.32,0.79,25.16,2.47
			c14.52,3.5,22.76,12.99,24.5,28.23c0.02,0.21,0.07,0.43,0.09,0.68l0.06,0.32c0,0.15,0,0.4,0.02,0.66l0.02,0.17v0.25
			c0.13,2,0.21,6.43-0.53,13.76c-1.57,11.38-5.97,23.82-12.34,35.05c-7.86,13.82-11.04,33.46-13.63,52.37
			c-2.12,9.55-3.52,19.64-4.86,29.38l-0.15,1.06c-2.23,8.73-4.95,13.25-8.09,13.42C364.09,203.24,363.83,203.24,363.6,203.24z"/>
		<path class="st4" d="M363.6,203.24c-6.14,0-16.5-3.61-28.47-7.81c-22.23-7.77-52.65-18.41-88.08-18.41
			c-5.48,0-10.98,0.26-16.35,0.77c-6.41,0.62-12.23,0.91-17.28,0.91c-28.13,0-28.24-9.09-28.3-14.52c0-2.7,0.38-5.73,0.74-8.68
			c0.61-4.69,1.7-11,2.87-17.66c2.67-15.29,6.01-34.33,5.69-47.85c-0.3-12.99-1.48-23.86-2.53-33.46
			c-2.57-23.87-3.86-35.84,11.21-46.35c5.27-3.69,12.78-5.56,22.36-5.56c16.64,0,38.91,5.84,62.76,16.43
			c10.34,4.63,22.71,5.23,32.31,5.23c5.43,0,11.1-0.23,16.58-0.45c5.58-0.21,11.36-0.43,16.94-0.43c10.34,0,18.32,0.79,25.16,2.47
			c14.52,3.5,22.76,12.99,24.5,28.23c0.02,0.21,0.07,0.43,0.09,0.68l0.06,0.32c0,0.15,0,0.4,0.02,0.66l0.02,0.17v0.25
			c0.13,2,0.21,6.43-0.53,13.76c-1.57,11.38-5.97,23.82-12.34,35.05c-7.86,13.82-11.04,33.46-13.63,52.37
			c-2.12,9.55-3.52,19.64-4.86,29.38l-0.15,1.06c-2.23,8.73-4.95,13.25-8.09,13.42C364.09,203.24,363.83,203.24,363.6,203.24z"/>
	</g>
	<g>
		<path class="st5" d="M282.14,184.6c-1.13,3.71-3.57,12.46-5.01,23.86c1.55,7.34-11.19,8.37-53.77,26.53
			c-50.36,21.47-82.07,43.99-104.45,49.98l-0.89-24.08c23.27-6.22,56.26-29.59,108.65-51.95C264.01,193,279.21,189.73,282.14,184.6z
			"/>
		<path class="st1" d="M118.01,260.89l0.89,24.08c-12.82,3.44-56.3-64.29-65.81-86.41c-7.88-18.28-31.8-28.09-42.7-48.89
			C1.29,137.59,0.1,114.11,0,104.16c0.04,0.19,0.04,0.4,0.1,0.59c5.14,33.18,50.06,48.74,59.91,71.71
			C69.93,199.5,104.7,264.52,118.01,260.89z"/>
		<path class="st2" d="M280.36,176.42c1.59,2.67,2.44,4.65,2.33,6.35c0,0.04,0,0.08-0.04,0.13c-0.1,0.26-0.25,0.85-0.51,1.63v0.07
			c-2.93,5.13-18.13,8.4-55.47,24.35c-52.39,22.36-85.38,45.73-108.65,51.95c-13.31,3.63-48.08-61.4-58-84.43
			c-9.85-22.97-54.77-38.53-59.91-71.71c-0.07-0.19-0.07-0.4-0.1-0.59c0-2.87,0.04-4.61,0.04-4.61C3.9,69.93,80.97,55.44,97.5,50.49
			c33.1-9.87,57.22-33.73,89.44-28.45c34.73,5.75,27.74,46.96,41.65,65.83C242.53,106.72,272.78,163.64,280.36,176.42z"/>
		<path class="st3" d="M116.87,256.46c-0.42-0.04-7.43-1.19-26.13-31.7c-10.83-17.62-21.51-38.53-26.5-50.12
			c-4.57-10.64-15.27-19.32-26.62-28.51c-14.86-12.06-30.25-24.52-32.97-42.08c0,0-0.04-0.25-0.07-0.27
			c0.02-1.97,0.04-3.31,0.04-3.84c3.25-22.12,59.47-36.22,83.52-42.25c4.59-1.15,8.22-2.06,10.68-2.8
			c12.21-3.63,23.06-9.04,33.57-14.27c15.22-7.58,29.61-14.73,45.33-14.73c2.82,0,5.69,0.23,8.49,0.7
			c19.8,3.27,24.01,19.85,28.45,37.38c2.55,9.98,4.93,19.4,10.25,26.62c9.94,13.48,28.6,47.11,40.93,69.38
			c4.73,8.51,8.47,15.24,10.57,18.79c1.17,1.97,1.53,2.97,1.63,3.42c0,0.07-0.09,0.34-0.13,0.43c-1.66,1.78-9.64,4.84-18.81,8.36
			c-8.28,3.19-19.63,7.54-34.24,13.76c-25.69,10.96-47.04,22.31-64.22,31.44C142.58,245.78,128.29,253.38,116.87,256.46z"/>
		<g>
			<g>
				<path class="st6" d="M175.87,208.46c0,0-16.35,14.37-42.73,20.1c-14.12,3.08-17.35-3.4-19.77-11.19
					c4.05-24.2,47.38-34.71,47.38-34.71C158.37,190.58,161.9,199.1,175.87,208.46z"/>
				<path class="st7" d="M172.83,137c22.06-17.43,56.66-14.52,36.03,3.61c-13.93,12.23-43.35,25.75-48.11,42.06
					c0,0-43.33,10.51-47.38,34.71c-2.08-6.73-3.57-14.35-11.04-17.47c-8.77-3.71-15.16-9.36-19.23-16.9
					c20.95-30.95,29.27-32.88,50.42-33.33C154.72,149.23,150.79,154.38,172.83,137z"/>
				<g>
					<defs>
						<path id="SVGID_1_" d="M210.43,82.23c0.51,2.31,0.89,4.5,1.3,6.62c-44.43,31.61-46.41,11.55-67.15,14.97
							c23.71-4.5,39.4-23.48,65.81-21.59H210.43z"/>
					</defs>
					<use xlink:href="#SVGID_1_"  style="overflow:visible;fill:#F2B741;"/>
					<clipPath id="SVGID_00000170986429739548857400000015208871936969446329_">
						<use xlink:href="#SVGID_1_"  style="overflow:visible;"/>
					</clipPath>
				</g>
				<path class="st6" d="M236.77,127.83c26.6,15.94,27.9,39.53,0,58.66c-27.92,19.11-60.91,21.97-60.91,21.97
					c-13.97-9.36-17.5-17.87-15.12-25.8c4.76-16.3,34.18-29.83,48.11-42.06c20.64-18.13-13.97-21.03-36.03-3.61
					c-22.04,17.39-18.11,12.23-39.32,12.67c-21.15,0.45-29.47,2.38-50.42,33.33c-3.36-6.24-5.03-13.67-5.24-22.33
					c-0.19-9.22-6.54-15.35-13.97-20.07c14.27-21.89,38.45-27.83,38.45-27.83s10.19,1.04,36.53-7.53c1.93-0.64,3.72-1.08,5.35-1.38
					c0.1,0,0.25-0.04,0.36-0.04c20.74-3.42,22.71,16.65,67.15-14.97C214.44,104.26,215.78,115.26,236.77,127.83z"/>
				<path class="st6" d="M210.38,82.23c-26.41-1.89-42.1,17.09-65.81,21.59c-0.11,0-0.26,0.04-0.36,0.04
					c-1.63,0.3-3.42,0.74-5.35,1.38c-26.34,8.57-36.53,7.53-36.53,7.53c2.12-37.39-59.44,15.05-44.63,24.22
					c-6.05-3.31-11.85-6.09-14.82-9.17c-7.67-7.92-14.35-25.46,12.44-38.98c26.75-13.52,62.29-3.12,85.96-18.32
					c49.68-31.8,61.23-17.87,67.57,5.05C209.49,77.85,209.98,80.1,210.38,82.23z"/>
				<g>
					<defs>
						<path id="SVGID_00000176009079119802388790000000676617007774162053_" d="M57.7,137c-14.82-9.17,46.75-61.61,44.63-24.22
							c0,0-24.18,5.94-38.45,27.83C61.9,139.33,59.78,138.12,57.7,137z"/>
					</defs>
					<use xlink:href="#SVGID_00000176009079119802388790000000676617007774162053_"  style="overflow:visible;fill:#F2B741;"/>
					<clipPath id="SVGID_00000031923686991902436520000012127232336938710439_">
						<use xlink:href="#SVGID_00000176009079119802388790000000676617007774162053_"  style="overflow:visible;"/>
					</clipPath>
				</g>
			</g>
			<g>
				<defs>
					<path id="SVGID_00000165946513162712812580000018335251869936122783_" d="M175.87,208.46c0,0-16.35,14.37-42.73,20.1
						c-14.12,3.08-17.35-3.4-19.77-11.19c4.05-24.2,47.38-34.71,47.38-34.71C158.37,190.58,161.9,199.1,175.87,208.46z"/>
				</defs>
				<clipPath id="SVGID_00000057856095678431246060000005980464499880059045_">
					<use xlink:href="#SVGID_00000165946513162712812580000018335251869936122783_"  style="overflow:visible;"/>
				</clipPath>
			</g>
		</g>
	</g>
</g>
</svg>
