<?xml version="1.0" encoding="utf-8"?>
<!-- Generator: Adobe Illustrator 25.4.1, SVG Export Plug-In . SVG Version: 6.00 Build 0)  -->
<svg version="1.1" id="Layer_1" xmlns="http://www.w3.org/2000/svg" xmlns:xlink="http://www.w3.org/1999/xlink" x="0px" y="0px"
	 viewBox="0 0 242.41 233.54" style="enable-background:new 0 0 242.41 233.54;" xml:space="preserve">
<style type="text/css">
	.st0{fill:#A3CF5F;}
	.st1{fill:#84C441;}
	.st2{fill:#49A947;}
	.st3{fill:#59B547;}
	.st4{fill:#61BB46;}
	.st5{display:none;}
	.st6{display:inline;}
	.st7{fill:#40A047;}
	.st8{fill:#F7901E;}
	.st9{fill:#F47421;}
</style>
<g>
	<g>
		<path class="st0" d="M102.62,80.1c0,0-1.14,60.69-8.01,67.57c-5.65-18.82-37.57-49.99-56.4-62.42c-0.29,0.47-0.57,0.94-0.85,1.41
			v25.17c1.95,1.24,3.57,2.31,4.39,3.08c11.97,11.12,21.25,23.9,25.95,39.47c7.72,25.55,17.02,56.64,16.51,79.15h35.58V80.1H102.62z
			"/>
		<path class="st1" d="M136.98,80.1c0,0,1.14,60.69,8.01,67.57c5.65-18.82,37.57-49.99,56.4-62.42c0.28,0.47,0.57,0.94,0.85,1.41
			v25.17c-1.95,1.24-3.57,2.31-4.39,3.08c-11.97,11.12-21.26,23.9-25.96,39.47c-7.72,25.55-17.02,56.64-16.52,79.15H119.8V80.1
			H136.98z"/>
	</g>
	<g>
		<path class="st2" d="M87.1,88.12c0,23.05-18.68,41.74-41.74,41.74c-23.06,0-41.74-18.7-41.74-41.74s18.68-41.75,41.74-41.75
			C68.42,46.37,87.1,65.07,87.1,88.12z"/>
		<path class="st3" d="M65.78,83.53c0,15.7-12.73,28.43-28.42,28.43c-15.7,0-28.42-12.73-28.42-28.43
			c0-15.69,12.72-28.42,28.42-28.42C53.05,55.12,65.78,67.84,65.78,83.53z"/>
	</g>
	<g>
		<path class="st2" d="M229.81,54.84c0,30.3-24.56,54.85-54.85,54.85c-30.29,0-54.85-24.55-54.85-54.85
			C120.11,24.55,144.67,0,174.96,0C205.25,0,229.81,24.55,229.81,54.84z"/>
		<path class="st3" d="M201.78,48.82c0,20.63-16.72,37.35-37.34,37.35c-20.63,0-37.35-16.72-37.35-37.35
			c0-20.63,16.72-37.35,37.35-37.35C185.05,11.47,201.78,28.19,201.78,48.82z"/>
	</g>
	<g>
		<path class="st2" d="M137.23,61.06c0,31.28-25.36,56.62-56.62,56.62c-31.27,0-56.63-25.35-56.63-56.62S49.33,4.42,80.61,4.42
			C111.88,4.42,137.23,29.79,137.23,61.06z"/>
		<path class="st3" d="M108.29,54.84c0,21.29-17.26,38.56-38.55,38.56c-21.29,0-38.56-17.27-38.56-38.56
			c0-21.29,17.27-38.54,38.56-38.54C91.03,16.29,108.29,33.55,108.29,54.84z"/>
	</g>
	<g>
		<path class="st2" d="M174.96,65.63c0,23.06-18.68,41.75-41.74,41.75c-23.05,0-41.74-18.68-41.74-41.75
			c0-23.05,18.69-41.73,41.74-41.73C156.28,23.9,174.96,42.59,174.96,65.63z"/>
		<path class="st4" d="M153.62,61.06c0,15.69-12.72,28.41-28.41,28.41c-15.7,0-28.42-12.72-28.42-28.41
			c0-15.7,12.73-28.43,28.42-28.43C140.9,32.63,153.62,45.36,153.62,61.06z"/>
	</g>
	<g>
		<path class="st2" d="M242.41,96.86c0,23.05-18.69,41.73-41.75,41.73c-23.05,0-41.74-18.68-41.74-41.73
			c0-23.06,18.69-41.75,41.74-41.75C223.72,55.12,242.41,73.8,242.41,96.86z"/>
		<path class="st4" d="M221.08,92.28c0,15.69-12.73,28.41-28.42,28.41c-15.7,0-28.42-12.73-28.42-28.41
			c0-15.69,12.72-28.42,28.42-28.42C208.35,63.86,221.08,76.59,221.08,92.28z"/>
	</g>
</g>
<g class="st5">
	<g class="st6">
		<g>
			<path class="st2" d="M-50.43,45.67L-50.43,45.67c2.02-5.37-5-9.44-8.66-5.03l-29.87,35.99c-2.6,3.13-7.62,2.09-8.77-1.8l-4-13.54
				c-1.59-5.37-9.42-4.6-9.92,0.97l-8.03,87.86l11.73,9.35l64.82-107.72C-47.07,54.13-52.16,50.27-50.43,45.67z"/>
		</g>
		<g>
			<path class="st7" d="M-21,139.91l-18.23-6.34c-3.71-1.28-4.61-6.12-1.62-8.66l36.6-31.16c3.8-3.23,1.16-9.41-3.8-8.91
				l-19.17,1.95c-4.16,0.41-7.02-4.08-4.86-7.67l28.57-47.48c2.96-4.91-3.21-10.19-7.61-6.52l-31.31,26.22
				c-0.23,0.18-0.47,0.27-0.71,0.41l-64.82,107.72l24.31,19.39l63.13-29.56C-16.38,147.37-16.69,141.4-21,139.91z"/>
		</g>
	</g>
	<g class="st6">
		<path class="st8" d="M-104.84,157.18c-4.48-3.16-9.42-5.6-14.84-7.05c-22.17-5.94-46.07,5.6-61.23,22.83
			c-15.17,17.24-23.38,39.34-31.28,60.88c-31.77,86.72-63.54,173.42-95.31,260.13L-104.84,157.18z"/>
	</g>
	<g class="st6">
		<path class="st9" d="M-104.84,157.18c4.87,2.48,9.36,5.71,13.18,9.81c15.63,16.81,16.63,43.34,8.5,64.79
			c-8.13,21.47-23.8,39.08-39.15,56.15c-61.73,68.69-123.46,137.36-185.18,206.04L-104.84,157.18z"/>
	</g>
	<g class="st6">
		<path class="st9" d="M-148.58,192.77l-22.77-13.7c-2.09-1.25-2.76-3.97-1.5-6.06c1.25-2.09,3.97-2.77,6.06-1.5l22.77,13.7
			c2.09,1.25,2.76,3.97,1.51,6.06C-143.77,193.36-146.49,194.04-148.58,192.77z"/>
	</g>
	<g class="st6">
		<path class="st9" d="M-156.72,237.76l-21.5-12.95c-2.09-1.25-2.77-3.97-1.51-6.06c1.26-2.09,3.97-2.77,6.07-1.52l21.51,12.95
			c2.09,1.25,2.76,3.97,1.5,6.06C-151.92,238.34-154.63,239.01-156.72,237.76z"/>
	</g>
	<g class="st6">
		<path class="st9" d="M-196.04,277.74l-16.61-10c-2.09-1.25-2.76-3.98-1.5-6.07c1.26-2.08,3.97-2.76,6.07-1.5l16.6,10
			c2.09,1.25,2.77,3.97,1.51,6.06C-191.24,278.31-193.95,278.99-196.04,277.74z"/>
	</g>
	<g class="st6">
		<path class="st9" d="M-215.51,329.66l-18.94-11.4c-2.09-1.25-2.77-3.98-1.51-6.06c1.26-2.09,3.97-2.77,6.07-1.52l18.94,11.4
			c2.09,1.25,2.76,3.98,1.51,6.07C-210.7,330.23-213.42,330.91-215.51,329.66z"/>
	</g>
	<g class="st6">
		<path class="st8" d="M-98.44,212.63l-20.36-12.25c-2.09-1.27-2.77-3.98-1.51-6.07c1.26-2.09,3.97-2.76,6.07-1.51l20.36,12.25
			c2.09,1.25,2.76,3.97,1.5,6.06C-93.63,213.21-96.35,213.89-98.44,212.63z"/>
	</g>
	<g class="st6">
		<path class="st8" d="M-107.74,244.87l-22.72-13.67c-2.09-1.27-2.77-3.98-1.51-6.07c1.26-2.09,3.97-2.76,6.07-1.5l22.73,13.67
			c2.09,1.27,2.76,3.98,1.5,6.08C-102.93,245.46-105.64,246.14-107.74,244.87z"/>
	</g>
	<g class="st6">
		<path class="st8" d="M-144.19,288.29l-20.2-12.15c-2.09-1.27-2.76-3.98-1.5-6.08c1.25-2.09,3.97-2.76,6.07-1.5l20.2,12.15
			c2.09,1.27,2.76,3.98,1.51,6.08C-139.37,288.88-142.1,289.55-144.19,288.29z"/>
	</g>
	<g class="st6">
		<path class="st8" d="M-179.61,327.18l-11.37-6.84c-2.09-1.27-2.76-3.98-1.5-6.07c1.25-2.09,3.97-2.76,6.07-1.5l11.36,6.84
			c2.09,1.25,2.76,3.97,1.51,6.06C-174.81,327.75-177.53,328.43-179.61,327.18z"/>
	</g>
	<g class="st6">
		<path class="st8" d="M-215.31,369.34l-8.84-5.32c-2.09-1.25-2.76-3.98-1.51-6.06c1.25-2.09,3.97-2.77,6.07-1.52l8.83,5.32
			c2.09,1.25,2.77,3.98,1.51,6.07C-210.5,369.91-213.21,370.59-215.31,369.34z"/>
	</g>
</g>
</svg>
