<?xml version="1.0" encoding="utf-8"?>
<!-- Generator: Adobe Illustrator 25.4.1, SVG Export Plug-In . SVG Version: 6.00 Build 0)  -->
<svg version="1.1" id="Layer_1" xmlns="http://www.w3.org/2000/svg" xmlns:xlink="http://www.w3.org/1999/xlink" x="0px" y="0px"
	 viewBox="0 0 226.53 173.31" style="enable-background:new 0 0 226.53 173.31;" xml:space="preserve">
<style type="text/css">
	.st0{fill:#ACCA37;}
	.st1{fill:#CDDE59;}
	.st2{fill:#A4BB3A;}
	.st3{fill:#94A139;}
	.st4{fill:#EEEB6F;}
	.st5{fill:#929F39;}
	.st6{fill:#8F9C39;}
</style>
<g>
	<g>
		<path class="st0" d="M108.23,9.93l56.63,70.8c-19.55,15.64-48.08,12.47-63.72-7.09C85.5,54.1,88.68,25.57,108.23,9.93z"/>
		<path class="st1" d="M155.54,75.81c0,0-21.38-11.82-51.9-11.42c0,0,19.27-15.09,51.22-0.21L155.54,75.81z"/>
		<path class="st1" d="M149.41,60.67c0,0-20.25-11.55-48.39-12.55c0,0,17.1-12.66,47.24,2.1L149.41,60.67z"/>
		<path class="st2" d="M171.95,17.02c15.64,19.55,12.47,48.08-7.09,63.72l-56.63-70.8C127.78-5.71,156.31-2.53,171.95,17.02z"/>
		<path class="st1" d="M113.86,16.97L113.86,16.97L113.86,16.97L113.86,16.97L113.86,16.97c0.05,0.16,9.38,29.54,34.56,58.96
			c0,0,7.92,9.3,16.44,4.8c6.26-7.32-1.07-17.09-1.07-17.09C140.61,32.61,114,17.05,113.86,16.97z"/>
		<path class="st2" d="M166.44,82.71c0,0-40.45,27.19-70.35-8.4C96.09,74.32,140.71,50.55,166.44,82.71z"/>
		<path class="st1" d="M162.1,70.56c0,0-6.84-23.45,0.27-53.14c0,0-18.96,15.48-11.46,49.93L162.1,70.56z"/>
		<path class="st1" d="M148.68,61.26c0,0-6.82-22.29-1.62-49.96c0,0-16.11,13.9-8.33,46.55L148.68,61.26z"/>
		<path class="st3" d="M166.44,82.71c0,0,35.41-33.49,7.27-70.48C173.71,12.23,140.71,50.55,166.44,82.71z"/>
	</g>
	<g>
		<g>
			<path class="st2" d="M82.7,118.97c0,22.93-18.62,41.35-41.35,41.35V77.62C64.1,77.62,82.7,96.05,82.7,118.97z"/>
			<path class="st0" d="M41.35,77.62v82.69C18.6,160.31,0,141.88,0,118.97C0,96.05,18.6,77.62,41.35,77.62z"/>
		</g>
		<g>
			<path class="st1" d="M51.7,114.51H31c-2.28-17.04,1.7-29.34,5.38-36.58c1.63-0.2,3.29-0.3,4.97-0.3c1.68,0,3.34,0.1,4.97,0.3
				C49.99,85.16,53.98,97.46,51.7,114.51z"/>
			<path class="st1" d="M46.33,160.01L46.33,160.01c-1.64,0.2-3.3,0.3-4.98,0.3c-1.69,0-3.35-0.1-4.97-0.3h-0.01
				c-3.67-7.23-7.65-19.53-5.37-36.57h20.7C53.98,140.48,49.99,152.78,46.33,160.01z"/>
		</g>
		<path class="st1" d="M65.47,118.97c0,13.32-10.8,24.12-24.12,24.12s-24.12-10.8-24.12-24.12c0-13.32,10.8-24.13,24.12-24.13
			S65.47,105.65,65.47,118.97z"/>
		<path class="st4" d="M56.44,118.97c0,8.33-6.76,15.09-15.09,15.09c-8.33,0-15.09-6.76-15.09-15.09c0-8.34,6.76-15.09,15.09-15.09
			C49.68,103.88,56.44,110.63,56.44,118.97z"/>
		<g>
			<path class="st1" d="M43.61,85.09c9.07-0.83,21.15,1.66,21.49,14.01c0,0-8.3-7.79-19.13-6.68L43.61,85.09z"/>
			<path class="st1" d="M38.99,85.09c-9.07-0.83-21.15,1.66-21.49,14.01c0,0,8.3-7.79,19.13-6.68L38.99,85.09z"/>
		</g>
		<g>
			<path class="st1" d="M39.09,152.86c-9.07,0.82-21.15-1.66-21.49-14.01c0,0,8.3,7.79,19.13,6.69L39.09,152.86z"/>
			<path class="st1" d="M43.71,152.86c9.07,0.82,21.15-1.66,21.49-14.01c0,0-8.3,7.79-19.13,6.69L43.71,152.86z"/>
		</g>
	</g>
	<g>
		<g>
			<path class="st2" d="M119.61,55.81c0,22.93-18.61,41.35-41.35,41.35v-82.7C101.01,14.46,119.61,32.89,119.61,55.81z"/>
			<path class="st0" d="M78.26,14.46v82.7c-22.75,0-41.35-18.43-41.35-41.35C36.91,32.89,55.51,14.46,78.26,14.46z"/>
		</g>
		<g>
			<path class="st1" d="M88.61,51.35h-20.7c-2.28-17.05,1.7-29.34,5.38-36.58c1.63-0.2,3.29-0.31,4.97-0.31
				c1.68,0,3.34,0.1,4.97,0.31C86.91,22.01,90.89,34.3,88.61,51.35z"/>
			<path class="st1" d="M83.24,96.86L83.24,96.86c-1.64,0.2-3.3,0.3-4.98,0.3c-1.68,0-3.35-0.1-4.97-0.3h-0.01
				c-3.67-7.24-7.65-19.54-5.37-36.58h20.7C90.89,77.32,86.91,89.62,83.24,96.86z"/>
		</g>
		<path class="st1" d="M102.38,55.81c0,13.32-10.8,24.12-24.12,24.12c-13.32,0-24.12-10.8-24.12-24.12
			c0-13.32,10.8-24.13,24.12-24.13C91.58,31.69,102.38,42.49,102.38,55.81z"/>
		<path class="st4" d="M93.35,55.81c0,8.33-6.76,15.09-15.09,15.09c-8.33,0-15.09-6.76-15.09-15.09c0-8.34,6.76-15.09,15.09-15.09
			C86.59,40.72,93.35,47.48,93.35,55.81z"/>
		<g>
			<path class="st1" d="M80.52,21.93c9.07-0.82,21.15,1.66,21.49,14.01c0,0-8.31-7.79-19.14-6.69L80.52,21.93z"/>
			<path class="st1" d="M75.9,21.93c-9.07-0.82-21.15,1.66-21.49,14.01c0,0,8.3-7.79,19.14-6.69L75.9,21.93z"/>
		</g>
		<g>
			<path class="st1" d="M76,89.7c-9.07,0.83-21.15-1.66-21.49-14.01c0,0,8.3,7.79,19.13,6.69L76,89.7z"/>
			<path class="st1" d="M80.62,89.7c9.07,0.83,21.15-1.66,21.49-14.01c0,0-8.3,7.79-19.13,6.69L80.62,89.7z"/>
		</g>
	</g>
	<g>
		<path class="st0" d="M109.99,59.38v90.66c-25.04,0-45.33-20.29-45.33-45.33C64.66,79.67,84.96,59.38,109.99,59.38z"/>
		<path class="st1" d="M105.79,140.37c0,0-9.31-22.58-33.4-41.34c0,0,24.47,0.25,40.14,31.83L105.79,140.37z"/>
		<path class="st1" d="M110.46,124.72c0,0-8.59-21.67-29.95-40.03c0,0,21.26,0.79,35.58,31.15L110.46,124.72z"/>
		<path class="st5" d="M155.33,104.71c0,25.04-20.3,45.33-45.33,45.33V59.38C135.03,59.38,155.33,79.67,155.33,104.71z"/>
		<path class="st1" d="M110,68.39L110,68.39L110,68.39L110,68.39L110,68.39c-0.06,0.15-11.13,28.93-9.84,67.64
			c0,0,0.38,12.2,9.84,14.01c9.46-1.81,9.84-14.01,9.84-14.01C121.12,97.31,110.05,68.54,110,68.39z"/>
		<path class="st6" d="M109.99,152.57c0,0-48.57-4.03-49.7-50.5C60.3,102.07,109.99,111.38,109.99,152.57z"/>
		<path class="st1" d="M114.19,140.37c0,0,9.31-22.58,33.4-41.34c0,0-24.47,0.25-40.14,31.83L114.19,140.37z"/>
		<path class="st1" d="M109.52,124.72c0,0,8.6-21.67,29.95-40.03c0,0-21.26,0.79-35.58,31.15L109.52,124.72z"/>
		<path class="st3" d="M109.99,152.57c0,0,48.57-4.03,49.7-50.5C159.69,102.07,109.99,111.38,109.99,152.57z"/>
	</g>
	<g>
		<path class="st0" d="M209.05,78.7l-54.66,72.34c-19.98-15.09-23.93-43.52-8.84-63.5C160.64,67.56,189.07,63.61,209.05,78.7z"/>
		<path class="st1" d="M156.86,140.79c0,0,6.19-23.63-1.73-53.12c0,0,19.37,14.95,12.83,49.59L156.86,140.79z"/>
		<path class="st1" d="M170.03,131.12c0,0,6.21-22.47,0.24-49.99c0,0,16.48,13.45,9.61,46.3L170.03,131.12z"/>
		<path class="st2" d="M217.88,142.2c-15.09,19.98-43.52,23.93-63.5,8.84l54.66-72.34C229.02,93.79,232.98,122.23,217.88,142.2z"/>
		<path class="st1" d="M203.62,85.89L203.62,85.89L203.62,85.89L203.62,85.89L203.62,85.89c-0.14,0.08-26.32,16.37-48.63,48.03
			c0,0-7.06,9.96-0.6,17.11c8.64,4.26,16.3-5.25,16.3-5.25C195.05,115.68,203.57,86.05,203.62,85.89z"/>
		<path class="st2" d="M152.86,153.06c0,0-36.32-32.5-9.2-70.25C143.66,82.8,177.69,120.19,152.86,153.06z"/>
		<path class="st1" d="M163.56,145.86c0,0,21.05-12.41,51.57-12.84c0,0-19.67-14.55-51.21,1.2L163.56,145.86z"/>
		<path class="st1" d="M169.27,130.55c0,0,19.92-12.1,48.02-13.88c0,0-17.44-12.19-47.16,3.4L169.27,130.55z"/>
		<path class="st3" d="M152.86,153.06c0,0,41.18,26.07,70.1-10.33C222.96,142.73,177.69,120.19,152.86,153.06z"/>
	</g>
	<g>
		<g>
			<path class="st2" d="M172.78,136.31c0,20.52-16.66,37-37,37v-74C156.13,99.31,172.78,115.81,172.78,136.31z"/>
			<path class="st0" d="M135.78,99.31v74c-20.36,0-37-16.49-37-37C98.78,115.8,115.42,99.31,135.78,99.31z"/>
		</g>
		<g>
			<path class="st1" d="M145.04,132.32h-18.53c-2.04-15.25,1.52-26.26,4.81-32.74c1.46-0.18,2.94-0.27,4.45-0.27
				c1.51,0,2.99,0.09,4.45,0.27C143.52,106.06,147.08,117.07,145.04,132.32z"/>
			<path class="st1" d="M140.24,173.04L140.24,173.04c-1.47,0.18-2.95,0.27-4.46,0.27c-1.51,0-2.99-0.09-4.45-0.27h-0.01
				c-3.28-6.48-6.84-17.48-4.81-32.73h18.53C147.08,155.56,143.52,166.57,140.24,173.04z"/>
		</g>
		<path class="st1" d="M157.37,136.32c0,11.92-9.66,21.59-21.59,21.59c-11.92,0-21.59-9.66-21.59-21.59
			c0-11.92,9.67-21.59,21.59-21.59C147.7,114.73,157.37,124.39,157.37,136.32z"/>
		<path class="st4" d="M149.28,136.32c0,7.46-6.05,13.5-13.5,13.5c-7.46,0-13.5-6.04-13.5-13.5c0-7.46,6.04-13.5,13.5-13.5
			C143.24,122.81,149.28,128.86,149.28,136.32z"/>
		<g>
			<path class="st1" d="M137.8,105.99c8.12-0.74,18.93,1.48,19.23,12.54c0,0-7.43-6.97-17.12-5.98L137.8,105.99z"/>
			<path class="st1" d="M133.67,105.99c-8.12-0.74-18.93,1.48-19.23,12.54c0,0,7.43-6.97,17.12-5.98L133.67,105.99z"/>
		</g>
		<g>
			<path class="st1" d="M133.76,166.64c-8.12,0.74-18.93-1.48-19.23-12.54c0,0,7.43,6.97,17.12,5.98L133.76,166.64z"/>
			<path class="st1" d="M137.89,166.64c8.12,0.74,18.92-1.48,19.23-12.54c0,0-7.43,6.97-17.12,5.98L137.89,166.64z"/>
		</g>
	</g>
</g>
</svg>
