<?xml version="1.0" encoding="utf-8"?>
<!-- Generator: Adobe Illustrator 25.4.1, SVG Export Plug-In . SVG Version: 6.00 Build 0)  -->
<svg version="1.1" id="Layer_1" xmlns="http://www.w3.org/2000/svg" xmlns:xlink="http://www.w3.org/1999/xlink" x="0px" y="0px"
	 viewBox="0 0 180.96 194.92" style="enable-background:new 0 0 180.96 194.92;" xml:space="preserve">
<style type="text/css">
	.st0{fill:#6B943E;}
	.st1{fill:#608038;}
	.st2{fill:#C61F4E;}
	.st3{fill:#A51C49;}
	.st4{fill:#EE2978;}
</style>
<g>
	<path class="st0" d="M39.73,53.31c0,0,1.4-18.63,25.6-18.63v10.18L39.73,53.31z"/>
	<path class="st1" d="M90.93,53.31c0,0-1.4-18.63-25.6-18.63v10.18L90.93,53.31z"/>
	<path class="st2" d="M65.33,44.87v110.73H48.74C-20.25,139.23-17.13,44.87,65.33,44.87L65.33,44.87z"/>
	<path class="st2" d="M81.93,155.59H48.74c5.84,5.77,9.52,14.26,9.42,23.8c-0.05,5.5,3.89,12.75,11.9,15.53l3.73-2.9
		C60.83,182.88,73.75,159.59,81.93,155.59L81.93,155.59z"/>
	<path class="st0" d="M47.62,41.54c0,0-6.42-14.14-14.98-23.3l5.27-4.68c0,0,6.62,4.97,18.25,24.3L47.62,41.54z"/>
	<path class="st0" d="M64.97,35.83c-1.17-6.64-4.31-22.89-8.8-33.87L50.6,4.18c0,0,3.87,19.11,5.57,34.63L64.97,35.83z"/>
	<path class="st1" d="M83.05,41.54c0,0,6.41-14.14,14.98-23.3l-5.27-4.68c0,0-6.62,4.97-18.26,24.3L83.05,41.54z"/>
	<path class="st1" d="M65.67,36c1.14-6.52,4.3-22.97,8.83-34.04l5.57,2.22c0,0-3.88,19.11-5.57,34.63L65.67,36z"/>
	<path class="st3" d="M81.94,155.59H65.33V44.87C147.81,44.87,150.9,139.23,81.94,155.59L81.94,155.59z"/>
	<path class="st2" d="M180.96,128.19c0,27.77-22.51,50.29-50.29,50.29c-27.77,0-50.29-22.52-50.29-50.29
		c0-27.77,22.52-50.29,50.29-50.29C158.44,77.9,180.96,100.42,180.96,128.19L180.96,128.19z"/>
	<path class="st4" d="M171.72,128.19c0,22.68-18.38,41.05-41.06,41.05c-22.67,0-41.05-18.38-41.05-41.05
		c0-22.67,18.38-41.06,41.05-41.06C153.34,87.13,171.72,105.51,171.72,128.19L171.72,128.19z"/>
	<path class="st2" d="M162.06,128.19c0,17.34-14.06,31.4-31.4,31.4c-17.34,0-31.39-14.06-31.39-31.4c0-17.34,14.06-31.4,31.39-31.4
		C148.01,96.79,162.06,110.85,162.06,128.19L162.06,128.19z"/>
	<path class="st4" d="M151.01,128.19c0,11.24-9.11,20.35-20.34,20.35c-11.23,0-20.34-9.11-20.34-20.35
		c0-11.24,9.11-20.34,20.34-20.34C141.9,107.84,151.01,116.95,151.01,128.19L151.01,128.19z"/>
	<path class="st2" d="M141.6,128.19c0,6.04-4.89,10.93-10.93,10.93c-6.03,0-10.93-4.89-10.93-10.93c0-6.03,4.89-10.93,10.93-10.93
		C136.7,117.26,141.6,122.15,141.6,128.19L141.6,128.19z"/>
</g>
</svg>
