<?xml version="1.0" encoding="utf-8"?>
<!-- Generator: Adobe Illustrator 25.4.1, SVG Export Plug-In . SVG Version: 6.00 Build 0)  -->
<svg version="1.1" id="Layer_1" xmlns="http://www.w3.org/2000/svg" xmlns:xlink="http://www.w3.org/1999/xlink" x="0px" y="0px"
	 viewBox="0 0 220.81 167.16" style="enable-background:new 0 0 220.81 167.16;" xml:space="preserve">
<style type="text/css">
	.st0{fill:#736140;}
	.st1{fill:#AD906D;}
	.st2{fill:#BC9E7C;}
	.st3{fill:#D8C198;}
</style>
<g>
	<polygon class="st0" points="108.44,133.83 69.47,133.83 67.42,151.2 72.9,148.1 77.5,151.2 83.24,148.1 88.95,151.2 94.67,148.1 
		100.41,151.2 105.01,148.1 110.49,151.2 	"/>
	<path class="st1" d="M177.28,85.86c-6.54-39.8-63.2-53.73-63.2-58.11c0-0.01,0-27.74,0-27.74H63.83c0,0,0,27.74,0,27.74
		c-0.01,4.38-56.67,18.31-63.2,58.11c-7.55,45.96,55.01,46.08,88.33,46.08S184.83,131.82,177.28,85.86z"/>
	<path class="st2" d="M157.75,85.86c-5.09-39.8-51.14-51.83-51.15-56.21c0,0,0-29.64,0-29.64h-35.3c0,0,0,29.64,0,29.64
		c0,4.38-46.06,16.41-51.15,56.21c-5.88,45.96,42.84,46.08,68.79,46.08C114.91,131.93,163.63,131.82,157.75,85.86z"/>
	<path class="st3" d="M98.06,0H79.32c0,61.43-23.86,80.63-23.51,113.26c0.36,33.18,65.89,34.02,66.28,0
		C122.43,84.43,98.06,59.13,98.06,0z"/>
	<g>
		<path class="st3" d="M125.08,152.69c-2.67-2.09-3.41-5.44-2.76-8.37c45.44,23.66,99.2-20.37,82.69-64.62
			c2.03-0.73,4.4-0.12,5.96,2.09C246.98,132.93,176.32,192.65,125.08,152.69z"/>
	</g>
	<g>
		<path class="st2" d="M122.32,144.32c0.78-3.51,3.54-6.44,7.36-5.93c31.74,4.32,65.2-20.52,71.57-53.99
			c0.46-2.46,1.98-4.09,3.75-4.71C221.52,123.95,167.77,167.98,122.32,144.32z"/>
	</g>
</g>
</svg>
