<?xml version="1.0" encoding="utf-8"?>
<!-- Generator: Adobe Illustrator 25.4.1, SVG Export Plug-In . SVG Version: 6.00 Build 0)  -->
<svg version="1.1" id="Layer_1" xmlns="http://www.w3.org/2000/svg" xmlns:xlink="http://www.w3.org/1999/xlink" x="0px" y="0px"
	 viewBox="0 0 484.42 361.48" style="enable-background:new 0 0 484.42 361.48;" xml:space="preserve">
<style type="text/css">
	.st0{fill:#F9DD54;}
	.st1{fill:#FCF38B;}
	.st2{fill:#EEC21B;}
	.st3{opacity:0.2;}
	.st4{fill:#FFFFFF;}
	.st5{opacity:0.5;}
	.st6{fill:#D47C3B;}
	.st7{fill:#FCE664;}
</style>
<g>
	<path class="st0" d="M479.48,266.01c-1.14-13.45-4.96-26.53-6.71-39.92c-5.35-40.75,7.81-85.69-12.87-121.21
		c-4.64-7.97-10.8-14.98-17.41-21.41c-49.46-48.02-121.56-62.6-189.5-74.25c-13.85-2.37-27.87-4.73-41.89-3.78
		c-30.76,2.08-58.12,19.65-82.86,38.05C82.23,77.73,39.85,116.83,2.04,159.93l-2.7,5.52c2.23,40.68,5.42,78.66,9.88,119.16
		c2.12,19.32,4.59,38.93,12.37,56.74c2.02,4.61,4.56,9.28,8.81,11.99c3.26,2.09,7.2,2.79,11.03,3.26
		c25.79,3.17,51.76-2.21,77.31-6.93c95.25-17.62,192.13-26.47,288.99-26.38c22.63,0.02,48.69-1.02,62.69-18.8
		C478.76,293.88,480.63,279.46,479.48,266.01z"/>
	<path class="st1" d="M470.63,250.63c-4.03-21.87-5.77-44.17-5.18-66.41c0.37-13.67,1.59-27.46-0.73-40.93
		c-2.32-13.48-8.8-26.96-20.43-34.15c-12.64-7.81-28.61-6.83-43.4-5.51c-43.9,3.93-87.73,8.65-131.46,14.16
		c-25.55,3.22-51.08,6.71-76.46,11.03c-22.53,3.83-44.94,8.31-67.36,12.8C83.9,149.96,42.17,158.3,0.45,166.65l-0.39,3.78
		C1.6,227.47,7,284.4,16.21,340.71c0.79,4.87,1.74,9.99,4.96,13.72c5.21,6.03,14.3,6.32,22.26,6.13
		c45.87-1.05,92.06-2.14,136.9-11.85c21.16-4.58,41.95-11.08,63.43-13.87c16.93-2.2,34.05-2.07,51.11-2.6
		c23.01-0.72,45.97-2.65,68.92-4.58c15.02-1.27,30.03-2.52,45.05-3.79c11.99-1.01,24.15-2.06,35.45-6.21
		c11.3-4.15,21.81-11.86,26.66-22.88C476.98,281.08,473.34,265.34,470.63,250.63z"/>
	<g>
		<path class="st2" d="M89.64,73.77c35.4,4.7,72.21,12.84,98.07,37.46c4.06,3.86,11.43,12.97,16.29,15.77l19.21-2.96
			c-33.44-37.24-76.13-52.92-121.91-59.6C101.3,64.44,91.73,64.48,89.64,73.77z"/>
		<path class="st2" d="M78.04,84.03c0,0-10.42,1.05-10.42,9.28c24.24-2.31,42.5,3.34,62.28,17.56c8.66,6.22,20.03,24.66,20.89,25.75
			l12.88-2.49C148.74,105.82,113.74,83.68,78.04,84.03z"/>
		<path class="st2" d="M154.11,60.94c5.33-1.54,8.53-5.72,12.96-9.06c13.07-9.87,26.15-19.76,39.23-29.63
			c8.4-6.35,17.1-12.84,27.29-15.44c-11.47-3.35-23.71,1.12-34.34,6.57c-21.27,10.89-40.16,25.83-58.89,40.66l-3.11,2.97
			C141.07,61.03,148.78,62.49,154.11,60.94z"/>
		<path class="st2" d="M181.77,73.96c4.85,2.51,14.67-3.56,20.61-7.43c29.75-19.41,52.58-32.89,83.59-50.23
			c-8.65-5.54-20.04-5.16-29.67-1.6c-9.63,3.56-17.92,9.91-26.17,16.03c-18.78,13.96-38.11,27.2-57.91,39.68L181.77,73.96z"/>
		<path class="st2" d="M209.97,83.13c10.27,3.26,13.07,3.4,31.84-5.46c36.91-17.41,75.08-32.22,114.38-43.23
			c-8.85-6.78-20.98-8.03-31.91-5.87c-10.94,2.15-21.01,7.34-30.92,12.46c-26.15,13.52-54.54,27.33-80.69,40.85L209.97,83.13z"/>
		<path class="st2" d="M404.66,57.12c-6.51-1.4-13.28-0.55-19.87,0.36c-50.58,6.99-97.96,22.22-146.78,37.2c0,0,8.3,7.66,15.25,6.77
			c59.22-7.6,116.49-28.26,176.19-29.49C422.02,65.66,414.18,59.15,404.66,57.12z"/>
	</g>
	<g>
		<g class="st3">
			<path class="st4" d="M-0.16,167.79c0.72-0.12,1.44-0.24,2.15-0.37v-0.03L-0.16,167.79z"/>
		</g>
		<g class="st3">
			<path class="st4" d="M189.43,280.55c-3.14-33.75-6.28-67.55-11.88-100.99c-1.81-10.77-4.41-22.46-12.97-29.24
				c-10.06-7.96-24.43-6.23-37.08-4.09c-40.14,6.78-80.28,13.55-120.41,20.32c-2.93,0.5-5.1,3.06-5.08,6.03
				c0.33,52.05,4.02,104.07,11.06,155.64c1.34,9.83,3.53,20.84,11.84,26.27c5.38,3.51,12.18,3.83,18.6,3.92
				c33.08,0.46,66.2-2.2,98.78-7.93c13.36-2.36,27.51-5.7,36.81-15.58C192.14,321.04,191.2,299.52,189.43,280.55z"/>
		</g>
	</g>
	<g class="st3">
		<path class="st4" d="M300.4,252.02c-2.78-19.05-9.9-37.23-12.97-56.23c-1.74-10.8-2.16-21.84-4.98-32.4
			c-2.81-10.57-8.49-20.98-17.98-26.41c-10.06-5.75-22.42-4.97-33.96-4c-72.63,6.1-224.56,33.64-224.56,33.64
			c-4.8,3.26-5.17,10.08-5.01,15.88c1.45,49.86,6.43,99.61,14.93,148.75c1.8,10.43,4.66,22.15,13.9,27.33
			c5.91,3.31,13.1,3.07,19.86,2.67c68.19-4.12,135.89-16.31,201.24-36.22c13.27-4.05,27.02-8.76,36.61-18.78
			C300.78,292.34,303.17,271.07,300.4,252.02z"/>
	</g>
	<g>
		<path class="st2" d="M143.29,188.71c1.12-2.77,1.68-5.86,1.02-8.78c-0.98-4.34-4.49-7.68-8.23-10.08
			c-4.01-2.56-8.62-4.41-13.38-4.4c-1.76,0-3.5,0.38-5.18,0.94c-8.52,1.87-14.64,11.04-13.41,19.7c1.25,8.78,9.47,15.88,18.34,16.32
			C131.3,202.85,139.97,196.94,143.29,188.71z"/>
		<path class="st2" d="M219.95,206.17c4.59-3.36,7.14-10.46,4.49-15.5c-1.4-2.65-2.49-4.42-5.09-5.91
			c-2.99-1.71-8.49-3.86-11.6-2.37c-2.33,1.11-6.19,3.96-7.26,6.29c0,0-1.14,2.33-2.47,7.37c-0.74,2.86-0.95,6.13,0.75,8.53
			c1.15,1.63,3,2.61,4.87,3.3C208.99,209.82,215.36,209.53,219.95,206.17z"/>
		<path class="st2" d="M303.94,128.77c0,0-17.99-3.18-21.55,13.48c-1.44,6.73,2.15,13.99,7.89,17.79c7.03,4.65,17.2,4.07,23.41-1.63
			c6.2-5.7,7.57-16.08,2.75-22.99C313.62,131.36,308.83,129.17,303.94,128.77z"/>
		<path class="st2" d="M403.55,157.96c5.32-1.5,10.79-4.32,12.96-9.41c1.7-4.01,0.91-8.86-1.58-12.44
			c-2.49-3.58-6.5-5.95-10.75-6.95c-0.98-0.23-2.04-0.25-3.08-0.29c0,0-0.19-0.06-0.45-0.04c-4.13-0.06-8.13,1.48-10.31,4.65
			c-0.97,0.94-1.83,1.99-2.55,3.14c-2.87,4.66-3.26,10.76-0.98,15.74c0.84,1.84,2.05,3.57,3.71,4.74
			C394.18,159.71,399.21,159.19,403.55,157.96z"/>
		<path class="st2" d="M423.49,223.12c-10.82-3.57-23.9,2.83-27.72,13.56c-3.82,10.73,2.28,23.96,12.92,28.02
			c10.65,4.06,24.01-1.74,28.31-12.28c2.68-6.57,1.96-14.34-1.54-20.5C431.94,225.76,423.49,223.12,423.49,223.12z"/>
		<path class="st2" d="M340.62,208.21c1.24,5.62,6.85,9.81,12.61,9.83c5.76,0.02,11.22-3.83,13.57-9.09
			c0.83-1.86,1.31-3.94,0.98-5.96c-0.4-2.45-2.16-4.36-3.86-6.16c-7.98-8.42-19.81,0.73-19.81,0.73
			C341.33,200.28,339.78,204.37,340.62,208.21z"/>
		<path class="st2" d="M273.64,236.86c-5.69,4.66-5.6,14.82,0.42,19.15c4.93,3.53,12.52,2.53,16.38-2.15
			c3.85-4.68,3.36-12.33-1.06-16.49C285.19,233.43,278.14,233.34,273.64,236.86z"/>
		<path class="st2" d="M357.22,275c-3.49-1.17-10.33,2.14-13,4.66c0,0-2.24,1.3-4.96,6.49c-2.37,4.52-0.83,10.27,2.68,13.97
			c1.58,1.68,3.96,2.33,6.2,2.89c3.93,1.01,7.95,2.01,12,1.71c4.04-0.3,8.19-2.16,10.22-5.67c3.22-5.6-0.05-12.77-4.34-17.61
			C363.58,278.69,360.7,276.18,357.22,275z"/>
		<path class="st2" d="M236.37,270.47c-5.14-2.36-11.03-3.55-16.5-2.14c-3.71,0.95-7.04,3.34-9.16,6.47
			c-1.6,1.54-2.72,3.78-3.12,6.02c-1.77,9.79,5,20.38,14.64,22.87c9.64,2.5,20.69-3.48,23.9-12.9c1.52-4.47,1.32-9.66-1.24-13.63
			C242.89,274.09,239.69,272,236.37,270.47z"/>
		<path class="st2" d="M132.33,254.15c-6.4,3.73-6.4,10-4.68,15.33c1.87,5.79,9.49,8.75,14.92,5.99c5.43-2.76,7.6-10.35,4.7-15.71
			C144.51,254.66,137.84,252.38,132.33,254.15z"/>
		<path class="st2" d="M44.42,194.53c-12.12-4.69-23.44,7.02-23.44,7.02c-1.94,4.01-4.23,8.72-3.21,12.99
			c1.75,7.25,5.27,12.57,13.27,14.81c3.98,1.12,8.95,0.71,12.61-1.07c4.64-2.25,8.03-5.74,8.79-10.37
			C53.88,209.12,53.53,198.05,44.42,194.53z"/>
		<path class="st2" d="M80.52,289.11c-4.23-1.95-9.4-1.13-13.33,1.37c-3.94,2.5-6.75,6.47-8.67,10.72
			c-1.68,3.73-2.7,8.19-0.83,11.83c1.73,3.36,5.46,5.12,8.99,6.51c6.7,2.64,14.52,4.69,20.85,1.25c7.05-3.85,9.2-13.93,5.46-21.03
			C89.24,292.64,80.52,289.11,80.52,289.11z"/>
	</g>
	<g>
		<path class="st0" d="M47.85,197.25c-2.26-2.62-5.77-3.16-9.36-3.05l-1.34,0.09c-0.96,4.77,1.46,9.48,3.32,13.97
			c1.85,4.5,3.08,10.05,0.15,13.94c-1.56,2.07-4.13,5.09-1.99,6.57c0.59,0.4,2.24,0.05,2.93-0.16c2.95-0.88,7.25-3.9,9.46-8.26
			c2.16-4.26,1.98-9.39,1.18-14.1C51.62,202.85,50.11,199.86,47.85,197.25z"/>
		<path class="st0" d="M143.88,183.99c0.23-2.44-0.02-5.02-1.34-7.09c-0.97-1.52-3.3-4.09-4.8-5.08c-3.92-2.6-8.5-4.95-8.5-4.95
			c-2.07-0.06-4.24-0.1-6.09,0.84c-1.84,0.95-3.17,3.23-2.33,5.13c0.71,1.6,2.57,2.28,4.18,2.97c3.47,1.49,6.85,4.19,7.35,7.94
			c0.83,6.2-6.29,10.54-7.93,16.58c1.91,1.8,3.16,1.12,5.56,0.07C136.57,197.53,143.21,191.14,143.88,183.99z"/>
		<path class="st0" d="M212.9,182.96c0,0-3.09-1.59-4.28,0.45c-1.19,2.03,2.92,8.89,3.83,11.07c0.92,2.18-3.27,13.14-2.25,13.58
			c5.77,2.5,14.3-5.56,14.61-11.84C225.15,188.86,219.07,184.11,212.9,182.96z"/>
		<path class="st0" d="M300.94,131.13c0,0,0.84,6.7,1.98,9.53c1.14,2.84,1.07,6.38-0.97,8.66c-1.36,1.52-3.38,2.27-4.97,3.56
			c-1.58,1.29-2.69,3.7-1.47,5.35c0.57,0.77,1.51,1.16,2.42,1.45c6.25,1.96,13.62,0.23,18.04-4.61c4.42-4.83,5.44-12.61,2.05-18.21
			C314.63,131.26,306.95,128.55,300.94,131.13z"/>
		<path class="st0" d="M415.05,137.39c-3.15-7.76-14.43-7.38-14.43-7.38c-0.61-0.03-1.23-0.13-1.85,0
			c-1.92,0.41-3.72,2.16-3.45,4.11c0.14,1.05,0.83,1.94,1.52,2.72c1.65,1.88,3.54,3.59,4.68,5.81c1.13,2.22,1.29,5.19-0.42,6.99
			c-1.04,1.11-2.64,1.66-3.46,2.94c-1.18,1.87-0.05,3.78,1.92,4.78c1.97,1,6.31-1,8.32-1.91
			C415.11,152.17,418.19,145.14,415.05,137.39z"/>
		<path class="st0" d="M351.58,213.5c0.24,0.46,0.74,0.73,1.22,0.94c5.41,2.34,12.52-1.29,13.81-7.05
			c1.28-5.76-3.62-12.06-9.51-12.23l1.81,2.71c-0.13,6.37-3.09,8.96-5.98,12.34C352.11,211.17,350.97,212.38,351.58,213.5z"/>
		<path class="st0" d="M435.49,233.71c-3.96-6.96-12.2-11.16-20.19-10.52c0,0-1.98,1.81-2.7,4.76c-0.87,3.54,2.47,6.53,4.16,9.75
			c2.41,4.59,1.21,10.79-2.74,14.14c-2.42,2.06-3.33,4.92-2.09,7.84c0.48,1.13,1.21,4.45,2.43,4.6c8.39,1,14.14-1.92,19.27-8.06
			C438.76,250.07,439.45,240.67,435.49,233.71z"/>
		<path class="st0" d="M360.18,278.21c-4.69-1.33-6.8,1.79-7.17,3.17c-0.59,2.17,0.51,4.38,1.42,6.44c0.91,2.05,1.62,4.56,0.37,6.43
			c-1.68,2.54-6.54,3.71-5.42,6.54c0.35,0.88,1.27,1.37,2.13,1.77c8.44,3.88,18.2-0.11,19.12-7.85
			C371.56,286.97,360.18,278.21,360.18,278.21z"/>
		<path class="st0" d="M282.9,234.94c-3.37-1.09,1.35,7.45,2.23,9.46c0.8,1.84-3.49,4.81-4.43,6.58c-0.95,1.76-2.11,5.45-0.26,6.21
			c0.57,0.23,2.35,0.07,2.97-0.01c5.09-0.69,9.63-5.58,9.01-11.58C291.9,240.49,288.04,235.31,282.9,234.94z"/>
		<path class="st0" d="M227.19,268.48c0,0-3.14,4.07-2.31,5.68c0.5,0.96,1.48,1.55,2.4,2.11c2.86,1.78,5.58,3.99,7.17,6.96
			c1.59,2.97,1.85,6.83-0.04,9.62c-1.95,2.89-5.65,4.08-7.97,6.66c-0.38,0.42-0.73,0.92-0.73,1.48c0.02,1.28,1.68,1.76,2.96,1.74
			c9.58-0.2,18.12-9.07,17.97-18.66C246.48,274.48,234.69,269.36,227.19,268.48z"/>
		<path class="st0" d="M136.65,253.73c0,0-0.03,1.33-0.31,2.16c-0.5,1.43,0.25,2.98,1.15,4.2c0.9,1.21,2,2.35,2.37,3.82
			c0.84,3.41-2.48,7.6-0.08,10.16c2.12,2.26,5.53-0.36,6.88-3.16C150.19,263.64,144.72,254.06,136.65,253.73z"/>
		<path class="st0" d="M80.74,289.61c-2.29-0.98-4.89,1.25-5.32,3.7c-0.43,2.45,0.6,4.88,1.53,7.18c0.93,2.3,1.79,4.86,1.05,7.22
			c-0.8,2.55-3.3,4.31-4.02,6.88c-0.81,2.87,0.36,5.45,3.04,6.75c2.7,1.3,6.44,0.89,9.11-0.45c6.14-3.07,9.24-10.33,7.34-16.92
			C91.56,297.39,80.74,289.61,80.74,289.61z"/>
	</g>
	<g>
		<g class="st5">
			<path class="st6" d="M31.75,215.97c-2.87-7.12,3.39-14.28,6.12-21.45c-1.76,0.19-3.52,0.37-5.28,0.56c0,0-7.33,2.37-9.93,5.73
				c-3.4,4.42-5.06,10.29-3.85,15.73c1.22,5.44,5.51,10.23,10.95,11.44c5.44,1.22,11.68-1.58,13.88-6.7
				C39.15,222.92,33.55,220.42,31.75,215.97z"/>
		</g>
		<g class="st5">
			<path class="st6" d="M119.18,167.99c-2.54-1.97-6.55-0.46-7.77,2.39c-2.67,2.37-4.38,5.83-4.84,9.41
				c-0.6,4.65,0.68,9.4,2.82,13.58c0.69,1.36,1.54,2.74,2.9,3.43c3.73,1.89,7.57-2.55,8.82-6.54c1.7-5.38,2-11.19,0.87-16.72
				C121.57,171.46,120.86,169.28,119.18,167.99z"/>
		</g>
		<g class="st5">
			<path class="st6" d="M209.06,183.32c-1.06-0.17-5.18,2.58-5.18,2.58c-4.21,3.8-6.33,9.79-5.45,15.39
				c0.32,2.02,1.34,4.29,3.35,4.67c2.44,0.46,4.29-2.11,5.3-4.38c1.8-4.04,3.16-8.28,4.01-12.61
				C211.53,186.76,211.27,183.68,209.06,183.32z"/>
		</g>
		<g class="st5">
			<path class="st6" d="M225.22,268.48c-6.9,0.29-12.25,3.09-15.15,7.98c-2.9,4.88-2.67,8.27-1.35,13.8c0.5,2.09,2.7,5.75,4.35,7.12
				c1.65,1.37,6.86,5.9,8.03,4.1c0.7-1.08-3.08-16.85-0.82-21.77C222.72,274.43,228.05,267.84,225.22,268.48z"/>
		</g>
		<g class="st5">
			<path class="st6" d="M274.79,236.42c-0.05,0.05-4.91,3.11-4.9,10.72c0,2.15,1.84,6.35,3.47,7.75c1.64,1.4,2.86,0.03,4.09-1.73
				c0.5-0.71,0.67-1.59,0.84-2.44c0.62-3.18,1.24-6.36,1.86-9.53c0.33-1.71,0.25-6.51,0.25-6.51
				C278.52,234.88,276.39,235.44,274.79,236.42z"/>
		</g>
		<g class="st5">
			<path class="st6" d="M344.74,213.27c1.1-7.14,7.76-19.01,7.76-19.01c-4.31,0.9-8.52,3.34-10.49,7.28
				C340.04,205.49,340.98,210.97,344.74,213.27z"/>
		</g>
		<g class="st5">
			<path class="st6" d="M301.42,129.45c-2.71-1.7-12.91,2.67-14.66,5.34c0,0-3.28,3.9-3.92,10.75c-0.64,6.84,8.36,17.47,15.15,16.37
				c-3.69-4.12-7.51-13.11-6.34-18.52C292.83,137.98,296.35,131.66,301.42,129.45z"/>
		</g>
		<g class="st5">
			<path class="st6" d="M394.62,132.35c1.45-1.22,4.33-3.53,1.49-2.03c-5.1,2.15-7.07,5.98-9.19,11.04
				c-2.26,5.41-0.3,12.79,5.17,14.91C388.75,147.54,388.6,141.07,394.62,132.35z"/>
		</g>
		<g class="st5">
			<path class="st6" d="M411.01,260.33c-6.56-9.17-6.59-22.52-0.04-31.71c5.82-5.43-2.26-3.59-3.42-2.7
				c-6.4,1.12-12.07,10.93-12.1,17.67c-0.03,7.71,5.06,14.69,11.4,19.11c1.69,1.18,4.93,1.52,4.98-0.54
				C411.84,261.47,411.41,260.88,411.01,260.33z"/>
		</g>
		<g class="st5">
			<path class="st6" d="M341.5,283.98c-3.04,4.54-3.13,11.17,0.56,15.19c1.09,1.19,2.9,2.15,4.26,1.28c0.91-0.58,1.23-1.75,1.47-2.8
				c1.57-6.92,3.14-13.85,4.72-20.77C348.11,277.94,344,280.25,341.5,283.98z"/>
		</g>
		<g class="st5">
			<path class="st6" d="M67.67,291.06c-3.47,2.29-8.58,8.78-9.75,12.76c-1.87,6.37,1.63,11.7,7.67,14.45c1.09,0.49,2.47,0.73,3.41,0
				c0.88-0.67,1.06-1.9,1.11-3.01c0.29-6.98-1.8-15.33,3.41-19.99c1.4-1.25,3.24-2.09,4.15-3.73c0.16-0.28,0.18-0.62,0.23-0.94
				C74.94,288.29,70.88,288.94,67.67,291.06z"/>
		</g>
		<g class="st5">
			<path class="st6" d="M133.97,263.2c-0.77-2.9-0.67-6.3,1.35-8.52l-0.28-0.68c-4.73,1.16-7.41,4.52-7.93,9.37
				c-0.52,4.84,2.26,9.87,6.64,12.01c0.61,0.29,1.29,0.55,1.95,0.38c1.55-0.39,1.69-2.55,1.28-4.1
				C136.21,268.77,134.73,266.1,133.97,263.2z"/>
		</g>
	</g>
	<g class="st5">
		<path class="st1" d="M171.62,89.25c-2.43-1.37-4.87-2.74-7.5-3.67c-2.86-1.01-5.9-1.48-8.79-2.43c-2.25-0.75-4.4-1.79-6.54-2.84
			c-4.31-2.1-8.63-4.21-13.2-5.66c-7.71-2.45-15.98-2.96-23.52-5.88c-2.95-1.15-5.81-2.66-8.95-3.08c-1.3-0.17-2.67-0.04-3.95,0.3
			l0.01-0.01l-0.02,0.01c-1,0.26-1.95,0.64-2.74,1.25c-0.26,0.19-0.4,0.46-0.63,0.68c-0.34,0.35-0.7,0.66-0.95,1.1l0.29-0.2
			c-0.27,0.39-0.66,0.69-0.83,1.13c4.3,0.87,8.72,0.9,13.08,1.44c7.01,0.87,13.79,3.03,20.53,5.19c5.21,1.67,10.43,3.34,15.64,5
			c15.6,4.99,31.66,10.23,44.11,20.87c2,1.71,3.89,3.54,6.06,5.01c2.13,1.45,4.51,2.54,6.48,4.2c1.56,1.32,2.82,2.97,4.39,4.28
			c1.57,1.31,3.61,2.29,5.61,1.89C199.72,105.63,185.63,97.17,171.62,89.25z"/>
		<path class="st1" d="M133.73,106.7c-5.68-4.53-12.12-8-18.64-11.22c-3.47-1.71-6.97-3.37-10.56-4.8
			c-9.68-3.86-20.29-6.08-30.55-4.28l0.09-0.73c-1.39,0.67-2.61,1.69-3.51,2.94c-0.46,0.64-0.83,1.57-0.32,2.17
			c0.39,0.46,1.08,0.48,1.68,0.44c4.1-0.2,8.18-0.67,12.29-0.66c16.11,0.04,31.28,7.57,44.59,16.64c2.61,1.77,5.18,3.62,7.47,5.78
			c5.88,5.55,9.75,12.98,15.75,18.42C148.21,121.77,141.83,113.16,133.73,106.7z"/>
		<path class="st7" d="M127.5,124.56c-1.42,0.13-2.8,0.67-4.23,0.58c-1.42-0.08-2.97-1.12-2.87-2.54c0.17-2.42,4.5-2.93,4.42-5.35
			c-0.02-0.81-0.59-1.5-1.16-2.07c-3.83-3.97-8.94-6.69-14.38-7.65c-1.85-0.32-4.35-1.25-3.92-3.08c0.12-0.51,0.48-1,0.34-1.5
			c-0.21-0.77-1.29-0.77-2.06-0.62c-3.93,0.81-7.87,1.62-11.81,2.43c1.51-1.33,1.03-3.98-0.44-5.35c-1.48-1.37-3.57-1.82-5.55-2.21
			c-4.52-0.89-9.24-1.77-13.69-0.57c-4.44,1.2-8.07,4.32-11.5,7.37c-19,16.96-37.03,34.98-54.13,53.85
			c-1.02,0.58-1.86,1.45-2.38,2.51c-0.02,0.02-0.03,0.03-0.05,0.05l0.05-0.05c-0.54,1.09-0.77,2.31-0.58,3.5
			c9.87-1.88,19.73-3.76,29.6-5.63c22.54-4.29,45.09-8.58,67.64-12.86c12.7-2.42,25.51-4.86,37.48-9.77
			c0.87-0.36,1.87-0.91,1.95-1.85c0.06-0.66-0.4-1.26-0.83-1.77C136.29,128.23,132.36,124.11,127.5,124.56z"/>
		<g class="st5">
			<path class="st2" d="M186.02,116.47c-3.11-0.35-7.29-2.35-6.08-5.23c-2.13-1.15-4.49-1.86-6.91-2.07
				c0.18-0.88,0.36-1.78,0.54-2.66c-3.21-0.34-6.42-0.69-9.64-1.02c1-1.52,2-3.04,3-4.56c-2.91-0.58-5.95-0.55-8.85,0.06
				c0.76-1.18,1.51-2.37,2.27-3.55c-2.6-0.12-5.21-0.23-7.82-0.35c0.64-1.18-0.34-2.69-1.59-3.13c-1.26-0.44-2.64-0.13-3.93,0.19
				c0.34-1.41,0.68-2.82,1.03-4.24c-8.02,1.83-15.71-3.41-23.53-5.94c-10.69-3.46-23.03-2.05-32.49-8.11l-2.02,3.03
				c-1.04-0.48-2.4,0.54-2.25,1.66c3.71-0.39,7.5,0.19,10.92,1.67c3.93,1.7,8.22,4.6,12.1,2.78c0.74-0.35,1.58-0.87,2.3-0.48
				c0.9,0.48,0.67,1.83,1.08,2.76c0.59,1.36,2.35,1.62,3.83,1.8c4.1,0.5,8.1,1.85,11.65,3.95c0.78,0.46,1.57,0.99,1.99,1.79
				c0.49,0.94,0.4,2.13,1.05,2.97c1.08,1.4,3.25,0.87,4.98,0.47c1.72-0.39,4.19,0.06,4.22,1.84c0.01,0.63-0.35,1.26-0.17,1.88
				c0.54,1.85,3.86-0.05,5.22,1.32c0.67,0.67,0.51,1.82,1,2.62c1.16,1.88,4.92,0.83,5.62,2.92c0.42,1.24-0.71,2.8,0.11,3.82
				c0.63,0.78,1.84,0.54,2.82,0.72c1.6,0.29,2.65,1.78,3.53,3.14c2.33,3.6,4.66,7.2,6.99,10.8c0.41,0.63,0.86,1.3,1.56,1.59
				c0.62,0.26,1.32,0.16,1.98,0.06c7.14-1.09,14.17-2.79,21.02-5.09c-2.08-2.5-4.83-4.44-7.89-5.57
				C184.45,117.68,185.23,117.08,186.02,116.47z"/>
		</g>
		<g class="st5">
			<path class="st2" d="M392.22,77.8c-11.69,1.15-22.75,5.71-34.21,8.31c-8.1,1.85-16.38,2.71-24.62,3.79
				c-23.06,3.03-45.84,7.81-68.64,12.34c-8.84,1.76-18.43,3.41-26.57-0.48c-2.33-1.11-4.73-3.69-3.46-5.93
				c0.51-0.89,1.47-1.4,2.38-1.86c47.19-23.83,100.43-32.19,152.67-40.23c-23.98-15.7-55.89-12.47-82.82-2.66
				c-26.92,9.81-51.55,25.47-78.94,33.88c-5.64,1.73-11.67,3.14-17.39,1.69c-0.92-0.24-1.88-0.58-2.53-1.28
				c-2.39-2.6,1.27-6.35,4.42-7.94c23.29-11.75,46.58-23.49,69.88-35.24c8.72-4.4,17.48-8.83,25.32-14.65
				c-18.78-5.94-38.48,4.19-55.56,13.99c-15.8,9.06-31.6,18.11-47.4,27.18c-5.45,3.12-11.03,6.3-17.2,7.45
				c-6.18,1.16-13.16-0.06-17.44-4.66c-0.26-0.29-0.53-0.61-0.61-0.99c-0.19-0.84,0.52-1.59,1.16-2.15
				c3.56-3.1,7.35-5.93,11.13-8.75c20.92-15.61,41.83-31.21,62.75-46.81c-7.6-0.61-15.01,2.37-21.9,5.64
				c-16.94,8.04-32.87,18.21-47.28,30.2c-5.57,4.64-11.01,9.6-17.55,12.71c-6.54,3.12-14.55,4.14-20.92,0.7
				c-2.26-1.22-4.44-3.51-3.9-6.02c0.34-1.61,1.7-2.78,2.96-3.82c17.3-14.16,34.6-28.3,51.91-42.46
				c-28.05,11.96-53.76,29.36-75.3,50.94l2.33-2.36c-1.86-1.33-4.27,1.71-3.35,3.8c0.92,2.09,3.38,2.95,5.56,3.61
				c7.7,2.28,15.4,4.56,23.11,6.84c6.77,2,13.55,4.01,20.18,6.43c22.1,8.04,42.54,20.65,59.63,36.81c1.36,1.29,2.73,2.62,4.45,3.32
				c1.39,0.58,2.93,0.72,4.44,0.8c11.86,0.6,23.6-2.1,35.22-4.55c58.45-12.31,118.19-18.49,177.93-18.41
				C429.64,83.33,410.59,76,392.22,77.8z"/>
		</g>
	</g>
	<g>
		<g class="st5">
			<path class="st6" d="M215.4,12.94c-14.12,9.17-28.24,18.34-42.36,27.51c-9.89,6.42-19.96,12.93-31.27,16.28l-2.65,1.05
				c4.37,3.44,10.67,3.45,15.87,1.5c5.2-1.96,9.56-5.59,13.86-9.11c19.24-15.74,39.39-30.37,60.31-43.79
				C224.14,7.3,219.7,10.15,215.4,12.94z"/>
		</g>
		<g class="st5">
			<path class="st6" d="M282.37,16.2c-5.77,1.88-11.12,4.81-16.43,7.74c-20.63,11.34-41.26,22.68-61.88,34.02
				c-8.84,4.86-17.91,9.8-27.87,11.36l-2.61,1.17c4.77,2.81,10.76,3.47,16.02,1.77c2.87-0.93,5.48-2.5,8.06-4.05
				c27.84-16.77,55.68-33.54,83.53-50.32C281.81,17.51,282.54,16.92,282.37,16.2z"/>
		</g>
		<g class="st5">
			<path class="st6" d="M352.51,34.57c-4.42,0.46-8.69,1.77-12.93,3.06c-30.9,9.44-61.98,18.93-90.84,33.45
				c-4.12,2.08-8.21,4.26-12.52,5.89c-8.35,3.15-17.33,4.16-26.19,5.14l0.1,2.05c14.54,3.2,29.04-4.21,42.35-10.87
				C284.5,57.27,318.04,44.28,352.51,34.57z"/>
		</g>
		<g class="st5">
			<path class="st6" d="M399.49,70.96c-8.9,0.42-17.73,1.81-26.54,3.2c-28.68,4.52-57.36,9.04-85.84,14.68
				c-9.35,1.85-18.74,3.84-28.28,4.13c-6.51,0.2-13.13-0.39-19.47,1.14l-0.03,0.91c3.27,3.69,8.31,5.42,13.23,5.7
				c4.92,0.28,9.82-0.73,14.64-1.74c31.47-6.59,62.95-13.17,94.43-19.75c21.13-4.42,42.68-8.87,64.16-6.67
				C417.11,71.07,408.28,70.54,399.49,70.96z"/>
		</g>
	</g>
</g>
</svg>
