<?xml version="1.0" encoding="utf-8"?>
<!-- Generator: Adobe Illustrator 25.4.1, SVG Export Plug-In . SVG Version: 6.00 Build 0)  -->
<svg version="1.1" id="Layer_1" xmlns="http://www.w3.org/2000/svg" xmlns:xlink="http://www.w3.org/1999/xlink" x="0px" y="0px"
	 viewBox="0 0 556.58 312.57" style="enable-background:new 0 0 556.58 312.57;" xml:space="preserve">
<style type="text/css">
	.st0{fill:#F0CA8B;}
	.st1{fill:#FBF6BB;}
	.st2{opacity:0.5;}
	.st3{fill:#FFFFFF;}
	.st4{opacity:0.2;}
	.st5{fill:#8F4F34;}
	.st6{opacity:0.7;}
	.st7{fill:#365F2E;}
	.st8{opacity:0.5;fill:#E0B373;}
	.st9{opacity:0.1;}
	.st10{opacity:0.15;}
	.st11{fill:#F9DD54;}
	.st12{fill:#1E302A;}
	.st13{opacity:0.3;}
	.st14{fill:#519A43;}
</style>
<g>
	<path class="st0" d="M526.81,92.14c-8.25-23.54-19.51-47.64-40.27-61.45c-13.38-8.91-33.05-10.09-48.65-13.98
		c-48.68-12.16-199.7-13.6-219.22-6.88c-19.64,6.77-27.93,10.81-41.25,26.77c-41.74,49.96-80.36,109.24-122.1,159.21
		c-16.01,19.15-32.04,38.36-45.82,59.18l4.01-5.94c-4.34,4.44-9.06,10.13-7.43,16.12c2.33,8.53,9.77,8.33,18.43,10.09
		c33.49,6.78,209.15,33.02,245.62,31.84c21.44-0.71,237.67-46.36,274.11-55.84c2.23-0.58,4.64-1.27,6.02-3.12
		c1.31-1.73,1.4-4.07,1.41-6.25C552.07,191.04,543.61,140.13,526.81,92.14z"/>
	<path class="st1" d="M482.06,35.81c-6.95-5.53-15.72-8.18-24.31-10.39C391.29,8.26,321.67,9.25,253.03,10.37
		c-17.59,0.29-36.05,0.79-51.32,9.53c-11.06,6.33-19.4,16.41-27.48,26.26C116.9,116.05,59.58,185.95,2.25,255.83l0.89,1.9
		C1.6,260,5.72,268.92,8.35,269.66c43.05,11.9,217.95,30.45,243.11,32.5c6.4,0.52,26.08,0.29,31.76-2.68
		c3.71-1.93,6.7-5.02,9.59-8.06c66.8-69.94,130.08-156.21,190.12-232.04C493.03,46.6,489.01,41.34,482.06,35.81z"/>
	<g class="st2">
		<path class="st3" d="M213.73,59.22c6.71,0.42,13.45,0.86,20.18,0.77c6.47-0.1,12.93-0.65,19.39-0.54c7.06,0.12,14.08,1.05,21.08,2
			c12.4,1.65,24.82,3.3,37.22,4.96c-10.59-4.4-21.28-8.82-32.56-10.96c-18.08-3.42-36.69-0.8-55.09-1.36
			c-6.99-0.21-14.93-1.42-18.85-7.22c1.05-3.91,5.81-5.17,9.69-6.33c3.87-1.18,8.31-4.39,7.07-8.24c-0.34-1.01-1.05-1.93-0.99-2.99
			c0.16-2.99,5.69-3.18,5.91-6.17c-5.1-3.88-12.27,0.25-17.18,4.37c-9.19,7.73-18.05,15.84-26.56,24.31l2.23,5.6
			C194.77,58.01,204.25,58.62,213.73,59.22z"/>
		<path class="st3" d="M242.41,41.74c5.4,0.65,10.97,0.65,16.08,2.5c3.6,1.3,6.89,3.51,10.64,4.28c7.26,1.51,15.39-2.48,21.97,0.93
			c2.25,1.16,4.01,3.08,6.13,4.48c2.1,1.4,4.93,2.25,7.15,1.01c-6.07-2.55-12.01-5.43-17.74-8.67c-3.16-1.79-6.77-5.16-5.09-8.4
			c1.06-2.03,3.68-2.6,5.97-2.7c8.48-0.39,16.85,2.37,25.34,2.15c2.38-0.06,4.88-0.41,6.79-1.85c1.89-1.44,2.91-4.28,1.65-6.3
			c-1.13-1.82-3.51-2.33-5.63-2.61c-14.39-1.95-29.1-1.55-43.37,1.17c-2.86,0.55-6.3,1.02-8.25-1.15c-0.73-0.83-1.11-1.92-1.71-2.86
			c-3.2-5.12-10.78-4.24-16.63-2.74l-0.91,4.19c2.34-1.31,4.99,2.08,4.15,4.61c-0.84,2.53-3.45,3.95-5.83,5.16
			c-2.36,1.18-5.02,4.1-3.12,5.94C240.62,41.47,241.55,41.64,242.41,41.74z"/>
		<path class="st3" d="M340.78,37.75c-0.11,1.65-0.81,3.3-0.32,4.87c1.15,3.71,7.46,3.34,8.86,6.95c0.94,2.41-0.81,5.69,1.06,7.48
			c1.72,1.65,4.88-0.18,5.24-2.55c0.36-2.36-1.07-4.6-2.56-6.47c-1.49-1.87-3.18-3.79-3.49-6.16c-0.51-3.85,3.05-7.28,6.85-8.04
			c3.79-0.76,7.69,0.46,11.33,1.79c3.64,1.33,7.39,2.8,11.27,2.56c3.58-0.23,6.98-1.92,10.57-1.84c3.59,0.07,7.58,3.31,6.33,6.67
			c-0.79,2.12-3.41,4.23-2.05,6.03c0.92,1.22,2.83,0.83,4.25,0.28c6.24-2.43,12.24-5.48,17.88-9.11c2.06-1.33,4.33-3.78,3.04-5.86
			c-0.61-1-1.85-1.41-2.98-1.74c-13.44-3.98-26.87-7.97-40.31-11.95c-3.12-0.92-6.29-1.86-9.57-1.88
			c-6.88-0.06-13.33,3.94-20.21,3.81l5.51-1.24c-7.5-0.07-15.01,1.73-21.65,5.2C335.02,28.65,341.16,32.16,340.78,37.75z"/>
		<path class="st3" d="M467.85,51.8c-1.32-2.83-2.64-5.66-3.95-8.49c-0.48-1.02-1-2.1-1.89-2.78c-0.86-0.67-1.96-0.91-3.03-1.1
			c-4.14-0.74-8.36-1.08-12.58-1l4.9-1.95c-7.16-1.24-14.49-1.53-21.73-0.89c-1.32,0.12-3.06,0.86-2.72,2.12
			c5.01,1.28,9.76,3.59,13.85,6.76c1.81,1.41,3.61,3.19,3.91,5.46c0.41,3.2-2.26,6.11-2.16,9.32c0.04,1.16,0.43,2.34,0.04,3.43
			c-0.72,2.06-3.51,2.28-5.71,2.24c-8.02-0.16-16.06,1.16-23.59,3.9c-1.54,0.55-3.38,1.9-2.69,3.38c10.02-0.26,20.04-0.53,30.08-0.8
			c0.99-0.02,2.03-0.04,2.91,0.44c0.98,0.54,1.57,1.58,2.4,2.32c1.35,1.19,3.25,1.52,5.04,1.71c4.19,0.45,9.34-0.07,11.22-3.85
			c1.77-3.57-0.41-8.34,1.8-11.66c1.44-2.16,4.58-3.42,4.63-6.03C468.6,53.44,468.22,52.59,467.85,51.8z"/>
		<path class="st3" d="M386.72,90.38c4.08,1.77,8.34,3.15,12.7,4.09c-15.21-3.52-30.44-7.02-45.65-10.53
			c10.82,6.43,23.6,8.45,35.92,11.09c12.31,2.64,25.05,6.37,34.01,15.21c2.22,2.2,4.72,4.89,7.81,4.5c0.24-2-1.79-3.4-3.46-4.53
			c-1.65-1.13-3.35-3.21-2.29-4.91c0.41-0.65,1.14-1.04,1.84-1.36c2.5-1.16,5.1-2.04,7.8-2.66c1.86-0.42,4.03-0.91,4.83-2.63
			c0.17-0.36,0.24-0.73,0.26-1.12C424.6,87.82,404.58,85.13,386.72,90.38z"/>
		<path class="st3" d="M244.51,89.02c9.06-0.69,18.06-2.45,27.14-2.17c15.72,0.47,31.36,6.98,46.79,3.92
			c-14.93-3.71-29.85-7.43-44.78-11.14c-6.55-1.63-13.25-3.27-19.98-2.69c-6.95,0.61-13.65,3.56-20.61,3.14
			c-3.93-0.25-7.72-1.57-11.49-2.72c-13.32-4.06-27.23-6.16-41.15-6.19l-1.77-8.4c-5.56,5.51-10.31,11.82-14.09,18.67
			C191.28,83.82,217.77,91.05,244.51,89.02z"/>
		<path class="st3" d="M152.11,93.39c18.34,5.95,38.08,7.48,57.1,4.42c-9.02-2.37-18.04-4.76-27.05-7.15
			c-9.15-2.42-18.52-4.71-27.92-4.24c-1.29,1.06-2.51,2.2-3.54,3.51c-0.39,0.48-0.77,1.05-0.72,1.66
			C150.07,92.57,151.17,93.08,152.11,93.39z"/>
		<path class="st3" d="M275.54,107.3c2.49-1.21,4.98-2.42,7.47-3.63c-0.6-2.75-4.2-3.32-7.02-3.3c-7.66,0.06-15.3,0.11-22.96,0.17
			c-0.7,0-1.46,0.02-2.06,0.42c-0.59,0.38-0.89,1.29-0.42,1.82l-3.18,2.7c7.25,3.24,14.71,6.03,22.33,8.34
			c2.29,0.7,4.92,1.31,6.96,0.07c-1.94-1.06-4.2-3.09-3.14-5.03C273.94,108.1,274.76,107.68,275.54,107.3z"/>
		<path class="st3" d="M319.73,119.67c-0.43,1.19-0.05,2.52,0,3.8c0.03,0.89-0.24,1.9-0.82,2.51c0.76-0.36,1.65-0.51,2.52-0.5
			c12.58,0.26,25.16,1.41,37.59,3.41c1.47,0.25,3.24,0.4,4.23-0.74c1.03-1.18,0.55-2.97,0.46-4.55c-0.26-3.95,2.28-7.46,3.79-11.11
			c0.32-0.78,0.6-1.68,0.27-2.45c-0.4-0.93-1.48-1.31-2.43-1.6c-4.2-1.27-8.4-2.54-12.6-3.81c-1.84-0.56-3.76-1.12-5.64-0.79
			l-0.72,2.97c-2.38,1.7-4.08,4.2-6.43,5.94c-4.31,3.18-10.04,3.3-15.34,4.11C322.66,117.16,320.41,117.82,319.73,119.67z"/>
		<path class="st3" d="M318.91,125.98c-0.32,0.15-0.7,0.24-0.92,0.53C318.37,126.44,318.66,126.24,318.91,125.98z"/>
		<path class="st3" d="M425.98,127.48c-5.12-1.54-10.75-0.07-15.95-1.25c-8.71-1.97-15.21-10.89-23.92-11.42
			c0.18,4.56,0.37,9.11,0.56,13.67c0.02,0.7,0.08,1.45,0.5,2.02c0.56,0.73,1.58,0.91,2.48,1.01c4.03,0.51,8.52,1.27,10.96,4.52
			c3.38,4.48,1.24,11.57,4.83,15.89c2.27-3.94,5.63-7.25,9.6-9.49c2.71-1.52,5.69-2.56,8.3-4.23c2.6-1.69,4.92-4.25,5.2-7.35
			c0.06-0.64,0.02-1.32-0.29-1.88C427.78,128.15,426.86,127.75,425.98,127.48z"/>
		<path class="st3" d="M339.69,146.43c-9.86-0.16-21.47,1.14-27.89-6.35c-0.97-1.14-1.87-2.51-3.29-2.96
			c-1.28-0.43-2.67,0.02-3.97,0.4c-4.95,1.5-10.05,2.4-15.2,2.69c-20.15,1.11-40.24-7.19-60.2-4.21c8.89,1.7,17.48,4.98,25.23,9.62
			c3.98,2.39,7.81,5.15,12.2,6.68c4.2,1.46,8.72,1.68,12.99,2.89c9.71,2.77,18.41,10.61,28.42,9.28c1.73-0.23,3.42-0.73,5.16-0.86
			c13.64-0.97,20.01,20.14,33.65,21.12c5.76,0.4,12.74-2.7,16.64,1.56c1.46,1.59,2.31,4.1,4.43,4.49c1.3,0.24,2.56-0.48,3.67-1.21
			c9.71-6.37,17.46-15.69,21.95-26.4l-1.9-1.96C374.96,154.02,357.8,146.7,339.69,146.43z"/>
		<path class="st3" d="M157.71,146.44c9.76,2.74,19.77,8.02,29.5,5.13c-1.87-5.17-7.83-7.32-13-9.18c-5.18-1.85-11-5-11.56-10.47
			c-6.43,3.01-13.37,4.9-20.42,5.57c-3.57,0.35-8.08-0.21-9.3-3.57c-0.55-1.54-0.2-3.25,0.28-4.81
			c3.43-10.97,14.13-19.27,25.61-19.85c4.71-0.24,9.77,0.89,13.05,4.28c3.28,3.41,3.98,9.45,0.6,12.75
			c3.45-0.43,7.04,0.27,10.05,1.98c1.84,1.04,3.47,2.43,5.42,3.2c2.85,1.13,6.03,0.83,9.1,0.76c8.57-0.2,17.19,1.6,24.96,5.22
			c-9.03-4.42-18.06-8.86-27.09-13.29c-1.85-0.91-3.89-2.04-4.44-4.03c-0.38-1.41,0.1-2.98-0.52-4.29c-0.69-1.51-2.5-2.09-4.11-2.52
			c-13.67-3.57-27.35-7.14-41.02-10.7l-3.29,1.53c-8.37,9.6-16.75,19.21-25.13,28.81c-3.61,4.14-7.44,8.82-7.37,14.32
			c3.07-2.94,7.74-3.24,11.97-3.4C133.3,143.47,145.86,143.09,157.71,146.44z"/>
		<path class="st3" d="M196.91,153.14c-1.81-0.12-3.42,1.05-5,1.96c-8.24,4.77-18.57,3.34-27.8,1.04c-4.88-1.22-9.85-2.6-14.83-3.38
			c8.11,6.1,19.75,5.58,29.93,7.77c10.12,2.18,19.42,7.45,29.64,9.09c5.64,0.92,11.55,0.72,16.89,2.77
			c-8.7-4.89-16.95-10.58-24.6-16.99C199.89,154.36,198.53,153.25,196.91,153.14z"/>
		<path class="st3" d="M349.81,193.56c-3.11-0.48-6.15,1-9.13,2.04c-11.32,3.93-23.75,1.7-35.52-0.57
			c-8.7-1.68-17.39-3.34-26.08-5.02c-4.83-0.94-9.71-1.87-14.2-3.87c-5.17-2.29-10.02-6.03-15.68-6l-2.63,0.23
			c1.51,4.74,6.87,6.9,11.62,8.45c16.28,5.3,32.69,10.63,49.69,12.7c11.28,1.37,23.86,1.78,31.93,9.78
			c0.57,0.58,1.13,1.21,1.38,1.98c0.75,2.42-1.85,4.56-4.27,5.29c-2.42,0.72-5.25,1.02-6.8,3.01c-0.74,0.96-1.11,2.25-2.13,2.9
			c-1.43,0.91-3.27,0.16-4.79-0.58c-22.15-10.67-47.61-12.11-70.73-20.48c-17.04-6.18-33.56-16.26-51.67-15.5
			c31.96,12.92,64.82,23.62,98.25,32.01c9.64,2.42,19.96,5.01,26.61,12.39c-9.19,1.43-18.66,1.03-27.72-1.13
			c-5.61-1.34-11.17-3.38-16.96-3.34c-4.36,0.02-8.66,1.24-13.02,1.51c-5.01,0.31-10-0.64-14.93-1.57
			c-17.99-3.44-35.98-6.87-53.98-10.3c-7.09-1.35-14.2-2.7-21.05-4.98c-6.6-2.2-13.03-5.26-19.96-5.85c13.83,7,27.67,14,41.49,21
			c-4.39-0.26-8.79-0.52-13.19-0.78c-1.81-0.1-3.91-0.08-5.01,1.35c-0.77,0.99-0.77,2.34-1.11,3.56c-0.88,2.97-4.28,4.93-7.3,4.21
			c7.89,2.3,16.28,2.02,24.5,1.71c9.28-0.34,18.57-0.68,27.86-1.02c2.57-0.1,5.23-0.21,7.55-1.33c1.78-0.86,3.26-2.26,5.05-3.08
			c3.32-1.51,7.17-0.84,10.76-0.16c10.2,1.98,20.4,3.96,30.59,5.93c9.86,1.92,19.82,3.86,28.97,8.01c-9.75,0.5-19.5,1-29.25,1.5
			c6.46,2.97,12.93,5.94,19.38,8.91c-5.37,0.48-10.44,2.55-15.66,3.86c-4.57,1.15-9.29,1.71-13.99,1.69
			c7.82,3.41,15.65,6.82,23.47,10.24c-0.13,1.62-1.93,2.44-3.27,3.37c-1.33,0.92-2.28,3.18-0.86,3.97c0.68,0.39,1.54,0.13,2.26-0.14
			c8.08-3.06,15-9.07,19.15-16.63c2.26-4.12,3.79-8.76,7.01-12.19c4.63-4.95,12.15-6.73,16.04-12.28c1.63-2.34,2.45-5.13,3.83-7.63
			c2.63-4.72,7.11-8.08,11.24-11.6c4.12-3.51,8.18-7.64,9.37-12.92S355.16,194.38,349.81,193.56z"/>
		<path class="st3" d="M45.81,224.8c11.14-0.87,22.29-1.73,33.42-2.6c-3.52-3.84-8.56-6.25-13.76-6.59
			c6.02-8.35,14.66-14.81,24.38-18.21c2.2-0.78,4.58-1.48,6.04-3.29c1.47-1.8,1.25-5.12-0.96-5.84c6.23-0.64,12.4-1.93,18.37-3.86
			c-4.09-4.43-9.81-7.34-15.81-8.03c2.7-3.57,7.98-3.6,12.44-3.22c18.34,1.59,36.57,4.53,54.48,8.78
			c-14.02-6.99-28.63-12.79-43.62-17.32c-2.34-0.7-4.76-1.41-6.65-2.97c-2.03-1.66-3.25-4.13-5.22-5.87
			c-1.97-1.74-5.4-2.44-6.99-0.36l0.72-3.74c-9.91,7.33-17.66,17.12-25.29,26.8c-11.13,14.12-22.26,28.25-33.4,42.37
			c-0.73,0.94-1.5,2.25-0.81,3.22C43.71,224.87,44.85,224.89,45.81,224.8z"/>
		<path class="st3" d="M45.75,246.21c5.51-5.84,17.4,3.13,22.77-2.86c-9.9-4.6-20.75-7.12-31.66-7.34l-3.01-4.67
			c-6.14,6.24-12.29,12.49-18.44,18.74c-1.11,1.12-2.29,2.49-2.09,4.05c0.38,3.03,4.71,2.98,7.76,2.71c9-0.82,17.4,4.05,26.08,6.61
			c9.06,2.67,18.68,2.82,28.13,2.94c14.4,0.18,28.81,0.32,43.21,0.45c6.43,0.05,13.05,0.07,19.03-2.29
			C107.75,255.01,76.9,248.84,45.75,246.21z"/>
		<path class="st3" d="M216.94,271.65c-24.06-7.63-48.14-20.5-73.05-16.42c3.98,3.71,9.41,5.84,14.86,5.83
			c-2.2,1.22-2.2,4.63-0.66,6.62c1.55,1.98,4.07,2.89,6.45,3.72c-13.37,3.88-27.26,5.9-41.18,5.96c9.46,1.53,18.98,3.05,28.55,2.71
			c7.45-0.27,14.83-1.66,22.28-1.48c8.26,0.21,16.33,2.34,24.39,4.19c19.85,4.54,40.06,7.4,60.24,10.25
			c7.47,1.06,16.81,1.26,20.54-5.3l1.1-2.8c-5.44-0.95-10.9-1.9-16.35-2.85C248.23,279.3,232.3,276.52,216.94,271.65z"/>
		<path class="st3" d="M142.48,197.25l-4.36-1.43c-8.75,3.98-17.48,7.97-26.22,11.96c-1.3,0.59-2.79,2.23-1.68,3.13
			c0.37,0.29,0.89,0.31,1.36,0.31c6.87-0.05,13.74-1.76,19.84-4.93c2.67-1.39,5.39-3.11,8.4-3.04c4.39,0.1,8.9,3.97,12.72,1.79
			c-0.65-2.19-3.34-2.88-5.54-3.46C144.77,201.01,142.18,199.52,142.48,197.25z"/>
		<path class="st3" d="M297.55,172.76c-3.08-4.14-8.43-5.7-13.33-7.26c-10.22-3.25-20.11-7.5-29.49-12.7l-0.48,1
			c11.54,7.97,24.22,14.28,37.52,18.71C293.66,173.14,295.81,173.72,297.55,172.76z"/>
	</g>
	<g class="st4">
		<path class="st5" d="M549.05,232.93c-3.05-39.36-9.16-90.73-21.19-128.34c0,0,12.69,83.59-2.81,110.67
			c-9.54,16.68-25.6,29.24-43.14,37.07c-26.42,11.79-68.21,25.48-96.94,33.23c46.67-12.45,107.65-24.91,154.32-37.37
			c2.64-0.7,5.42-1.49,7.31-3.47C549.46,241.73,549.37,237.06,549.05,232.93z"/>
	</g>
	<g class="st6">
		<path class="st7" d="M215.13,52.1c1.68,0.06,2.89-1.5,3.95-2.78c3.19-3.88,7.64-6.71,12.5-7.96c3.43-0.88,8.06-2.12,7.93-5.66
			c-0.08-2.17-2.29-3.77-4.46-3.95c-2.16-0.17-4.27,0.7-6.27,1.55l3.77,0.46c-5.99,2.31-11.61,5.55-16.6,9.59
			c-1.5,1.21-3.01,2.61-3.45,4.48C212.05,49.69,213.22,52.04,215.13,52.1z"/>
		<path class="st7" d="M313.74,52.34l-1.2-0.86c5.32,0.31,11.25,0.89,14.76,4.93c3.45,3.94,5.2,11.25,10.4,10.59
			c3.87-0.48,5.3-5.91,3.37-9.31c-1.93-3.38-5.77-5.11-9.36-6.62c-3.83-1.62-7.66-3.23-11.49-4.84c-5.35-2.26-12.95-3.83-15.78,1.25
			C306.37,50.6,310.08,52.54,313.74,52.34z"/>
		<path class="st7" d="M401.71,68.21c9.19-1.92,18-5.57,25.86-10.68c1.95-1.28,4.06-3.65,2.78-5.58c-0.55-0.82-1.57-1.2-2.52-1.41
			c-4.12-0.9-8.65,0.36-11.71,3.27l6.32-0.1c-6.87,1.91-13.76,3.81-20.63,5.71c-1.88,0.52-3.84,1.08-5.26,2.43
			c-1.41,1.34-2.06,3.7-0.88,5.26C396.98,68.84,399.6,68.66,401.71,68.21z"/>
		<path class="st7" d="M364.25,45.87l-6.21-3.35c1.16,4.35,6.6,5.96,11.08,5.56c0.8-0.07,1.58-0.21,2.39-0.35
			C369.79,45.27,366.45,43.88,364.25,45.87z"/>
		<path class="st7" d="M305.44,113.64c-0.57,0.12-1.05,0.4-1.57,0.64c0.59,1.05,1.09,2.16,1.76,3.18c1.21,1.84,3.51,3.79,5.33,2.54
			c1.54-1.06,1.04-3.58-0.24-4.93c-0.55-0.58-1.22-1.02-1.87-1.47C307.7,113.47,306.57,113.41,305.44,113.64z"/>
		<path class="st7" d="M308.84,113.6c1.75,0.18,3.51,0.56,5.28,0.48c4.96-0.2,9.36-4.7,9.47-9.67c-5.88,2.04-11.76,4.08-17.64,6.13
			c-0.09,0.03-0.18,0.04-0.28,0.07c0.22,0.32,0.35,0.68,0.64,0.99C307.04,112.38,307.94,112.98,308.84,113.6z"/>
		<path class="st7" d="M293.5,112.65c-4,0.21-8.82,3.36-7.46,7.12c1.34,3.68,6.95,3.13,10.04,0.71c2.63-2.06,4.84-4.88,7.8-6.21
			c-0.42-0.77-0.87-1.5-1.26-2.28C299.85,112.91,296.52,112.49,293.5,112.65z"/>
		<path class="st7" d="M383.13,101.43c7.97,1.29,15.93,2.56,23.9,3.85c-22.67-6.38-45.35-12.75-68.03-19.14
			c-7.47-2.1-16.02-5.2-18.43-12.56c-3.25-0.37-6.51-0.73-9.76-1.11c-30.69-3.48-61.38-6.95-92.06-10.42
			c-12.67-0.04-25.34-0.09-38-0.13c20.09,3.7,40.17,7.4,60.25,11.09c10.1,1.86,20.32,3.73,30.56,3.06
			c13.02-0.85,26.54-5.69,38.69-0.96c6.8,2.66,12.15,8.02,18.29,11.96c11.4,7.32,25.2,9.63,38.57,11.79
			c2.48,0.4,4.95,0.79,7.44,1.19l-3.29,1.31c1.92-1.57,4.63,1.33,4.42,3.79c-0.22,2.47-1.81,4.69-1.83,7.17
			c-0.02,3.68,3.4,6.77,3.16,10.45c-0.16,2.47-1.93,4.47-2.99,6.71c-1.06,2.22-1.08,5.5,1.16,6.53c2.62,1.22,5.35-2.09,5.28-4.97
			c-0.06-2.89-1.62-5.56-1.89-8.45c-0.28-2.91,0.79-5.76,1.26-8.65c0.75-4.58-0.17-9.33-2.36-13.41c1.65,0.26,3.31,0.53,4.94,0.78
			c0.4,0.2,0.8,0.37,1.21,0.53C383.46,101.69,383.29,101.57,383.13,101.43z"/>
		<path class="st7" d="M408.53,108.24c-6.92-5.08-17.29-3.31-24.93-6.4c3.57,3.46,6.61,8.39,11.19,10.33
			c4.23,1.77,9.39,0.81,13.25,3.28c2.84,1.81,4.38,5.14,7.09,7.13c2.72,1.98,7.86,1.25,7.88-2.12
			C416.65,119.54,413.72,112.06,408.53,108.24z"/>
		<path class="st7" d="M315.01,187.43c-3.51-2.01-7.11-3.79-10.86-5.05c0.06-2.33,1.47-4.9,3.45-6.4c3.04-2.31,7.02-3.71,8.92-7.04
			c-5.47-2.38-11.22,2.38-15.29,6.74c-1.56,1.66-3.38,3.38-5.33,4.74c-1.98-0.92-3.97-1.84-5.95-2.76
			c-8.97-4.15-17.93-8.3-26.67-12.86c-14.83-7.77-29.2-16.84-45.31-21.38c-11.63-3.27-24.29-4.27-35.33-8.66
			c14.3,7.5,29,14.27,44.14,19.88c13.4,4.97,27.13,9.19,39.9,15.63c5.11,2.58,10.13,5.45,15.5,7.37c-1.14-0.18-2.26-0.12-3.33,0.41
			c-4.27,2.1-2.36,9.31,2.03,11.13c4.4,1.81,9.36,0.17,13.92-1.18c4.55-1.35,9.93-2.25,13.7,0.63c1.47,1.12,2.54,2.72,4.09,3.72
			c1.55,1,3.99,1.11,4.93-0.48c0.28-0.45,0.24-0.9,0.21-1.35c0.93,0.43,1.87,0.87,2.81,1.3c5.21,2.41,10.59,4.85,16.18,5.98
			c-7.53-1.62-14.35-6.17-21.39-10.21C315.22,187.54,315.13,187.48,315.01,187.43z M285.9,182.32l7.18-2.1
			c-2.36,0.6-4.77-0.45-7.15-1.4c3.21,0.78,6.49,1.24,9.77,1.72C292.61,182.63,289.19,183.8,285.9,182.32z M305.38,185.71
			c-0.39-0.34-0.5-0.81-0.72-1.23c1.76,0.81,3.51,1.63,5.26,2.43C308.26,186.91,306.62,186.78,305.38,185.71z"/>
		<path class="st7" d="M357.02,162.99c-2.01,0.94-2.83,3.3-3.46,5.43c-1.14,3.91-2.3,7.81-3.45,11.71l6.1-7.25
			c-0.37,1.82-0.72,3.64-1.09,5.46c3.42-2.04,7.14-4.42,8.22-8.25C364.42,166.26,360.63,161.31,357.02,162.99z"/>
		<path class="st7" d="M146.64,134.44c1.44,0.58,2.98-0.41,4.2-1.34c7.52-5.75,15.84-13.24,14.83-22.66
			c-4.1,0.51-7.91,2.99-10.04,6.54l4.27-1.34c-6.02,2.37-11.12,7.04-13.98,12.85C144.92,130.51,144.55,133.6,146.64,134.44z"/>
		<path class="st7" d="M99.01,198.89l-6.3,1.31c0.29,0.28,0.64,0.36,0.99,0.49c1.74-0.66,3.5-1.29,5.31-1.78L99.01,198.89z"/>
		<path class="st7" d="M111.23,230.58c-0.54,0.17-1.05,0.43-1.47,0.94C110.28,231.27,110.72,230.88,111.23,230.58z"/>
		<path class="st7" d="M120.05,217.91l-1.28,3.81c0.04,0.03,0.08,0.05,0.12,0.07C119.42,220.53,119.84,219.24,120.05,217.91z"/>
		<path class="st7" d="M248.61,173.24c1.55,0.97,2.61,2.56,4.11,3.62c1.5,1.05,3.9,1.31,4.91-0.21c-5.63-4.09-11.27-8.19-16.9-12.28
			l-4.63,2.49c0.04,2.52,2.74,4.16,5.2,4.65C243.79,172,246.48,171.91,248.61,173.24z"/>
		<path class="st7" d="M255.81,243.79c3.37-0.7,6.86-0.2,10.29,0.06c6.54,0.49,13.15,0.01,19.55-1.4
			c-10.09-5.2-22.34,2.96-33.49,0.86c-2.59-0.48-5.07-1.52-7.69-1.77c-6.12-0.59-11.68,3.13-16.65,6.81
			c-1.65-0.59-3.27-1.16-4.93-1.66c-12.3-3.78-25.38-3.9-38.24-4.44c-18.59-0.78-37.13-2.5-55.63-4.48c-2-1.14-4.23-1.98-5.88-3.57
			c-2.34-2.26-1.96-7.51,1.28-7.46c1.86,0.04,3.11,1.84,4.35,3.24c4.79,5.43,12.78,6.31,20,6.84c3.16,0.23,6.39,0.45,9.39-0.51
			c3.02-0.94,5.78-3.33,6.23-6.45c-5.67-2.91-12.34-3.83-18.59-2.56c-1.54,0.31-3.21,0.73-4.61,0.04
			c-4.54-2.24,0.59-10.77-3.41-13.87c-2.68-2.07-6.45,0.59-8.37,3.37c-1.94,2.78-4.14,6.25-7.53,6.07c-1.1-0.06-2.06-0.53-2.99-1.12
			c-0.13,0.34-0.32,0.66-0.49,1l0.37-1.07c-0.99-0.65-1.92-1.46-2.87-2.14c-6.88-4.85-16.25-2.89-24.37-0.76
			c3.28,8.41,13.8,12.95,22.26,10c-0.79,0.69-1.67,1.22-2.56,1.76c1.1-0.32,2.35-0.01,3.48,0.76c-0.46,0.74-1.11,1.4-1.87,1.84
			c-1.7,0.95-3.68,1.17-5.56,1.65c-0.4,0.1-0.78,0.28-1.18,0.41c-1.03-0.11-2.06-0.23-3.1-0.35c-14.99-1.72-29.99-3.44-44.99-5.15
			l5.18,3.9c12.5-1.3,24.74,1.41,36.99,4.67c-1.57,1.19-3.02,2.56-4.17,4.16c-1.08,1.47-1.87,3.7-0.56,4.94
			c1.53,1.46,3.97,0,5.51-1.42c2.11-1.93,4.2-3.86,6.31-5.78c3.43,0.94,6.87,1.82,10.31,2.69c-0.12,1.65-0.13,3.3,0.39,4.88
			c1.54,4.64,7.85,6.91,11.99,4.32c2.07-1.3,3.29-3.62,3.54-6.04c3.17,0.4,6.35,0.68,9.53,0.7c13.87,0.13,27.49-3.8,41.35-4.2
			c12.09-0.34,24,2.01,35.86,4.85l-3.6,10.26c-2.09-0.33-4.17-0.66-6.27-0.94c-12.43-2.63-25.09-4.17-37.79-4.5
			c29.86,10.22,60.93,16.31,91.91,22.36c3.35,0.65,7.03,1.26,10.01-0.4c-18.46-7.87-37.92-13.32-57.74-16.49
			c7.07-1.39,13.98-3.46,20.67-6.07c13.08,3.13,26.18,5.64,39.49,4.54c-9.56-6.77-22.73-2.09-34.34-3.56
			c-1.71-0.22-3.4-0.58-5.06-1.02c3.55-1.38,7.06-2.86,10.45-4.56C250.5,245.74,253.03,244.37,255.81,243.79z M114.88,233.22
			l0.47-1.38c1.27,1.08,2.27,2.63,2.48,4.23c0.02,0.17-0.01,0.33,0.01,0.49c-1.95-0.21-3.91-0.44-5.86-0.67
			C112.94,235.01,113.92,234.11,114.88,233.22z M222.75,250.69c-1.63-0.08-3.12-1.84-2.5-3.27c2.18,0.53,4.37,1.08,6.55,1.62
			C225.58,249.93,224.25,250.76,222.75,250.69z"/>
		<path class="st7" d="M200.81,60.02c5.98,0.68,11.97,1.36,17.96,2.03c5.69,0.02,11.38,0.04,17.09,0.07L200.81,60.02z"/>
		<path class="st7" d="M367.77,84.03c0.56,2.1,1.89,3.86,4,3.71c2.05-0.15,3.45-1.95,5.1-3.25c2.75,0.14,5.5,0.28,8.25,0.42
			c0.61,0.36,1.23,0.72,1.82,1.06c2.52,1.43,6.37,1.93,7.73-0.58c18.3,0.92,36.6,1.85,54.88,2.77c-18.43-2.08-36.85-4.17-55.27-6.25
			c-1.14-1.73-3.36-3.23-5.33-4.24c-6.08-3.11-11.1-8.29-14.02-14.45c2.79-4.37,10.73-2.31,13.56-6.66
			c2.46-3.76-1.57-8.87-5.99-9.71c-3.63-0.7-7.3,0.28-10.98,0.88c0.7,1.01,1.16,2.18,1.12,3.41c-0.16,4.2-3.67,7.45-7.25,9.65
			c-3.57,2.19-7.61,3.94-10.15,7.28c-1,1.33-1.7,3.25-0.73,4.6c0.61,0.83,1.69,1.17,2.71,1.36c5.15,0.99,10.71-0.48,14.69-3.89
			c-0.43,3.18-2.58,5.83-3.8,8.81c-15.8-1.79-31.6-3.58-47.4-5.36c12.63,8.45,28.65,9.5,43.83,10.27
			C365.61,83.92,366.69,83.97,367.77,84.03z"/>
		<path class="st7" d="M320.56,73.5c0,0.02,0.02,0.05,0.02,0.07c0.04,0,0.08,0.01,0.11,0.01C320.64,73.55,320.6,73.53,320.56,73.5z"
			/>
		<path class="st7" d="M309.4,130.91c-7.99-1.6-15.66-4.53-23.43-6.99c-15.43-4.89-31.33-7.94-47.34-10.45
			c-0.77-0.65-1.49-1.35-2.06-2.23c4.65,0.02,8.26-5.7,6.25-9.89c-2.02-4.19-8.73-4.94-11.63-1.3l5.89,3.5
			c-7.75,5.21-18.22-3.15-27.29-0.94c-1.38,0.34-2.89,1.17-3.04,2.58c-0.37,3.7,6.92,2.07,8.98,4.93c-0.41-0.06-0.83-0.12-1.24-0.18
			c-13.03-1.78-26.07-3.57-39.11-5.35c12.34,5.29,25.46,8.73,38.81,10.01c0.07,0.01,0.13,0.01,0.2,0.01
			c-0.18,0.13-0.35,0.3-0.53,0.4c-1.54,0.91-3.37,1.36-4.67,2.58c-2.53,2.34-2.05,6.71,0.11,9.41c2.16,2.69,5.48,4.14,8.67,5.47
			c2.66-3.82,2.55-8.87,4.08-13.28c0.47-1.38,1.32-2.71,2.34-3.83c3.7,0.25,7.37,0.56,11.02,1.09c0.12,0.19,0.25,0.37,0.37,0.56
			c4.44,6.86,11.58,11.91,19.52,13.81c0.73,0.18,1.52,0.33,2.22,0.06c1.29-0.5,1.68-2.17,1.49-3.53c-0.23-1.7-1.13-3.07-2.25-4.3
			c12.5,5.39,24.67,11.77,37.96,10.58c4.36-0.39,8.63-1.6,13-1.79c5.72-0.26,11.33,1.24,16.87,2.66
			c23.94,6.1,48.22,10.82,72.7,14.11c-20.46-8.13-42.13-13.26-64.07-15.16C325.27,132.75,317.24,132.48,309.4,130.91z"/>
		<path class="st7" d="M156.66,102.02c6.24,0.86,12.48,1.71,18.72,2.56c-3.45-1.48-6.86-3.05-10.17-4.82L156.66,102.02z"/>
		<path class="st7" d="M289.6,93.08c0,0,0.02,0,0.02,0.01l2.2-0.08C291.08,93.03,290.34,93.06,289.6,93.08z"/>
		<path class="st7" d="M257.81,94.26l10.21-0.38C264.62,93.79,261.22,93.87,257.81,94.26z"/>
		<path class="st7" d="M201.34,89.15c-3.24-1.15-6.5-2.12-9.94-2.2C194.69,87.92,198,88.59,201.34,89.15z"/>
		<path class="st7" d="M201.34,89.15c5.39,1.93,10.68,4.53,16.32,5.53c3.95,0.72,7.97,0.58,11.98,0.44
			c19.99-0.69,39.98-1.36,59.97-2.04c-2.43-0.53-4.87-1.02-7.31-1.4C255.6,87.47,227.72,93.66,201.34,89.15z"/>
		<path class="st7" d="M296.97,98.05c0.5,3.46,1.39,6.86,2.96,9.98c0.45,0.87,1.08,1.68,1.83,2.27c0.26,0.58,0.58,1.13,0.86,1.7
			c0.69-0.23,1.31-0.62,1.91-1.05c0.39-0.09,0.78-0.21,1.15-0.33c-1.7-2.56-1.77-6-2.35-9.11c-0.15-0.8-0.43-1.61-0.78-2.39
			c10.92,2.06,21.84,3.63,32.75,2.07c-12.16,0.51-23.98-2.72-35.86-5.73c-0.63-0.37-1.33-0.52-2.06-0.53
			c-2.58-0.65-5.17-1.26-7.75-1.82l-21.6,0.79C277.68,94.18,287.32,96.13,296.97,98.05z"/>
		<path class="st7" d="M172.49,129.23c3.13,2.33,6.55,4.11,10.13,5.53c-2.14-1.13-4.33-2.08-6.44-3.24L172.49,129.23z"/>
		<path class="st7" d="M336.71,197.81c1.82,0.38,3.69,0.62,5.62,0.61C340.42,198.39,338.55,198.17,336.71,197.81z"/>
		<path class="st7" d="M230.78,180.78c-6.13-2.02-12.54-3.01-18.91-3.97c-10.73-1.65-21.47-3.28-32.2-4.91
			c-5.31-0.8-10.67-1.63-15.66-3.6c-5.27-2.08-10.01-5.38-15.41-7.11c-9.12-2.92-19.64-1.17-27.92-6l8.11,4.32
			c-3.23-0.82-6.47-1.64-9.7-2.46c22.84,12.58,48.6,19.81,74.64,20.95c8.46,0.37,17.14,0.14,25.15,2.93
			c6.42,2.24,12.06,6.32,18.41,8.73c6.71,2.53,13.96,3.14,20.92,4.82c12.28,2.96,23.49,9.2,35.33,13.58
			c11.85,4.38,25.25,6.82,36.95,2.04c-28.26-2.31-56.2-9.28-81.82-21.42C242.77,185.9,236.97,182.82,230.78,180.78z"/>
		<path class="st7" d="M203.38,197.51c-2.07-0.4-4.13-0.75-6.22-1.11c-0.83-0.71-1.57-1.52-2.44-2.2c-5.17-4-10.35-8.01-15.52-12.02
			c-1.33,0.83-2.04,2.52-1.71,4.06l4.82,2.44c2.19,1.47,3.76,3.55,5.11,5.84c-3.28-0.72-6.54-1.54-9.69-2.69
			c-5.57-2.06-10.92-5.03-16.81-5.68c-6.86-0.77-13.96,1.69-20.59-0.18c-0.38-0.1-0.71-0.29-1.08-0.43
			c0.96-0.51,1.96-0.91,3.05-1.13c-2.13-0.95-4.39-0.92-6.65-0.5c-3.06-1.7-5.94-3.86-9.08-5.43c-2.54-1.28-5.56-1.96-8.38-1.76
			c5.11,2.7,10.28,5.23,15.53,7.59c-2.53,0.78-5.02,2.08-7.24,3.5c-4.74,3.05-9.66,6.69-15.29,6.47c-2.39-0.1-4.88-0.89-7.11-0.02
			c-2.15,0.83-3.45,2.99-5.07,4.64l0.04-0.01c-0.01,0.01-0.02,0.02-0.05,0.02c-0.02,0.02-0.04,0.04-0.06,0.06
			c-1.38,1.38-3.55,2.31-5.25,1.72c-5.23,1.95-10.23,4.57-14.73,7.87c5.06,3.64,12.18,1.23,17.46-2.09
			c5.27-3.31,10.54-7.61,16.78-7.51c2.61,0.04,5.18,0.86,7.77,0.6c7.31-0.75,11.16-9.25,17.16-13.26
			c18.32,7.95,37.37,14.2,56.73,19.51c2.37,2.19,5.18,3.67,8.26,3.04c0.01-0.29-0.11-0.56-0.12-0.84c9.12,2.37,18.29,4.59,27.46,6.7
			c28.76,6.57,58.76,12.26,87.59,5.97c-16.55,0.04-33.13-1.8-49.27-5.48C246.77,210.17,225.59,201.73,203.38,197.51z"/>
		<path class="st7" d="M112.07,179.49c1.55-1.84,3.77-2.6,6.13-2.78c-1.56-0.83-3.16-1.58-4.72-2.44L112.07,179.49z"/>
	</g>
	<path class="st8" d="M533.49,216.87c-5.83-9.75-20.7-5.51-30.71-0.12c-4.5,2.44-9,4.86-13.51,7.29c-2.23,1.2-4.6,2.44-7.14,2.42
		c-8.05-0.06-10.4-11.28-8.56-19.12c1.84-7.85,4.88-17.22-0.66-23.07c11.36,0.51,22.71,1.02,34.07,1.53
		c5.43,0.24,11.29,0.64,15.46,4.14c2.56,2.14,5.07,5.56,8.31,4.72c3.22-0.81,3.81-5.07,3.75-8.39
		c-0.35-18.73-1.57-39.52-14.99-52.57c-6.32-6.13-17.99-9.14-23.2-2.03c-2.58,3.51-2.66,8.43-5.4,11.79
		c-3.11,3.81-9.16,5-10.95,9.57c-2.93,7.47,8.14,16.81,2.7,22.72c-1.64,1.79-4.24,2.27-6.63,2.66c-7.27,1.17-17.6,0.13-18.14-7.22
		c-0.39-5.26,5.02-8.77,9.41-11.68c4.39-2.91,8.82-8.43,5.99-12.87c-1.48-2.3-4.57-3.4-5.5-5.97c-1.25-3.46,2.47-6.93,6.12-7.4
		c3.64-0.48,7.28,0.81,10.95,0.91c9.45,0.25,18.02-8.9,17.17-18.31l2.86-5.8c7.95,0.01,18.28-1.9,19.44-9.75
		c1.27-8.63-9.64-12.96-16.85-17.88c-3.78-2.56-7.48-6.2-12.05-5.88c-6.14,0.43-9.13,7.4-12.61,12.48
		c-3.96,5.78-9.82,9.93-14.8,14.85c-13.22,13.05-20.19,32.18-18.44,50.68c-1.15-5.29-2.31-10.59-3.49-15.89
		c-15.24,11.68-27.57,27.12-35.6,44.56c-1.87,4.06-3.23,9.52,0.15,12.45c1.82,1.57,4.57,1.85,6.14,3.68
		c3.59,4.14-2.87,10.1-8.35,9.9c-5.48-0.2-11.15-2.96-16.23-0.9c-2.99,1.21-5.09,3.86-7.07,6.41
		c-14.92,19.25-29.84,38.51-44.76,57.77c-2.67,3.45-5.4,8.3-2.8,11.81c4.07,5.46,11.91-1.08,18.01-4.07
		c9.31-4.57,20.67,0.64,30.75-1.85c12.47-3.07,19.05-16.48,23.4-28.57c1.66-4.58,3.04-10.26-0.24-13.85
		c-1.74-1.89-4.55-2.85-5.54-5.23c-1.88-4.55,4.81-8.11,9.66-7.2c4.84,0.91,9.83,3.7,14.39,1.81c-0.97,15.39,6.3,31.05,18.68,40.25
		c24.53-3.61,48.48-11.14,70.67-22.21c5.23-2.61,10.53-5.55,14.11-10.17C535.03,228.64,536.5,221.89,533.49,216.87z"/>
	<g class="st9">
		<path class="st5" d="M491.35,43.99L491.35,43.99c3.09,13.13-12.78,34.7-21.33,45.13C415.37,155.7,360.28,221.99,301.56,285
			c-1.75,1.87-3.39,5.14-1.27,6.58c0.77,0.53,1.79,0.51,2.72,0.47c34.92-1.68,68.03-17.89,94.78-40.4
			c26.76-22.51,47.75-51.06,66.54-80.55c11.68-18.34,22.76-37.47,28.02-58.55C497.6,91.46,502.97,62.35,491.35,43.99z"/>
	</g>
	<g class="st6">
		<path class="st3" d="M434.23,92.13l6.27,5.24c-0.01-1.21-0.67-2.46-1.63-3.26C437.58,93.03,435.88,92.57,434.23,92.13z"/>
	</g>
	<g class="st6">
		<path class="st3" d="M440.5,97.52c0.18,0.12,0.39,0.2,0.58,0.32l-0.57-0.47C440.5,97.42,440.5,97.46,440.5,97.52z"/>
	</g>
	<g class="st6">
		<path class="st3" d="M157.23,84.34l6.82-2.7C161.64,82.16,159.35,83.1,157.23,84.34z"/>
	</g>
	<g class="st6">
		<path class="st3" d="M151.82,86.48c0.8-0.09,1.62-0.01,2.42-0.06c0.95-0.75,1.93-1.47,2.99-2.07L151.82,86.48z"/>
	</g>
	<g class="st6">
		<path class="st3" d="M384.96,114.7c0.39-0.01,0.75,0.09,1.14,0.11c-0.01-0.29-0.02-0.59-0.03-0.89L384.96,114.7z"/>
	</g>
	<g class="st6">
		<path class="st3" d="M136.05,152.76c4.38-0.93,8.81-0.69,13.24-0.01c-0.65-0.47-1.32-0.92-1.9-1.49L136.05,152.76z"/>
	</g>
	<g class="st10">
		<path class="st11" d="M446.04,71.38c-1.95-3.19-6.37-3.58-10.11-3.6c-35.23-0.25-70.91-0.44-105.04,8.27
			c-12.64,3.24-25.54,7.72-38.44,5.68c-13.76-2.18-25.25-11.44-38.22-16.54c-24.59-9.67-62.76-12.67-85.56,0.69
			c-22.8,13.36-32.08,35-49.89,54.52C93.61,148,69.16,182.9,44,210.5c-11.71,12.84-29.71,32.61-35.78,48.88
			c-2.69,20.39,244.11,41.68,269.25,37.78c14.71-2.28,166.47-185.77,169.46-219.52C447.12,75.51,447.16,73.21,446.04,71.38z"/>
	</g>
	<g class="st10">
		<path class="st11" d="M336.73,177.33c-7.58-8.74-21.42-8.15-31.16-14.4c-4.96-3.19-8.65-8.07-13.59-11.29
			c-12.56-8.21-29.01-3.9-43.8-1.41c-36.25,6.12-73.26-0.56-109.92-3.37c-9.05-0.69-18.47-1.1-26.87,2.34
			c-8.48,3.48-14.93,10.46-21.05,17.29c-22.59,25.23-44.45,51.11-65.54,77.59l-7.06,9.66c-9.95,9.75,61.88,19.49,69.04,20.42
			c9.07,1.19,180.41,20.26,188.09,17.66c10.23-3.5,21.17-18.47,27.64-27.16c10.69-14.35,23.51-26.01,34.2-40.37
			c4.74-6.38,14.69-15.72,17.06-23.32C356.15,193.38,341.94,183.34,336.73,177.33z"/>
	</g>
	<g class="st4">
		<path class="st5" d="M491.35,43.99c-1.22,14.3-15.77,35.83-23.86,47.7c-46.92,68.73-105.02,128.95-162.37,189.26
			c-2.37,2.5-4.85,6.38-2.63,9.03c1.07,1.28,2.86,1.63,4.52,1.82c14.03,1.49,28.03-4.56,38.98-13.45
			c10.95-8.89,19.36-20.46,27.62-31.9c23.13-31.98,46.25-63.95,68.66-96.41c19.73-28.57,45.5-59.97,49.08-94.5V43.99z"/>
	</g>
	<g class="st2">
		<path class="st12" d="M234.37,36.13c-0.89-0.78-1.18-0.36-2.01-0.01h1.69c-3.1,1.08-17.17,1.07-13.92,8.37
			C223.03,43.33,234.84,39.38,234.37,36.13z"/>
		<path class="st12" d="M313.29,46.17c-1.99-0.97-4.98-0.51-5.12,2.11c2.58,1.82,14.26,5.04,17.01,3.81
			C325.56,48.56,317.74,46.38,313.29,46.17z"/>
		<path class="st12" d="M338.48,66.33c5.87-2.15-4.59-10.09-7.53-10.83l-3.79,0.41C330.12,58.65,331.42,68.93,338.48,66.33z"/>
		<path class="st12" d="M380.25,51.28c0.18-0.05,0.4-0.05,0.6-0.08c0.08-0.12,0.18-0.21,0.25-0.34L380.25,51.28z"/>
		<path class="st12" d="M387.02,57.14c4.22-4.05-2.4-6.58-6.17-5.94c-2.26,3.57-7.59,3.91-7.25,9.34
			C375.38,61.54,385.5,58.59,387.02,57.14z"/>
		<path class="st12" d="M379.65,77.2c-4.8-2.88-3.98-8.6-9.51-10.74l1.26,0.42c-3.03-2.29-18.56-0.67-15.8,5.06
			c3.1,6.46,16.25-4.95,17.83-0.89c0.72,1.9-4.55,6.71-4.6,9.32c-0.12,5.59,2.32,3.53,5.2,2.94c1.85-0.39,1.64-0.75,3.79-0.55
			c1.79,0.17,3.51,1.09,5.39,1.18c2.03,0.07,8.01,1.48,9.2,0.17C390.72,79.18,383.4,79.45,379.65,77.2z"/>
		<path class="st12" d="M415.64,58.87l2.48-0.35C417.77,58.02,416.97,58.02,415.64,58.87z"/>
		<path class="st12" d="M418.12,58.52c0.02,0.03,0.01,0.09,0.02,0.12c0.13-0.07,0.33-0.1,0.45-0.18L418.12,58.52z"/>
		<path class="st12" d="M400.89,66.02c2.8,1.36,8.52-0.09,11.38-1.32c1.52-0.66,4.99-2.24,5.65-3.78c0.43-1.02,0.48-1.81,0.22-2.29
			C413.55,61.12,400.6,58.42,400.89,66.02z"/>
		<path class="st12" d="M232.35,68.98c4.6,0.33,8.29,2.94,13.07,3.4c4.57,0.43,8.75,1.62,13.3,2.08c4.46,0.45,8.59-0.73,12.95-0.4
			c-2.44-0.53-5.01-0.08-7.39-0.8c-2.52-0.76-4.24-2.66-6.65-3.51c-3.62-1.28-9.96-2.35-13.91-2.91
			c-9.04-1.32-18.98,0.74-28.22,0.05l2.94,0.42C222.38,70.21,227.84,68.66,232.35,68.98z"/>
		<path class="st12" d="M330.53,85c0.31,1.19,1.6,2.05,3.31,2.71c-0.64-0.81-1.2-1.68-1.62-2.71H330.53z"/>
		<path class="st12" d="M333.84,87.71c3.67,4.61,10.46,5.74,15.86,6.76c5.8,1.1,11.95,3.28,17.94,2.69
			c-6.26-2.33-12.98-5.1-19.44-6.74C345.45,89.72,338.18,89.39,333.84,87.71z"/>
		<path class="st12" d="M412.03,116c-2.74-1.85-5.47-1.33-7.72-4.22c-2.63-3.37-0.69-4.67-5.51-4.81c-2.12-0.07-5.05,1.16-7.15,1.62
			l-0.85-1.69c-0.6,4.96,10.38,5.72,13.7,6.49c3.48,0.8,5.54,1.86,7.83,4.87c1.57,2.06,2.1,5.52,5.33,4.46
			C416.76,121,413.64,117.1,412.03,116z"/>
		<path class="st12" d="M316.21,109.01c0.32,0.05,0.59,0.08,0.83,0.12c0.05,0,0.1-0.01,0.16-0.01L316.21,109.01z"/>
		<path class="st12" d="M317.19,109.12l2.82,0.31C319.21,109.21,318.23,109.12,317.19,109.12z"/>
		<path class="st12" d="M318.26,110.24c-0.28-0.82-0.66-1.01-1.23-1.11c-2.61,0.01-5.55,0.7-6.76,2.44
			C312.63,113.45,316.94,113.21,318.26,110.24z"/>
		<path class="st12" d="M298.38,115.49c-2.62-0.51-4.86-0.23-7,0.83c-2.74,0.66-5.1,2-2.57,4.59
			C291.62,123.77,298.7,118.87,298.38,115.49z"/>
		<path class="st12" d="M212.04,105c-0.53,0-0.97,0.02-1.36,0.06c-0.49,0.49-0.62,1.03-0.19,1.65c4.99-1.06,6.32,4.39,10.72,5.48
			c3.24,0.8,9.54,2.1,12.68,0.5c0.4-4.13-11.54-6.91-18.96-7.54c0.2,0.16,0.42,0.27,0.59,0.5L212.04,105z"/>
		<path class="st12" d="M210.87,104.8l1.16,0.2c0.83,0,1.82,0.06,2.89,0.14c-1.4-1.18-3.37-0.9-5.02,0.03
			c0.21-0.06,0.48-0.08,0.77-0.11C210.76,104.99,210.76,104.88,210.87,104.8z"/>
		<path class="st12" d="M214.25,117.86h2.69C216.24,117.64,215.35,117.6,214.25,117.86z"/>
		<path class="st12" d="M217.59,117.86h1.72C218.72,117.86,218.16,117.85,217.59,117.86z"/>
		<path class="st12" d="M210.62,123.34c7.69,4.52,10.62-4.04,6.39-5.45C213.64,118.03,210.81,118.92,210.62,123.34z"/>
		<path class="st12" d="M216.94,117.86c0.03,0.01,0.04,0.02,0.07,0.02c0.2-0.01,0.38-0.02,0.58-0.02H216.94z"/>
		<path class="st12" d="M242.58,122.56c0.09,0.5,0.34,0.9,0.74,1.2l1.68-0.42c1.32,0.51,14.68,7.56,10.7,0.89
			C253.97,121.31,244.92,121.44,242.58,122.56z"/>
		<path class="st12" d="M263.12,123.76l1.69,1.27c4.72,4.3,8.54,5.65,14.74,6.61c2.51,0.39,12.58,3.04,12.57-1.22
			c-0.01-3.87-12.33-2.89-14.68-3.75c-2.83-1.05-4.42-2.24-7.59-2.49C267.57,123.98,265.4,124.25,263.12,123.76z"/>
		<path class="st12" d="M155.32,126.34c1.99-2.01,6.95-3.13,5.29-6.7c-0.51-0.19-1.02-0.21-1.55-0.1v0.84
			c-4.88,0.29-11.36,6.79-9.79,11.84C152.77,131.76,153.21,128.46,155.32,126.34z"/>
		<path class="st12" d="M139.25,164.2c0.13-0.14,0.46-0.18,0.71-0.26c-0.09-0.04-0.2-0.12-0.29-0.16L139.25,164.2z"/>
		<path class="st12" d="M139.96,163.94c4.68,2.66,13.16,7.15,18.42,6.14C157.35,166.86,143.38,162.81,139.96,163.94z"/>
		<path class="st12" d="M226.26,152.63c4.64,2.33,10.12,5.7,15.37,6c-3.45-5.58-11.74-9.33-17.9-11.05
			c-2.14-0.61-9.38-0.31-13.1-1.24l0.25,0.17C215.48,149.5,221.34,150.18,226.26,152.63z"/>
		<path class="st12" d="M210.63,146.34l-2.28-1.52C208.42,145.55,209.31,146.01,210.63,146.34z"/>
		<path class="st12" d="M282.96,182.83c1.3-0.74,2.61-2,2.94-3.41c-2.57-1.29-4.63,1.01-5.92,3.32l-1.27-0.84
			c-4.74,4.49,5.35,6.55,8.43,6.25c3.85-0.37,12.88-1.24,15.37-4.18C297.27,181.2,286.25,189.26,282.96,182.83z"/>
		<path class="st12" d="M309.05,170.95h0.22c-1.3,0.31-2.39,1.22-2.67,2.53c1.96-0.43,3.93-1.14,5.46-2.44
			C311.11,169.62,310.32,170.16,309.05,170.95z"/>
		<path class="st12" d="M357.54,165.67l1.22-0.2C358.59,165.41,358.1,165.49,357.54,165.67z"/>
		<path class="st12" d="M356.86,165.97c-0.35,0.17-0.67,0.37-0.97,0.63c1.48,1.48,2.32,3.66,3.75,4.72
			C361.71,168.91,359.57,166.34,356.86,165.97z"/>
		<path class="st12" d="M356.24,165.89c0.21,0,0.42,0.04,0.62,0.08c0.23-0.12,0.46-0.23,0.68-0.3L356.24,165.89z"/>
		<path class="st12" d="M377.72,108.59c-1.4,2.15-2.84,4.93-0.4,6.66c1.21-1.54,1.62-3.89-0.02-4.98L377.72,108.59z"/>
		<path class="st12" d="M161.58,191.17l-2.95-0.42c6.39,1.24,12.62,5.34,18.96,7.19c5.47,1.6,14.53,3.81,20.11,2.77
			c-5.15-4.04-11.86-3.54-17.58-5.86C173.56,192.16,168.92,189.35,161.58,191.17z"/>
		<path class="st12" d="M241.5,211.37c-4.34-3.79-12.55-5.1-17.99-7.08c-5.64-2.06-12.23-1.33-18.12-1.33l0.42,1.26
			C216.32,211.1,229.26,209.34,241.5,211.37z"/>
		<path class="st12" d="M252.18,216.03c0.77-0.38,1.54-0.62,2.31-0.83c-1.24-0.32-2.47-0.54-3.58-0.44L252.18,216.03z"/>
		<path class="st12" d="M254.48,215.2c2.31,0.59,4.71,1.6,6.74,2.07c3.68,0.86,6.98,2.2,10.75,2.64c7.01,0.85,14.25,1.67,21.28,1.85
			c-4.47-3.37-14.41-2.46-20.03-3.51C267.07,217.11,260.79,213.55,254.48,215.2z"/>
		<path class="st12" d="M244.17,243.52c-8.11-0.94-14.87,7.71-22.25,11.4c4.04-1.46,8.06-2.93,12.14-4.3
			c3.2-1.09,13.54-3.6,14.31-6.99C246.9,243.3,245.51,243.29,244.17,243.52z"/>
		<path class="st12" d="M221.91,254.92c-1.36,0.49-2.7,0.96-4.06,1.46C219.23,256.12,220.58,255.58,221.91,254.92z"/>
		<path class="st12" d="M97.54,224.04l-0.84-1.27c1.76,6.47,14.65,7.99,20.24,7.07C118.65,221.83,99.62,217.6,97.54,224.04z"/>
		<path class="st12" d="M129.57,190.69l0.83-0.37c-0.26,0.04-0.54,0.13-0.82,0.22c0-0.09,0.04-0.2,0.03-0.29
			c-1.51,0.18-2.85,0.96-3.85,2.17l0.21-0.09c-2.28,1.54-4.37,3.66-4.89,5.56C124.17,198.72,129.45,193.82,129.57,190.69z"/>
		<path class="st12" d="M135.83,227.69c-2.5-1.93-1.22-5.52-3.71-6.97c-2.25,1.08-5.75,5.42-3.89,7.17
			c4.77,0.73,9.03,5.16,13.98,5.95c3.22,0.53,14.94,2.49,16.05-1.31c-3.24-2.91-10.55-3.06-14.79-3.56
			C141.11,228.69,137.78,229.19,135.83,227.69z"/>
		<path class="st12" d="M130.4,228.67c-1.11-0.05-1.74-0.37-2.18-0.78c-0.67-0.1-1.34-0.13-2.03-0.06L130.4,228.67z"/>
		<path class="st12" d="M119.88,239.2l0.83,1.69c0.03-0.35,0.18-0.52,0.25-0.8C120.69,239.74,120.36,239.43,119.88,239.2z"/>
		<path class="st12" d="M133.78,241.03c-3.66-0.08-11.51-5.53-12.82-0.94c1.71,2.27-0.46,6.63,2.66,8.76
			c1.48,0.99,3.74,1.39,5.14,0.06c2.17-2.09-0.94-2.87,0.18-4.65c3.46-5.52,17.56,4.97,20.89-2.44
			C145.48,237.88,138.87,241.13,133.78,241.03z"/>
		<path class="st12" d="M224.15,261.53c-7.01-0.92-14.6-3.08-21.7-1.68l-1.68-0.42c6.77,3.04,14.19,3.32,21.28,5.28
			c4.98,1.38,17.17,5.29,21.88,3.08C241.91,262.97,228.91,262.15,224.15,261.53z"/>
	</g>
	<g class="st13">
		<path class="st14" d="M288.83,39.87c3.87,1.29,9.16,9.25,13,2.25c-1.07-1.6-2.69-2.29-4.39-2.82l0.65,0.18
			C295.9,38.01,288.62,34.36,288.83,39.87z"/>
		<path class="st14" d="M327.59,32.75c-0.58,2.86-7.03,3.66-6.76,6.34c0.25,2.43,4.62,2.26,6.55,2.26c8.68-0.02,8.43-7.33,0.21-8.19
			V32.75z"/>
		<path class="st14" d="M323.03,64.17c-1.03-0.65-1.9-0.92-2.66-0.97c-0.13-0.05-0.27-0.09-0.36-0.12l0.29,0.11
			c-3.22-0.12-4.58,4.09-7.88,5.36c2.75,1.34,5.51,0.47,8.42,0.91c1.95,0.29,6.12,2.79,7.98,1.59
			C332.68,68.6,327.02,65.75,323.03,64.17z"/>
		<path class="st14" d="M233,50.02c1.03,0.62,2.94-0.39,4-0.33c1.82,0.12,3.42,0.95,5.07,1.12c2.73,0.28,7.26,0.71,9.24-1.59
			c-1.17-2.57-4.66-3.13-7.14-2.14l3.37-2.11C245.04,45.04,227.15,46.47,233,50.02z"/>
		<path class="st14" d="M261.99,49.38c-0.96-0.81-1.96-0.92-3.11,0.1c1.3,1.9,10.97,5,13.57,3.76
			C278.08,50.56,266.24,48.76,261.99,49.38z"/>
		<path class="st14" d="M269.41,38.34c5.55-4.05-6.27-5.65-8.4-5.58l5.48-0.85c-2.84-0.07-8.56,0.03-9.69,2.9
			C259.73,35.62,266.33,40.58,269.41,38.34z"/>
		<path class="st14" d="M375.85,33.22c8.05-1.54-3.56-7.33-6.97-7.22l0.85-0.42c-2.78-0.01-8.27-2.04-9.22,1.72
			c1.76,2.01,5.04,1.52,7.5,2.56C370.73,31.02,372.36,33.89,375.85,33.22z"/>
		<path class="st14" d="M357.93,52.55l-1.27,0.42c1.43,4.65-7.06,4.77-5.5,9.27C357.67,64.5,367.91,56.63,357.93,52.55z"/>
		<path class="st14" d="M414.8,75.7c3.9-5.69-15.75-5.58-18.54-5.02v2.94C398.18,76.19,412.47,79.09,414.8,75.7z"/>
		<path class="st14" d="M442.19,55.92l-0.43,0.42c-0.94,2.31-5.13,4.39-4.33,6.76c0.68,2,6.55,2.52,8.13,2.14
			C452.58,63.54,448.64,53.82,442.19,55.92z"/>
		<path class="st14" d="M424.12,37.31c-1.05-0.93-2.18-0.93-3.41-0.36l0.84,1.27c-3.15,0.28-21.63,1.85-15.23,8.1
			C410.02,49.94,422.75,40.89,424.12,37.31z"/>
		<path class="st14" d="M306.13,79.47c-1.71-1.95-5.04-1.66-8.09-1.03c-4.5-0.95-10.67-0.31-10.81,3.49
			c3.79,0.2,3.45,3.15,6.25,4.24c2.33,0.91,6.66-0.4,9.11-0.75C305.42,85.03,310.06,83.97,306.13,79.47z"/>
		<path class="st14" d="M194.03,71.76c-0.44,0.2-0.92,0.39-1.27,0.61l0.74-0.19c-0.67,0.7-0.67,1.84,0.12,3.11
			c1.6,2.56,3.85,1.56,6.14,1.45c3.28-0.16,11.58,0.32,13.21-3.11c-2.81-4.96-13.29-4.22-18.62-2.01
			C194.22,71.64,194.14,71.71,194.03,71.76z"/>
		<path class="st14" d="M229.09,84.52c-0.83-2.46-11.76-2.88-13.16-0.78l0.43,0.84C218.23,86.22,230.85,89.75,229.09,84.52z"/>
		<path class="st14" d="M247.95,81.2c-1.48-1.87-4.67-2.03-6.37-0.42c1.54,1.22,7.84,3.38,9.81,2.52c4.91-2.15-2.25-3.35-4.28-3.35
			L247.95,81.2z"/>
		<path class="st14" d="M277,110.19c2.96,0.84,8.68,1.08,10.55-1.82c2.2-3.42-0.91-5.25-4.24-6.03c-0.1,2.88-5.7,1.11-7.48,2.17
			C271.62,106.96,273.65,109.23,277,110.19z"/>
		<path class="st14" d="M279.13,101.85c1.13-0.04,2.68,0.13,4.18,0.49c0.01-0.16,0.06-0.29,0.03-0.49H279.13z"/>
		<path class="st14" d="M337.28,106.06l1.68,0.42c-2.83,1.41-6.03,1.46-8.79,2.92c0.39,3.36,7.5,4.76,10.28,4.05
			C347.75,111.61,342.5,105.91,337.28,106.06z"/>
		<path class="st14" d="M326.21,125.36c3.27,4.05,15.2,5.04,17.37,0.04C340.37,122.16,330.64,124.17,326.21,125.36z"/>
		<path class="st14" d="M325.47,124.33c0.13,0.34,0.43,0.62,0.67,0.93l3.13-2.34C327.99,122.92,326.45,123.61,325.47,124.33z"/>
		<path class="st14" d="M325.9,125.44c0.09-0.02,0.21-0.05,0.31-0.08c-0.03-0.03-0.05-0.07-0.07-0.1L325.9,125.44z"/>
		<path class="st14" d="M371.83,126.69c-0.61-4.06-1.95-5.5-5.48-6.73c-3-1.05-6.98-1.43-6.74,2.96h2.11
			C363.08,125.36,369.43,127.63,371.83,126.69z"/>
		<path class="st14" d="M389.52,135.55l-0.43-1.27c-0.03,5.25,10.37,6.63,14.36,6.02C406.97,133.08,389.84,132.48,389.52,135.55z"/>
		<path class="st14" d="M312.69,142.46c3.43,2.02,19.03,13.68,19.06,3.38C326.31,142.29,318.94,139.75,312.69,142.46z"/>
		<path class="st14" d="M312,142.72c0.22-0.12,0.46-0.17,0.69-0.26c-0.09-0.05-0.2-0.12-0.27-0.16L312,142.72z"/>
		<path class="st14" d="M246.37,145.66c3.71-3.63-9.96-9.2-13.16-6.74l-1.68-0.42C232.24,140.76,243.84,148.13,246.37,145.66z"/>
		<path class="st14" d="M199.74,124.17c6.69-6.59-10.5-5.47-12.87-5.47l-3.37,1.27C186.19,121.73,197.42,126.45,199.74,124.17z"/>
		<path class="st14" d="M163.21,138.3c2.22,3.71,5.91,3.99,9.27,0.77c-0.53-1.38-1.95-2.31-2.44-3.59c-0.41-1.09,0.1-4.26-0.49-4.95
			c-2.72-3.12-3.7,0.73-5.45,2.93l2.53-4.22C163.84,133.11,160.12,133.11,163.21,138.3z"/>
		<path class="st14" d="M199.56,145.4c5.51,4.85-2.89,4.78-3.32,8.77c-0.58,5.48,7.81,2.94,8.9-0.31c1.63-4.81-3.39-7.14-6.25-9.06
			c-3.37-2.28-6.14-5.7-10.97-4.39c-2.25,0.6-3.57,3.24-5.84,3.51c-1.99,0.23-3.92-2.04-5.94-1.65c-5.46,1.03,0.7,4.72,0.2,8.45
			h1.68c-3.02,0.2-2.46,2.24-4.58,3.71c-2.21,1.53-6.16,1.95-7.59,3.87c2.45,4.22,14.82-1.47,16.35-4.67
			c-0.89-1.04-2.17-1.55-3.66-1.59c0.58-4.16,6.43-2.19,9.09-3.45C191.5,146.75,194.51,140.98,199.56,145.4z"/>
		<path class="st14" d="M191.5,168l-1.27,0.84c2.41-0.64,14.32,5.98,15.09-0.53C205.83,163.96,192.87,164.74,191.5,168z"/>
		<path class="st14" d="M215.93,160.41l2.52,2.11c-0.89,2.39,11.08,16,12.18,8.88c0.09-0.53-4.71-9.62-5.17-10.2
			C223.42,158.6,218.37,157.34,215.93,160.41z"/>
		<path class="st14" d="M267.29,183.79c-2.19,2.43-10.81-2.03-11.75,2.61c2.77,1.3,5.81-1.08,8.14-0.28
			c2.26,0.77,1.43,2.37,2.94,3.23c2.49,1.43,7.67-0.45,8.25-3.41c0.15-0.75-3.4-9.8-4.01-10.14
			C266.06,173.27,267.03,181.11,267.29,183.79z"/>
		<path class="st14" d="M292.6,165.29c-0.21-2.26-3.99-2.44-5.6-2.86c-3.69-0.96-5.64-1.33-8.3-3.59
			c-2.17-1.85-10.42-7.89-12.2-2.22l3.79,1.27c-1.19,1.96,1.19,1.39,2.97,2.51c2.4,1.52,4.22,4.12,6.71,5.47
			C282.13,167.04,293.01,169.92,292.6,165.29z"/>
		<path class="st14" d="M284.67,139.77c-3.92-0.69-7.52-4.76-11.44-0.84l-0.41,0.42c0.22,2.47,6.23,1.87,8.3,2.52
			c2.81,0.88,9.81,3.78,12.83,1.66C301.04,138.53,285.97,140,284.67,139.77z"/>
		<path class="st14" d="M310.14,153.42c-2.55-1.48-1.91-5.26-4.48-6.89c-3.68,4.22-6.51,6.44-2.93,11.77l-0.84-0.42
			c1.34,1.44,5.45,11.76,8.45,4.82c1.02-2.36-2.01-3.62,0.42-5.3c2.31-1.59,4.69,1.33,6.77-1.19
			C316.11,152.45,312.72,154.94,310.14,153.42z"/>
		<path class="st14" d="M329.74,181.15c1.83,1.66,3.94,2.17,5.82,4.34c1.43,1.64,2.1,4.39,5.11,3.58c3.12-0.84,2.01-2.44,1.59-4.62
			c-0.3-1.63-1.76-1.97-1.62-3.84c0.08-1.18,1.59-1.85,1.73-2.78c0.47-3.14-0.45-2.18-1.25-5.15c-0.63-2.31-0.09-4.74-0.59-6.81
			c-4.29-0.1-4.95,7.55-9.47,9.36C329.58,177.7,326.51,178.2,329.74,181.15z"/>
		<path class="st14" d="M328.01,175.58c1.21,0.19,2.18-0.01,3.05-0.36c0.42-0.69,0.75-1.49,0.75-2.58L328.01,175.58z"/>
		<path class="st14" d="M378.99,153.25l-2.1,1.68c-0.7-2.22-5.26-2.23-6.82-0.52c2.52,3.24,11.38,1.95,8.57,7.63
			c-1.08,2.17-4.82,2.38-4.72,5.56c0.08,2.41,2.6,3.9,4.66,3.09c2.85-1.13,2.74-7.17,3.97-9.36c2.01-3.56,2.66-2.05,5.82-3.81
			C396.7,152.86,383,152.03,378.99,153.25z"/>
		<path class="st14" d="M426.13,97.26c1.46-0.49,2.83-1.52,3.12-2.94c-1.31-0.75-2.83-0.9-4.34-0.48l0.42,0.85
			c-3.27-1.25-7.45-3.3-10.98-2.54c1.05,7.75-6.75,0.21-9.2,4.19c2.04,4.64,8.9,0.8,12.18,2.15c4.5,1.85,0.16,6.14,2.56,8.5
			c1.21,1.19,8.4-0.68,9.41-1.6C433.5,101.64,426.91,100.74,426.13,97.26z"/>
		<path class="st14" d="M451.04,35.7l1.26-1.68c-3.05-1.41-9.87-2.44-12.64-0.54c1.34,1.32,3,0.71,4.69,1.38
			c3.1,1.24,2.06,1.77,3.7,3.8c2.5,3.06,4.77,2.05,8.05,3.92c1.59,0.91,5.59,5.99,6.93,0.24C464.13,38.19,454.09,36.89,451.04,35.7z
			"/>
		<path class="st14" d="M297.08,19.3c1.44,0.26,2.55,1.79,4.21,2.07c1.9,0.32,3.75-0.83,5.68-0.4c3.98,0.88,5.72,4.11,10.29,3.55
			c2.78-0.35,9.08-1.54,11.12-3.23c-3.96-6.67-12.67-1.95-18.49-2.03l5.48-1.68c-7.22,0.17-23.65-6.63-28.96,1.1
			C288.82,21.61,293.82,18.69,297.08,19.3z"/>
		<path class="st14" d="M168.47,72.78c1.16-1.96,1.46-4.2,2.85-5.94c1.05-1.32,4.28-1.79,4.73-3.35c1.46-5.02-5.13-3.5-7.26-1.87
			c-3.54,2.74-5.38,7.45-7.63,11.16l4.21-2.53c-1.56,2.6-4.89,7.26-4.22,10.24C163.3,80.6,167.22,74.88,168.47,72.78z"/>
		<path class="st14" d="M132.42,147.69c1.58-1.21,1.83-3.56,0.91-5.42c-1.43-2.91-4.87-1.6-6.28-3.71
			c-1.61-2.39,3.69-11.27-3.07-8.92c-0.01,4.58-1.26,8.18-6.63,8.86l1.26-1.27c-3.42,1.33-11.35,5.94-10.55,10.21
			c2.89,0.51,4.74-2.31,7.38-3.05c3.25-0.92,3.06,0.13,6.09,0.89C126.92,146.61,128.7,143.22,132.42,147.69z"/>
		<path class="st14" d="M102.23,176.43c-2.85-1.15-3.47-3.38-6.36-4.7c-4.85-2.2-14.49-0.17-7.6,5.96l-0.42-2.96
			c4.26,1.62,6.67,5.27,11.38,5.93c2.41,0.34,9.07,1.82,10.55,1.24C110.59,177.07,105,177.56,102.23,176.43z"/>
		<path class="st14" d="M63.84,198.33c1.96,3.36,7.75,0.25,10.98,0.78c3.95,0.65,6.77,2.77,10.04-1.67
			c-2.88-1.32-27.67-4.75-20.17,3.42L63.84,198.33z"/>
		<path class="st14" d="M52.46,217.71c0.02-0.14,0.07-0.21,0.1-0.35c-0.2-0.02-0.45-0.06-0.51-0.08L52.46,217.71z"/>
		<path class="st14" d="M79.86,220.85c-0.48-3.65-4.96-1.74-7.29-1.75c-3.36-0.01-5.49-0.64-8.54-2.44
			c-4.09-2.41-10.2-7.12-11.47,0.7c1.08,0.14,3.75,0.45,4.96,0.67c3.42,0.62,4.57,1.89,7.58,3.54
			C67.35,222.79,80.72,227.43,79.86,220.85z"/>
		<path class="st14" d="M54.97,240.09c-1.22-1.23-0.74-3.1-2.56-4.24c-1.58-0.98-3.37-0.01-5-0.48c-4.13-1.23-5.46-4.22-9.28-1.18
			c-2.11,1.67-5.43,6.58-5.89,9.22l-0.42,0.84c3.17,2.2,4.88,1.29,8.45,0.32c1.98-0.55,2.84-1.55,5.07-1.05
			c1.8,0.42,2.31,2.74,4.16,3.07c1.83,0.31,3.42-1.76,5.1-1.58c2.28,0.23,2.21,1.69,4.06,2.25c2.63,0.8,7.37,0.7,4.2-3.48
			C61.13,241.52,57.06,242.22,54.97,240.09z"/>
		<path class="st14" d="M96.7,266.75c-2.4-2.1-2.85-6.51-5.11-7.79c-1.64-0.93-3.09,0.38-4.58-0.01c-2.44-0.62-2.02-1.05-3.89-2.35
			c-1.79-1.23-1-2.71-3.43-2.69c-1.66,0.02-4.35,3.11-5.32,4.26l1.7-1.46c-1.95,2.09-3.99,6.21-2.1,8.13
			c2.53,2.57,7.33-2.49,10.17-0.45c3.02,2.17,0.97,4.96,4.95,6.47c1.02,0.4,3.4-0.01,4.58,0.29c1.71,0.45,1.24,2.51,3.7,1.76
			C102.72,271.27,98.2,268.06,96.7,266.75z"/>
		<path class="st14" d="M46.98,264.9h-1.69c0.81,3.13,7.47,6.73,8.96,2.14C55.59,262.9,46.46,259.36,46.98,264.9z"/>
		<path class="st14" d="M129.23,259.85c-3.96,0.51-5.53,3.41-7.67,6.32l-2.1,1.69c3.16,3.56,16.11,1.1,16.96-3.9
			C137.01,260.53,131.9,259.51,129.23,259.85z"/>
		<path class="st14" d="M122.82,279.65l-0.84,1.27c0.44,2.83,5.35,4.19,5.86,0.8C128.25,278.94,124.49,277.7,122.82,279.65z"/>
		<path class="st14" d="M172.4,264.82c3.74,0.55,10.46-0.8,4.96-4.58c-2.7-1.87-7.12-0.45-10.13-1.7c-1.98-0.83-2.96-2.72-4.98-3.49
			c-4.88-1.83-7.66,2.75-4.03,6.49l-0.84,1.27C160.77,260.89,168.35,264.21,172.4,264.82z"/>
		<path class="st14" d="M171.69,281.75l0.42-0.42c-0.38,3.24-0.1,4.19,2.74,5.03c0.43,0.13,8.17-0.69,8.57-1.23
			C186.11,281.47,174.58,274.81,171.69,281.75z"/>
		<path class="st14" d="M148.12,272.83c0.2,1.7,1.19,3.16,2.5,4.28l-0.42-0.42c0.35,1.67,9.16,3.98,10.98,1.13
			C164.97,271.84,150.99,270.88,148.12,272.83z"/>
		<path class="st14" d="M165.54,221.86c2.08,0.11,9.09,1.91,10.4-0.07c3.15-4.77-17.48-9.42-21.1-1.13l2.11-2.11
			C155.97,221.6,163.31,221.74,165.54,221.86z"/>
		<path class="st14" d="M151.48,208.82c5.18-1.98-4.28-6.09-6.75-5.85l-2.53,0.42C142.02,205.87,149.39,209.62,151.48,208.82z"/>
		<path class="st14" d="M215.51,224.04l-2.53-1.27c-1.5,0.16-2.57,0.71-2.91,2.23c2.31,1.82,14.87,5.98,16.85,3.65
			C230.26,224.68,219.02,220.7,215.51,224.04z"/>
		<path class="st14" d="M203.62,234.56c-1.62-3.67-16.41-6.73-13.39,0.01l0.72-0.95C194.23,235.58,207.01,242.27,203.62,234.56z"/>
		<path class="st14" d="M247.54,227.41l-2.11,0.42c-1.08,3.92,11.55,7.51,14.12,5.89C265.7,229.82,250.69,226.53,247.54,227.41z"/>
		<path class="st14" d="M300.2,231.62l-2.1,1.27c-0.42-0.13-0.86-0.22-1.3-0.28c2.09,1.86,5.75,1.79,8.49,3.07
			c2.99,1.39,7.01,6.55,9.71,1.83C318.52,231.35,303.47,230.75,300.2,231.62z"/>
		<path class="st14" d="M289.25,244.26h2.1c-0.99,3.35,8.29,9.5,9.82,5.96C302.97,246.07,292.02,242.44,289.25,244.26z"/>
		<path class="st14" d="M329.7,212.24h-2.95c1.49,3.41,15.14,10.26,16.9,5.84C344.98,214.73,332.1,208.06,329.7,212.24z"/>
		<path class="st14" d="M253.43,201.7l-0.84-0.42c2.36,1.55,12.06,11.46,15.59,6.76C271.72,203.32,255.95,197.16,253.43,201.7z"/>
		<path class="st14" d="M207.51,190.33c0.11-0.26,0.35-0.43,0.51-0.67c-0.01-0.06-0.08-0.12-0.09-0.18L207.51,190.33z"/>
		<path class="st14" d="M221.85,192.58c0.83-5.75-10.63-7.66-13.84-2.92C208.98,193.7,221.26,196.6,221.85,192.58z"/>
		<path class="st14" d="M191.92,46.24l-0.36-1.45c-0.39-0.16-0.8-0.31-1.07-0.48C190.92,44.97,191.39,45.64,191.92,46.24z"/>
		<path class="st14" d="M191.5,44.54l0.06,0.24c3.97,1.57,12.61,1.58,8.16-3.59C196.36,37.27,185.35,40.29,191.5,44.54z"/>
		<path class="st14" d="M239.09,19.14c-5.47-5.31-16.79-0.4-22.31,2.65l-0.84,0.85C222.77,22.83,234.29,25.94,239.09,19.14z"/>
		<path class="st14" d="M207.51,272.48l-3.79-0.83c0.31,3.45,15.74,10.27,18.56,8.22C228.5,275.33,212.06,266.58,207.51,272.48z"/>
		<path class="st14" d="M249.58,284.83c-0.85-0.78-0.98-2.58-2-3.14c-2.87-1.56-5.75,0.29-4.26,3.86h0.42
			c1.53,2.89,3.18,6.14,6.74,6.7c3.19,0.49,6.24-0.83,4.24-4.09C253.98,286.94,250.77,285.94,249.58,284.83z"/>
	</g>
</g>
</svg>
