<?xml version="1.0" encoding="utf-8"?>
<!-- Generator: Adobe Illustrator 25.4.1, SVG Export Plug-In . SVG Version: 6.00 Build 0)  -->
<svg version="1.1" id="Layer_1" xmlns="http://www.w3.org/2000/svg" xmlns:xlink="http://www.w3.org/1999/xlink" x="0px" y="0px"
	 viewBox="0 0 199.66 264.87" style="enable-background:new 0 0 199.66 264.87;" xml:space="preserve">
<style type="text/css">
	.st0{fill:#AA1F23;}
	.st1{fill:#89171A;}
	.st2{fill:#AF312F;}
	.st3{fill:#FFFFFF;}
	.st4{fill:none;stroke:#5A9140;stroke-width:1.3342;stroke-miterlimit:10;}
	.st5{fill:#77A245;}
	.st6{fill:#5F8F3E;}
	.st7{fill:#A1CD42;}
	.st8{opacity:0.29;fill:#5F8F3E;}
	.st9{fill:#DE6728;}
	.st10{fill:#B54E26;}
</style>
<g>
	<g>
		<path class="st0" d="M45.12,190.92c0,0-45.12-22.35-45.12,23.53c0,51.76,45.12,48.23,45.12,48.23s45.12,3.53,45.12-48.23
			C90.23,168.57,45.12,190.92,45.12,190.92z"/>
		<path class="st1" d="M65.7,258.88c-32.08,5.37-45.31-8.4-48.95-38.45c-3.64-30.04,20.73-32.48,20.74-32.48
			C24.61,183.89,0,180.56,0,214.44c0,51.76,45.12,48.23,45.12,48.23S55.11,263.45,65.7,258.88L65.7,258.88z"/>
		<circle class="st2" cx="66.52" cy="212.24" r="21.55"/>
		<path class="st3" d="M68.26,200.31c0,0,8.37,5.67,5.4,16.48c-2.97,10.8,4.86,8.68,7.83,4.07c2.97-4.61,3.51-20.11-6.62-24.65
			C64.75,191.66,65.96,198.17,68.26,200.31z"/>
	</g>
	<g>
		<path class="st0" d="M146.54,192.34c0,0-49.66-8.3-36.35,35.61c15.02,49.53,57.17,33.06,57.17,33.06s44.2-9.71,29.18-59.25
			C183.23,157.86,146.54,192.34,146.54,192.34z"/>
		<path class="st1" d="M185.96,251.41c-29.14,14.44-45.8,5.11-58-22.59c-12.2-27.69,10.42-37.1,10.42-37.1
			c-13.49-0.15-38.01,3.8-28.18,36.22c15.02,49.53,57.17,33.06,57.17,33.06S177.16,258.86,185.96,251.41L185.96,251.41z"/>
		<path class="st2" d="M193.83,200.29c3.45,11.39-2.98,23.42-14.37,26.87c-11.39,3.45-23.42-2.98-26.87-14.37
			c-3.45-11.39,2.98-23.42,14.37-26.87C178.35,182.47,190.38,188.9,193.83,200.29z"/>
		<path class="st3" d="M171.42,194.62c0,0,9.66,3,9.95,14.2c0.29,11.2,7.17,6.9,8.68,1.62c1.5-5.28-2.48-20.27-13.49-21.67
			C165.55,187.36,168.6,193.23,171.42,194.62z"/>
	</g>
	<path class="st4" d="M99.64,29.59c-59.8,61.94-54.52,161.33-54.52,161.33"/>
	<path class="st4" d="M146.54,192.34c0,0-74.92-76.26-46.91-162.75"/>
	<g>
		<path class="st5" d="M98,29.97c0,0-73.63-11.65-88.58,93.55C61.5,120.94,101.5,72.56,98,29.97z"/>
		<path class="st6" d="M98,29.97c0,0-73.63-11.65-88.58,93.55C9.42,123.52,39.62,59.67,98,29.97z"/>
		<path class="st7" d="M32.14,87.45c19.69-22.56,40.97-41.28,66.03-55.33c0.04-2.18,0,0-0.18-2.15l0,0l0,0
			C98,29.97,54.87,51.38,32.14,87.45z"/>
		<path class="st8" d="M9.42,123.52c15.47-0.77,29.86-5.6,42.38-13.09c8.16-25.43,0.16-47.49-8.54-62.04
			C28.42,61.84,14.93,84.73,9.42,123.52z"/>
	</g>
	<path class="st9" d="M97.49,32.12l0.09,0.05c2.61,1.57,5.99,0.85,7.73-1.65l13.18-18.96c2.11-3.04,0.97-7.25-2.39-8.8l-4.77-2.2
		c-3.12-1.44-6.81,0.05-8.05,3.26l-8.2,21.27C94.06,27.7,95.08,30.67,97.49,32.12z"/>
	<path class="st10" d="M100.02,30.24l8.2-21.27c1.24-3.21,4.93-4.71,8.05-3.26l3.15,1.46c-0.32-1.85-1.47-3.55-3.34-4.41l-4.77-2.2
		c-3.12-1.44-6.81,0.05-8.05,3.26l-8.2,21.27c-1.01,2.62,0.01,5.59,2.41,7.03l0.09,0.05c0.67,0.4,1.38,0.65,2.11,0.76
		C99.59,32.04,99.68,31.12,100.02,30.24z"/>
</g>
</svg>
