<?xml version="1.0" encoding="utf-8"?>
<!-- Generator: Adobe Illustrator 25.4.1, SVG Export Plug-In . SVG Version: 6.00 Build 0)  -->
<svg version="1.1" id="Layer_1" xmlns="http://www.w3.org/2000/svg" xmlns:xlink="http://www.w3.org/1999/xlink" x="0px" y="0px"
	 viewBox="0 0 547.24 328.37" style="enable-background:new 0 0 547.24 328.37;" xml:space="preserve">
<style type="text/css">
	.st0{fill:#F9BCB7;}
	.st1{fill:#D3918E;}
	.st2{fill:#E69A94;}
	.st3{fill:#E28681;}
	.st4{fill:#F3B0AB;}
	.st5{fill:#FAC3C4;}
	.st6{fill:#C2C2C3;}
	.st7{fill:#F8B8B2;}
</style>
<g id="_x31_6">
	<g>
		<path class="st0" d="M380.1,128.76l17.28,6.49c14.63,5.49,28.73-9.2,22.63-23.59c-13.92-32.87-20.01-81.44,11.4-107.5
			c5.02,3.15,4.15,10.53,3.35,16.41c-7.03,51.32,48.13,98.85,77.83,135.18c3.85,4.7,5.02,11.04,3.13,16.8l-6.24,19.04
			c-1.52,4.62-4.87,8.43-9.26,10.52l-51.12,24.34c-5.18,2.47-11.23,2.28-16.25-0.49l-83.15-45.94c-9.72-5.37-12.19-18.22-5.17-26.82
			l15.55-19.03C364.9,128.25,372.96,126.08,380.1,128.76z"/>
		<path class="st1" d="M318.29,162.73c-16.14-38.53-51.02-64.51-92.75-68.16c-31.76-2.78-60.82,16.23-90.21,25.1
			c-2.76,0.83-5.73,0.58-8.3-0.71l-30.38-15.2c-1.94-0.97-3.97-1.32-5.91-1.16c0.21,2.61-0.16,5.32-0.73,7.87
			c0.21,2.1-4.92,3.69-4.81,4.73c-0.55,14.01-3.24,25.42-10.51,36.26c0.7,0.49,1.46,0.93,2.3,1.26
			c44.6,18.04,80.34,24.49,106.34,68.44c21.67,36.65,69.8,65.51,114.47,50.49C340.06,257.44,331.68,194.69,318.29,162.73z"/>
		<path class="st2" d="M145.89,287.71c26.56,5.57,54.23,1.68,79.87,8.39c23.48,5.89,49.51,6.33,73.39,5.95
			c55.97-1.62,109.42-17.52,160.19-39.39c0.92-1.13,5.85-3.72,6.88-3.83c34.14-9.91,60.4-29.93,79.12-55.61
			c-1.97-2.73-5.16-4.81-7.95-6.86c-4.06-2.99-8.06-7.91-6.17-12.58c1.43-3.53,5.79-5.37,6.79-9.05c0.87-3.17-1.23-6.53-3.98-8.35
			c-2.75-1.82-6.05-2.54-9.18-3.61c-1.25-0.43-2.43-0.89-3.58-1.4c-18.73-8.28-23.18-26.4-35.13-41.57
			c-9.3-11.8-25.88-19.51-38.36-28.55c-4.86-3.51-9.86-6.84-15-9.95C396.14,59.08,351.24,46.4,308.52,55.1
			c-46.78,9.53-93.49,38.99-136.87,58.54c-55.16,24.87-112.69,59.27-73.99,128.7c3.92,7.03,8.95,14.24,8.27,22.27
			c-1.27,14.98-21.49,23.45-21.6,38.49c1.39,0,2.78,0.01,4.17,0.02C103.41,288.71,124.68,283.94,145.89,287.71z"/>
		<path class="st3" d="M545.33,203.21c-18.72,25.68-44.98,45.7-79.12,55.61c-1.03,0.11-5.96,2.7-6.88,3.83
			c-50.77,21.87-104.22,37.77-160.19,39.39c-23.87,0.38-49.9-0.06-73.39-5.95c-25.64-6.71-53.31-2.82-79.87-8.39
			c-21.21-3.77-42.48,1-57.39,15.41c87.76,1.09,166.96,35.37,255.39,22.28c75.35-11.16,151.51-44.52,198.69-106.36
			c2.61-3.42,5.24-7.43,4.55-11.69C546.87,205.8,546.23,204.44,545.33,203.21z"/>
		<path class="st4" d="M472.86,197.04c-23.2-9.26-49.26,5.08-74.34-1.87c-22.98-7.16-46.61-20.61-57.7-45.95
			c-3-6.63-10.32-11.69-18.36-11.87c1.8,35.88,36.52,62.92,66.79,75.78c30.62,13.01,3.33,28.68-17.39,38.69
			c-8.49,4.1-15.88,7.25-17.74,8.87c-2.23,1.95-4.33,4.3-4.91,7.21c-0.57,2.88,0.45,5.83,1.76,8.45
			c6.79,13.63,21.35,22.04,36.25,25.15c49.49,10.33,93.03-20.56,115.27-62.72C500.2,220.29,490.78,203.44,472.86,197.04z"/>
		<path class="st5" d="M509.19,208.36l-8.75-18.02c-2.65-5.46-7.91-9.18-13.94-9.89c-46.6-5.45-119.3-1.24-149.94-43
			c-3.51-4.79-8.02-10.7-13.82-9.47c-0.35,3.18-0.44,6.3-0.28,9.36c8.04,0.19,15.36,5.24,18.36,11.87
			c11.09,25.34,34.72,38.79,57.7,45.95c25.08,6.95,51.14-7.39,74.34,1.87c17.92,6.4,27.34,23.25,29.63,41.73
			c2.8-5.31,5.27-10.8,7.36-16.41C511.56,217.8,511.31,212.74,509.19,208.36z"/>
		<path class="st4" d="M177,140.07c-10.8,4.77-21.66,9.39-32.61,13.76c46.38-45.18,124.66-79.74,188.99-87.2
			c56.25-6.53,145.22,53.65,153.23,85.42c-11.53-14.69-55.78-39.44-64.52-45.25c-43.86-29.2-94.88-33.44-143.28-12.84
			C244.43,108.59,210.98,125.06,177,140.07z"/>
		<g>
			<path class="st6" d="M17.24,160.61c0.03-2.23,1.17-4.45,2.32-6.67c0.86-2.88,0.49-5.78-0.71-8.18
				c-7.99-0.78-14.71,6.62-12.7,14.75c0.42,1.69,0.46,3.45,0.13,5.17l-4.23,21.48c-1.31,6.64,3.15,13.02,9.83,14.09
				c1.62,0.26,3.23,0.5,4.82,0.74c0.01-0.03,0.01-0.06,0.02-0.09C20.23,188.54,12.61,173.94,17.24,160.61z"/>
			<path class="st4" d="M247.72,202.61c-10.83-25.81-30.65-47.26-53.85-65.42c-19.91-13.64-44.5-11.72-62.55,3.67
				c-1.13,1.1-5.56-1.19-6.69-0.09c-25.22,28.36-60.73,28.72-88.38,9.07l-15.69-3.8c-0.57-0.14-1.13-0.23-1.7-0.28
				c1.2,2.4,1.57,5.3,0.71,8.18c-1.15,2.22-2.29,4.44-2.32,6.67c-4.63,13.33,2.99,27.93-0.53,41.28c-0.01,0.03-0.01,0.06-0.01,0.09
				c36.84,5.54,62.89,3.9,99.76-2.73c7.64,28.88,17.39,48.42,42.7,64.95c10.73,7.01,70.67,34.72,81.49,18.01
				c4.35-6.71,7.66-13.93,9.68-21.56C256.14,241.77,256.41,220.57,247.72,202.61z"/>
			<path class="st7" d="M263.3,154.28c-25.81-35.93-67.96-54.47-111.91-48.33c-33.44,4.67-58.92,31.19-87.14,47.32
				c-2.65,1.51-5.77,1.95-8.73,1.24l-19.27-4.67c27.66,19.65,63.16,19.29,88.38-9.07c1.13-1.1,5.57,1.18,6.69,0.09
				c18.05-15.39,42.63-17.31,62.55-3.67c23.2,18.15,43.02,39.61,53.85,65.42c8.7,17.97,8.43,39.17,2.6,58.06
				c-2.01,7.63-5.32,14.84-9.68,21.56c9.48-1.88,18.7-5.35,27.36-10.66C308.25,246.86,284.7,184.08,263.3,154.28z"/>
		</g>
		<path class="st7" d="M356.94,98.75c0.71,6.81-4.25,12.91-11.07,13.61c-6.81,0.7-12.91-4.25-13.61-11.07
			c-0.71-6.82,4.25-12.92,11.07-13.61C350.14,86.97,356.24,91.93,356.94,98.75z"/>
		<path class="st5" d="M178.82,175.38c0.58,5.56-3.47,10.52-9.03,11.1c-5.55,0.57-10.52-3.47-11.09-9.03
			c-0.58-5.56,3.47-10.52,9.02-11.1C173.28,165.78,178.25,169.82,178.82,175.38z"/>
		<path class="st5" d="M133.45,286.15c0.44,4.26-2.66,8.07-6.92,8.51c-4.26,0.43-8.07-2.66-8.51-6.92
			c-0.44-4.26,2.66-8.07,6.92-8.51C129.2,278.79,133.01,281.89,133.45,286.15z"/>
		<path class="st5" d="M486.31,215.62c0.44,4.26-2.66,8.07-6.92,8.5c-4.26,0.44-8.07-2.65-8.51-6.91c-0.44-4.26,2.65-8.07,6.91-8.51
			C482.06,208.26,485.87,211.36,486.31,215.62z"/>
		<path class="st5" d="M469.17,255.89c0.44,4.26-2.66,8.07-6.92,8.51c-4.26,0.43-8.07-2.66-8.5-6.92c-0.44-4.26,2.65-8.07,6.91-8.51
			C464.91,248.53,468.72,251.63,469.17,255.89z"/>
		<path class="st5" d="M216.8,194.22c0.44,4.26-2.65,8.07-6.92,8.5c-4.26,0.44-8.07-2.65-8.51-6.91c-0.44-4.26,2.65-8.07,6.91-8.51
			C212.55,186.85,216.36,189.96,216.8,194.22z"/>
		<path class="st5" d="M186.98,225.4c0.44,4.26-2.66,8.07-6.92,8.51c-4.26,0.44-8.07-2.65-8.5-6.91c-0.44-4.27,2.65-8.08,6.91-8.51
			C182.73,218.04,186.54,221.14,186.98,225.4z"/>
		<path class="st7" d="M398.98,115.81c0.36,3.53-2.2,6.69-5.74,7.06c-3.53,0.37-6.69-2.21-7.06-5.74c-0.36-3.53,2.2-6.69,5.74-7.06
			C395.45,109.71,398.61,112.27,398.98,115.81z"/>
		<path class="st7" d="M291.43,117.98c0.36,3.53-2.21,6.69-5.74,7.06c-3.54,0.36-6.7-2.2-7.06-5.74c-0.36-3.53,2.2-6.69,5.74-7.06
			C287.9,111.87,291.06,114.44,291.43,117.98z"/>
	</g>
</g>
</svg>
