<?xml version="1.0" encoding="utf-8"?>
<!-- Generator: Adobe Illustrator 25.4.1, SVG Export Plug-In . SVG Version: 6.00 Build 0)  -->
<svg version="1.1" id="Layer_1" xmlns="http://www.w3.org/2000/svg" xmlns:xlink="http://www.w3.org/1999/xlink" x="0px" y="0px"
	 viewBox="0 0 102.02 197.11" style="enable-background:new 0 0 102.02 197.11;" xml:space="preserve">
<style type="text/css">
	.st0{fill:#169253;}
	.st1{fill:#2DB674;}
	.st2{fill:#E39C34;}
	.st3{fill:#C87929;}
	.st4{fill:#FFCB79;}
	.st5{fill:#60BF85;}
</style>
<g>
	<path class="st0" d="M56.01,30.52c0.22,16.51-0.99,29.92-2.7,29.96c-1.71,0.04-3.28-13.31-3.5-29.82
		C49.58,14.15,50.79,0.74,52.51,0.7C54.22,0.66,55.79,14.01,56.01,30.52z"/>
	<path class="st1" d="M51.47,48.79c2.15,14.61,2.82,26.68,1.5,26.94c-1.32,0.27-4.14-11.36-6.29-25.97
		c-2.15-14.61-2.82-26.68-1.5-26.95C46.5,22.55,49.32,34.18,51.47,48.79z"/>
	<path class="st1" d="M58.91,50.41c-2.41,14.46-5.42,25.89-6.74,25.51c-1.31-0.37-0.43-12.4,1.98-26.86
		c2.41-14.46,5.42-25.88,6.74-25.51C62.2,23.92,61.32,35.95,58.91,50.41z"/>
	<path class="st2" d="M70.52,97.47h0.16c-8.9-6.8-14.48-18.01-15.24-30.27l-3.15-1.65l-3.2-1.68c-0.99,12.89-7.45,26.9-14.95,32.95
		C13.56,103.61,1,121.46,1,139.82c0,18.74,12.42,34.85,30.19,41.93h40.53c17.77-7.08,30.18-23.2,30.18-41.93
		C101.9,122.68,90.9,105.05,70.52,97.47z"/>
	<g>
		<path class="st3" d="M29.83,192.52c1.81,0.18,3.86,0.11,5.41-0.97c1.46-1.01,11.45-12.76,9.8-13.59
			c-1.28-0.64-3.46,2.09-4.25,3.27C37.8,185.72,34.74,193.02,29.83,192.52z"/>
		<path class="st3" d="M40.57,196.43c1.79-0.31,3.72-0.94,4.86-2.39c1.1-1.41,6.82-15.3,4.99-15.63c-1.42-0.26-2.63,2.89-3.01,4.27
			C46,187.78,45.41,195.58,40.57,196.43z"/>
		<path class="st3" d="M73.85,192.42c-1.81,0.19-3.87,0.11-5.42-0.97c-1.44-1-11.4-12.7-9.79-13.59c0.39-0.2,0.97-0.07,1.17,0.11
			c1.21,0.73,2.33,2.02,3.07,3.16C65.85,185.59,68.94,192.92,73.85,192.42z"/>
		<path class="st3" d="M63.11,196.33c-1.8-0.32-3.73-0.93-4.87-2.39c-0.98-1.25-6.48-14.45-5.2-15.54c0.07-0.05,0.14-0.08,0.21-0.1
			c0.42-0.07,0.83,0.13,1.09,0.43c1.87,2.06,2.27,5.43,3.18,9.19C58.21,190.75,59.38,195.68,63.11,196.33z"/>
	</g>
	<path class="st4" d="M51.91,176.3L51.91,176.3c0.35,0,0.63-0.26,0.63-0.58V67.78c0-0.32-0.28-0.58-0.63-0.58l0,0
		c-0.35,0-0.63,0.26-0.63,0.58v107.94C51.27,176.04,51.56,176.3,51.91,176.3z"/>
	<path class="st4" d="M45.35,178.5L45.35,178.5c0.35,0,0.63-0.26,0.63-0.58c-13.23-27.81-6.25-67.69,4.36-109.93
		c0-0.32-0.28-0.58-0.63-0.58l0,0c-0.35,0-0.63,0.26-0.63,0.58c-10.32,42.24-17.67,82.89-4.36,109.93
		C44.71,178.24,45,178.5,45.35,178.5z"/>
	<path class="st4" d="M32.18,97.88c-0.4,0.16-0.81,0.31-1.22,0.44c-9.99,32.63-10.51,61.48,6.34,81.18c0,0.32,0.28,0.58,0.63,0.58
		c0.35,0,0.63-0.26,0.63-0.58C21.22,158.43,22.17,129.73,32.18,97.88z"/>
	<path class="st4" d="M34.94,181.75h1.27c0.08-0.01,0.15-0.03,0.23-0.04c-24.94-15.86-25.45-42.97-17.86-75.64
		c-0.41,0.4-0.8,0.8-1.24,1.17c-0.09,0.08-0.19,0.15-0.28,0.23C9.9,139.63,11.1,166.29,34.94,181.75z"/>
	<path class="st4" d="M58.49,178.5L58.49,178.5c-0.35,0-0.63-0.26-0.63-0.58c13.23-27.81,6.25-67.69-4.36-109.93
		c0-0.32,0.28-0.58,0.63-0.58l0,0c0.35,0,0.63,0.26,0.63,0.58c10.32,42.24,17.67,82.89,4.36,109.93
		C59.12,178.24,58.84,178.5,58.49,178.5z"/>
	<path class="st4" d="M68.3,180.38c0,0.28-0.21,0.51-0.49,0.57c-0.04,0.01-0.1,0.01-0.14,0.01c-0.35,0-0.63-0.26-0.63-0.58
		c0.02-0.03,0.04-0.06,0.07-0.09c17.28-21.07,16.32-49.72,6.31-81.54c0.4,0.17,0.8,0.31,1.21,0.45h0.01
		C84.64,131.83,85.16,160.68,68.3,180.38z"/>
	<path class="st4" d="M68.81,181.71h1.58c23.92-15.2,25.14-41.44,17.95-73.1c-0.09-0.08-0.19-0.14-0.28-0.22
		c-0.43-0.37-0.83-0.77-1.24-1.16C94.44,139.42,93.92,166.13,68.81,181.71z"/>
	<path class="st3" d="M68.4,181.75c-4.25-7.63-27.62-7.72-32.21,0H68.4z"/>
	<path class="st5" d="M55.44,67.19l-3.99-2.09c0,0,4.02-18.19,20.88-16.02c0.65,0.08,0.71,0.99,0.08,1.16
		C68.26,51.4,60.92,55.13,55.44,67.19z"/>
	<path class="st5" d="M49.1,63.87l5.41,2.83c0,0-1.96-20.24-21.27-19.35c-0.65,0.03-0.71,0.99-0.08,1.16
		C37.3,49.67,43.62,51.8,49.1,63.87z"/>
</g>
</svg>
