<?xml version="1.0" encoding="utf-8"?>
<!-- Generator: Adobe Illustrator 25.4.1, SVG Export Plug-In . SVG Version: 6.00 Build 0)  -->
<svg version="1.1" id="Layer_1" xmlns="http://www.w3.org/2000/svg" xmlns:xlink="http://www.w3.org/1999/xlink" x="0px" y="0px"
	 viewBox="0 0 150.66 272.38" style="enable-background:new 0 0 150.66 272.38;" xml:space="preserve">
<style type="text/css">
	.st0{display:none;}
	.st1{display:inline;fill:#84C441;}
	.st2{display:inline;fill:#57B447;}
	.st3{display:inline;fill:#FFD45C;}
	.st4{display:inline;fill:#A3CF5F;}
	.st5{display:inline;fill:#98CB59;}
	.st6{fill:#C4D299;}
	.st7{fill:#D6E5A8;}
	.st8{fill:#308F43;}
	.st9{fill:#2FA449;}
</style>
<g id="_x37_">
	<g id="_x31_0_11_" class="st0">
		<path class="st1" d="M-204.2,154.21l-85.64,295.95c-0.49-0.53-0.99-1.08-1.47-1.63c-2.49-2.73-4.89-5.54-7.21-8.41
			c-0.31-0.33-0.59-0.7-0.89-1.08c-0.23-0.28-0.46-0.55-0.67-0.82c-1.12-1.42-2.21-2.83-3.29-4.25
			c-13.34-17.64-23.57-36.86-30.16-56.65c-5.58-16.78-7.94-32.77-7.16-49.45c0.8-17.06-3.35-21.21-14.62-37.07
			c-3.87-5.47-4.54-37.86,9.94-28.32c-10.87-7.15-15.89-20.31-11.64-30.5c4.25-10.19,17.38-16.49,30.46-14.66
			c-5.32-9.91-3.36-21.82,4.75-29.02c8.12-7.21,21.93-9.29,33.67-5.07c-4.9-28.06,29.17-23.72,47.23-13.21
			c7.38-10.15,21.32-16.29,35.95-15.83C-204.7,154.18-204.45,154.2-204.2,154.21z"/>
		<path class="st2" d="M-142.66,321.11c17.34-0.32-0.53,26.7-6.72,29.26c-18.01,7.39-23.73,8.68-32.16,23.53
			c-8.25,14.52-18.79,26.78-32.46,37.99c-17.19,14.07-37.53,25.39-59.81,33.29c-5.25,1.85-10.58,3.51-16.03,4.98l85.64-295.95
			c0.21,0.13,0.44,0.24,0.65,0.37c12.62,7.42,21.12,20.05,21.94,32.57c20.88,0.76,52,15.29,32.88,36.4
			c12.17,2.7,22.74,11.83,25.76,22.26c3.02,10.42-1.69,21.53-11.48,27.08c12.04,5.43,19.78,17.78,17.93,28.66
			C-118.38,312.42-129.65,320.87-142.66,321.11z"/>
		<path class="st3" d="M-297.02,421.19l-2.39,17.84c-0.23-0.28-0.46-0.55-0.67-0.82C-299.06,432.53-298.04,426.87-297.02,421.19z"/>
		<path class="st4" d="M-210.35,175.43l-79.5,274.72c-0.49-0.53-0.99-1.08-1.47-1.63c-2.49-2.73-4.89-5.54-7.21-8.41
			c8.41-20.27,8.62-43.19,4.4-65.47c-4.46-23.51-13.65-46.53-22.79-69.43c8.5,10.09,17.01,20.18,25.51,30.28
			c-3.26-35.37-12.49-70.85-27.31-104.97c14.85,12.98,29.71,25.95,44.56,38.93c-3.56-22.1-7.11-44.19-10.67-66.28
			c9.22,9.64,18.42,19.26,27.64,28.89c5.71-13.89,11.39-27.76,17.08-41.65c1.84,6.79,3.68,13.57,5.49,20.36
			C-231.47,196.8-222.76,184.27-210.35,175.43z"/>
		<path class="st5" d="M-210.35,175.43l-79.5,274.72c0.7-0.19,1.41-0.38,2.12-0.6c3.56-0.98,7.1-2.07,10.58-3.26
			c3.72-21.63,15.78-41.12,31.25-57.71c16.33-17.49,36.39-32.05,56.35-46.53c-12.58,3.99-25.16,7.98-37.74,11.97
			c21.65-28.16,48.39-53.22,79.15-74.16c-19.48,3.04-38.98,6.07-58.46,9.12c14.81-16.79,29.61-33.56,44.42-50.34
			c-12.94,3.23-25.86,6.44-38.8,9.67c2.59-14.79,5.19-29.55,7.81-44.33c-5.18,4.76-10.36,9.51-15.52,14.28
			C-203.9,204.78-204.57,189.53-210.35,175.43z"/>
	</g>
	<g>
		<path class="st6" d="M36.97,271.19c8.7-4.07,12.02-15.65,8.65-25.93c-7.29-23.36-9.59-47.53-7.32-71.13
			c-4.41-0.18-8.8-0.45-13.19-0.79C18.33,205.99,21.35,241.17,36.97,271.19z"/>
		<path class="st7" d="M12.77,254.46c3.15,13.14,14.87,20.81,23.82,16.9c0.13-0.06,0.25-0.12,0.38-0.18
			c-15.63-30.02-18.65-65.19-11.85-97.84c-5.66-0.43-11.31-0.97-16.95-1.65C4.36,198.59,5.65,226.63,12.77,254.46z"/>
		<path class="st8" d="M26.46,167.41c-0.49,1.97-0.93,3.95-1.34,5.93c4.38,0.33,8.77,0.6,13.18,0.78c0.55-5.67,1.3-11.28,2.27-16.8
			C73.45,49.18,150.66,46.65,150.66,46.65s-0.29-4.59-3.1-10.25C77.32,57.5,53.13,110.37,45.24,136.9
			c13.67-47.68,45.68-87.29,103.02-107.4c-0.53-1.3-0.61-9.98-1.14-11.29c-11.7,5.76-43.59,21.16-70.38,43.11
			c-2.67,2.59-5.29,5.24-7.89,7.95C43.85,96.62,35.33,132.46,26.46,167.41z"/>
		<path class="st9" d="M144.87,12.7c-1.17-2.88-2.35-5.76-3.53-8.64C68.18,31.9,18.69,97.4,8.17,171.69
			c5.64,0.68,11.29,1.22,16.95,1.65c0.41-1.99,0.85-3.97,1.34-5.93c8.87-34.95,17.38-70.79,42.39-98.14
			c2.6-2.71,5.22-5.36,7.89-7.95c-9.88,8.1-19.07,17.08-26.29,26.81C52.2,85.52,88.86,31.84,144.87,12.7z"/>
	</g>
</g>
</svg>
