<?xml version="1.0" encoding="utf-8"?>
<!-- Generator: Adobe Illustrator 25.4.1, SVG Export Plug-In . SVG Version: 6.00 Build 0)  -->
<svg version="1.1" id="Layer_1" xmlns="http://www.w3.org/2000/svg" xmlns:xlink="http://www.w3.org/1999/xlink" x="0px" y="0px"
	 viewBox="0 0 222.28 495.17" style="enable-background:new 0 0 222.28 495.17;" xml:space="preserve">
<style type="text/css">
	.st0{fill:#3B9243;}
	.st1{fill:#FFDE11;}
	.st2{fill:#FBB042;}
	.st3{opacity:0.49;}
	.st4{fill:#FFFFFF;}
	.st5{fill:#4FB848;}
</style>
<g>
	<path class="st0" d="M48.01,199.08C59.78,308.05,76.63,395.6,85.65,394.63c9.02-0.97,6.81-90.1-4.96-199.08
		C68.93,86.59,52.08-0.97,43.05,0.01C34.03,0.98,36.25,90.11,48.01,199.08z"/>
	<path class="st0" d="M176.54,199.08c-11.76,108.97-28.61,196.52-37.64,195.55c-9.02-0.97-6.8-90.1,4.96-199.08
		C155.62,86.59,172.47-0.97,181.5,0.01C190.52,0.98,188.3,90.11,176.54,199.08z"/>
	<path class="st1" d="M163.67,436.13c1.29,31.04-23.52,56.88-54.6,56.88c-31.04,0-55.85-25.84-54.56-56.88
		c-0.53-103.6,4.53-233.14,18.84-335.53c3.48-22.95,11.27-67.36,37.93-65.14c23.43,1.17,30.49,38.04,33.66,61.45
		c9.3,63.27,12.16,95.06,13.86,117.04C164.36,286.69,164.67,362.29,163.67,436.13z"/>
	<path class="st2" d="M153.39,304.86l9.95,0.08l-0.17-4.06l-9.78,0.29c0-5.31-0.04-10.62-0.04-15.93l9.33-0.13l-0.23-3.57
		l-9.07,0.01v-15.08l8.56-0.04l-0.17-3.61l-8.39-0.03c0-5.9,0-11.8,0.04-17.69l7.45-0.01l-0.22-3.81l-7.23,0.12
		c0.04-11.72,0.11-23.41,0.19-35.13l4.58-0.01l-0.31-3.63l-4.24-0.05c0.07-12.83,0.18-25.69,0.29-38.52
		c-0.59-5.31-1.25-10.62-1.99-15.89h-0.55l-11.54-0.04v-14.56l10.25-0.01l-0.49-3.68l-9.72,0v-12.79l7.96,0.06l-0.53-3.76l-7.4,0.01
		c0-4.31,0-8.55,0.04-12.83h5.53l-0.55-3.68h-4.98c0.04-8.74,0.04-17.37,0.07-25.95v-0.04c-1.03-3.98-2.25-7.85-3.65-11.46
		c0,2.65,0,5.34-0.03,8.03H121.1v-11.5h13.86c-0.55-1.25-1.15-2.51-1.77-3.69H121.1c0.04-4.61,0.04-9.25,0.04-13.86
		c-1.18-0.7-2.4-1.29-3.69-1.73c0,5.16,0,10.4-0.04,15.59h-14.75c0.22-5.31,0.44-10.61,0.74-15.89c-1.33,0.41-2.55,0.96-3.76,1.62
		c-0.26,4.76-0.44,9.51-0.66,14.27H86.63c-1.55,2.84-2.95,5.97-4.2,9.29v5.89l-2.08,0.08l-1.09,3.62l3.17-0.01v11.02h-5.71
		l-0.91,3.68l6.62,0.01v11.02h-8.51c-0.19,1.25-0.37,2.47-0.55,3.68h9.07v12.83l-10.68-0.06c-0.82,4.2-1.93,13.57-2.64,19.98
		c0,4.61,0.16,9.79,0.12,14.4h-1.55c-0.15,1.37-0.33,2.76-0.44,4.13h1.99c0,3.98,0,7.96-0.04,11.94l-3.17-0.17l-0.38,3.84l3.54,0.01
		v16.37h-4.97l-0.44,3.62l5.42,0.06c-0.03,5.01-0.03,10.03-0.03,15.04l-6.55,0.04l-0.28,3.63l6.83,0.02v15.04l-7.94-0.02l-0.25,3.63
		l8.19,0.08v16.4h-9.29l-0.11,3.69h9.4v17.69l-10.57,0.04l-0.2,3.61l10.77,0.04v15.08H57.99v3.69h11.17
		c0,5.31,0.03,10.62,0.03,15.93h-5.86v3.69h5.86v12.83h-0.51l4.2,11.99c0-0.7,0.04-7.64,0-8.31h9.55v12.79l-8.6-0.2l1.56,3.88h7.04
		v15.04h-1.7v3.69h1.7v2.06l3.71,10.3l-0.02-12.36h13.86c0,4.31-0.03,8.55-0.03,12.83l-13.9,0.04l1.63,3.67l12.28-0.02
		c-0.04,4.42-0.04,8.85-0.07,13.27l-7.23-0.15l1.51,3.84l5.71,0c-0.04,1.36,0.22,12.95,0.18,14.32l3.65,8.35
		c0.03-1.36-0.18-21.31-0.14-22.67h13.86c0.04,6.52,0.02,17.74,0.02,24.23l3.71-4.58c0-6.53,0-13.12-0.04-19.65h6.6l1.72-3.67
		l-8.31-0.02V373.1l15.11-0.06c0,0.12,0,0.24,0,0.36h3.68c0-1.28,0-2.58-0.01-3.87l0-0.01h0c-0.01-4.29-0.03-8.59-0.03-12.93h7.45
		v-3.69h-7.45c0-4.97-0.04-9.99-0.04-15.04l9.85,0.03l0.12-0.48c0.01,2.51,0.02,4.89,0.02,6.9l3.69-3.69
		c-0.04-6.41-0.04-12.87-0.04-19.24h7.82v-3.68h-7.85C153.43,313.41,153.39,309.14,153.39,304.86z M82.43,317.69h-9.55v-12.83h9.55
		V317.69z M82.43,301.18h-9.55c0-5.31-0.04-10.62-0.04-15.93h9.59V301.18z M82.43,281.56h-9.59v-15.08h9.59V281.56z M82.43,262.8
		h-9.59v-17.69h9.59V262.8z M82.43,241.42h-9.59v-16.4h9.59V241.42z M82.43,221.33h-9.59v-15.04h9.59V221.33z M82.43,202.6h-9.59
		c0-5.01,0-10.03,0.04-15.04h9.55V202.6z M82.43,183.87h-9.55v-16.37h9.55V183.87z M82.43,163.82h-9.55
		c0.04-3.98,0.04-7.96,0.04-11.94h9.51V163.82z M82.43,147.82l-9.51-0.04c0.04-4.72,0.04-9.47,0.04-14.19h9.47V147.82z
		 M82.43,129.91h-9.47c0.04-2.58,0.07-10.12,0.07-12.7l9.41-0.1V129.91z M86.11,55.99h12.68c-0.15,3.84-0.29,7.67-0.44,11.5H86.11
		V55.99z M86.11,71.18h12.13c-0.11,3.65-0.22,7.34-0.33,11.02h-11.8V71.18z M86.11,85.89H97.8c-0.07,3.65-0.14,7.33-0.22,11.02
		H86.11V85.89z M86.11,100.6h11.43c-0.07,4.28-0.19,8.55-0.22,12.83H86.11V100.6z M86.11,117.11h11.17
		c-0.07,4.24-0.04,8.52-0.07,12.79h-11.1V117.11z M86.11,133.59h11.1c-0.04,4.79-0.04,9.55-0.04,14.3l-11.06-0.04V133.59z
		 M86.11,151.88h11.06c0.04,3.98,0.04,7.96,0.07,11.94H86.11V151.88z M86.11,167.51h11.14c0.04,5.46,0.11,10.91,0.18,16.37H86.11
		V167.51z M86.11,187.56h11.36c0.04,5.01,0.11,10.03,0.19,15.04H86.11V187.56z M86.11,206.29h11.62c0.07,5.01,0.14,10.02,0.22,15.04
		H86.11V206.29z M86.11,225.01h11.91c0.07,5.49,0.18,10.95,0.29,16.4h-12.2V225.01z M86.11,245.11h12.28
		c0.07,3.47,0.11,6.96,0.19,10.43c0.03,2.4,0.11,4.87,0.14,7.26H86.11V245.11z M86.11,266.49h12.68c0.07,5.01,0.19,10.03,0.26,15.08
		H86.11V266.49z M86.11,285.25h13.01c0.11,5.31,0.19,10.58,0.26,15.93H86.11V285.25z M86.11,304.86h13.31
		c0.07,4.28,0.14,8.55,0.18,12.83H86.11V304.86z M86.11,321.38h13.57c0.04,4.28,0.07,8.52,0.11,12.79H86.11V321.38z M86.11,352.89
		v-15.04h13.72c0.04,5.01,0.07,10.06,0.11,15.04H86.11z M101.49,85.89h15.89v11.02h-16.11C101.34,93.23,101.41,89.54,101.49,85.89z
		 M101.23,100.6h16.14c-0.04,4.28-0.04,8.55-0.04,12.83h-16.33C101.04,109.15,101.16,104.88,101.23,100.6z M100.97,117.11h16.37
		v12.79H100.9C100.93,125.63,100.9,121.36,100.97,117.11z M100.9,133.59h16.44c0,4.79-0.04,9.62-0.04,14.41l-16.44-0.07
		C100.86,143.14,100.86,138.39,100.9,133.59z M117.3,151.88v11.94h-16.37c-0.04-3.98-0.04-7.96-0.07-11.94H117.3z M100.93,167.51
		h16.37v16.37h-16.18C101.04,178.42,100.97,172.97,100.93,167.51z M101.16,187.56h16.14v15.04h-15.96
		C101.26,197.59,101.23,192.58,101.16,187.56z M101.41,206.29h15.89v15.04h-15.66C101.56,216.31,101.49,211.3,101.41,206.29z
		 M101.71,225.01h15.59v16.4H102C101.89,235.97,101.82,230.51,101.71,225.01z M102.26,255.46c-0.07-3.46-0.11-6.93-0.18-10.36h15.22
		v17.69h-14.89C102.37,260.37,102.3,257.9,102.26,255.46z M102.48,266.49h14.82v15.08h-14.56
		C102.66,276.51,102.55,271.5,102.48,266.49z M102.81,285.25h14.49v15.93h-14.23C103,295.83,102.93,290.56,102.81,285.25z
		 M103.11,304.86h14.23v12.83h-14.04C103.26,313.41,103.18,309.14,103.11,304.86z M103.37,321.38h13.97v12.79h-13.86
		C103.44,329.89,103.41,325.65,103.37,321.38z M103.51,337.86h13.82c0.04,5.01,0.04,10.06,0.04,15.04h-13.75
		C103.59,347.92,103.55,342.87,103.51,337.86z M117.37,356.58v12.83h-13.75c0-4.28,0.04-8.52,0.04-12.83H117.37z M117.41,386.37
		h-13.86c0.04-4.42,0.04-8.85,0.07-13.27h13.79V386.37z M117.37,82.21H101.6c0.11-3.69,0.22-7.37,0.33-11.02h15.48
		C117.37,74.83,117.37,78.52,117.37,82.21z M117.41,67.49h-15.37c0.14-3.83,0.29-7.66,0.44-11.5h14.93V67.49z M139.86,151.88h10.54
		l-0.11,11.94h-10.47C139.82,159.84,139.82,155.86,139.86,151.88z M139.82,167.51h10.43c-0.07,5.46-0.11,10.91-0.14,16.37h-10.33
		C139.79,178.42,139.82,172.97,139.82,167.51z M139.79,187.56h10.29c-0.04,5.01-0.07,10.03-0.11,15.04h-10.18V187.56z
		 M139.79,206.29h10.14c-0.04,5.01-0.04,10.02-0.07,15.04h-10.1C139.79,216.31,139.79,211.3,139.79,206.29z M139.75,225.01h10.06
		c0,5.49-0.04,10.95-0.07,16.4h-9.99V225.01z M139.75,245.11h9.99c-0.04,5.89-0.04,11.8-0.04,17.69h-9.95V245.11z M149.71,266.49
		v15.08h-9.92c-0.03-5.01-0.03-10.03-0.03-15.08H149.71z M149.71,301.18h-9.92v-15.93h9.88
		C149.67,290.56,149.71,295.87,149.71,301.18z M121.1,71.18h15.26c0,3.65-0.04,7.34-0.04,11.02h-15.26
		C121.06,78.52,121.06,74.83,121.1,71.18z M121.06,85.89h15.26c-0.04,3.65-0.04,7.33-0.04,11.02h-15.23V85.89z M121.06,100.6h15.23
		c-0.04,4.28-0.04,8.52-0.04,12.83h-15.23C121.02,109.15,121.02,104.88,121.06,100.6z M121.02,117.11h15.19v12.79h-15.19V117.11z
		 M121.02,133.59h15.15v14.52l-15.19-0.07C120.99,143.22,121.02,138.42,121.02,133.59z M120.99,151.88h15.19
		c-0.04,3.98-0.04,7.96-0.04,11.94h-15.15V151.88z M120.99,167.51h15.15c0,5.46-0.04,10.91-0.04,16.37h-15.11V167.51z
		 M136.14,321.38v12.79h-15.11v-12.79H136.14z M121.02,317.69v-12.83h15.08v12.83H121.02z M120.99,187.56h15.11v15.04h-15.11V187.56
		z M120.99,206.29h15.11c0,5.01,0,10.02-0.04,15.04h-15.08V206.29z M120.99,225.01h15.08v16.4h-15.08V225.01z M120.99,245.11h15.08
		v17.69h-15.08V245.11z M120.99,266.49h15.08c0,5.05,0,10.06,0.04,15.08h-15.11V266.49z M120.99,285.25h15.11v15.93h-15.11V285.25z
		 M136.14,337.86c0,5.05,0.04,10.06,0.04,15.04h-15.11c0-4.97,0-10.03-0.04-15.04H136.14z M121.06,369.41v-12.83h15.11
		c0,4.33,0.02,8.62,0.03,12.91L121.06,369.41z M139.79,317.69v-12.83h9.92c0,4.28,0.04,8.55,0.04,12.83H139.79z M139.82,334.17
		v-12.79h9.95c0,3.56,0,8.27,0.01,12.84L139.82,334.17z"/>
	<g class="st3">
		<path class="st4" d="M116.11,220.96h-12.81c-0.9,0-1.62-0.73-1.62-1.62v-11.45c0-0.9,0.73-1.62,1.62-1.62h12.81
			c0.9,0,1.62,0.73,1.62,1.62v11.45C117.74,220.23,117.01,220.96,116.11,220.96z"/>
		<path class="st4" d="M116.11,241.91h-12.81c-0.9,0-1.62-0.73-1.62-1.62v-12.8c0-0.9,0.73-1.62,1.62-1.62h12.81
			c0.9,0,1.62,0.73,1.62,1.62v12.8C117.74,241.19,117.01,241.91,116.11,241.91z"/>
		<path class="st4" d="M116.11,261.98h-12.81c-0.9,0-1.62-0.73-1.62-1.62v-12.8c0-0.9,0.73-1.62,1.62-1.62h12.81
			c0.9,0,1.62,0.73,1.62,1.62v12.8C117.74,261.26,117.01,261.98,116.11,261.98z"/>
		<path class="st4" d="M134.4,261.54h-10.58c-0.9,0-1.63-0.73-1.63-1.63v-12.81c0-0.9,0.73-1.62,1.62-1.62h10.58
			c0.9,0,1.62,0.73,1.62,1.62v12.81C136.02,260.81,135.29,261.54,134.4,261.54z"/>
		<path class="st4" d="M134.4,281.26h-10.58c-0.9,0-1.63-0.73-1.63-1.63v-11.57c0-0.9,0.73-1.62,1.62-1.62h10.58
			c0.9,0,1.62,0.73,1.62,1.62v11.57C136.02,280.53,135.29,281.26,134.4,281.26z"/>
		<path class="st4" d="M134.4,301.34h-10.58c-0.9,0-1.62-0.73-1.62-1.62v-12.8c0-0.9,0.73-1.62,1.62-1.62h10.58
			c0.9,0,1.62,0.73,1.62,1.62v12.8C136.02,300.61,135.29,301.34,134.4,301.34z"/>
		<path class="st4" d="M133.28,202.35h-10.57c-0.9,0-1.62-0.73-1.62-1.62v-11.55c0-0.9,0.73-1.62,1.62-1.62h10.57
			c0.9,0,1.62,0.73,1.62,1.62v11.55C134.91,201.62,134.18,202.35,133.28,202.35z"/>
		<path class="st4" d="M111.85,164.26h-5.12c-3.39,0-6.14-2.75-6.14-6.14l0,0c0-3.39,2.75-6.13,6.14-6.13h5.12
			c3.39,0,6.14,2.74,6.14,6.13l0,0C117.99,161.51,115.24,164.26,111.85,164.26z"/>
		<path class="st4" d="M129.22,130.19h-0.23c-3.75,0-6.8-3.04-6.8-6.8l0,0c0-3.76,3.04-6.8,6.8-6.8h0.23c3.75,0,6.8,3.04,6.8,6.8
			l0,0C136.02,127.15,132.98,130.19,129.22,130.19z"/>
		<path class="st4" d="M144.64,183.51L144.64,183.51c-2.89,0-5.23-2.34-5.23-5.23v-5.58c0-2.89,2.34-5.24,5.23-5.24l0,0
			c2.89,0,5.23,2.34,5.23,5.24v5.58C149.87,181.17,147.53,183.51,144.64,183.51z"/>
	</g>
	<path class="st0" d="M83.37,487.9c0,0-20.86-9.28-31.58-33.26C16.92,374.35,4.2,189.43,0,45.83
		C29.87,149.26,68.23,387.1,142.39,479.48C132.36,493.38,103.02,497.46,83.37,487.9z"/>
	<path class="st5" d="M133.91,488.12c24.19-10.64,34.82-33.41,43.63-58.43c19.43-55.14,31.15-148.64,36.81-207.15
		c6.43-66.38,7.93-164.53,7.93-164.53c-0.01,0.02-32.26,142.54-55.46,232.6c-10.71,41.56-29.21,80.91-48.07,119.48
		c-9.99,20.44-24.52,47.83-39,65.61C67.1,491.23,109.67,498.79,133.91,488.12z"/>
	<path class="st5" d="M122.7,481.37H98.73c-4.28,0-7.75-3.47-7.75-7.75l0,0c0-4.28,3.47-7.75,7.75-7.75h23.96
		c4.28,0,7.75,3.47,7.75,7.75l0,0C130.45,477.9,126.97,481.37,122.7,481.37z"/>
</g>
</svg>
