<?xml version="1.0" encoding="utf-8"?>
<!-- Generator: Adobe Illustrator 25.4.1, SVG Export Plug-In . SVG Version: 6.00 Build 0)  -->
<svg version="1.1" id="Layer_1" xmlns="http://www.w3.org/2000/svg" xmlns:xlink="http://www.w3.org/1999/xlink" x="0px" y="0px"
	 viewBox="0 0 425.87 323.77" style="enable-background:new 0 0 425.87 323.77;" xml:space="preserve">
<style type="text/css">
	.st0{display:none;}
	.st1{display:inline;fill:#F8EBCF;}
	.st2{display:inline;fill:#F0D09F;}
	.st3{display:inline;opacity:0.4;}
	.st4{fill:#E0B373;}
	.st5{display:inline;fill:#1172BA;}
	.st6{display:inline;opacity:0.2;fill:#E0B373;}
	.st7{display:inline;fill:#045A8A;}
	.st8{display:inline;fill:#2BAAE2;}
	.st9{display:inline;opacity:0.2;}
	.st10{fill:#FFFFFF;}
	.st11{display:inline;opacity:0.15;}
	.st12{display:inline;fill:#FCF38B;}
	.st13{display:inline;opacity:0.5;}
	.st14{display:inline;}
	.st15{fill:#045A8A;}
	.st16{fill:#1172BA;}
	.st17{opacity:0.4;}
	.st18{fill:#FAA748;}
	.st19{fill:#DD8326;}
	.st20{fill:#F99C2F;}
	.st21{fill:#FECB7B;}
	.st22{fill:#FED6A8;}
	.st23{fill:#ECC291;}
	.st24{fill:#FEBE41;}
	.st25{fill:#FFD787;}
	.st26{fill:#FFD365;}
	.st27{fill:#FBAA19;}
	.st28{fill:#FFDB80;}
	.st29{fill:#EC685B;}
	.st30{fill:#FAC5C0;}
	.st31{fill:#EC7F74;}
	.st32{fill:#EBAAA4;}
	.st33{fill:#EED8C1;}
</style>
<g class="st0">
	<path class="st1" d="M61.13,318.9v38.64c0,13.64,49.49,24.69,110.55,24.69c61.06,0,110.56-11.05,110.56-24.69V318.9H61.13z"/>
	<path class="st2" d="M61.13,318.9v38.64c0,13.64,49.49,22.37,110.55,22.37c61.06,0,110.56-8.74,110.56-22.37V318.9H61.13z"/>
	<path class="st1" d="M332.67,35.06H11.04v44.48l15.9,113.11c5.78,2.18,12.64,4.22,20.58,6.07c17.69,4.12,40.25,7.32,65.75,9.31
		c3.78-29.68,28.92-51.4,58.52-51.4c29.6,0,54.37,19.83,58.52,51.41c25.56-1.99,48.16-5.2,65.88-9.32
		c7.95-1.85,14.8-3.89,20.57-6.07l-13.6,96.73h0.01l29.5-209.84V35.06z"/>
	<path class="st1" d="M290.9,307.35c-29.06,7.07-71.61,11.55-119.16,11.55c-47.55,0-90.1-4.48-119.16-11.55
		c-3.57-0.87-6.8-1.81-9.9-2.75l2.75,19.56c1.3,9.24,7.86,16.96,16.87,19.41c0.34,0.09,0.69,0.19,1.05,0.29
		c26.7,7.06,65.82,11.55,109.52,11.55c43.71,0,77.02-3.04,103.74-10.11c1.25-0.32,2.8-0.75,4.51-1.23
		c9.04-2.52,15.77-10.17,17.08-19.46l2.82-20.07C297.86,305.51,294.56,306.46,290.9,307.35z"/>
	<g class="st3">
		<path class="st4" d="M329.75,70.56c-0.37-6.11,0.36-16.66-2.05-21.99c-4,0.77-7.42,3.67-11.07,5.47
			c-4.91,2.42-10.14,3.6-15.4,5.11c-8.9,2.55-17.48,5.33-26.79,5.94c-10.36,0.68-19.28,5.32-29.59,6.21
			c-9.25,0.81-19.01,1.02-28.29,1.25c-42.84,1.09-84.64-2.34-127.07-7.84c-13.82-1.79-27.72-1.68-41.47-3.77
			c-4.62-0.71-10.21-0.58-14.64-1.98c-5.26-1.66-9.36-6.28-15.27-5.79l1.71,2.86c-2.22,10.15-2.31,22.7,5.67,30.48
			c4.73,4.61,8.34,4.04,13.72,0.77c3.19-1.94,5.69-4.11,7.74-7.31c1.38-2.14,2.19-6.9,4.17-8.39c6.54-4.92,22.37,0.6,29.7,1.97
			c10.69,2.01,21.68,2.15,32.23,4.4c40.98,8.78,84.81,9.32,126.6,8.86c5.65-0.06,33.71-5.63,25.91,5.58
			c-3.13,4.5-12.08,8.15-17.07,9.82c-4.9,1.62-14.71,1.49-17.64,6.19c8.24,6.76,31.68,0.4,41.01-2.2c0,0,37.18-9.61,50.46-16.24
			C330.97,85.65,330.27,79.38,329.75,70.56z"/>
	</g>
	<path class="st5" d="M172.86,304.07c-47.55,0-90.1-4.47-119.16-11.54c-4.92-1.19-9.21-2.5-13.26-3.84l2.23,15.91
		c3.1,0.94,6.33,1.88,9.9,2.75c29.06,7.07,71.61,11.55,119.16,11.55c47.54,0,90.1-4.48,119.16-11.55c3.67-0.89,6.96-1.84,10.13-2.82
		l2.12-15.15c-3.45,1.1-7.06,2.16-11.13,3.15C262.96,299.6,220.42,304.07,172.86,304.07z"/>
	<path class="st6" d="M292.7,57.3c-29.48,7.06-72.62,11.55-120.85,11.55c-48.22,0-91.38-4.49-120.85-11.55
		c-24.81-5.95-39.96-13.71-39.96-22.24v44.48c0,18.66,71.99,33.79,160.81,33.79c88.82,0,160.82-15.13,160.82-33.79V35.06
		C332.67,43.59,317.5,51.36,292.7,57.3z"/>
	<path class="st7" d="M343.42,40.19c0,20.87-76.82,37.78-171.58,37.78C77.09,77.97,0.27,61.06,0.27,40.19
		c0-20.87,76.82-37.78,171.58-37.78C266.6,2.41,343.42,19.33,343.42,40.19z"/>
	<path class="st5" d="M297.35,183.9c-30.31,7.07-74.71,11.55-124.32,11.55S79.02,190.96,48.7,183.9
		c-9.56-2.23-17.61-4.72-24.03-7.41l2.27,16.17c5.78,2.18,12.63,4.22,20.59,6.07c30.32,7.06,74.72,11.55,124.32,11.55
		c49.62,0,94.01-4.49,124.33-11.55c7.95-1.85,14.8-3.89,20.57-6.07l2.14-15.2C312.93,179.77,305.75,181.93,297.35,183.9z"/>
	<path class="st5" d="M171.78,156.63c29.61,0,53.98,23.13,58.53,51.46l15.19-1.42c-4.65-36.61-35.84-64.94-73.72-64.94
		c-37.88,0-69.07,28.33-73.73,64.94l15.2,1.42C117.8,179.76,142.16,156.63,171.78,156.63z"/>
	<path class="st8" d="M171.85-2.72C77.09-2.72,0.27,14.2,0.27,35.06c0,4.13,3.13,8.1,8.71,11.83L1.24,65.46
		c-3.55,8.5,0.47,18.26,8.97,21.81c8.49,3.55,18.26-0.47,21.81-8.98l7.96-19.08c31.47,8.32,78.85,13.62,131.87,13.62
		c94.75,0,171.58-16.92,171.58-37.78C343.42,14.2,266.6-2.72,171.85-2.72z"/>
	<path class="st8" d="M53.71,292.53c29.06,7.07,71.61,11.54,119.16,11.54c47.55,0,90.1-4.47,119.15-11.54
		c4.07-0.99,7.69-2.05,11.13-3.15l13.6-96.73c-5.78,2.18-12.63,4.22-20.57,6.07c-17.72,4.12-40.32,7.33-65.88,9.32
		c-4.15-31.58-28.92-51.41-58.52-51.41c-29.6,0-54.74,21.73-58.52,51.4c-25.5-1.99-48.06-5.19-65.75-9.31
		c-7.94-1.85-14.8-3.9-20.58-6.07l13.51,96.04C44.5,290.03,48.78,291.34,53.71,292.53z"/>
	<g class="st9">
		<path class="st10" d="M36.66,57.11c-2.57-0.64-10.95-2.71-13.73-3.66c-4.16-1.43-12.36-5.53-12.36-5.53
			c-3.22,6.4-10.05,18.13-8.76,25.18c2.07,11.28,14.67,16.39,23.13,10.09C28.82,80.32,36.66,57.11,36.66,57.11z"/>
	</g>
	<g class="st11">
		<path class="st10" d="M207.28,4.8c-18-1.87-35.53-2.8-53.63-2.84c-17.37-0.05-35.96,0.01-53.2,2.42c-18,2.52-36.43,4.93-53.7,10.7
			c-7.33,2.44-36.52,9.71-33.57,21.74c0.1,0.55,0.27,1.02,0.5,1.53c0.12,0.25,0.29,0.51,0.43,0.76c0.36,0.61,0.65,1.2,1.16,1.7
			c0.13,0.16,0.2,0.32,0.34,0.48c7.07,8.17,21.47,9.79,31.15,13.13c12.06,4.15,75.35,12.92,94.37,13.11
			c35.74,0.38,70.56-1.39,105.78-7.85c10.15-1.86,45.06-7.54,52.47-24.91C306.67,17.64,240.32,8.23,207.28,4.8z"/>
	</g>
	<path class="st12" d="M53.7,292.53c29.07,7.07,71.61,11.54,119.17,11.54c47.55,0,90.1-4.47,119.15-11.54
		c4.07-0.99,7.69-2.06,11.13-3.15l4.77-33.86c-4.51-0.11-9.48,0.73-13.9,0.65c-1.52-7.11-5.23-12.86-13.6-12.76
		c-8.01,0.09-12.22,8.69-19.11,9.38c4.7-7.55,4.47-10.31-3.56-15.22c-6.03-3.69-11.82-4.23-18.62-5.55
		c-6.18-1.21-10.98-1.78-17.3-0.75c-2.86,0.47-5.11,0.99-7.7,2.23c-2.34,1.12-5.15,4.1-7.66,3.96c5.42-5.6,10.6-12.25,4.16-19.89
		c-2.4-2.85-6.22-4.87-9.76-5.8c-4.47-1.16-3.74,0.44-4.67-3.9c-1.71-7.89-4.2-15.72-11.79-20.31c-3.63-2.21-6.99-1.46-10.91-2.45
		c-3.24-0.81-5.77-3.66-8.87-4.18c8.19,4.05,7.73,12.14-0.12,16.6c-3.34,1.9-18.24,6.73-8.7,12.43c-7.23,0.24-15.65-0.29-20.43,6.44
		c-2.25,3.15-2.42,7.27,0.47,10.26c2.83,2.93,5.99,1.36,9.28,2.55c-7.38,5.89-25.13-4.01-33.66-3.83
		c-5.8,0.12-11.84,0.83-16.71,4.26c-6.41,4.52-5.77,8.4-2.51,14.9c-2.56-1.25-5.43-1.63-7.96-2.92c-2.55-1.3-4.49-3.41-7.14-4.61
		c-4.94-2.24-10.45-2.86-15.73-2.1c-5.23,0.74-11.93,2.95-14.5,8.11c-2.39,4.77,0.01,9.83,5.39,10.42
		c-5.79-0.86-9.53-4.77-15.69-2.85c-0.48,0.15-0.96,0.49-1.45,0.7l5.26,37.4C44.5,290.03,48.78,291.34,53.7,292.53z"/>
	<g class="st13">
		<path class="st10" d="M171.75,189.68c2.27,4.22-1.66,9.17-6.28,10.94c-3.02,1.16-14.82,1.06-8.56,6.78
			C165.3,215.06,178.26,198.05,171.75,189.68z"/>
		<path class="st10" d="M142.95,226.45c5.77,3.16,20.74,5.95,23.68-2.74c-3.19-2-23.66-1.48-13.26-10.24
			c-1.12-0.83-2.29-0.73-3.42-0.24C144.69,212.15,132.74,220.87,142.95,226.45z"/>
		<path class="st10" d="M180.3,234.81c6.33-8.66,2.43-19.88-8.63-20.85c3.95,2.44,6.51,5.93,6.52,10.77
			c0.01,6.53-4.75,10.17-4.75,10.17c-17.91,8.75-33.77,6.3-50.94-2.58c-6.81-3.53-16.57-5.95-23.16-0.18
			c-7.71,6.76,4.06,20.01,9.83,12.59c-7.61-10.97,13.74-2.29,17.27-0.95c8.23,3.13,17.91,5.29,26.73,4.06
			C161.13,246.75,175.41,241.5,180.3,234.81z"/>
		<path class="st10" d="M206.79,217.67c0.49-2.97-5.25-6.19-7.89-6.21c-3.28-0.02-6.05,3.13-9.03,5.4
			c-0.15,0.09-1.68,1.41-1.68,1.41c-0.75,0.64-1.47,1.16-2.26,2.1C188.57,225.33,205.81,223.6,206.79,217.67z"/>
		<path class="st10" d="M227.03,235.24c-3.43,0.28-6.63,0.82-10.66,2.65c-5.79,2.63-10.61,6.57-16.36,9.41
			c-10.28,5.08-21.98,6.51-33.37,6.28c14.97,1.65,28.37,2.33,42.56-4.08c5.81-2.62,12.93-7.43,19.67-6.57
			c11.82,1.49-4.36,14.6-6.35,4.36c-2.53,0.21-3.54,3.46-2.58,5.66c1,2.26,4.39,3.06,6.59,3.56c4.31,1,10.59,1.37,14.45-1.13
			C253.41,247.34,238.14,228.53,227.03,235.24z"/>
		<path class="st10" d="M54.79,250.6c1.68,0.95,4.46,2.13,6.2,0.63c2.44-2.12-0.46-3.63,0.45-5.8c4.07-9.68,18.87,2.6,24.25,1.73
			c-8.69-8.57-24.5-15.97-33.65-4.68C52.04,242.49,51.18,248.56,54.79,250.6z"/>
		<path class="st10" d="M284.26,250.2c3.56-6.44-4.98-5.24-8.54-3.44h2.47c-3.08,1.3-5.43,4.7-8.36,6.85
			c-2.41,1.77-5.51,3.37-8.69,4.11c4.63-0.1,9.07-0.13,13.72-1.96C277.69,254.66,282.66,253.09,284.26,250.2z"/>
		<path class="st10" d="M296.91,259.44c-7.06-0.64-14.42,3.49-21.72,4.33c5.7,0.58,11.47,1.8,17.02,2.46
			c3.12,0.38,10.04,2.19,12.1-1.46C306.77,260.42,301.65,259.42,296.91,259.44z"/>
		<path class="st10" d="M58.07,257.6c-7.13-2.87-18.4,2.26-18.4,2.26c-5.5,3.64,2.59,6.9,5.77,6.86c3.67-0.04,7.31-1.15,10.91-1.74
			c8.07-1.33,14.58-3.53,22.12-6.7C72.32,261.77,64.11,260.04,58.07,257.6z"/>
		<path class="st10" d="M118.28,244.94c8.04,8.25-9.55,13.33-14.69,13.26c-8.47-0.11-15.68-2.44-22.45-7.69l-1.71,0.85
			c4.69,6.26,7.59,10.32,15.83,12.08c5.93,1.27,11.79,0.8,17.75-0.31c5.29-0.98,14.43-2.6,16.88-8.33
			C132.67,248.26,123.88,242.44,118.28,244.94z"/>
	</g>
	<g class="st14">
		<path class="st10" d="M54.07,247.27c1.85-0.38,1.79-3.53,2.99-4.79c1.66-1.73,4.79-2.32,7.09-2.54c5.22-0.49,9.5,1.05,14.31,2.54
			c-3.43-1.91-6.58-4.99-10.61-5.51c-3-0.94-7.36-0.98-10.13-0.19c-2.78,0.78-5.19,2.22-6.42,4.99
			C50.51,243.61,50.84,247.93,54.07,247.27z"/>
		<path class="st10" d="M122,244.94c-1.65-0.72-4.76,0.37-4.8,2.42c-0.07,2.58,2.81,2.53,0.91,5.59c-2.06,3.32-9.35,4.29-12.87,4.56
			c-4.27,0.33-8.81-0.39-12.83-1.73c-3.15-1.04-8.1-2.18-10.51-4.78c2.78,6.99,18.08,8.98,24.48,8.77
			c4.72-0.15,8.78-0.86,12.84-3.41C122.13,254.53,127.87,247.49,122,244.94z"/>
		<path class="st10" d="M140.56,239.21c-5.99-1.73-11.44-3.7-16.96-6.63c-3.93-2.08-7.88-4.47-12.62-4.58
			c-5.8-0.47-10.1,1.74-12.49,3.97c-1.52,1.42-3.29,4.58-2.53,6.82c0.5,1.51,3.04,3.75,4.8,2.9c1.95-0.95,0.96-4.01,2.51-5.72
			c1.32-1.45,3.89-2.23,5.8-2.55c4.38-0.75,9.18,0.72,13.26,2.38c8.84,3.6,16.52,7.05,26.22,7.55c6.19,0.31,22.91-0.69,24.9-8.45
			C162.55,240.41,152.63,242.71,140.56,239.21z"/>
		<path class="st10" d="M140.28,222.09c3.74,1.85,20.05,5.79,22.66,1.36c-2.06-1.4-5.56-0.51-7.97-0.91
			c-2.47-0.41-6.22-1.04-8.13-2.84c-3.09-2.9-0.21-4.04,2.43-5.37c1.21-0.61,2.64-1.96,2.59-2.66
			C145.81,210.91,129.6,216.81,140.28,222.09z"/>
		<path class="st10" d="M149.83,211.41l2.01,0.22C151.79,211.25,151.37,211.02,149.83,211.41z"/>
		<path class="st10" d="M151.84,211.63c0.01,0.01,0.01,0.02,0.01,0.04c0.17,0.02,0.4-0.01,0.54,0.02L151.84,211.63z"/>
		<path class="st10" d="M166.46,199.42c-2.33,0.95-14.49,1.53-10.59,6.58c2.14,2.77,10.94-2.99,13.3-4.6
			c4.14-2.8,6.06-6.69,4.03-10.27C174.57,194.75,170.29,197.86,166.46,199.42z"/>
		<path class="st10" d="M189.48,193.19c-1.44-4.34-6.88-6.82-11.14-7.68c-4.17-0.85-7.26-1.15-10.74-3.35
			c1.6,3.5,7.31,5.46,10.74,6.41c2.06,0.57,4,0.6,5.99,1.52C186.14,190.91,187.63,192.61,189.48,193.19z"/>
		<path class="st10" d="M166.08,181.18c0.52,0.41,1.02,0.65,1.52,0.97c-0.02-0.04-0.07-0.07-0.09-0.11L166.08,181.18z"/>
		<path class="st10" d="M194.88,220.04c2.38,0.4,6.98,0.19,7.98-2.63c1.33-3.73-3.28-5.05-5.7-6.29l-0.29,0.57
			c1.09,3.57-3.59,2.97-5.3,3.97C188.19,217.64,192.23,219.6,194.88,220.04z"/>
		<path class="st10" d="M241.14,235.03c-3.71-2.28-7.97-1.75-12.06-1.03c-9,1.59-16.77,7.24-24.81,11.4
			c-6.13,3.19-16.57,7.59-23.65,7.07l-0.3,0.57c6.22,1.25,12.72-2.04,18.4-4.14c6.03-2.23,12.28-4.19,18.11-6.9
			c4.57-2.13,13.41-7.81,17.69-2.33c2.15,2.76,0.22,6.66-2.42,8.48c-2.82,1.93-5.37,1.31-8.41,0.59c-2.63,4.79,6.95,4.58,9.11,4.22
			c4.2-0.69,9.19-2.63,11.59-6.42C246.91,242.58,244.96,237.38,241.14,235.03z"/>
		<path class="st10" d="M280.56,244.84l1.29,0.22c-0.74-0.89-1.72-0.96-2.8-0.56c-0.23,0.02-0.34-0.09-0.62-0.02l0.5,0.08
			c-3.1,1.24-6.95,6.23-8.48,7.34c-4.05,2.94-8.03,5.19-13.02,6.15c5.08-1.16,9.8-2.97,14.58-5.01c2.43-1.04,5.76-2.46,7.61-4.34
			C280.78,247.53,281.37,245.68,280.56,244.84z"/>
		<path class="st10" d="M295.85,257.89l1.43,0.13c-3.43,0.44-7.29,1.88-9.68,2.57c-4.57,1.33-9.67,2.94-14.47,2.71
			c6.28-0.01,12.45-0.93,18.73-1.14c2.5-0.08,7.18,0.36,9.43-0.81C307.16,258.29,298.5,257.1,295.85,257.89z"/>
		<path class="st10" d="M39.39,258.72c0,0,0.18,3.44,3.77,2.88c3.67-0.57,6.08-2.32,10.05-2.31c5.21,0.01,10.27-0.27,15.34-0.99
			c-4.5,0.01-9.23-1.59-13.2-3.06C50.2,253.33,41.8,251.79,39.39,258.72z"/>
	</g>
	<g class="st14">
		<path class="st15" d="M153.62,257.77c0.44-5.23-6.83-5.32-6.59-8.37c0.1-1.16,1.06-1.77,2.42-1.66c0.82,0.07,1.32,0.36,1.8,0.67
			c0.13,0.4,0.21,0.71,0.2,0.8l-0.13,1.68l1.87,0.27l0.69-4.36c-1.55-0.61-3.35-1.1-4.93-1.22c-3.1-0.25-5.49,1.29-5.72,4.08
			c-0.44,5.41,6.84,5.32,6.58,8.67c-0.12,1.29-1.22,1.82-2.53,1.71c-1.16-0.09-1.94-0.54-2.4-0.84c-0.12-0.39-0.25-0.82-0.24-0.95
			c0.02-0.27,0.11-1.59,0.11-1.59l-1.88-0.27l-0.7,4.35c0,0,2.14,1.27,5.21,1.53C150.65,262.54,153.37,260.88,153.62,257.77z"/>
		<path class="st15" d="M163.46,263.3c4.94,0.18,8.24-3.03,8.42-8.14c0.18-5.14-2.88-8.57-7.81-8.75c-4.93-0.18-8.24,3.03-8.42,8.17
			C155.47,259.69,158.53,263.12,163.46,263.3z M164,248.62c2.72,0.1,3.95,2.15,3.81,6.39c-0.16,4.23-1.52,6.18-4.25,6.09
			c-2.74-0.1-3.96-2.15-3.82-6.37C159.9,250.48,161.26,248.52,164,248.62z"/>
		<path class="st15" d="M174.73,251.52l0.02,5.57c0.02,3.91,2.27,6.46,6.63,6.43c4.35-0.02,6.62-2.59,6.6-6.5l-0.03-6.26
			c-0.01-0.46,0.12-1.53,0.19-1.85l1.5-0.15l-0.12-1.84c0,0-1.32,0.12-3.91,0.13c-1.08,0.01-2.28-0.1-2.28-0.1l-0.11,1.71l1.49,0.27
			c0.05,0.34,0.22,1.39,0.23,2.53l0.02,5.76c0.01,2.28-0.8,3.68-3.2,3.69c-2.17,0.01-3.34-1.61-3.35-3.66l-0.02-6.44
			c0-0.46,0.12-1.61,0.18-1.86l1.51-0.14l-0.11-1.86c0,0-1.97,0.13-4.56,0.14c-1.07,0.01-2.28-0.1-2.28-0.1l-0.11,1.71l1.49,0.27
			C174.58,249.3,174.72,250.38,174.73,251.52z"/>
		<path class="st15" d="M196.94,258.4l-0.08-1.97c0.38,0.03,0.75,0.03,1,0.02l0.35-0.02l2.04,3.57c0.33,0.53,1.24,2.58,1.24,2.58
			c2.57-0.11,4.35-0.08,4.35-0.08l0.03-1.74l-1.09-0.04l-0.85-1.24c-0.13-0.17-1.47-1.98-2.63-4.05c1.6-0.94,2.66-2.52,2.58-4.45
			c-0.13-3-2.37-4.7-5.54-4.55c-1.22,0.05-3.38,0.38-4.67,0.44c-1.14,0.05-2.35-0.01-2.35-0.01l-0.03,1.72l1.49,0.2
			c0.06,0.42,0.27,1.4,0.31,2.51l0.37,7.94c0.02,0.45-0.1,1.73-0.12,1.97l-1.48,0.34l0.18,1.58c0,0,1.2-0.16,2.26-0.21
			c2.57-0.12,4.42-0.09,4.42-0.09l0.03-1.73l-1.47-0.07C197.22,260.71,197,259.53,196.94,258.4z M196.58,250.46
			c-0.02-0.31,0.01-1.37,0.04-2.05c0.2-0.03,0.37-0.03,0.47-0.05c2.04-0.09,3.02,0.84,3.11,2.84c0.1,2.09-0.73,3.25-2.89,3.34
			l-0.55,0.03L196.58,250.46z"/>
		<path class="st15" d="M121.73,278.86c-0.53,6.4,2.58,11.06,9.39,11.62c2.5,0.21,4.74-0.14,6.7-0.45l0.17-5.07l-2.21-0.12
			c0,0-0.13,1.05-0.18,1.36c-0.02,0.25-0.53,1.21-0.59,1.41c-1.36,0.19-2.43,0.25-3.69,0.14c-3.61-0.3-4.67-3.99-4.31-8.48
			c0.36-4.5,2.04-7.95,5.65-7.65c1.16,0.1,2.07,0.31,3.26,0.68c0.12,0.39,0.26,1.05,0.25,1.24l-0.05,1.79l2.25,0.31l0.8-5.24
			c-1.87-0.62-3.75-1.3-6.27-1.51C126.08,268.33,122.24,272.46,121.73,278.86z"/>
		<path class="st15" d="M156.72,287.42c-0.15-0.24-1.68-2.7-2.95-5.49c2.15-1.05,3.68-2.95,3.78-5.46c0.14-3.88-2.57-6.29-6.65-6.44
			c-1.6-0.06-4.39,0.13-6.06,0.08c-1.47-0.06-3.02-0.25-3.02-0.25l-0.23,2.19l1.9,0.42c0.04,0.57,0.2,1.84,0.14,3.27l-0.36,10.26
			c-0.02,0.58-0.31,2.22-0.36,2.51l-1.95,0.29l0.08,2.06c0,0,1.55-0.1,2.93-0.05c3.32,0.12,5.7,0.36,5.7,0.36l0.23-2.23l-1.92-0.25
			c-0.04-0.41-0.19-1.95-0.14-3.41l0.09-2.56c0.5,0.07,0.98,0.12,1.29,0.13l0.45,0.01l2.27,4.82c0.36,0.72,1.32,3.46,1.32,3.46
			c3.32,0.12,5.61,0.35,5.61,0.35l0.23-2.23l-1.41-0.17L156.72,287.42z M148.73,280.37l-0.71-0.02l0.18-5.32
			c0.02-0.41,0.15-1.76,0.28-2.64c0.26-0.02,0.47-0.01,0.61-0.01c2.65,0.1,3.81,1.4,3.72,3.99
			C152.72,279.08,151.52,280.47,148.73,280.37z"/>
		<path class="st15" d="M174.11,287.31c-0.09,0.3-0.26,0.74-0.55,1.27c-0.6,0.12-1.43,0.23-2.28,0.23h-3.68
			c-0.03-0.58-0.1-2-0.1-3.12v-3.61c0.21-0.03,0.83-0.03,0.92-0.03h0.92c0.58,0,1.89,0.18,1.89,0.18l0.27,1.77l1.89-0.17
			c0,0-0.09-2.27-0.09-3.75c0-0.58,0.03-2.45,0.03-2.45l-1.84-0.15l-0.27,1.89c0,0-0.72,0.27-1.3,0.27h-1.64
			c-0.16,0-0.48,0-0.78-0.03v-4.22c0-0.48,0.1-1.86,0.13-2.4h3.24c0.89,0,1.74,0.06,2.34,0.13c0.15,0.23,0.26,0.58,0.28,0.7
			c0.12,0.44,0.21,1.27,0.27,1.74l2.13-0.14l-0.21-4.61l-0.55-0.54c0,0-2.79,0.3-3.37,0.3h-7.92c-1.06,0-2.96-0.14-2.96-0.14
			l-0.14,2.21l1.92,0.35c0.14,0.63,0.26,1.8,0.26,3.28v10.3c0,0.6-0.17,2.25-0.26,2.54l-1.95,0.37l0.15,2.06
			c0,0,1.57-0.12,2.98-0.15h8.33c0.58,0,3.37,0.11,3.37,0.11l0.55-0.53l0.45-5.2l-2.07-0.15
			C174.41,286.11,174.23,286.87,174.11,287.31z"/>
		<path class="st15" d="M195.36,287.03l-6.49-17.07l-3.29,0.44l-4.98,16.18l-1.15,2.58l-1.3,0.26l0.22,2.14c0,0,1.59-0.21,4.08-0.3
			c1.38-0.05,3.12,0.04,3.12,0.04l0.07-2.06l-1.71-0.28l0.13-1.12l0.43-1.9l5.55-0.2l0.47,1.46l0.2,1.51l-1.72,0.33l0.22,2.14
			c0,0,2.5-0.22,5.99-0.35c1.03-0.04,2.48,0.06,2.48,0.06l0.07-2.07l-1.66-0.21L195.36,287.03z M185.2,283.48l1.87-7.04l2.12,6.84
			L185.2,283.48z"/>
		<path class="st15" d="M226.32,286.24h-1.99c-0.16-0.52-0.44-1.29-0.53-1.67l-2.12-12.75c-0.04-0.39-0.07-1.18-0.07-1.72l1.85-0.49
			l-0.32-2.11c0,0-2.33,0.37-3.87,0.51l-2.85,0.25l-0.53,0.65c0,0-0.67,3.41-0.84,4.1l-2.4,9.94l-3.87-8.93
			c-0.45-1.05-1.67-4.31-1.67-4.31l-0.64-0.54l-4.14,0.38c-1.26,0.12-3.13,0.13-3.13,0.13l0.06,2.13l2.01,0.17
			c0.13,0.52,0.29,1.31,0.32,1.66l0.36,12.91c-0.05,0.39-0.15,1.2-0.25,1.75l-1.96,0.53l0.32,1.95c0,0,1.72-0.3,2.96-0.42
			c3.18-0.29,4.54-0.26,4.54-0.26l-0.01-2.16h-2.02c-0.12-0.67-0.3-1.93-0.36-2.58l-0.4-10.51l6.66,14.74l2.7-0.25l4-15.71
			l1.43,10.42c0.07,0.65,0.13,1.92,0.13,2.6l-1.94,0.53l0.33,1.96c0,0,1.78-0.31,3-0.43c3.18-0.29,5.31-0.34,5.31-0.34
			L226.32,286.24z"/>
	</g>
	<g class="st3">
		<path class="st4" d="M299.68,102.75c-9.35,2.57-18.19,6.11-27.81,7.6c-16.86,2.61-32.78,4.03-49.72,4.24
			c-0.92-0.03-1.75-0.02-2.35,0.1c-0.53,0-1,0.06-1.54,0.06h1.35c-5.84,1.41,4.71,9.83,8.33,14.71
			c6.19,8.33,12.02,16.47,16.28,26.02c3.22,7.25,5.1,14.55,6.77,22.3c2,9.3,5.2,7.44,14.31,6.57c13.56-1.29,31.17-2.97,43.67-8.57
			c7.4-3.32,6.63-10.75,7.51-18.25c0.88-7.4,2.78-14.81,3.31-22.24c0.53-7.55-0.08-14.77,1.65-22.24c1.6-6.92,5.01-13.73,5.17-20.91
			C318.97,98.34,308.94,100.2,299.68,102.75z"/>
	</g>
	<g class="st3">
		<path class="st4" d="M327.14,92.02c-13.84,4.7-27.63,10.94-41.87,14.99c-11.32,3.21-28.11,3.29-37.36,7.74v1.71
			c6.84,17.6,18.96,32.49,22.69,51.32c1.35,6.81-1.89,18,5.82,19.02c7.28,0.96,17.72-4.16,24.53-6.48
			c9.91-3.38,13.94-5.43,16.51-15.52c2.11-8.26,2.86-16.02,4.17-24.4c1.3-8.29,1.91-16.5,2.96-24.8
			C325.5,108.33,330.06,99.26,327.14,92.02z"/>
	</g>
	<g class="st9">
		<path class="st16" d="M304.13,185.78c-7.55,2.13-16.12,2.62-23.39,5.15l-1.13,1.71c0,19.14,0.59,38.16,0.57,57.31
			c-0.01,9.68,1.17,19.37,0.6,29.08c-0.67,11.35-4.36,19.12-8.54,29.25c5.22,0.92,17.51-3.1,22.77-4.84
			c8.77-2.92,7.9-9.41,8.57-17.85c1.19-15.17,3.59-30.19,5.04-45.33c1.49-15.37,4.26-30.53,5.77-45.91
			C315.4,184.21,314.28,182.92,304.13,185.78z"/>
	</g>
	<g class="st14">
		<g class="st17">
			<path class="st4" d="M296.37,308.17c-8.5,3.23-17.59,5.04-26.51,6.73c-7.5,1.42-16.54,1.79-23.66,4l-0.58-1.14
				c-6.25,14.45-20.45,28.04-36.51,32.65c5.8-0.06,11.83,0.29,16.56-0.13c10.21-0.9,20.38-2.5,30.51-4.08
				c9.54-1.47,23.3-3.84,30.76-10.44C292.39,330.99,299.66,315.21,296.37,308.17z"/>
		</g>
		<g class="st17">
			<path class="st4" d="M209.11,350.41c-4.76,0.05-9.38,0.37-12.91,1.75C200.58,352.36,204.89,351.62,209.11,350.41z"/>
		</g>
	</g>
	<g class="st3">
		<path class="st4" d="M296.38,308.07c-10.35,1.12-20.41,6.37-30.8,7.41c-2.5,14.27-11.52,25.87-23.77,33.05
			c12.04-3.22,25.61-2.86,37.18-7.64C288.2,337.07,301.36,318.72,296.38,308.07z"/>
	</g>
	<g class="st9">
		<path class="st10" d="M73.7,185.39c4.8,0.52,15.62,2.96,18.15-0.42c1.52-2.05,0.6-7.98,1.02-10.63c0.58-3.82,1.82-7.4,2.81-11.12
			c2.19-8.24,4.68-16.41,7.4-24.52c1.45-4.33,2.99-8.73,4.89-12.87c1.84-4.02,5.86-8.06,6.52-12.33
			c-5.81-2.04-15.08,0.73-21.67-0.31c-8.3-1.31-16.51-3.12-24.8-4.41c-8.28-1.29-15.95-0.66-24-3.47
			c-8.26-2.89-17.99-6.28-25.33-11.07l-1.71-1.14c0.03,13.94,2.77,27.53,4.05,41.35c0.67,7.11,1.74,14.38,3.21,21.38
			c1.26,5.94,1.06,16.33,5.94,20c4.94,3.71,15.32,4.92,21.3,5.97C58.85,183.08,66.18,184.58,73.7,185.39z"/>
		<path class="st10" d="M77.4,306.37c3.5,0.17,14.34,2.45,17.08,0.48c4.87-3.51-1.06-22.72-2.12-28.46
			c-3.91-21.21-3.21-42.49-4.66-63.84c-0.26-3.89,1.03-14.71-1.14-17.37c-2.43-2.97-13.01-2.43-16.56-3.13
			c-10.76-2.11-26.82-3.16-35.92-9.16l-2.29,1.71c-0.47,20.52,5.57,41.74,7.54,62.15c1.05,10.88,2.78,22.36,4.84,33.08
			c0.67,3.48,1.24,11.38,3.07,14.2c2.41,3.71,10.84,5.56,14.79,6.9C67.21,304.7,71.91,306.11,77.4,306.37z"/>
		<path class="st10" d="M111.61,334.3c-6.36-4.91-11.25-15.51-18.19-18.18c-6.32-2.44-15.44-2.71-22.28-3.48
			c-7.06-0.8-15.21-1.5-21.68-4.59l-1.13-3.99c0.02,8.57,0.08,18.38,3.95,26.26c4.73,9.67,15.92,11.31,25.42,13.45
			c9.26,2.09,17.93,3.62,27.42,4.16c7.56,0.43,20.74,3.96,27.42-0.07C125.01,343.96,118.47,339.58,111.61,334.3z"/>
	</g>
	<g class="st13">
		<path class="st10" d="M67.71,183.77c5.76,0.54,5.71,0.63,6.85-4.31c1.85-8.06,1.48-17.34,3.07-25.64
			c1.55-8.06,1.99-17.08,4.87-24.79c3.65-9.87,10.95-16.58-3.94-18.29c-9.78-1.13-19.31-3.43-29.09-5.09
			c-9.52-1.62-20.29-4.39-28.51-9.71H18.1c0,16.75,1.75,33.84,5.54,50.18c1.87,8.01,2.64,19.46,7.52,26.28
			c4.88,6.85,16.18,6.55,23.71,8.74C59.02,182.34,63.42,183.37,67.71,183.77z"/>
		<path class="st10" d="M67.63,293.34c6.82-3.56,3.57-16.33,3.07-22.34c-1.32-16.23-1.73-32.16-1.85-48.47
			c-0.06-8.26,1.84-20.18-6.83-23.41c-8.36-3.11-17.48-4.58-26.25-6.25v-1.14c-2.75,14.81,2.87,33.77,4.49,48.76
			c0.84,7.71,1.93,15.38,2.78,23.09c0.77,6.94,0.49,16.84,3.78,23.14C49.74,292.3,61.59,296.48,67.63,293.34z"/>
		<path class="st10" d="M77.69,320.34c-2.8-6.63-4.38-6.79-11.41-7.77c-5.18-0.72-10.07-1.56-15.11-2.78l-0.58,0.57
			c1.73,12.93,2.4,24.52,16.25,29.91c7.35,2.86,27.09,9.21,34.32,5.92C93.03,337.19,82.81,332.43,77.69,320.34z"/>
	</g>
</g>
<g>
	<path class="st18" d="M422.73,216.04c1,4.2-1.72,9.51-9.15,11.33c2.08-2.59,3.2-4.35,3.2-4.35c-13.54-19.32-64.8,7.67-68.24,7.67
		c-3.46,0-6.98-7.67-6.98-7.67s42.29-25.67,76.77-12.17C420.74,211.82,422.29,213.77,422.73,216.04z"/>
	<path class="st19" d="M422.78,216.04h-0.04c-0.45-2.27-2-4.23-4.4-5.18c-34.47-13.5-76.77,12.17-76.77,12.17
		c-1.15-2.1-2.31-4.07-3.54-6.13c-9.92-16.45-22.61-30.72-31.27-39.68c-6.07-6.22-10.19-9.89-10.19-9.89
		c61.78-35.27,98.49-21.8,113.3-6.92c0,0,2.36,2.48,5.24,12c0,0,0,0,0,0.04C417.66,180.7,420.61,194.28,422.78,216.04z"/>
	<path class="st18" d="M413.14,143.8c4.69,8.03,4.29,18.41,1.97,28.6c-2.89-9.51-5.24-12-5.24-12
		c-14.82-14.88-51.53-28.34-113.3,6.92c-2.23,1.27-4.48,2.63-6.79,4.03c0,0-2.36-0.04-10.97-5.83c4.39-0.72,37.34-32.95,91.5-35.9
		C395.1,128.26,407.64,134.37,413.14,143.8z"/>
	<path class="st19" d="M413.59,227.38c3.44,22.02,3.27,48.62-3.27,67.98c7.03-32.78-42.78,14.39-31.13,19.53l-0.68,1.89
		c-8.94-3.57-17.73-12.19-23.59-23.14c-9.51-17.87-22.42-37.68-37.47-47.45c-3.44-2.27-7.03-3.99-10.7-5.1c0,0,0.6-5.28,17.05-16.5
		c5.58,7.9,17.9,24.03,31.87,33.18c19.02,12.42,39.55-2.23,54.65-26.64C411.55,229.78,412.67,228.51,413.59,227.38z"/>
	<path class="st19" d="M416.79,223.03c0,0-1.13,1.76-3.2,4.35c-0.91,1.13-2.04,2.4-3.27,3.76c-6.71,7.16-17.94,16.27-31.13,14.9
		c-21.31-2.17-30.63-15.35-30.63-15.35C352,230.69,403.25,203.71,416.79,223.03z"/>
	<path class="st19" d="M413.76,143.48l-0.62,0.32c-5.5-9.43-18.04-15.54-42.84-14.18c-54.16,2.95-87.1,35.18-91.5,35.9
		c-3.89,0.61-13.5-13.65-43.59-30.6C280.35,66.95,330.79,63,330.79,63s13.31,5.07,30,16.94
		C378.68,92.68,400.49,113.17,413.76,143.48z"/>
	<path class="st20" d="M379.19,314.89c-11.65-5.14,38.15-52.31,31.13-19.53c-1.8,5.48-4.16,10.36-7.07,14.39
		c-6.56,9.17-15.73,10.62-24.73,7.03L379.19,314.89z"/>
	<path class="st21" d="M379.19,246.04c13.19,1.36,24.42-7.75,31.13-14.9c-15.1,24.42-35.63,39.07-54.65,26.64
		c-13.97-9.15-26.28-25.28-31.87-33.18c-2-2.84-3.12-4.65-3.12-4.65l-0.06-0.55c5.71-0.51,11.53-1.4,17.41-2.5
		c1.23,2.06,2.4,4.03,3.54,6.13c0,0,3.53,7.67,6.98,7.67C348.56,230.69,357.88,243.88,379.19,246.04z"/>
	<path class="st18" d="M357.16,49.69c3.17,10.44,3.9,22.14,3.63,30.25c-16.69-11.87-30-16.94-30-16.94s-50.44,3.95-95.58,71.93
		c-2,3.04-4.03,6.2-5.99,9.51c2.67-9.11,3.17-38.83,37.83-70.7C305.82,38.12,338.11,32.17,357.16,49.69z"/>
	<path class="st19" d="M351.27,36.63c2.53,3.8,4.44,8.28,5.88,13.06c-19.04-17.51-51.34-11.57-90.1,24.05
		c-34.67,31.87-35.16,61.59-37.83,70.7c-0.6,0.91-1.14,1.83-1.68,2.76c-5.39,2.27-13.86-8.6-19.08-25.14
		c-4.03-12.65-6.16-28.55-3.61-44.41c3.88-24.4,21.1-51.08,41.5-65.94c10.19-7.45,21.17-11.93,31.67-11.7
		C309.52,0.73,341.02,21.26,351.27,36.63z"/>
	<path class="st18" d="M320.68,219.95c0,0,1.13,1.8,3.12,4.65c-16.45,11.21-17.05,16.5-17.05,16.5c3.67,1.1,7.26,2.83,10.7,5.1
		c-7.83,1.61-12.87,1.4-15.73,0c0,0-0.77-0.7-2.21-1.87c0-0.04,0-0.04-0.04-0.04c-3.63-5.63,5.97-17.73,16.58-24.52
		c1.55-0.08,3.03-0.19,4.57-0.36L320.68,219.95z"/>
	<path class="st22" d="M320.68,219.95l-0.06-0.55c-1.53,0.17-3.02,0.28-4.57,0.36c-4.01,2.57-7.88,5.9-10.93,9.34
		c3.84-0.13,7.73,0.08,11.27,0.97c2.02-1.63,4.46-3.46,7.41-5.48C321.81,221.75,320.68,219.95,320.68,219.95z"/>
	<path class="st19" d="M255.96,194.11c14.29,21.48,35.81,27.09,60.1,25.64c-10.62,6.8-20.21,18.9-16.58,24.52
		c-7.49-6.27-32.63-26.28-57.98-37.26C245.53,202.8,250.39,198.27,255.96,194.11z"/>
	<path class="st23" d="M251.96,209.51c16.75,9.79,35.22,16.26,53.9,18.79c2.93-3.17,6.5-6.18,10.19-8.53
		c-24.29,1.44-45.81-4.16-60.1-25.64c-5.57,4.16-10.43,8.68-14.46,12.9c2.02,0.87,4.01,1.8,6.01,2.78
		C248.97,209.01,250.14,208.59,251.96,209.51z"/>
	<path class="st24" d="M306.76,177.21c-19.98-1.63-37.43,6.73-50.8,16.9c-5.57,4.16-10.43,8.68-14.46,12.9
		c-7.96,8.3-12.87,15.5-13.95,17.13c-1.08,1.63-3.23-1.36-6.11-7.26c5.39-0.26,17.22-30.21,68.34-45.54
		c2.31-1.4,4.57-2.76,6.79-4.03C296.57,167.32,300.69,170.99,306.76,177.21z"/>
	<path class="st25" d="M306.76,177.21c-6.07-6.22-10.19-9.89-10.19-9.89c-2.23,1.27-4.48,2.63-6.79,4.03
		c-6.43,1.93-12.25,4.1-17.49,6.39c1.57,1.38,2.97,2.87,4.22,4.44C285.66,178.42,295.83,176.3,306.76,177.21z"/>
	<path class="st26" d="M278.8,165.52c8.62,5.8,10.97,5.83,10.97,5.83c-51.12,15.33-62.95,45.28-68.34,45.54
		c-2.27-4.48-4.94-10.68-8.07-17.85c-3.99-9.43-8.62-20.47-13.65-31.72c-0.44-1-0.91-2-1.36-2.95
		c-13.87-29.09-33.12-43.37-56.51-60.23v-0.04c2.8,0.27,5.71,0.59,8.79,1c2.04,4.9,26.83,4.9,57.83,16.96
		c5.22,16.54,13.69,27.41,19.08,25.14c0.72-0.32,1.24-1.27,1.68-2.76c1.95-3.31,3.99-6.47,5.99-9.51
		C265.3,151.87,274.91,166.13,278.8,165.52z"/>
	<path class="st27" d="M193.3,132.8c-1.38,0.13-1.27,3.7,0.87,2.93C195.45,135.27,195.13,132.63,193.3,132.8z"/>
	<path class="st27" d="M247.7,164.58c-0.59-0.85-2.87,0.53-1.55,1.63C246.91,166.87,248.48,165.69,247.7,164.58z"/>
	<g>
		<path class="st28" d="M150.63,105.1c-3.08-0.4-5.99-0.72-8.79-1v0.04c3.63,2.61,7.15,5.16,10.55,7.71
			c21.49,5.12,42.44,11.67,61.01,22.46c-1.8-3.57-3.5-7.69-4.94-12.25C177.47,110,152.67,110,150.63,105.1z"/>
		<path class="st28" d="M278.8,165.52c-3.89,0.61-13.5-13.65-43.59-30.6c-2,3.04-4.03,6.2-5.99,9.51c-0.44,1.49-0.96,2.44-1.68,2.76
			c-1.12,0.47-2.37,0.36-3.71-0.23c3.31,2.95,7.34,4.99,11.8,3.5c1.44-0.72,2.48-2.3,3.33-3.95c9.15,5.16,16.56,12.72,23.06,20.28
			c3.57,3.59,7.03,7.22,10.4,10.89c5.22-2.27,10.97-4.41,17.34-6.33C289.77,171.35,287.42,171.31,278.8,165.52z"/>
	</g>
	<path class="st19" d="M171.12,11.71c42.57-15.05,75.24,0,75.24,0c-20.4,14.86-37.62,41.54-41.5,65.94
		c-2.55,15.86-0.43,31.76,3.61,44.41c-31-12.06-55.79-12.06-57.83-16.96c-18.26-43.41-4.4-71.97,8.9-85.24
		C163.84,15.51,168.09,12.79,171.12,11.71z"/>
	<path class="st23" d="M204.86,77.65c3.88-24.4,21.1-51.08,41.5-65.94c0,0-1.96-0.9-5.46-2.02c-53.44,32.73-49.21,92.18-43.5,108.44
		c3.59,1.15,7.28,2.44,11.06,3.93C204.43,109.4,202.31,93.5,204.86,77.65z"/>
	<path class="st29" d="M202.16,172.54c5.03,11.25,9.66,22.31,13.65,31.74c-23.16,10.87-59.95,1.95-75.56-26.6h-0.04
		c-2.04-3.71-3.72-7.75-4.93-12.14c20.02,9.32,44.41,11.68,65.47,4.08h0.04C201.27,170.57,201.71,171.57,202.16,172.54z"/>
	<path class="st30" d="M215.81,204.28c-2.61-6.2-5.52-13.1-8.62-20.28c0.34,7.62,0.72,15.29,1.47,22.89
		C211.16,206.21,213.56,205.34,215.81,204.28z"/>
	<path class="st31" d="M199.72,167.32c5.03,11.25,9.66,22.29,13.65,31.72c-23.16,10.89-59.95,1.95-75.56-26.6h-0.04
		c-2.04-3.71-3.71-7.75-4.95-12.14c20.04,9.34,44.41,11.7,65.5,4.08h0.04C198.8,165.33,199.27,166.32,199.72,167.32z"/>
	<path class="st32" d="M199.72,167.32c-0.44-1-0.91-2-1.36-2.95h-0.04c-21.08,7.62-45.45,5.27-65.5-4.08
		c1.13,4.06,2.66,7.77,4.48,11.23c19.25,6.97,40.23,9.4,60.25,6.97c3.67,7.47,6.86,15.13,10,22.78c2-0.61,3.97-1.33,5.82-2.23
		C209.38,189.61,204.75,178.57,199.72,167.32z"/>
	<path class="st19" d="M55.42,51.26c57.15-40.29,104.11-31.4,104.11-31.4c-13.29,13.27-27.15,41.82-8.9,85.24
		c-3.08-0.4-5.99-0.72-8.79-1c-26.45-2.44-41.31,0.27-49.45,1.19c-3.35,0.4-5.52,0.49-6.92-0.19C55.57,90.11,50.9,68.39,52.66,57.56
		C53.17,54.34,54.25,52.07,55.42,51.26z"/>
	<path class="st23" d="M150.63,105.1c-18.26-43.41-4.4-71.97,8.9-85.24c0,0-1.59-0.3-4.52-0.53c-21.5,22.29-26.28,54.5-18.96,84.3
		c1.87,0.15,3.8,0.28,5.8,0.47C144.65,104.37,147.56,104.69,150.63,105.1z"/>
	<path class="st19" d="M104.9,150.83c-7.39-11.06-6.43-21.4-6.43-21.4h0.04c6.98,13.29,19.44,23.99,34.3,30.87
		c1.23,4.4,2.91,8.43,4.95,12.14C120,167.32,110.26,158.89,104.9,150.83z"/>
	<path class="st23" d="M104.9,150.83c-7.39-11.06-6.43-21.4-6.43-21.4h0.04c6.98,13.29,19.44,23.99,34.3,30.87
		c1.23,4.4,2.91,8.43,4.95,12.14C120,167.32,110.26,158.89,104.9,150.83z"/>
	<path class="st19" d="M98.52,129.43h-0.04c0,0-0.96,10.34,6.43,21.4c-61.99-4.31-59-13.74-59-13.74
		c-2.89-10.06-18.3-22.1-22.61-31.48c-1.15-2.5-1.59-4.86-1.63-6.98c-0.23-5.27,1.95-9.15,2.48-10.02h0.07
		c-1.42,3.31-1.06,6.47,0.49,9.51c3.67,7.34,11.7,20.76,24.16,23.94c12.46,3.17,46.41,0,46.41,0
		C96.12,124.58,97.2,127.07,98.52,129.43z"/>
	<path class="st23" d="M98.47,129.43h0.04c-1.32-2.36-2.4-4.84-3.25-7.37c0,0-3.29,0.3-8.2,0.64c2.7,7.37,7.32,13.65,13.29,18.85
		C98.02,134.61,98.47,129.43,98.47,129.43z"/>
	<path class="st29" d="M316.06,224.39c-24.29,1.44-48.36-6.84-62.63-28.32c13.35-10.15,33.35-15.86,53.33-14.24
		c8.66,8.98,21.33,18.77,33.71,39.21c-5.9,1.1-14.14,2.48-19.85,3C319.09,224.2,317.6,224.28,316.06,224.39z"/>
	<path class="st30" d="M253.43,196.07c2.19,3.31,4.6,6.3,7.24,9c1.47-5.73,3.37-11.29,5.67-16.52
		C261.6,190.65,257.23,193.18,253.43,196.07z"/>
	<path class="st30" d="M331.72,208.23c1.24,4.63,2.15,9.23,2.89,13.84c2.08-0.34,4.08-0.7,5.86-1.04
		C337.54,216.21,334.61,212.01,331.72,208.23z"/>
	<path class="st31" d="M316.06,219.76c-24.29,1.44-45.81-4.16-60.1-25.64c13.37-10.17,30.82-18.53,50.8-16.9
		c8.66,8.96,21.36,23.23,31.27,39.68c-5.88,1.1-11.7,2-17.41,2.5C319.09,219.57,317.6,219.67,316.06,219.76z"/>
	<path class="st30" d="M306.76,177.21c-19.98-1.63-37.43,6.73-50.8,16.9c1.91,2.84,3.95,5.43,6.09,7.75
		c9.93-10.38,25.37-15.14,39.02-18.2c13.12,9.15,23.52,21,32.59,34.01c1.44-0.26,2.91-0.51,4.37-0.79
		C328.11,200.44,315.42,186.17,306.76,177.21z"/>
	<path class="st21" d="M92.4,105.29c0,5.88,1,11.47,2.87,16.77c0,0-33.95,3.17-46.41,0c-12.46-3.18-20.49-16.6-24.16-23.94
		c-1.55-3.04-1.91-6.2-0.49-9.51c1.93-4.67,7.43-9.6,18.17-14.86c-0.38,5.67,1.8,11.74,5.75,17.81
		c8.07,12.42,20.25,14.54,37.34,13.54C86.88,105.77,89.05,105.69,92.4,105.29z"/>
	<path class="st33" d="M92.4,105.29c-3.35,0.4-5.52,0.49-6.92-0.19c-17.09,1-29.28-1.13-37.34-13.54
		c-3.95-6.07-6.13-12.14-5.75-17.81c-1.3,0.64-2.51,1.25-3.65,1.89c-1.49,11.29,0.47,22.61,10.97,29.61
		c11,6.11,22.02,7.45,34.18,7.52c1.08,3.37,2.34,6.67,3.74,9.89c4.59-0.32,7.64-0.6,7.64-0.6C93.4,116.75,92.4,111.17,92.4,105.29z"
		/>
	<path class="st19" d="M85.48,105.1c-17.09,1-29.28-1.13-37.34-13.54c-3.95-6.07-6.13-12.14-5.75-17.81
		c0.36-6.03,3.48-11.55,10.27-16.18C50.9,68.39,55.57,90.11,85.48,105.1z"/>
	<path class="st23" d="M85.48,105.1C55.57,90.11,50.9,68.39,52.66,57.56c-1.13,0.77-2.17,1.57-3.1,2.4
		c-2.55,16.54,4.67,32.25,16.14,44.03C71.38,105.37,77.94,105.54,85.48,105.1z"/>
	<path class="st19" d="M23.3,105.6c4.31,9.38,19.72,21.42,22.61,31.48c0,0-19.04-1.08-30,0c-7.16,0.72-16.86-9.1-16.14-17.4
		c0.77-8.28,21.84-21.06,21.84-21.06h0.04C21.71,100.74,22.15,103.1,23.3,105.6z"/>
	<path class="st23" d="M23.3,105.6c-1.15-2.5-1.59-4.86-1.63-6.98h-0.04c0,0-1.68,1.02-4.12,2.67c0.19,12.57,11.53,24.56,21.63,35.5
		c4.01,0.15,6.77,0.3,6.77,0.3C43.02,127.03,27.61,114.99,23.3,105.6z"/>
	<path class="st29" d="M200.42,168.91c0,0-32.08,12.61-67.6-3.87c-14.86-6.88-27.32-17.58-34.3-30.85c-1.32-2.36-2.4-4.86-3.25-7.39
		c-1.87-5.31-2.87-15.64-2.87-21.53c8.13-0.91,23,1.13,49.45,3.57v0.04C165.24,125.77,186.56,139.83,200.42,168.91z"/>
	<path class="st31" d="M132.82,160.29c-14.86-6.88-27.32-17.58-34.3-30.87c-1.32-2.36-2.4-4.84-3.25-7.37
		c-1.87-5.3-2.87-10.89-2.87-16.77c8.13-0.91,23-3.63,49.45-1.19v0.04c23.39,16.86,42.65,31.14,56.51,60.23h-0.04"/>
	<path class="st30" d="M190.38,166.75c2.7-0.66,5.35-1.44,7.94-2.38h0.04c-13.87-29.09-33.12-43.37-56.51-60.23v-0.04
		c-26.45-2.44-41.31,0.27-49.45,1.19c0,2.06,0.13,4.1,0.38,6.09C139.87,109.17,170.23,132.67,190.38,166.75z"/>
	<g>
		<defs>
			<path id="SVGID_1_" d="M98.52,129.43h-0.04c0,0-0.96,10.34,6.43,21.4c-61.99-4.31-59-13.74-59-13.74
				c-2.89-10.06-18.3-22.1-22.61-31.48c-1.15-2.5-1.59-4.86-1.63-6.98c-0.23-5.27,1.95-9.15,2.48-10.02h0.07
				c-1.42,3.31-1.06,6.47,0.49,9.51c3.67,7.34,11.7,20.76,24.16,23.94c12.46,3.17,46.41,0,46.41,0
				C96.12,124.58,97.2,127.07,98.52,129.43z"/>
		</defs>
		<clipPath id="SVGID_00000041998352513644678360000007283920432941565362_">
			<use xlink:href="#SVGID_1_"  style="overflow:visible;"/>
		</clipPath>
	</g>
</g>
</svg>
