<?xml version="1.0" encoding="utf-8"?>
<!-- Generator: Adobe Illustrator 25.4.1, SVG Export Plug-In . SVG Version: 6.00 Build 0)  -->
<svg version="1.1" id="Layer_1" xmlns="http://www.w3.org/2000/svg" xmlns:xlink="http://www.w3.org/1999/xlink" x="0px" y="0px"
	 viewBox="0 0 148.1 289.8" style="enable-background:new 0 0 148.1 289.8;" xml:space="preserve">
<style type="text/css">
	.st0{fill:#279245;}
	.st1{fill:#FFC92E;}
	.st2{fill:#6FC05E;}
	.st3{fill:#48B549;}
</style>
<g>
	<path class="st0" d="M3.06,208.7C-3.81,163.83,0.61,75,19.08,45.23C41.56,9,70.99,32.94,66.32,67.95
		c-5.68,42.58-3.78,86.85,8.2,131.73C87.66,248.95,12.33,264.65,3.06,208.7z"/>
	<path class="st1" d="M46.85,27.62c0,0-23.01-0.46-23.84-15.71c0,0,9.7-1.94,14.42,1.94c4.71,3.88,6.65,6.93,6.65,6.93
		s-4.44-7.49,6.1-19.41c0,0,8.87,10.81,1.66,21.62c0,0,10.81-7.76,19.68,0.83C71.53,23.84,65.4,33.39,46.85,27.62z"/>
	<path class="st2" d="M4.45,215.17c0,0,14.37,21.19,23.96,19.44c0,0-9.65-32.94-3.11-63.46c0,0,0.13,58.29,16.57,63.67
		c0,0,8.18-27.91,5.4-47.1c0,0,7.52,33.95,6.14,46.97c0,0,5.96,2.52,20.23-11.19c0,0-6.42,19.51-32.2,20.92
		C41.44,244.43,13.26,245.99,4.45,215.17z"/>
	<path class="st2" d="M22.25,126.69c0,3.53-1.56,6.38-3.49,6.38c-1.93,0-3.49-2.86-3.49-6.38c0-3.53,1.56-6.38,3.49-6.38
		C20.69,120.3,22.25,123.16,22.25,126.69z"/>
	<path class="st2" d="M43.18,145c0,3.53-1.56,6.38-3.49,6.38c-1.93,0-3.49-2.86-3.49-6.38c0-3.53,1.56-6.38,3.49-6.38
		C41.62,138.62,43.18,141.48,43.18,145z"/>
	<path class="st2" d="M18.33,171.79c0,3.53-1.56,6.39-3.49,6.39c-1.93,0-3.49-2.86-3.49-6.39c0-3.52,1.56-6.39,3.49-6.39
		C16.76,165.41,18.33,168.27,18.33,171.79z"/>
	<path class="st2" d="M41.51,192.29c0,3.53-1.56,6.38-3.49,6.38c-1.93,0-3.49-2.86-3.49-6.38c0-3.53,1.56-6.38,3.49-6.38
		C39.95,185.9,41.51,188.76,41.51,192.29z"/>
	<path class="st2" d="M63.67,174.65c0,3.53-1.56,6.38-3.49,6.38c-1.93,0-3.49-2.86-3.49-6.38c0-3.53,1.56-6.38,3.49-6.38
		C62.1,168.27,63.67,171.13,63.67,174.65z"/>
	<path class="st2" d="M54.25,115.81c0,3.53-1.56,6.38-3.49,6.38c-1.93,0-3.49-2.86-3.49-6.38c0-3.53,1.56-6.39,3.49-6.39
		C52.69,109.43,54.25,112.29,54.25,115.81z"/>
	<path class="st2" d="M26.5,89.46c0,3.53-1.56,6.39-3.49,6.39c-1.93,0-3.49-2.86-3.49-6.39c0-3.53,1.56-6.38,3.49-6.38
		C24.94,83.08,26.5,85.94,26.5,89.46z"/>
	<path class="st2" d="M53.54,66.78c0,3.53-1.56,6.39-3.49,6.39c-1.93,0-3.49-2.86-3.49-6.39c0-3.53,1.56-6.38,3.49-6.38
		C51.98,60.4,53.54,63.26,53.54,66.78z"/>
	<path class="st2" d="M36.2,44.11c0,3.53-1.56,6.38-3.49,6.38c-1.93,0-3.49-2.86-3.49-6.38c0-3.53,1.56-6.39,3.49-6.39
		C34.64,37.72,36.2,40.58,36.2,44.11z"/>
	<path class="st2" d="M70.64,214.18c0,3.53-1.56,6.38-3.49,6.38c-1.93,0-3.49-2.86-3.49-6.38c0-3.53,1.56-6.39,3.49-6.39
		C69.08,207.79,70.64,210.65,70.64,214.18z"/>
	<path class="st3" d="M145.54,260.05c5.76-37.61,2.06-112.08-13.43-137.03c-18.84-30.37-43.51-10.3-39.6,19.04
		c4.76,35.69,3.17,72.8-6.87,110.42C74.62,293.79,137.76,306.95,145.54,260.05z"/>
	<path class="st1" d="M108.83,108.27c0,0,19.29-0.39,19.98-13.17c0,0-8.13-1.63-12.08,1.63c-3.95,3.25-5.58,5.81-5.58,5.81
		s3.72-6.28-5.11-16.27c0,0-7.44,9.06-1.4,18.12c0,0-9.06-6.5-16.5,0.7C88.15,105.09,93.29,113.11,108.83,108.27z"/>
	<path class="st2" d="M144.37,265.48c0,0-12.04,17.76-20.08,16.3c0,0,8.09-27.61,2.6-53.2c0,0-0.1,48.86-13.89,53.37
		c0,0-6.85-23.4-4.52-39.48c0,0-6.31,28.46-5.15,39.37c0,0-5,2.11-16.96-9.38c0,0,5.38,16.35,26.99,17.54
		C113.37,290,136.99,291.31,144.37,265.48z"/>
	<path class="st2" d="M129.45,191.31c0,2.95,1.31,5.35,2.92,5.35c1.61,0,2.92-2.4,2.92-5.35c0-2.96-1.31-5.35-2.92-5.35
		C130.76,185.96,129.45,188.35,129.45,191.31z"/>
	<path class="st2" d="M111.91,206.66c0,2.95,1.31,5.35,2.92,5.35c1.61,0,2.93-2.4,2.93-5.35c0-2.96-1.31-5.35-2.93-5.35
		C113.22,201.31,111.91,203.71,111.91,206.66z"/>
	<path class="st2" d="M132.74,229.12c0,2.95,1.31,5.35,2.93,5.35c1.61,0,2.92-2.4,2.92-5.35c0-2.96-1.31-5.35-2.92-5.35
		C134.05,223.76,132.74,226.16,132.74,229.12z"/>
	<path class="st2" d="M113.31,246.3c0,2.96,1.31,5.35,2.93,5.35c1.61,0,2.92-2.4,2.92-5.35c0-2.95-1.31-5.35-2.92-5.35
		C114.61,240.94,113.31,243.34,113.31,246.3z"/>
	<path class="st2" d="M94.74,231.51c0,2.96,1.31,5.35,2.92,5.35c1.61,0,2.93-2.4,2.93-5.35c0-2.96-1.31-5.35-2.93-5.35
		C96.05,226.16,94.74,228.56,94.74,231.51z"/>
	<path class="st2" d="M102.63,182.19c0,2.96,1.31,5.35,2.92,5.35c1.61,0,2.93-2.4,2.93-5.35c0-2.96-1.31-5.35-2.93-5.35
		C103.94,176.84,102.63,179.24,102.63,182.19z"/>
	<path class="st2" d="M125.89,160.11c0,2.96,1.31,5.35,2.92,5.35c1.61,0,2.93-2.4,2.93-5.35c0-2.96-1.31-5.35-2.93-5.35
		C127.2,154.75,125.89,157.15,125.89,160.11z"/>
	<path class="st2" d="M103.23,141.1c0,2.95,1.31,5.35,2.93,5.35c1.61,0,2.92-2.4,2.92-5.35c0-2.96-1.31-5.35-2.92-5.35
		C104.54,135.75,103.23,138.14,103.23,141.1z"/>
	<path class="st2" d="M117.76,122.09c0,2.96,1.31,5.35,2.92,5.35s2.93-2.4,2.93-5.35c0-2.96-1.31-5.35-2.93-5.35
		S117.76,119.13,117.76,122.09z"/>
	<path class="st2" d="M88.89,264.65c0,2.96,1.31,5.35,2.92,5.35s2.93-2.4,2.93-5.35c0-2.96-1.31-5.35-2.93-5.35
		S88.89,261.69,88.89,264.65z"/>
</g>
</svg>
