<?xml version="1.0" encoding="utf-8"?>
<!-- Generator: Adobe Illustrator 25.4.1, SVG Export Plug-In . SVG Version: 6.00 Build 0)  -->
<svg version="1.1" id="Layer_1" xmlns="http://www.w3.org/2000/svg" xmlns:xlink="http://www.w3.org/1999/xlink" x="0px" y="0px"
	 viewBox="0 0 524.44 312.81" style="enable-background:new 0 0 524.44 312.81;" xml:space="preserve">
<style type="text/css">
	.st0{display:none;}
	.st1{display:inline;fill:#67C7C5;}
	.st2{display:inline;}
	.st3{fill:#4CB2AA;}
	.st4{display:inline;fill:#7FCED0;}
	.st5{display:inline;fill:#4CB2AA;}
	.st6{fill:#7FCED0;}
	.st7{display:inline;opacity:0.5;fill:#7FCED0;}
	.st8{display:inline;fill:#F5F3AE;}
	.st9{display:inline;fill:#E4E89E;}
	.st10{display:inline;fill:#C5C689;}
	.st11{display:inline;fill:#B52C42;}
	.st12{display:inline;fill:#E5354D;}
	.st13{display:inline;fill:#EF4663;}
	.st14{display:inline;opacity:0.6;fill:#D1CD94;}
	.st15{display:inline;fill:#D377A3;}
	.st16{display:inline;fill:#965189;}
	.st17{fill:#965189;}
	.st18{display:inline;fill:#D195B0;}
	.st19{display:inline;fill:#B3819B;}
	.st20{display:inline;fill:#59C3B9;}
	.st21{display:inline;opacity:0.2;fill:#FFFFFF;}
	.st22{display:inline;fill:#EF9D57;}
	.st23{fill:#FAB06C;}
	.st24{display:inline;fill:#E08E4C;}
	.st25{fill:#E08E4C;}
	.st26{display:inline;fill:#BF7942;}
	.st27{display:inline;fill:#FAB06C;}
	.st28{display:inline;fill:#CC8148;}
	.st29{display:inline;fill:#6E4134;}
	.st30{fill:#8E5541;}
	.st31{fill:#EF9D57;}
	.st32{fill:#B57340;}
	.st33{fill:#F37674;}
	.st34{fill:#F58F81;}
	.st35{fill:#EDD840;}
</style>
<g class="st0">
	<path class="st1" d="M441.92,298.55c4.24-8.36-0.9-12.94-1.11-19.56c-0.59-18.56,5.87-27.67-18.09-27.4
		c-29.86,0.33-72.01-61.64-96.66-19.05c-10.91,18.85,10.54,36.23,15.49,54.02c3.54,12.71,2.71,52.81,16.76,58.55
		c8.55,3.5,14.69-8.52,21.99-8.21c8.84,0.37,3.31,8.78,13.89,7.72c11.05-1.11,30.37-18.12,35.61-26.47
		c-1.08-0.59-2.17-1.47-3.21-2.12C428.95,307.52,438.17,305.94,441.92,298.55z"/>
	<g class="st2">
		<path class="st3" d="M367.36,324.34c-3.39-6.47-6.34-13.08-9.43-19.49c-7.4-15.34-15.83-30.57-24.82-44.71l-5.01,5.54
			c9.71,5.37,12.38,21.05,14.28,31.53c2.2,12.13,4.71,22.8,6.44,35.02c0.76,5.36,2.42,12.91,8.41,14.2
			c3.08,0.66,11.27-2.19,13.48-4.47C375.26,337.26,369.74,328.88,367.36,324.34z"/>
		<path class="st3" d="M405.78,329.16c-4.89-11.69-13.38-21.69-22.09-31.01c-8.45-9.04-16.66-18.26-24.77-27.48
			c-2.15-2.44-15.08-15.64-14.58-16.6l-4.3,7.12c3.21,3.84,7.94,6.72,10.68,12.19c3.47,6.91,7.57,13.48,11.43,20.18
			c6.73,11.68,12.38,22.95,16.72,35.53c1.86,5.4,4.13,12.65,8.15,16.81c3.62,3.75,10.22,0.32,14.21-2.16c2.08-1.29,4.75-2.91,6-5.01
			C409.26,335.34,407.13,332.39,405.78,329.16z"/>
		<path class="st3" d="M367.78,269.8c5.42,5.75,10.03,11.67,16.13,16.64c11.12,9.07,22.9,17.23,34.59,25.29
			c2.39,1.65,5.82,3.14,7.84,5.04c-0.36-2.79,2.09-5.03,0.74-7.02c-1.23-1.82-5.74-3.52-7.52-5c-6.72-5.59-13.18-11.72-20.33-17.08
			c-12.5-9.38-25.04-18.32-36.83-28.4c-1.91-1.63-10.26-7.76-10.62-9.28l0.39,5.61C357.38,260.49,362.77,264.49,367.78,269.8z"/>
		<path class="st3" d="M351.79,250l-0.01-0.13C351.77,249.9,351.77,249.95,351.79,250z"/>
		<path class="st3" d="M381.89,254.15c7.47,4.1,14.65,8.85,22.46,12.32c6.29,2.79,12.57,5.72,18.63,9.05
			c2.69,1.47,13.81,7.91,16.44,5.87c2.17-1.68-0.42-4.17-0.55-6.22c-0.17-2.58,1.47-4.34,1.23-6.91c-0.4-4.23-1.93-2.75-5.59-2.9
			c-4.15-0.16-8.58-1.72-12.61-2.78c-11.8-3.09-23.19-7.18-34.28-11.99c-2.64-1.15-18.93-8.02-18.4-10.9l-7.76,8.38
			C365.34,245.29,377.97,252,381.89,254.15z"/>
	</g>
	<path class="st4" d="M435.12,251.59c-3.78-3.09-9.11-4.57-13.67-6.25c-6.18-2.28-12.3-4.24-18.62-6.15
		c-7.37-2.23-14.71-4.46-22.05-6.75c-2.74-0.86-6.46-2.48-9.45-1.66c-4.16,1.14-3.46,7.21,0.78,6.66l0.99,1.43
		c0.92-0.58,10.37,5.4,12.57,6.24c5.62,2.16,11.09,4.79,16.84,6.65c8.4,2.72,16.93,5.84,25.42,7.95c2.93,0.73,8.42,2.67,10.84,0.47
		C441.86,257.36,437.5,253.53,435.12,251.59z"/>
	<path class="st4" d="M437.81,292.15c-5.13-2.81-10.32-5.69-15.6-8.27c-11.83-5.77-23.1-12.98-34.69-19.34
		c-6.75-3.7-13.35-7.63-20.13-11.35c-3.81-2.09-8.49-6.03-12.68-6.61c-0.18,0.19-0.22,0.43-0.39,0.62l3.7,3.51
		c8.75,10.24,21.71,16.33,32.65,24.14c10.67,7.62,21.03,16.13,32.11,22.96c3.58,2.21,6.38,5.63,9.82,7.46
		c3.28,1.75,7.04-1.34,8.98-3.95C445.05,296.68,441.85,294.37,437.81,292.15z"/>
	<path class="st1" d="M125.22-31.33c-0.27-7.2-6.83-14.97-8.85-21.7c-2.26-7.53-3.39-16.14-4.65-23.91
		c-2.58-15.93-1.13-31.44-1.32-47.18c-0.09-7.77,4.44-16.64-5.6-17.32c-8.09-0.55-17.53,9.27-24.31,10.78
		c-1.94-26.08-21.05-4.81-27.98,3.45c-3.09,3.68-3.02,9.46-8.17,10.73c-2.74,0.68-6.73-3.88-10.3-3.4
		c-7.3,0.99-13.02,9.13-16.26,15.06c-3.52,6.44-1.34,19.11-4.68,23.25C7.55-74.66-4.61-84.23-1.04-70.39
		c3.46,13.41,30.42,19.33,41.62,25.48c12.76,7,34.49,15.95,40.69,29.44l4.96,3.91C100.14-8.56,125.86-14.35,125.22-31.33z"/>
	<path class="st5" d="M40.97-44.9c10.76,5.9,27.9,13.2,36.73,23.43c7.88-2.4,13.51-10.83,21.26-13.51c-0.89-7.04-7.6-14.28-12-19.48
		c-4.92-5.82-9.35-11.88-13.25-18.79c-8.13-14.42-12.14-27.12-13.24-43.85c-0.25-3.78-1.13-10.03-3.85-13.87
		c-1.44,1.3-2.71,2.6-3.71,3.79c-2.77,3.31-3,8.29-6.74,10.2c0.06,0.19,0.11,0.37,0.16,0.55c2.34,8,3.02,16.02,5.82,23.94
		c3.11,8.81,7,16.24,11.6,24.42c3.59,6.37,7.94,12.31,10.91,19.02c5.02,11.35-10.3-0.58-13.11-4.22
		c-6.17-7.99-12.49-17.26-17.64-26.13c-4.33-7.46-8.33-16.92-14.93-22.43c-3.32-2.77-7.93-3.91-10.86-2.86
		c-1.13,2.11-1.66,4.88-1.98,7.79c0.16,0.4,0.34,0.82,0.56,1.25c3.35,6.76,11.21,11.78,15.5,18.1c3.07,4.52,10.37,18-0.46,12.77
		C25.86-67.61,17.1-76.95,17.1-76.95c-1.83-0.84-3.63-1.95-5.42-3C5.7-76.3-3.87-82.85-0.66-70.38C2.8-56.97,29.77-51.05,40.97-44.9
		z"/>
	<g class="st2">
		<path class="st6" d="M108.39-42.49c0.31-2.8-2.71-7.06-3.58-9.66c-2.74-8.2-4.89-16.4-7-24.72C95.26-86.9,91.67-95.8,87.8-105.02
			c-1.86-4.43-4.58-10.38-5.92-16.15l0.2,6.05c-0.45-1.7-0.43-3.89-0.25-6.27c-0.8-3.54-1.07-7.01-0.28-10.01l0.32,9.61
			c0.56-6.73,2.32-14.91-1.07-18.18c-5.36-5.17-13.71-3.95-15.91,3.57c-2.09,7.14,2.53,19.48,4.75,26.44
			c2.7,8.47,6.1,16.29,10,24.14c3.82,7.7,9.25,14.39,12.98,21.91c3.37,6.8,4.72,16.25,8.92,22.36
			C103.68-38.39,107.83-37.47,108.39-42.49z"/>
		<path class="st6" d="M81.87-121.17l-0.02-0.63c-0.01,0.14-0.02,0.27-0.03,0.41C81.84-121.32,81.86-121.24,81.87-121.17z"/>
	</g>
	<g class="st2">
		<path class="st6" d="M103.73-140.55c0.37,0.14,0.69,0.34,1.03,0.53c0.33-0.02,0.67-0.02,1.04,0.02L103.73-140.55z"/>
		<path class="st6" d="M113.84-69.69c-1.01-7.79-1.13-15-1.38-22.85c-0.27-8.77-0.52-17.65,0.48-26.23
			c0.61-5.24,2.98-18.26-3.02-21.23c-1.44-0.71-3.08-0.64-4.41,0.32c-0.27-0.09-0.52-0.21-0.76-0.35
			c-7.77,0.52-2.45,16.82-1.6,21.07c1.82,9.04,2.36,17.71,2.79,27c0.38,8.32,2.12,16.84,3.66,25.08c0.83,4.44,2.01,17.92,6.33,19.4
			C118.15-53.39,114.66-63.37,113.84-69.69z"/>
	</g>
	<path class="st1" d="M61.82,7.02c1.12,21.38,233.31,261.2,244.83,268.22c19.53,11.9,93.68-46.43,89.01-67.22
		c-5.16-22.97-221.49-258.96-243.92-267.73C129.31-68.47,60.48-18.59,61.82,7.02z"/>
	<path class="st5" d="M396.14,207.88c-0.63-2.8-4.4-8.77-10.56-17.09c-1.02,0.09,8.56,12.83-5.73,25.92
		c-28.91,26.47-51.14,47.14-66.53,38.5C298.22,246.73,74.07,21.04,75.04-18.43C67.01-9.31,61.92-0.27,62.29,6.88
		c1.12,21.38,233.31,261.2,244.83,268.22C326.65,287,400.81,228.67,396.14,207.88z"/>
	<path class="st7" d="M365.71,179.94c-6.44-9.97-196.66-228.72-217.18-228.38c-5.6,0.09-15.26,7.06-19.97,10.14
		c-5.45,3.57-29.72,18.54-28.87,25.59c3.22,26.88,227.84,252.17,236.78,249.83c13.14-3.45,27.03-17.26,30.26-19.52
		c2.5-1.75,9.29-11.66,11.22-13.98C383.31,197.2,369.7,186.12,365.71,179.94z"/>
	<path class="st4" d="M139.82-45.53c-1.25-0.93-19.12,7.86-19.3,12.5c-0.18,4.64,232.18,258.91,235.7,257.88
		c3.52-1.03,21.83-11.71,19.48-17.14C373.35,202.28,160.82-29.85,139.82-45.53z"/>
	<path class="st8" d="M155.54,3.14c-3.72,6.79-12.25,9.27-19.03,5.54c-6.79-3.72-9.27-12.25-5.54-19.03
		c3.72-6.79,12.25-9.27,19.03-5.54C156.78-12.17,159.26-3.65,155.54,3.14z"/>
	<path class="st9" d="M249.68,35.65c-3.72,6.79-11.76,8.26-18.55,4.54c-6.79-3.72-9.27-12.25-5.54-19.03
		c1.28-2.33,3.12-4.15,5.27-5.39L249.68,35.65z"/>
	<path class="st9" d="M216.82,95.4c-3.72,6.79-12.25,9.27-19.03,5.54c-6.79-3.72-9.27-12.25-5.54-19.03
		c3.72-6.79,12.25-9.27,19.03-5.54C218.06,80.09,220.54,88.62,216.82,95.4z"/>
	<path class="st9" d="M148.37,80.93c-3.72,6.79-12.25,9.27-19.03,5.54c-6.79-3.72-9.27-12.25-5.54-19.03
		c3.72-6.79,12.25-9.27,19.03-5.54C149.61,65.62,152.1,74.14,148.37,80.93z"/>
	<path class="st9" d="M265,184.03c-3.72,6.79-12.25,9.27-19.03,5.54c-6.79-3.72-9.27-12.25-5.54-19.03
		c3.72-6.79,12.25-9.27,19.03-5.54C266.24,168.72,268.73,177.24,265,184.03z"/>
	<path class="st9" d="M340.11,136.07c-3.72,6.79-11.96,8.89-18.75,5.16c-6.79-3.72-9.27-12.25-5.54-19.03
		c1.56-2.83,3.87-5.1,6.7-6.11C323.05,115.9,340.11,136.07,340.11,136.07z"/>
	<path class="st8" d="M342.78,218.72c-3.72,6.79-12.25,9.27-19.03,5.54c-6.79-3.72-9.27-12.25-5.54-19.03
		c3.72-6.79,12.25-9.27,19.03-5.54C344.02,203.42,346.51,211.94,342.78,218.72z"/>
	<path class="st10" d="M146.39,83.64c-0.03-0.06-0.06-0.12-0.09-0.17c-1.13-1.95-2.8-3.48-4.25-5.18c-1.64-1.92-3.23-3.94-4.97-5.79
		c-3.07-3.28-6.22-6.47-8.92-9.93c-1.73,1.2-3.21,2.8-4.29,4.77c-3.72,6.79-1.24,15.31,5.54,19.03
		C135.14,89.51,142.12,88.22,146.39,83.64z"/>
</g>
<g class="st0">
	<path class="st11" d="M194.55,91.14c-9.04-10.36-19.79-3.6-31.09-4.88c1.48-9.89-30.27-5.61-36.32-5.61
		c-5.53,0-11.85-1.08-17.26-0.02c-8.61,1.69-3.48,3.57-3.79,9.73c-8.14,3.65-17.51-1.57-25.44,4.6c-5.67,4.42-5.62,18.38,2.53,20.11
		l1.58,4.07c1.21,1.92,2.55,4.11,4.25,6.17c12.05,14.61,32.09,15,49.89,12.7c12.59-1.63,24.32-7.09,36.87-8.7
		c6.05-0.78,14.18-2.35,19.07-6.58C204.14,114.72,201.87,99.54,194.55,91.14z"/>
	<path class="st12" d="M40.5,306.45c19.16,44.52,179.63,36.17,185.95,1.49c7.12-39.04-49.06-144.84-97.23-140.47
		C86.58,171.34,26.51,273.95,40.5,306.45z"/>
	<path class="st12" d="M211.46,109.65c-1.33-8.82,0.48-12.84-23.36-9.92c7.27,3.37,14.76,8.08,4.42,15.18
		c-1.75,1.2-8.85,3.63-11.11,2.42c-4.94-2.65,0.65-3.24,0.92-6.45c0.84-9.98-14.93-6.72-22.93-6.33c-10.87,0.53-21.7-0.88-32.39,0.3
		c14.29,11.22-8.81,8.72-15.62,6.98c-11.19-2.87-22.67-1.35-33.26-4.01c-0.17,16.01,4.71,27.13,12.73,40.77
		c3.42,5.81,16.32,35.53,19.82,35.68l-5.35,3.71c5.61,9.92,16.17,12.25,28.07,12.63c7.43,0.24,16.58,0.47,23.39-3.35
		c6.51-3.65,7.98-10.08,11.07-16.38c6.57-13.43,15.04-25.31,24.38-36.43C199.41,135.91,213.33,122.02,211.46,109.65z"/>
	<path class="st11" d="M227.14,307.94c5.51-30.19-22.82-95.92-59.41-123.44c-3.12-2.35-4.7,0.01-2.05,5.14
		c4.78,9.23,8.22,19.52,12.6,28.99c9.23,19.98,17.02,40.1,23.29,60.7c9.11,29.96-20.46,34.13-43.52,35.24
		c-24.4,1.17-50.21,0.83-73.14-6.04c-3.76-1.13-32.12-8.39-45.7-16.91c-0.35,5.79,0.25,10.85,1.97,14.84
		C60.35,350.97,220.82,342.63,227.14,307.94z"/>
	<path class="st11" d="M132.91,114.06c-0.39-4.1-4.51-11.37-9.23-5.8c-0.85,1.01-1.13,2.47-1.12,3.73l-1.04,0.69
		c-1.43,1.94-0.58,5.85-0.69,8.36c-0.16,3.69-1,7.21-1.03,10.96c-0.08,7.92-0.62,15.76-0.69,23.73c-0.07,6.92-1.1,14.29,0,21.15
		c0.33,2.07,0.86,5.33,3.8,5.18c3.09-0.15,3.92-4.95,4.49-7.26c1.65-6.68,1.04-13.51,2.15-20.34c1.23-7.57,1.79-14.85,2.41-22.45
		C132.42,126.2,133.47,119.93,132.91,114.06z"/>
	<path class="st11" d="M204.34,98.53c-6.03,1.63-4.98,6.15-5.88,11.04c-0.98,5.39-4.06,11.63-6.82,16.58
		c-6.21,11.18-11.75,22.87-17.42,34.49c-2.59,5.31-4.82,10.7-7.41,15.88c-2.24,4.48-6.45,10.88,0.94,12.08l-2.76-2.07
		c-0.04-5.31,5.55-10.43,8.37-14.48c3.92-5.62,7.17-11.68,10.97-17.36c7.65-11.43,19.68-20.9,25.1-33.74
		C211.81,115.35,220.91,94.04,204.34,98.53z"/>
	<path class="st11" d="M192.62,109.22c-2.44-1.19-5.13,2.73-5.18,3.8l-1.73,0.69c-1.61,6.22-5.39,11.66-8.2,17.6
		c-3.37,7.14-6.12,14.56-9.49,21.73c-2.42,5.14-4.02,10.52-6.73,15.54c-1.43,2.65-7.9,10.3-5.26,12.8c4.61-3.2,7.34-11,9.93-15.91
		c3.06-5.8,5.65-11.7,8.62-17.6c5.43-10.82,10.77-22.28,16.91-32.53C192.52,113.64,195.03,110.39,192.62,109.22z"/>
	<path class="st11" d="M156.51,139.14c0.52-3.41,1.01-6.93,1.1-10.3c0.11-4.03-0.76-4.83-2.22-0.68c-2.78,7.9-4.69,18.45-6.27,26.96
		c-1.49,8.03-2.88,15.8-4.08,23.82l-0.37,0.99c0.21,1.11,2.34,1.99,3.46,1.22c1.25-0.86,1.89-3.79,2.41-5.9
		c1.34-5.44,1.97-11.46,2.83-17.1C154.36,151.82,155.53,145.55,156.51,139.14z"/>
	<path class="st13" d="M111.16,192.06c-3.2-0.34-4.67-1.35-7.94-0.09c-2.63,1.02-5.11,2.83-7.25,4.65
		c-5.64,4.79-9.62,11.14-13.2,17.52c-6.84,12.19-13.73,24.79-15.8,38.67c-0.95,6.35,0,13.61,4.05,18.9
		c3.98,5.2,11.69,4.97,17.68,5.24c7.38,0.34,11.68-1.01,16.16-7.24c4.43-6.15,7.47-13.55,9.82-20.72
		c3.84-11.74,4.82-23.4,5.45-35.56c0.24-4.62,0.19-9.54-1.3-13.54c-0.98-2.64-4.62-8.78-8.36-7.17L111.16,192.06z"/>
	<path class="st13" d="M111.78,169.28c-1.33-6.17-3.62-12.38-5.52-18.62c-2.4-7.84-3.89-15.94-5.79-23.91
		c-1.01-4.21-1.88-8.68-3.54-12.7c-1.56-3.8-2.44-3.92-6.13-4.48c-4.86-0.74-9.59-1.57-13.83-4.36c0.12,5.03-0.1,10.13,0.38,15.06
		c1.12,11.58,6.27,21.48,12,31.76c2.7,4.84,6.01,9.47,9.13,14.14c2.01,3.02,5.81,9.91,8.2,11.04l6.21,2.07
		c0.13,0.31,0.18,0.63,0.36,0.93C113.19,176.23,112.58,173,111.78,169.28z"/>
	<path class="st13" d="M180.79,116.56c-1.25-0.52-1.38-1.12-1.3-1.12l0.34-0.69c-3.69,1.84-5.71,12.73-7.33,16.57
		c-2.87,6.81-5.6,13.65-8.46,20.36c-2.2,5.17-4.73,9.75-7.25,14.83c-1.38,2.8-6.41,13.42-3.87,15.57
		c3.27-2.36,4.96-10.41,6.81-14.21c2.29-4.72,4.22-9.82,6.65-14.46c5.25-10.04,10.36-20.27,15.53-30.39
		c0.98-1.93,1.92-4.05,2.02-6.16C182.95,116.95,181.63,116.91,180.79,116.56z"/>
	<path class="st13" d="M152.14,105.52c-1.26-1.28-6.36-0.43-8.19-0.43c-2.85,0-5.91-0.62-7.17,1.8c-0.97,1.86-0.64,6.4-0.84,8.55
		c-0.62,6.39-1.36,12.78-1.99,19.25c-0.85,8.75-0.93,17.6-1.73,26.39c-0.2,2.24-2.62,19.94,1.39,18.89l3.45,1.38
		c1.06-0.39,1.44-1.52,2.15-3.03c2.35-5.04,2.28-11.91,3.11-17.6c1.39-9.58,3.2-19.58,4.33-29.32c0.81-6.94,2.25-11.77,4.56-18.39
		C151.79,111.31,153.72,107.11,152.14,105.52z"/>
	<path class="st14" d="M50.77,251.76l34.17-8.28l20.36,17.6l31.06-17.6l26.23,17.6c0,0,13.46-20.36,14.49-19.67
		c1.04,0.69,30.37,14.5,30.37,14.5l3.8-14.84l3.11,5.87l-1.38,20.71l-30.72-12.08l-19.33,20.71l-27.61-21.4l-34.17,17.6L82.17,252.8
		l-36.58,8.28L50.77,251.76z"/>
	<path class="st14" d="M68.71,218.98c0,0,37.27,8.28,63.5,8.28c26.23,0,64.88-10.35,64.88-10.35l2.07,3.11
		c0,0-33.48,10.35-66.61,10.35c-33.13,0-65.92-8.97-65.92-8.97L68.71,218.98z"/>
	<path class="st14" d="M41.8,274.54c0,0,64.19,16.91,92.84,15.53c28.64-1.38,89.04-15.88,89.04-15.88l0.69,3.45
		c0,0-44.52,14.15-89.04,15.88c-45.52,1.76-94.91-15.19-94.91-15.19L41.8,274.54z"/>
</g>
<g class="st0">
	<path class="st15" d="M292.37,237.85c14.76-7.05,29.03-16.9,42.32-27.79c5.36-4.39,33.18-26.23,39.25-12.91
		c1.3,2.85-1.95,5.48-1.6,8.21c0.59,4.67,0.39,2.97,3.92,6.6c6.25,6.43,10.52,9.35,14.21,17.4c1.58,3.44,3.69,6.85,3.75,10.71
		c0.05,3.05-2.89,6.3-2.98,8.53c-0.23,5.75,5.56,12.4,6.36,18.72c1.02,8.07-1.42,18.1-9.73,21.5c5.42,9.96-4.4,21.2-15.48,17.11
		c-4.52-1.67-9.22-5.97-13.92-8.21c-6.55-3.12-13.86-5.02-20.79-7.57c-12.23-4.5-29.29-8.07-39.82-15.62
		c-9.81-7.04-6.59-18.97-9.03-28.27L292.37,237.85z"/>
	<path class="st16" d="M320.43,275.84c-0.03-0.09-0.56-0.51-0.22-0.33c6.98,1.13,14.13,1.74,20.97,4.28
		c5.31,1.97,10.72,3.82,16,5.82c4.93,1.87,9.77,3.84,14.71,5.78c2.49,0.97,4.83,2.46,7.3,3.4c2.12,0.81,4.5,1.17,6.44,2.3
		c4.19,2.43-0.35,5.58-2.82,7.76c-3.26,2.88-7.47,4.01-12.01,2.86c-4.12-1.05-8.21-4.37-12.07-6.22c-3.76-1.8-7.56-3.85-11.38-5.67
		c-5.47-2.6-11.43-4.75-17.38-6.64c-2.49-0.79-6.46-1.39-8.44-3.01c-2.53-2.07-2.38-5.59-1.77-8.17L320.43,275.84z"/>
	<g class="st2">
		<path class="st17" d="M320.71,268.25l0.37,0.14C320.96,268.31,320.84,268.28,320.71,268.25z"/>
		<path class="st17" d="M396.24,272.69c-1.04-0.86-3.64-0.54-4.9-0.81c-2.06-0.45-4.11-1.15-6.15-1.62
			c-3.27-0.76-6.56-1.81-9.86-2.36c-9.16-1.53-18.71-1.32-27.94-2.06c-7.03-0.56-14.07-0.71-20.99-1.59
			c-2.66-0.34-5.36-0.86-8.01-0.96c-1.14-0.04-2.49-0.35-3.33,0.53c-1.01,1.06-0.46,3.09,1.4,2.83l3.98,1.49
			c-0.04-0.02-0.08-0.03-0.12-0.06c2.09-0.46,6.02,1.12,8.28,1.62c3.06,0.68,6.13,1.42,9.22,2.09c6.63,1.45,13,3.74,19.61,5.5
			c9.39,2.49,17.94,5.81,26.98,9.1c1.72,0.63,4,2.33,5.78,1.9c1.86-0.45,2.86-3.16,3.62-4.48
			C394.99,281.81,398.55,274.6,396.24,272.69z"/>
		<path class="st17" d="M320.71,268.25l-0.26-0.1C320.54,268.19,320.63,268.22,320.71,268.25z"/>
	</g>
	<path class="st16" d="M390.54,238.31c-2.84-0.16-5.64,0.48-8.46,0.48c-14.74-0.03-29.71,2.17-43.68,5.96
		c-5.57,1.51-11.38,3.08-16.81,5.09c-3.25,1.21-8.26,3.16-9.24,6.48c0.92,0.54,1.45,0.36,2-0.12l2.68,0.59
		c2.37-1.66,6.44-2.03,9.36-2.59c3.65-0.7,7.24-1.24,10.93-1.77c7.6-1.11,15.2-2.42,22.82-3.15c4.88-0.47,9.78-0.95,14.65-1.03
		c3.76-0.06,7.45,0.74,11.18,0.83c2.97,0.07,3.65-0.05,4.87-2.68c0.77-1.65,1.86-3.1,2.65-4.7
		C394.83,238.93,393.65,238.49,390.54,238.31z"/>
	
		<ellipse transform="matrix(0.3028 -0.9531 0.9531 0.3028 -67.08 427.6854)" class="st15" cx="258.78" cy="259.69" rx="64.25" ry="69.66"/>
	<path class="st16" d="M320.23,233.08c0.48,7.29-0.36,14.73-2.67,22.03c-10.74,33.82-49.18,51.79-85.84,40.14
		c-18.82-5.98-33.5-18.61-41.89-34.05c1.73,26.52,20.85,51.16,49.61,60.3c36.66,11.65,75.1-6.32,85.84-40.14
		C330.5,264.89,328.19,247.72,320.23,233.08z"/>
	<path class="st15" d="M199.29,277.82c0.04-5.69,15.99-43.92,6.84-36.45l-8.59-2.73c-16.45-6.36-37.36-35.75-56.48-30.63
		c-7.17,1.92-4.24,4.22-5.76,9.31c-0.85,2.85,0.2,2.2-1.55,4.81c-0.63,0.94-3.94,2-5.09,3.32c-4.52,5.23-8.51,28.77,2.06,30.93
		c-2.42,9.36-6.35,17.78-4.22,27.9c2.55,12.13,7.12,14.64,18.41,13.84c-0.42,9.04,6.21,26.01,18.84,22.58
		c4.26-1.16,8.79-6.29,12.4-8.57c7.07-4.48,13.69-9.04,21.17-13.12C207.63,293.41,199.17,294.37,199.29,277.82z"/>
	<path class="st18" d="M242.82,322.21c19.81,5.33,39.87,2.16,55.58-7.33c0.61-2.39,3.39-8.04,4.05-10.38
		c4.29-15.29,7.6-77.16-33.37-108.03c-14.19-2.6-28.26-0.97-40.53,4.12c0.43,0.53,0.84,1.04,1.24,1.49
		c5.01,5.68,8.45,12.47,10.78,19.38c1.74,5.16,2.15,10.58,3.5,15.78c2.06,7.96,2.89,16.26,3.8,24.33
		c1.54,13.72,1.69,28.42-0.38,41.85c-0.93,5.98-2.13,12.18-4.28,17.93C243.09,321.63,242.96,321.92,242.82,322.21z"/>
	<path class="st19" d="M242.59,322.93c19.81,5.33,39.87,2.16,55.58-7.33c0.61-2.39,3.39-8.04,4.05-10.38c1.4-5.01,2.7-15,2.38-27.27
		c-13.67,15.08-34.7,23.16-56.69,21.28c-0.19,1.65-0.4,3.29-0.65,4.91c-0.93,5.98-2.13,12.18-4.28,17.93
		C242.87,322.35,242.73,322.64,242.59,322.93z"/>
	<path class="st4" d="M266.3,208.59c-0.11,3.85-5.36,6.61-11.73,6.17c-6.37-0.44-11.44-3.91-11.32-7.76
		c0.11-3.85,5.36-6.61,11.73-6.17C261.34,201.27,266.41,204.74,266.3,208.59z"/>
	<path class="st4" d="M279.46,229.32c0.57,5.07-4.1,9.46-10.43,9.81c-6.33,0.35-11.93-3.47-12.5-8.54
		c-0.57-5.07,4.1-9.46,10.43-9.81C273.29,220.44,278.88,224.26,279.46,229.32z"/>
	<path class="st4" d="M291.48,290c0.56,4.92-4.13,9.19-10.46,9.54c-6.33,0.35-11.92-3.35-12.47-8.27
		c-0.56-4.92,4.13-9.19,10.46-9.54C285.34,281.38,290.93,285.09,291.48,290z"/>
	<path class="st4" d="M288.63,258.02c0.65,5.78-3.95,10.75-10.28,11.1c-6.33,0.35-11.99-4.05-12.65-9.83
		c-0.65-5.78,3.95-10.75,10.28-11.1C282.31,247.84,287.98,252.24,288.63,258.02z"/>
	<path class="st20" d="M287.79,311.81c0.7,3.25-3.8,6.63-10.04,7.53c-6.24,0.9-11.87-1-12.56-4.25c-0.7-3.25,3.8-6.63,10.04-7.53
		C281.47,306.65,287.09,308.56,287.79,311.81z"/>
	<path class="st16" d="M202.2,290.03c-1.31-5.21-8.66-2.35-12.82-1.36c-5.87,1.4-11.8,2.83-17.54,4.67
		c-4.27,1.37-9.12,3.26-12.97,5.44c-2.94,1.67-7.02,3.4-9.26,6.04c0.01-0.08,0.03-0.15,0.03-0.23l-3.15,2.7
		c-0.75,1.7,3.54,8.27,5.25,9.6c2.93,2.29,7.57,4.65,11.43,4.68c4.88,0.04,8.91-5.29,12.71-7.59c4.04-2.44,7.96-5.05,12.09-7.54
		c3.48-2.1,7.21-4.46,10.38-7c1.44-1.15,4.33-2.63,4.76-4.32C203.39,294,202.5,291.21,202.2,290.03z"/>
	<path class="st16" d="M197.11,276.05c-12.62-0.04-69.82,8.58-68.25,16.58c0.38,1.91,3.47,5.4,5.28,5.71
		c1.41,1.82,21.11-2.78,27.09-4.08c8.83-1.93,15.55-3.86,24.86-4.26c5.3-0.23,13.3,0.23,15.22-0.98
		C199.32,284.09,202.05,276.07,197.11,276.05z"/>
	<path class="st16" d="M123.6,246.37c-0.06,3.1,0.8,7.15,4.13,9.26c4,2.53,10.69,2.8,15.23,3.55c14.19,2.33,28.31,4.58,42.52,6.13
		c4.01,0.44,14.21,6.22,14.61,1.39c0.71-8.47-7.23-8.47-10.43-9.06c-10.08-1.85-20.34-3.25-30.2-6.21
		c-6.6-1.98-13.17-4.08-19.75-6.13c-3.78-1.17-12.59-4.38-16.09-2.3c-2.07,1.23-2.08,4.75-0.83,6.62c1.96,2.94,6.62,2.45,9.65,2.92
		L123.6,246.37z"/>
	<path class="st21" d="M258.97,211.97c-1.73-3.29-8.15-9.72-11.99-6.25l-0.81-1.05c-11.21-1.72-26,8.05-31.96,16.02
		c-4.27,5.71-7.29,12.09-7.95,19.15c-0.57,6.15,0.47,14.22,6.41,18.16c12.6,8.36,17.54-8.35,22.01-15.15
		c2.96-4.51,6.32-7.62,10.95-10.32c3.65-2.12,7.72-4.05,10.85-6.87C260.65,221.9,261.63,217.05,258.97,211.97z"/>
	<path class="st21" d="M183.82,243.01c-9.49-2.54-18.23-6.26-27.3-9.72c-7.92-3.02-16.89-6.23-25.14-7.47l0.44,0.41
		c-1.73,0.55-3.21,2.44-2.57,4.27c0.69,1.96,3.01,2.57,5.09,3.14c5.07,1.38,10.37,2.77,15.38,4.62c10.04,3.7,20.46,7.36,30.91,10.07
		c2.94,0.76,10.87,4.06,12.46,1.59C196.04,245.32,186.64,243.77,183.82,243.01z"/>
	<path class="st21" d="M171.9,227.32c-7.86-4.77-15.73-8.98-23.42-13.79c-1.47-0.92-3.07-2-4.55-2.77
		c-1.45-0.75-3.48-0.92-3.74-0.91l-0.08,0.24c-2.49,0.39-2.65,2.77-1.1,4.35c1.57,1.59,4.71,2.25,6.79,3.01
		c5.7,2.09,10.82,5.57,16.47,7.89c9.52,3.9,18.17,8.86,26.73,13.97c1.13,0.67,2.4,1.43,3.71,1.73
		C194.55,237.29,175.06,229.25,171.9,227.32z"/>
	<path class="st21" d="M192.56,269.64c-10.51-0.05-21.75-0.62-32.37-1.88c-7.81-0.92-15.69-1.65-23.62-1.43
		c-2.68,0.07-7.01,0.45-8.81,2.47c-0.81,0.91-1.1,8.67-0.13,9.44c1.84,1.46,5.93-0.66,7.8-1.1c5.95-1.41,11.41-1.36,17.46-1.72
		c8.7-0.52,17.42-2.07,26.04-2.57c4.37-0.25,8.78-0.46,13.13-0.79c0.99-0.07,5.66,0.17,6-0.73
		C198.83,269.31,193.58,269.65,192.56,269.64z"/>
	<path class="st21" d="M366.7,197c-1.53-1.38-4.35,0.43-5.59,1.1c-4.3,2.32-8.62,5.42-12.83,8.08c-5.29,3.34-10.52,6.91-15.85,10.29
		c-2.72,1.72-5.41,3.46-8,5.34c-2.21,1.6-4.33,4.11-6.59,5.37l0.18,0.32c-1.44,2.07,1.76,1.13,2.74,0.66
		c1.21-0.59,2.26-1.47,3.41-2.2c3.51-2.21,7.07-4.47,10.75-6.33c6.02-3.04,11.75-6.99,17.98-9.87c4.18-1.93,8.81-3.73,12.03-7.01
		C366.02,201.64,368.58,198.71,366.7,197z"/>
	<path class="st21" d="M376.76,216.74c-4.1-3.57-8.39-3.77-13.23-1.69c-6.88,2.95-14.32,5.48-21.31,8.49
		c-4.16,1.79-8.05,4.08-12.15,6c-2.47,1.16-7.42,2.27-8.51,4.89l-1.01,0.47c-0.4,3.7,4.05,1.75,6.25,0.86
		c3.46-1.39,7.32-2.51,11.03-3.11c6.09-1,11.91-2.89,17.84-4.52c5.37-1.48,11.14-1.87,16.52-3.26
		C376.87,223.66,381.75,221.09,376.76,216.74z"/>
	<path class="st21" d="M392.5,262.58c0.06-1.48-1.93-3.75-3.04-4.66c-3.65-3.01-8.14-2.11-12.39-2.47
		c-8.87-0.76-17.55,0.04-26.34,0.4c-4.14,0.17-8.27,0.57-12.4,0.62c-2.01,0.03-9.55-0.77-10.16,0.41l-1.09,0.71
		c-2.74,4.39,3.86,4.54,7.03,4.94c4.14,0.52,8.1,0.96,12.23,1.19c7.62,0.42,15.1-0.11,22.71-0.21c5.76-0.07,11.36,1.27,17.1,1.15
		C388.59,264.63,392.41,265.14,392.5,262.58z"/>
</g>
<g class="st0">
	<path class="st22" d="M364.07,37.3c-21.54-66.97-109.97-92.69-172.66-81.74c-33.57,5.86-67.93,10.31-101.02,16.9
		c-30.25,6.03-57.66,15.43-73.48,44.8c-21.37,39.69-32.68,127.4,30.09,135.48l210.26,17.8c-1.28,1.76-1.72,4.65-3,6.61
		c21.1-1.04,51.32-6.56,70.59-15.51C369.23,141.01,377.82,80.08,364.07,37.3z"/>
	<path class="st22" d="M334.81,133.91c-1.12-6.95-8.44-5.67-12.98-2.41c-6.14,4.41-12.43,15.67-20.87,7.97
		c-4.85-4.43-6.94-16.03-15.4-14.1c-9.69,2.21-10.25,19.5-22.64,16.67c-5.14-1.17-8.65-4.95-11.22-9.36
		c-1.8-3.09-2.6-6.03-6.48-5.28c-3.88,0.75-6.58,4.19-8.62,7.26c-3.48,5.21-7.26,7.72-13.87,7.13c-5.38-0.48-9.13-2.62-12.46-6.53
		c-2.41-2.83-3.94-6.39-7.86-7.17c-9.88-1.98-12.05,10.64-20.17,12.93c-5.13,1.45-10.59,0.77-14.28-3.35
		c-2.4-2.68-2.23-6.22-5.87-7.87c-3.66-1.66-9.23-0.86-12.57,0.95c-4.6,2.49-6.88,8.94-12.33,10.27
		c-8.93,2.18-11.01-7.67-17.35-10.28c-3.45-1.42-9.32-1.06-12.4,1.03c-3.31,2.26-3.09,6.75-6.83,8.73
		c-2.85,1.51-8.03,1.59-10.63-0.51c-2.37-1.91-3.04-5.83-5.77-7.53c-8.85-5.51-14.76,5.79-21.49,8.38c-3.71,1.42-5.4,0.98-8.36-1.11
		c-2.66-1.88-4.74-3.8-8.13-2.66c-4.7,1.58-5.55,5.2-3.88,12.5c5.36,18.66,47.28,163.97,56.88,175.49
		c10.26,12.31,88.22,11.28,88.22,11.28s77.96,1.03,88.22-11.28c10.26-12.31,57.44-177.46,57.44-177.46S335.4,137.55,334.81,133.91z"
		/>
	<g class="st2">
		<path class="st23" d="M111.68,330.79c-1.75-9.07-7.23-18.81-10.09-26.99c-4.28-12.21-7.55-25.14-10.58-37.7
			c-6.66-27.59-13.47-55.02-19.42-83.06c-1.68-7.93-8.45-25.59-10.94-41.7c-2.69,0.73-4.29,0.15-6.8-1.63
			c-1.45-1.03-2.74-2.06-4.15-2.61c2.55,8.04,8.48,16.35,10.39,23.56c3.61,13.59,6.94,27.74,10.71,41.54
			c9.16,33.55,18.74,66.03,26.76,99.84c1.21,5.1,2.85,17.5,6.51,26.25C106.17,329.18,108.8,330.09,111.68,330.79z"/>
		<path class="st23" d="M124.49,310.72c-2.85-14.38-3.85-29.21-6.57-43.66c-5-26.6-7.37-53.75-12.33-80.2
			c-2.38-12.68-4.58-25.71-6.3-38.46c-0.28-2.07-0.68-4.52-1.07-7.2c-2.88,0.75-6.67,0.48-8.76-1.21c-0.69-0.56-1.23-1.29-1.73-2.08
			c-0.01,1.01-0.02,1.95,0,2.78c0.42,17.33,5.38,33.86,9.06,50.96c5.89,27.35,10.18,54.17,14.6,81.38
			c3.23,19.84,5.2,40.04,9.04,59.52c2.22,0.35,4.51,0.69,6.89,0.98C127.12,324.83,125.35,315.03,124.49,310.72z"/>
		<path class="st23" d="M152.37,312.24c-1.8-11.99-3.5-24.2-4.62-36.91c-2.38-27.06-5-55.22-7.71-82.28
			c-1.31-13.12-0.73-26.94-1.37-40.04c-0.19-3.83-0.71-7.97-1.23-12.23c-0.25,0.09-0.51,0.17-0.78,0.24
			c-3.91,0.95-6.51-0.4-8.72-2.44c-0.06,8.45-0.25,16.89,0.56,25.19c3.31,33.94,7.5,68.59,12.14,102.53
			c2.18,15.99,3.3,32.4,4.83,48.45c0.53,5.54,0.42,13.22,1.01,20.55c3.04,0.19,6.05,0.34,8.99,0.47
			C155.29,327.25,153.23,317.96,152.37,312.24z"/>
		<path class="st23" d="M185.04,336.35c-0.09-10.59-2.58-22-3.49-30.43c-1.74-16.04-0.87-32.69-1.5-48.83
			c-0.63-15.96-1.54-31.77-1.54-47.91c0-15.67-2.28-30.9-2.31-46.16c-0.01-7.21,0.9-14.3,2.03-21.36c-3.03,0.25-6.01-0.33-8.53-2.01
			c-0.2,3.9-0.43,7.83-0.43,11.79c0,37.38,2.99,73.74,4.79,110.82c0.84,17.4,1.37,34.78,1.37,52.29c0,3.97-0.97,13.11-0.86,21.75
			C179.29,336.36,182.97,336.36,185.04,336.35z"/>
	</g>
	<path class="st24" d="M334.13,133.91c-1.12-6.95-8.44-5.67-12.98-2.41c-6.14,4.41-12.42,15.67-20.87,7.97
		c-4.85-4.43-6.94-16.03-15.4-14.1c-8.65,1.97-10.02,15.94-19.02,16.93c-0.07,0.2-0.14,0.39-0.2,0.59
		c-2.92,8.85-3.38,18.48-5.04,27.61c-2.03,11.17-2.28,22.49-4.36,33.77c-2.97,16.11-6.96,32.04-9.66,48.22
		c-2.79,16.69-4.2,33.98-7.85,50.53c-2.04,9.27-5.82,21.28-5.11,31.83c18.63-1.46,36.75-4.29,41.34-9.8
		c10.26-12.31,57.45-177.46,57.45-177.46S334.72,137.55,334.13,133.91z"/>
	<g class="st2">
		<path class="st25" d="M192.34,336.35c0-2.76-0.11-4.74-0.11-5.49c0-13.8,3.88-124.03,2.74-139.42
			c-1.05-14.12-0.96-28.33,0.42-42.41c0.45-4.57,1.51-13.39,4.14-20.79c-7.2,0.42-9.86,9.5-16.04,12.51
			c0.66,4.2-0.21,145.53-0.14,152.07c0.11,10.28-0.83,20.39-0.33,30.6c0.18,3.73-0.19,8.28,0.14,12.93H192.34z"/>
		<path class="st25" d="M219.58,328.05c0.87-8.36,0.92-16.84,1.78-25.23c1.42-13.83,4.35-27.66,6.42-41.46
			c2.08-13.86,3.81-27.52,5.55-41.37c1.73-13.75,2.82-27.71,5.65-41.29c2.44-11.71,1.88-23.76,4.1-35.48
			c0.93-4.92,2.46-9.79,3.17-14.71c0.04-0.28,0.07-0.57,0.09-0.86c-0.44-0.03-0.92-0.01-1.47,0.1c-3.88,0.75-6.58,4.19-8.62,7.26
			c-2.47,3.7-5.1,6.03-8.78,6.86c-0.03,3.29-0.32,6.45-0.73,9.14c-0.85,5.62-0.62,11.5-1.43,17.1c-1.05,7.26-2.8,14.43-3.69,21.81
			c-1.24,10.37-2.25,20.81-3.84,31.17c-1.99,13-2.22,25.85-3,38.91c-1.43,23.91-9.24,48.41-7.86,72.59c0.06,0.99,0.12,2.04,0.3,3.57
			c3.71-0.09,7.81-0.22,12-0.41C219.44,332.95,219.34,330.41,219.58,328.05z"/>
	</g>
	<path class="st24" d="M364.87,42.39c-2.75-8.45-6.88-23.36-14.39-31.7c-5.34,13.18-8.42,28.81-21.67,38.17
		c-15.9,11.23-37.33,13.39-55.96,15.41c-51.33,5.56-42.51,54.88-149.3,49.87c-25.98-1.22-56.62-10.46-81.76-11.68
		c-8.51-0.41-41.98-8.01-40.05,5.01h0.83c2.13,11.64,8.72,22.59,16.48,31.87c8.6,10.28,20.26,11.34,31.93,14.83
		c15.25,4.55,27.15,8.38,43.55,9.2c19.86,0.99,39.42,4.68,59.05,4.17c39.21-1.02,75.87-6.81,115.14-5.01
		c14.22,0.66,28.72-8.11,42.55-6.69c14.53,1.49,23.49-0.91,34.82-10.2c16.83-13.8,19.93-46.08,22.77-66.54
		C370.57,66.74,368.64,53.99,364.87,42.39z"/>
	<path class="st26" d="M367.1,46.28c-2.4-7.39-5.86-19.7-11.7-28.26c1.55,4.31,2.8,8.4,3.85,11.57c3.83,11.6,5.79,24.35,4.05,36.71
		c-2.88,20.46-6.03,52.74-23.12,66.54c-11.5,9.29-20.59,11.69-35.34,10.2c-14.04-1.42-28.76,7.35-43.19,6.69
		c-39.86-1.81-77.07,3.99-116.88,5.01c-19.92,0.51-39.78-3.18-59.94-4.17c-16.65-0.82-28.72-4.65-44.2-9.2
		c-10.11-2.97-20.2-4.19-28.36-10.85c2.63,4.49,5.72,8.75,9.03,12.71c8.6,10.28,20.25,11.34,31.93,14.83
		c15.25,4.55,27.15,8.38,43.55,9.2c19.86,0.99,39.42,4.68,59.05,4.17c39.21-1.02,75.87-6.81,115.14-5.01
		c14.21,0.65,28.72-8.11,42.55-6.69c14.53,1.49,23.49-0.91,34.82-10.2c16.83-13.8,19.93-46.08,22.77-66.54
		C372.8,70.63,370.87,57.88,367.1,46.28z"/>
	<path class="st27" d="M189.23-21.69c-9.08-10.04-26.06-5.27-36.5-2.69c-8.43,2.08-16.45,5.88-24.86,7.71
		c-1.55,1.22,0.2,0.22,0.68,0.65h-5.01c-14.03,1.38-26.72,4.68-38.56,12.31c-12.57,8.1-17.32,21.78-25.87,33.58
		c-8.45,11.66-16.1,28.12,0.37,36.5c15.82,8.05,30.22,3.15,42.41-8.32c10.39-9.77,24-22.62,37.68-27.98
		c13.8-5.41,28.98-7.91,42.37-16.27C192.81,7.03,199.59-10.24,189.23-21.69z"/>
	<path class="st28" d="M60.91-1.32C50.56,0.11,40.16,2.2,35.73,13.13c-1.14,2.82-1.93,14.17,0.68,19.38
		c0.2,15.47,38.62,5.71,45.52,1.22C106.52,17.71,82.88-4.35,60.91-1.32z"/>
	<path class="st29" d="M40.95,27.36c0.5,2.27,1.17,4.6,2.52,5.87c2.18,4.27,6.07,8.23,10.78,10.01
		c11.87,4.48,30.77,3.34,34.26-10.84C96.69-0.94,35.21,1.33,40.95,27.36z"/>
	<g class="st2">
		<path class="st30" d="M59.77,11.59c-12.82,2.64-14.83,22.55-0.42,19.99c3.26-0.58,9.04-7.25,9.78-10.24
			C71.13,13.31,65.69,12.54,59.77,11.59z"/>
		<path class="st30" d="M59.3,11.52c0.16,0.03,0.31,0.05,0.46,0.07c0.12-0.03,0.24-0.05,0.37-0.07H59.3z"/>
	</g>
	<path class="st28" d="M137.34,66.01c-9,5.32-17.78,11.27-17.64,23.06c0.04,3.04,3.7,13.82,8.11,17.61
		c6.17,14.19,37.83-9.67,42.45-16.48C186.75,65.93,156.43,54.72,137.34,66.01z"/>
	<path class="st29" d="M130.01,100.18c1.34,1.9,2.86,3.79,4.59,4.44c3.67,3.1,8.78,5.25,13.81,5.07
		c12.67-0.46,29.67-8.82,27.4-23.24C170.48,52.53,114.65,78.4,130.01,100.18z"/>
	<g class="st2">
		<path class="st30" d="M141.27,78.36c-10.8,7.39-4.96,26.53,7.34,18.6c2.78-1.79,5.53-10.18,5.06-13.23
			C152.41,75.55,147.1,76.94,141.27,78.36z"/>
		<path class="st30" d="M140.82,78.47c0.15-0.04,0.3-0.07,0.46-0.11c0.1-0.07,0.21-0.14,0.31-0.21L140.82,78.47z"/>
	</g>
	<path class="st28" d="M318.37,3.13c-7.87-3.82-16.09-7.23-24.46-2.09c-2.16,1.33-8.21,8.42-8.93,13.03
		c-7.37,10.25,24,21.5,30.96,21.72C340.74,36.59,335.06,11.24,318.37,3.13z"/>
	<path class="st29" d="M290.62,12.79c-0.75,1.72-1.42,3.56-1.1,5.01c-0.56,3.81,0.21,8.2,2.61,11.53c6.05,8.39,19.71,16.34,29,8.63
		C342.98,19.82,299.26-6.94,290.62,12.79z"/>
	<g class="st2">
		<path class="st30" d="M311.31,11.08c-10.16-4.16-21.22,7.99-9.99,12.93c2.54,1.12,9.78-0.61,11.75-2.23
			C318.35,17.43,314.96,14.43,311.31,11.08z"/>
		<path class="st30" d="M311.02,10.82c0.09,0.09,0.19,0.18,0.29,0.26c0.1,0.04,0.2,0.08,0.29,0.12L311.02,10.82z"/>
	</g>
	<path class="st28" d="M231.04-40.81c-8.75,0.24-17.61,0.93-22.62,8.16c-1.29,1.86-3.35,9.65-1.84,13.43
		c-1.75,10.7,31.25,6.73,37.51,4.12C266.41-24.38,249.59-41.31,231.04-40.81z"/>
	<path class="st29" d="M210.97-22.44c0.13,1.61,0.4,3.26,1.36,4.23c1.28,3.11,4,6.12,7.68,7.69c9.26,3.95,25.04,4.53,29.68-5.01
		C260.6-37.97,209.44-40.83,210.97-22.44z"/>
	<g class="st2">
		<path class="st30" d="M228.5-31.97c-10.93,0.9-15.06,14.5-2.82,13.77c2.77-0.16,8.37-4.35,9.36-6.37
			C237.68-29.97,233.28-30.9,228.5-31.97z"/>
		<path class="st30" d="M228.12-32.06c0.12,0.03,0.25,0.06,0.38,0.08c0.11-0.01,0.21-0.02,0.32-0.02L228.12-32.06z"/>
	</g>
	<path class="st28" d="M324.18,73.94c-6.69-5.64-13.76-11.03-22.31-8.97c-2.21,0.53-8.92,4.97-10.31,8.79
		c-8.43,6.82,18.84,25.82,25.25,28.04C339.63,109.74,338.36,85.91,324.18,73.94z"/>
	<path class="st29" d="M296.98,74.28c-0.97,1.29-1.87,2.7-1.8,4.06c-1.12,3.17-1.09,7.23,0.61,10.85
		c4.28,9.11,15.68,20.05,25.49,16.02C344.34,95.73,308.07,59.55,296.98,74.28z"/>
	<g class="st2">
		<path class="st30" d="M316.4,78.84c-8.75-6.6-20.89,0.79-11.27,8.4c2.17,1.72,9.14,2.33,11.22,1.48
			C321.92,86.44,319.25,82.83,316.4,78.84z"/>
		<path class="st30" d="M316.17,78.52c0.07,0.1,0.15,0.21,0.22,0.31c0.08,0.06,0.17,0.13,0.25,0.19L316.17,78.52z"/>
	</g>
	<path class="st28" d="M144.44-15.71c-8.69,5.49-17.22,11.5-17.76,21.54c-0.14,2.59,2.65,11.39,6.54,14.15
		c4.92,11.45,35.79-12.27,40.49-18.56C190.47-21.03,162.87-27.36,144.44-15.71z"/>
	<path class="st29" d="M135.64,14.21c1.14,1.48,2.44,2.93,4.02,3.3c3.24,2.25,7.88,3.54,12.57,2.85
		c11.83-1.74,28.15-10.67,26.87-22.73C176.09-30.73,122.59-2.74,135.64,14.21z"/>
	<g class="st2">
		<path class="st30" d="M147.39-5.6c-10.48,7.45-6.15,23.15,5.77,15.08c2.69-1.82,5.74-9.27,5.48-11.82
			C157.93-9.18,152.9-7.43,147.39-5.6z"/>
		<path class="st30" d="M146.96-5.45c0.14-0.05,0.29-0.1,0.43-0.14c0.1-0.07,0.2-0.14,0.3-0.21L146.96-5.45z"/>
	</g>
</g>
<g>
	<path class="st31" d="M525.35,160.26c1.4,84.24-115.58,152.55-258.17,152.55S7.74,244.5,9.02,160.26
		C10.97,31.18,124.6,7.71,267.18,7.71S523.39,42.91,525.35,160.26z"/>
	<path class="st25" d="M525.35,160.26c-0.11-6.63-0.58-13-1.39-19.11c-3.79,81.62-118.71,146.89-258.08,146.89
		c-132.34,0-242.52-58.85-256.64-134.66c-0.11,2.26-0.18,4.55-0.22,6.88C7.74,244.5,124.6,312.81,267.18,312.81
		S526.75,244.5,525.35,160.26z"/>
	<path class="st32" d="M24.3,92.94c-8.18,9.31-8.23,33.92-5.13,45.95c3.71,14.38,17.43,31.24,30.6,38.13
		c14.67,7.67,40.82-1.23,52.74,11.74c14.44,15.71,15.64,15.64,40.09,32.27c8.28,5.63,22.18,12.66,32.04,9.51
		c8.33-2.67,14.54-9.36,21.78-14.18c13.54-9.01,44.97-19.74,61.55-18.79c19.69,1.12,38.19,18.96,55.73,27.38
		c16.58,7.95,29.61,11.52,47.91,8.04c22.13-4.22,33.81-26.24,44-44.21c8.32-14.68,33.29,0.29,47.91-4.89
		c18.66-6.61,14.31-16.13,27.16-28.62c9.45-9.19,22.62-15.82,28.82-27.82c7.11-13.75,0.6-33.84-16.84-33.51
		c-16.77,0.31-34.71,14.8-50.12,21.24c-37.17,15.54-78.93,27.74-119.02,32.33c-51.48,5.9-109.7,7.76-160.63-2.97
		c-19.61-4.13-39.63-8.69-57.4-18.29c-14.02-7.57-24.36-20.07-38.39-27.18c-10.57-5.35-30.52-10.62-38.89-4.16L24.3,92.94z"/>
	<path class="st33" d="M500.39,67.83c-24.86-36.08-60.89-44.58-101.62-54.08C355.54,3.66,306.19,0.12,260.86,0
		C232.02-0.07,113.27,8.86,65.3,41.36C45.83,54.56,28.89,72.26,21.92,95.17c-8.39,27.6,3.7,55.05,29.07,69.17
		c11.25,6.26,23.44,5.9,35.06,10.62c13.39,5.44,20.85,18.98,33.72,26.18c16.15,9.04,39.89,16.74,58.92,12.71
		c16.3-3.46,25.4-18.99,41.98-23.17c41.31-10.4,60.58,16.35,97.27,26.07c18,4.77,50.04,8.59,65.24-5.47
		c10.86-10.05,8.91-25.81,26.25-30.08c11.37-2.8,23.73,1.07,35.22-2.29c14.94-4.37,12.41-11.31,21.23-22.19
		c11.64-14.37,30.27-20.52,41.36-36.76C519.66,101.74,511.84,84.43,500.39,67.83z"/>
	<path class="st25" d="M358.61,71.35c-20.88-8.89-45.45-3.07-67.79-2.25c-22.9,0.84-45.98,1.43-69.1,2.61
		c-18.49,0.94-43.56-0.14-57.72,12.68c-11.19,10.13-9.76,17.64-3.19,22.48c13.97,22.89,110.11,11.77,131.32,11.77
		c21.93,0,45.79,2.49,66.2-5.21C382.36,104.36,381.44,81.07,358.61,71.35z"/>
	<path class="st32" d="M359.3,92.89c-20.41,7.7-41.99,13.36-63.92,13.36c-20.81,0-116,2.54-132.71-18.66
		c-8.64,9.01-6.96,15.77-0.89,20.25c13.97,22.89,110.11,11.77,131.32,11.77c21.93,0,45.79,2.49,66.2-5.21
		c17.4-6.57,21.72-20.58,14.12-31.5C370.51,86.91,365.83,90.43,359.3,92.89z"/>
	<path class="st34" d="M224.74,142.73c-28.98-10.93-93.03-2.99-96.29-48.56c-0.94-13.06,3.89-21.87,11.66-31.34
		c6.15-7.5,13.97-16.34,8.65-26.28c-5.47-10.22-38.22-13.51-47-7.57C87.51,31.82,70.89,49.5,64.31,61.95
		c-7.93,15.01-17.58,42.23-11.66,58.79c6.25,17.48,35.77,34.89,50.84,40.84c37.15,14.66,91.82,12.12,108.53,10.47
		C233.25,169.96,244.12,150.04,224.74,142.73z"/>
	<path class="st34" d="M432.07,34.25c-12.11-4.91-26.13-7.51-39.16-8.78c-4.36-0.42-17.03-3.59-20.8-0.26
		c-7.02,6.21,3.74,10.45,6.13,9.06h1.95c13.82,1.25,32.23,7.13,40.35,20.53c11.39,18.8,3.33,33.7-7.13,50.11
		c-12.81,20.09,4.74,26.97,23.47,22.27c18.15-4.55,35.91-14.79,39.11-34.25C480.93,62.99,457.6,44.6,432.07,34.25z"/>
	<path class="st32" d="M163.14,102.72c-11.2-8.78,27.22-20.63,33.19-21.56c15.83-2.47,30.66-3.94,46.98-4.84
		c31.47-1.72,66.05-3.81,97.77-0.98c6.7,0.6,17.77,0.92,23.3,5.08c2.91,2.19-0.01,6.47,5.01,7.68c4.93,1.18,7.42-2.14,6.9-5.92
		c-1.38-9.83-27.35-15.67-37.15-15.64c-32.11,0.07-62.57-1.74-93.95,1.25c-21.72,2.07-44.23,3.16-65.43,7.33
		c-9.03,1.78-16.19,3.5-22.25,11.22c-6.24,7.96,4.23,17.3,5.62,15.4V102.72z"/>
	<g>
		<g>
			<path class="st6" d="M83.52,98.76c6.08-0.17,12.05-2.45,16.49-6.65c4.59-4.34-2.33-11.24-6.91-6.91
				c-2.55,2.41-6.11,3.68-9.58,3.78C77.23,89.16,77.21,98.94,83.52,98.76L83.52,98.76z"/>
		</g>
		<g>
			<path class="st6" d="M105.69,55.56c7.47,2.88,15.49,4.02,23.46,4.09c6.31,0.05,6.3-9.72,0-9.78c-7.18-0.06-14.15-1.15-20.86-3.74
				C102.4,43.86,99.87,53.32,105.69,55.56L105.69,55.56z"/>
		</g>
		<g>
			<path class="st6" d="M190.29,48.55c5.95-4.32,12.91-7.21,19.69-9.94c2.47-0.99,4.18-3.22,3.41-6.01
				c-0.65-2.35-3.54-4.41-6.01-3.41c-7.55,3.03-15.41,6.11-22.03,10.92c-2.15,1.56-3.2,4.22-1.75,6.69
				C184.85,48.92,188.13,50.12,190.29,48.55L190.29,48.55z"/>
		</g>
		<g>
			<path class="st6" d="M160.44,32.27c6.16-0.09,12.28-1.31,18.25-2.78c6.12-1.51,3.52-10.94-2.6-9.43
				c-5.15,1.27-10.33,2.35-15.65,2.43C154.14,22.59,154.13,32.36,160.44,32.27L160.44,32.27z"/>
		</g>
		<g>
			<path class="st6" d="M290.82,49.04c6.9,1.3,13.97,1.31,20.86,2.61c6.16,1.16,8.79-8.27,2.6-9.43c-6.9-1.3-13.97-1.31-20.86-2.61
				C287.26,38.46,284.63,47.88,290.82,49.04L290.82,49.04z"/>
		</g>
		<g>
			<path class="st6" d="M319.36,34.21c4.63-2.31,9.21-4.42,14.48-4.55c6.29-0.15,6.31-9.92,0-9.78c-7.06,0.16-13.19,2.78-19.42,5.88
				C308.78,28.58,313.73,37.02,319.36,34.21L319.36,34.21z"/>
		</g>
		<g>
			<path class="st6" d="M410.76,68.77c6.39,0.15,12.4,2.7,18.26,5.04c2.48,0.99,5.37-1.06,6.01-3.41c0.77-2.79-0.94-5.03-3.41-6.01
				c-6.75-2.7-13.5-5.22-20.86-5.39C404.45,58.85,404.46,68.63,410.76,68.77L410.76,68.77z"/>
		</g>
		<g>
			<path class="st6" d="M470.74,80.33c3.6,1.2,6.8,2.59,9.58,5.26c4.54,4.37,11.46-2.53,6.91-6.91c-4.01-3.87-8.67-6.03-13.89-7.78
				C467.34,68.9,464.79,78.34,470.74,80.33L470.74,80.33z"/>
		</g>
		<g>
			<path class="st6" d="M347.73,185.98c4.34-4.28,9.11-8.12,14.79-10.48c2.46-1.02,4.19-3.2,3.41-6.01
				c-0.64-2.33-3.55-4.44-6.01-3.42c-7.32,3.03-13.48,7.43-19.11,12.99C336.32,183.5,343.24,190.41,347.73,185.98L347.73,185.98z"/>
		</g>
		<g>
			<path class="st6" d="M324.71,152.04c6.1-1.22,12.21-2.42,18.25-3.91c6.12-1.51,3.52-10.94-2.6-9.43
				c-6.04,1.49-12.15,2.69-18.25,3.91C315.93,143.85,318.55,153.27,324.71,152.04L324.71,152.04z"/>
		</g>
		<g>
			<path class="st6" d="M402.94,130.05c4.97,0.07,9.98,1.09,14.48,3.24c5.66,2.71,10.62-5.72,4.93-8.44
				c-6.09-2.92-12.65-4.48-19.42-4.58C396.63,120.18,396.64,129.96,402.94,130.05L402.94,130.05z"/>
		</g>
		<g>
			<path class="st6" d="M145.96,158.06c5.53-4.09,11.42-7.64,16.95-11.73c2.14-1.58,3.21-4.2,1.75-6.69
				c-1.24-2.11-4.54-3.34-6.69-1.75c-5.53,4.09-11.42,7.64-16.95,11.73c-2.14,1.58-3.21,4.2-1.75,6.69
				C140.51,158.42,143.81,159.65,145.96,158.06L145.96,158.06z"/>
		</g>
		<g>
			<path class="st6" d="M130.45,129.87c5.91-2.29,11.91-3.66,18.26-3.74c6.3-0.07,6.31-9.85,0-9.78
				c-7.18,0.08-14.17,1.49-20.86,4.09c-2.48,0.96-4.18,3.25-3.41,6.01C125.09,128.83,127.97,130.84,130.45,129.87L130.45,129.87z"/>
		</g>
		<g>
			<path class="st6" d="M238.67,144.22c7.36,2.51,14.31,5.97,21,9.94c5.43,3.23,10.35-5.23,4.94-8.44
				c-7.4-4.4-15.18-8.14-23.33-10.92C235.29,132.74,232.74,142.19,238.67,144.22L238.67,144.22z"/>
		</g>
		<g>
			<path class="st35" d="M67.42,124.71c2.72-2.5,7.43-3.09,10.88-3.96c6.11-1.53,3.52-10.96-2.6-9.43
				c-5.34,1.34-11.03,2.65-15.19,6.47C55.86,122.06,62.79,128.96,67.42,124.71L67.42,124.71z"/>
		</g>
		<g>
			<path class="st35" d="M123.44,104.3c1.13-3.09,4.2-5.68,6.88-7.51c2.2-1.5,3.17-4.27,1.75-6.69c-1.27-2.18-4.49-3.26-6.69-1.75
				c-4.95,3.39-9.28,7.62-11.37,13.35c-0.92,2.5,1.01,5.35,3.41,6.01C120.15,108.46,122.52,106.8,123.44,104.3L123.44,104.3z"/>
		</g>
		<g>
			<path class="st35" d="M78,58.53c1.79,3.43,4.84,6.48,8.27,8.27c2.36,1.23,5.3,0.62,6.69-1.75c1.3-2.22,0.61-5.46-1.75-6.69
				c-0.61-0.32-1.19-0.68-1.76-1.08c0.42,0.33,0.41,0.32-0.03-0.04c-0.34-0.28-0.65-0.59-0.97-0.89c-0.21-0.21-0.41-0.42-0.61-0.64
				c-0.08-0.09-0.96-1.21-0.33-0.36c-0.41-0.55-0.76-1.15-1.08-1.76c-1.23-2.36-4.47-3.05-6.69-1.75
				C77.37,53.23,76.76,56.17,78,58.53L78,58.53z"/>
		</g>
		<g>
			<path class="st35" d="M234.3,55.61c2.35-2.29,5.17-4.17,8.27-5.26c2.51-0.89,4.16-3.31,3.42-6.01c-0.67-2.43-3.5-4.3-6.01-3.41
				c-4.73,1.67-8.99,4.28-12.59,7.78C222.86,53.09,229.78,60,234.3,55.61L234.3,55.61z"/>
		</g>
		<g>
			<path class="st35" d="M234.76,28.36c6.59,0,13.06-0.24,19.55-1.48c6.19-1.18,3.56-10.6-2.6-9.43
				c-5.61,1.07-11.26,1.13-16.95,1.13C228.45,18.58,228.45,28.36,234.76,28.36L234.76,28.36z"/>
		</g>
		<g>
			<path class="st35" d="M379.33,61.59c3.32-2.14,6.84-3.48,10.57-4.72c5.95-1.99,3.4-11.43-2.6-9.43c-4.48,1.5-8.91,3.13-12.9,5.71
				C369.12,56.55,374.02,65.02,379.33,61.59L379.33,61.59z"/>
		</g>
		<g>
			<path class="st35" d="M393.81,33.57c2.77,0.05,6.23,0.58,8.28,2.48c4.62,4.28,11.55-2.62,6.91-6.91
				c-4.06-3.76-9.76-5.25-15.19-5.34C387.5,23.69,387.51,33.46,393.81,33.57L393.81,33.57z"/>
		</g>
		<g>
			<path class="st35" d="M452.17,117.2c3.59,5.25,8.24,9.9,13.49,13.49c2.2,1.51,5.42,0.42,6.69-1.75c1.42-2.42,0.44-5.19-1.75-6.69
				c-3.8-2.6-7.38-6.18-9.98-9.98c-1.5-2.19-4.27-3.17-6.69-1.75C451.75,111.78,450.66,114.99,452.17,117.2L452.17,117.2z"/>
		</g>
		<g>
			<path class="st35" d="M361.08,130.68c-0.61,0.29,0.98-0.33,1.17-0.38c0.66-0.19,1.33-0.33,2-0.48c1.62-0.36,3.21-0.74,4.79-1.25
				c2.54-0.81,4.14-3.36,3.41-6.01c-0.68-2.49-3.48-4.23-6.01-3.42c-3.45,1.11-6.99,1.54-10.29,3.1c-2.41,1.14-3.01,4.54-1.75,6.69
				C355.82,131.38,358.67,131.82,361.08,130.68L361.08,130.68z"/>
		</g>
		<g>
			<path class="st35" d="M408.16,99.89c5.63,1.39,11.32,2.52,16.95,3.91c6.12,1.51,8.72-7.92,2.6-9.43
				c-5.63-1.39-11.32-2.52-16.95-3.91C404.63,88.95,402.04,98.38,408.16,99.89L408.16,99.89z"/>
		</g>
		<g>
			<path class="st35" d="M284.16,173.71c4.74-3.54,9.6-6.89,14.34-10.43c2.13-1.59,3.22-4.19,1.75-6.69
				c-1.23-2.1-4.55-3.35-6.69-1.75c-4.74,3.54-9.6,6.89-14.34,10.43c-2.13,1.59-3.21,4.19-1.75,6.69
				C278.7,174.06,282.02,175.31,284.16,173.71L284.16,173.71z"/>
		</g>
		<g>
			<path class="st35" d="M190.88,158.6c3.04,3.04,6.08,6.08,9.13,9.13c4.46,4.46,11.38-2.45,6.91-6.91
				c-3.04-3.04-6.08-6.08-9.13-9.13C193.33,147.23,186.42,154.14,190.88,158.6L190.88,158.6z"/>
		</g>
		<g>
			<path class="st35" d="M276.47,137.87c4.35,0,8.69,0,13.04,0c6.31,0,6.31-9.78,0-9.78c-4.35,0-8.69,0-13.04,0
				C270.17,128.09,270.17,137.87,276.47,137.87L276.47,137.87z"/>
		</g>
	</g>
</g>
</svg>
