<?xml version="1.0" encoding="utf-8"?>
<!-- Generator: Adobe Illustrator 25.4.1, SVG Export Plug-In . SVG Version: 6.00 Build 0)  -->
<svg version="1.1" id="Layer_1" xmlns="http://www.w3.org/2000/svg" xmlns:xlink="http://www.w3.org/1999/xlink" x="0px" y="0px"
	 viewBox="0 0 207.58 148.94" style="enable-background:new 0 0 207.58 148.94;" xml:space="preserve">
<style type="text/css">
	.st0{display:none;}
	.st1{display:inline;}
	.st2{fill:#ED8222;}
	.st3{fill:url(#SVGID_1_);}
	.st4{fill:#D27428;}
	.st5{fill:url(#SVGID_00000111166296330737186050000000894881828092417162_);}
	.st6{fill:#C96728;}
	.st7{fill:url(#SVGID_00000178891070119329321100000013415584454801257090_);}
	.st8{fill:#F89A37;}
	.st9{fill:url(#SVGID_00000174565190991967001740000017056928244501633939_);}
	.st10{fill:#F4C524;}
	.st11{fill:url(#SVGID_00000070101810379848812510000000954868359020950177_);}
	.st12{fill:#EDA321;}
	.st13{fill:url(#SVGID_00000090254167133559404670000006776787313283135874_);}
	.st14{fill:url(#SVGID_00000044165791390665141600000009526914268050486916_);}
	.st15{fill:url(#SVGID_00000000205955090162061250000001170205644092912312_);}
	.st16{fill:url(#SVGID_00000178198088084018640100000001850140753583633313_);}
	.st17{fill:#E8B121;}
	.st18{fill:url(#SVGID_00000116930364534320591090000015732267934046956967_);}
	.st19{fill:url(#SVGID_00000165200413478761555600000010060760551137543603_);}
	.st20{fill:url(#SVGID_00000065786997174583490410000008216413128800681614_);}
	.st21{fill:url(#SVGID_00000158724722942510345640000003855289459541238147_);}
	.st22{fill:url(#SVGID_00000106867593877319481960000003191751328965301930_);}
	.st23{fill:url(#SVGID_00000142158784927371207150000007201752304857544124_);}
	.st24{fill:url(#SVGID_00000132070899507252670700000012854768947644324994_);}
	.st25{fill:url(#SVGID_00000055693763977741478940000014475467677636565644_);}
	.st26{fill:url(#SVGID_00000043417903516436361240000008002158565957252518_);}
	.st27{fill:url(#SVGID_00000170244348640001040730000008339055250281410183_);}
	.st28{fill:#EB8B23;}
	.st29{fill:url(#SVGID_00000098901003346524744180000010122312322728838047_);}
	.st30{fill:url(#SVGID_00000176042852846019824780000006987150612023686044_);}
	.st31{fill:url(#SVGID_00000152243373688666059110000014435253970508931485_);}
	.st32{fill:#A1D9D8;}
	.st33{fill:url(#SVGID_00000036241953523033096760000004373035001665962384_);}
	.st34{fill:#438D88;}
	.st35{fill:#FCB017;}
	.st36{fill:url(#SVGID_00000160192621696108203920000000622605257494749339_);}
	.st37{fill:url(#SVGID_00000080182164563112958780000013032111329693061764_);}
	.st38{fill:#F5E7C6;}
	.st39{fill:url(#SVGID_00000129906023536375573010000017778816318622875070_);}
	.st40{fill:url(#SVGID_00000133509295168322086220000000610521600358161057_);}
	.st41{fill:#EDAA82;}
	.st42{fill:#FFFFFF;}
	.st43{fill:#E0E1E0;}
	.st44{fill:#F3F3F3;}
	.st45{fill:#F8BF39;}
	.st46{fill:#FFD45C;}
</style>
<g class="st0">
	<g class="st1">
		<path class="st2" d="M78.66,94.48l1.95,27.26c-8.87,6.75-17.32,13.2-24.86,18.77l-0.1,0.21c-17.6-6.83-22.48-8.28-22.48-8.28
			c-6.16-3.36,2.55-9.98,21.53-21.1C58.94,108.83,67.6,102.67,78.66,94.48z"/>
		<linearGradient id="SVGID_1_" gradientUnits="userSpaceOnUse" x1="31.2066" y1="117.5948" x2="80.6104" y2="117.5948">
			<stop  offset="0" style="stop-color:#D89B57"/>
			<stop  offset="0.3326" style="stop-color:#E3B98A"/>
			<stop  offset="0.5507" style="stop-color:#EED4B8"/>
			<stop  offset="0.7423" style="stop-color:#F4E7D7"/>
			<stop  offset="1" style="stop-color:#FFFFFF"/>
		</linearGradient>
		<path class="st3" d="M78.66,94.48l1.95,27.26c-8.87,6.75-17.32,13.2-24.86,18.77l-0.1,0.21c-17.6-6.83-22.48-8.28-22.48-8.28
			c-6.16-3.36,2.55-9.98,21.53-21.1C58.94,108.83,67.6,102.67,78.66,94.48z"/>
		<path class="st4" d="M83.86,202.91c61.37,25.43,110.2,41.02,122.92,38.26v14.69c-13.67,1.61-59.21-13.08-116.02-36.6
			c-63.71-26.41-77.78-30.48-77.78-30.48c-1.02-0.55-1.66-1.19-1.98-1.87h0.07c-7.24-8.66-10.1-15.67-10.85-17.7
			c0.43,0.63,1.06,1.19,1.97,1.7C2.19,170.9,17.01,175.15,83.86,202.91z"/>
		
			<linearGradient id="SVGID_00000085220248139756679580000000462669858219463101_" gradientUnits="userSpaceOnUse" x1="98.6768" y1="273.8874" x2="105.9827" y2="180.9034">
			<stop  offset="0" style="stop-color:#F79030"/>
			<stop  offset="1" style="stop-color:#010101"/>
		</linearGradient>
		<path style="fill:url(#SVGID_00000085220248139756679580000000462669858219463101_);" d="M83.86,202.91
			c61.37,25.43,110.2,41.02,122.92,38.26v14.69c-13.67,1.61-59.21-13.08-116.02-36.6c-63.71-26.41-77.78-30.48-77.78-30.48
			c-1.02-0.55-1.66-1.19-1.98-1.87h0.07c-7.24-8.66-10.1-15.67-10.85-17.7c0.43,0.63,1.06,1.19,1.97,1.7
			C2.19,170.9,17.01,175.15,83.86,202.91z"/>
		<path class="st6" d="M209.33,239.98c10.93-11.08,69.12-57.32,124.09-101.44c43.31-34.69,71.95-53.41,77.1-62.59
			c-1.66,5.73-5.69,19.23-8.83,22.89c-5.69,9-32.73,26.75-73.12,59.14c-52.35,42-107.78,86.03-118.25,96.6
			c-0.68,0.72-1.85,1.15-3.54,1.27v-14.69C207.95,240.96,208.8,240.54,209.33,239.98z"/>
		
			<linearGradient id="SVGID_00000117671134735094775180000005011758490493905296_" gradientUnits="userSpaceOnUse" x1="364.5116" y1="284.0351" x2="300.7468" y2="149.1992">
			<stop  offset="0" style="stop-color:#F79030"/>
			<stop  offset="1" style="stop-color:#010101"/>
		</linearGradient>
		<path style="fill:url(#SVGID_00000117671134735094775180000005011758490493905296_);" d="M209.33,239.98
			c10.93-11.08,69.12-57.32,124.09-101.44c43.31-34.69,71.95-53.41,77.1-62.59c-1.66,5.73-5.69,19.23-8.83,22.89
			c-5.69,9-32.73,26.75-73.12,59.14c-52.35,42-107.78,86.03-118.25,96.6c-0.68,0.72-1.85,1.15-3.54,1.27v-14.69
			C207.95,240.96,208.8,240.54,209.33,239.98z"/>
		<path class="st8" d="M333.42,138.55c-54.97,44.11-113.16,90.35-124.09,101.44c-0.53,0.55-1.38,0.97-2.55,1.19v-9.93
			c1.17-0.21,2.02-0.63,2.55-1.19c10.93-11.13,69.12-57.32,124.09-101.44c47.13-37.83,76.89-56.64,77.85-64.84v9.55
			c0,0-0.27,0.93-0.7,2.46c0,0.04,0,0.09-0.04,0.17C405.36,85.14,376.73,103.86,333.42,138.55z"/>
		
			<linearGradient id="SVGID_00000168084870621614263660000005225900333464074886_" gradientUnits="userSpaceOnUse" x1="171.9015" y1="259.2357" x2="405.7233" y2="77.8911">
			<stop  offset="0" style="stop-color:#D89B57"/>
			<stop  offset="0.3326" style="stop-color:#E3B98A"/>
			<stop  offset="0.5507" style="stop-color:#EED4B8"/>
			<stop  offset="0.7423" style="stop-color:#F4E7D7"/>
			<stop  offset="1" style="stop-color:#FFFFFF"/>
		</linearGradient>
		<path style="fill:url(#SVGID_00000168084870621614263660000005225900333464074886_);" d="M333.42,138.55
			c-54.97,44.11-113.16,90.35-124.09,101.44c-0.53,0.55-1.38,0.97-2.55,1.19v-9.93c1.17-0.21,2.02-0.63,2.55-1.19
			c10.93-11.13,69.12-57.32,124.09-101.44c47.13-37.83,76.89-56.64,77.85-64.84v9.55c0,0-0.27,0.93-0.7,2.46
			c0,0.04,0,0.09-0.04,0.17C405.36,85.14,376.73,103.86,333.42,138.55z"/>
		<path class="st10" d="M206.78,241.17c-12.72,2.76-61.55-12.82-122.92-38.26C17.01,175.15,2.19,170.9,2.19,170.9
			c-0.91-0.51-1.55-1.06-1.97-1.7c-0.04-0.09-0.04-0.21-0.1-0.26C0.07,168.69,0,168.57,0,168.57v-9.85c0.28,0.9,1.02,1.62,2.19,2.25
			c0,0,14.82,4.25,81.67,32.01c61.37,25.43,110.2,41.02,122.92,38.26V241.17z"/>
		
			<linearGradient id="SVGID_00000108273225369274235420000007764015181361870011_" gradientUnits="userSpaceOnUse" x1="-82.5115" y1="106.7171" x2="208.4627" y2="253.5331">
			<stop  offset="0" style="stop-color:#D89B57"/>
			<stop  offset="0.3326" style="stop-color:#E3B98A"/>
			<stop  offset="0.5507" style="stop-color:#EED4B8"/>
			<stop  offset="0.7423" style="stop-color:#F4E7D7"/>
			<stop  offset="1" style="stop-color:#FFFFFF"/>
		</linearGradient>
		<path style="fill:url(#SVGID_00000108273225369274235420000007764015181361870011_);" d="M206.78,241.17
			c-12.72,2.76-61.55-12.82-122.92-38.26C17.01,175.15,2.19,170.9,2.19,170.9c-0.91-0.51-1.55-1.06-1.97-1.7
			c-0.04-0.09-0.04-0.21-0.1-0.26C0.07,168.69,0,168.57,0,168.57v-9.85c0.28,0.9,1.02,1.62,2.19,2.25c0,0,14.82,4.25,81.67,32.01
			c61.37,25.43,110.2,41.02,122.92,38.26V241.17z"/>
		<path class="st12" d="M210.71,64.58c15.1,4.97,30.93,10.23,46.92,15.5c-9.4,7.51-18.74,14.99-27.96,22.29l-15.77-5.35
			L210.71,64.58z"/>
		<path class="st12" d="M207.2,137.15c15.1,5.01,30.34,10.06,45.27,14.9c-9.56,7.69-18.22,14.73-25.46,20.72l-16.3-5.56v-0.09
			L207.2,137.15z"/>
		
			<linearGradient id="SVGID_00000129203295836737113240000006632213932709015437_" gradientUnits="userSpaceOnUse" x1="227.1323" y1="178.8351" x2="231.1196" y2="128.3284">
			<stop  offset="0" style="stop-color:#F79030"/>
			<stop  offset="1" style="stop-color:#010101"/>
		</linearGradient>
		<path style="fill:url(#SVGID_00000129203295836737113240000006632213932709015437_);" d="M207.2,137.15
			c15.1,5.01,30.34,10.06,45.27,14.9c-9.56,7.69-18.22,14.73-25.46,20.72l-16.3-5.56v-0.09L207.2,137.15z"/>
		<path class="st12" d="M272.65,85.05c15.16,4.97,30.36,9.98,44.97,14.78c-2.27,1.78-4.63,3.65-7,5.56
			c-7.03,5.65-14.14,11.33-21.17,16.94l-16.58-5.52h-0.21V85.05z"/>
		
			<linearGradient id="SVGID_00000024002925106532111010000014511185271519369869_" gradientUnits="userSpaceOnUse" x1="289.889" y1="135.0815" x2="295.1994" y2="91.9344">
			<stop  offset="0" style="stop-color:#F79030"/>
			<stop  offset="1" style="stop-color:#010101"/>
		</linearGradient>
		<path style="fill:url(#SVGID_00000024002925106532111010000014511185271519369869_);" d="M272.65,85.05
			c15.16,4.97,30.36,9.98,44.97,14.78c-2.27,1.78-4.63,3.65-7,5.56c-7.03,5.65-14.14,11.33-21.17,16.94l-16.58-5.52h-0.21V85.05z"/>
		<path class="st12" d="M374.26,48.32c5.8,3.27-4.18,11.25-25.28,27.3c0,0-5.94-1.78-13.97-4.29V35.07
			C355.62,41.57,371.39,46.71,374.26,48.32z"/>
		
			<linearGradient id="SVGID_00000055709403740836887650000001156168330574786706_" gradientUnits="userSpaceOnUse" x1="353.2213" y1="97.0738" x2="355.2143" y2="48.5778">
			<stop  offset="0" style="stop-color:#F79030"/>
			<stop  offset="1" style="stop-color:#010101"/>
		</linearGradient>
		<path style="fill:url(#SVGID_00000055709403740836887650000001156168330574786706_);" d="M374.26,48.32
			c5.8,3.27-4.18,11.25-25.28,27.3c0,0-5.94-1.78-13.97-4.29V35.07C355.62,41.57,371.39,46.71,374.26,48.32z"/>
		<path class="st12" d="M271.98,51.12V15.41c15.46,4.84,32.35,10.07,47.83,14.86c-10.43,8.41-21.36,17.2-32.59,26.16
			c-5.24-1.66-10.4-3.23-15.39-4.76l-0.23-0.3L271.98,51.12z"/>
		
			<linearGradient id="SVGID_00000135683534267322415540000017894540517641628085_" gradientUnits="userSpaceOnUse" x1="289.5909" y1="60.0199" x2="296.2324" y2="20.8346">
			<stop  offset="0" style="stop-color:#F79030"/>
			<stop  offset="1" style="stop-color:#010101"/>
		</linearGradient>
		<path style="fill:url(#SVGID_00000135683534267322415540000017894540517641628085_);" d="M271.98,51.12V15.41
			c15.46,4.84,32.35,10.07,47.83,14.86c-10.43,8.41-21.36,17.2-32.59,26.16c-5.24-1.66-10.4-3.23-15.39-4.76l-0.23-0.3L271.98,51.12
			z"/>
		<path class="st12" d="M218.84-1.78c5.05,2,19.6,6.75,37.94,12.49c-8.7,7-17.79,14.27-27.11,21.74c-8.7-4.93-15.35-6.63-20.61-6.46
			v-29.8v-0.04C211.88-3.86,215.12-3.26,218.84-1.78z"/>
		<path class="st12" d="M145.87,43.01c14.29,4.76,31.29,10.44,49.85,16.56c-7.75,6.16-15.46,12.31-23.06,18.38l-25.3-7.56
			L145.87,43.01z"/>
		<path class="st12" d="M130.25,111.71c-8.7,6.92-16.94,13.46-24.5,19.4l-25.13-9.38l-1.95-27.26
			C92.41,99.06,110.16,105.01,130.25,111.71z"/>
		<path class="st17" d="M188.61,117.06l25.28-20.04l15.77,5.35c-8.6,6.84-17.04,13.55-25.11,19.96
			C199.18,120.59,193.85,118.85,188.61,117.06z"/>
		<path class="st17" d="M147.42,145.38l19.55,6.75c-11,8.75-20.47,16.22-27.74,21.95v0.04c-6.33-2.37-12.97-4.92-19.87-7.64l28-21.1
			H147.42z"/>
		
			<linearGradient id="SVGID_00000060000615482098031060000004042584297895398079_" gradientUnits="userSpaceOnUse" x1="119.354" y1="159.7559" x2="166.9716" y2="159.7559">
			<stop  offset="0" style="stop-color:#FCB668"/>
			<stop  offset="1" style="stop-color:#FFFFFF"/>
		</linearGradient>
		<path style="fill:url(#SVGID_00000060000615482098031060000004042584297895398079_);" d="M147.42,145.38l19.55,6.75
			c-11,8.75-20.47,16.22-27.74,21.95v0.04c-6.33-2.37-12.97-4.92-19.87-7.64l28-21.1H147.42z"/>
		<path class="st17" d="M183.98,188.61l26.73-21.48v0.09l16.3,5.56c-10.04,8.28-17.32,14.52-20.34,17.53
			c-2.19,2.17-10.25,1.44-22.69-1.66V188.61z"/>
		
			<linearGradient id="SVGID_00000097476595554605187410000011675162555416297902_" gradientUnits="userSpaceOnUse" x1="183.9804" y1="179.3378" x2="227.011" y2="179.3378">
			<stop  offset="0" style="stop-color:#FCB668"/>
			<stop  offset="1" style="stop-color:#FFFFFF"/>
		</linearGradient>
		<path style="fill:url(#SVGID_00000097476595554605187410000011675162555416297902_);" d="M183.98,188.61l26.73-21.48v0.09
			l16.3,5.56c-10.04,8.28-17.32,14.52-20.34,17.53c-2.19,2.17-10.25,1.44-22.69-1.66V188.61z"/>
		<path class="st17" d="M272.65,117.41v-0.6h0.21l16.58,5.52c-8.43,6.75-16.79,13.46-24.69,19.83h-0.07
			c-5.31-1.74-10.74-3.57-16.2-5.35L272.65,117.41z"/>
		
			<linearGradient id="SVGID_00000146480634041525397100000018287177541966625940_" gradientUnits="userSpaceOnUse" x1="248.4937" y1="129.484" x2="289.4461" y2="129.484">
			<stop  offset="0" style="stop-color:#FCB668"/>
			<stop  offset="1" style="stop-color:#FFFFFF"/>
		</linearGradient>
		<path style="fill:url(#SVGID_00000146480634041525397100000018287177541966625940_);" d="M272.65,117.41v-0.6h0.21l16.58,5.52
			c-8.43,6.75-16.79,13.46-24.69,19.83h-0.07c-5.31-1.74-10.74-3.57-16.2-5.35L272.65,117.41z"/>
		<path class="st17" d="M348.98,75.62c-5.52,4.2-11.8,9-18.77,14.35c-4.92-1.66-9.98-3.31-15.03-4.93l19.83-13.71
			C343.03,73.84,348.98,75.62,348.98,75.62z"/>
		
			<linearGradient id="SVGID_00000098218302172871752060000011957151175149915785_" gradientUnits="userSpaceOnUse" x1="315.1767" y1="80.6555" x2="348.9768" y2="80.6555">
			<stop  offset="0" style="stop-color:#FCB668"/>
			<stop  offset="1" style="stop-color:#FFFFFF"/>
		</linearGradient>
		<path style="fill:url(#SVGID_00000098218302172871752060000011957151175149915785_);" d="M348.98,75.62
			c-5.52,4.2-11.8,9-18.77,14.35c-4.92-1.66-9.98-3.31-15.03-4.93l19.83-13.71C343.03,73.84,348.98,75.62,348.98,75.62z"/>
		<path class="st17" d="M287.22,56.43c-5.69,4.59-11.42,9.17-17.22,13.76c-5.2-1.7-10.47-3.44-15.63-5.13l17.22-13.67l0.23,0.3
			C276.82,53.21,281.98,54.77,287.22,56.43z"/>
		
			<linearGradient id="SVGID_00000067918870299655766780000015928372364505070979_" gradientUnits="userSpaceOnUse" x1="254.3766" y1="60.7837" x2="287.22" y2="60.7837">
			<stop  offset="0" style="stop-color:#FCB668"/>
			<stop  offset="1" style="stop-color:#FFFFFF"/>
		</linearGradient>
		<path style="fill:url(#SVGID_00000067918870299655766780000015928372364505070979_);" d="M287.22,56.43
			c-5.69,4.59-11.42,9.17-17.22,13.76c-5.2-1.7-10.47-3.44-15.63-5.13l17.22-13.67l0.23,0.3C276.82,53.21,281.98,54.77,287.22,56.43
			z"/>
		<path class="st17" d="M209.05,25.99c5.27-0.17,11.91,1.53,20.61,6.46c-7.11,5.73-14.33,11.5-21.61,17.32
			c-8.3-2.76-16.37-5.48-24.03-8.03c1.13-0.97,6.71-6.11,7.35-6.71C195.72,31.08,200.66,26.24,209.05,25.99z"/>
		<path class="st17" d="M147.36,70.4l25.3,7.56c-10.32,8.2-20.36,16.22-30.04,23.9c-8.7-2.93-17.05-5.69-24.86-8.28
			C128.12,85.52,138.27,77.58,147.36,70.4z"/>
		<path class="st17" d="M105.75,131.12c-9.51,7.51-17.9,14.18-24.82,19.66c-10.47-4.2-18.74-7.51-25.28-10.06l0.1-0.21
			c7.54-5.56,15.99-12.02,24.86-18.77L105.75,131.12z"/>
		<path class="st2" d="M209.05-3.82v29.8c-8.39,0.26-13.33,5.1-17.68,9.04c-0.64,0.6-6.22,5.73-7.35,6.71
			c-9.08-3.06-17.68-5.9-25.67-8.57c17.81-14.01,31.95-25.35,36.2-28.96c0,0,4.25-8.07,14.5-8.07V-3.82z"/>
		<path class="st2" d="M145.87,43.01l1.49,27.39c-9.09,7.17-19.23,15.12-29.6,23.18c-9.51-3.18-18.34-6.16-26.16-8.75
			C108.4,72.1,128.12,56.86,145.87,43.01z"/>
		<path class="st2" d="M147.36,117.41v27.98l-28,21.1c-5.73-2.3-11.7-4.67-17.79-7.22c-2.25-0.93-4.42-1.87-6.54-2.72
			c13.27-10.57,30.76-24.37,50.27-39.83C145.98,116.94,146.68,117.19,147.36,117.41z"/>
		
			<linearGradient id="SVGID_00000047763273039893020430000016773823500230854584_" gradientUnits="userSpaceOnUse" x1="95.0281" y1="141.6058" x2="147.3585" y2="141.6058">
			<stop  offset="0" style="stop-color:#D89B57"/>
			<stop  offset="0.3326" style="stop-color:#E3B98A"/>
			<stop  offset="0.5507" style="stop-color:#EED4B8"/>
			<stop  offset="0.7423" style="stop-color:#F4E7D7"/>
			<stop  offset="1" style="stop-color:#FFFFFF"/>
		</linearGradient>
		<path style="fill:url(#SVGID_00000047763273039893020430000016773823500230854584_);" d="M147.36,117.41v27.98l-28,21.1
			c-5.73-2.3-11.7-4.67-17.79-7.22c-2.25-0.93-4.42-1.87-6.54-2.72c13.27-10.57,30.76-24.37,50.27-39.83
			C145.98,116.94,146.68,117.19,147.36,117.41z"/>
		<path class="st2" d="M210.71,64.58l3.18,32.44l-25.28,20.04c-10.53-3.44-20.89-6.88-30.93-10.23
			C174.62,93.37,192.75,78.98,210.71,64.58z"/>
		<path class="st2" d="M271.98,15.41v35.71l-0.38,0.26l-17.22,13.67c-10.61-3.53-21.08-6.97-31.29-10.32
			C240.05,41.14,256.73,27.73,271.98,15.41z"/>
		
			<linearGradient id="SVGID_00000054241343784913545280000000696388504459818369_" gradientUnits="userSpaceOnUse" x1="223.0849" y1="40.2336" x2="271.9765" y2="40.2336">
			<stop  offset="0" style="stop-color:#D89B57"/>
			<stop  offset="0.3326" style="stop-color:#E3B98A"/>
			<stop  offset="0.5507" style="stop-color:#EED4B8"/>
			<stop  offset="0.7423" style="stop-color:#F4E7D7"/>
			<stop  offset="1" style="stop-color:#FFFFFF"/>
		</linearGradient>
		<path style="fill:url(#SVGID_00000054241343784913545280000000696388504459818369_);" d="M271.98,15.41v35.71l-0.38,0.26
			l-17.22,13.67c-10.61-3.53-21.08-6.97-31.29-10.32C240.05,41.14,256.73,27.73,271.98,15.41z"/>
		<path class="st2" d="M335.01,35.07v36.26l-19.83,13.71c-9.89-3.27-19.97-6.54-30.12-9.89c17.32-13.84,34.27-27.47,49.89-40.08
			C335.01,35.07,335.01,35.07,335.01,35.07z"/>
		
			<linearGradient id="SVGID_00000065035089955251295300000011430900089097669761_" gradientUnits="userSpaceOnUse" x1="285.0548" y1="60.0619" x2="335.0072" y2="60.0619">
			<stop  offset="0" style="stop-color:#D89B57"/>
			<stop  offset="0.3326" style="stop-color:#E3B98A"/>
			<stop  offset="0.5507" style="stop-color:#EED4B8"/>
			<stop  offset="0.7423" style="stop-color:#F4E7D7"/>
			<stop  offset="1" style="stop-color:#FFFFFF"/>
		</linearGradient>
		<path style="fill:url(#SVGID_00000065035089955251295300000011430900089097669761_);" d="M335.01,35.07v36.26l-19.83,13.71
			c-9.89-3.27-19.97-6.54-30.12-9.89c17.32-13.84,34.27-27.47,49.89-40.08C335.01,35.07,335.01,35.07,335.01,35.07z"/>
		<path class="st2" d="M272.65,116.81v0.6l-24.16,19.4c-9.57-3.1-19.25-6.28-28.91-9.47c16.94-13.46,35.01-27.86,53.07-42.29V116.81
			z"/>
		
			<linearGradient id="SVGID_00000090292396926006014570000003884228086761048978_" gradientUnits="userSpaceOnUse" x1="219.5806" y1="110.9274" x2="272.6547" y2="110.9274">
			<stop  offset="0" style="stop-color:#D89B57"/>
			<stop  offset="0.3326" style="stop-color:#E3B98A"/>
			<stop  offset="0.5507" style="stop-color:#EED4B8"/>
			<stop  offset="0.7423" style="stop-color:#F4E7D7"/>
			<stop  offset="1" style="stop-color:#FFFFFF"/>
		</linearGradient>
		<path style="fill:url(#SVGID_00000090292396926006014570000003884228086761048978_);" d="M272.65,116.81v0.6l-24.16,19.4
			c-9.57-3.1-19.25-6.28-28.91-9.47c16.94-13.46,35.01-27.86,53.07-42.29V116.81z"/>
		<path class="st2" d="M183.98,188.61v0.04c-8.24-2.12-18.39-5.27-30.02-9.3c13.44-10.62,32.08-25.39,53.24-42.2l3.5,29.97
			L183.98,188.61z"/>
		
			<linearGradient id="SVGID_00000004520223379079410470000011597713007083622561_" gradientUnits="userSpaceOnUse" x1="153.9585" y1="162.8994" x2="210.7066" y2="162.8994">
			<stop  offset="0" style="stop-color:#D89B57"/>
			<stop  offset="0.3326" style="stop-color:#E3B98A"/>
			<stop  offset="0.5507" style="stop-color:#EED4B8"/>
			<stop  offset="0.7423" style="stop-color:#F4E7D7"/>
			<stop  offset="1" style="stop-color:#FFFFFF"/>
		</linearGradient>
		<path style="fill:url(#SVGID_00000004520223379079410470000011597713007083622561_);" d="M183.98,188.61v0.04
			c-8.24-2.12-18.39-5.27-30.02-9.3c13.44-10.62,32.08-25.39,53.24-42.2l3.5,29.97L183.98,188.61z"/>
		<path class="st28" d="M15.35,136.47c0,0,13.72,3.99,75.58,29.6c55.11,22.84,99.31,37.15,112.6,35.58v0.04l3.25,29.55
			c-12.72,2.76-61.55-12.82-122.92-38.26c-66.85-27.77-81.67-32.01-81.67-32.01c-1.17-0.63-1.91-1.36-2.19-2.25v-0.08
			c-0.15-6.8,11.91-24.12,13.4-26.24C12.8,134.09,13.44,135.41,15.35,136.47z"/>
		
			<linearGradient id="SVGID_00000131329105085604254690000001054641107018035329_" gradientUnits="userSpaceOnUse" x1="113.4749" y1="171.8584" x2="95.7708" y2="209.922">
			<stop  offset="0" style="stop-color:#F79030"/>
			<stop  offset="1" style="stop-color:#010101"/>
		</linearGradient>
		<path style="fill:url(#SVGID_00000131329105085604254690000001054641107018035329_);" d="M15.35,136.47c0,0,13.72,3.99,75.58,29.6
			c55.11,22.84,99.31,37.15,112.6,35.58v0.04l3.25,29.55c-12.72,2.76-61.55-12.82-122.92-38.26
			c-66.85-27.77-81.67-32.01-81.67-32.01c-1.17-0.63-1.91-1.36-2.19-2.25v-0.08c-0.15-6.8,11.91-24.12,13.4-26.24
			C12.8,134.09,13.44,135.41,15.35,136.47z"/>
		<path class="st2" d="M411.26,63.23v0.55c-0.96,8.19-30.72,27-77.85,64.84c-54.97,44.11-113.16,90.31-124.09,101.44
			c-0.53,0.55-1.38,0.97-2.55,1.19l-3.25-29.55v-0.04c1.66-0.13,2.76-0.55,3.46-1.23c10.19-10.27,63.96-53.11,114.83-93.84
			c47.09-37.79,75.4-55.03,71.74-61.61C397.59,48.75,408.59,59.19,411.26,63.23z"/>
		
			<linearGradient id="SVGID_00000036966652381341712080000003547351818891362728_" gradientUnits="userSpaceOnUse" x1="346.1111" y1="204.9258" x2="298.2757" y2="130.515">
			<stop  offset="0" style="stop-color:#F79030"/>
			<stop  offset="1" style="stop-color:#010101"/>
		</linearGradient>
		<path style="fill:url(#SVGID_00000036966652381341712080000003547351818891362728_);" d="M411.26,63.23v0.55
			c-0.96,8.19-30.72,27-77.85,64.84c-54.97,44.11-113.16,90.31-124.09,101.44c-0.53,0.55-1.38,0.97-2.55,1.19l-3.25-29.55v-0.04
			c1.66-0.13,2.76-0.55,3.46-1.23c10.19-10.27,63.96-53.11,114.83-93.84c47.09-37.79,75.4-55.03,71.74-61.61
			C397.59,48.75,408.59,59.19,411.26,63.23z"/>
		<path class="st10" d="M393.56,44.97c-0.89-0.85-1.49-1.4-1.49-1.4c-9.51-5.35-152.41-47.6-171.64-55.37
			c-19.23-7.69-26.83,6.67-26.83,6.67C179.03,7.31,60.17,100.89,39.17,113.16c-14.84,8.66-23.97,14.86-25.67,19.07
			c0,0.04-0.07,0.08-0.11,0.17c-0.6,1.7,0.04,3.01,1.95,4.07c0,0,13.72,3.99,75.58,29.6c55.11,22.84,99.31,37.15,112.6,35.58
			c1.66-0.13,2.76-0.55,3.46-1.23c10.19-10.27,63.96-53.11,114.83-93.84C368.91,68.79,397.23,51.55,393.56,44.97z M319.81,30.27
			c-10.43,8.41-21.36,17.2-32.59,26.16c-5.69,4.59-11.42,9.17-17.22,13.76c-5.2-1.7-10.47-3.44-15.63-5.13
			c-10.61-3.53-21.08-6.97-31.29-10.32c16.96-13.59,33.65-27,48.89-39.32C287.43,20.26,304.33,25.48,319.81,30.27z M257.62,80.08
			c-9.4,7.51-18.74,14.99-27.96,22.29c-8.6,6.84-17.04,13.55-25.11,19.96c-5.37-1.74-10.7-3.48-15.94-5.27
			c-10.53-3.44-20.89-6.88-30.93-10.23c16.94-13.46,35.07-27.85,53.03-42.25C225.8,69.55,241.64,74.82,257.62,80.08z M194.55,4.21
			c0,0,4.25-8.07,14.5-8.07c2.83,0,6.07,0.6,9.79,2.08c5.05,2,19.6,6.75,37.94,12.49c-8.7,7-17.79,14.27-27.11,21.74
			c-7.11,5.73-14.33,11.5-21.61,17.32c-8.3-2.76-16.37-5.48-24.03-8.03c-9.08-3.06-17.68-5.9-25.67-8.57
			C176.17,19.15,190.31,7.81,194.55,4.21z M145.87,43.01c14.29,4.76,31.29,10.44,49.85,16.56c-7.75,6.16-15.46,12.31-23.06,18.38
			c-10.32,8.2-20.36,16.22-30.04,23.9c-8.7-2.93-17.05-5.69-24.86-8.28c-9.51-3.18-18.34-6.16-26.16-8.75
			C108.4,72.1,128.12,56.86,145.87,43.01z M80.93,150.78c-10.47-4.2-18.74-7.51-25.28-10.06c-17.6-6.83-22.48-8.28-22.48-8.28
			c-6.16-3.36,2.55-9.98,21.53-21.1c4.25-2.5,12.91-8.66,23.97-16.86c13.76,4.59,31.5,10.53,51.59,17.24
			c-8.7,6.92-16.94,13.46-24.5,19.4C96.24,138.63,87.85,145.3,80.93,150.78z M139.23,174.13c-6.33-2.37-12.97-4.92-19.87-7.64
			c-5.73-2.3-11.7-4.67-17.79-7.22c-2.25-0.93-4.42-1.87-6.54-2.72c13.27-10.57,30.76-24.37,50.27-39.83
			c0.68,0.21,1.38,0.47,2.06,0.68c14.24,4.71,29.34,9.72,44.75,14.82c-8.98,7.13-17.39,13.76-25.1,19.91h-0.04
			c-11,8.75-20.47,16.22-27.74,21.95V174.13z M227.01,172.77c-10.04,8.28-17.32,14.52-20.34,17.53c-2.19,2.17-10.25,1.44-22.69-1.66
			c-8.24-2.12-18.39-5.27-30.02-9.3c13.44-10.62,32.08-25.39,53.24-42.2c15.1,5.01,30.34,10.06,45.27,14.9
			C242.91,159.74,234.25,166.78,227.01,172.77z M310.62,105.39c-7.03,5.65-14.14,11.33-21.17,16.94
			c-8.43,6.75-16.79,13.46-24.69,19.83h-0.07c-5.31-1.74-10.74-3.57-16.2-5.35c-9.57-3.1-19.25-6.28-28.91-9.47
			c16.94-13.46,35.01-27.86,53.07-42.29c15.16,4.97,30.36,9.98,44.97,14.78C315.35,101.61,312.99,103.48,310.62,105.39z
			 M348.98,75.62c-5.52,4.2-11.8,9-18.77,14.35c-4.92-1.66-9.98-3.31-15.03-4.93c-9.89-3.27-19.97-6.54-30.12-9.89
			c17.32-13.84,34.27-27.47,49.89-40.08l0.06-0.04v0.04c20.61,6.5,36.39,11.63,39.25,13.25C380.06,51.59,370.08,59.57,348.98,75.62z
			"/>
		<path class="st12" d="M147.36,117.41c14.24,4.71,29.34,9.72,44.75,14.82c-8.98,7.13-17.39,13.76-25.1,19.91h-0.04l-19.55-6.75
			h-0.06V117.41z"/>
		
			<linearGradient id="SVGID_00000164513914236881675610000004951435459283629202_" gradientUnits="userSpaceOnUse" x1="167.8541" y1="162.4274" x2="170.5092" y2="109.3247">
			<stop  offset="0" style="stop-color:#F79030"/>
			<stop  offset="1" style="stop-color:#010101"/>
		</linearGradient>
		<path style="fill:url(#SVGID_00000164513914236881675610000004951435459283629202_);" d="M147.36,117.41
			c14.24,4.71,29.34,9.72,44.75,14.82c-8.98,7.13-17.39,13.76-25.1,19.91h-0.04l-19.55-6.75h-0.06V117.41z"/>
	</g>
</g>
<g class="st0">
	<g class="st1">
		<g>
			<path class="st32" d="M165.12,119.97c0,0,0,0.17-0.04,0.55c-0.13,0.85-0.42,2.51-0.89,4.84c-0.04,0.04-0.04,0.04-0.04,0.08
				c-6.2,16.98-40.33,29.93-81.52,29.93c-41.27,0-75.4-12.95-81.6-29.93c0-0.04,0-0.04-0.09-0.08c-0.47-2.33-0.72-3.99-0.85-4.84
				C0,120.14,0,119.97,0,119.97c0-4.8,2.29-9.38,6.28-13.59c0.21,4.71,0.63,9.26,1.15,13.59c0,16.27,35.2,29.55,75.19,29.55
				c37.28,0,70.57-11.55,74.9-26.32c0-0.04,0.09-0.17,0.09-0.21c0.25-0.98,0.38-2,0.38-3.02c0.6-4.16,0.98-8.53,1.27-13.03
				C163.08,110.93,165.12,115.39,165.12,119.97z"/>
			
				<linearGradient id="SVGID_00000060026465927953252530000015805936042823098255_" gradientUnits="userSpaceOnUse" x1="92.5551" y1="103.635" x2="26.8114" y2="211.2155">
				<stop  offset="0.0352" style="stop-color:#A5C5C7"/>
				<stop  offset="0.2665" style="stop-color:#DFEBEA"/>
				<stop  offset="0.3789" style="stop-color:#EEF4F4"/>
				<stop  offset="0.5749" style="stop-color:#F9FCFD"/>
				<stop  offset="0.7731" style="stop-color:#FFFFFF"/>
				<stop  offset="1" style="stop-color:#FFFFFF"/>
			</linearGradient>
			<path style="fill:url(#SVGID_00000060026465927953252530000015805936042823098255_);" d="M165.12,119.97c0,0,0,0.17-0.04,0.55
				c-0.13,0.85-0.42,2.51-0.89,4.84c-0.04,0.04-0.04,0.04-0.04,0.08c-6.2,16.98-40.33,29.93-81.52,29.93
				c-41.27,0-75.4-12.95-81.6-29.93c0-0.04,0-0.04-0.09-0.08c-0.47-2.33-0.72-3.99-0.85-4.84C0,120.14,0,119.97,0,119.97
				c0-4.8,2.29-9.38,6.28-13.59c0.21,4.71,0.63,9.26,1.15,13.59c0,16.27,35.2,29.55,75.19,29.55c37.28,0,70.57-11.55,74.9-26.32
				c0-0.04,0.09-0.17,0.09-0.21c0.25-0.98,0.38-2,0.38-3.02c0.6-4.16,0.98-8.53,1.27-13.03
				C163.08,110.93,165.12,115.39,165.12,119.97z"/>
			<path class="st34" d="M164.14,125.45c-3.06,14.27-14.48,53.24-51.88,80.67c-6.71,4.84-17.53,7.94-29.64,7.94
				c-12.18,0-23.05-3.1-29.76-7.94C15.5,178.69,4.07,139.71,1.02,125.45c6.2,16.98,40.33,29.93,81.6,29.93
				C123.81,155.38,157.95,142.43,164.14,125.45z"/>
			<path class="st35" d="M121.64,22.14c-5.9,3.87-7.69,8.07-9.38,11.42c-2.72,5.52-3.99,9.26-9.51,5.31
				c-5.43-3.99-8.79,3.57-16.39,8.58c-7.6,5.05-0.85-6.29-5.69-9.26c-4.8-2.97-10.78-1.7-12.44-7.13
				c-1.15-3.82-8.79-1.95-15.37,2.21c-9.04-6.83,3.99-19.83,17.49-21.74c13.46-1.95,18.09,2.67,29.47,1.78
				C111.24,12.51,120.67,14.54,121.64,22.14z"/>
			
				<linearGradient id="SVGID_00000023249062458454474080000014398514419259855802_" gradientUnits="userSpaceOnUse" x1="85.753" y1="59.8592" x2="85.753" y2="22.6705">
				<stop  offset="0.0352" style="stop-color:#D68228"/>
				<stop  offset="0.1696" style="stop-color:#DD9645"/>
				<stop  offset="0.2621" style="stop-color:#E4AB69"/>
				<stop  offset="0.37" style="stop-color:#EDC69B"/>
				<stop  offset="0.5815" style="stop-color:#F5E2CE"/>
				<stop  offset="0.8106" style="stop-color:#FDF7F0"/>
				<stop  offset="1" style="stop-color:#FFFFFF"/>
			</linearGradient>
			<path style="fill:url(#SVGID_00000023249062458454474080000014398514419259855802_);" d="M121.64,22.14
				c-5.9,3.87-7.69,8.07-9.38,11.42c-2.72,5.52-3.99,9.26-9.51,5.31c-5.43-3.99-8.79,3.57-16.39,8.58c-7.6,5.05-0.85-6.29-5.69-9.26
				c-4.8-2.97-10.78-1.7-12.44-7.13c-1.15-3.82-8.79-1.95-15.37,2.21c-9.04-6.83,3.99-19.83,17.49-21.74
				c13.46-1.95,18.09,2.67,29.47,1.78C111.24,12.51,120.67,14.54,121.64,22.14z"/>
			<g>
				
					<linearGradient id="SVGID_00000181052209732345767370000006817217089410228410_" gradientUnits="userSpaceOnUse" x1="74.7356" y1="33.7536" x2="78.012" y2="38.7463">
					<stop  offset="0" style="stop-color:#FFFFFF"/>
					<stop  offset="1" style="stop-color:#010101"/>
				</linearGradient>
				<path style="fill:url(#SVGID_00000181052209732345767370000006817217089410228410_);" d="M74,35.77
					c1.61,0.47,3.4,0.89,5.14,1.61C78.42,35.86,76.51,35.39,74,35.77z"/>
			</g>
			<path class="st38" d="M138.46,15.43c0.43,0.72,0.89,1.49,1.27,2.25c-4.84,8.87-11.67,9.55-11.67,9.55
				c-0.81,9.26-5.05,15.2-5.05,15.2l5.05,18.51c-13.46-1.74-27.77-10.53-27.77-10.53L90.14,69.36L64.87,73.6V41.16
				c-9.3,0.38-7.56-5.52-7.56-5.52c-3.35,1.74-8.11,3.18-11.8,4.16c1.78-2.42,4.46-4.67,7.35-6.54c6.58-4.16,14.22-6.03,15.37-2.21
				c1.66,5.43,7.64,4.16,12.44,7.13c4.84,2.97-1.91,14.31,5.69,9.26c7.6-5.01,10.95-12.57,16.39-8.58c5.52,3.95,6.8,0.21,9.51-5.31
				c1.7-3.35,3.48-7.56,9.38-11.42C125.38,19.64,130.64,17.35,138.46,15.43z"/>
			
				<linearGradient id="SVGID_00000057132149776594423030000016042685676144451456_" gradientUnits="userSpaceOnUse" x1="106.8814" y1="87.7424" x2="94.0423" y2="34.6225">
				<stop  offset="0" style="stop-color:#FFFFFF"/>
				<stop  offset="1" style="stop-color:#010101"/>
			</linearGradient>
			<path style="fill:url(#SVGID_00000057132149776594423030000016042685676144451456_);" d="M138.46,15.43
				c0.43,0.72,0.89,1.49,1.27,2.25c-4.84,8.87-11.67,9.55-11.67,9.55c-0.81,9.26-5.05,15.2-5.05,15.2l5.05,18.51
				c-13.46-1.74-27.77-10.53-27.77-10.53L90.14,69.36L64.87,73.6V41.16c-9.3,0.38-7.56-5.52-7.56-5.52
				c-3.35,1.74-8.11,3.18-11.8,4.16c1.78-2.42,4.46-4.67,7.35-6.54c6.58-4.16,14.22-6.03,15.37-2.21c1.66,5.43,7.64,4.16,12.44,7.13
				c4.84,2.97-1.91,14.31,5.69,9.26c7.6-5.01,10.95-12.57,16.39-8.58c5.52,3.95,6.8,0.21,9.51-5.31c1.7-3.35,3.48-7.56,9.38-11.42
				C125.38,19.64,130.64,17.35,138.46,15.43z"/>
			<path class="st38" d="M136.08,11.53c0.81,1.27,1.57,2.55,2.38,3.9c-7.81,1.91-13.08,4.2-16.81,6.71
				c-0.98-7.6-10.4-9.63-21.82-8.83c-11.38,0.89-16.01-3.73-29.47-1.78c-13.5,1.91-26.53,14.9-17.49,21.74
				c-2.89,1.87-5.57,4.12-7.35,6.54c-3.35,0.89-5.9,1.36-5.9,1.36V27.24c-8.24,1.78-13.67-2.03-16.05-4.29
				c0.55-1.15,1.15-2.25,1.79-3.36c15.58-9,27.77-16.77,27.77-16.77l8.92-10.95c0,0,19.7,1.7,26.41,4.2l12.65-4.2l7.6,5.94
				C108.7-2.18,123,9.15,136.08,11.53z"/>
			
				<linearGradient id="SVGID_00000133525674752885493500000000781295624806195129_" gradientUnits="userSpaceOnUse" x1="86.5416" y1="41.7202" x2="74.1407" y2="-8.7764">
				<stop  offset="0" style="stop-color:#FFFFFF"/>
				<stop  offset="1" style="stop-color:#010101"/>
			</linearGradient>
			<path style="fill:url(#SVGID_00000133525674752885493500000000781295624806195129_);" d="M136.08,11.53
				c0.81,1.27,1.57,2.55,2.38,3.9c-7.81,1.91-13.08,4.2-16.81,6.71c-0.98-7.6-10.4-9.63-21.82-8.83
				c-11.38,0.89-16.01-3.73-29.47-1.78c-13.5,1.91-26.53,14.9-17.49,21.74c-2.89,1.87-5.57,4.12-7.35,6.54
				c-3.35,0.89-5.9,1.36-5.9,1.36V27.24c-8.24,1.78-13.67-2.03-16.05-4.29c0.55-1.15,1.15-2.25,1.79-3.36
				c15.58-9,27.77-16.77,27.77-16.77l8.92-10.95c0,0,19.7,1.7,26.41,4.2l12.65-4.2l7.6,5.94C108.7-2.18,123,9.15,136.08,11.53z"/>
			<path class="st41" d="M159.26,106.93c-0.3,4.5-0.68,8.87-1.27,13.03c-0.13,1.02-0.3,2.04-0.38,3.02c0,0.04-0.09,0.17-0.09,0.21
				c-4.33,14.77-37.62,26.32-74.9,26.32c-40,0-75.19-13.29-75.19-29.55c-0.51-4.33-0.93-8.87-1.15-13.59
				C6.03,101.76,5.94,97,5.94,92.07c0-24.8,7.05-49,17.62-69.12c2.38,2.25,7.81,6.07,16.05,4.29v13.93c0,0,2.55-0.47,5.9-1.36
				c3.7-0.98,8.45-2.42,11.8-4.16c0,0-1.74,5.9,7.56,5.52V73.6l25.27-4.24l10.15-18.94c0,0,14.31,8.79,27.77,10.53L123,42.44
				c0,0,4.24-5.94,5.05-15.2c0,0,6.84-0.68,11.67-9.55c11.93,21.02,20,47.34,20,74.39C159.73,97.17,159.56,102.18,159.26,106.93z"/>
		</g>
	</g>
</g>
<g id="_x36_">
	<g>
		<g>
			<path class="st42" d="M157.48,17.02c-12.89-9-29.09-12.23-44.82-12.16C73.67,5.06,35.32,25.49,13.41,57.75
				C3.12,72.92-3.73,92.24,2.2,109.6c7.36,21.53,31.73,32.59,54.39,34.65c22.65,2.06,45.55-2.37,68.18-0.1
				c22.22,2.22,46.6,10.39,65.47-1.56c15.86-10.04,21.16-31.61,17.35-49.99c-3.81-18.38-14.89-34.31-25.99-49.45
				C174.56,33.54,167.24,23.84,157.48,17.02z"/>
			<path class="st43" d="M198.27,91.18c-3.47-16.72-13.55-31.21-23.64-44.99c-6.4-8.74-13.06-17.56-21.94-23.76
				c-10.98-7.67-24.6-10.73-38.04-11.04c25.02,8.92,45.71,31.45,52.84,57.95c8.32,27.91-1.33,53.12-19.76,72.25
				c12.39,1.53,24.47,1.59,34.76-4.92C196.92,127.53,201.74,107.9,198.27,91.18z"/>
			<path class="st44" d="M167.49,69.33c-7.13-26.5-27.82-49.03-52.84-57.95c-0.91-0.02-1.83-0.03-2.73-0.02
				c-35.48,0.17-70.36,18.77-90.29,48.12c-9.38,13.8-15.6,31.37-10.21,47.16c6.69,19.59,28.87,29.65,49.48,31.53
				c20.61,1.87,41.43-2.15,62.03-0.1c8.1,0.81,16.51,2.49,24.79,3.51C166.16,122.45,175.81,97.24,167.49,69.33z"/>
			<path class="st45" d="M131.38,83.34c0,24.75-20.06,44.81-44.82,44.81c-9.41,0-18.14-2.9-25.35-7.86
				c-11.75-8.08-19.47-21.61-19.47-36.95c0-24.75,20.07-44.81,44.82-44.81c3.88,0,7.64,0.5,11.24,1.42
				C117.11,44.94,131.38,62.47,131.38,83.34z"/>
			<path class="st46" d="M117.25,76.89c0,24.75-20.06,44.82-44.81,44.82c-3.88,0-7.64-0.5-11.23-1.42
				c-11.75-8.08-19.47-21.61-19.47-36.95c0-24.75,20.07-44.81,44.82-44.81c3.88,0,7.64,0.5,11.24,1.42
				C109.55,48.02,117.25,61.56,117.25,76.89z"/>
		</g>
		<path class="st42" d="M51.09,86.23c0-21.32,16.87-38.73,38.1-39.84c-1.89-0.33-3.82-0.51-5.8-0.51c-19.38,0-35.09,16.56-35.09,37
			c0,9.67,3.52,18.47,9.28,25.06C53.47,101.69,51.09,94.24,51.09,86.23z"/>
	</g>
</g>
</svg>
