<?xml version="1.0" encoding="utf-8"?>
<!-- Generator: Adobe Illustrator 25.4.1, SVG Export Plug-In . SVG Version: 6.00 Build 0)  -->
<svg version="1.1" id="Layer_1" xmlns="http://www.w3.org/2000/svg" xmlns:xlink="http://www.w3.org/1999/xlink" x="0px" y="0px"
	 viewBox="0 0 102.2 233.11" style="enable-background:new 0 0 102.2 233.11;" xml:space="preserve">
<style type="text/css">
	.st0{fill:#38164D;}
	.st1{fill:#683980;}
	.st2{fill:#12B24D;}
	.st3{fill:#D4B9D9;}
</style>
<g>
	<path class="st0" d="M62.96,231.92C2.57,227.67-0.43,133.79,1.34,95.71c0.43-9.28,1.83-82.21,28.12-79.75
		c33.5,3.13,5.65,42.44,29.55,98.96c10.8,25.54,39.49,41.5,41.99,70.43C103.21,210.89,85.54,231.94,62.96,231.92z"/>
	<path class="st1" d="M101,185.35c-2.5-28.93-31.19-44.89-41.99-70.43c-23.78-56.23,3.63-95.41-29.06-98.9
		c-8.94,38.3-15.36,126.01,45.01,213.83C91.43,223.95,102.8,206.13,101,185.35z"/>
	<path class="st2" d="M30.78,15.25c0.68-4.72,1.29-11.76-0.76-13.86c-0.51-0.52-2.35-0.52-2.86,0c-2.05,2.1-1.45,9.14-0.77,13.85
		c-9.11,1.1-16.07,8.01-19.47,15.62c0,0,9.63-3.73,11.6,6.01c0,0,3.16-6.33,8.69-6.64c5.04-0.28,9.05,5.88,9.05,5.88
		c0.88-3.49,3.43-6.63,7.14-7.33c5.13-0.96,7.69,2.46,7.69,2.46C50.95,27.02,41.33,16.55,30.78,15.25z"/>
	<path class="st3" d="M92.24,173.22c1.71,5.79-0.12,11.47-4.09,12.69c-3.97,1.22-8.58-2.48-10.29-8.27
		c-1.71-5.79,0.12-11.48,4.09-12.7C85.92,163.73,90.53,167.44,92.24,173.22z"/>
</g>
</svg>
