<?xml version="1.0" encoding="utf-8"?>
<!-- Generator: Adobe Illustrator 25.4.1, SVG Export Plug-In . SVG Version: 6.00 Build 0)  -->
<svg version="1.1" id="Layer_1" xmlns="http://www.w3.org/2000/svg" xmlns:xlink="http://www.w3.org/1999/xlink" x="0px" y="0px"
	 viewBox="0 0 142.62 87.25" style="enable-background:new 0 0 142.62 87.25;" xml:space="preserve">
<style type="text/css">
	.st0{fill:#E2CC6D;}
	.st1{fill:#CAB664;}
	.st2{fill:#B8D879;}
	.st3{fill:#AF9F57;}
	.st4{opacity:0.41;fill:#FFFFFF;}
	.st5{display:none;}
	.st6{display:inline;fill:#D99552;}
	.st7{display:inline;fill:#BB8049;}
	.st8{fill:#FDF499;}
	.st9{fill:#F4E28E;}
</style>
<g>
	<path class="st0" d="M12.97,23.16c6.04-4.65,13.51-7.05,20.98-8.58c6.28-1.29,12.74-2.04,19.1-1.24
		c11.3,1.42,22.05,8.15,27.32,18.24c5.28,10.09,4.43,23.36-2.89,32.08c-6.74,8.03-17.52,11.34-27.83,13.23
		c-14.6,2.69-31.55,2.65-42.02-7.86C-4.91,56.44-0.43,33.48,12.97,23.16z"/>
	<path class="st1" d="M49.63,77.3c10.31-1.9,21.09-5.2,27.83-13.23c1.15-1.37,2.13-2.87,2.96-4.44c-5.87,3.35-12.78,5.2-19.51,6.43
		c-14.6,2.69-31.55,2.65-42.02-7.86c-9.67-9.7-9.22-25.55-2.38-37.04c-1.24,0.73-2.43,1.53-3.57,2.41
		C-0.46,33.89-4.94,56.85,7.6,69.44C18.08,79.96,35.03,79.99,49.63,77.3z"/>
	<path class="st2" d="M56.12,49.62C42.6,57.55,29.82,65.2,14.07,68.06c-4.21,0.77-9.47,0.65-11.62-3.05c-0.82-1.41-1-3.09-1.16-4.72
		c-0.33-3.53-3.56-16.48,1.64-22.98c0,0,5.94,3.29,8.53,4.28c7.24,2.76,15.29,3.95,22.94,4.87C38.96,47.01,52.29,51.99,56.12,49.62z
		"/>
	<path class="st3" d="M22.57,43.57c6.86,1.54,13.75,2.98,20.66,4.31c2.59,0.5,5.2,0.99,7.82,1.24c8.6,0.83,17.22-0.84,25.69-2.5
		c-11.32,3.61-23.42,4.37-35.27,3.44s-23.51-3.5-35.03-6.42c-1.34-0.34-2.75-0.73-3.67-1.76c-0.83-0.92-1.79-4.32-0.23-5
		c1.14-0.5,4.81,2.13,5.95,2.61C13.01,41.37,17.8,42.51,22.57,43.57z"/>
	<path class="st3" d="M10.12,66.16c-2.42,0.2-4.91,0.26-7.23-0.47c0.5,1.9,2.73,2.71,4.68,2.96c6.56,0.82,13.06-1.5,19.27-3.78
		c4.16-1.53,8.34-3.06,12.26-5.14c3.2-1.69,6.2-3.73,9.3-5.61c2.82-1.71,5.98-2.82,8.78-4.42c-2.26-0.36-4.3,1.18-6.14,2.26
		c-3.08,1.8-6.22,3.49-9.43,5.04c-6.33,3.06-12.94,5.59-19.78,7.25C17.98,65.19,14.06,65.84,10.12,66.16z"/>
	<path class="st4" d="M70.77,27.57c-3.37-2.22-7.4-3.24-11.41-3.62c-1.55-0.15-3.15-0.2-4.62,0.3c-1.48,0.5-2.82,1.64-3.16,3.16
		c-0.54,2.38,1.54,4.65,3.84,5.47c2.3,0.82,4.81,0.66,7.23,1.01c3.82,0.56,7.44,2.48,10.04,5.34c2.72,2.98,5.42,0.57,4.74-2.89
		C76.74,32.91,73.58,29.42,70.77,27.57z"/>
</g>
<g>
	<path class="st0" d="M145.1,41c-0.56,7.6-3.76,14.77-7.59,21.36c-3.22,5.54-6.98,10.86-11.81,15.06c-8.59,7.48-20.77,11-31.81,8.21
		C82.85,82.84,73.52,73.36,71.9,62.09c-1.49-10.38,3.23-20.62,8.69-29.57c7.73-12.67,19.05-25.28,33.87-26.08
		C132.22,5.49,146.35,24.13,145.1,41z"/>
	<path class="st1" d="M80.31,32.22c-5.46,8.95-10.18,19.19-8.69,29.57c0.26,1.78,0.72,3.5,1.33,5.17
		c1.42-6.61,4.65-12.99,8.21-18.83c7.73-12.67,19.05-25.28,33.87-26.08c13.68-0.74,25.19,10.16,29.19,22.92
		c0.28-1.41,0.48-2.83,0.59-4.27c1.24-16.87-12.88-35.51-30.63-34.56C99.36,6.94,88.04,19.55,80.31,32.22z"/>
	<path class="st2" d="M96.62,55.52c3.1-15.36,5.92-29.99,14.28-43.64c2.24-3.65,5.83-7.49,10.02-6.63c1.6,0.33,2.98,1.31,4.29,2.29
		c2.85,2.11,14.65,8.34,16.03,16.54c0,0-6.41,2.23-8.87,3.5c-6.88,3.56-13.14,8.76-18.92,13.85C110,44.47,97.4,51.08,96.62,55.52z"
		/>
	<path class="st3" d="M123.49,34.54c-5.72,4.09-11.38,8.26-16.98,12.53c-2.1,1.6-4.2,3.21-6.14,5.01
		c-6.35,5.85-10.85,13.39-15.27,20.81c4.86-10.85,12.36-20.37,20.95-28.58s18.28-15.19,28.14-21.83c1.14-0.77,2.38-1.56,3.75-1.56
		c1.24,0,4.41,1.55,3.88,3.16c-0.39,1.18-4.8,2.16-5.92,2.7C131.5,28.89,127.46,31.7,123.49,34.54z"/>
	<path class="st3" d="M114.95,10.2c1.47-1.94,3.08-3.83,5.17-5.07c-1.75-0.89-3.84,0.23-5.32,1.51
		c-4.98,4.34-7.59,10.73-10.03,16.88c-1.64,4.12-3.28,8.26-4.35,12.56c-0.87,3.52-1.35,7.11-2.02,10.67
		c-0.61,3.24-1.88,6.34-2.56,9.49c1.77-1.44,1.99-4,2.41-6.08c0.72-3.49,1.55-6.96,2.53-10.39c1.94-6.76,4.46-13.37,7.79-19.58
		C110.44,16.71,112.56,13.36,114.95,10.2z"/>
	<path class="st4" d="M103.28,81.14c3.9-1.03,7.34-3.36,10.3-6.09c1.14-1.06,2.25-2.21,2.86-3.64c0.61-1.43,0.66-3.19-0.25-4.46
		c-1.41-1.99-4.5-1.95-6.64-0.79c-2.14,1.17-3.7,3.15-5.57,4.71c-2.97,2.48-6.81,3.89-10.67,3.93c-4.04,0.04-4.04,3.66-1,5.45
		C95.32,82.03,100.03,82,103.28,81.14z"/>
</g>
<g class="st5">
	<path class="st6" d="M-9.32,24.04c-2.31,17.8,2.37,36.41,12.83,51.01c3.7,5.17,8.41,10.05,14.52,11.82
		c10.08,2.92,21.02-3.88,25.92-13.15c4.9-9.28,5.02-20.31,4.1-30.76c-2.18-24.59-9.59-48.71-21.59-70.28
		C24.91-30.1,4.42-9.76,3.34-8.23C-3.38,1.3-7.83,12.46-9.32,24.04z"/>
	<path class="st7" d="M17.79,86.58c-6.11-1.77-10.82-6.65-14.52-11.82C-7.19,60.17-11.87,41.55-9.56,23.75
		c0.58-4.49,1.61-8.91,3.04-13.2c-1.01,17.58,2.37,35.41,9.84,51.36C-1.17,39.71,6.13,16.95,14.25-4.2
		c-5.62,26.88-7.6,55.86,3.63,80.92c-3-23.98-3.07-48.33-0.19-72.33c1.86,21.55,4.37,43.04,7.52,64.44
		c1.94-5.21,2.53-10.81,2.96-16.35c0.89-11.38,1.22-22.81,0.98-34.23C33.21,32.8,35.18,47.92,35,63.02
		c1.88-6.89,2.44-14.07,2.8-21.21c0.66-12.88,0.75-25.87-1.41-38.59c-1.85-10.9-5.41-21.64-11.28-30.96
		c0.55-0.18,0.94-0.16,1.1,0.14C38.22-6.04,45.63,18.08,47.81,42.67c0.93,10.45,0.8,21.48-4.1,30.76S27.87,89.5,17.79,86.58z"/>
</g>
<g class="st5">
	<path class="st6" d="M53.84,22.74c-17.82,2.13-34.72,11.23-46.3,24.94C3.43,52.54-0.15,58.3-0.36,64.66
		c-0.36,10.48,8.92,19.43,19.11,21.9c10.19,2.48,20.92-0.11,30.82-3.57c23.31-8.14,44.87-21.24,62.83-38.17
		c2.31-2.18-22.43-17.05-24.19-17.72C77.33,22.92,65.42,21.35,53.84,22.74z"/>
	<path class="st7" d="M-0.15,64.36C0.07,58,3.64,52.24,7.75,47.38c11.58-13.71,28.48-22.81,46.3-24.94
		c4.49-0.54,9.03-0.62,13.54-0.29C50.3,25.48,33.85,33.13,20.21,44.28c20.42-9.8,44.28-8.3,66.78-5.62
		C59.55,39.81,30.97,45,9.43,62.04c22.51-8.79,46.11-14.83,70.08-17.92C59.07,51.2,38.85,58.91,18.88,67.21
		c5.52,0.6,11.1-0.2,16.58-1.14c11.26-1.93,22.41-4.41,33.42-7.45c-13.1,7.5-27.28,13.12-41.96,16.65
		c7.15,0.13,14.24-1.09,21.25-2.48c12.65-2.52,25.26-5.62,37.06-10.83c10.11-4.46,19.65-10.55,27.25-18.53
		c0.31,0.49,0.38,0.87,0.14,1.1C94.65,61.46,73.09,74.55,49.79,82.7c-9.9,3.46-20.63,6.05-30.82,3.57S-0.51,74.85-0.15,64.36z"/>
</g>
<g>
	<path class="st8" d="M-188.57,285.84c-0.19-5.99-0.3-12.09,1.29-17.87c3.2-11.63,13.25-20.63,24.67-24.52
		c11.42-3.88,24.02-3.15,35.67-0.02c6.1,1.64,12.04,3.91,17.67,6.77c5.8,2.95,11.48,6.73,14.71,12.37
		c3.97,6.94,3.39,16.23-1.43,22.61c-2.74,3.63-6.85,6.36-11.38,6.84c-4.86,0.51-9.61-1.53-13.94-3.79
		c-4.33-2.26-8.66-4.84-13.5-5.53c-4.84-0.69-10.44,1.07-12.56,5.48c-1.52,3.16-1.07,7.19-3.32,9.88c-1.53,1.83-4.04,2.35-6.33,3.03
		C-178.62,307.57-188.47,289.07-188.57,285.84z"/>
	<path class="st9" d="M-97.9,257.85c0.79,6.13-3.98,12.31-9.85,14.79c-4.48,1.89-9.62,2.19-14.29,0.84
		c-2.92-0.85-5.63-2.31-8.47-3.41c-7.01-2.7-16.02-2.66-20.88,3.06c-1.63,1.92-2.63,4.29-4.01,6.41
		c-4.23,6.47-12.34,10.17-19.99,9.13c-5.19-0.71-9.98-3.57-13.27-7.62c0-0.01-0.01-0.01-0.01-0.02c0.01,1.51,0.05,3.01,0.1,4.51
		c0.1,3.23,9.95,21.73,31.57,15.26c2.29-0.68,4.79-1.2,6.33-3.03c2.25-2.69,1.8-6.72,3.32-9.88c2.12-4.41,7.72-6.17,12.56-5.48
		c4.84,0.69,9.17,3.27,13.5,5.53c4.33,2.26,9.08,4.31,13.94,3.79c4.53-0.48,8.64-3.2,11.38-6.84c4.81-6.39,5.4-15.67,1.43-22.61
		C-95.49,260.66-96.62,259.19-97.9,257.85z"/>
</g>
</svg>
