<?xml version="1.0" encoding="utf-8"?>
<!-- Generator: Adobe Illustrator 25.4.1, SVG Export Plug-In . SVG Version: 6.00 Build 0)  -->
<svg version="1.1" id="Layer_1" xmlns="http://www.w3.org/2000/svg" xmlns:xlink="http://www.w3.org/1999/xlink" x="0px" y="0px"
	 viewBox="0 0 373.52 230.59" style="enable-background:new 0 0 373.52 230.59;" xml:space="preserve">
<style type="text/css">
	.st0{fill:#F2D4BD;}
	.st1{fill:#E1C6B3;}
	.st2{fill:#FCE9E2;}
	.st3{fill:#DCC1AF;}
	.st4{fill:#B5B568;}
	.st5{opacity:0.53;fill:#FFFFFF;}
</style>
<g>
	<g>
		<path class="st0" d="M296.22,31c-28.69-3.02-60.08,5.99-88.34,10.31c-14.7,2.25-29.51,4.14-44.39,4.48
			c-1.42,0.03-7.86-0.03-15.25-0.31c-7.39,0.28-13.83,0.34-15.25,0.31c-14.89-0.33-29.69-2.22-44.39-4.48
			C60.33,36.99,28.94,27.98,0.25,31c-1.53,27.65,4.2,58.81,13.27,84.93c8.6,24.79,23.79,48.21,46.34,61.64
			c7.4,4.41,15.55,7.74,21.97,13.47c6.42,5.74,8.26,13.05,7.95,22.99c5.41,23.26,115.28,17.01,116.92,0
			c-0.52-9,1.53-17.25,7.95-22.99c6.42-5.74,14.57-9.07,21.97-13.47c22.54-13.43,37.74-36.85,46.34-61.64
			C292.02,89.81,297.75,58.64,296.22,31z"/>
		<path class="st1" d="M296.22,31c-27.46-2.89-57.39,5.23-84.68,9.73c0.45,10.25-0.14,20.72-2.37,31.68
			c-7.55,37.06-33.19,71.89-69.4,82.83c-14.86,4.49-30.72,4.87-46.13,3.01c-26.79-3.24-52.71-13.32-74.74-28.89
			c9.02,19.61,22.53,37.25,40.95,48.22c7.4,4.41,15.55,7.74,21.97,13.47c6.42,5.74,8.26,13.05,7.95,22.99
			c5.41,23.26,115.28,17.01,116.91,0c-0.52-9,1.53-17.25,7.95-22.99c6.42-5.74,14.57-9.07,21.97-13.47
			c22.54-13.43,37.74-36.85,46.34-61.64C292.02,89.81,297.75,58.65,296.22,31z"/>
		<ellipse class="st2" cx="148.23" cy="30.39" rx="148.23" ry="28.95"/>
		<ellipse class="st3" cx="148.23" cy="30.39" rx="142.06" ry="24.45"/>
		<path class="st4" d="M152.87,35.27c-47.86,0-90.19,4.07-115.93,10.32c26.02,5.64,66.2,9.26,111.3,9.26
			c47.86,0,90.19-4.07,115.93-10.32C238.14,38.89,197.96,35.27,152.87,35.27z"/>
		<path class="st5" d="M29.89,69.38c-2.56,7.16-0.99,15.09,1.1,22.4c2.57,9,5.9,17.78,9.94,26.22c2.85,5.96,6.44,12.11,12.43,14.9
			c3.81,1.77,9.26,1.41,11.12-2.36c0.58-1.18,0.72-2.52,0.75-3.84c0.23-11.22-6.98-21.16-9.58-32.08
			c-1.88-7.9-1.41-16.53-5.31-23.66c-1.34-2.44-3.25-4.69-5.82-5.77C39.46,63.05,31.89,63.78,29.89,69.38z"/>
		<path class="st1" d="M305.75,48.26c7.38-3.93,15.82-5.52,24.18-5.75c10.01-0.28,19.55,3.07,28.34,7.88
			c20.99,11.47,17.17,41.86,7.3,53.02c-8.25,9.33-18.74,16.84-30.72,20.27c-13.32,3.81-27.87,3.11-40.48,8.84
			c-4,1.82-7.7,4.24-11.18,6.92c-2.26,1.74-4.47,3.6-7.09,4.72c-2.62,1.12-5.78,1.38-8.22-0.09c-2.83-1.71-3.98-5.33-3.77-8.62
			c0.34-5.34,3.67-10.16,7.95-13.36c4.28-3.21,9.45-5,14.61-6.37c17.84-4.75,37.03-5.18,53.55-13.41c3.79-1.89,7.46-4.23,10.14-7.51
			c5.96-7.3,5.93-18.09,2.41-26.84c-0.94-2.33-2.12-4.61-3.85-6.44c-2.58-2.73-6.2-4.26-9.85-5.16c-6.1-1.51-12.59-1.43-18.66,0.23
			c-4.49,1.23-8.92,3.46-11.53,7.32c-3.26,4.83-3.03,11.1-4.11,16.83c-0.37,1.96-0.94,3.94-2.21,5.47
			c-2.79,3.36-7.83,3.42-12.18,3.2c-1.51-0.08-3.12-0.19-4.3-1.13c-1.27-1-1.73-2.7-1.98-4.3c-1.17-7.52,0.59-14.31,5.55-19.89
			C294.95,58.09,298.38,52.18,305.75,48.26z"/>
		<path class="st0" d="M345.24,55.33c1.2,0.63,2.42,1.35,3.77,1.39c1.35,0.03,2.85-0.93,2.83-2.28c-0.02-1.44-1.56-2.3-2.9-2.81
			c-5.87-2.26-12.05-3.67-18.31-4.22c-4.8-0.42-13.3-1.47-17.69,0.91c-1.56,0.85-4.52,5.78-1.9,6.89c1.26,0.53,5.35-2.03,6.72-2.44
			c2.75-0.83,5.6-1.33,8.46-1.5C332.76,50.89,339.43,52.25,345.24,55.33z"/>
		<path class="st0" d="M288.07,122.69c-0.3,1.34,0.56,2.83,1.86,3.25c1.07,0.35,2.23,0.03,3.27-0.39c2.73-1.09,5.15-2.79,7.76-4.15
			c10.61-5.51,23.46-4.83,34.47-9.51c0.7-0.3,1.42-0.64,1.87-1.26c0.45-0.61,0.52-1.58-0.06-2.08c-0.4-0.35-0.99-0.39-1.52-0.36
			c-2.56,0.12-4.97,1.18-7.35,2.14c-7.86,3.18-16.08,5.44-24.46,6.72c-3.06,0.47-6.22,0.81-9.14,1.89
			C292.93,119.64,288.55,120.53,288.07,122.69z"/>
	</g>
</g>
</svg>
