<?xml version="1.0" encoding="utf-8"?>
<!-- Generator: Adobe Illustrator 25.4.1, SVG Export Plug-In . SVG Version: 6.00 Build 0)  -->
<svg version="1.1" id="Layer_1" xmlns="http://www.w3.org/2000/svg" xmlns:xlink="http://www.w3.org/1999/xlink" x="0px" y="0px"
	 viewBox="0 0 205.23 313.34" style="enable-background:new 0 0 205.23 313.34;" xml:space="preserve">
<style type="text/css">
	.st0{fill:#61453F;}
	.st1{fill:#446C4A;}
	.st2{opacity:0.27;fill:#FFFFFF;}
	.st3{fill:#ADD14A;}
	.st4{fill:#9BB23F;}
</style>
<g>
	<path class="st0" d="M172.48,109.07c0,0,15.97-17.25,21.91-27.84c5.95-10.6,10.96-31.87,10.96-31.87l-8.99-3.38
		c0,0-0.1,16.09-7.28,29.96c-5.02,9.69-20.25,29.5-20.25,29.5L172.48,109.07z"/>
	<path class="st1" d="M189.07,75.93c0,0,1.36-28.8-11.93-44.21c-17.79-20.63-37.92-31.37-37.92-31.37s-7.61,30.42,4.48,49.03
		c12.08,18.62,41.38,33.28,41.38,33.28L189.07,75.93z"/>
	<path class="st2" d="M173.89,45.31c-0.06,0.42-0.15,0.86-0.45,1.16c-0.39,0.39-1.06,0.46-1.67,0.4c-2.07-0.2-4.03-1.5-5.48-3.07
		c-1.45-1.56-2.5-3.39-3.64-5.15c-2.67-4.1-5.95-7.91-9.68-11.25c-1.32-1.18-2.74-2.35-3.59-3.83c-2.68-4.64,2.69-5.94,6.47-5.34
		c3.53,0.56,5.35,2.72,7.51,5.37C168.41,29.8,174.97,37.54,173.89,45.31z"/>
	<path class="st3" d="M50.21,301.66c-44.16-17.1-60.24-79.28-44.06-111.49c25.05-49.87,65.1-25.74,84.63-49.71
		c19.53-23.97,46.5-69.51,84.36-51.67c41.16,19.4,33.54,38.65,15.7,80.2c-26.06,60.7,14.98,63.36-16.54,115.03
		C153.21,318.6,95.52,319.2,50.21,301.66z"/>
	<path class="st4" d="M190.85,168.98c16.52-38.47,24.27-57.83-7.35-75.89c2.48,12.99-4.19,28.96-13.86,51.48
		c-26.06,60.7,14.98,63.36-16.54,115.03C132,294.2,74.31,294.8,29.01,277.25c-5.73-2.22-10.99-5.21-15.77-8.78
		c8.43,14.64,20.82,26.93,36.98,33.19c45.31,17.55,102.99,16.95,124.09-17.64C205.83,232.34,164.79,229.68,190.85,168.98z"/>
	<path class="st2" d="M29.27,188.82c-3.55,5.79-5.12,13.43-1.77,19.33c3.8,6.7,12.85,8.96,20.32,7.03
		c7.46-1.92,13.62-7.1,19.17-12.44c5.55-5.35,10.91-11.11,17.72-14.73c9.09-4.83,22.52-9.74,16.15-22.58
		c-3.89-7.83-10.02-7.65-17.69-6.51C65.93,161.5,38.49,173.82,29.27,188.82z"/>
	<path class="st2" d="M109.62,139.07c-2.25,3.22-3.41,7.83-1.04,10.96c2.72,3.59,8.56,3.04,12.15,0.32
		c3.59-2.71,5.71-6.89,8.37-10.52c4.52-6.15,17.77-18.02,3.72-21.3C121.23,115.82,114.96,131.43,109.62,139.07z"/>
</g>
</svg>
