<?xml version="1.0" encoding="utf-8"?>
<!-- Generator: Adobe Illustrator 25.4.1, SVG Export Plug-In . SVG Version: 6.00 Build 0)  -->
<svg version="1.1" id="Layer_1" xmlns="http://www.w3.org/2000/svg" xmlns:xlink="http://www.w3.org/1999/xlink" x="0px" y="0px"
	 viewBox="0 0 180.96 182.04" style="enable-background:new 0 0 180.96 182.04;" xml:space="preserve">
<style type="text/css">
	.st0{fill:#34B24A;}
	.st1{fill:#3B9E47;}
	.st2{fill:#6CBE45;}
	.st3{fill:#A3CF5D;}
</style>
<g>
	<path class="st0" d="M145.92,18.89L1,119.06c14.58,20.46,80.06,31.81,98.55-12.87c32.02-77.38,79.49-96.08,79.49-96.08l-6.66-9.51
		L145.92,18.89z"/>
	<path class="st1" d="M150.63,24.05L32.01,153.93c18.83,16.69,60.46,1.3,93.14-34.48c30.09-32.95,42.1-71.71,29.31-90.89
		c10.24-13.44,26.47-20.43,26.47-20.43l-8.64-7.78L150.63,24.05z"/>
	<g>
		<path class="st2" d="M149.07,139.95c5.97,7.23,4.91,17.9-2.37,23.83c-7.28,5.93-18.03,4.88-24-2.35
			c-5.97-7.23-4.91-17.9,2.37-23.83C132.35,131.66,143.09,132.72,149.07,139.95z"/>
		<path class="st3" d="M136.03,139.78c4.92,2.49-3.99,2.16-6.5,7.04c-2.5,4.89,2.35,13.14-2.57,10.65
			c-4.92-2.49-6.88-8.46-4.37-13.35C125.09,139.24,131.11,137.29,136.03,139.78z"/>
	</g>
	<g>
		<path class="st2" d="M146.27,57.66c6.8,6.12,7.31,16.55,1.15,23.3c-6.16,6.75-16.67,7.26-23.46,1.14
			c-6.8-6.12-7.31-16.55-1.14-23.3C128.97,52.05,139.48,51.54,146.27,57.66z"/>
		<path class="st3" d="M133.69,59.35c5.1,1.7-3.54,2.64-5.25,7.71c-1.71,5.06,4.15,12.33-0.95,10.63c-5.1-1.7-7.84-7.18-6.13-12.24
			C123.07,60.38,128.59,57.65,133.69,59.35z"/>
	</g>
	<g>
		<path class="st2" d="M123.27,86.66c7.85,7.07,8.45,19.12,1.32,26.92c-7.12,7.8-19.26,8.39-27.11,1.32
			c-7.85-7.07-8.44-19.13-1.32-26.92C103.28,80.18,115.42,79.59,123.27,86.66z"/>
		<path class="st3" d="M108.73,88.62c5.89,1.96-4.09,3.05-6.06,8.9c-1.98,5.85,4.8,14.24-1.1,12.28c-5.89-1.96-9.07-8.3-7.09-14.15
			C96.46,89.81,102.84,86.65,108.73,88.62z"/>
	</g>
	<g>
		<path class="st2" d="M66.28,138.11c4.53,4.08,4.87,11.04,0.76,15.54c-4.11,4.5-11.12,4.84-15.65,0.76
			c-4.53-4.08-4.88-11.04-0.77-15.54C54.74,134.37,61.75,134.03,66.28,138.11z"/>
		<path class="st3" d="M57.89,139.24c3.4,1.13-2.36,1.76-3.5,5.14c-1.14,3.38,2.77,8.22-0.63,7.09c-3.4-1.13-5.23-4.79-4.09-8.17
			C50.81,139.92,54.49,138.1,57.89,139.24z"/>
	</g>
	<g>
		<path class="st2" d="M152.74,38.74c3.23,2.91,3.47,7.86,0.54,11.07c-2.93,3.21-7.92,3.45-11.15,0.54
			c-3.23-2.91-3.47-7.86-0.55-11.07C144.52,36.07,149.51,35.83,152.74,38.74z"/>
		<path class="st3" d="M146.76,39.54c2.42,0.81-1.68,1.26-2.49,3.66c-0.81,2.41,1.97,5.86-0.45,5.05c-2.42-0.81-3.72-3.41-2.91-5.82
			C141.71,40.03,144.34,38.73,146.76,39.54z"/>
	</g>
	<g>
		<path class="st2" d="M119.83,167.96c2.76,3.35,2.27,8.28-1.1,11.03c-3.37,2.74-8.34,2.26-11.1-1.09
			c-2.76-3.35-2.27-8.28,1.1-11.03C112.09,164.13,117.06,164.61,119.83,167.96z"/>
		<path class="st3" d="M113.79,167.88c2.27,1.15-1.85,1-3.01,3.26c-1.16,2.26,1.09,6.08-1.19,4.93c-2.28-1.15-3.18-3.92-2.02-6.18
			C108.73,167.63,111.52,166.73,113.79,167.88z"/>
	</g>
	<g>
		<path class="st2" d="M174.85,153.59c3.93,4.76,3.24,11.79-1.56,15.7c-4.79,3.91-11.87,3.22-15.81-1.55
			c-3.93-4.76-3.24-11.79,1.56-15.7C163.83,148.14,170.91,148.83,174.85,153.59z"/>
		<path class="st3" d="M166.26,153.48c3.24,1.64-2.63,1.42-4.28,4.64c-1.65,3.22,1.55,8.66-1.7,7.02c-3.24-1.64-4.53-5.58-2.88-8.79
			C159.05,153.13,163.02,151.85,166.26,153.48z"/>
	</g>
</g>
</svg>
