<?xml version="1.0" encoding="utf-8"?>
<!-- Generator: Adobe Illustrator 25.4.1, SVG Export Plug-In . SVG Version: 6.00 Build 0)  -->
<svg version="1.1" id="Layer_1" xmlns="http://www.w3.org/2000/svg" xmlns:xlink="http://www.w3.org/1999/xlink" x="0px" y="0px"
	 viewBox="0 0 129.33 184.74" style="enable-background:new 0 0 129.33 184.74;" xml:space="preserve">
<style type="text/css">
	.st0{fill:#A4BC3A;}
	.st1{fill:#AB9732;}
	.st2{fill:#B36E29;}
	.st3{fill:#824D20;}
	.st4{fill:#1F223E;}
	.st5{fill:#50567F;}
</style>
<g>
	<g>
		<path class="st0" d="M95.33,25.96c0,0,1.64-20.44-18.54-25.96C75,18.39,85.92,25.67,95.33,25.96z"/>
		<path class="st1" d="M76.79,0c0,0,14.97,15.14,18.54,25.96C95.33,25.96,96.97,5.52,76.79,0z"/>
	</g>
	<g>
		<path class="st0" d="M98.6,28.08c0,0,18.66-8.51,30.73,8.58C112.65,44.61,102.08,36.82,98.6,28.08z"/>
		<path class="st1" d="M129.33,36.66c0,0-19.33-8.91-30.73-8.58C98.6,28.08,117.26,19.57,129.33,36.66z"/>
	</g>
	<g>
		<path class="st2" d="M74.56,60.69c0,0,12.5-36.78,38.42-47.35c6.61,0,3.85,5.06,3.85,5.06s-22.62,8.7-37.79,44.35
			C79.04,61.61,74.56,60.69,74.56,60.69z"/>
		<path class="st3" d="M82.96,42.83c-5.63,9.72-8.39,17.85-8.39,17.85s4.48,0.92,4.48,2.05c2.9-6.81,6.07-12.63,9.3-17.6
			C86.52,44.09,84.71,43.34,82.96,42.83z"/>
	</g>
	<g>
		<g>
			
				<ellipse transform="matrix(0.45 -0.893 0.893 0.45 -20.4185 142.0366)" class="st4" cx="105.11" cy="87.6" rx="20.72" ry="19.14"/>
			<path class="st5" d="M102.22,67.66c-2.63,9.22,1.06,19.02,9.31,23.17c3.88,1.95,8.16,2.34,12.21,1.43
				c2.63-9.22-1.06-19.02-9.31-23.17C110.56,67.13,106.28,66.75,102.22,67.66z"/>
		</g>
		<g>
			
				<ellipse transform="matrix(0.45 -0.893 0.893 0.45 -23.4698 106.2955)" class="st4" cx="74.56" cy="72.2" rx="20.72" ry="19.14"/>
			<path class="st5" d="M71.68,52.27c-2.63,9.22,1.06,19.02,9.31,23.17c3.88,1.95,8.16,2.34,12.21,1.43
				c2.63-9.22-1.06-19.02-9.31-23.17C80.01,51.74,75.73,51.36,71.68,52.27z"/>
		</g>
		<g>
			<path class="st4" d="M62.7,66.22c-5.15,10.22-16.98,14.65-26.42,9.89c-9.44-4.76-12.92-16.9-7.77-27.12
				c5.15-10.22,16.98-14.65,26.42-9.89C64.37,43.86,67.85,56,62.7,66.22z"/>
			<path class="st5" d="M42.72,37.67c-2.63,9.22,1.06,19.02,9.31,23.17c3.88,1.95,8.16,2.34,12.21,1.43
				c2.63-9.22-1.06-19.02-9.31-23.17C51.05,37.14,46.77,36.76,42.72,37.67z"/>
		</g>
		<g>
			<path class="st4" d="M123.19,126.97c-5.15,10.22-16.98,14.65-26.42,9.89c-9.44-4.76-12.92-16.9-7.77-27.12
				s16.98-14.65,26.42-9.89C124.86,104.6,128.34,116.75,123.19,126.97z"/>
			<path class="st5" d="M103.2,98.42c-2.63,9.22,1.06,19.02,9.31,23.17c3.88,1.95,8.16,2.34,12.21,1.43
				c2.63-9.22-1.06-19.02-9.31-23.17C111.54,97.89,107.26,97.51,103.2,98.42z"/>
		</g>
		<g>
			<path class="st4" d="M36.57,83.32c-5.15,10.22-16.98,14.65-26.42,9.89c-9.44-4.76-12.92-16.9-7.77-27.12s16.98-14.65,26.42-9.89
				C38.25,60.95,41.73,73.1,36.57,83.32z"/>
			<path class="st5" d="M16.59,54.77c-2.63,9.22,1.06,19.02,9.31,23.17c3.88,1.95,8.16,2.34,12.21,1.43
				c2.63-9.22-1.06-19.02-9.31-23.17C24.93,54.24,20.65,53.86,16.59,54.77z"/>
		</g>
		<g>
			<path class="st4" d="M63.36,98.46c-5.15,10.22-16.98,14.65-26.42,9.89c-9.44-4.76-12.92-16.9-7.77-27.12s16.98-14.65,26.42-9.89
				S68.51,88.24,63.36,98.46z"/>
			<path class="st5" d="M43.38,69.91c-2.63,9.22,1.06,19.02,9.31,23.17c3.88,1.95,8.16,2.34,12.21,1.43
				c2.63-9.22-1.06-19.02-9.31-23.17C51.71,69.39,47.43,69,43.38,69.91z"/>
		</g>
		<g>
			
				<ellipse transform="matrix(0.45 -0.893 0.893 0.45 -50.3661 124.4415)" class="st4" cx="75.85" cy="103.11" rx="20.72" ry="19.14"/>
			<path class="st5" d="M72.96,83.18c-2.63,9.22,1.06,19.02,9.31,23.17c3.88,1.95,8.16,2.34,12.21,1.43
				c2.63-9.22-1.06-19.02-9.31-23.17C81.3,82.65,77.02,82.27,72.96,83.18z"/>
		</g>
		<g>
			
				<ellipse transform="matrix(0.4501 -0.893 0.893 0.4501 -81.6893 77.1254)" class="st4" cx="21.77" cy="104.89" rx="20.72" ry="19.14"/>
			<path class="st5" d="M18.89,84.95c-2.63,9.22,1.06,19.02,9.31,23.17c3.88,1.95,8.16,2.34,12.21,1.43
				c2.63-9.22-1.06-19.02-9.31-23.17C27.22,84.42,22.94,84.04,18.89,84.95z"/>
		</g>
		<g>
			
				<ellipse transform="matrix(0.4501 -0.893 0.893 0.4501 -75.8219 145.8575)" class="st4" cx="80.51" cy="134.49" rx="20.72" ry="19.14"/>
			<path class="st5" d="M77.62,114.55c-2.63,9.22,1.06,19.02,9.31,23.17c3.88,1.95,8.16,2.34,12.21,1.43
				c2.63-9.22-1.06-19.02-9.31-23.17C85.96,114.03,81.68,113.64,77.62,114.55z"/>
		</g>
		<g>
			<path class="st4" d="M65.89,132.9c-5.15,10.22-16.98,14.65-26.42,9.89c-9.44-4.76-12.92-16.9-7.77-27.12
				c5.15-10.22,16.98-14.65,26.42-9.89C67.56,110.54,71.04,122.68,65.89,132.9z"/>
			<path class="st5" d="M45.91,104.36c-2.63,9.22,1.06,19.02,9.31,23.17c3.88,1.95,8.16,2.34,12.21,1.43
				c2.63-9.22-1.06-19.02-9.31-23.17C54.24,103.83,49.96,103.44,45.91,104.36z"/>
		</g>
		<g>
			<path class="st4" d="M38.38,148.07c-5.15,10.22-16.98,14.65-26.42,9.89c-9.44-4.76-12.92-16.9-7.77-27.12
				c5.15-10.22,16.98-14.65,26.42-9.89C40.06,125.7,43.54,137.85,38.38,148.07z"/>
			<path class="st5" d="M18.4,119.52c-2.63,9.22,1.06,19.02,9.31,23.17c3.88,1.95,8.16,2.34,12.21,1.43
				c2.63-9.22-1.06-19.02-9.31-23.17C26.74,118.99,22.46,118.61,18.4,119.52z"/>
		</g>
		<g>
			<path class="st4" d="M70.94,164.48c-5.15,10.22-16.98,14.65-26.42,9.89c-9.44-4.76-12.92-16.9-7.77-27.12
				c5.15-10.22,16.98-14.65,26.42-9.89C72.61,142.11,76.09,154.25,70.94,164.48z"/>
			<path class="st5" d="M50.96,135.93c-2.63,9.22,1.06,19.02,9.31,23.17c3.88,1.95,8.16,2.34,12.21,1.43
				c2.63-9.22-1.06-19.02-9.31-23.17C59.29,135.4,55.01,135.02,50.96,135.93z"/>
		</g>
		<g>
			<path class="st4" d="M41.68,172.94c-5.15,10.22-16.98,14.65-26.42,9.89c-9.44-4.76-12.92-16.9-7.77-27.12
				c5.15-10.22,16.98-14.65,26.42-9.89C43.36,150.58,46.83,162.72,41.68,172.94z"/>
			<path class="st5" d="M21.7,144.39c-2.63,9.22,1.06,19.02,9.31,23.17c3.88,1.95,8.16,2.34,12.21,1.43
				c2.63-9.22-1.06-19.02-9.31-23.17C30.04,143.86,25.76,143.48,21.7,144.39z"/>
		</g>
	</g>
</g>
</svg>
