<?xml version="1.0" encoding="utf-8"?>
<!-- Generator: Adobe Illustrator 25.4.1, SVG Export Plug-In . SVG Version: 6.00 Build 0)  -->
<svg version="1.1" id="Layer_1" xmlns="http://www.w3.org/2000/svg" xmlns:xlink="http://www.w3.org/1999/xlink" x="0px" y="0px"
	 viewBox="0 0 155.62 95.18" style="enable-background:new 0 0 155.62 95.18;" xml:space="preserve">
<style type="text/css">
	.st0{display:none;}
	.st1{display:inline;fill:#E2CC6D;}
	.st2{display:inline;fill:#CAB664;}
	.st3{display:inline;fill:#B8D879;}
	.st4{display:inline;fill:#AF9F57;}
	.st5{display:inline;opacity:0.41;fill:#FFFFFF;}
	.st6{display:inline;fill:#D99552;}
	.st7{display:inline;fill:#BB8049;}
	.st8{fill:#FDF499;}
	.st9{fill:#F4E28E;}
</style>
<g class="st0">
	<path class="st1" d="M7.97,36.5c6.04-4.65,13.51-7.05,20.98-8.58c6.28-1.29,12.74-2.04,19.1-1.24c11.3,1.42,22.05,8.15,27.32,18.24
		c5.28,10.09,4.43,23.36-2.89,32.08c-6.74,8.03-17.52,11.34-27.83,13.23c-14.6,2.69-31.55,2.65-42.02-7.86
		C-9.91,69.77-5.43,46.82,7.97,36.5z"/>
	<path class="st2" d="M44.63,90.64c10.31-1.9,21.09-5.2,27.83-13.23c1.15-1.37,2.13-2.87,2.96-4.44c-5.87,3.35-12.78,5.2-19.51,6.43
		c-14.6,2.69-31.55,2.65-42.02-7.86c-9.67-9.7-9.22-25.55-2.38-37.04c-1.24,0.73-2.43,1.53-3.57,2.41
		C-5.46,47.23-9.94,70.18,2.6,82.78C13.08,93.29,30.03,93.32,44.63,90.64z"/>
	<path class="st3" d="M51.12,62.95C37.6,70.88,24.82,78.53,9.07,81.4c-4.21,0.77-9.47,0.65-11.62-3.05
		c-0.82-1.41-1.01-3.09-1.16-4.72c-0.33-3.53-3.56-16.48,1.64-22.98c0,0,5.94,3.29,8.53,4.28c7.24,2.76,15.29,3.95,22.94,4.87
		C33.96,60.34,47.29,65.33,51.12,62.95z"/>
	<path class="st4" d="M17.57,56.91c6.86,1.54,13.75,2.98,20.66,4.31c2.59,0.5,5.2,0.99,7.82,1.24c8.6,0.83,17.22-0.84,25.69-2.5
		c-11.32,3.61-23.42,4.37-35.27,3.44c-11.85-0.93-23.51-3.5-35.03-6.42c-1.33-0.34-2.75-0.73-3.67-1.76c-0.83-0.92-1.79-4.32-0.23-5
		c1.14-0.5,4.81,2.13,5.95,2.61C8.01,54.71,12.8,55.84,17.57,56.91z"/>
	<path class="st4" d="M5.12,79.5c-2.42,0.2-4.91,0.26-7.23-0.47c0.5,1.9,2.73,2.71,4.68,2.96c6.56,0.82,13.06-1.5,19.27-3.78
		c4.16-1.53,8.34-3.06,12.26-5.14c3.2-1.69,6.2-3.73,9.3-5.61c2.82-1.71,5.98-2.82,8.78-4.42c-2.26-0.36-4.3,1.18-6.14,2.26
		c-3.08,1.8-6.22,3.49-9.43,5.04c-6.33,3.06-12.94,5.59-19.78,7.25C12.98,78.52,9.06,79.18,5.12,79.5z"/>
	<path class="st5" d="M65.77,40.91c-3.37-2.22-7.4-3.24-11.41-3.62c-1.55-0.15-3.15-0.2-4.62,0.3c-1.48,0.5-2.82,1.64-3.16,3.16
		c-0.54,2.38,1.54,4.65,3.84,5.47c2.3,0.82,4.81,0.66,7.23,1.01c3.82,0.56,7.44,2.48,10.04,5.34c2.72,2.98,5.42,0.57,4.74-2.89
		C71.74,46.25,68.58,42.76,65.77,40.91z"/>
</g>
<g class="st0">
	<path class="st1" d="M135,78.85c-0.56,7.6-3.76,14.77-7.59,21.36c-3.22,5.54-6.98,10.86-11.81,15.06
		c-8.59,7.48-20.77,11-31.81,8.21c-11.04-2.79-20.37-12.27-21.99-23.54c-1.49-10.38,3.23-20.62,8.69-29.57
		c7.73-12.67,19.05-25.28,33.87-26.08C122.12,43.33,136.24,61.97,135,78.85z"/>
	<path class="st2" d="M70.21,70.07c-5.46,8.95-10.18,19.19-8.69,29.57c0.26,1.78,0.72,3.5,1.33,5.17
		c1.42-6.61,4.65-12.99,8.21-18.83c7.73-12.67,19.05-25.28,33.87-26.08c13.68-0.74,25.19,10.16,29.19,22.92
		c0.28-1.41,0.48-2.83,0.59-4.27c1.24-16.87-12.88-35.51-30.63-34.56C89.26,44.79,77.93,57.4,70.21,70.07z"/>
	<path class="st3" d="M86.51,93.37c3.1-15.36,5.92-29.99,14.28-43.64c2.24-3.65,5.83-7.49,10.02-6.63c1.6,0.33,2.98,1.31,4.29,2.29
		c2.85,2.11,14.65,8.34,16.03,16.54c0,0-6.41,2.23-8.87,3.5c-6.88,3.56-13.14,8.76-18.92,13.85C99.9,82.32,87.3,88.93,86.51,93.37z"
		/>
	<path class="st4" d="M113.38,72.39c-5.72,4.09-11.38,8.26-16.98,12.53c-2.1,1.6-4.2,3.21-6.14,5.01
		c-6.35,5.85-10.85,13.39-15.27,20.81c4.86-10.85,12.36-20.37,20.95-28.58s18.28-15.19,28.14-21.83c1.14-0.77,2.38-1.56,3.75-1.56
		c1.24,0,4.41,1.55,3.88,3.16c-0.39,1.18-4.8,2.16-5.92,2.7C121.39,66.74,117.36,69.55,113.38,72.39z"/>
	<path class="st4" d="M104.85,48.05c1.47-1.94,3.08-3.83,5.17-5.07c-1.75-0.89-3.84,0.23-5.32,1.51
		c-4.98,4.34-7.59,10.73-10.03,16.88c-1.64,4.12-3.28,8.26-4.35,12.56c-0.87,3.52-1.35,7.11-2.02,10.67
		c-0.61,3.24-1.88,6.34-2.56,9.49c1.77-1.44,1.99-4,2.41-6.08c0.72-3.49,1.55-6.96,2.53-10.39c1.94-6.76,4.46-13.37,7.79-19.58
		C100.34,54.56,102.46,51.2,104.85,48.05z"/>
	<path class="st5" d="M93.17,118.98c3.9-1.03,7.34-3.36,10.3-6.09c1.14-1.06,2.25-2.21,2.86-3.64c0.61-1.43,0.66-3.19-0.25-4.46
		c-1.41-1.99-4.5-1.95-6.64-0.79c-2.14,1.17-3.7,3.15-5.57,4.71c-2.97,2.48-6.81,3.89-10.67,3.93c-4.04,0.04-4.04,3.66-1,5.45
		C85.21,119.88,89.92,119.84,93.17,118.98z"/>
</g>
<g class="st0">
	<path class="st6" d="M0.66,22.4c-8.72,15.69-11.25,34.72-6.93,52.14c1.53,6.17,4.11,12.45,9.13,16.35
		c8.29,6.43,20.97,4.16,28.95-2.65c7.98-6.81,12.17-17.01,15.17-27.07c7.06-23.66,9.09-48.8,5.9-73.28
		c-0.41-3.15-26.96,8.18-28.53,9.21C14.58,3.47,6.33,12.2,0.66,22.4z"/>
	<path class="st7" d="M2.75,90.54c-5.02-3.9-7.6-10.17-9.13-16.35c-4.32-17.42-1.79-36.45,6.93-52.14c2.2-3.95,4.79-7.68,7.7-11.15
		C0.81,26.87-2.63,44.69-1.59,62.27C2.44,39.98,17.64,21.53,33,4.88C17.84,27.78,5.3,53.98,6.48,81.42
		c6.07-23.4,15.01-46.05,26.55-67.28C26.8,34.84,21.18,55.74,16.21,76.79c3.73-4.12,6.34-9.11,8.79-14.1
		c5.04-10.25,9.56-20.75,13.55-31.44C36.95,46.26,33.2,61.04,27.45,75c4.3-5.71,7.46-12.18,10.44-18.68
		c5.38-11.72,10.25-23.77,12.95-36.38c2.31-10.81,2.96-22.1,0.95-32.94c0.58,0.04,0.93,0.2,0.97,0.54
		c3.19,24.48,1.16,49.63-5.9,73.28c-3,10.05-7.19,20.26-15.17,27.07S11.04,96.97,2.75,90.54z"/>
</g>
<g class="st0">
	<path class="st6" d="M96.73,35.77c-17.82,2.13-34.72,11.23-46.3,24.94c-4.11,4.86-7.68,10.62-7.89,16.98
		c-0.36,10.48,8.92,19.43,19.11,21.9c10.19,2.48,20.92-0.11,30.82-3.57c23.31-8.14,44.87-21.24,62.83-38.17
		c2.31-2.18-22.43-17.05-24.19-17.72C120.23,35.96,108.32,34.39,96.73,35.77z"/>
	<path class="st7" d="M42.75,77.4c0.22-6.36,3.79-12.12,7.89-16.98c11.58-13.71,28.48-22.81,46.3-24.94
		c4.49-0.54,9.03-0.62,13.54-0.29C93.2,38.52,76.74,46.17,63.11,57.32c20.42-9.8,44.28-8.3,66.78-5.62
		c-27.44,1.14-56.02,6.34-77.56,23.37c22.51-8.79,46.11-14.83,70.08-17.92c-20.43,7.09-40.66,14.79-60.63,23.09
		c5.52,0.6,11.1-0.2,16.58-1.14c11.26-1.93,22.41-4.41,33.42-7.45c-13.1,7.5-27.28,13.12-41.96,16.65
		c7.15,0.13,14.24-1.09,21.25-2.48c12.65-2.52,25.26-5.62,37.06-10.83c10.11-4.46,19.65-10.55,27.25-18.53
		c0.31,0.49,0.38,0.87,0.14,1.1c-17.97,16.93-39.53,30.03-62.83,38.17c-9.9,3.46-20.63,6.05-30.82,3.57S42.39,87.89,42.75,77.4z"/>
</g>
<g>
	<path class="st8" d="M139.82,93.25c-5.87,1.21-11.86,2.36-17.83,1.77c-12.01-1.17-22.59-9.53-28.37-20.13
		c-5.78-10.59-7.2-23.13-6.11-35.15c0.57-6.29,1.8-12.53,3.66-18.57c1.91-6.21,4.67-12.46,9.68-16.61c6.16-5.1,15.41-6.1,22.53-2.45
		c4.05,2.08,7.44,5.66,8.68,10.04c1.33,4.7,0.13,9.73-1.36,14.38c-1.49,4.66-3.29,9.36-3.15,14.24c0.14,4.89,2.84,10.1,7.54,11.44
		c3.37,0.96,7.27-0.17,10.3,1.59c2.06,1.2,3,3.58,4.07,5.72C159.53,79.75,142.98,92.61,139.82,93.25z"/>
	<path class="st9" d="M96.78,8.68c5.91-1.82,12.81,1.82,16.25,7.18c2.63,4.09,3.8,9.11,3.26,13.94c-0.34,3.03-1.32,5.94-1.91,8.93
		c-1.47,7.37,0.11,16.24,6.58,20.05c2.17,1.28,4.68,1.86,7,2.86c7.1,3.06,12.12,10.42,12.4,18.14c0.19,5.23-1.81,10.45-5.25,14.37
		c-0.01,0.01-0.01,0.01-0.02,0.02c1.48-0.27,2.96-0.57,4.43-0.87c3.16-0.65,19.71-13.51,9.65-33.71c-1.06-2.14-2-4.52-4.07-5.72
		c-3.03-1.76-6.93-0.63-10.3-1.59c-4.7-1.33-7.4-6.55-7.54-11.44c-0.14-4.89,1.66-9.59,3.15-14.24s2.69-9.68,1.36-14.38
		c-1.24-4.38-4.63-7.96-8.68-10.04c-7.11-3.66-16.36-2.65-22.53,2.45C99.13,5.82,97.88,7.19,96.78,8.68z"/>
</g>
<g>
	<path class="st8" d="M91.65,38.77c1.55,5.79,3.06,11.7,2.83,17.69c-0.46,12.06-8.17,23.12-18.41,29.51s-22.66,8.56-34.72,8.18
		c-6.32-0.2-12.61-1.05-18.75-2.55c-6.32-1.54-12.72-3.92-17.15-8.68C0,77.08-1.56,67.9,1.67,60.58c1.84-4.16,5.21-7.76,9.51-9.26
		c4.62-1.61,9.7-0.71,14.44,0.5c4.74,1.21,9.54,2.73,14.41,2.29c4.87-0.44,9.92-3.43,10.97-8.21c0.75-3.42-0.61-7.25,0.97-10.38
		c1.07-2.13,3.4-3.21,5.47-4.4C77,19.89,90.82,35.65,91.65,38.77z"/>
	<path class="st9" d="M9.79,86.76c-2.17-5.79,1.06-12.9,6.2-16.65c3.93-2.87,8.86-4.34,13.72-4.09c3.04,0.16,6.01,0.96,9.02,1.38
		c7.44,1.03,16.21-1.07,19.63-7.76c1.15-2.25,1.58-4.78,2.44-7.15c2.64-7.27,9.68-12.72,17.38-13.46c5.21-0.5,10.53,1.19,14.66,4.38
		c0.01,0,0.01,0.01,0.02,0.02c-0.36-1.46-0.74-2.92-1.13-4.37c-0.84-3.12-14.66-18.87-34.22-7.63c-2.07,1.19-4.39,2.27-5.47,4.4
		c-1.58,3.13-0.22,6.95-0.97,10.38c-1.05,4.77-6.1,7.77-10.97,8.21c-4.87,0.44-9.67-1.08-14.41-2.29s-9.82-2.11-14.44-0.5
		c-4.3,1.5-7.67,5.1-9.51,9.26c-3.23,7.32-1.67,16.49,3.78,22.34C6.8,84.58,8.24,85.75,9.79,86.76z"/>
</g>
</svg>
