<?xml version="1.0" encoding="utf-8"?>
<!-- Generator: Adobe Illustrator 25.4.1, SVG Export Plug-In . SVG Version: 6.00 Build 0)  -->
<svg version="1.1" id="Layer_1" xmlns="http://www.w3.org/2000/svg" xmlns:xlink="http://www.w3.org/1999/xlink" x="0px" y="0px"
	 viewBox="0 0 360.12 264.42" style="enable-background:new 0 0 360.12 264.42;" xml:space="preserve">
<style type="text/css">
	.st0{fill:#B36E29;}
	.st1{fill:#77471C;}
	.st2{opacity:0.29;fill:#FFFFFF;}
	.st3{fill:#5E3211;}
	.st4{fill:#ADD14A;}
	.st5{fill:#446C4A;}
	.st6{fill:#F9F189;}
	.st7{fill:#D0E179;}
</style>
<g>
	<g>
		<ellipse class="st0" cx="144.95" cy="116.34" rx="139.77" ry="116.34"/>
		<path class="st1" d="M261.35,180.73L261.35,180.73C92.7,221.18,34.86,139.53,15.15,73.19c-6.41,13.35-9.97,27.9-9.97,43.15
			c0,64.26,62.57,116.34,139.77,116.34C193.53,232.69,236.3,212.05,261.35,180.73z"/>
		<path class="st2" d="M58.68,24.84c19.69,46.06,89.09,80.1,171.68,80.1c18.45,0,36.24-1.7,52.96-4.85
			C273.82,43.53,215.5,0,144.95,0C112.38,0,82.45,9.3,58.68,24.84z"/>
		<path class="st3" d="M16.97,118.16c0,7.3-3.63,13.22-8.11,13.22s-8.11-5.92-8.11-13.22c0-7.3,3.63-13.22,8.11-13.22
			S16.97,110.86,16.97,118.16z"/>
	</g>
	<g>
		<path class="st0" d="M138.77,134.4c0,0,2.62,130.02,111.83,130.02S359.76,134.4,359.76,134.4H138.77z"/>
		<g>
			<ellipse class="st0" cx="249.26" cy="134.4" rx="110.49" ry="94.52"/>
			<ellipse class="st4" cx="249.26" cy="134.54" rx="102.74" ry="87.89"/>
			<path class="st5" d="M321.03,130.41l-13.25,2.14c-2.79,0.45-2.77,3,0.02,3.42l13.28,2.01c3.16,0.48,2.62,3.46-0.64,3.47
				l-13.66,0.05c-2.88,0.01-3.81,2.49-1.26,3.33l12.13,3.99c2.89,0.95,1.25,3.76-1.91,3.28l-13.27-2.04
				c-2.79-0.43-4.63,1.83-2.46,3.04l10.28,5.74c2.45,1.37-0.2,3.85-3.08,2.89l-12.11-4.02c-2.55-0.85-5.17,1.07-3.52,2.58l7.82,7.15
				c1.86,1.7-1.63,3.71-4.07,2.34l-10.25-5.76c-2.16-1.21-5.42,0.25-4.38,1.96l4.92,8.15c1.17,1.94-2.97,3.35-4.82,1.65l-7.79-7.17
				c-1.64-1.51-5.35-0.59-4.99,1.24l1.73,8.67c0.41,2.07-4.13,2.81-5.29,0.86l-4.87-8.16c-1.03-1.72-4.97-1.39-5.3,0.44l-1.57,8.69
				c-0.37,2.07-5.06,2.09-5.46,0.03l-1.68-8.68c-0.35-1.83-4.3-2.12-5.3-0.39l-4.77,8.21c-1.14,1.95-5.69,1.26-5.31-0.81l1.61-8.69
				c0.34-1.83-3.38-2.71-5-1.19l-7.69,7.24c-1.83,1.73-5.99,0.35-4.84-1.6l4.81-8.2c1.01-1.73-2.27-3.16-4.41-1.92l-10.17,5.86
				c-2.42,1.4-5.94-0.58-4.1-2.3l7.73-7.23c1.63-1.52-1.02-3.41-3.56-2.54l-12.06,4.14c-2.87,0.98-5.55-1.47-3.12-2.86l10.2-5.84
				c2.15-1.23,0.29-3.47-2.5-3.02l-13.24,2.17c-3.15,0.52-4.83-2.28-1.96-3.26l12.08-4.11c2.54-0.87,1.58-3.33-1.3-3.31l-13.66,0.08
				c-3.25,0.02-3.84-2.96-0.68-3.47l13.25-2.14c2.79-0.45,2.77-3-0.02-3.42l-13.28-2.01c-3.16-0.48-2.62-3.46,0.64-3.47l13.66-0.05
				c2.88-0.01,3.81-2.49,1.26-3.33l-12.13-3.99c-2.89-0.95-1.25-3.76,1.91-3.28l13.27,2.04c2.79,0.43,4.63-1.83,2.46-3.04
				l-10.28-5.74c-2.45-1.37,0.2-3.85,3.08-2.89l12.11,4.02c2.55,0.85,5.17-1.07,3.52-2.58l-7.82-7.15c-1.86-1.7,1.63-3.71,4.07-2.34
				l10.25,5.76c2.16,1.21,5.42-0.25,4.38-1.96l-4.92-8.15c-1.17-1.94,2.97-3.36,4.82-1.65l7.79,7.17c1.64,1.51,5.35,0.59,4.99-1.24
				l-1.73-8.67c-0.41-2.07,4.13-2.81,5.29-0.86l4.87,8.16c1.03,1.72,4.97,1.39,5.3-0.44l1.57-8.69c0.37-2.07,5.06-2.09,5.46-0.03
				l1.68,8.68c0.35,1.83,4.3,2.12,5.3,0.39l4.77-8.21c1.14-1.95,5.69-1.26,5.31,0.81l-1.61,8.69c-0.34,1.83,3.38,2.71,5,1.19
				l7.69-7.24c1.83-1.73,5.99-0.35,4.84,1.6l-4.81,8.2c-1.01,1.73,2.27,3.16,4.41,1.92l10.17-5.86c2.42-1.4,5.94,0.58,4.1,2.3
				l-7.73,7.23c-1.63,1.52,1.02,3.41,3.56,2.54l12.06-4.14c2.87-0.98,5.55,1.47,3.12,2.86l-10.2,5.84c-2.15,1.23-0.29,3.47,2.5,3.02
				l13.24-2.17c3.15-0.52,4.83,2.28,1.96,3.26l-12.08,4.11c-2.54,0.87-1.58,3.33,1.3,3.31l13.66-0.08
				C323.61,126.92,324.19,129.9,321.03,130.41z"/>
			<path class="st6" d="M282.23,134.54c0,10.85-10.28,19.65-22.97,19.65h-20.01c-12.68,0-22.97-8.8-22.97-19.65l0,0
				c0-10.85,10.28-19.65,22.97-19.65h20.01C271.95,114.89,282.23,123.69,282.23,134.54L282.23,134.54z"/>
			<g>
				<path class="st7" d="M249.7,51.81c0,0-3.29,13.78-0.43,25.33C252.13,88.7,256.02,56.83,249.7,51.81z"/>
				<path class="st7" d="M266.72,79.65c0,0,0.69-18.64,7.24-23.76C280.51,50.78,266.72,79.65,266.72,79.65z"/>
				<path class="st7" d="M282.23,86.26c0,0,4.63-18.22,12.16-22.24C301.93,60.01,282.23,86.26,282.23,86.26z"/>
				<path class="st7" d="M294.07,93.96c0,0,8.03-17.34,16.23-20.25C318.49,70.79,294.07,93.96,294.07,93.96z"/>
				<path class="st7" d="M308.23,102.74c0,0,10.22-14.46,17.3-16.36C332.61,84.49,308.23,102.74,308.23,102.74z"/>
				<path class="st7" d="M315.19,112.23c0,0,14.66-11.33,22.08-11.4C344.68,100.76,315.19,112.23,315.19,112.23z"/>
				<path class="st7" d="M321.93,123.48c0,0,15.9-6.79,22.98-4.38C352,121.52,321.93,123.48,321.93,123.48z"/>
				<path class="st7" d="M326.3,138.14c0,0,16.58-5.47,23.36-2.49C356.44,138.63,326.3,138.14,326.3,138.14z"/>
				<path class="st7" d="M231.81,79.65c0,0-0.69-18.64-7.24-23.76C218.01,50.78,231.81,79.65,231.81,79.65z"/>
				<path class="st7" d="M216.29,86.26c0,0-4.63-18.22-12.16-22.24C196.6,60.01,216.29,86.26,216.29,86.26z"/>
				<path class="st7" d="M204.46,93.96c0,0-8.03-17.34-16.23-20.25C180.04,70.79,204.46,93.96,204.46,93.96z"/>
				<path class="st7" d="M190.3,102.74c0,0-10.22-14.46-17.3-16.36C165.92,84.49,190.3,102.74,190.3,102.74z"/>
				<path class="st7" d="M183.34,112.23c0,0-14.66-11.33-22.08-11.4C153.85,100.76,183.34,112.23,183.34,112.23z"/>
				<path class="st7" d="M176.6,123.48c0,0-15.9-6.79-22.98-4.38C146.53,121.52,176.6,123.48,176.6,123.48z"/>
				<path class="st7" d="M172.23,138.14c0,0-16.58-5.47-23.36-2.49C142.09,138.63,172.23,138.14,172.23,138.14z"/>
			</g>
			<g>
				<path class="st7" d="M249.7,217.26c0,0-3.29-13.78-0.43-25.33C252.13,180.37,256.02,212.24,249.7,217.26z"/>
				<path class="st7" d="M266.72,189.42c0,0,0.69,18.64,7.24,23.76C280.51,218.29,266.72,189.42,266.72,189.42z"/>
				<path class="st7" d="M282.23,182.81c0,0,4.63,18.22,12.16,22.24C301.93,209.06,282.23,182.81,282.23,182.81z"/>
				<path class="st7" d="M294.07,175.12c0,0,8.03,17.34,16.23,20.25C318.49,198.28,294.07,175.12,294.07,175.12z"/>
				<path class="st7" d="M308.23,166.34c0,0,10.22,14.46,17.3,16.36C332.61,184.58,308.23,166.34,308.23,166.34z"/>
				<path class="st7" d="M315.19,156.85c0,0,14.66,11.33,22.08,11.4C344.68,168.31,315.19,156.85,315.19,156.85z"/>
				<path class="st7" d="M321.93,145.59c0,0,15.9,6.79,22.98,4.38C352,147.55,321.93,145.59,321.93,145.59z"/>
				<path class="st7" d="M231.81,189.42c0,0-0.69,18.64-7.24,23.76C218.01,218.29,231.81,189.42,231.81,189.42z"/>
				<path class="st7" d="M216.29,182.81c0,0-4.63,18.22-12.16,22.24C196.6,209.06,216.29,182.81,216.29,182.81z"/>
				<path class="st7" d="M204.46,175.12c0,0-8.03,17.34-16.23,20.25C180.04,198.28,204.46,175.12,204.46,175.12z"/>
				<path class="st7" d="M190.3,166.34c0,0-10.22,14.46-17.3,16.36C165.92,184.58,190.3,166.34,190.3,166.34z"/>
				<path class="st7" d="M183.34,156.85c0,0-14.66,11.33-22.08,11.4C153.85,168.31,183.34,156.85,183.34,156.85z"/>
				<path class="st7" d="M176.6,145.59c0,0-15.9,6.79-22.98,4.38C146.53,147.55,176.6,145.59,176.6,145.59z"/>
			</g>
		</g>
		<path class="st1" d="M148.22,185.02c12.1,36.51,39.66,79.41,102.38,79.41c15.94,0,29.53-2.78,41.16-7.51
			C212.33,249.45,168.06,209.3,148.22,185.02z"/>
		<path class="st2" d="M249.26,39.88c-33.68,0-63.82,12.91-84.08,33.23c20.01,51.25,97,89.44,188.99,89.44c0.2,0,0.4-0.01,0.6-0.01
			c3.23-8.89,4.98-18.34,4.98-28.14C359.76,82.2,310.29,39.88,249.26,39.88z"/>
	</g>
</g>
</svg>
