<?xml version="1.0" encoding="utf-8"?>
<!-- Generator: Adobe Illustrator 25.4.1, SVG Export Plug-In . SVG Version: 6.00 Build 0)  -->
<svg version="1.1" id="Layer_1" xmlns="http://www.w3.org/2000/svg" xmlns:xlink="http://www.w3.org/1999/xlink" x="0px" y="0px"
	 viewBox="0 0 241.49 149.13" style="enable-background:new 0 0 241.49 149.13;" xml:space="preserve">
<style type="text/css">
	.st0{fill:#F9B3A9;}
	.st1{fill:#F6926B;}
	.st2{fill:#F47A5E;}
	.st3{opacity:0.38;fill:#FFFFFF;}
	.st4{display:none;}
	.st5{display:inline;fill:#4A4A4A;}
	.st6{display:inline;fill:#303030;}
	.st7{display:inline;fill:#D2783D;}
	.st8{display:inline;fill:#EF8447;}
	.st9{display:inline;fill:#B26336;}
	.st10{display:inline;fill:#93512E;}
	.st11{display:inline;opacity:0.25;fill:#FFFFFF;}
</style>
<g>
	<path class="st0" d="M83.75,144.4c5.62-1.52,10.95-4.65,14.09-9.57c5.44-8.52,3.12-20.42-2.46-29.24
		c-5.58-8.82-13.88-15.46-21.33-22.74c-5.58-5.44-10.82-11.41-14.33-18.38c-3.52-6.97-5.21-15.07-3.45-22.51
		c1.76-7.44,7.35-14.01,14.71-15.66c3.97-0.89,8.19-0.36,12.2,0.67c2.89,0.74,6.18,1.69,8.61,0.07c3.52-2.35,2.44-7.86,0.98-12
		c-1.13-3.18-2.36-6.53-4.93-8.71c-1.71-1.46-3.86-2.25-5.98-2.92C68.89-0.67,54.81-0.91,42.17,3.28
		C29.53,7.48,18.43,16.2,11.81,27.84C1.58,45.83,2.86,69.26,11.42,88.79c7.78,17.75,20.87,32.5,35.23,45.17
		C56.77,142.89,70.77,147.9,83.75,144.4z"/>
	<g>
		<path class="st1" d="M83.49,91.86c-0.48,0.55-1.04,1.02-1.68,1.39c-2.47,1.42-5.51,1.34-8.32,1.87c-2.81,0.53-5.84,2.12-6.28,5
			c-0.15,0.96,0.02,1.97-0.14,2.92c-0.57,3.38-4.57,4.52-7.41,6.32c-3.25,2.07-5.4,5.79-5.62,9.73c-0.16,2.88,0.28,6.54-2.21,7.85
			c3.1,1.47,6.18-2,6.96-5.3c0.78-3.3,0.72-7.15,3.09-9.49c4.07-4.01,11.89-0.46,16.29-4.09c1.92-1.59,2.69-4.19,4.19-6.2
			c2.29-3.08,4.9-3.49,7.64-3.32C87.94,96.22,85.74,94.02,83.49,91.86z"/>
		<path class="st1" d="M38.85,17.8c-0.55,2.03-1.1,4.06-1.66,6.09c-0.25,0.93-0.5,1.98-0.02,2.85c1.07,1.96,3.89,0.8,6.03,0.45
			c2.85-0.46,5.67,1.11,8.21,2.63c2.76,1.65,5.53,3.3,8.29,4.95c2.72-4.05,6.72-7.14,11.45-8.2c0.41-0.09,0.83-0.17,1.25-0.23
			c-2.32-0.67-4.89-0.54-6.96-1.83c-2.59-1.62-3.8-5.14-6.62-6.28c-2.89-1.17-5.89,0.7-8.83,1.52C46.29,20.78,42.1,20.05,38.85,17.8
			z"/>
		<path class="st1" d="M55.79,46.64c-0.69-0.13-1.36-0.34-2.02-0.62c-2.43-1.04-5.05-2.96-7.36-1.84c-1.8,0.88-2.42,3.29-4.18,4.26
			c-2.78,1.54-6.25-1.37-9.41-0.92c-2.77,0.39-4.47,3.18-6.94,4.47c-2.66,1.39-5.94,0.9-8.86,1.66c-2.92,0.76-5.64,4.14-3.87,6.71
			c3.01-3.24,9.09-2.64,11.67,1.16c3.16-5.2,10.61-7.05,16.03-3.98c2.09,1.18,4.27,3.06,6.51,2.42c1.15-0.33,2-1.27,2.88-2.08
			c1.72-1.6,3.81-2.87,6.1-3.35C55.84,51.9,55.63,49.25,55.79,46.64z"/>
		<path class="st1" d="M59.89,64.73c-0.23-0.46-0.45-0.92-0.66-1.38c-0.17,0.01-0.34,0.02-0.51,0.04c-4.6,0.53-6.57,5.9-9.6,9.36
			c-2.71,3.09-6.88,5.17-8.01,9.18c-0.9,3.2,0.35,7.16-1.7,9.73c-1.29,1.61-3.54,2.15-4.9,3.71c-1.09,1.25-1.45,2.99-1.67,4.66
			c-0.63,4.87-0.3,9.9,0.95,14.71c1.52,0.27,2.79-1.24,3.04-2.77c0.25-1.53-0.19-3.1-0.29-4.66c-0.28-4.32,2.25-8.59,6.11-10.28
			c1.33-0.58,2.82-0.9,3.93-1.83c1.76-1.48,2.09-4.04,2.89-6.22c2.38-6.5,10.29-10.12,16.87-7.74c1.2,0.44,2.48,1.05,3.67,0.68
			c0.7-0.22,1.24-0.75,1.77-1.28C67.13,75.87,62.88,70.67,59.89,64.73z"/>
	</g>
	<path class="st2" d="M141.75,33.54c-5.4-2.82-10.14-7.01-13.63-12.07c-0.72-1.04-1.4-2.13-2.36-2.94c-1.01-0.85-2.26-1.34-3.49-1.8
		c-5.83-2.22-11.66-4.43-17.49-6.65c2.28-1.29,4.89-2,7.54-2.05c-11.73-3.38-23.65-5.99-35.66-7.81c-2.47-0.37-5.44-0.53-6.9,1.47
		c-1.06,1.45-0.86,3.5-0.5,5.32c1.32,6.48,4.79,15.64,10.02,20.1c4.99,4.26,13.93,6.25,20.08,7.69
		C113.41,38.09,128.19,37.74,141.75,33.54z"/>
	<path class="st3" d="M88.56,129.26c-0.22-3.14-3.23-5.61-6.29-6.13c-3.07-0.52-6.13,0.47-8.94,1.69c-2.81,1.21-5.56,2.67-8.6,3.15
		c-4.35,0.69-8.86-0.72-12.82-2.87s-7.5-5.02-11.23-7.57c-0.85-0.58-2.08-1.11-2.74-0.37c-0.26,0.3-0.34,0.72-0.36,1.12
		c-0.17,3.36,2.64,6.13,5.27,8.27c5.53,4.5,11.51,8.66,18.24,10.75C67.09,139.19,89.29,139.58,88.56,129.26z"/>
</g>
<g>
	<path class="st0" d="M130.75,147.47c5.49,1.95,11.65,2.4,17.03,0.13c9.31-3.91,14.18-15.02,14.6-25.45
		c0.42-10.43-2.62-20.61-4.62-30.83c-1.49-7.65-2.41-15.53-1.35-23.27c1.07-7.73,4.28-15.36,9.96-20.48
		c5.68-5.12,14.01-7.35,21.01-4.52c3.78,1.53,6.94,4.36,9.65,7.48c1.96,2.26,4.12,4.9,7.05,4.95c4.23,0.07,6.48-5.08,7.63-9.32
		c0.88-3.26,1.77-6.71,0.9-9.97c-0.58-2.17-1.89-4.05-3.26-5.8c-8.36-10.72-19.8-18.92-32.58-22.66s-26.87-2.88-38.93,2.94
		c-18.64,8.99-30.91,28.99-34.97,49.92c-3.69,19.02-1.31,38.6,3.3,57.19C109.42,130.89,118.08,142.98,130.75,147.47z"/>
	<g>
		<path class="st1" d="M160.41,104.11c-0.71,0.18-1.44,0.25-2.18,0.18c-2.84-0.24-5.29-2.02-7.91-3.19
			c-2.61-1.17-6.01-1.58-8.01,0.54c-0.67,0.71-1.1,1.63-1.78,2.33c-2.39,2.45-6.33,1.12-9.69,0.99c-3.85-0.14-7.73,1.69-10.16,4.81
			c-1.77,2.27-3.49,5.54-6.28,5.21c1.71,2.97,6.22,1.86,8.74-0.41c2.52-2.27,4.65-5.47,7.94-6.05c5.62-0.98,10.04,6.38,15.72,5.89
			c2.48-0.21,4.6-1.92,6.97-2.72c3.64-1.23,6.01-0.09,8.17,1.61C161.59,110.22,161.04,107.16,160.41,104.11z"/>
		<path class="st1" d="M165.79,17.8c-1.61,1.36-3.22,2.71-4.83,4.07c-0.74,0.62-1.53,1.35-1.64,2.33c-0.23,2.23,2.75,2.87,4.71,3.8
			c2.61,1.24,4.03,4.14,5.26,6.83c1.34,2.93,2.67,5.86,4.01,8.79c4.54-1.78,9.59-2.06,14.09-0.24c0.39,0.16,0.78,0.33,1.16,0.52
			c-1.53-1.88-3.72-3.22-4.69-5.46c-1.21-2.81-0.21-6.39-1.88-8.93c-1.71-2.6-5.25-2.77-8.13-3.77
			C170.22,24.48,167.18,21.49,165.79,17.8z"/>
		<path class="st1" d="M163.33,51.15c-0.49-0.5-0.93-1.05-1.31-1.65c-1.41-2.23-2.47-5.31-5.01-5.7c-1.98-0.3-3.86,1.33-5.86,1.13
			c-3.16-0.32-4.36-4.68-7.22-6.11c-2.5-1.25-5.49,0.07-8.25-0.27c-2.98-0.37-5.4-2.64-8.24-3.67c-2.83-1.03-6.99,0.2-7,3.32
			c4.32-0.95,8.98,3,8.94,7.59c5.55-2.48,12.74,0.23,15.45,5.84c1.05,2.16,1.77,4.94,3.99,5.69c1.14,0.39,2.37,0.1,3.55-0.08
			c2.32-0.34,4.77-0.19,6.93,0.71C160.38,55.51,161.71,53.21,163.33,51.15z"/>
		<path class="st1" d="M156.41,68.37c0.07-0.51,0.15-1.01,0.24-1.51c-0.15-0.09-0.29-0.18-0.44-0.26
			c-4.08-2.18-8.75,1.12-13.22,2.24c-3.99,1-8.6,0.34-11.81,3c-2.56,2.13-3.78,6.09-6.93,7.03c-1.98,0.6-4.14-0.24-6.14,0.27
			c-1.6,0.41-2.89,1.63-4.02,2.89c-3.29,3.65-5.88,7.97-7.58,12.64c1.1,1.09,3,0.57,4.07-0.55c1.07-1.12,1.61-2.66,2.41-4
			c2.22-3.72,6.74-5.78,10.87-4.98c1.42,0.28,2.83,0.86,4.27,0.73c2.28-0.22,4.01-2.13,5.91-3.47c5.65-3.99,14.22-2.48,18.27,3.23
			c0.74,1.04,1.44,2.27,2.64,2.64c0.71,0.22,1.44,0.09,2.18-0.05C156.04,81.65,155.51,74.96,156.41,68.37z"/>
	</g>
	<path class="st2" d="M241.49,89.25c-2.84-5.39-4.35-11.53-4.35-17.68c0-1.26,0.06-2.54-0.27-3.76c-0.35-1.28-1.1-2.39-1.85-3.47
		c-3.54-5.14-7.07-10.27-10.61-15.41c2.61,0.23,5.16,1.13,7.37,2.6c-7.73-9.45-16.05-18.37-24.9-26.7
		c-1.82-1.71-4.18-3.52-6.51-2.71c-1.7,0.59-2.7,2.39-3.43,4.09c-2.6,6.08-4.95,15.59-3.19,22.23c1.68,6.34,7.91,13.06,12.15,17.74
		C215.6,76.88,227.95,84.99,241.49,89.25z"/>
	<path class="st3" d="M143.32,137.76c1.6-2.71,0.53-6.45-1.69-8.62c-2.23-2.17-5.31-3.09-8.31-3.69c-3-0.6-6.1-0.96-8.87-2.3
		c-3.97-1.91-6.88-5.63-8.92-9.65c-2.04-4.02-3.32-8.39-4.94-12.61c-0.37-0.96-1.08-2.1-2.05-1.86c-0.38,0.09-0.69,0.4-0.93,0.72
		c-2.05,2.67-1.31,6.54-0.36,9.8c1.99,6.85,4.55,13.67,8.89,19.21C120.01,133.72,138.05,146.65,143.32,137.76z"/>
</g>
<g class="st4">
	<path class="st5" d="M1.78,41.67C1.48,51.31,4.85,60.79,9.91,69c11.6,18.8,31.99,31.25,53.59,35.89c21.6,4.64,44.3,1.99,65.39-4.59
		c31.31-9.77,61.16-28.27,93.93-26.86c1.59,0.07,3.51,0.02,4.32-1.34c1.04-1.74-0.67-3.82-2.31-5.02
		c-5.13-3.75-11.01-6.32-16.88-8.76C156.65,37.03,102.11,24.4,47.14,16.47c-7.24-1.04-14.55-2.01-21.84-1.44
		c-7.41,0.58-12.83,1.68-17.32,7.87C4.06,28.31,1.98,35.01,1.78,41.67z"/>
	<path class="st6" d="M230.59,69.83c0.91-2.54-1.13-5.12-3.1-6.97c-5.18-4.85-10.96-9.02-16.89-12.91
		c-20.29-13.32-96.71-39.7-115.77-42.7C73.38,3.87,51.16,0.53,30.2,6.2c-6.06,1.64-12.04,4.09-16.78,8.2
		c-4.75,4.11-8.16,10.07-8.14,16.35c0.01,4.06,1.42,7.98,3.05,11.7c5.34,12.18,13.55,23.38,24.72,30.61
		c12.4,8.04,27.58,10.69,42.36,10.98c24.48,0.48,48.62-5.02,72.72-9.36c24.1-4.34,48.98-7.52,72.94-2.47
		C224.57,72.95,229.38,73.22,230.59,69.83z"/>
	<path class="st7" d="M105.39,76.72c-9.23,2.4-19.04,1.78-28.35-0.3c-6.4-1.43-12.81-3.63-17.89-7.78
		c-5.08-4.15-8.67-10.55-8.12-17.09c0.41-4.81,2.95-9.18,5.9-12.99c3.94-5.08,8.81-9.54,14.56-12.42c4.26-2.13,8.94-3.36,13.66-4.01
		c13.07-1.78,26.36,0.86,39.03,4.53c8.52,2.47,16.91,5.42,25.05,8.97c5.76,2.51,11.47,5.38,16.15,9.57
		c2.28,2.04,4.33,4.45,5.34,7.33c1.01,2.88,0.83,6.31-1.04,8.73c-1.78,2.31-4.72,3.36-7.54,4.1c-12.32,3.25-25.37,2.82-37.74,5.91
		c-7.88,1.96-15.53,5.36-23.64,5.6L105.39,76.72z"/>
	<path class="st8" d="M58.35,37.01c-2.2,3.24-3.85,7.17-3.1,11.02c0.43,2.2,1.62,4.19,3.03,5.93c4.02,4.96,9.99,8.17,16.26,9.38
		c6.27,1.21,12.82,0.51,18.91-1.42c6.66-2.12,12.79-5.66,19.44-7.83c5.72-1.87,11.79-2.68,17.8-2.4c8.12,0.39,16.23,2.76,24.28,1.56
		c1.4-0.21,2.86-0.56,3.91-1.51c1.3-1.18,1.74-3.11,1.43-4.84c-0.31-1.73-1.27-3.28-2.4-4.62c-2.6-3.1-6.1-5.31-9.71-7.15
		c-13.56-6.9-28.94-9.04-43.74-12.56c-8-1.9-16.98-4.49-25.07-1.55C71.27,23.98,63.19,29.86,58.35,37.01z"/>
	<path class="st9" d="M85.73,70.32c3.99-0.15,7.99-0.65,11.85-1.67c4.12-1.08,8.07-2.74,12.08-4.17c5.2-1.86,10.56-3.35,16.05-3.92
		c12.31-1.28,24.78,2.16,37.07,0.68c1.97-0.24,3.98-0.62,5.64-1.7c1.66-1.08,2.92-2.99,2.7-4.96c0.08,3.03-0.28,6.78-3.07,7.97
		c-0.62,0.26-1.3,0.36-1.98,0.44c-8.86,1.12-17.86,1.14-26.72,0.08c-3.79-0.46-7.59-1.11-11.41-0.92
		c-5.24,0.26-10.26,2.09-15.24,3.73c-4.51,1.49-9.08,2.84-13.67,4.05c-8.12,2.14-16.56,3.84-24.87,2.71
		c-8.32-1.13-16.59-5.56-20.43-13.03c-0.88-1.72-1.53-3.72-0.99-5.58c-0.3,1.04,0.89,3.53,1.43,4.39c1.01,1.64,1.24,0.91,2.4,1.74
		c2.84,2.04,4.95,4.5,8.18,6.12C71.16,69.53,78.6,70.58,85.73,70.32z"/>
	<path class="st10" d="M116.2,65.6c-0.21,0.31-0.39,0.65-0.42,1.02c-0.06,0.74,0.48,1.41,1.13,1.77c1.22,0.68,2.71,0.5,4.09,0.27
		c3.04-0.52,18.95-3.58,11.14-8.83C128.17,57.17,118.51,62.15,116.2,65.6z"/>
	<path class="st11" d="M84.46,26.25c-4.05,1.65-7.5,4.47-10.88,7.25c-2.49,2.06-5,4.12-7.1,6.58c-2.12,2.47-3.83,6.04-2.21,8.85
		c1.4,2.41,4.81,3.04,7.4,2.01c2.59-1.03,4.47-3.32,5.93-5.69c1.47-2.37,2.66-4.94,4.47-7.06c3.42-4,8.7-5.98,13.92-6.61
		c5.22-0.64,10.5-0.09,15.76,0.11c0.76,0.03,1.56,0.05,2.25-0.28c3.56-1.67-2.21-4.48-3.72-4.87c-2.51-0.64-5.29-0.88-7.85-1.32
		C96.49,24.2,90.18,23.92,84.46,26.25z"/>
	<path class="st11" d="M122.13,33c2.52,0.72,5.04,1.43,7.63,1.88c1.65,0.28,3.58,0.36,4.73-0.86c0.16-0.17,0.31-0.38,0.32-0.61
		c0.01-0.35-0.26-0.64-0.53-0.86c-2.61-2.23-6.57-3.78-10.06-3.64C121.48,29,117.74,31.75,122.13,33z"/>
</g>
<g class="st4">
	<path class="st5" d="M123.96,138.19c-0.25,9.43,2.82,18.29,7.42,25.71c10.55,17.01,29.05,26.83,48.65,28.9
		c19.59,2.07,40.16-3.08,59.27-11.89c28.37-13.07,55.39-34.49,85.1-36.84c1.44-0.11,3.18-0.38,3.92-1.8
		c0.94-1.82-0.62-3.65-2.11-4.63c-4.66-3.07-9.99-4.92-15.31-6.62c-46.54-14.93-96.01-21.06-145.85-22.55
		c-6.56-0.2-13.19-0.31-19.8,1.07c-6.72,1.4-11.63,3.09-15.68,9.64C126.01,124.91,124.13,131.68,123.96,138.19z"/>
	<path class="st6" d="M331.45,139.68c0.82-2.58-1.03-4.87-2.82-6.44c-4.71-4.14-9.95-7.55-15.34-10.67
		c-18.42-10.68-87.74-27.73-105.03-28.49c-19.45-0.86-39.6-1.6-58.59,6.31c-5.49,2.29-10.9,5.35-15.2,9.89
		c-4.3,4.54-7.38,10.74-7.35,16.86c0.02,3.96,1.3,7.62,2.78,11.06c4.87,11.27,12.33,21.25,22.46,27.04
		c11.26,6.43,25.02,7.29,38.42,5.9c22.19-2.31,44.07-10.41,65.91-17.37s44.39-12.89,66.12-10.68
		C326,143.4,330.35,143.12,331.45,139.68z"/>
	<path class="st7" d="M217.95,160.6c-8.37,3.38-17.26,3.9-25.7,2.92c-5.81-0.67-11.62-2.08-16.23-5.56
		c-4.61-3.47-7.88-9.3-7.39-15.74c0.36-4.73,2.65-9.28,5.33-13.33c3.57-5.4,7.97-10.3,13.18-13.76c3.86-2.56,8.1-4.29,12.38-5.46
		c11.85-3.22,23.9-2.16,35.39-0.01c7.73,1.44,15.34,3.37,22.72,5.91c5.23,1.8,10.41,3.94,14.66,7.5c2.07,1.73,3.93,3.84,4.85,6.54
		c0.92,2.7,0.76,6.06-0.92,8.63c-1.61,2.45-4.27,3.81-6.83,4.86c-11.17,4.56-23,5.63-34.21,10.04c-7.14,2.81-14.07,6.98-21.42,8.14
		L217.95,160.6z"/>
	<path class="st8" d="M175.24,127.23c-1.99,3.41-3.47,7.43-2.79,11.09c0.39,2.1,1.47,3.9,2.76,5.44c3.66,4.38,9.07,6.83,14.76,7.3
		c5.69,0.47,11.63-0.95,17.14-3.53c6.03-2.82,11.59-6.97,17.61-9.84c5.19-2.47,10.68-3.95,16.13-4.35
		c7.37-0.54,14.72,0.85,22.01-1.23c1.27-0.36,2.59-0.87,3.54-1.92c1.18-1.29,1.57-3.23,1.29-4.88c-0.28-1.65-1.16-3.05-2.19-4.23
		c-2.36-2.73-5.54-4.49-8.82-5.87c-12.3-5.19-26.25-5.53-39.68-7.28c-7.25-0.95-15.4-2.45-22.73,1.33
		C186.93,113.06,179.61,119.71,175.24,127.23z"/>
	<path class="st9" d="M200.12,156.59c3.62-0.6,7.24-1.54,10.74-2.97c3.73-1.52,7.31-3.58,10.94-5.43c4.71-2.4,9.56-4.47,14.54-5.64
		c11.16-2.64,22.47-0.7,33.61-3.54c1.78-0.45,3.6-1.06,5.11-2.3c1.51-1.24,2.64-3.24,2.43-5.14c0.07,2.95-0.24,6.64-2.77,8.11
		c-0.57,0.33-1.18,0.5-1.79,0.66c-8.03,2.09-16.19,3.14-24.23,3.11c-3.44-0.01-6.89-0.22-10.34,0.39c-4.75,0.85-9.3,3.2-13.81,5.37
		c-4.09,1.96-8.22,3.8-12.39,5.5c-7.36,3-15,5.62-22.55,5.46c-7.54-0.16-15.05-3.53-18.54-10.38c-0.8-1.58-1.39-3.45-0.91-5.32
		c-0.27,1.05,0.81,3.34,1.3,4.12c0.92,1.48,1.13,0.74,2.18,1.42c2.58,1.67,4.5,3.82,7.42,5.04
		C186.91,157.47,193.65,157.65,200.12,156.59z"/>
	<path class="st10" d="M227.74,148.53c-0.19,0.33-0.35,0.68-0.38,1.04c-0.06,0.73,0.44,1.32,1.03,1.59c1.11,0.52,2.46,0.18,3.71-0.2
		c2.76-0.85,17.17-5.64,10.08-9.87C238.57,138.96,229.83,144.91,227.74,148.53z"/>
	<path class="st11" d="M198.89,113.77c-3.67,2.07-6.79,5.21-9.85,8.31c-2.26,2.29-4.53,4.59-6.43,7.22
		c-1.91,2.64-3.47,6.32-1.98,8.88c1.27,2.19,4.37,2.42,6.72,1.12c2.35-1.3,4.04-3.74,5.37-6.22c1.33-2.48,2.4-5.11,4.04-7.39
		c3.09-4.28,7.88-6.81,12.61-8.03c4.73-1.21,9.52-1.28,14.29-1.68c0.69-0.06,1.41-0.13,2.04-0.53c3.22-2.03-2.01-4.12-3.38-4.32
		c-2.28-0.34-4.79-0.26-7.12-0.39C209.79,110.42,204.07,110.86,198.89,113.77z"/>
	<path class="st11" d="M233.05,116.08c2.29,0.41,4.58,0.82,6.92,0.96c1.5,0.09,3.25-0.05,4.29-1.37c0.15-0.19,0.28-0.4,0.29-0.63
		c0.01-0.34-0.24-0.59-0.48-0.78c-2.37-1.88-5.97-2.94-9.13-2.41C232.46,112.26,229.08,115.36,233.05,116.08z"/>
</g>
</svg>
