<?xml version="1.0" encoding="utf-8"?>
<!-- Generator: Adobe Illustrator 25.4.1, SVG Export Plug-In . SVG Version: 6.00 Build 0)  -->
<svg version="1.1" id="Layer_1" xmlns="http://www.w3.org/2000/svg" xmlns:xlink="http://www.w3.org/1999/xlink" x="0px" y="0px"
	 viewBox="0 0 209.95 171.99" style="enable-background:new 0 0 209.95 171.99;" xml:space="preserve">
<style type="text/css">
	.st0{fill:#1D8F45;}
	.st1{fill:#BCC0CE;}
	.st2{fill:#DCD3B0;}
	.st3{fill:#EBE3C3;}
	.st4{fill:#26AF4B;}
	.st5{fill:#FFFFFF;fill-opacity:0.72;}
	.st6{fill:#FFFFFF;}
</style>
<g>
	<rect x="85.57" y="157.5" class="st0" width="37.92" height="14.49"/>
	<path class="st0" d="M207.01,40.79c-0.62-2.96-18.94,9.72-20.21,11.19c-0.29,0.34-0.57,0.68-0.82,1.02
		c-2.63-4.51-1.63-5.23-2.49-15.43c-0.34-4.03-1.08-8.78-4.82-10.33c-4.89-2.01-10.52,2.82-15.54,1.14
		c-4.02-1.35-5.56-6.04-7.52-9.81c-2.51-4.8-6.54-8.8-11.37-11.26c-1.33,3.97-3.98,8.47-8.86,7.82
		c-7.63-0.98-7.29-13.47-15.46-13.63c-6.32-0.13-5.57,9.18-18.09,9.43c0,0,0,0-0.01,0c-0.01,0-0.01,0-0.02-0.01
		c-4.22-1.5-4.55-2.41-6.32-3.9c-2.6-2.19-5.18-5.79-8.9-5.71C78.4,1.48,78.73,13.96,71.1,14.95c-4.88,0.63-7.53-3.85-8.86-7.83
		c-4.83,2.47-8.86,6.47-11.37,11.27c-1.96,3.76-3.5,8.46-7.52,9.8c-5.02,1.69-10.65-3.15-15.54-1.14c-7.65,3.15-3.5,14.63-4.8,22.38
		C20.94,47.47,3.54,35.51,2.94,38.38c-1.87,9.02-4.33,20.84-1.97,29.93c4.01,15.4,11.89,20.2,11.89,20.2
		c1.96,39.64,41.82,71.31,90.76,71.43c49.9,0,88.74-31.87,91.28-70.44c0,0,11.62-9.32,14.08-18.78
		C211.34,61.64,208.88,49.82,207.01,40.79z"/>
	<path class="st1" d="M173.61,70.5c3.15-27.32-25.36-47.66-51.99-37.98c-4.43-4.97-11.38-8.18-19.22-8.18
		c-7.25,0-13.74,2.75-18.18,7.09c-25.8-6.68-51.22,12.6-49.05,38.04c-8.09,5.93-13.31,15.1-13.31,25.42
		c0,18.45,16.74,33.65,37.4,32.24c8.78,13.13,24.81,21.92,43.14,21.92c18.55,0,34.75-9.01,43.45-22.41
		c21.64,3.89,41.62-11.12,41.62-30.96C187.47,85.37,182.01,76.26,173.61,70.5z"/>
	<path class="st2" d="M159.24,67.81c1.99-17.26-12.3-31.97-30.25-31.97c-3.84,0-7.5,0.7-10.89,1.93
		c-7.37-8.29-21.63-8.72-29.64-0.87c-2.61-0.67-5.34-1.06-8.18-1.06c-17.61,0-32.08,14-30.61,31.14
		c-6.42,4.69-10.55,11.96-10.55,20.13c0,14.61,13.26,26.64,29.6,25.52c6.95,10.39,19.64,17.35,34.15,17.35
		c14.69,0,27.5-7.13,34.4-17.74c17.13,3.08,32.95-8.8,32.95-24.51C170.21,79.59,165.89,72.37,159.24,67.81z"/>
	<path class="st3" d="M141.59,65.9c1.34-11.67-8.32-21.63-20.47-21.63c-2.6,0-5.08,0.48-7.37,1.31c-2.37-2.67-6.1-4.4-10.31-4.4
		c-3.89,0-7.37,1.48-9.75,3.81c-1.76-0.46-3.61-0.72-5.53-0.72c-11.93,0-21.71,9.48-20.71,21.07c-4.34,3.18-7.14,8.09-7.14,13.62
		c0,9.87,8.96,18.04,20.06,17.27c4.7,7.03,13.26,11.74,23.08,11.74c9.93,0,18.59-4.83,23.25-12.01c11.6,2.1,22.32-5.96,22.32-16.58
		C149.02,73.87,146.09,68.99,141.59,65.9z"/>
	<g>
		<path class="st4" d="M204.48,79.47c-2.82,23.04-23.9,63.38-45.1,73.13c-8.97,4.12-15.49,4.32-54.98,9.09
			c1.59-13.01,7.93-26.26,18.19-36.39c5.22-5.19,11.28-9.27,17.92-12.65c17.27-8.83,34.58-11.25,46.32-17.5
			C194.51,91.08,202.57,82.09,204.48,79.47z"/>
		<path class="st4" d="M104.39,161.69c-0.63-0.09-30.88-3.71-31.54-3.79c-17.93-2.14-30.53-4.08-45.29-25.3
			C17,117.45,8.93,99.88,6.7,81.79c1,2.07,8.07,9.53,15.17,13.3c0.04,0.02,0.06,0.05,0.1,0.06c8.4,4.48,17.52,6.31,30.22,10.78
			c14.19,4.95,26.35,10.89,36.19,21.62c7.98,8.69,13.15,19.25,15.25,29.5C103.9,158.37,104.18,159.99,104.39,161.69z"/>
	</g>
	<path class="st5" d="M185.89,100.93c-12.94,8.92-28.92,5.35-43.21,18.78c-4.82,4.53-5.54,10.98,7.87-0.65
		C160.67,110.3,177.23,111.14,185.89,100.93z"/>
	<path class="st5" d="M30.61,103.05c12.93,8.91,28.94,5.37,43.21,18.78c4.82,4.53,5.54,10.98-7.87-0.65
		C55.84,112.42,39.27,113.26,30.61,103.05z"/>
	<path class="st6" d="M133.27,59.17c0,4.05-4.38,7.34-9.79,7.34c-5.41,0-9.79-3.28-9.79-7.34c0-4.06,4.38-7.34,9.79-7.34
		C128.89,51.83,133.27,55.11,133.27,59.17z"/>
</g>
</svg>
