<?xml version="1.0" encoding="utf-8"?>
<!-- Generator: Adobe Illustrator 25.4.1, SVG Export Plug-In . SVG Version: 6.00 Build 0)  -->
<svg version="1.1" id="Layer_1" xmlns="http://www.w3.org/2000/svg" xmlns:xlink="http://www.w3.org/1999/xlink" x="0px" y="0px"
	 viewBox="0 0 871.35 496.52" style="enable-background:new 0 0 871.35 496.52;" xml:space="preserve">
<style type="text/css">
	.st0{fill:#EFD1A3;}
	.st1{fill:#FFE9C7;}
	.st2{opacity:0.66;fill:#FFFFFF;}
	.st3{fill:#B7D880;}
	.st4{fill:#6EC065;}
	.st5{fill:#F2D129;}
	.st6{fill:#F7EC38;}
	.st7{fill:#FFF4C6;}
	.st8{fill:#FBDF20;}
	.st9{fill:#FBEE36;}
	.st10{opacity:0.25;fill:#FFFFFF;}
	.st11{fill:#589B43;}
	.st12{fill:#79B743;}
	.st13{fill:#3A3B3A;}
	.st14{fill:#F05039;}
	.st15{fill:#EC3724;}
	.st16{fill:#DB2B27;}
	.st17{opacity:0.2;fill:#FFFFFF;}
	.st18{fill:#FFFFFF;}
</style>
<g>
	<g>
		<path class="st0" d="M862.12,339.05c0,75.07-192.99,157.46-431.06,157.46S0,414.13,0,339.05s192.99-114.4,431.06-114.4
			S862.12,263.98,862.12,339.05z"/>
		<ellipse class="st1" cx="431.06" cy="339.05" rx="431.06" ry="135.93"/>
		<path class="st2" d="M22.93,348.09c2.95,9.25,8.87,17.28,15.49,24.37c17.47,18.7,40.64,32.01,65.6,37.69
			c4.93,1.12,11.21,1.43,13.88-2.86c1.96-3.14,0.81-7.47-1.68-10.22c-2.49-2.75-6-4.29-9.4-5.77c-15.74-6.83-31.56-14.05-44.85-24.9
			c-13.29-10.85-23.96-25.88-26.13-42.89c-1.13-8.89-6.84-8.53-11.46-2.37C19.33,327.87,20.59,340.74,22.93,348.09z"/>
		<path class="st2" d="M136.93,416.53c-3.08-0.63-5.11,3.82-3.64,6.59c1.47,2.77,4.71,4.01,7.68,5.03
			c4.64,1.59,9.28,3.17,13.92,4.76c2.2,0.75,4.47,1.52,6.8,1.4c2.33-0.11,4.76-1.3,5.65-3.46c1.56-3.78-2.18-7.58-5.74-9.59
			c-7.71-4.36-16.61-6.57-25.46-6.31L136.93,416.53z"/>
		<path class="st2" d="M826.15,333.62c-2.37,2.99-2.97,6.96-3.55,10.73c-1.76,11.31-4.49,23.18-12.48,31.37
			c-5.61,5.75-13.66,9.54-16.89,16.9c-0.75,1.7-0.92,4.17,0.76,4.95c0.67,0.31,1.45,0.24,2.18,0.12
			c7.59-1.21,14.04-6.14,19.63-11.41c10.67-10.07,19.55-22.03,26.1-35.16c1.83-3.67,3.52-7.65,3.08-11.72
			C844.09,331.23,831.41,326.96,826.15,333.62z"/>
	</g>
	<path class="st3" d="M476.64,394.84c7.6,3.34,17.52,0.23,23.94,5.49c1.92,1.58,3.3,3.77,5.36,5.17c3.14,2.14,7.23,2.04,11.03,2.11
		c10.55,0.21,21.06,2.4,30.82,6.43c3.84,1.58,7.68,3.54,10.34,6.73c3.49,4.18,4.46,9.83,6.4,14.92c1.94,5.09,5.8,10.29,11.24,10.54
		c3.42,0.15,6.56-1.71,9.86-2.64c3.3-0.92,7.64-0.41,8.97,2.75c1.16,2.77-0.65,6.13,0.54,8.88c1.35,3.13,5.53,3.57,8.94,3.54
		c6.67-0.06,14.04-0.39,18.86-5c1.88-1.79,3.22-4.12,5.26-5.73c6.27-4.94,15.22-1.07,22.97,0.84c7.73,1.91,16,1.59,23.56-0.91
		c3.54-1.17,7.07-2.84,10.8-2.69c2.95,0.11,5.72,1.35,8.59,2.06c9.34,2.32,19.91-1.54,25.56-9.33c1.35-1.87,2.53-4.02,4.54-5.15
		c4.43-2.49,9.92,1.24,14.96,0.57c3.92-0.53,6.96-3.62,10.61-5.13c4.22-1.74,9-1.29,13.47-2.23c8.41-1.77,14.94-8.21,20.95-14.36
		c5.14-5.26,10.62-13.01,6.69-19.23c-1.42-2.24-3.82-3.66-6.25-4.71c-15.18-6.56-32.76-1.45-49.12-3.85
		c-17.54-2.57-32.6-13.58-49.39-19.24c-31.34-10.57-65.63-1.86-98.62-4.28c-19.56-1.44-38.6-6.81-57.98-9.78
		c-19.38-2.97-39.93-3.39-57.83,4.63C457.61,361.57,464.66,389.57,476.64,394.84z"/>
	<path class="st3" d="M75.29,383.75c-4.39,2.09-9.5,1.54-14.35,1.9C56.09,386,50.63,387.92,49,392.5
		c-1.97,5.53,2.7,11.01,6.98,15.03c3.57,3.36,7.25,6.79,11.75,8.73c4.82,2.07,11.08,2.91,13.21,7.71c0.69,1.56,0.79,3.32,1.33,4.94
		c1.85,5.54,8.22,8.11,14,8.98c5.78,0.87,11.97,0.82,16.94,3.9c1.73,1.08,3.29,2.53,5.26,3.07c3.12,0.87,6.33-0.73,9.53-1.27
		c8.26-1.38,16.19,4.43,24.56,4.27c3.05-0.06,6.06-0.91,9.1-0.77c3.77,0.16,7.28,1.8,10.76,3.25c20.61,8.54,43.72,10.95,65.64,6.83
		c4.82-0.91,10.04-2.42,12.75-6.51c1.96-2.96,2.27-6.82,4.48-9.6c4.75-5.99,14.92-3.58,20.92-8.32c6.74-5.32,4.69-16.15,8.78-23.7
		c2.7-4.99,7.83-8.08,11.88-12.06c4.04-3.98,7.14-10.23,4.41-15.2c-1.81-3.3-5.62-4.93-9.28-5.82c-14.87-3.62-30.52,1.27-45.76-0.22
		c-12.07-1.18-23.36-6.3-35.05-9.53c-14.61-4.03-30.04-5.09-45.06-3.09c-17.69,2.35-32.71,5.11-50.52,3.45
		c-6.8-0.63-12.99,0.24-19.42,2.64C87.58,372.45,83.16,380,75.29,383.75z"/>
	<path class="st3" d="M305.76,393.62c-4.19,5.64-6.91,12.71-5.91,19.66c0.25,1.73,0.72,3.5,0.25,5.18c-0.4,1.45-1.44,2.62-2.45,3.74
		c-3.54,3.91-7.07,7.81-10.61,11.72c-4.51,4.98-9.35,11.14-7.81,17.69c1.2,5.12,6.1,8.6,11.12,10.15
		c5.02,1.55,10.37,1.63,15.52,2.66c12.38,2.48,23.4,10.37,35.99,11.39c14.17,1.14,28.56-6.63,42.24-2.75
		c3.71,1.05,7.48,2.96,11.24,2.09c3.49-0.81,5.97-3.79,8.9-5.85c8.72-6.12,20.54-3.74,30.95-1.47c10.41,2.26,22.69,3.67,30.43-3.64
		c-1.06-1.73-2.69-3.09-4.58-3.82c3.13-4.77,10.62-3.65,15.34-0.43c4.72,3.21,8.62,7.99,14.15,9.44c5.45,1.43,11.18-0.74,16.81-0.44
		c6.22,0.33,11.91,3.63,18.06,4.64c6.35,1.05,13.18-0.54,18.17-4.61c4.99-4.07,7.93-10.66,7.23-17.06
		c-1.08-9.89-9.92-17.09-18.87-21.46c-8.94-4.36-18.88-7.19-26.33-13.79c-7.12-6.3-11.11-15.29-15.97-23.46
		c-5.17-8.7-11.5-16.7-18.78-23.72c-6.42-6.19-13.79-11.74-22.37-14.18c-7.82-2.22-16.12-1.74-24.23-1.23
		c-17.1,1.07-34.21,2.13-51.31,3.2c-10.27,0.64-20.68,1.31-30.42,4.63C328.33,366.69,314.59,381.74,305.76,393.62z"/>
	<path class="st4" d="M92.51,390.07c3.21,8.48,13.92,11.25,22.98,10.86c9.06-0.39,18.48-2.64,26.96,0.57
		c3.05,1.15,5.84,2.98,8.97,3.9c13.24,3.88,24.83-9.02,37.54-14.39c25.4-10.74,53.65,9.59,81.15,7.45
		c14.21-1.11,27.32-8.19,41.41-10.3c21.98-3.29,45.04,5.67,66.34-0.7c10.07-3.01,18.84-9.23,28.43-13.52
		c13.59-6.07,28.92-8.18,43.64-6c14.32,2.12,27.91,8.17,42.32,9.49c7.91,0.72,15.92,0.01,23.79,1.1c7.63,1.06,14.93,3.79,22.48,5.31
		c12.12,2.44,24.63,1.72,36.98,1.27c40.46-1.46,81.03,0.16,121.25,4.85c6.91,0.81,14.11,1.67,20.66-0.69
		c6.55-2.36,12.11-9.07,10.64-15.87c-0.72-3.35-2.96-6.14-5.13-8.79c-7.17-8.75-14.33-17.49-21.5-26.24
		c-9.83-12-19.95-24.24-33.31-32.11c-15.96-9.39-35.02-11.64-53.5-12.74c-100.41-5.98-200.09,16.03-300.21,25.71
		c-33.62,3.25-67.45,5.38-100.68,11.7c-16.5,3.14-32.85,7.31-48.57,13.28c-14.06,5.34-27.7,16.29-42.24,19.37
		C110.68,366.17,85.33,371.11,92.51,390.07z"/>
	<path class="st3" d="M64.34,279.53c-6.08-7.4-12.91-14.29-17.73-22.57s-7.46-18.47-4.31-27.52c3.15-9.05,13.46-15.84,22.53-12.77
		c4.24,1.44,8.84,4.74,12.66,2.41c2.38-1.45,3.13-4.46,4.39-6.94c3.35-6.57,11.07-9.93,18.44-10.22c7.36-0.28,14.56,1.96,21.64,3.98
		c2.73,0.78,5.61,1.54,8.36,0.85c6.35-1.58,8.52-9.71,7.62-16.19c-0.9-6.48-3.64-12.93-2.41-19.36
		c1.99-10.36,13.57-16.14,24.1-16.75c9.96-0.58,21.05,2.84,25.95,11.54c2.9,5.14,3.21,11.28,4.29,17.08
		c1.08,5.81,3.41,11.99,8.62,14.78c5.21,2.78,13.41-0.56,13.04-6.46c5.28,1.22,8.28-5.78,9.08-11.13c2.23,4.2,8.02,6.04,12.27,3.91
		c2.16-1.08,3.84-2.99,6.04-4c10.1-4.63,20.3,11.93,30.84,8.43c10.05-3.34,6.84-18.69,12.12-27.87c4.38-7.61,14.11-9.9,22.76-11.46
		c5.87-1.06,11.92-2.12,17.76-0.88c5.84,1.24,11.48,5.35,12.66,11.19c1.34,6.6-2.14,15.74,3.89,18.74c1.77,0.88,3.88,0.77,5.81,0.35
		c7.18-1.59,12.75-7.06,18.02-12.2c5.27-5.13,11.15-10.4,18.43-11.39c7.29-0.99,15.82,4.62,14.92,11.92
		c11.35,1.05,17.48-12.49,25.75-20.33c10.95-10.37,27.59-11.08,42.67-11.19c4.65-0.03,10.31,0.53,12.28,4.74
		c3.19,6.82-7.04,14.9-3.32,21.44c7.38-0.07,12.34-7.21,18.08-11.86c10.73-8.68,25.74-9.04,39.55-9.01c2.46,0.01,5.04,0.04,7.2,1.22
		c3.77,2.06,5.29,7.05,9.2,8.84c2.3,1.05,4.95,0.76,7.46,0.44c7.47-0.93,14.95-1.87,22.42-2.8c4.91-0.61,9.98-1.21,14.71,0.23
		c4.58,1.4,8.4,4.6,11.6,8.16c12.28,13.65,16.73,33.89,11.3,51.42c-6.45,20.85-25.08,35.8-44.84,45.08
		c-19.76,9.27-41.3,14.14-61.41,22.62c-28.47,12-53.54,31-81.86,43.33c-66.4,28.91-142.35,18.45-214.51,24.58
		c-33.87,2.88-57.65-10.78-89.61-17.4C94.62,320.73,81.64,300.9,64.34,279.53z"/>
	<path class="st4" d="M75.48,288.16c10.6-2.94,21.82-3.62,32.7-1.96c-2.37-2.45-3.67-5.91-3.5-9.32c3.01,4.03,8.82-0.68,13.09-3.32
		c5.18-3.2,11.7-2.86,17.77-2.42c13.59,0.99,27.19,1.98,40.78,2.98c4.31-10.29-1.85-21.65-7-31.54c-5.15-9.89-9.08-23.05-1.57-31.3
		c4.12,5.35,3.98,13.65,9.44,17.62c4.3,3.12,10.17,2.15,15.47,2.62c16.6,1.47,27.96,17.44,43.35,23.82
		c6.46,2.68,15.66,2.59,18.55-3.78c2.61-5.75-1.8-11.98-4.34-17.77c-2.54-5.78-0.79-15.2,5.5-14.66c1.39,0.12,2.67,0.77,3.85,1.51
		c7.65,4.79,12.07,13.34,18.8,19.36c6.73,6.02,18.72,8.54,23.89,1.14c1.26-1.81,2.13-4.18,4.19-4.96c1.46-0.55,3.08-0.1,4.63,0.15
		c10.23,1.63,20.67-7.99,19.88-18.32c-0.24-3.13-1.34-6.18-1.28-9.33c0.06-3.14,1.82-6.64,4.92-7.16
		c1.99,7.8,6.72,14.88,13.16,19.71c1.52,1.14,3.23,2.19,5.12,2.35c3.78,0.31,7-3.07,8.07-6.71c1.07-3.63,0.6-7.51,0.61-11.3
		c0.02-14.86,8.07-29.46,20.62-37.41c1.36-0.86,2.86-1.67,4.46-1.63c4.25,0.11,5.99,5.57,5.8,9.82c-0.19,4.25-0.86,9.24,2.32,12.06
		c2.38,2.11,5.93,2,9.09,1.77c10.75-0.77,21.49-1.54,32.24-2.31c1.63-0.12,3.39-0.21,4.79,0.63c4.17,2.49,1.36,9.87,4.89,13.21
		c5.24-5.29,10.47-10.58,15.71-15.87c1.38-1.4,2.78-2.81,4.45-3.83c1.99-1.22,4.27-1.85,6.53-2.46c2.46-0.67,4.93-1.34,7.39-2.01
		c9.54-2.59,19.12-5.19,28.92-6.47c5.39-0.71,11.09-0.97,16.06,1.23c4.14,1.83,7.39,5.19,10.24,8.71
		c8.44,10.41,14.29,22.89,16.89,36.03c1.66,8.36,1.91,17.45-2.08,24.98c-3.39,6.39-9.4,10.89-15.22,15.18
		c-38.49,28.37-78.28,57.38-124.65,69.04c-47.32,11.91-97.07,4.67-145.84,6.33c-27.1,0.92-54.08,4.62-81.2,4.88
		C148.31,337.77,84.83,331.28,75.48,288.16z"/>
	<g>
		<path class="st5" d="M100.9,179.28l130.78,131.95c0,0-55.89,39.35-114.8-18.93C60.66,236.68,100.9,179.28,100.9,179.28z"/>
		<path class="st6" d="M103.04,181.42c0,0-38.87,54.76,15.91,109.69c51.29,51.43,110.95,18.47,110.95,18.47L103.04,181.42z"/>
		<path class="st7" d="M107.41,185.79c0,0-33.44,53.48,15.67,102.05c51.45,50.9,102.91,17.83,102.91,17.83L107.41,185.79z"/>
		<path class="st8" d="M111.41,189.9c0,0-30.79,48.58,14.54,93.41c47.5,46.98,94.72,16.8,94.72,16.8L111.41,189.9z"/>
		<path class="st7" d="M161.87,240.78c-2.38,2.84-2.24,7.07,0.43,9.74c2.67,2.67,6.9,2.81,9.74,0.43L161.87,240.78z"/>
		<polygon class="st7" points="100.16,218.78 162,243.04 162.15,244.66 99.72,221 		"/>
		<polygon class="st7" points="102.82,252.21 163.33,244.96 163.77,245.7 103.42,254.28 		"/>
		<polygon class="st7" points="164.07,247.47 124.72,286.83 126.05,287.86 165.11,248.21 		"/>
		<polygon class="st7" points="167.33,249.84 163.04,309.16 165.85,309.31 168.51,249.84 		"/>
		<polygon class="st7" points="166.88,247.92 209.93,307.53 207.42,308.57 165.99,248.81 		"/>
		<g>
			<path class="st9" d="M111.68,259.99c1.9-0.31,3.69-1.07,5.55-1.55c0.65-0.17,0.39-1.18-0.27-1.01c-1.86,0.48-3.65,1.25-5.55,1.55
				C110.75,259.08,111.02,260.1,111.68,259.99L111.68,259.99z"/>
		</g>
		<g>
			<path class="st9" d="M114.34,263.54c1.37-0.3,2.69-0.9,3.9-1.6c0.58-0.34,0.06-1.25-0.52-0.91c-1.13,0.67-2.36,1.22-3.65,1.5
				C113.42,262.67,113.69,263.68,114.34,263.54L114.34,263.54z"/>
		</g>
		<g>
			<path class="st9" d="M119.45,259.77c1.34-0.45,2.67-0.9,3.9-1.6c0.58-0.34,0.07-1.25-0.52-0.91c-1.15,0.66-2.39,1.08-3.65,1.5
				C118.54,258.97,118.81,259.98,119.45,259.77L119.45,259.77z"/>
		</g>
		<g>
			<path class="st9" d="M121.57,255.94c1.52-0.63,3.13-1.04,4.76-1.28c0.67-0.1,0.39-1.11-0.27-1.01c-1.73,0.26-3.4,0.71-5.01,1.38
				C120.43,255.29,120.96,256.2,121.57,255.94L121.57,255.94z"/>
		</g>
		<g>
			<path class="st9" d="M133.51,254.01c1.35-0.02,2.65-0.42,3.99-0.44c0.67-0.01,0.68-1.06,0-1.05c-1.35,0.02-2.65,0.42-3.99,0.44
				C132.84,252.98,132.84,254.02,133.51,254.01L133.51,254.01z"/>
		</g>
		<g>
			<path class="st9" d="M127.78,260.38c1.51-0.67,2.93-1.51,4.53-1.95c0.65-0.18,0.39-1.19-0.27-1.01
				c-1.69,0.46-3.19,1.34-4.79,2.05C126.65,259.74,127.17,260.65,127.78,260.38L127.78,260.38z"/>
		</g>
		<g>
			<path class="st9" d="M120.9,267.26c1.18-0.71,2.34-1.48,3.65-1.95c0.63-0.22,0.37-1.24-0.27-1.01c-1.4,0.49-2.64,1.29-3.9,2.05
				C119.81,266.7,120.33,267.61,120.9,267.26L120.9,267.26z"/>
		</g>
		<g>
			<path class="st9" d="M120.9,272.58c1.06-0.54,2.08-1.16,3.11-1.78c0.58-0.35,0.06-1.26-0.52-0.91c-1.02,0.61-2.04,1.23-3.11,1.78
				C119.78,271.98,120.31,272.89,120.9,272.58L120.9,272.58z"/>
		</g>
		<g>
			<path class="st9" d="M124.79,276.72c0.75-0.73,1.62-1.22,2.55-1.69c0.6-0.3,0.08-1.21-0.52-0.91c-1.01,0.51-1.96,1.07-2.77,1.86
				C123.56,276.45,124.3,277.18,124.79,276.72L124.79,276.72z"/>
		</g>
		<g>
			<path class="st9" d="M130.67,266.82c1.17-0.73,2.16-1.71,3.33-2.44c0.57-0.36,0.06-1.27-0.52-0.91
				c-1.17,0.73-2.16,1.71-3.33,2.44C129.58,266.26,130.1,267.17,130.67,266.82L130.67,266.82z"/>
		</g>
		<g>
			<path class="st9" d="M139.76,258.16c1.17-0.73,2.19-1.67,3.33-2.44c0.55-0.38,0.04-1.29-0.52-0.91
				c-1.14,0.77-2.16,1.71-3.33,2.44C138.68,257.61,139.19,258.52,139.76,258.16L139.76,258.16z"/>
		</g>
		<g>
			<path class="st9" d="M141.87,252.53c0.92-0.86,2.14-1.25,3.31-1.64c0.64-0.21,0.37-1.23-0.27-1.01
				c-1.36,0.45-2.72,0.92-3.79,1.91C140.64,252.25,141.38,252.99,141.87,252.53L141.87,252.53z"/>
		</g>
		<g>
			<path class="st9" d="M151.04,250.68c0.28-0.01,0.51-0.1,0.77-0.21c0.18-0.08,0.39-0.22,0.57-0.23c0.67-0.03,0.68-1.08,0-1.05
				c-0.28,0.01-0.51,0.1-0.77,0.21c-0.18,0.08-0.39,0.22-0.57,0.23C150.37,249.67,150.37,250.71,151.04,250.68L151.04,250.68z"/>
		</g>
		<g>
			<path class="st9" d="M157.4,248.98c0.2-0.2,0.47-0.5,0.74-0.51c0.67-0.03,0.68-1.08,0-1.05c-0.6,0.03-1.07,0.41-1.48,0.82
				C156.19,248.71,156.93,249.45,157.4,248.98L157.4,248.98z"/>
		</g>
		<g>
			<path class="st9" d="M111.97,197.01c1.19,0.98,2.46,1.88,3.65,2.86c0.52,0.42,1.26-0.31,0.74-0.74
				c-1.19-0.98-2.46-1.88-3.65-2.86C112.19,195.84,111.45,196.58,111.97,197.01L111.97,197.01z"/>
		</g>
		<g>
			<path class="st9" d="M112.36,200.95c1.12,0.87,2.49,1.39,3.45,2.47c0.45,0.5,1.19-0.24,0.74-0.74c-0.97-1.09-2.32-1.58-3.45-2.47
				C112.58,199.8,111.83,200.54,112.36,200.95L112.36,200.95z"/>
		</g>
		<g>
			<path class="st9" d="M120.65,204.5c0.95,0.92,2.05,1.64,3.17,2.35c0.57,0.36,1.08-0.55,0.52-0.91c-1.04-0.66-2.06-1.33-2.95-2.18
				C120.9,203.29,120.16,204.03,120.65,204.5L120.65,204.5z"/>
		</g>
		<g>
			<path class="st9" d="M108.62,205.29c0.72,0.69,1.58,1.18,2.38,1.76c0.54,0.4,1.05-0.52,0.52-0.91c-0.72-0.53-1.51-0.97-2.16-1.59
				C108.87,204.08,108.13,204.82,108.62,205.29L108.62,205.29z"/>
		</g>
		<g>
			<path class="st9" d="M115.24,209.52c0.82,0.41,1.62,0.86,2.37,1.38c0.55,0.39,1.06-0.53,0.52-0.91
				c-0.75-0.53-1.55-0.97-2.37-1.38C115.15,208.31,114.63,209.21,115.24,209.52L115.24,209.52z"/>
		</g>
		<g>
			<path class="st9" d="M109.32,213.86c2.01,1.01,4.01,2.05,6.02,3.06c0.6,0.3,1.12-0.61,0.52-0.91c-2.01-1.01-4.01-2.05-6.02-3.06
				C109.24,212.65,108.72,213.55,109.32,213.86L109.32,213.86z"/>
		</g>
		<g>
			<path class="st9" d="M106.84,217.13c0.68,0.61,1.63,0.85,2.38,1.37c0.56,0.38,1.07-0.53,0.52-0.91c-0.39-0.26-0.8-0.47-1.22-0.68
				c-0.3-0.15-0.69-0.29-0.94-0.51C107.08,215.94,106.34,216.68,106.84,217.13L106.84,217.13z"/>
		</g>
		<g>
			<path class="st9" d="M115.93,222.64c0.97,0.4,1.89,0.89,2.86,1.28c0.61,0.25,1.14-0.65,0.52-0.91c-0.97-0.4-1.89-0.89-2.86-1.28
				C115.83,221.47,115.3,222.38,115.93,222.64L115.93,222.64z"/>
		</g>
		<g>
			<path class="st9" d="M121.04,218.31c0.77,0.75,1.69,1.32,2.47,2.07c0.48,0.47,1.23-0.27,0.74-0.74
				c-0.77-0.75-1.69-1.32-2.47-2.07C121.3,217.1,120.56,217.84,121.04,218.31L121.04,218.31z"/>
		</g>
		<g>
			<path class="st9" d="M123.23,213.76c0.69,0.49,1.38,0.99,2.07,1.48c0.55,0.39,1.06-0.52,0.52-0.91
				c-0.69-0.49-1.38-0.99-2.07-1.48C123.19,212.46,122.68,213.37,123.23,213.76L123.23,213.76z"/>
		</g>
		<g>
			<path class="st9" d="M135.95,224.31c0.79,0.6,1.58,1.22,2.47,1.68c0.6,0.31,1.12-0.6,0.52-0.91c-0.88-0.46-1.67-1.08-2.47-1.68
				C135.93,223,135.42,223.91,135.95,224.31L135.95,224.31z"/>
		</g>
		<g>
			<path class="st9" d="M145.32,231.51c0.76,0.4,1.41,0.98,2.17,1.38c0.6,0.31,1.12-0.6,0.52-0.91c-0.76-0.4-1.41-0.98-2.17-1.38
				C145.24,230.29,144.72,231.19,145.32,231.51L145.32,231.51z"/>
		</g>
		<g>
			<path class="st9" d="M131.22,225.89c0.83,0.41,1.65,0.83,2.47,1.28c0.59,0.33,1.11-0.58,0.52-0.91
				c-0.81-0.45-1.64-0.87-2.47-1.28C131.13,224.68,130.61,225.59,131.22,225.89L131.22,225.89z"/>
		</g>
		<g>
			<path class="st9" d="M104.81,227.62c1.47,0.3,2.91,0.71,4.34,1.18c0.64,0.21,0.9-0.8,0.27-1.01c-1.43-0.47-2.87-0.88-4.34-1.18
				C104.42,226.47,104.15,227.48,104.81,227.62L104.81,227.62z"/>
		</g>
		<g>
			<path class="st9" d="M109.94,232.15c1.49,0.3,2.97,0.67,4.44,1.08c0.65,0.18,0.92-0.83,0.27-1.01c-1.47-0.42-2.94-0.78-4.44-1.08
				C109.55,231.01,109.28,232.02,109.94,232.15L109.94,232.15z"/>
		</g>
		<g>
			<path class="st9" d="M115.76,230.48c0.77,0.2,1.5,0.49,2.27,0.69c0.65,0.17,0.92-0.84,0.27-1.01c-0.77-0.2-1.5-0.49-2.27-0.69
				C115.37,229.3,115.1,230.31,115.76,230.48L115.76,230.48z"/>
		</g>
		<g>
			<path class="st9" d="M121.68,235.21c0.75,0.18,1.52,0.31,2.27,0.49c0.65,0.16,0.92-0.85,0.27-1.01
				c-0.75-0.18-1.52-0.31-2.27-0.49C121.29,234.04,121.02,235.05,121.68,235.21L121.68,235.21z"/>
		</g>
		<g>
			<path class="st9" d="M128.09,235.51c0.5,0.1,1,0.21,1.51,0.21c0.68,0.01,0.67-1.04,0-1.05c-0.42-0.01-0.84-0.1-1.25-0.18
				c-0.28-0.06-0.56,0.09-0.64,0.37C127.64,235.13,127.81,235.45,128.09,235.51L128.09,235.51z"/>
		</g>
		<g>
			<path class="st9" d="M110.24,240.73c1.58,0.55,3.33,0.33,4.97,0.51c0.67,0.07,0.66-0.97,0-1.05c-1.55-0.17-3.21,0.05-4.7-0.48
				C109.86,239.5,109.6,240.51,110.24,240.73L110.24,240.73z"/>
		</g>
		<g>
			<path class="st9" d="M109.58,246.27c1.53,0.01,3.05,0.08,4.57-0.12c0.67-0.09,0.39-1.1-0.27-1.01c-1.42,0.19-2.87,0.09-4.31,0.08
				C108.91,245.23,108.91,246.27,109.58,246.27L109.58,246.27z"/>
		</g>
		<g>
			<path class="st9" d="M122.3,246.77c1.09-0.09,2.17,0,3.25,0.1c0.67,0.06,0.67-0.99,0-1.05c-1.08-0.1-2.17-0.19-3.25-0.1
				C121.63,245.78,121.63,246.82,122.3,246.77L122.3,246.77z"/>
		</g>
		<g>
			<path class="st9" d="M121.32,241.64c0.82,0.01,1.64,0.09,2.47,0.1c0.68,0,0.67-1.04,0-1.05c-0.82-0.01-1.64-0.09-2.47-0.1
				C120.64,240.59,120.64,241.63,121.32,241.64L121.32,241.64z"/>
		</g>
		<g>
			<path class="st9" d="M129.11,241.15c0.92-0.1,1.84-0.1,2.76,0c0.67,0.07,0.66-0.98,0-1.05c-0.92-0.1-1.84-0.1-2.76,0
				C128.44,240.17,128.44,241.22,129.11,241.15L129.11,241.15z"/>
		</g>
		<g>
			<path class="st9" d="M130.98,244.6c0.89-0.1,1.78-0.2,2.66-0.3c0.66-0.07,0.67-1.12,0-1.05c-0.89,0.1-1.78,0.2-2.66,0.3
				C130.32,243.62,130.31,244.67,130.98,244.6L130.98,244.6z"/>
		</g>
		<g>
			<path class="st9" d="M137,241.14c1.64,0.21,3.28,0.48,4.93,0.59c0.67,0.04,0.67-1,0-1.05c-1.65-0.11-3.29-0.38-4.93-0.59
				C136.33,240.01,136.34,241.06,137,241.14L137,241.14z"/>
		</g>
		<g>
			<path class="st9" d="M141.13,276.68c-0.51,1.42-1.46,2.62-2.22,3.92c-0.34,0.58,0.57,1.1,0.91,0.52
				c0.81-1.38,1.77-2.65,2.32-4.17C142.37,276.31,141.36,276.05,141.13,276.68L141.13,276.68z"/>
		</g>
		<g>
			<path class="st9" d="M142.17,282.48c-0.56,0.95-1.01,1.97-1.69,2.85c-0.41,0.53,0.33,1.27,0.74,0.74
				c0.74-0.96,1.25-2.03,1.86-3.07C143.42,282.41,142.51,281.89,142.17,282.48L142.17,282.48z"/>
		</g>
		<g>
			<path class="st9" d="M134.47,283.86c-0.36,0.62-0.63,1.29-0.74,2c-0.11,0.66,0.91,0.93,1.01,0.27c0.1-0.62,0.32-1.2,0.64-1.75
				C135.72,283.79,134.82,283.27,134.47,283.86L134.47,283.86z"/>
		</g>
		<g>
			<path class="st9" d="M146.54,289.54c-0.02,0.83-0.37,1.63-0.57,2.43c-0.17,0.65,0.84,0.92,1.01,0.27
				c0.23-0.89,0.59-1.76,0.61-2.7C147.6,288.86,146.55,288.86,146.54,289.54L146.54,289.54z"/>
		</g>
		<g>
			<path class="st9" d="M150.79,275.7c-0.33,0.99-0.61,1.99-0.99,2.96c-0.25,0.63,0.77,0.89,1.01,0.27
				c0.38-0.97,0.66-1.97,0.99-2.96C152.02,275.32,151,275.06,150.79,275.7L150.79,275.7z"/>
		</g>
		<g>
			<path class="st9" d="M150.94,268.37c-0.55,0.78-1.01,1.64-1.14,2.59c-0.09,0.66,0.92,0.93,1.01,0.27
				c0.12-0.87,0.53-1.63,1.03-2.34C152.24,268.34,151.33,267.82,150.94,268.37L150.94,268.37z"/>
		</g>
		<g>
			<path class="st9" d="M160.31,255.25c-0.33,0.79-0.61,1.6-0.99,2.37c-0.29,0.6,0.61,1.12,0.91,0.52c0.38-0.77,0.65-1.58,0.99-2.37
				C161.48,255.16,160.57,254.63,160.31,255.25L160.31,255.25z"/>
		</g>
		<g>
			<path class="st9" d="M171.5,265.83c-0.22,0.97,0.02,1.88,0.45,2.76c0.3,0.61,1.2,0.09,0.91-0.52c-0.3-0.62-0.5-1.29-0.34-1.98
				C172.67,265.44,171.65,265.17,171.5,265.83L171.5,265.83z"/>
		</g>
		<g>
			<path class="st9" d="M171.09,278.2c-0.07,1.7,0.37,3.42-0.08,5.09c-0.17,0.65,0.84,0.92,1.01,0.27c0.47-1.77,0.04-3.56,0.12-5.36
				C172.17,277.52,171.12,277.52,171.09,278.2L171.09,278.2z"/>
		</g>
		<g>
			<path class="st9" d="M176.62,283.52c0.11,1.15,0.29,2.29,0.3,3.45c0.01,0.67,1.05,0.68,1.05,0c-0.01-1.16-0.19-2.3-0.3-3.45
				C177.6,282.85,176.55,282.85,176.62,283.52L176.62,283.52z"/>
		</g>
		<g>
			<path class="st9" d="M174.15,290.72c0.01,0.99,0.19,1.97,0.2,2.96c0.01,0.67,1.05,0.68,1.05,0c-0.01-0.99-0.19-1.97-0.2-2.96
				C175.19,290.05,174.14,290.05,174.15,290.72L174.15,290.72z"/>
		</g>
		<g>
			<path class="st9" d="M170.4,295.65c0.09,1.12-0.09,2.24-0.2,3.35c-0.06,0.67,0.98,0.67,1.05,0c0.11-1.12,0.28-2.23,0.2-3.35
				C171.4,294.98,170.35,294.98,170.4,295.65L170.4,295.65z"/>
		</g>
		<g>
			<path class="st9" d="M176.04,301.21c0.17,0.74,0.18,1.48,0.18,2.23c0,0.68,1.05,0.68,1.05,0c0-0.84-0.02-1.68-0.21-2.5
				C176.9,300.28,175.89,300.55,176.04,301.21L176.04,301.21z"/>
		</g>
		<g>
			<path class="st9" d="M176.88,259.32c0.76,1.13,1.79,2.02,2.65,3.07c0.43,0.52,1.17-0.22,0.74-0.74c-0.8-0.97-1.78-1.8-2.48-2.85
				C177.42,258.25,176.51,258.76,176.88,259.32L176.88,259.32z"/>
		</g>
		<g>
			<path class="st9" d="M185.17,270.17c0.62,1.01,1.33,1.94,2.06,2.87c0.41,0.53,1.15-0.21,0.74-0.74
				c-0.67-0.86-1.32-1.72-1.89-2.65C185.72,269.08,184.81,269.59,185.17,270.17L185.17,270.17z"/>
		</g>
		<g>
			<path class="st9" d="M190.18,273.63c0.87,0.88,1.61,1.84,2.18,2.95c0.31,0.6,1.22,0.08,0.91-0.52c-0.61-1.18-1.42-2.22-2.35-3.17
				C190.45,272.41,189.71,273.15,190.18,273.63L190.18,273.63z"/>
		</g>
		<g>
			<path class="st9" d="M192.86,281.02c0.75,1.15,1.6,2.22,2.37,3.35c0.38,0.56,1.29,0.04,0.91-0.52c-0.77-1.13-1.62-2.2-2.37-3.35
				C193.4,279.94,192.49,280.45,192.86,281.02L192.86,281.02z"/>
		</g>
		<g>
			<path class="st9" d="M206.46,291.09c1.01,1.01,1.98,2.02,2.58,3.34c0.28,0.62,1.19,0.09,0.91-0.52c-0.64-1.4-1.67-2.49-2.75-3.56
				C206.72,289.87,205.98,290.61,206.46,291.09L206.46,291.09z"/>
		</g>
		<g>
			<path class="st9" d="M203.99,292.37c0.84,0.87,1.48,1.86,1.99,2.95c0.29,0.61,1.19,0.09,0.91-0.52
				c-0.55-1.17-1.26-2.24-2.16-3.17C204.26,291.15,203.52,291.89,203.99,292.37L203.99,292.37z"/>
		</g>
		<g>
			<path class="st9" d="M206.65,300.56c0.73,0.77,1.16,1.74,1.69,2.65c0.34,0.58,1.25,0.06,0.91-0.52
				c-0.58-0.99-1.06-2.03-1.86-2.87C206.93,299.33,206.19,300.07,206.65,300.56L206.65,300.56z"/>
		</g>
		<g>
			<path class="st9" d="M211.7,299.65c0.21,0.1,0.43,0.48,0.58,0.69c0.26,0.38,0.49,0.77,0.7,1.18c0.31,0.6,1.22,0.08,0.91-0.52
				c-0.25-0.49-0.54-0.96-0.85-1.4c-0.21-0.3-0.47-0.7-0.82-0.86C211.61,298.46,211.08,299.37,211.7,299.65L211.7,299.65z"/>
		</g>
		<path class="st10" d="M147.85,283.62c1.74-3.04,1.48-8.38,0.26-12.47c-2.99-9.97-15.15-17.81-20.18-37.04
			c-1.78-6.79-0.4-23.87-1.68-25.74c-3.46-5.06-8.48-7.49-8.48-7.49c-9.07-8.09-13.34,27.57-12.92,34.62
			c0.95,15.83,11.68,33.45,22.8,44.79c2.71,2.76,6.09,6.3,10.09,6.84C141.27,287.6,145.19,288.26,147.85,283.62z"/>
	</g>
	<g>
		<path class="st5" d="M217.89,151.97l81.92,166.75c0,0-65.52,19.49-102.78-54.53C161.46,193.56,217.89,151.97,217.89,151.97z"/>
		<path class="st6" d="M219.24,154.69c0,0-54.3,39.51-19.88,109.04c32.23,65.1,99.28,52.87,99.28,52.87L219.24,154.69z"/>
		<path class="st7" d="M221.99,160.22c0,0-48.73,40.03-17.67,101.73c32.55,64.64,91.86,49.7,91.86,49.7L221.99,160.22z"/>
		<path class="st8" d="M224.47,165.39c0,0-44.67,36.23-15.99,93.17c30.05,59.67,84.43,46.11,84.43,46.11L224.47,165.39z"/>
		<path class="st7" d="M256.09,229.7c-3.16,1.93-4.37,5.99-2.69,9.36s5.64,4.86,9.09,3.51L256.09,229.7z"/>
		<polygon class="st7" points="204.61,189.18 255.49,231.88 255.11,233.47 203.48,191.14 		"/>
		<polygon class="st7" points="196.48,221.72 256.14,234.12 256.32,234.97 196.38,223.87 		"/>
		<polygon class="st7" points="256.04,236.74 206.2,261.51 207.13,262.91 256.79,237.77 		"/>
		<polygon class="st7" points="258.37,240.02 235.4,294.89 238.02,295.92 259.49,240.4 		"/>
		<polygon class="st7" points="258.56,238.06 280.37,308.29 277.66,308.47 257.44,238.62 		"/>
		<g>
			<path class="st9" d="M202.39,231.91c1.9,0.31,3.84,0.16,5.75,0.3c0.67,0.05,0.74-1,0.07-1.04c-1.91-0.13-3.86,0.02-5.75-0.3
				C201.8,230.76,201.73,231.8,202.39,231.91L202.39,231.91z"/>
		</g>
		<g>
			<path class="st9" d="M203.79,236.12c1.39,0.15,2.84,0.01,4.21-0.28c0.66-0.14,0.46-1.17-0.2-1.03c-1.29,0.27-2.62,0.41-3.94,0.26
				C203.18,235.01,203.12,236.05,203.79,236.12L203.79,236.12z"/>
		</g>
		<g>
			<path class="st9" d="M209.83,234.17c1.41,0,2.82,0,4.21-0.28c0.66-0.13,0.46-1.16-0.2-1.03c-1.3,0.26-2.62,0.26-3.94,0.26
				C209.22,233.13,209.15,234.17,209.83,234.17L209.83,234.17z"/>
		</g>
		<g>
			<path class="st9" d="M213.06,231.23c1.65-0.12,3.29,0.02,4.92,0.3c0.67,0.12,0.73-0.93,0.07-1.04c-1.72-0.3-3.45-0.41-5.19-0.29
				C212.18,230.25,212.39,231.27,213.06,231.23L213.06,231.23z"/>
		</g>
		<g>
			<path class="st9" d="M224.99,233.2c1.28,0.41,2.65,0.45,3.93,0.85c0.64,0.2,0.98-0.79,0.33-0.99c-1.28-0.41-2.65-0.44-3.93-0.85
				C224.68,232.01,224.35,233,224.99,233.2L224.99,233.2z"/>
		</g>
		<g>
			<path class="st9" d="M217.53,237.41c1.65-0.15,3.26-0.5,4.92-0.4c0.67,0.04,0.74-1,0.07-1.04c-1.75-0.11-3.45,0.26-5.19,0.42
				C216.66,236.45,216.87,237.47,217.53,237.41L217.53,237.41z"/>
		</g>
		<g>
			<path class="st9" d="M208.82,241.74c1.34-0.3,2.69-0.66,4.08-0.68c0.67-0.01,0.75-1.05,0.07-1.04c-1.48,0.02-2.91,0.38-4.35,0.7
				C207.96,240.86,208.16,241.89,208.82,241.74L208.82,241.74z"/>
		</g>
		<g>
			<path class="st9" d="M207.12,246.79c1.18-0.17,2.35-0.44,3.51-0.69c0.66-0.14,0.46-1.17-0.2-1.03c-1.16,0.26-2.33,0.52-3.51,0.69
				C206.25,245.86,206.46,246.89,207.12,246.79L207.12,246.79z"/>
		</g>
		<g>
			<path class="st9" d="M209.49,251.94c0.95-0.45,1.93-0.64,2.96-0.79c0.67-0.09,0.46-1.12-0.2-1.03c-1.12,0.16-2.19,0.39-3.22,0.88
				C208.41,251.3,208.88,252.23,209.49,251.94L209.49,251.94z"/>
		</g>
		<g>
			<path class="st9" d="M218.21,244.43c1.34-0.32,2.59-0.93,3.93-1.25c0.66-0.16,0.46-1.18-0.2-1.03c-1.34,0.32-2.59,0.93-3.93,1.25
				C217.36,243.56,217.56,244.59,218.21,244.43L218.21,244.43z"/>
		</g>
		<g>
			<path class="st9" d="M229.6,239.13c1.34-0.32,2.61-0.88,3.93-1.25c0.65-0.18,0.45-1.21-0.2-1.03c-1.33,0.37-2.59,0.94-3.93,1.25
				C228.74,238.25,228.94,239.28,229.6,239.13L229.6,239.13z"/>
		</g>
		<g>
			<path class="st9" d="M233.39,234.46c1.15-0.52,2.42-0.5,3.66-0.5c0.67,0,0.75-1.04,0.07-1.04c-1.43,0-2.87,0-4.2,0.61
				C232.31,233.8,232.78,234.74,233.39,234.46L233.39,234.46z"/>
		</g>
		<g>
			<path class="st9" d="M242.67,235.63c0.27,0.08,0.52,0.07,0.79,0.04c0.19-0.02,0.44-0.09,0.61-0.04c0.65,0.18,0.98-0.81,0.33-0.99
				c-0.27-0.08-0.52-0.07-0.79-0.04c-0.19,0.02-0.44,0.09-0.61,0.04C242.36,234.46,242.02,235.45,242.67,235.63L242.67,235.63z"/>
		</g>
		<g>
			<path class="st9" d="M249.24,236.04c0.25-0.12,0.61-0.32,0.86-0.25c0.65,0.18,0.98-0.81,0.33-0.99c-0.58-0.17-1.14,0.05-1.66,0.3
				C248.17,235.41,248.64,236.34,249.24,236.04L249.24,236.04z"/>
		</g>
		<g>
			<path class="st9" d="M222.74,172.3c0.82,1.31,1.73,2.56,2.55,3.87c0.35,0.57,1.29,0.11,0.94-0.47c-0.82-1.31-1.73-2.56-2.55-3.87
				C223.32,171.27,222.38,171.73,222.74,172.3L222.74,172.3z"/>
		</g>
		<g>
			<path class="st9" d="M221.85,176.17c0.79,1.19,1.92,2.11,2.49,3.44c0.26,0.62,1.2,0.15,0.94-0.47c-0.57-1.35-1.69-2.24-2.49-3.44
				C222.42,175.15,221.48,175.61,221.85,176.17L221.85,176.17z"/>
		</g>
		<g>
			<path class="st9" d="M228.58,182.17c0.61,1.18,1.42,2.21,2.25,3.24c0.42,0.52,1.2-0.17,0.78-0.7c-0.77-0.96-1.53-1.91-2.1-3.01
				C229.2,181.11,228.27,181.57,228.58,182.17L228.58,182.17z"/>
		</g>
		<g>
			<path class="st9" d="M216.92,179.09c0.46,0.88,1.12,1.62,1.69,2.43c0.39,0.55,1.16-0.15,0.78-0.7c-0.52-0.73-1.12-1.4-1.54-2.2
				C217.54,178.02,216.61,178.49,216.92,179.09L216.92,179.09z"/>
		</g>
		<g>
			<path class="st9" d="M221.85,185.2c0.64,0.65,1.26,1.33,1.8,2.06c0.4,0.54,1.18-0.16,0.78-0.7c-0.54-0.74-1.16-1.41-1.8-2.06
				C222.16,184.03,221.37,184.72,221.85,185.2L221.85,185.2z"/>
		</g>
		<g>
			<path class="st9" d="M214.86,187.43c1.58,1.6,3.14,3.22,4.73,4.81c0.47,0.48,1.26-0.22,0.78-0.7c-1.58-1.6-3.14-3.22-4.73-4.81
				C215.16,186.26,214.38,186.95,214.86,187.43L214.86,187.43z"/>
		</g>
		<g>
			<path class="st9" d="M211.47,189.74c0.45,0.79,1.28,1.33,1.82,2.05c0.4,0.54,1.18-0.16,0.78-0.7c-0.28-0.37-0.61-0.7-0.94-1.04
				c-0.24-0.24-0.56-0.49-0.73-0.79C212.07,188.69,211.13,189.15,211.47,189.74L211.47,189.74z"/>
		</g>
		<g>
			<path class="st9" d="M218.32,197.86c0.79,0.68,1.51,1.44,2.3,2.13c0.5,0.43,1.29-0.26,0.78-0.7c-0.79-0.68-1.51-1.44-2.3-2.13
				C218.6,196.72,217.81,197.42,218.32,197.86L218.32,197.86z"/>
		</g>
		<g>
			<path class="st9" d="M224.55,195.39c0.5,0.96,1.18,1.79,1.68,2.75c0.31,0.6,1.25,0.13,0.94-0.47c-0.5-0.96-1.18-1.79-1.68-2.75
				C225.18,194.32,224.24,194.79,224.55,195.39L224.55,195.39z"/>
		</g>
		<g>
			<path class="st9" d="M228.07,191.77c0.5,0.69,0.99,1.37,1.49,2.06c0.39,0.55,1.17-0.16,0.78-0.7c-0.5-0.69-0.99-1.37-1.49-2.06
				C228.45,190.53,227.68,191.23,228.07,191.77L228.07,191.77z"/>
		</g>
		<g>
			<path class="st9" d="M236.77,205.83c0.56,0.82,1.11,1.66,1.8,2.37c0.47,0.48,1.25-0.21,0.78-0.7c-0.69-0.72-1.24-1.56-1.8-2.37
				C237.17,204.57,236.39,205.28,236.77,205.83L236.77,205.83z"/>
		</g>
		<g>
			<path class="st9" d="M243.35,215.63c0.59,0.62,1.02,1.38,1.62,2c0.46,0.49,1.25-0.21,0.78-0.7c-0.59-0.62-1.02-1.38-1.62-2
				C243.67,214.45,242.89,215.15,243.35,215.63L243.35,215.63z"/>
		</g>
		<g>
			<path class="st9" d="M231.78,205.81c0.65,0.66,1.3,1.32,1.93,2c0.46,0.5,1.24-0.2,0.78-0.7c-0.63-0.68-1.27-1.34-1.93-2
				C232.08,204.64,231.3,205.33,231.78,205.81L231.78,205.81z"/>
		</g>
		<g>
			<path class="st9" d="M206.2,199.04c1.3,0.76,2.53,1.6,3.74,2.5c0.54,0.4,1.11-0.47,0.57-0.87c-1.2-0.9-2.44-1.75-3.74-2.5
				C206.19,197.83,205.61,198.7,206.2,199.04L206.2,199.04z"/>
		</g>
		<g>
			<path class="st9" d="M209.61,204.97c1.32,0.76,2.6,1.58,3.86,2.44c0.56,0.38,1.13-0.49,0.57-0.87c-1.26-0.86-2.54-1.68-3.86-2.44
				C209.61,203.76,209.03,204.63,209.61,204.97L209.61,204.97z"/>
		</g>
		<g>
			<path class="st9" d="M215.66,205.24c0.66,0.43,1.27,0.94,1.93,1.38c0.56,0.37,1.14-0.5,0.57-0.87c-0.66-0.43-1.27-0.94-1.93-1.38
				C215.67,203.99,215.1,204.87,215.66,205.24L215.66,205.24z"/>
		</g>
		<g>
			<path class="st9" d="M219.76,211.61c0.65,0.41,1.34,0.78,1.99,1.19c0.57,0.36,1.15-0.51,0.57-0.87
				c-0.65-0.41-1.34-0.78-1.99-1.19C219.77,210.37,219.19,211.25,219.76,211.61L219.76,211.61z"/>
		</g>
		<g>
			<path class="st9" d="M225.75,213.93c0.44,0.25,0.89,0.52,1.37,0.69c0.64,0.22,0.97-0.77,0.33-0.99c-0.4-0.14-0.76-0.36-1.13-0.57
				c-0.25-0.14-0.56-0.1-0.72,0.15C225.45,213.44,225.5,213.79,225.75,213.93L225.75,213.93z"/>
		</g>
		<g>
			<path class="st9" d="M207.16,213.2c1.32,1.03,3.05,1.37,4.54,2.07c0.61,0.28,0.94-0.71,0.33-0.99c-1.41-0.66-3.05-0.98-4.3-1.95
				C207.2,211.91,206.63,212.79,207.16,213.2L207.16,213.2z"/>
		</g>
		<g>
			<path class="st9" d="M204.77,218.24c1.45,0.49,2.87,1.05,4.37,1.35c0.66,0.13,0.72-0.92,0.07-1.04
				c-1.41-0.28-2.75-0.83-4.11-1.29C204.47,217.03,204.13,218.02,204.77,218.24L204.77,218.24z"/>
		</g>
		<g>
			<path class="st9" d="M216.68,222.76c1.06,0.26,2.06,0.69,3.05,1.13c0.62,0.27,0.95-0.72,0.33-0.99c-1-0.44-1.99-0.87-3.05-1.13
				C216.36,221.61,216.02,222.6,216.68,222.76L216.68,222.76z"/>
		</g>
		<g>
			<path class="st9" d="M217.37,217.59c0.78,0.27,1.53,0.61,2.31,0.88c0.64,0.22,0.97-0.77,0.33-0.99
				c-0.78-0.27-1.53-0.61-2.31-0.88C217.07,216.38,216.74,217.37,217.37,217.59L217.37,217.59z"/>
		</g>
		<g>
			<path class="st9" d="M224.92,219.6c0.9,0.2,1.78,0.5,2.62,0.88c0.61,0.28,0.94-0.71,0.33-0.99c-0.84-0.38-1.72-0.68-2.62-0.88
				C224.6,218.46,224.26,219.45,224.92,219.6L224.92,219.6z"/>
		</g>
		<g>
			<path class="st9" d="M225.59,223.47c0.87,0.19,1.75,0.38,2.62,0.57c0.65,0.14,0.99-0.85,0.33-0.99
				c-0.87-0.19-1.75-0.38-2.62-0.57C225.27,222.34,224.93,223.33,225.59,223.47L225.59,223.47z"/>
		</g>
		<g>
			<path class="st9" d="M232.4,222.12c1.49,0.72,2.95,1.5,4.49,2.13c0.63,0.26,0.95-0.74,0.33-0.99c-1.53-0.63-3-1.41-4.49-2.13
				C232.12,220.83,231.8,221.83,232.4,222.12L232.4,222.12z"/>
		</g>
		<g>
			<path class="st9" d="M224.99,257.12c-0.94,1.19-2.22,2.02-3.35,3.01c-0.51,0.44,0.19,1.22,0.7,0.78
				c1.21-1.05,2.52-1.95,3.53-3.21C226.28,257.16,225.4,256.59,224.99,257.12L224.99,257.12z"/>
		</g>
		<g>
			<path class="st9" d="M224.12,262.94c-0.83,0.72-1.59,1.54-2.51,2.16c-0.55,0.37-0.09,1.31,0.47,0.94
				c1.01-0.67,1.83-1.53,2.74-2.32C225.33,263.28,224.63,262.5,224.12,262.94L224.12,262.94z"/>
		</g>
		<g>
			<path class="st9" d="M216.39,261.8c-0.54,0.47-1.01,1.03-1.34,1.66c-0.31,0.59,0.56,1.17,0.87,0.57
				c0.29-0.56,0.69-1.04,1.16-1.45C217.6,262.13,216.9,261.35,216.39,261.8L216.39,261.8z"/>
		</g>
		<g>
			<path class="st9" d="M226.02,271.03c-0.29,0.78-0.87,1.43-1.32,2.12c-0.37,0.56,0.51,1.14,0.87,0.57
				c0.5-0.77,1.12-1.49,1.44-2.36C227.24,270.73,226.25,270.39,226.02,271.03L226.02,271.03z"/>
		</g>
		<g>
			<path class="st9" d="M234.46,259.26c-0.62,0.83-1.21,1.69-1.88,2.49c-0.43,0.52,0.45,1.09,0.87,0.57
				c0.67-0.8,1.25-1.66,1.88-2.49C235.74,259.3,234.86,258.72,234.46,259.26L234.46,259.26z"/>
		</g>
		<g>
			<path class="st9" d="M236.94,252.37c-0.76,0.56-1.48,1.23-1.9,2.09c-0.3,0.6,0.57,1.18,0.87,0.57c0.39-0.79,1.02-1.37,1.73-1.89
				C238.18,252.75,237.48,251.97,236.94,252.37L236.94,252.37z"/>
		</g>
		<g>
			<path class="st9" d="M250,242.92c-0.57,0.64-1.09,1.32-1.69,1.93c-0.47,0.48,0.22,1.26,0.7,0.78c0.6-0.61,1.12-1.29,1.69-1.93
				C251.14,243.2,250.44,242.41,250,242.92L250,242.92z"/>
		</g>
		<g>
			<path class="st9" d="M257.24,256.51c-0.52,0.85-0.58,1.79-0.46,2.76c0.09,0.67,1.11,0.46,1.03-0.2c-0.09-0.68-0.06-1.38,0.3-1.98
				C258.46,256.51,257.59,255.94,257.24,256.51L257.24,256.51z"/>
		</g>
		<g>
			<path class="st9" d="M252.91,268.1c-0.61,1.59-0.74,3.36-1.7,4.8c-0.37,0.56,0.5,1.14,0.87,0.57c1.01-1.53,1.17-3.37,1.82-5.04
				C254.14,267.8,253.15,267.47,252.91,268.1L252.91,268.1z"/>
		</g>
		<g>
			<path class="st9" d="M256.45,274.91c-0.26,1.13-0.46,2.27-0.82,3.37c-0.21,0.64,0.78,0.98,0.99,0.33
				c0.36-1.1,0.56-2.24,0.82-3.37C257.59,274.59,256.6,274.25,256.45,274.91L256.45,274.91z"/>
		</g>
		<g>
			<path class="st9" d="M251.81,280.95c-0.3,0.94-0.45,1.93-0.76,2.87c-0.21,0.64,0.78,0.98,0.99,0.33
				c0.31-0.94,0.45-1.93,0.76-2.87C253.01,280.64,252.02,280.3,251.81,280.95L251.81,280.95z"/>
		</g>
		<g>
			<path class="st9" d="M246.69,284.43c-0.28,1.09-0.8,2.09-1.26,3.12c-0.27,0.62,0.72,0.94,0.99,0.33
				c0.46-1.02,0.98-2.02,1.26-3.12C247.85,284.11,246.86,283.77,246.69,284.43L246.69,284.43z"/>
		</g>
		<g>
			<path class="st9" d="M250.26,291.49c-0.07,0.75-0.3,1.46-0.54,2.18c-0.21,0.64,0.78,0.97,0.99,0.33c0.27-0.8,0.52-1.6,0.59-2.44
				C251.37,290.89,250.33,290.82,250.26,291.49L250.26,291.49z"/>
		</g>
		<g>
			<path class="st9" d="M264.41,252.05c0.36,1.32,1.05,2.49,1.53,3.75c0.24,0.63,1.18,0.16,0.94-0.47
				c-0.45-1.18-1.11-2.27-1.44-3.49C265.26,251.21,264.23,251.4,264.41,252.05L264.41,252.05z"/>
		</g>
		<g>
			<path class="st9" d="M268.8,264.98c0.26,1.15,0.65,2.27,1.03,3.38c0.22,0.64,1.16,0.16,0.94-0.47c-0.36-1.03-0.7-2.05-0.94-3.11
				C269.68,264.12,268.65,264.32,268.8,264.98L268.8,264.98z"/>
		</g>
		<g>
			<path class="st9" d="M272.45,269.86c0.54,1.12,0.94,2.26,1.13,3.49c0.1,0.67,1.13,0.46,1.03-0.2c-0.2-1.32-0.64-2.56-1.22-3.75
				C273.1,268.79,272.16,269.25,272.45,269.86L272.45,269.86z"/>
		</g>
		<g>
			<path class="st9" d="M272.64,277.71c0.34,1.33,0.81,2.61,1.18,3.93c0.18,0.65,1.21,0.45,1.03-0.2c-0.37-1.32-0.83-2.61-1.18-3.93
				C273.5,276.86,272.47,277.06,272.64,277.71L272.64,277.71z"/>
		</g>
		<g>
			<path class="st9" d="M282.32,291.59c0.64,1.28,1.23,2.55,1.38,3.99c0.07,0.67,1.1,0.46,1.03-0.2c-0.16-1.53-0.79-2.89-1.47-4.25
				C282.95,290.52,282.02,290.99,282.32,291.59L282.32,291.59z"/>
		</g>
		<g>
			<path class="st9" d="M279.57,292.02c0.52,1.09,0.81,2.23,0.94,3.43c0.08,0.67,1.1,0.46,1.03-0.2c-0.15-1.29-0.48-2.52-1.03-3.69
				C280.22,290.95,279.28,291.41,279.57,292.02L279.57,292.02z"/>
		</g>
		<g>
			<path class="st9" d="M279.49,300.63c0.45,0.96,0.54,2.02,0.76,3.05c0.14,0.66,1.17,0.46,1.03-0.2c-0.24-1.13-0.36-2.26-0.85-3.32
				C280.14,299.55,279.2,300.02,279.49,300.63L279.49,300.63z"/>
		</g>
		<g>
			<path class="st9" d="M284.55,301.38c0.17,0.16,0.26,0.59,0.33,0.84c0.13,0.44,0.22,0.89,0.29,1.34c0.1,0.67,1.13,0.46,1.03-0.2
				c-0.08-0.54-0.2-1.08-0.36-1.6c-0.11-0.35-0.22-0.82-0.5-1.08C284.85,300.22,284.06,300.92,284.55,301.38L284.55,301.38z"/>
		</g>
		<path class="st10" d="M229.14,265.84c2.62-2.32,4.07-7.47,4.22-11.73c0.35-10.4-8.68-21.71-7.32-41.54
			c0.48-7,7.23-22.75,6.61-24.93c-1.67-5.9-5.65-9.81-5.65-9.81c-6.02-10.56-21.43,21.89-23.28,28.7
			c-4.14,15.3,0.41,35.43,7.34,49.72c1.69,3.48,3.77,7.91,7.39,9.7C221.64,267.51,225.14,269.38,229.14,265.84z"/>
	</g>
	<g>
		<path class="st5" d="M318.35,125.84l49.9,178.96c0,0-67.98,7.13-91.02-72.47C255.24,156.36,318.35,125.84,318.35,125.84z"/>
		<path class="st6" d="M319.18,128.76c0,0-60.63,28.87-39.56,103.54c19.73,69.91,87.88,70.2,87.88,70.2L319.18,128.76z"/>
		<path class="st7" d="M320.86,134.7c0,0-55.26,30.4-36.05,96.75c20.12,69.52,81.18,65.72,81.18,65.72L320.86,134.7z"/>
		<path class="st8" d="M322.35,140.24c0,0-50.56,27.41-32.83,88.65c18.58,64.17,74.53,60.83,74.53,60.83L322.35,140.24z"/>
		<path class="st7" d="M341.63,209.26c-3.46,1.32-5.4,5.08-4.37,8.71c1.03,3.63,4.66,5.81,8.29,5.12L341.63,209.26z"/>
		<polygon class="st7" points="298.46,159.97 340.64,211.29 339.97,212.78 296.99,161.7 		"/>
		<polygon class="st7" points="284.49,190.47 340.86,213.62 340.89,214.48 284,192.56 		"/>
		<polygon class="st7" points="340.28,216.18 286.75,231.37 287.4,232.92 340.83,217.33 		"/>
		<polygon class="st7" points="341.97,219.83 309.32,269.54 311.7,271.04 343.01,220.41 		"/>
		<polygon class="st7" points="342.52,217.93 351.07,290.97 348.36,290.65 341.31,218.28 		"/>
		<g>
			<path class="st9" d="M288.44,201.57c1.81,0.66,3.75,0.86,5.6,1.35c0.65,0.17,0.91-0.84,0.26-1.01c-1.86-0.48-3.79-0.69-5.6-1.35
				C288.06,200.33,287.81,201.35,288.44,201.57L288.44,201.57z"/>
		</g>
		<g>
			<path class="st9" d="M289.03,205.97c1.34,0.41,2.79,0.53,4.19,0.5c0.68-0.01,0.67-1.06-0.01-1.05c-1.32,0.03-2.65-0.08-3.92-0.47
				C288.65,204.76,288.39,205.78,289.03,205.97L289.03,205.97z"/>
		</g>
		<g>
			<path class="st9" d="M295.33,205.16c1.38,0.26,2.77,0.52,4.19,0.5c0.68-0.01,0.67-1.06-0.01-1.05c-1.33,0.02-2.62-0.22-3.92-0.47
				C294.93,204.03,294.66,205.04,295.33,205.16L295.33,205.16z"/>
		</g>
		<g>
			<path class="st9" d="M299.04,202.86c1.64,0.19,3.24,0.62,4.78,1.2c0.63,0.24,0.89-0.78,0.26-1.01c-1.63-0.61-3.31-1.03-5.05-1.23
				C298.36,201.74,298.38,202.78,299.04,202.86L299.04,202.86z"/>
		</g>
		<g>
			<path class="st9" d="M310.41,207c1.19,0.64,2.52,0.92,3.7,1.56c0.59,0.32,1.11-0.59,0.51-0.91c-1.19-0.64-2.52-0.92-3.7-1.56
				C310.33,205.76,309.82,206.68,310.41,207L310.41,207z"/>
		</g>
		<g>
			<path class="st9" d="M302.31,209.76c1.65,0.15,3.29,0.11,4.91,0.51c0.66,0.16,0.92-0.85,0.26-1.01c-1.7-0.43-3.44-0.38-5.18-0.54
				C301.63,208.65,301.64,209.7,302.31,209.76L302.31,209.76z"/>
		</g>
		<g>
			<path class="st9" d="M292.95,212.42c1.38-0.05,2.77-0.16,4.13,0.08c0.66,0.11,0.93-0.9,0.26-1.01c-1.46-0.25-2.93-0.16-4.4-0.11
				C292.27,211.39,292.27,212.44,292.95,212.42L292.95,212.42z"/>
		</g>
		<g>
			<path class="st9" d="M290.35,217.07c1.19,0.05,2.39,0,3.58-0.04c0.67-0.02,0.67-1.07-0.01-1.05c-1.19,0.04-2.39,0.08-3.58,0.04
				C289.67,216,289.68,217.04,290.35,217.07L290.35,217.07z"/>
		</g>
		<g>
			<path class="st9" d="M291.73,222.57c1.01-0.27,2.01-0.28,3.05-0.23c0.68,0.03,0.66-1.02-0.01-1.05
				c-1.13-0.05-2.23-0.02-3.33,0.27C290.79,221.74,291.08,222.74,291.73,222.57L291.73,222.57z"/>
		</g>
		<g>
			<path class="st9" d="M301.69,216.79c1.38-0.07,2.72-0.44,4.1-0.51c0.67-0.03,0.67-1.08-0.01-1.05c-1.38,0.07-2.72,0.44-4.1,0.51
				C301.01,215.77,301.02,216.82,301.69,216.79L301.69,216.79z"/>
		</g>
		<g>
			<path class="st9" d="M313.85,213.66c1.38-0.06,2.72-0.39,4.1-0.51c0.67-0.06,0.66-1.11-0.01-1.05c-1.37,0.12-2.72,0.45-4.1,0.51
				C313.17,212.65,313.18,213.69,313.85,213.66L313.85,213.66z"/>
		</g>
		<g>
			<path class="st9" d="M318.44,209.77c1.23-0.3,2.47-0.05,3.69,0.18c0.66,0.12,0.92-0.89,0.26-1.01c-1.41-0.27-2.82-0.53-4.24-0.18
				C317.5,208.93,317.78,209.93,318.44,209.77L318.44,209.77z"/>
		</g>
		<g>
			<path class="st9" d="M327.34,212.63c0.25,0.12,0.5,0.17,0.77,0.19c0.19,0.02,0.45-0.01,0.61,0.07c0.6,0.3,1.11-0.61,0.51-0.91
				c-0.25-0.12-0.5-0.17-0.77-0.19c-0.19-0.02-0.45,0.01-0.61-0.07C327.25,211.42,326.74,212.33,327.34,212.63L327.34,212.63z"/>
		</g>
		<g>
			<path class="st9" d="M333.73,214.24c0.27-0.08,0.66-0.21,0.9-0.09c0.6,0.3,1.11-0.61,0.51-0.91c-0.54-0.27-1.13-0.16-1.69-0.01
				C332.8,213.42,333.08,214.42,333.73,214.24L333.73,214.24z"/>
		</g>
		<g>
			<path class="st9" d="M319.38,146.72c0.56,1.44,1.23,2.84,1.79,4.28c0.24,0.62,1.25,0.34,1.01-0.29
				c-0.56-1.44-1.23-2.84-1.79-4.28C320.14,145.81,319.13,146.09,319.38,146.72L319.38,146.72z"/>
		</g>
		<g>
			<path class="st9" d="M317.8,150.35c0.55,1.31,1.5,2.43,1.81,3.84c0.15,0.66,1.15,0.37,1.01-0.29c-0.32-1.43-1.25-2.51-1.81-3.84
				C318.55,149.46,317.54,149.73,317.8,150.35L317.8,150.35z"/>
		</g>
		<g>
			<path class="st9" d="M323.31,157.49c0.38,1.27,0.99,2.44,1.62,3.6c0.32,0.59,1.21,0.05,0.89-0.54c-0.58-1.08-1.15-2.16-1.51-3.34
				C324.12,156.56,323.11,156.85,323.31,157.49L323.31,157.49z"/>
		</g>
		<g>
			<path class="st9" d="M312.42,152.32c0.29,0.95,0.81,1.8,1.22,2.7c0.28,0.61,1.17,0.06,0.89-0.54c-0.37-0.82-0.84-1.58-1.11-2.44
				C313.22,151.39,312.22,151.67,312.42,152.32L312.42,152.32z"/>
		</g>
		<g>
			<path class="st9" d="M316.14,159.24c0.51,0.76,1,1.54,1.39,2.36c0.29,0.61,1.19,0.06,0.89-0.54c-0.4-0.82-0.88-1.6-1.39-2.36
				C316.66,158.14,315.76,158.67,316.14,159.24L316.14,159.24z"/>
		</g>
		<g>
			<path class="st9" d="M308.86,160.14c1.26,1.86,2.5,3.74,3.76,5.6c0.38,0.55,1.27,0.02,0.89-0.54c-1.26-1.86-2.5-3.74-3.76-5.6
				C309.37,159.04,308.47,159.58,308.86,160.14L308.86,160.14z"/>
		</g>
		<g>
			<path class="st9" d="M305.1,161.79c0.3,0.86,1.01,1.54,1.41,2.35c0.3,0.6,1.19,0.06,0.89-0.54c-0.21-0.42-0.47-0.8-0.73-1.19
				c-0.19-0.28-0.46-0.59-0.57-0.91C305.89,160.87,304.88,161.15,305.1,161.79L305.1,161.79z"/>
		</g>
		<g>
			<path class="st9" d="M310.35,171.03c0.65,0.82,1.22,1.7,1.87,2.51c0.41,0.52,1.31-0.02,0.89-0.54c-0.65-0.82-1.22-1.7-1.87-2.51
				C310.83,169.96,309.93,170.5,310.35,171.03L310.35,171.03z"/>
		</g>
		<g>
			<path class="st9" d="M316.92,169.74c0.31,1.03,0.83,1.98,1.14,3.01c0.2,0.65,1.2,0.36,1.01-0.29c-0.31-1.03-0.83-1.98-1.14-3.01
				C317.73,168.81,316.73,169.09,316.92,169.74L316.92,169.74z"/>
		</g>
		<g>
			<path class="st9" d="M321.05,166.83c0.36,0.77,0.73,1.53,1.09,2.3c0.29,0.61,1.18,0.06,0.89-0.54c-0.36-0.77-0.73-1.53-1.09-2.3
				C321.65,165.68,320.76,166.23,321.05,166.83L321.05,166.83z"/>
		</g>
		<g>
			<path class="st9" d="M327.01,182.25c0.4,0.91,0.79,1.83,1.34,2.67c0.37,0.56,1.27,0.02,0.89-0.54c-0.55-0.83-0.93-1.76-1.34-2.67
				C327.64,181.09,326.74,181.64,327.01,182.25L327.01,182.25z"/>
		</g>
		<g>
			<path class="st9" d="M331.69,193.1c0.47,0.72,0.75,1.54,1.22,2.26c0.37,0.56,1.26,0.02,0.89-0.54c-0.47-0.72-0.75-1.54-1.22-2.26
				C332.22,191.99,331.32,192.53,331.69,193.1L331.69,193.1z"/>
		</g>
		<g>
			<path class="st9" d="M322.11,181.32c0.52,0.77,1.04,1.53,1.53,2.32c0.36,0.57,1.25,0.03,0.89-0.54
				c-0.49-0.79-1.01-1.56-1.53-2.32C322.63,180.22,321.73,180.76,322.11,181.32L322.11,181.32z"/>
		</g>
		<g>
			<path class="st9" d="M298.21,169.96c1.14,0.98,2.2,2.04,3.21,3.15c0.46,0.5,1.18-0.26,0.72-0.75c-1.02-1.11-2.07-2.17-3.21-3.15
				C298.43,168.77,297.7,169.52,298.21,169.96L298.21,169.96z"/>
		</g>
		<g>
			<path class="st9" d="M300.48,176.42c1.16,0.99,2.27,2.03,3.35,3.11c0.48,0.48,1.2-0.28,0.72-0.75c-1.08-1.08-2.19-2.12-3.35-3.11
				C300.7,175.23,299.97,175.98,300.48,176.42L300.48,176.42z"/>
		</g>
		<g>
			<path class="st9" d="M306.38,177.79c0.57,0.55,1.07,1.16,1.64,1.71c0.49,0.47,1.21-0.29,0.72-0.75
				c-0.57-0.55-1.07-1.16-1.64-1.71C306.62,176.57,305.89,177.32,306.38,177.79L306.38,177.79z"/>
		</g>
		<g>
			<path class="st9" d="M309.24,184.81c0.57,0.53,1.17,1.01,1.74,1.54c0.49,0.46,1.22-0.29,0.72-0.75
				c-0.57-0.53-1.17-1.01-1.74-1.54C309.47,183.6,308.74,184.35,309.24,184.81L309.24,184.81z"/>
		</g>
		<g>
			<path class="st9" d="M314.69,188.19c0.39,0.33,0.78,0.67,1.22,0.92c0.59,0.34,1.09-0.58,0.51-0.91c-0.37-0.21-0.68-0.49-1-0.77
				c-0.22-0.18-0.53-0.2-0.74,0.01C314.49,187.65,314.48,188.01,314.69,188.19L314.69,188.19z"/>
		</g>
		<g>
			<path class="st9" d="M296.56,184.06c1.11,1.25,2.75,1.91,4.09,2.86c0.55,0.39,1.05-0.53,0.51-0.91
				c-1.27-0.91-2.82-1.52-3.87-2.71C296.84,182.8,296.11,183.56,296.56,184.06L296.56,184.06z"/>
		</g>
		<g>
			<path class="st9" d="M293.29,188.58c1.33,0.75,2.62,1.56,4.05,2.13c0.63,0.25,0.88-0.77,0.26-1.01c-1.33-0.53-2.55-1.32-3.8-2.03
				C293.21,187.33,292.7,188.24,293.29,188.58L293.29,188.58z"/>
		</g>
		<g>
			<path class="st9" d="M304.16,195.21c0.99,0.45,1.9,1.06,2.79,1.67c0.56,0.38,1.06-0.54,0.51-0.91c-0.9-0.61-1.8-1.22-2.79-1.67
				C304.05,194.01,303.54,194.93,304.16,195.21L304.16,195.21z"/>
		</g>
		<g>
			<path class="st9" d="M305.79,190.25c0.72,0.41,1.39,0.88,2.11,1.29c0.59,0.33,1.1-0.58,0.51-0.91c-0.72-0.41-1.39-0.88-2.11-1.29
				C305.71,189,305.21,189.91,305.79,190.25L305.79,190.25z"/>
		</g>
		<g>
			<path class="st9" d="M312.84,193.61c0.85,0.36,1.66,0.81,2.41,1.35c0.55,0.39,1.06-0.53,0.51-0.91
				c-0.76-0.53-1.56-0.98-2.41-1.35C312.73,192.44,312.22,193.35,312.84,193.61L312.84,193.61z"/>
		</g>
		<g>
			<path class="st9" d="M312.79,197.54c0.82,0.35,1.65,0.69,2.47,1.04c0.62,0.26,1.13-0.65,0.51-0.91
				c-0.82-0.35-1.65-0.69-2.47-1.04C312.69,196.37,312.17,197.28,312.79,197.54L312.79,197.54z"/>
		</g>
		<g>
			<path class="st9" d="M319.73,197.46c1.33,0.98,2.63,2.02,4.02,2.92c0.57,0.37,1.07-0.55,0.51-0.91c-1.39-0.9-2.69-1.94-4.02-2.92
				C319.69,196.14,319.19,197.06,319.73,197.46L319.73,197.46z"/>
		</g>
		<g>
			<path class="st9" d="M306.02,230.5c-1.14,0.99-2.55,1.58-3.85,2.34c-0.58,0.34-0.04,1.24,0.54,0.89
				c1.38-0.81,2.84-1.45,4.06-2.51C307.28,230.79,306.52,230.06,306.02,230.5L306.02,230.5z"/>
		</g>
		<g>
			<path class="st9" d="M304.1,236.07c-0.95,0.56-1.84,1.23-2.86,1.66c-0.61,0.26-0.33,1.27,0.29,1.01
				c1.11-0.48,2.08-1.16,3.12-1.77C305.22,236.62,304.68,235.72,304.1,236.07L304.1,236.07z"/>
		</g>
		<g>
			<path class="st9" d="M296.71,233.52c-0.61,0.36-1.18,0.82-1.62,1.38c-0.41,0.52,0.34,1.26,0.75,0.72
				c0.39-0.5,0.87-0.89,1.41-1.22C297.83,234.08,297.29,233.18,296.71,233.52L296.71,233.52z"/>
		</g>
		<g>
			<path class="st9" d="M304.47,244.36c-0.42,0.72-1.12,1.25-1.69,1.84c-0.47,0.49,0.29,1.21,0.75,0.72
				c0.64-0.67,1.37-1.26,1.85-2.06C305.73,244.29,304.82,243.78,304.47,244.36L304.47,244.36z"/>
		</g>
		<g>
			<path class="st9" d="M314.94,234.35c-0.77,0.7-1.5,1.44-2.3,2.1c-0.52,0.43,0.24,1.15,0.75,0.72c0.8-0.66,1.54-1.4,2.3-2.1
				C316.19,234.62,315.43,233.9,314.94,234.35L314.94,234.35z"/>
		</g>
		<g>
			<path class="st9" d="M318.64,228.03c-0.85,0.41-1.68,0.94-2.25,1.71c-0.4,0.53,0.35,1.26,0.75,0.72c0.53-0.7,1.26-1.16,2.04-1.54
				C319.79,228.63,319.24,227.74,318.64,228.03L318.64,228.03z"/>
		</g>
		<g>
			<path class="st9" d="M333.21,221.14c-0.67,0.53-1.31,1.1-2.01,1.59c-0.55,0.38-0.01,1.28,0.54,0.89c0.7-0.49,1.34-1.06,2.01-1.59
				C334.28,221.62,333.74,220.72,333.21,221.14L333.21,221.14z"/>
		</g>
		<g>
			<path class="st9" d="M337.83,235.83c-0.66,0.74-0.9,1.65-0.95,2.63c-0.04,0.68,1.01,0.66,1.05-0.01
				c0.04-0.69,0.19-1.37,0.66-1.89C339.03,236.06,338.28,235.33,337.83,235.83L337.83,235.83z"/>
		</g>
		<g>
			<path class="st9" d="M331.45,246.43c-0.89,1.45-1.35,3.17-2.55,4.41c-0.47,0.48,0.28,1.21,0.75,0.72
				c1.28-1.32,1.77-3.09,2.71-4.62C332.71,246.36,331.8,245.85,331.45,246.43L331.45,246.43z"/>
		</g>
		<g>
			<path class="st9" d="M333.67,253.77c-0.47,1.06-0.87,2.14-1.42,3.16c-0.32,0.59,0.59,1.1,0.91,0.51c0.56-1.02,0.96-2.1,1.42-3.16
				C334.86,253.66,333.95,253.15,333.67,253.77L333.67,253.77z"/>
		</g>
		<g>
			<path class="st9" d="M328.01,258.85c-0.47,0.87-0.79,1.81-1.27,2.68c-0.32,0.59,0.59,1.1,0.91,0.51c0.47-0.87,0.8-1.81,1.27-2.68
				C329.25,258.77,328.33,258.26,328.01,258.85L328.01,258.85z"/>
		</g>
		<g>
			<path class="st9" d="M322.34,261.33c-0.47,1.02-1.17,1.91-1.81,2.83c-0.38,0.56,0.53,1.06,0.91,0.51
				c0.64-0.92,1.33-1.81,1.81-2.83C323.53,261.23,322.62,260.72,322.34,261.33L322.34,261.33z"/>
		</g>
		<g>
			<path class="st9" d="M324.55,268.93c-0.21,0.73-0.57,1.38-0.93,2.04c-0.33,0.59,0.58,1.1,0.91,0.51c0.41-0.73,0.8-1.48,1.03-2.29
				C325.75,268.54,324.74,268.29,324.55,268.93L324.55,268.93z"/>
		</g>
		<g>
			<path class="st9" d="M345.7,232.76c0.11,1.36,0.57,2.64,0.82,3.97c0.12,0.66,1.13,0.37,1.01-0.29c-0.23-1.24-0.68-2.43-0.78-3.69
				C346.69,232.09,345.64,232.09,345.7,232.76L345.7,232.76z"/>
		</g>
		<g>
			<path class="st9" d="M347.65,246.27c0.05,1.18,0.22,2.35,0.4,3.51c0.1,0.67,1.11,0.37,1.01-0.29c-0.16-1.07-0.31-2.15-0.36-3.23
				C348.66,245.59,347.62,245.6,347.65,246.27L347.65,246.27z"/>
		</g>
		<g>
			<path class="st9" d="M350.34,251.74c0.33,1.2,0.51,2.39,0.47,3.64c-0.02,0.68,1.03,0.66,1.05-0.01c0.04-1.33-0.16-2.63-0.51-3.91
				C351.17,250.81,350.16,251.09,350.34,251.74L350.34,251.74z"/>
		</g>
		<g>
			<path class="st9" d="M349.08,259.5c0.09,1.37,0.32,2.72,0.43,4.08c0.06,0.67,1.1,0.66,1.05-0.01c-0.12-1.36-0.34-2.72-0.43-4.08
				C350.08,258.82,349.03,258.82,349.08,259.5L349.08,259.5z"/>
		</g>
		<g>
			<path class="st9" d="M356.04,274.92c0.39,1.38,0.74,2.73,0.62,4.17c-0.05,0.67,0.99,0.66,1.05-0.01
				c0.12-1.53-0.25-2.99-0.66-4.45C356.86,273.98,355.86,274.27,356.04,274.92L356.04,274.92z"/>
		</g>
		<g>
			<path class="st9" d="M353.26,274.83c0.31,1.16,0.38,2.34,0.3,3.54c-0.05,0.67,1,0.66,1.05-0.01c0.09-1.29-0.01-2.57-0.34-3.82
				C354.1,273.9,353.09,274.18,353.26,274.83L353.26,274.83z"/>
		</g>
		<g>
			<path class="st9" d="M351.6,283.28c0.26,1.03,0.16,2.09,0.18,3.14c0.01,0.68,1.06,0.67,1.05-0.01c-0.03-1.15,0.06-2.29-0.22-3.42
				C352.44,282.34,351.43,282.63,351.6,283.28L351.6,283.28z"/>
		</g>
		<g>
			<path class="st9" d="M356.44,284.95c0.14,0.19,0.15,0.63,0.17,0.89c0.04,0.46,0.05,0.92,0.03,1.37
				c-0.02,0.68,1.02,0.66,1.05-0.01c0.02-0.55,0-1.1-0.06-1.64c-0.04-0.37-0.07-0.84-0.3-1.16
				C356.95,283.87,356.05,284.4,356.44,284.95L356.44,284.95z"/>
		</g>
		<path class="st10" d="M308.5,239.84c3-1.8,5.38-6.6,6.3-10.76c2.25-10.16-4.55-22.94,0.43-42.18c1.76-6.79,11.28-21.03,11.08-23.3
			c-0.56-6.11-3.75-10.68-3.75-10.68c-3.98-11.48-25.09,17.58-28.15,23.93c-6.88,14.28-6.1,34.91-1.92,50.22
			c1.02,3.73,2.25,8.47,5.48,10.89C300.82,240.1,303.92,242.59,308.5,239.84z"/>
	</g>
	<g>
		<path class="st5" d="M442.19,110.22l-9.88,185.52c0,0-66.7-14.96-63.1-97.75C372.64,118.98,442.19,110.22,442.19,110.22z"/>
		<path class="st6" d="M442.04,113.25c0,0-66.68,7.99-70.56,85.48c-3.64,72.55,60.85,94.59,60.85,94.59L442.04,113.25z"/>
		<path class="st7" d="M441.74,119.41c0,0-62.07,11.16-65.07,80.17c-3.14,72.3,55.93,88.21,55.93,88.21L441.74,119.41z"/>
		<path class="st8" d="M441.38,125.14c0,0-56.67,9.83-59.43,73.52c-2.89,66.74,51.19,81.45,51.19,81.45L441.38,125.14z"/>
		<path class="st7" d="M437.6,196.7c-3.7,0.14-6.74,3.09-6.92,6.86c-0.18,3.77,2.55,7,6.22,7.5L437.6,196.7z"/>
		<polygon class="st7" points="412.43,136.21 436.01,198.31 434.9,199.51 410.49,137.37 		"/>
		<polygon class="st7" points="389.46,160.64 435.48,200.59 435.23,201.41 388.32,162.47 		"/>
		<polygon class="st7" points="434.11,202.83 378.53,200.12 378.66,201.8 434.26,204.09 		"/>
		<polygon class="st7" points="434.55,206.83 387.73,243.51 389.5,245.69 435.34,207.7 		"/>
		<polygon class="st7" points="435.67,205.21 420.44,277.15 417.98,275.98 434.42,205.14 		"/>
		<g>
			<path class="st9" d="M389.65,172.43c1.5,1.2,3.27,2.01,4.88,3.07c0.57,0.37,1.13-0.51,0.57-0.88c-1.6-1.05-3.37-1.87-4.88-3.07
				C389.69,171.13,389.12,172.01,389.65,172.43L389.65,172.43z"/>
		</g>
		<g>
			<path class="st9" d="M388.81,176.78c1.14,0.81,2.47,1.39,3.81,1.81c0.64,0.2,0.97-0.79,0.33-0.99c-1.26-0.39-2.49-0.93-3.56-1.69
				C388.83,175.51,388.26,176.39,388.81,176.78L388.81,176.78z"/>
		</g>
		<g>
			<path class="st9" d="M395.03,178.03c1.23,0.69,2.46,1.38,3.81,1.81c0.64,0.21,0.97-0.79,0.33-0.99c-1.26-0.4-2.41-1.04-3.56-1.69
				C395.01,176.82,394.44,177.7,395.03,178.03L395.03,178.03z"/>
		</g>
		<g>
			<path class="st9" d="M399.29,177.03c1.49,0.7,2.87,1.62,4.14,2.66c0.52,0.43,1.09-0.45,0.57-0.88c-1.35-1.1-2.81-2.04-4.39-2.78
				C399,175.75,398.69,176.75,399.29,177.03L399.29,177.03z"/>
		</g>
		<g>
			<path class="st9" d="M408.74,184.59c0.92,0.98,2.09,1.68,3.01,2.66c0.46,0.49,1.24-0.21,0.77-0.7c-0.92-0.98-2.09-1.68-3.01-2.66
				C409.05,183.39,408.28,184.09,408.74,184.59L408.74,184.59z"/>
		</g>
		<g>
			<path class="st9" d="M400.17,184.62c1.51,0.67,3.09,1.15,4.49,2.05c0.57,0.36,1.14-0.51,0.57-0.88
				c-1.48-0.95-3.14-1.46-4.73-2.17C399.88,183.35,399.56,184.35,400.17,184.62L400.17,184.62z"/>
		</g>
		<g>
			<path class="st9" d="M390.46,184.14c1.32,0.39,2.67,0.74,3.89,1.39c0.59,0.32,1.17-0.56,0.57-0.88c-1.31-0.7-2.72-1.09-4.14-1.51
				C390.14,182.96,389.81,183.95,390.46,184.14L390.46,184.14z"/>
		</g>
		<g>
			<path class="st9" d="M386.51,187.72c1.11,0.42,2.26,0.76,3.4,1.11c0.65,0.2,0.97-0.8,0.33-0.99c-1.14-0.35-2.29-0.68-3.4-1.11
				C386.21,186.49,385.89,187.48,386.51,187.72L386.51,187.72z"/>
		</g>
		<g>
			<path class="st9" d="M386.06,193.37c1.05,0.07,2,0.38,2.97,0.75c0.63,0.24,0.95-0.75,0.33-0.99c-1.06-0.41-2.1-0.73-3.24-0.8
				C385.44,192.29,385.39,193.33,386.06,193.37L386.06,193.37z"/>
		</g>
		<g>
			<path class="st9" d="M397.35,191.08c1.33,0.37,2.72,0.45,4.04,0.83c0.65,0.18,0.98-0.81,0.33-0.99
				c-1.33-0.37-2.72-0.45-4.04-0.83C397.02,189.9,396.7,190.89,397.35,191.08L397.35,191.08z"/>
		</g>
		<g>
			<path class="st9" d="M409.87,192c1.33,0.38,2.71,0.5,4.04,0.83c0.65,0.16,0.98-0.84,0.33-0.99c-1.34-0.32-2.72-0.45-4.04-0.83
				C409.55,190.82,409.22,191.82,409.87,192L409.87,192z"/>
		</g>
		<g>
			<path class="st9" d="M415.46,189.78c1.26,0.11,2.36,0.75,3.44,1.35c0.59,0.33,1.16-0.55,0.57-0.88c-1.25-0.7-2.51-1.4-3.96-1.52
				C414.83,188.68,414.79,189.72,415.46,189.78L415.46,189.78z"/>
		</g>
		<g>
			<path class="st9" d="M422.98,195.33c0.2,0.2,0.42,0.32,0.67,0.42c0.18,0.08,0.43,0.14,0.55,0.26c0.47,0.48,1.25-0.22,0.77-0.7
				c-0.2-0.2-0.42-0.32-0.67-0.42c-0.18-0.08-0.43-0.14-0.55-0.26C423.28,194.15,422.51,194.85,422.98,195.33L422.98,195.33z"/>
		</g>
		<g>
			<path class="st9" d="M428.52,198.9c0.28,0.01,0.69,0.01,0.88,0.2c0.47,0.48,1.25-0.22,0.77-0.7c-0.43-0.43-1.02-0.52-1.6-0.55
				C427.9,197.82,427.85,198.86,428.52,198.9L428.52,198.9z"/>
		</g>
		<g>
			<path class="st9" d="M436.49,130.33c0.08,1.54,0.26,3.08,0.33,4.62c0.03,0.67,1.08,0.72,1.04,0.05
				c-0.08-1.54-0.26-3.08-0.33-4.62C437.51,129.71,436.46,129.65,436.49,130.33L436.49,130.33z"/>
		</g>
		<g>
			<path class="st9" d="M433.84,133.27c0.11,1.42,0.65,2.78,0.49,4.21c-0.07,0.67,0.97,0.72,1.04,0.05
				c0.16-1.46-0.39-2.78-0.49-4.21C434.83,132.66,433.79,132.6,433.84,133.27L433.84,133.27z"/>
		</g>
		<g>
			<path class="st9" d="M436.77,141.79c-0.04,1.32,0.16,2.63,0.39,3.93c0.11,0.66,1.13,0.44,1.02-0.23
				c-0.21-1.21-0.4-2.42-0.36-3.65C437.84,141.17,436.79,141.12,436.77,141.79L436.77,141.79z"/>
		</g>
		<g>
			<path class="st9" d="M428.1,133.41c-0.03,0.99,0.19,1.96,0.29,2.95c0.07,0.67,1.09,0.44,1.02-0.23c-0.09-0.89-0.3-1.77-0.27-2.67
				C429.17,132.79,428.12,132.74,428.1,133.41L428.1,133.41z"/>
		</g>
		<g>
			<path class="st9" d="M429.42,141.15c0.24,0.88,0.45,1.77,0.57,2.68c0.08,0.67,1.1,0.44,1.02-0.23c-0.11-0.91-0.32-1.8-0.57-2.68
				C430.26,140.28,429.24,140.5,429.42,141.15L429.42,141.15z"/>
		</g>
		<g>
			<path class="st9" d="M422.23,139.69c0.6,2.17,1.17,4.34,1.78,6.51c0.18,0.65,1.2,0.42,1.02-0.23c-0.6-2.17-1.17-4.34-1.78-6.51
				C423.07,138.81,422.05,139.04,422.23,139.69L422.23,139.69z"/>
		</g>
		<g>
			<path class="st9" d="M418.15,140.05c0.01,0.91,0.46,1.78,0.59,2.68c0.09,0.67,1.11,0.44,1.02-0.23
				c-0.06-0.46-0.19-0.91-0.31-1.36c-0.09-0.32-0.25-0.7-0.25-1.04C419.18,139.43,418.14,139.37,418.15,140.05L418.15,140.05z"/>
		</g>
		<g>
			<path class="st9" d="M420.17,150.48c0.36,0.98,0.62,2,0.97,2.98c0.23,0.62,1.25,0.41,1.02-0.23c-0.36-0.98-0.62-2-0.97-2.98
				C420.96,149.63,419.94,149.85,420.17,150.48L420.17,150.48z"/>
		</g>
		<g>
			<path class="st9" d="M426.81,151.36c-0.03,1.08,0.16,2.14,0.12,3.22c-0.02,0.67,1.02,0.73,1.04,0.05
				c0.03-1.08-0.16-2.14-0.12-3.22C427.88,150.74,426.83,150.69,426.81,151.36L426.81,151.36z"/>
		</g>
		<g>
			<path class="st9" d="M431.65,149.92c0.1,0.84,0.2,1.69,0.3,2.53c0.08,0.67,1.1,0.44,1.02-0.23c-0.1-0.84-0.2-1.69-0.3-2.53
				C432.59,149.02,431.57,149.26,431.65,149.92L431.65,149.92z"/>
		</g>
		<g>
			<path class="st9" d="M432.38,166.43c0.09,0.99,0.16,1.99,0.41,2.95c0.17,0.65,1.19,0.43,1.02-0.23
				c-0.25-0.96-0.32-1.96-0.41-2.95C433.34,165.54,432.32,165.77,432.38,166.43L432.38,166.43z"/>
		</g>
		<g>
			<path class="st9" d="M433.34,178.21c0.22,0.83,0.22,1.7,0.44,2.53c0.17,0.65,1.19,0.43,1.02-0.23c-0.21-0.83-0.22-1.7-0.44-2.53
				C434.19,177.33,433.17,177.56,433.34,178.21L433.34,178.21z"/>
		</g>
		<g>
			<path class="st9" d="M428.03,163.99c0.25,0.89,0.49,1.79,0.71,2.69c0.15,0.66,1.18,0.43,1.02-0.23c-0.21-0.9-0.46-1.8-0.71-2.69
				C428.87,163.11,427.85,163.34,428.03,163.99L428.03,163.99z"/>
		</g>
		<g>
			<path class="st9" d="M409.01,145.59c0.77,1.29,1.43,2.64,2.04,4.01c0.27,0.62,1.2,0.13,0.93-0.48c-0.61-1.37-1.27-2.72-2.04-4.01
				C409.6,144.53,408.66,145.01,409.01,145.59L409.01,145.59z"/>
		</g>
		<g>
			<path class="st9" d="M409.1,152.44c0.78,1.31,1.5,2.65,2.18,4.02c0.3,0.6,1.23,0.12,0.93-0.48c-0.68-1.37-1.4-2.71-2.18-4.02
				C409.68,151.38,408.75,151.86,409.1,152.44L409.1,152.44z"/>
		</g>
		<g>
			<path class="st9" d="M414.25,155.62c0.37,0.7,0.65,1.44,1.01,2.14c0.31,0.6,1.24,0.12,0.93-0.48c-0.37-0.7-0.65-1.44-1.01-2.14
				C414.86,154.54,413.93,155.02,414.25,155.62L414.25,155.62z"/>
		</g>
		<g>
			<path class="st9" d="M414.72,163.19c0.37,0.68,0.79,1.33,1.16,2.01c0.32,0.59,1.25,0.11,0.93-0.48
				c-0.37-0.68-0.79-1.33-1.16-2.01C415.32,162.11,414.39,162.59,414.72,163.19L414.72,163.19z"/>
		</g>
		<g>
			<path class="st9" d="M418.8,168.13c0.26,0.44,0.52,0.88,0.86,1.26c0.45,0.51,1.22-0.2,0.77-0.7c-0.28-0.32-0.49-0.68-0.7-1.05
				c-0.15-0.24-0.44-0.36-0.71-0.22C418.78,167.55,418.66,167.89,418.8,168.13L418.8,168.13z"/>
		</g>
		<g>
			<path class="st9" d="M402.94,158.42c0.65,1.54,1.99,2.68,2.96,4.02c0.39,0.55,1.17-0.16,0.77-0.7c-0.91-1.27-2.19-2.35-2.81-3.8
				C403.6,157.32,402.68,157.8,402.94,158.42L402.94,158.42z"/>
		</g>
		<g>
			<path class="st9" d="M398.39,161.66c1.02,1.13,1.99,2.32,3.16,3.31c0.51,0.44,1.08-0.45,0.57-0.88c-1.1-0.93-1.99-2.07-2.95-3.13
				C398.72,160.45,397.94,161.16,398.39,161.66L398.39,161.66z"/>
		</g>
		<g>
			<path class="st9" d="M406.58,171.41c0.8,0.75,1.46,1.61,2.11,2.48c0.41,0.54,1.18-0.17,0.77-0.7c-0.66-0.87-1.32-1.73-2.11-2.48
				C406.86,170.25,406.08,170.95,406.58,171.41L406.58,171.41z"/>
		</g>
		<g>
			<path class="st9" d="M409.71,167.24c0.55,0.61,1.03,1.28,1.58,1.89c0.45,0.5,1.23-0.2,0.77-0.7c-0.55-0.61-1.03-1.28-1.58-1.89
				C410.04,166.03,409.26,166.73,409.71,167.24L409.71,167.24z"/>
		</g>
		<g>
			<path class="st9" d="M415.31,172.68c0.69,0.62,1.31,1.3,1.86,2.05c0.4,0.54,1.17-0.16,0.77-0.7c-0.55-0.75-1.17-1.43-1.86-2.05
				C415.59,171.53,414.81,172.23,415.31,172.68L415.31,172.68z"/>
		</g>
		<g>
			<path class="st9" d="M414.02,176.38c0.67,0.59,1.34,1.18,2.01,1.77c0.5,0.44,1.28-0.26,0.77-0.7c-0.67-0.59-1.34-1.18-2.01-1.77
				C414.29,175.24,413.51,175.94,414.02,176.38L414.02,176.38z"/>
		</g>
		<g>
			<path class="st9" d="M420.61,178.52c0.95,1.36,1.84,2.75,2.87,4.05c0.42,0.53,1.19-0.18,0.77-0.7c-1.03-1.3-1.93-2.69-2.87-4.05
				C421,177.26,420.23,177.97,420.61,178.52L420.61,178.52z"/>
		</g>
		<g>
			<path class="st9" d="M397.06,205.46c-1.4,0.58-2.92,0.68-4.39,0.99c-0.66,0.14-0.43,1.16,0.23,1.02
				c1.57-0.33,3.15-0.47,4.65-1.08C398.17,206.13,397.68,205.2,397.06,205.46L397.06,205.46z"/>
		</g>
		<g>
			<path class="st9" d="M393.47,210.12c-1.08,0.23-2.14,0.57-3.24,0.66c-0.66,0.05-0.72,1.1-0.05,1.04
				c1.21-0.09,2.34-0.44,3.52-0.68C394.36,211,394.13,209.98,393.47,210.12L393.47,210.12z"/>
		</g>
		<g>
			<path class="st9" d="M387.28,205.35c-0.7,0.15-1.38,0.4-1.98,0.79c-0.56,0.37-0.08,1.3,0.48,0.93c0.53-0.35,1.11-0.57,1.72-0.7
				C388.17,206.23,387.94,205.21,387.28,205.35L387.28,205.35z"/>
		</g>
		<g>
			<path class="st9" d="M391.18,218.1c-0.63,0.54-1.46,0.82-2.19,1.21c-0.6,0.31-0.12,1.24,0.48,0.93c0.82-0.43,1.7-0.75,2.41-1.36
				C392.39,218.43,391.69,217.66,391.18,218.1L391.18,218.1z"/>
		</g>
		<g>
			<path class="st9" d="M404.29,211.95c-0.95,0.42-1.88,0.89-2.85,1.26c-0.63,0.24-0.14,1.17,0.48,0.93
				c0.97-0.37,1.9-0.83,2.85-1.26C405.39,212.61,404.9,211.68,404.29,211.95L404.29,211.95z"/>
		</g>
		<g>
			<path class="st9" d="M409.82,207.14c-0.94,0.12-1.89,0.36-2.68,0.9c-0.55,0.38-0.07,1.31,0.48,0.93c0.73-0.5,1.56-0.7,2.43-0.81
				C410.71,208.08,410.48,207.06,409.82,207.14L409.82,207.14z"/>
		</g>
		<g>
			<path class="st9" d="M425.83,205.27c-0.81,0.28-1.59,0.62-2.42,0.86c-0.64,0.19-0.42,1.21,0.23,1.02
				c0.82-0.24,1.61-0.58,2.42-0.86C426.68,206.07,426.46,205.04,425.83,205.27L425.83,205.27z"/>
		</g>
		<g>
			<path class="st9" d="M425.51,220.67c-0.86,0.49-1.38,1.28-1.74,2.18c-0.25,0.63,0.75,0.95,0.99,0.33
				c0.26-0.64,0.62-1.23,1.23-1.58C426.58,221.26,426.1,220.33,425.51,220.67L425.51,220.67z"/>
		</g>
		<g>
			<path class="st9" d="M416.08,228.67c-1.31,1.09-2.29,2.57-3.83,3.36c-0.6,0.31-0.12,1.24,0.48,0.93
				c1.63-0.84,2.66-2.37,4.05-3.52C417.3,229.01,416.59,228.24,416.08,228.67L416.08,228.67z"/>
		</g>
		<g>
			<path class="st9" d="M415.84,236.34c-0.78,0.85-1.51,1.75-2.36,2.54c-0.5,0.46,0.21,1.23,0.7,0.77c0.85-0.79,1.58-1.68,2.36-2.54
				C417,236.62,416.3,235.84,415.84,236.34L415.84,236.34z"/>
		</g>
		<g>
			<path class="st9" d="M408.85,239.35c-0.73,0.67-1.33,1.46-2.06,2.13c-0.5,0.46,0.21,1.23,0.7,0.77c0.73-0.67,1.33-1.46,2.06-2.13
				C410.05,239.66,409.35,238.89,408.85,239.35L408.85,239.35z"/>
		</g>
		<g>
			<path class="st9" d="M402.68,239.88c-0.77,0.82-1.72,1.44-2.62,2.11c-0.54,0.4,0.17,1.18,0.7,0.77c0.9-0.67,1.84-1.29,2.62-2.11
				C403.85,240.17,403.15,239.39,402.68,239.88L402.68,239.88z"/>
		</g>
		<g>
			<path class="st9" d="M402.35,247.79c-0.43,0.62-0.98,1.13-1.53,1.63c-0.5,0.45,0.2,1.23,0.7,0.77c0.62-0.56,1.23-1.14,1.71-1.84
				C403.61,247.81,402.74,247.24,402.35,247.79L402.35,247.79z"/>
		</g>
		<g>
			<path class="st9" d="M433.95,220.27c-0.33,1.32-0.3,2.68-0.49,4.03c-0.1,0.67,0.95,0.71,1.04,0.05c0.18-1.25,0.14-2.52,0.44-3.75
				C435.1,219.95,434.11,219.62,433.95,220.27L433.95,220.27z"/>
		</g>
		<g>
			<path class="st9" d="M431.48,233.7c-0.33,1.13-0.54,2.29-0.75,3.45c-0.12,0.66,0.93,0.71,1.04,0.05
				c0.19-1.07,0.39-2.13,0.69-3.18C432.66,233.38,431.67,233.05,431.48,233.7L431.48,233.7z"/>
		</g>
		<g>
			<path class="st9" d="M432.28,239.74c-0.07,1.24-0.28,2.43-0.72,3.6c-0.24,0.63,0.76,0.96,0.99,0.33
				c0.46-1.25,0.69-2.54,0.77-3.87C433.36,239.12,432.32,239.07,432.28,239.74L432.28,239.74z"/>
		</g>
		<g>
			<path class="st9" d="M428.61,246.68c-0.35,1.32-0.57,2.68-0.89,4.01c-0.16,0.65,0.83,0.98,0.99,0.33
				c0.32-1.33,0.54-2.68,0.89-4.01C429.77,246.36,428.78,246.03,428.61,246.68L428.61,246.68z"/>
		</g>
		<g>
			<path class="st9" d="M430.28,263.52c-0.07,1.43-0.17,2.82-0.74,4.15c-0.27,0.62,0.73,0.94,0.99,0.33
				c0.61-1.41,0.72-2.91,0.79-4.43C431.36,262.9,430.32,262.85,430.28,263.52L430.28,263.52z"/>
		</g>
		<g>
			<path class="st9" d="M427.68,262.56c-0.08,1.2-0.38,2.34-0.85,3.45c-0.26,0.62,0.74,0.94,0.99,0.33c0.5-1.19,0.82-2.43,0.9-3.73
				C428.77,261.94,427.72,261.89,427.68,262.56L427.68,262.56z"/>
		</g>
		<g>
			<path class="st9" d="M423.4,270.03c-0.08,1.06-0.51,2.03-0.83,3.03c-0.2,0.64,0.79,0.97,0.99,0.33c0.34-1.1,0.79-2.15,0.88-3.31
				C424.5,269.41,423.45,269.36,423.4,270.03L423.4,270.03z"/>
		</g>
		<g>
			<path class="st9" d="M427.46,273.16c0.07,0.23-0.06,0.64-0.12,0.9c-0.11,0.45-0.24,0.88-0.41,1.31
				c-0.24,0.63,0.76,0.96,0.99,0.33c0.19-0.51,0.35-1.04,0.47-1.57c0.08-0.36,0.2-0.82,0.09-1.19
				C428.28,272.29,427.26,272.51,427.46,273.16L427.46,273.16z"/>
		</g>
		<path class="st10" d="M396.44,215.09c3.42-0.75,7.2-4.54,9.41-8.18c5.38-8.91,3.01-23.19,13.88-39.83
			c3.84-5.88,17.41-16.33,17.94-18.54c1.42-5.97-0.15-11.32-0.15-11.32c-0.11-12.15-29.39,8.64-34.32,13.69
			c-11.08,11.33-16.93,31.13-17.86,46.98c-0.23,3.86-0.57,8.74,1.72,12.07C389.07,212.89,391.22,216.24,396.44,215.09z"/>
	</g>
	<g>
		<path class="st11" d="M653.34,421.78c-11.39,8.53-19.63,19.24-22.45,29.12c2.58-7.7,8.84-15.85,17.36-22.63
			c-3.72,3.91-6.02,8.11-8.25,12.22c0.37-1.22,1.39-2.54,2.78-3.6c-2.87,5.02-5.41,10.1-6.5,14.96c-1.09,4.86-0.66,9.52,2.21,12.8
			c-1.3-7.82,0.09-16.64,4.04-25.65c-0.95,6.2-0.69,12.12,0.78,17.54c0.1,0.38,0.33,0.81,0.94,0.7c0.39-4.84-0.02-9.45,0.11-14.21
			c0.04-1.64,0.15-3.31,0.66-5.05c0.54-1.87,1.53-3.79,2.51-5.7c0.85-1.66,1.71-3.32,2.56-4.98c0.28,0.02,0.3,0.28,0.3,0.49
			c-0.01,1.34,0.48,2.5,0.77,3.74c1.21,5.14-0.83,11.61,2,15.98c1.32-4.52,0.91-8.68,0.27-12.68c-0.46-2.89-1.03-5.74-1.72-8.54
			c0.57-0.25,1.13-0.1,1.35,0.19c0.22,0.3,0.2,0.71,0.2,1.1c0.02,1.83,0.75,3.45,2.09,4.65c0.67-2.39,0.27-4.59-1.13-6.19
			c-0.37-0.42-0.82-0.84-0.79-1.44c0.04-0.68,0.71-1.46,1.42-2.14c2.13-2.03,5.02-3.75,7.97-4.74c-0.65,0.22-1.85-0.05-2.63,0.1
			c-0.67,0.14-1.14,0.3-1.78,0.61C656.64,419.32,654.86,420.64,653.34,421.78z"/>
		<path class="st11" d="M542.28,445.48c-7.1,4.62-13.59,9.76-20.05,14.89c8.38-4.95,14.95-11.98,23.8-16.1
			c-4.43,3.01-8.57,6.3-12.29,9.76c6.28-3.49,11.84-7.81,17.33-12.08c-3.96,4.57-8.61,8.98-13.78,13.05
			c6.06-3.24,10.9-7.76,15.82-12.02c4.88-4.22,9.82-7.83,16.08-10.62C559.81,435.98,550.75,439.97,542.28,445.48z"/>
		<path class="st12" d="M589.82,427.32c-9.2,6.31-18.48,13.03-24.59,20.73c-0.54,0.69-1.07,1.4-1.25,2.08
			c3.54-4.05,7.71-7.94,12.34-11.53c-9.09,8.17-13.83,18.03-13.21,26.03c1.02-4.2,2.54-8.5,4.53-12.82
			c1.68-3.66,3.77-7.43,7.2-10.88c-2.19,3.97-4.42,8.1-4.21,11.66c2.38-7.25,7.72-14.89,15.12-21.63
			c-3.45,6.78-6.9,13.56-10.36,20.35c-0.34,0.67-0.69,1.41-0.42,1.92c3.55-4.34,5.79-8.84,8.29-13.29c2.5-4.45,5.4-9.01,9.93-13.04
			c1.8-1.6,3.92-3.15,6.29-4.03c-1.54,0.57-3.03,0.62-4.68,1.39C593.04,425.08,591.39,426.24,589.82,427.32z"/>
		<path class="st12" d="M560.43,425.75c-1.47-0.31-3.05-0.62-4.9-0.15c3.17,0.8,6.34,1.6,9.5,2.4c-7.22-0.46-14.8-0.88-23.01,1.48
			c5.19-0.09,10.37-0.18,15.56-0.27c0.69-0.01,1.45,0,1.74,0.38c-5.57,0.33-11.25,0.68-17.17,2.39c-2.43,0.7-5.11,1.78-6.72,3.5
			c2.22-0.23,4.58-1.01,6.9-1.69c7.58-2.23,15.14-3.48,22.15-3.66c-3.12-0.05-6.76,0.84-10.09,2.45c5.81,0.02,12.67-3.16,18.83-3.93
			c2.35-0.29,4.5-0.11,6.83-0.39c0.13-0.72-8.22-0.5-9.61-0.67C566.96,427.17,563.7,426.44,560.43,425.75z"/>
		<path class="st11" d="M608.93,423.68c-1.67,1.64-2.92,3.39-4.16,5.13c-6.22,8.76-12.45,17.53-18.67,26.29
			c1.54-0.98,2.52-2.32,3.44-3.58c4.52-6.25,9.04-12.5,13.55-18.74c1.47-2.03,2.97-4.1,5.1-5.94c0.31,0.67-0.41,1.65-1.05,2.51
			c-2.06,2.73-3.76,5.52-5.05,8.28c-0.74,1.58-1.34,3.28-0.64,4.43c2.61-5.05,5.46-10.11,8.54-15.16c0.44,0.87-0.25,2.13-0.86,3.27
			c-3.61,6.77-4.75,13.5-3.24,19.13c0.15,0.58,0.44,1.2,1.29,1.21c0.85-1.98,0.71-3.8,0.8-5.64c0.15-3.12,0.98-6.42,1.81-9.7
			c0.87-3.42,1.73-6.85,2.6-10.27c0.22,0.94,0.48,1.92,1.43,2.42c0.63-1.43-0.43-2.43-0.65-3.66c-0.24-1.38,0.65-2.97,2.08-4.45
			C613.02,420.55,610.69,421.96,608.93,423.68z"/>
		<path class="st11" d="M606.58,421.23c-10.2-0.98-17.36-5.52-24.23-9.97c3.25,3.97,8.15,6.94,14.24,8.61
			c-6.05-0.27-10.87-2.23-15.04-4.6c-4.17-2.37-7.79-5.19-12.16-7.4c-2.19-1.11-4.7-2.08-7.93-1.84
			c11.47,1.67,15.38,10.97,26.31,13.31c-4.02-0.65-8.4-0.82-13-0.53c-1.31,0.08-2.78,0.26-4.04,1.03c1.37,0.52,3.55-0.11,5.42-0.29
			c2.81-0.28,5.02,0.49,7.53,0.74c4.25,0.43,9.39-0.61,13.55-0.06c2.96,0.39,5.28,1.58,8.26,1.96c-0.16-0.56-0.65-0.97-1.37-1.13
			L606.58,421.23z"/>
		<path class="st11" d="M572.95,378.13c-3.56,5.66-2.34,10.83-1.02,15.54c-4.54-6.13-5.97-13.9-9.92-20.36
			c-0.75-1.23-1.69-2.47-3.55-2.8c-0.53,2.88,0.6,5.26,1.72,7.55c2.48,5.08,4.97,10.18,8.24,14.85c-2.14-1.8-4.65-3.35-7.48-4.61
			c-1.36-0.61-2.91-1.16-4.88-0.89c7.35,5.19,14.25,10.7,21.46,15.99c-1.12-3.93-3.87-7.06-4.74-11.17
			C571.86,387.85,571.9,383.09,572.95,378.13z"/>
		<path class="st11" d="M595.87,384.28c5.18-5.39,10.86-10.79,17.83-15.05c1.88-1.15,4.08-2.28,5.98-2.29
			c-3.92,2.25-7.87,4.52-11.39,7.16c-4.55,3.42-8.22,7.34-11.64,11.26c-3.39,3.89-6.6,7.82-9.6,11.78
			c11.46-13.02,29.93-23.58,48.1-29.36c2.24-0.71,4.66-1.37,6.42-0.97c-3.54,1.37-7.09,2.72-10.61,4.2
			c-15.59,6.59-30.39,15.89-42.26,26.57c7.37-4.75,14.86-9.57,22.96-13.08c4.26-1.84,8.91-3.34,12.69-3.04
			c-7.73,3.73-15.79,6.6-23.51,10.33c-7.73,3.74-15.43,8.65-19.81,14.5c-2.18-2.22,2.39-7.37,4.77-10.51
			C588.79,391.87,592.25,388.04,595.87,384.28z"/>
		<path class="st12" d="M592.99,411.46c-5.48-0.49-10.9-0.78-17.07-0.08c-3.8,0.43-7.7,1.1-11.59,1.87
			c-2.19,0.43-5.16,0.93-7.2,2.21c4.17,0.21,10.01-1.65,14.59-2.49c3.57-0.65,11.08-2.06,13.3-0.54
			c-6.01-0.05-12.27,0.83-18.86,2.35c-4.68,1.08-10.5,3.03-15.05,5.22c-2.34,1.12-6.57,3.1-7.83,5.05c1.94-0.44,4.3-1.96,6.2-2.88
			c4.73-2.28,9.5-3.74,14.33-5.21c6.11-1.86,11.68-2.69,17.43-3.21c-3.06-0.11-7.24,1.03-10.57,2.29c-2.19,0.83-7.79,2.81-8.71,4.73
			c4.13-1.16,8.5-3.54,12.74-4.81c3.52-1.06,6.87-1.55,10.26-2.01c5.26-0.71,11.72-1.38,15.99-0.33c-2.76-0.81-5.8-1.73-8.98-2.01
			C592.13,411.74,592.37,411.77,592.99,411.46z"/>
		<path class="st12" d="M603.2,382.06c1.88-2.97,4.26-6.08,7.83-8.4c-4.6,6.56-9.28,13.29-10.81,19.7
			c-0.27,1.13-0.43,2.28,0.08,3.14c3.16-6.08,7.05-12.21,12.21-18.08c5.16-5.87,11.62-11.5,19.13-15.99
			c-11.61,10.47-22.21,21.62-29.22,33.1c-0.62,1.02-1.1,2.37,0.06,2.53c1.04-1.12,1.74-2.3,2.5-3.47
			c4.44-6.84,11.02-13.54,18.91-19.21c0.76-0.55,2.07-1.11,2.26-0.57c0.06,0.17-0.05,0.39-0.16,0.59c-1.31,2.31-4.18,4.33-6.67,6.35
			c-6.02,4.91-10.39,10.55-14.28,16.11c-2.13,3.04-4.18,6.13-5.21,9.15c-1.03,3.02-0.97,6,0.99,7.87c-1.42-1.36-3.25-1.55-3.83-3.47
			c-0.61-2.05-0.93-4.23-0.99-6.48c-0.12-4.51,0.83-9.36,2.8-14.3C599.93,387.79,601.4,384.91,603.2,382.06z"/>
		<path class="st11" d="M633.9,368.03c-0.28-0.87-0.52-1.89,0.37-2.93c0.32,0.17,0.48,0.46,0.63,0.74c2.26,4.32,2.8,9.47,5.4,13.61
			c-0.12-1.39-0.03-2.84,0.09-4.3c0.8-9.39,3.26-19.59,11.11-29.43c0.78-0.98,1.65-1.98,2.85-2.75c-0.15,1.18-0.98,2.46-1.73,3.7
			c-4.21,7-6.18,13.93-8.1,20.77c-1.04,3.7-2.09,7.44-1.97,10.86c1.09-3.82,2.61-7.7,4.54-11.6c1.53-3.09,3.35-6.25,6.19-9.18
			c0.62-0.64,1.45-1.35,2.34-1.5c-0.37,1.48-1.48,3.02-2.5,4.53c-7.21,10.68-10.66,21.66-9.81,31.19c-0.1-1.21-1.09-2.59-1.56-3.67
			c-0.68-1.58-1.36-3.16-2.03-4.75c-1.35-3.2-2.65-6.42-3.86-9.69C635.18,371.79,634.52,369.92,633.9,368.03z"/>
		<path class="st11" d="M653.47,399.51c-0.2-2.24-0.4-4.49-0.26-6.83c0.37-6.07,3.07-12.72,7.13-19.25c0.81-1.31,1.77-2.7,3.34-3.73
			c0.33,0.52-0.17,1.33-0.64,2.05c-3.32,5.09-5.63,10.26-6.8,15.21c3.09-5.7,6.68-11.48,11.88-16.88c2.62-2.72,5.94-5.5,9.8-6.73
			c-1.2,1.29-2.67,2.47-4.07,3.68c-7.92,6.78-14.07,14.47-17.62,22.04c2.99-3.47,6.5-6.82,10.4-9.93c1.22-0.98,2.66-2.01,4.15-2.27
			c-2.48,3.07-6.5,5.63-9.35,8.61c-2.38,2.49-3.85,5.2-4.66,7.78c-0.81,2.58-0.98,5.04-1.03,7.45c-0.06,3.15,0.17,6.21,1.77,8.7
			C654.46,406.77,653.83,403.45,653.47,399.51z"/>
		<path class="st11" d="M650.85,411.83c-3.8,0.64-7.81,1.55-11.47,3.51c5.1-1.46,10.18-2.53,15.13-3.19
			c-4.15,0.55-8.52,2.11-12.74,3.84c-10.83,4.43-21.72,10.47-29.22,18.16c10.39-7.89,22.48-14.83,35-18.96
			c1.66-0.55,3.36-1.06,4.95-1.19c-6.76,1.95-13.54,5.38-19.11,9.66c-0.92,0.71-1.87,1.51-2.17,2.33c1.28-0.63,2.43-1.46,3.58-2.26
			c9.45-6.55,20.93-11.7,31.46-12.96c-2.35,0.29-4.41-0.25-6.76-0.05C656.67,410.96,653.78,411.33,650.85,411.83z"/>
		<path class="st11" d="M671.72,404.55c0.83-5.89,2.48-12.06,6.28-18.26c1.09-1.78,2.38-3.58,4.19-5.2
			c0.14,0.37-0.15,0.87-0.43,1.33c-3.72,6.1-6.44,12.24-8.08,18.21c-0.4,1.44-0.71,2.96,0.09,3.95c1.34-3.53,2.68-7.06,4.03-10.59
			c0.97-2.55,1.94-5.1,3.17-7.66c1.54-3.2,3.5-6.43,5.83-9.6c1.98-2.7,4.4-5.51,7.8-7.5c0.25-0.14,0.55-0.3,0.76-0.25
			c0.31,0.07,0.09,0.48-0.15,0.77c-9.35,11.3-16.21,23.14-19.49,34.47c3.03-5.54,6.11-11.17,10.84-16.52
			c1.07-1.22,2.24-2.42,3.62-3.51c0.38-0.3,0.92-0.63,1.29-0.54c0.4,0.09,0.21,0.58-0.03,0.96c-1.34,2.07-3.38,4.04-5.03,6.07
			c-3.04,3.75-4.69,7.65-7.29,11.47c-1.41,2.07-3.1,4.12-4.29,6.21c-0.71,1.24-1.23,2.51-1.35,3.68c-0.1,0.91,0.44,1.66,0.34,2.5
			c-1.65-0.11-2.11-1.81-2.29-2.88C671.16,409.42,671.37,406.99,671.72,404.55z"/>
		<path class="st11" d="M637.81,404.84c-4.72,0.77-9.55,2.04-14.34,3.11c-1.74,0.39-3.56,0.75-4.95,0.45
			c0.15-0.33,0.69-0.55,1.13-0.7c4.18-1.41,8.37-2.52,12.5-3.3c2.56-0.49,5.12-0.86,7.71-1.73c-1.57-0.52-3.71-0.32-5.78-0.11
			c-6.77,0.67-13.51,1.27-20.12,1.58c-2.13,0.1-4.26,0.17-6.14-0.13c-0.78-0.12-1.55-0.65-0.85-1.29c0.23-0.21,0.56-0.35,0.87-0.47
			c1.36-0.52,2.74-0.81,4.09-1.08c9.35-1.83,18.45-2.5,26.78-1.97c-3.05-1.2-5.86-2.9-9.46-3.49c-3.6-0.6-5.84-1.8-9.59-2.57
			c-0.5-0.1-0.32-0.83,0.18-1.24c0.38-0.32,0.98-0.51,1.4-0.47c5.37,0.58,8.1,1.78,11.31,3.43c3.2,1.65,6.48,2.63,9.43,4.48
			c1.4,0.88,2.89,1.68,4.38,2.48c1.38,0.74,3.12,1.38,4.22,2.33c-1.3,0.77-4.18,0-5.42,0C642.8,404.16,640.32,404.43,637.81,404.84z
			"/>
		<g>
			<path class="st11" d="M549.89,441.45c24.33-10.83,49.19-19.56,75.73-22.86c0.89-0.11,0.9-1.53,0-1.42
				c-26.23,3.44-52.58,11.42-75.9,23.99C549.53,441.27,549.7,441.54,549.89,441.45L549.89,441.45z"/>
		</g>
		<g>
			<path class="st11" d="M643.51,370.72c-4.65,12.02-2.79,25.61,7.27,34.25c4.41,3.79,9.8,6.4,15.35,8.06
				c6.13,1.84,14.38,3.62,20.69,1.97c0.54-0.14,0.59-1.04,0-1.15c-5.99-1.1-12.06-0.65-18.07-2.26c-5.41-1.45-10.69-3.68-15.17-7.09
				c-10.75-8.18-12.39-21.26-9.86-33.72C643.75,370.64,643.56,370.59,643.51,370.72L643.51,370.72z"/>
		</g>
		<g>
			<path class="st11" d="M567.43,390.15c7,21.17,35.09,26.12,54.18,28.08c29.44,3.02,59.35-0.61,87.95-7.74
				c1.14-0.29,0.66-2.05-0.49-1.77c-26.76,6.7-54.56,10.28-82.15,8.26c-20.37-1.49-49.99-5.63-59.39-26.87
				C567.51,390.05,567.41,390.09,567.43,390.15L567.43,390.15z"/>
		</g>
	</g>
	<g>
		<path class="st11" d="M547.8,399.7c-11.39,8.53-19.63,19.24-22.45,29.12c2.58-7.7,8.84-15.85,17.36-22.63
			c-3.72,3.91-6.02,8.11-8.25,12.22c0.37-1.22,1.39-2.54,2.78-3.6c-2.87,5.02-5.41,10.1-6.5,14.96s-0.66,9.52,2.21,12.8
			c-1.3-7.82,0.09-16.64,4.04-25.65c-0.95,6.2-0.69,12.12,0.78,17.54c0.1,0.38,0.33,0.81,0.94,0.7c0.39-4.84-0.02-9.45,0.11-14.21
			c0.04-1.64,0.15-3.31,0.66-5.05c0.54-1.87,1.53-3.79,2.51-5.7c0.85-1.66,1.71-3.32,2.56-4.98c0.28,0.02,0.3,0.28,0.3,0.49
			c-0.01,1.34,0.48,2.5,0.77,3.74c1.21,5.14-0.83,11.61,2,15.98c1.32-4.52,0.91-8.68,0.27-12.68c-0.46-2.89-1.03-5.74-1.72-8.54
			c0.57-0.25,1.13-0.1,1.35,0.19c0.22,0.3,0.2,0.71,0.2,1.1c0.02,1.83,0.75,3.45,2.09,4.65c0.67-2.39,0.27-4.59-1.13-6.19
			c-0.37-0.42-0.82-0.84-0.79-1.44c0.04-0.68,0.71-1.46,1.42-2.14c2.13-2.03,5.02-3.75,7.97-4.74c-0.65,0.22-1.85-0.05-2.63,0.1
			c-0.67,0.14-1.14,0.3-1.78,0.61C551.1,397.23,549.32,398.56,547.8,399.7z"/>
		<path class="st11" d="M436.74,423.4c-7.1,4.62-13.59,9.76-20.05,14.89c8.38-4.95,14.95-11.98,23.8-16.1
			c-4.43,3.01-8.57,6.3-12.29,9.76c6.28-3.49,11.84-7.81,17.33-12.08c-3.96,4.57-8.61,8.98-13.78,13.05
			c6.06-3.24,10.9-7.76,15.82-12.02c4.88-4.22,9.82-7.83,16.08-10.62C454.27,413.9,445.21,417.89,436.74,423.4z"/>
		<path class="st12" d="M484.28,405.24c-9.2,6.31-18.48,13.03-24.59,20.73c-0.54,0.69-1.07,1.4-1.25,2.08
			c3.54-4.05,7.71-7.94,12.34-11.53c-9.09,8.17-13.83,18.03-13.21,26.03c1.02-4.2,2.54-8.5,4.53-12.82
			c1.68-3.66,3.77-7.43,7.2-10.88c-2.19,3.97-4.42,8.1-4.21,11.66c2.38-7.25,7.72-14.89,15.12-21.63
			c-3.45,6.78-6.9,13.56-10.36,20.35c-0.34,0.67-0.69,1.41-0.42,1.92c3.55-4.34,5.79-8.84,8.29-13.29c2.5-4.45,5.4-9.01,9.93-13.04
			c1.8-1.6,3.92-3.15,6.29-4.03c-1.54,0.57-3.03,0.62-4.68,1.39C487.5,403,485.85,404.16,484.28,405.24z"/>
		<path class="st12" d="M454.89,403.66c-1.47-0.31-3.05-0.62-4.9-0.15c3.17,0.8,6.34,1.6,9.5,2.4c-7.22-0.46-14.8-0.88-23.01,1.48
			c5.19-0.09,10.37-0.18,15.56-0.27c0.69-0.01,1.45,0,1.74,0.38c-5.57,0.33-11.25,0.68-17.17,2.39c-2.43,0.7-5.11,1.78-6.72,3.5
			c2.22-0.23,4.58-1.01,6.9-1.69c7.58-2.23,15.14-3.48,22.15-3.66c-3.12-0.05-6.76,0.84-10.09,2.45c5.81,0.02,12.67-3.16,18.83-3.93
			c2.35-0.29,4.5-0.11,6.83-0.39c0.13-0.72-8.22-0.5-9.61-0.67C461.42,405.09,458.16,404.36,454.89,403.66z"/>
		<path class="st11" d="M503.39,401.6c-1.67,1.64-2.92,3.39-4.16,5.13c-6.22,8.76-12.45,17.53-18.67,26.29
			c1.54-0.98,2.52-2.32,3.44-3.58c4.52-6.25,9.04-12.5,13.55-18.74c1.47-2.03,2.97-4.1,5.1-5.94c0.31,0.67-0.41,1.65-1.05,2.51
			c-2.06,2.73-3.76,5.52-5.05,8.28c-0.74,1.58-1.34,3.28-0.64,4.43c2.61-5.05,5.46-10.11,8.54-15.16c0.44,0.87-0.25,2.13-0.86,3.27
			c-3.61,6.77-4.75,13.5-3.24,19.13c0.15,0.58,0.44,1.2,1.29,1.21c0.85-1.98,0.71-3.79,0.8-5.64c0.15-3.12,0.98-6.42,1.81-9.7
			c0.87-3.42,1.73-6.85,2.6-10.27c0.22,0.94,0.48,1.92,1.43,2.42c0.63-1.43-0.43-2.43-0.65-3.66c-0.24-1.38,0.65-2.97,2.08-4.45
			C507.48,398.47,505.15,399.88,503.39,401.6z"/>
		<path class="st11" d="M501.04,399.15c-10.2-0.98-17.36-5.52-24.23-9.97c3.25,3.97,8.15,6.94,14.24,8.61
			c-6.05-0.27-10.87-2.23-15.04-4.6c-4.17-2.37-7.8-5.19-12.16-7.4c-2.19-1.11-4.7-2.08-7.93-1.84
			c11.47,1.67,15.38,10.97,26.31,13.31c-4.02-0.65-8.4-0.82-13-0.53c-1.31,0.08-2.78,0.26-4.04,1.03c1.37,0.52,3.55-0.11,5.42-0.29
			c2.81-0.28,5.02,0.49,7.53,0.74c4.25,0.43,9.39-0.61,13.55-0.06c2.96,0.39,5.28,1.58,8.26,1.96c-0.16-0.56-0.65-0.97-1.37-1.13
			L501.04,399.15z"/>
		<path class="st11" d="M467.41,356.04c-3.56,5.66-2.34,10.83-1.02,15.54c-4.54-6.13-5.97-13.9-9.92-20.36
			c-0.75-1.23-1.69-2.47-3.55-2.8c-0.53,2.88,0.6,5.26,1.72,7.55c2.48,5.08,4.97,10.18,8.24,14.84c-2.14-1.8-4.65-3.35-7.48-4.61
			c-1.36-0.61-2.91-1.16-4.88-0.89c7.35,5.19,14.25,10.7,21.46,15.99c-1.12-3.93-3.87-7.06-4.74-11.17
			C466.32,365.77,466.36,361.01,467.41,356.04z"/>
		<path class="st11" d="M490.33,362.19c5.19-5.39,10.86-10.79,17.83-15.05c1.88-1.15,4.08-2.28,5.98-2.29
			c-3.92,2.25-7.87,4.52-11.39,7.16c-4.55,3.42-8.22,7.34-11.64,11.26c-3.39,3.89-6.6,7.82-9.6,11.78
			c11.46-13.02,29.93-23.58,48.1-29.36c2.24-0.71,4.66-1.37,6.42-0.97c-3.54,1.37-7.09,2.72-10.61,4.2
			c-15.59,6.59-30.39,15.89-42.26,26.57c7.37-4.75,14.86-9.57,22.96-13.08c4.26-1.84,8.91-3.34,12.69-3.04
			c-7.73,3.73-15.79,6.6-23.51,10.33c-7.73,3.74-15.43,8.65-19.81,14.5c-2.18-2.22,2.39-7.37,4.77-10.51
			C483.25,369.79,486.71,365.96,490.33,362.19z"/>
		<path class="st12" d="M487.45,389.38c-5.48-0.49-10.9-0.78-17.07-0.08c-3.8,0.43-7.7,1.1-11.59,1.87
			c-2.19,0.43-5.16,0.93-7.2,2.21c4.17,0.21,10.01-1.65,14.59-2.49c3.57-0.65,11.08-2.06,13.3-0.54
			c-6.01-0.05-12.27,0.83-18.86,2.35c-4.68,1.08-10.5,3.03-15.05,5.22c-2.34,1.12-6.57,3.1-7.82,5.05c1.94-0.44,4.3-1.96,6.2-2.88
			c4.73-2.28,9.5-3.74,14.33-5.21c6.11-1.86,11.68-2.69,17.43-3.21c-3.06-0.11-7.24,1.03-10.57,2.29c-2.19,0.83-7.79,2.81-8.71,4.73
			c4.13-1.16,8.5-3.54,12.74-4.81c3.52-1.06,6.87-1.55,10.26-2.01c5.26-0.71,11.72-1.38,15.99-0.33c-2.76-0.81-5.8-1.73-8.98-2.01
			C486.59,389.65,486.83,389.69,487.45,389.38z"/>
		<path class="st12" d="M497.66,359.98c1.88-2.97,4.26-6.08,7.83-8.4c-4.6,6.56-9.28,13.29-10.81,19.7
			c-0.27,1.13-0.43,2.28,0.08,3.14c3.16-6.08,7.06-12.21,12.21-18.08c5.16-5.87,11.62-11.5,19.13-15.99
			c-11.61,10.47-22.21,21.62-29.22,33.1c-0.62,1.02-1.1,2.37,0.06,2.53c1.04-1.12,1.74-2.3,2.5-3.47
			c4.44-6.84,11.02-13.54,18.91-19.21c0.76-0.55,2.07-1.11,2.26-0.57c0.06,0.17-0.05,0.39-0.16,0.59c-1.31,2.31-4.18,4.33-6.67,6.35
			c-6.02,4.91-10.39,10.55-14.28,16.11c-2.13,3.04-4.18,6.13-5.21,9.15c-1.03,3.02-0.97,6,0.99,7.87c-1.42-1.36-3.25-1.55-3.83-3.47
			c-0.61-2.05-0.93-4.23-0.99-6.48c-0.12-4.51,0.83-9.36,2.8-14.3C494.39,365.7,495.86,362.83,497.66,359.98z"/>
		<path class="st11" d="M528.36,345.95c-0.28-0.87-0.52-1.89,0.37-2.93c0.32,0.17,0.48,0.46,0.63,0.74c2.26,4.32,2.8,9.47,5.4,13.61
			c-0.12-1.39-0.03-2.84,0.09-4.3c0.8-9.39,3.26-19.59,11.11-29.43c0.78-0.98,1.65-1.98,2.85-2.75c-0.15,1.18-0.98,2.46-1.73,3.7
			c-4.21,7-6.18,13.93-8.1,20.77c-1.04,3.7-2.09,7.44-1.97,10.86c1.09-3.82,2.61-7.7,4.54-11.6c1.53-3.09,3.35-6.25,6.19-9.18
			c0.62-0.64,1.45-1.35,2.34-1.5c-0.37,1.48-1.48,3.02-2.5,4.53c-7.21,10.68-10.66,21.66-9.81,31.19c-0.1-1.21-1.09-2.59-1.56-3.67
			c-0.68-1.58-1.36-3.16-2.03-4.75c-1.35-3.2-2.65-6.42-3.86-9.69C529.64,349.7,528.98,347.83,528.36,345.95z"/>
		<path class="st11" d="M547.93,377.42c-0.2-2.24-0.4-4.49-0.26-6.83c0.37-6.07,3.07-12.72,7.13-19.25c0.81-1.31,1.77-2.7,3.34-3.73
			c0.33,0.52-0.17,1.33-0.64,2.05c-3.32,5.09-5.63,10.26-6.8,15.21c3.09-5.7,6.68-11.48,11.88-16.88c2.62-2.72,5.94-5.5,9.8-6.73
			c-1.2,1.29-2.67,2.47-4.07,3.68c-7.92,6.78-14.07,14.47-17.62,22.04c2.99-3.47,6.5-6.82,10.4-9.93c1.22-0.98,2.66-2.01,4.15-2.27
			c-2.48,3.07-6.5,5.63-9.35,8.61c-2.38,2.49-3.85,5.2-4.66,7.78c-0.81,2.58-0.98,5.04-1.03,7.45c-0.06,3.15,0.17,6.21,1.77,8.7
			C548.92,384.69,548.29,381.36,547.93,377.42z"/>
		<path class="st11" d="M545.31,389.75c-3.8,0.64-7.81,1.55-11.47,3.51c5.1-1.46,10.18-2.53,15.13-3.19
			c-4.15,0.55-8.52,2.11-12.74,3.84c-10.83,4.44-21.72,10.47-29.22,18.16c10.39-7.89,22.48-14.83,35-18.96
			c1.66-0.55,3.36-1.06,4.95-1.19c-6.76,1.95-13.54,5.38-19.11,9.66c-0.92,0.71-1.87,1.51-2.17,2.33c1.28-0.63,2.43-1.46,3.58-2.26
			c9.45-6.55,20.93-11.7,31.46-12.96c-2.35,0.29-4.41-0.25-6.76-0.05C551.13,388.88,548.24,389.25,545.31,389.75z"/>
		<path class="st11" d="M566.18,382.47c0.83-5.89,2.48-12.06,6.28-18.26c1.09-1.78,2.38-3.58,4.19-5.2
			c0.14,0.37-0.15,0.87-0.43,1.33c-3.72,6.1-6.44,12.24-8.08,18.21c-0.4,1.44-0.71,2.96,0.09,3.95c1.34-3.53,2.68-7.06,4.03-10.59
			c0.97-2.55,1.94-5.1,3.17-7.66c1.54-3.2,3.5-6.43,5.83-9.6c1.98-2.7,4.4-5.51,7.8-7.5c0.25-0.14,0.55-0.3,0.76-0.25
			c0.31,0.07,0.09,0.48-0.15,0.77c-9.35,11.3-16.21,23.14-19.49,34.47c3.03-5.54,6.11-11.17,10.84-16.52
			c1.07-1.22,2.24-2.42,3.62-3.51c0.38-0.3,0.92-0.63,1.29-0.54c0.4,0.09,0.21,0.58-0.03,0.96c-1.34,2.07-3.38,4.04-5.02,6.07
			c-3.04,3.75-4.69,7.65-7.29,11.47c-1.41,2.07-3.1,4.12-4.29,6.21c-0.71,1.24-1.23,2.51-1.35,3.68c-0.1,0.91,0.44,1.66,0.34,2.5
			c-1.65-0.11-2.11-1.81-2.29-2.88C565.62,387.34,565.83,384.91,566.18,382.47z"/>
		<path class="st11" d="M532.27,382.75c-4.72,0.77-9.55,2.04-14.34,3.11c-1.74,0.39-3.56,0.75-4.95,0.45
			c0.15-0.33,0.69-0.55,1.13-0.7c4.18-1.41,8.37-2.52,12.5-3.3c2.56-0.49,5.12-0.86,7.71-1.73c-1.57-0.52-3.71-0.32-5.78-0.11
			c-6.77,0.67-13.51,1.27-20.12,1.58c-2.13,0.1-4.26,0.17-6.14-0.13c-0.78-0.12-1.55-0.65-0.85-1.29c0.23-0.21,0.56-0.35,0.87-0.47
			c1.36-0.52,2.74-0.81,4.09-1.08c9.35-1.83,18.45-2.5,26.78-1.97c-3.05-1.2-5.86-2.9-9.46-3.49c-3.6-0.6-5.84-1.8-9.59-2.57
			c-0.5-0.1-0.32-0.83,0.18-1.24c0.38-0.32,0.98-0.51,1.4-0.47c5.37,0.58,8.1,1.78,11.31,3.43c3.2,1.65,6.48,2.63,9.43,4.48
			c1.4,0.88,2.89,1.68,4.38,2.48c1.38,0.74,3.12,1.38,4.22,2.33c-1.3,0.77-4.18,0-5.42,0C537.26,382.08,534.78,382.34,532.27,382.75
			z"/>
		<g>
			<path class="st11" d="M444.35,419.37c24.33-10.83,49.19-19.56,75.73-22.86c0.89-0.11,0.9-1.53,0-1.42
				c-26.23,3.44-52.58,11.42-75.9,23.99C443.99,419.19,444.16,419.46,444.35,419.37L444.35,419.37z"/>
		</g>
		<g>
			<path class="st11" d="M537.97,348.64c-4.65,12.02-2.79,25.61,7.27,34.25c4.41,3.79,9.8,6.4,15.35,8.06
				c6.13,1.84,14.38,3.62,20.69,1.97c0.54-0.14,0.59-1.04,0-1.15c-5.99-1.11-12.06-0.65-18.07-2.26
				c-5.41-1.45-10.69-3.68-15.17-7.09c-10.75-8.18-12.39-21.26-9.86-33.72C538.21,348.56,538.02,348.51,537.97,348.64L537.97,348.64
				z"/>
		</g>
		<g>
			<path class="st11" d="M461.89,368.06c7,21.17,35.09,26.12,54.18,28.08c29.44,3.02,59.35-0.61,87.95-7.74
				c1.14-0.29,0.66-2.05-0.49-1.77c-26.76,6.7-54.56,10.28-82.15,8.26c-20.37-1.49-49.99-5.63-59.39-26.87
				C461.97,367.96,461.87,368.01,461.89,368.06L461.89,368.06z"/>
		</g>
	</g>
	<g>
		<circle class="st13" cx="731.17" cy="203.13" r="11.79"/>
		<path class="st14" d="M149.03,295.22c-17.09-0.39-34.06,2.66-50.84,5.95c-1.34,0.26-2.76,0.57-3.71,1.54
			c-1.02,1.04-1.26,2.59-1.37,4.03c-1.41,19.66,17.72,38.13,37.32,36.04c-7.38,6.84-14.89,14.14-18.4,23.57
			c-3.52,9.43-1.79,21.6,6.59,27.18c8.7,5.8,20.43,2.51,29.91-1.91c16.61-7.74,31.77-18.38,45.34-30.7
			c12.57-11.42,32.54-38.56,12.89-53.63c-5.42-4.16-13.73-3.44-20.09-4.87C173.88,299.57,162.37,295.53,149.03,295.22z"/>
		<path class="st15" d="M163.73,373.69c-10.68,5.36-22.19,8.84-33.7,12.04c21.1-6.61,39.78-20.66,51.99-39.09
			c-8.45,7.13-17.8,13.2-27.75,18.02c9.22-5.87,18.6-11.88,25.61-20.28c-6.72,0.28-13.38,1.88-19.49,4.69
			c4.12-3.73,9.12-6.48,14.48-7.94c-11.77-7.61-25.81-11.67-39.83-11.53c3.31-2.16,7.59-1.82,11.52-1.4
			c8.46,0.9,16.91,1.8,25.37,2.71c-14.47-11.32-34.4-11.68-52.78-11.53c4.66-2.61,10.26-2.76,15.61-2.74
			c10.65,0.04,21.3,0.5,31.92,1.37c-8.54-6.47-19.9-7.41-30.58-8.12c9.43-1.44,19.07-1.43,28.5,0.04
			c-6.13-4.83-13.95-7.1-21.73-7.74c-7.77-0.64-15.58,0.24-23.33,1.12c10.63-1.42,21.35-2.19,32.08-2.28
			c9.18-0.08,18.8,0.45,26.71,5.13c13.12,7.76,18.35,25.8,15.54,40.2C191.43,358.83,173.98,368.54,163.73,373.69z"/>
		<path class="st14" d="M406.74,230.95c-27.17,3.96-55.65,10.7-75.14,30.04c-1.24,1.23-2.47,2.53-4.07,3.22
			c-2.2,0.95-4.72,0.59-7.1,0.3c-23.79-2.91-48.55,3.06-68.41,16.48c-2.88,1.94-5.7,4.06-8.95,5.28c-4.42,1.66-9.27,1.54-13.99,1.5
			c-12.26-0.1-24.95,0.6-35.91,6.09c-10.96,5.49-19.8,16.88-18.79,29.1c1.02,12.36,11.77,22.16,23.55,26.04
			c11.78,3.87,24.52,3.05,36.9,2.27c3.59-0.23,7.21-0.44,10.78,0.06c3,0.42,5.9,1.34,8.82,2.16c28.65,8.04,59.99,6.08,87.42-5.46
			c3.4-1.43,6.82-3.03,10.5-3.38c3.25-0.31,6.51,0.37,9.72,0.97c30.76,5.72,62.94,3.63,92.71-6.03
			c22.01-7.14,45.07-21.56,48.6-44.43c1.93-12.48-2.62-25.36-10.23-35.44C473.52,233.68,437.75,226.42,406.74,230.95z"/>
		<path class="st15" d="M210.31,336.87c16.09-2.5,29.59-14.66,36.76-29.28c3.07,13.28,15.54,23.34,29.04,25.17
			c13.5,1.83,27.42-3.86,37.11-13.45c9.68-9.59,15.38-22.7,17.68-36.14c-1.43,18.8,13.32,36.33,31.27,42.1
			c17.95,5.77,37.9,1.55,54.63-7.15c16.7-8.68,31.43-22.25,38.47-39.71c3.97,19.44,14.13,37.57,28.63,51.11
			c-3.83,4.69-9.23,7.79-14.66,10.47c-33.54,16.55-73.22,20.23-109.23,10.14c-3.06-0.86-6.24-1.82-9.37-1.29
			c-2.28,0.39-4.35,1.54-6.4,2.61c-24.12,12.57-52.94,15.83-79.26,8.98c-5.72-1.49-11.38-3.45-17.28-3.85
			c-4.74-0.33-9.48,0.36-14.19,0.97c-11.45,1.48-23.15,2.48-34.49,0.27c-11.33-2.22-22.39-8.05-28.65-17.76
			c-5.91-9.15-7.05-23.5,0.77-31.96C167.36,327.66,194.54,339.32,210.31,336.87z"/>
		<path class="st14" d="M472.28,196.88c16.25-12.66,35.44-18.96,54.79-22.15c92.42-15.24,185.99,37.02,279.93,41.64
			c-73.2,81.73-173.65,125.85-274.9,120.75c-24.42-1.23-65.03-10.99-79.19-43.1C436.13,255.98,447.26,216.37,472.28,196.88z"/>
		<path class="st14" d="M721.97,217.29c22.23,11.46,50.78,4.4,69.59-12.08c18.81-16.49,29.24-40.64,35.19-64.93
			c4.48-18.29,6.76-37.39,3.86-56c-2.9-18.61-11.34-36.76-25.62-49.05c33.97,17.13,35.44,81.22,25.95,113.73
			c-4.53,15.51-10.56,30.71-19.49,44.18c-10.08,15.19-23.79,27.96-39.67,36.92c14.32,1.07,27.14-8.53,37.29-18.7
			C862.87,157.46,881.47,71.3,854.69,0c10.1,23.42,15.62,46.3,16.57,70.81c0.95,24.58-5.29,59.01-18.8,85.33
			c-26.04,50.72-59.39,85.05-109.6,112.07c-8.41,4.53-19.18,8.37-26.99,2.87c-7.32-5.15-7.8-16.41-3.48-24.25
			c4.32-7.83,12.09-13.04,19.58-17.94c0.16,2.21-0.45,4.47-1.71,6.29L721.97,217.29z"/>
		<path class="st15" d="M485.71,260.78c18.01,15.64,42.48,21.5,66.17,24.23c81.98,9.44,165.32-12.8,238.63-50.7
			c-21.36,18.9-42.82,37.85-66.53,53.71c-64.37,43.04-144.81,61.41-221.48,50.57c-8.13-1.15-16.46-2.71-23.33-7.19
			c-8.66-5.65-13.89-15.2-18.15-24.61c-5.92-13.07-10.66-26.68-14.15-40.6c-3.63-14.47-5.41-27.61-0.03-41.52
			c6.36-16.45,30.78-34.12,47.31-40.62c-13.07,5.28-27.05,16.7-28.45,32.08C464.05,234.23,472.27,249.12,485.71,260.78z"/>
		<path class="st16" d="M466.92,290.18c6.75,9.64,14.74,18.76,25.03,24.46c9.48,5.25,20.36,7.31,31.09,8.73
			c58.57,7.75,119.32-1.77,172.7-27.09c23.06-10.94,44.67-24.68,66.2-38.39c-26.31,29.57-62.12,49.22-99.17,63.17
			c-24.61,9.27-50.08,16.27-75.97,20.89c-32.72,5.84-67.16,7.74-98.56-3.16c-6.88-2.39-13.68-5.46-19.05-10.38
			c-6.76-6.19-10.73-14.8-14.28-23.25c-9.47-22.55-17.22-48.43-7.67-70.95C450.84,253.32,455.69,274.12,466.92,290.18z"/>
		<path class="st14" d="M657.21,386.03c8.89,5.46,19.09,8.4,29.3,10.54c35.7,7.51,74.25,5.74,106.88-10.59
			c32.63-16.33,58.22-48.61,61.21-84.97c-5.62-2.69-13.09-0.52-16.4,4.76c-1.95,3.11-3.26,7.59-6.91,7.98
			c-1.71,0.18-3.32-0.69-4.92-1.3c-7.44-2.83-16.7,0.52-20.62,7.44c-6.4-4.03-15.05-0.74-20.64,4.36c-5.59,5.1-9.6,11.84-15.63,16.4
			c-6.03,4.56-15.57,6.15-20.63,0.53c-5.72-6.35-1.5-16.96,5.27-22.17c7.62-5.85,18.07-7.82,27.3-5.14
			c3.23-9.74,14.3-16.16,24.36-14.13c8.26-8.08,20.89-11.37,32.04-8.36c-8.04-9.05-20.56-12.55-32.5-14.53
			c-46.57-7.72-95.76,1.58-136.3,25.77c-10.54,6.29-20.82,13.88-26.9,24.55C630.56,347.4,637.89,374.16,657.21,386.03z"/>
		<path class="st17" d="M731.54,379.47c-7.59,0.3-15.4,0.14-22.48-2.63c-2.81-1.1-5.56-2.68-7.27-5.18c-1.7-2.49-2.1-6.05-0.31-8.49
			c0.86-1.17,2.12-1.97,3.42-2.61c8.37-4.09,18.25-1.78,27.47-0.49c10.51,1.48,21.23,1.5,31.76,0.1c5.98-0.8,17.36-4.69,19.64,4.51
			C786.92,377.44,740.61,379.11,731.54,379.47z"/>
		<path class="st17" d="M665.19,336.73c1.52-2.64,3.97-4.59,6.42-6.4c19.37-14.3,42.3-23.76,66.12-27.28
			c1.49-0.22,3.21-0.36,4.33,0.66c1.97,1.78,0.31,5.01-1.5,6.95c-5.03,5.38-11.05,9.83-17.66,13.08
			c-12.6,6.19-27.56,8.2-38.03,17.56C679.04,346.51,656.29,352.2,665.19,336.73z"/>
		<path class="st14" d="M578.27,351.29c-3.12-24.63-12.14-48.5-26.08-69.04c-0.67-0.98-1.51-2.05-2.69-2.11
			c-1.57-0.08-2.58,1.64-3.03,3.15c-1.55,5.22-0.94,10.8-0.26,16.2c2.72,21.44,6.5,42.74,11.34,63.8c0.6,2.61,1.25,5.3,2.89,7.42
			c1.5,1.94,3.69,3.21,5.87,4.34c10.67,5.56,22.43,9.04,34.41,10.18c20.25,1.92,44.43-1.62,63.34-8.93
			C658.5,329.03,609.22,346.58,578.27,351.29z"/>
		<path class="st14" d="M430.4,391.14c-0.77,6.45-1.48,13.15,0.55,19.32c2.43,7.39,8.58,13.09,15.49,16.67
			c6.91,3.58,14.6,5.32,22.19,7.02c7.59,1.7,15.18,3.4,22.77,5.1c9.17,2.05,18.5,4.12,27.88,3.45c9.38-0.67,18.97-4.48,24.47-12.11
			c-7.74,7.55-19.27,10.16-30.05,9.35c-10.78-0.81-21.08-4.65-31.19-8.49c-9.07-3.45-18.13-6.93-27.18-10.44
			c-2.75-1.07-5.65-2.25-7.39-4.64c-1.73-2.38-1.96-5.51-2.07-8.45c-0.71-18.65,0.88-37.38,4.72-55.64
			c1.2-5.72,2.59-11.86,0.3-17.24c-1.7-3.97-8.33-8.64-12.34-5.19c-2.5,2.16-2.19,15.17-2.62,18.29
			C433.94,362.45,432.1,376.79,430.4,391.14z"/>
		<path class="st14" d="M361.9,396.48c-1.79,6.25-3.57,12.74-2.56,19.16c1.21,7.68,6.37,14.3,12.61,18.94
			c6.24,4.64,13.56,7.59,20.78,10.48c7.22,2.89,14.44,5.79,21.66,8.68c8.73,3.5,17.6,7.03,26.97,7.87
			c9.36,0.84,19.45-1.39,26.09-8.03c-8.85,6.21-20.65,6.94-31.16,4.41c-10.51-2.53-20.06-7.97-29.43-13.38
			c-8.4-4.86-16.79-9.74-25.15-14.66c-2.54-1.49-5.22-3.13-6.55-5.76c-1.33-2.63-1.05-5.75-0.69-8.67
			c2.29-18.52,6.86-36.76,13.58-54.17c2.1-5.45,4.46-11.29,3.05-16.97c-1.04-4.19-6.84-9.87-11.35-7.1
			c-2.82,1.73-4.59,14.62-5.51,17.63C369.99,368.72,365.88,382.58,361.9,396.48z"/>
		<path class="st14" d="M300.21,392.63c-1.79,5.57-3.57,11.35-2.57,16.93c1.2,6.68,6.32,12.22,12.52,15.98
			c6.2,3.76,13.47,5.97,20.65,8.15c7.17,2.18,14.35,4.35,21.52,6.53c8.67,2.63,17.5,5.28,26.8,5.55c9.31,0.27,19.34-2.19,25.96-8.34
			c-8.81,5.89-20.54,7.12-30.99,5.42c-10.45-1.69-19.94-5.99-29.24-10.26c-8.35-3.84-16.68-7.7-24.99-11.6
			c-2.53-1.18-5.19-2.48-6.5-4.73c-1.31-2.24-1.04-4.99-0.68-7.57c2.3-16.35,6.87-32.57,13.57-48.17c2.1-4.89,4.45-10.12,3.06-15.03
			c-1.03-3.62-6.79-8.31-11.27-5.66c-2.8,1.66-4.58,13.05-5.51,15.73C308.29,367.89,304.18,380.24,300.21,392.63z"/>
		<path class="st16" d="M332.16,321.7c2.05,8.68,6,17.13,12.57,23.15c6.57,6.03,15.99,9.31,24.65,7.18
			c-6.22-0.77-11.51-4.99-15.53-9.8c-4.57-5.46-7.93-11.81-11.19-18.15c-2.32-4.53-4.61-9.08-6.85-13.65
			c-2-4.07-3.27-8.69-5.24-12.62c-1.68,2.71-0.62,7.34-0.39,10.34C330.53,312.71,331.11,317.26,332.16,321.7z"/>
		<path class="st16" d="M243.19,335.96c0.2,6.42,2.06,12.98,6.28,17.83c3.65,4.19,8.85,6.84,14.27,8.08
			c5.42,1.24,11.06,1.16,16.58,0.53c-10.76-0.14-20.46-7.51-25.93-16.78c-5.67-9.61-5.81-19.64-8.35-30.06
			C243.32,320.83,243.01,330.16,243.19,335.96z"/>
		<path class="st14" d="M228.53,379.66c-2.95,4.92-5.94,10.04-6.17,15.56c-0.28,6.6,3.52,12.95,8.76,17.84
			c5.24,4.88,11.86,8.52,18.39,12.11c6.53,3.58,13.07,7.17,19.6,10.75c7.9,4.33,15.94,8.72,24.97,10.94
			c9.03,2.22,19.35,2,27.15-2.46c-9.88,3.74-21.6,2.43-31.43-1.38c-9.84-3.82-18.17-9.9-26.33-15.93
			c-7.32-5.41-14.62-10.85-21.89-16.3c-2.21-1.66-4.52-3.46-5.32-5.87c-0.8-2.41,0.07-4.96,0.98-7.34
			c5.79-15.07,13.76-29.53,23.68-42.96c3.11-4.2,6.54-8.69,6.24-13.65c-0.22-3.66-4.83-9.34-9.78-7.76
			c-3.1,0.98-7.3,11.44-8.78,13.8C241.78,357.84,235.09,368.72,228.53,379.66z"/>
		<path class="st16" d="M185.47,351.03c7.85,5.69,17.78,7.86,27.47,8.16c-9.55-2.78-19.35-5.68-27.23-11.75
			c-7.84-6.03-13.19-15.63-11.58-25.68C169.45,331.8,177.49,345.25,185.47,351.03z"/>
		<path class="st17" d="M553.35,312.61c0.79,4.69,1.58,9.39,2.37,14.08c1.27,7.55,2.63,15.33,6.78,21.76
			c0.82,1.27,1.99,2.61,3.51,2.55c2.01-0.08,3.02-2.47,3.24-4.47c0.52-4.7-0.61-9.42-1.87-13.97c-1.9-6.88-4.09-13.67-6.57-20.36
			c-1.88-5.07-4.09-15.02-8.13-18.52C549.16,297.52,552.58,308.03,553.35,312.61z"/>
		<path class="st17" d="M507.44,189.63c-6.72,2.41-13.64,5.43-17.91,11.15c-4.27,5.72-4.71,14.88,0.87,19.34
			c4.42,3.54,11.01,2.97,16.07,0.44c5.07-2.53,9.1-6.68,13.5-10.25c19.52-15.88,46.06-20.28,71.21-19.75
			c3.81,0.08,8.36-0.1,10.4-3.32C573.22,172.2,536.08,179.38,507.44,189.63z"/>
		<path class="st17" d="M633.07,198.3c1.9,0.02,3.88-0.1,5.58-0.96c1.7-0.86,3.07-2.62,2.93-4.52c-0.13-1.78-1.54-3.26-3.16-4
			c-1.62-0.74-3.44-0.88-5.22-1c-4.47-0.32-19.61-4.25-19.12,2.99C614.54,197.65,628.36,198.25,633.07,198.3z"/>
		<path class="st17" d="M351.65,262.53c-3.74,5.64-5.48,12.69-4.21,19.33c0.75,3.93,2.66,7.8,5.97,10.03
			c3.31,2.23,8.17,2.39,11.11-0.31c1.87-1.73,2.73-4.27,3.44-6.72c1.4-4.83,2.54-9.85,5.27-14.07c4.49-6.94,13.15-11.68,14.16-19.89
			c0.1-0.83,0.11-1.7-0.22-2.47c-0.57-1.31-1.99-2.03-3.35-2.47C372.01,242.11,357.83,253.21,351.65,262.53z"/>
		<path class="st17" d="M263.87,285.17c-4.06,4.55-5.97,10.94-5.06,16.97c0.41,2.72,1.43,5.44,3.42,7.33
			c1.99,1.89,5.11,2.75,7.6,1.59c3.65-1.7,4.37-6.43,5.66-10.25c1.53-4.53,4.5-8.56,8.39-11.35c3.3-2.37,7.36-4,9.55-7.42
			c1.11-1.73,1.54-4.23,0.11-5.71c-1.17-1.21-3.08-1.24-4.75-1.01C280.98,276.42,269.3,279.1,263.87,285.17z"/>
		<path class="st17" d="M189.89,319.14c1.61,1.69,4.27,2.16,6.48,1.41c2.21-0.76,3.94-2.61,4.86-4.75c0.98-2.3,1.11-4.91,2.23-7.15
			c1.78-3.56,9.85-6.55,10.35-10.14c0.86-6.09-8.29-3.41-11.57-2.03C195.93,299.12,183.12,312.03,189.89,319.14z"/>
		<path class="st16" d="M671.28,216.68c-1.28,0.82-2.52,1.8-3.28,3.12c-0.76,1.32-0.97,3.04-0.2,4.36c0.77,1.31,2.28,1.94,3.7,2.47
			c7.44,2.75,15.17,4.73,23.02,5.92c2.08,0.31,4.36,0.54,6.17-0.54c3.18-1.89,4.49-8.41,2.9-11.63c-1.38-2.79-4.85-3.36-7.56-4.54
			C687.9,212.3,679.04,211.7,671.28,216.68z"/>
		
			<ellipse transform="matrix(0.9239 -0.3827 0.3827 0.9239 -34.0028 283.5048)" class="st13" cx="695.64" cy="227.22" rx="11.79" ry="11.79"/>
		<path class="st18" d="M688.43,230.1c0.74,1.27,1.91,2.37,3.36,2.66c1.44,0.29,3.12-0.41,3.63-1.79c0.34-0.92,0.14-1.95,0.42-2.89
			c0.64-2.2,3.38-3.11,3.41-5.57c0.03-2.38-2.26-4.16-4.4-4.31C688.91,217.76,685.82,225.62,688.43,230.1z"/>
		<path class="st15" d="M660.51,392.27c6.11,3.28,12.97,4.9,19.79,6.19c35.26,6.66,74.42,6.27,107.11-8.52
			c32.69-14.79,64.25-46.95,67.18-88.92c-5.01,26.16-25.24,51.27-44.92,64.23c-19.68,12.96-43.58,18.49-67.05,20.61
			c-18.96,1.71-38.22,0.15-56.65-4.6c-11.56-2.98-23.04-7.34-32.16-15.04c-9.12-7.7-15.28-20.57-14.71-32.49
			c-2.63,5.77-3.3,11.47-3.46,16.56c-0.17,5.39,2,11.71,3.89,16.67C643.51,377.4,650.53,386.91,660.51,392.27z"/>
	</g>
</g>
</svg>
