<?xml version="1.0" encoding="utf-8"?>
<!-- Generator: Adobe Illustrator 25.4.1, SVG Export Plug-In . SVG Version: 6.00 Build 0)  -->
<svg version="1.1" id="Layer_1" xmlns="http://www.w3.org/2000/svg" xmlns:xlink="http://www.w3.org/1999/xlink" x="0px" y="0px"
	 viewBox="0 0 164.07 113.58" style="enable-background:new 0 0 164.07 113.58;" xml:space="preserve">
<style type="text/css">
	.st0{display:none;}
	.st1{display:inline;fill:#E2CC6D;}
	.st2{display:inline;fill:#CAB664;}
	.st3{display:inline;fill:#B8D879;}
	.st4{display:inline;fill:#AF9F57;}
	.st5{display:inline;opacity:0.41;fill:#FFFFFF;}
	.st6{fill:#D99552;}
	.st7{fill:#BB8049;}
	.st8{fill:#FDF499;}
	.st9{fill:#F4E28E;}
</style>
<g class="st0">
	<path class="st1" d="M16.41,49.49c6.04-4.65,13.51-7.05,20.98-8.58c6.28-1.29,12.74-2.04,19.1-1.24
		c11.3,1.42,22.05,8.15,27.32,18.24c5.28,10.09,4.43,23.36-2.89,32.08c-6.74,8.03-17.52,11.34-27.83,13.23
		c-14.6,2.69-31.55,2.65-42.02-7.86C-1.47,82.76,3.01,59.81,16.41,49.49z"/>
	<path class="st2" d="M53.07,103.63c10.31-1.9,21.09-5.2,27.83-13.23c1.15-1.37,2.13-2.87,2.96-4.44
		c-5.87,3.35-12.78,5.2-19.51,6.43c-14.6,2.69-31.55,2.65-42.02-7.86c-9.67-9.7-9.22-25.55-2.38-37.04
		c-1.24,0.73-2.43,1.53-3.57,2.41C2.98,60.22-1.5,83.17,11.05,95.77C21.53,106.28,38.47,106.32,53.07,103.63z"/>
	<path class="st3" d="M59.56,75.94c-13.51,7.93-26.3,15.58-42.05,18.45c-4.21,0.77-9.47,0.65-11.62-3.05
		c-0.82-1.41-1.01-3.09-1.16-4.72c-0.33-3.53-3.56-16.48,1.64-22.98c0,0,5.94,3.29,8.53,4.28c7.24,2.76,15.29,3.95,22.94,4.87
		C42.4,73.34,55.73,78.32,59.56,75.94z"/>
	<path class="st4" d="M26.01,69.9c6.86,1.54,13.75,2.98,20.66,4.31c2.59,0.5,5.2,0.99,7.82,1.24c8.6,0.83,17.22-0.84,25.69-2.5
		c-11.32,3.61-23.42,4.37-35.27,3.44c-11.85-0.93-23.51-3.5-35.03-6.42c-1.34-0.34-2.75-0.73-3.67-1.76c-0.83-0.92-1.79-4.32-0.23-5
		c1.14-0.5,4.81,2.13,5.95,2.61C16.46,67.7,21.25,68.83,26.01,69.9z"/>
	<path class="st4" d="M13.56,92.49c-2.42,0.2-4.91,0.26-7.23-0.47c0.5,1.9,2.73,2.71,4.68,2.96c6.56,0.82,13.06-1.5,19.27-3.78
		c4.16-1.53,8.34-3.06,12.26-5.14c3.2-1.69,6.2-3.73,9.3-5.61c2.82-1.71,5.98-2.82,8.78-4.42c-2.26-0.36-4.3,1.18-6.14,2.26
		c-3.08,1.8-6.22,3.49-9.43,5.04c-6.33,3.06-12.94,5.59-19.78,7.25C21.42,91.51,17.51,92.17,13.56,92.49z"/>
	<path class="st5" d="M74.21,53.9c-3.37-2.22-7.4-3.24-11.41-3.62c-1.55-0.15-3.15-0.2-4.62,0.3c-1.48,0.5-2.82,1.64-3.16,3.16
		c-0.54,2.38,1.54,4.65,3.84,5.47c2.3,0.82,4.81,0.66,7.23,1.01c3.82,0.56,7.44,2.48,10.04,5.34c2.72,2.98,5.42,0.57,4.74-2.89
		C80.19,59.24,77.02,55.75,74.21,53.9z"/>
</g>
<g class="st0">
	<path class="st1" d="M143.44,91.84c-0.56,7.6-3.76,14.77-7.59,21.36c-3.22,5.54-6.98,10.86-11.81,15.06
		c-8.59,7.48-20.77,11-31.81,8.21c-11.04-2.79-20.37-12.27-21.99-23.54c-1.49-10.38,3.23-20.62,8.69-29.57
		c7.73-12.67,19.05-25.28,33.87-26.08C130.56,56.33,144.69,74.97,143.44,91.84z"/>
	<path class="st2" d="M78.65,83.06c-5.46,8.95-10.18,19.19-8.69,29.57c0.26,1.78,0.72,3.5,1.33,5.17
		c1.42-6.61,4.65-12.99,8.21-18.83c7.73-12.67,19.05-25.28,33.87-26.08c13.68-0.74,25.19,10.16,29.19,22.92
		c0.28-1.41,0.48-2.83,0.59-4.27c1.24-16.87-12.88-35.51-30.63-34.56C97.7,57.78,86.38,70.39,78.65,83.06z"/>
	<path class="st3" d="M94.96,106.36c3.1-15.36,5.92-29.99,14.28-43.64c2.24-3.65,5.83-7.49,10.02-6.63c1.6,0.33,2.98,1.31,4.29,2.29
		c2.85,2.11,14.65,8.34,16.03,16.54c0,0-6.41,2.23-8.87,3.5c-6.88,3.56-13.14,8.76-18.92,13.85
		C108.34,95.31,95.74,101.92,94.96,106.36z"/>
	<path class="st4" d="M121.83,85.38c-5.72,4.09-11.38,8.26-16.98,12.53c-2.1,1.6-4.2,3.21-6.14,5.01
		c-6.35,5.85-10.85,13.39-15.27,20.81c4.86-10.85,12.36-20.37,20.95-28.58s18.28-15.19,28.14-21.83c1.14-0.77,2.38-1.56,3.75-1.56
		c1.24,0,4.41,1.55,3.88,3.16c-0.39,1.18-4.8,2.16-5.92,2.7C129.84,79.73,125.8,82.54,121.83,85.38z"/>
	<path class="st4" d="M113.29,61.04c1.47-1.94,3.08-3.83,5.17-5.07c-1.75-0.89-3.84,0.23-5.32,1.51
		c-4.98,4.34-7.59,10.73-10.03,16.88c-1.64,4.12-3.28,8.26-4.35,12.56c-0.87,3.52-1.35,7.11-2.02,10.67
		c-0.61,3.24-1.88,6.34-2.56,9.49c1.77-1.44,1.99-4,2.41-6.08c0.72-3.49,1.55-6.96,2.53-10.39c1.94-6.76,4.46-13.37,7.79-19.58
		C108.78,67.55,110.9,64.2,113.29,61.04z"/>
	<path class="st5" d="M101.62,131.97c3.9-1.03,7.34-3.36,10.3-6.09c1.14-1.06,2.25-2.21,2.86-3.64c0.61-1.43,0.66-3.19-0.25-4.46
		c-1.41-1.99-4.5-1.95-6.64-0.79c-2.14,1.17-3.7,3.15-5.57,4.71c-2.97,2.48-6.81,3.89-10.67,3.93c-4.04,0.04-4.04,3.66-1,5.45
		C93.66,132.87,98.37,132.84,101.62,131.97z"/>
</g>
<g>
	<path class="st6" d="M9.11,35.4C0.39,51.09-2.14,70.11,2.18,87.53c1.53,6.17,4.11,12.45,9.13,16.35
		c8.29,6.43,20.97,4.16,28.95-2.65c7.98-6.81,12.17-17.01,15.17-27.07c7.06-23.66,9.09-48.8,5.9-73.28
		c-0.41-3.15-26.96,8.18-28.53,9.21C23.03,16.47,14.78,25.19,9.11,35.4z"/>
	<path class="st7" d="M11.2,103.53c-5.02-3.9-7.6-10.17-9.13-16.35c-4.32-17.42-1.79-36.45,6.93-52.14c2.2-3.95,4.79-7.68,7.7-11.15
		C9.26,39.87,5.81,57.68,6.86,75.27c4.03-22.29,19.22-40.75,34.58-57.4c-15.15,22.9-27.7,49.11-26.52,76.54
		c6.07-23.4,15.01-46.05,26.55-67.28c-6.23,20.71-11.84,41.61-16.82,62.66c3.73-4.12,6.34-9.11,8.79-14.1
		C38.48,65.44,43.01,54.94,47,44.24c-1.61,15.01-5.36,29.79-11.1,43.75c4.3-5.71,7.46-12.18,10.44-18.68
		c5.38-11.72,10.25-23.77,12.95-36.38C61.6,22.13,62.25,10.84,60.24,0c0.58,0.04,0.93,0.2,0.97,0.54
		c3.19,24.48,1.16,49.63-5.9,73.28c-3,10.05-7.19,20.26-15.17,27.07C32.16,107.69,19.48,109.97,11.2,103.53z"/>
</g>
<g>
	<path class="st6" d="M105.18,48.77C87.35,50.9,70.46,60,58.87,73.71c-4.11,4.86-7.68,10.62-7.89,16.98
		c-0.36,10.48,8.92,19.43,19.11,21.9c10.19,2.48,20.92-0.11,30.82-3.57c23.31-8.14,44.87-21.24,62.83-38.17
		c2.31-2.18-22.43-17.05-24.19-17.72C128.67,48.95,116.77,47.38,105.18,48.77z"/>
	<path class="st7" d="M51.19,90.39c0.22-6.36,3.79-12.12,7.89-16.98c11.58-13.71,28.48-22.81,46.3-24.94
		c4.49-0.54,9.03-0.62,13.54-0.29c-17.29,3.33-33.75,10.99-47.38,22.14c20.42-9.8,44.28-8.3,66.78-5.62
		c-27.44,1.14-56.02,6.34-77.56,23.37c22.51-8.79,46.11-14.83,70.08-17.92c-20.43,7.09-40.66,14.79-60.63,23.09
		c5.52,0.6,11.1-0.2,16.58-1.14c11.26-1.93,22.41-4.41,33.42-7.45c-13.1,7.5-27.28,13.12-41.96,16.65
		c7.15,0.13,14.24-1.09,21.25-2.48c12.65-2.52,25.26-5.62,37.06-10.83c10.11-4.46,19.65-10.55,27.25-18.53
		c0.31,0.49,0.38,0.87,0.14,1.1c-17.97,16.93-39.53,30.03-62.83,38.17c-9.9,3.46-20.63,6.05-30.82,3.57S50.84,100.88,51.19,90.39z"
		/>
</g>
<g>
	<path class="st8" d="M-190.23,336.68c-0.19-5.99-0.3-12.09,1.29-17.87c3.2-11.63,13.25-20.63,24.67-24.52
		c11.42-3.88,24.02-3.15,35.67-0.02c6.1,1.64,12.04,3.91,17.67,6.77c5.8,2.95,11.48,6.73,14.71,12.37
		c3.97,6.94,3.39,16.23-1.43,22.61c-2.74,3.63-6.85,6.36-11.38,6.84c-4.86,0.51-9.61-1.53-13.94-3.79
		c-4.33-2.26-8.66-4.84-13.5-5.53c-4.84-0.69-10.44,1.07-12.56,5.48c-1.52,3.16-1.07,7.19-3.32,9.88c-1.53,1.83-4.04,2.35-6.33,3.03
		C-180.28,358.41-190.13,339.91-190.23,336.68z"/>
	<path class="st9" d="M-99.56,308.69c0.79,6.13-3.98,12.31-9.85,14.79c-4.48,1.89-9.62,2.19-14.29,0.84
		c-2.92-0.85-5.63-2.31-8.47-3.41c-7.01-2.7-16.02-2.66-20.88,3.06c-1.63,1.92-2.63,4.29-4.01,6.41
		c-4.23,6.47-12.34,10.17-19.99,9.13c-5.19-0.71-9.98-3.57-13.27-7.62c0-0.01-0.01-0.01-0.01-0.02c0.01,1.51,0.05,3.01,0.1,4.51
		c0.1,3.23,9.95,21.73,31.57,15.26c2.29-0.68,4.79-1.2,6.33-3.03c2.25-2.69,1.8-6.72,3.32-9.88c2.12-4.41,7.72-6.17,12.56-5.48
		c4.84,0.69,9.17,3.27,13.5,5.53c4.33,2.26,9.08,4.31,13.94,3.79c4.53-0.48,8.64-3.2,11.38-6.84c4.81-6.39,5.4-15.67,1.43-22.61
		C-97.15,311.5-98.28,310.03-99.56,308.69z"/>
</g>
</svg>
