<?xml version="1.0" encoding="utf-8"?>
<!-- Generator: Adobe Illustrator 25.4.1, SVG Export Plug-In . SVG Version: 6.00 Build 0)  -->
<svg version="1.1" id="Layer_1" xmlns="http://www.w3.org/2000/svg" xmlns:xlink="http://www.w3.org/1999/xlink" x="0px" y="0px"
	 viewBox="0 0 542.65 453.08" style="enable-background:new 0 0 542.65 453.08;" xml:space="preserve">
<style type="text/css">
	.st0{fill:#63B746;}
	.st1{fill:#519A43;}
	.st2{fill:#619741;}
	.st3{fill:#9ECC3B;}
	.st4{fill:#85C140;}
	.st5{opacity:0.5;fill:#619741;}
	.st6{fill:#B7D553;}
	.st7{fill:#9ACA3C;}
	.st8{fill:#FBF6BB;}
	.st9{fill:#C1282D;}
	.st10{opacity:0.4;}
	.st11{fill:#FFFFFF;}
	.st12{opacity:0.7;}
	.st13{opacity:0.3;}
	.st14{fill:#F9DD54;}
</style>
<g>
	<g>
		<path class="st0" d="M444.79,208.25c-4.12-0.92-8.34-0.99-12.54-0.65c1.21-4.14,0.58-8.61-2.86-11.12
			c-3.97-2.88-9.43-1.95-14.21-0.88c-16.92,3.82-33.74,8.02-50.53,12.35c9.69-3.6,17.97-11.28,26.19-17.98
			c15.81-12.88,33.93-22.93,53.24-29.52c-6.85-9.22-20.8-7.96-32.07-5.74c22.58-5.59,42.83-20.09,55.39-39.69
			c-10.32-3.64-21.36-5.16-32.26-4.46c5.59-4.55,11.4-9.38,14.12-16.04c2.73-6.67,1.15-15.69-5.29-18.92
			c-7.17-3.59-15.31,1.9-19.42,9.12c1.72-4.02,2.98-8.23,2.22-12.46c-1-5.64-7.37-10.59-12.44-7.93c-2.05,1.07-3.4,3.08-4.57,5.06
			c-4.79,8.17-7.58,17.44-8.38,26.87c-1.77-3.59-8.61-5.8-12.06-2.29c-4.66,4.74-3.56,12.47-2.15,18.96
			c-1.85-2.91-3.7-5.82-5.54-8.72c-11.93,9.57-23.86,19.14-35.79,28.72c-0.22-25.03,30.97-38.83,38.51-62.69
			c0.72-2.31,1.08-5.18-0.67-6.84c-1.44-1.36-3.67-1.29-5.63-1.13c-6.6,0.51-13.19,1.02-19.79,1.53
			c8.51-11.67,12.06-26.83,9.63-41.06c-0.7-4.11-2.04-8.39-5.25-11.04c-5.92-4.9-15.54-1.64-19.98,4.62
			c-2.83,3.99-4.06,8.74-4.76,13.63c0.01-6.5-1.53-13-4.73-18.65c-1.33-2.37-3.04-4.69-5.51-5.83c-8.7-4.02-15.53,8.24-17.35,17.64
			c2.48-7.38-7.63-14.44-14.64-11.06c-5.35,2.58-7.78,8.82-7.34,14.84c-2.5-2.73-7.45-3.98-10.67-1.6
			c-4.99,3.68-5.25,11.21-3.16,17.04c0.11,0.33,0.28,0.63,0.4,0.95c-1.68-1.15-3.56-1.99-5.56-2.39c-1.62,12.63,0.2,25.7,5.21,37.41
			c1.91,4.47,4.31,8.89,4.61,13.73c0.31,4.85-2.28,10.34-7.04,11.35c-3.24,0.69-6.54-0.84-9.27-2.74
			c-8.5-5.9-14.08-15.81-14.7-26.14c-0.24-4.03,0.21-8.2-1.11-12.02c-1.32-3.82-5.28-7.19-9.16-6.05
			c-6.85,2.02-4.61,13.45-10.19,17.93c-3.2-5.12-3.1-11.6-5.11-17.29c-2.02-5.69-8.34-11.03-13.66-8.17
			c-1.89,1.02-3.18,2.87-4.24,4.72c-5.83,10.04-7.22,22.33-4.41,33.56c-2.83-4.03-7.14-6.37-10.7-3.3c-2.66,2.3-2.76,6.36-2.28,9.85
			c1.13,8.07,4.35,15.85,9.24,22.37c-10.74-4.68-25.43,0.46-28.86,11.65c-3.43,11.2,8.68,24.5,19.63,20.38
			c4.77-1.79,8.91-6.22,13.98-5.57c3.95,0.52,6.79,4.05,8.81,7.49c17.53,29.85,6.18,67.88-7.97,99.47
			c-15.04,33.58-45.09,87.64-45.09,87.64c-6.02,8.04-8.05,19.1-4.68,28.61c-18.32,29.56,29.04-7.22,21.21,9.58
			c11.14,0.35,20.51-7.82,28.51-15.58c21.66-21.01,42.59-42.75,62.76-65.18c12.86-14.31,25.76-29.18,42.53-38.62
			c16.76-9.45,38.55-12.5,54.96-2.46c10.26,6.28,17.27,16.84,27.26,23.54c10,6.7,26.16,7.59,31.86-3c1.36-2.51,1.98-5.46,3.86-7.62
			c2.96-3.38,8.05-3.78,11.85-6.17c8.26-5.21,5.91-20.39-3.54-22.85c2.48-5.24,8.4-7.7,13.05-11.18c4.64-3.48,8.3-10.39,4.56-14.82
			C449.64,209.62,447.18,208.79,444.79,208.25z"/>
		<path class="st1" d="M392.76,221.36c-22.33-2.46-44.66-4.93-67.01-7.39c15-1.69,28.79-11.72,35.02-25.47
			c-4.93-1.35-9.86-2.7-14.79-4.05c3.78-7.14,11.96-10.56,19.55-13.33c7.59-2.78,15.8-5.93,19.94-12.86
			c4.14-6.94,0.6-18.46-7.48-18.55c-2.89-0.03-5.61,1.38-8.06,2.93c-7.12,4.51-13.3,10.52-18,17.52c-9.88-0.19-19.6,3.82-26.9,10.44
			c0.29-0.62,0.65-1.2,0.89-1.85c1.77-4.95,0.95-11.25-3.33-14.3c-1.98-1.42-4.64-1.52-6.97-0.8c6.29-6.88,12.01-14.25,16.62-22.33
			c2.85-4.99,5.42-10.46,5.2-16.2c-0.23-5.75-4.13-11.71-9.83-12.45c-2.04-0.26-4.07,0.47-5.72,1.71c2.2-8.95,3.28-18.17,3.18-27.38
			c-0.04-4.01-1.03-8.97-4.9-10.03c-4.35-1.19-7.83,3.67-9.39,7.92c-0.86,2.3-1.27,4.72-1.88,7.09c-0.58-2.63-1.43-5.2-2.7-7.57
			c-1.15-2.13-2.71-4.23-4.99-5.06c-6.64-2.4-11.11,6.79-12.19,13.77c-2.56,16.62-5.13,33.24-7.7,49.86
			c-3.64-1.62-7.88,1.94-8.12,5.67c-1.13-7-4.66-13.61-10.08-18.19c-2.98,1.63-5.96,3.25-8.94,4.88
			c-3.31-12.81-13.18-23.72-25.59-28.29c-1.73,15.66,1.21,31.81,8.37,45.85c-4.17-10.57-14-23.44-23.93-17.91
			c-5.55,3.09-6.88,10.8-5.01,16.87c1.85,6.07,6.07,11.08,9.48,16.43c13.89,21.73,14.61,49.83,7.86,74.71
			c-6.76,24.89-20.23,47.33-33.54,69.42c-10.07,16.68-20.13,33.35-30.2,50.04c0,0-4-4.22-5.56,4.81c-0.59,3.48-0.71,7.5,1.74,10.03
			c3.5,3.61,9.54,1.85,14.03-0.4c47.62-23.99,74.04-75.09,110.65-113.86c5.36-5.68,11.2-11.27,18.5-14.07
			c9.61-3.69,20.32-2.03,30.57-0.99c20.37,2.08,41,1.55,61.24-1.59c4.99-0.77,11.28-3.36,10.75-8.37
			C403.01,223.45,397.31,221.86,392.76,221.36z"/>
		<g>
			<path class="st2" d="M285.55,211.74c2.58,0.1,4.43-5.77,1.47-5.88C284.45,205.76,282.59,211.63,285.55,211.74L285.55,211.74z"/>
		</g>
		<g>
			<path class="st2" d="M225.3,153.67c2.57,0.1,4.44-5.77,1.47-5.89C224.2,147.68,222.34,153.55,225.3,153.67L225.3,153.67z"/>
		</g>
		<path class="st0" d="M347.45,177.2c2.22-1.32,2.42-7.07-0.8-5.16c-9.42,5.59-18.62,11.52-27.49,17.98
			c-9.8,7.14-19.19,16.67-32.2,15.87c-1.34-0.09-2.44,1.47-2.82,3c-7.13,3.41-12.17,10.14-16.07,16.71
			c-8,13.47-16.26,25.54-26.01,37.2c1.38-3.08,2.76-6.16,3.91-9.34c1.92-5.29,3.39-10.63,4.58-15.99c0.1,3.16,4.09,0.82,4.35-1.82
			c2.72-28.2,26.53-46.14,35.51-71.84c8.19-23.46,7.62-48.14,17.67-71.48c1.49-3.48-2.17-5.16-3.67-1.65
			c-5.24,12.16-9.22,24.58-11.52,37.66c-2.61,14.83-3.33,29.51-10.19,43.26c-9.72,19.46-24.83,34.69-30.37,55.41
			c1.19-8.39,1.67-16.83,1.56-25.3c0.02-0.27,0.17-0.55,0.12-0.8c-0.04-0.17-0.11-0.32-0.15-0.48
			c-0.47-23.66-5.06-47.46-10.06-70.64c-0.79-3.66-4.93,0.3-4.39,2.83c3.66,16.95,7.14,34.29,8.89,51.62
			c-1.34-3.08-2.64-6.17-4.36-9.1c-5.04-8.59-13.65-15.87-15.65-25.87c-0.73-3.67-4.9,0.29-4.39,2.83
			c1.55,7.74,6.02,12.91,10.62,19.11c7.09,9.55,11.93,20.08,14.83,31.58c0.34,21.5-2.85,42.77-12.93,62.99
			c-15.7,31.48-48.84,50.36-61.76,83.03c-1.38,3.5,2.25,5.22,3.68,1.65c8.18-20.7,25.52-33.93,39.77-50.22
			c6.21-7.11,11.74-14.75,16.54-22.84c0.18-0.13,0.29-0.03,0.48-0.24c8.46-9.06,17.06-18.15,24.13-28.37
			c7.12-10.3,11.93-27.19,23.05-33.38c16.58-9.25,25.61,7.07,39.28,11.57c13.11,4.31,27.24,1.19,40.5,5.5
			c2.62,0.85,5.07-4.83,2.53-5.65c-15.28-4.97-32.88-0.62-47.17-8.49c-5.89-3.25-11.03-7.56-16.67-9.94
			c4.37-2.18,8.46-5.17,12.64-8.3C324.36,191.88,335.64,184.21,347.45,177.2z"/>
	</g>
	<g>
		<path class="st3" d="M404.71,438.4c-0.4-3.61-1.51-7.07-2.94-10.39c3.71-0.16,7.17-1.92,8.26-5.42c1.27-4.03-1-8.23-3.21-11.82
			c-7.81-12.72-15.9-25.27-24.08-37.75c5.62,6.9,14.18,11.51,21.92,16.35c14.89,9.31,28.1,21.29,38.84,35.19
			c5.61-8.14,0.71-19.15-4.22-27.73c10.81,16.85,28.26,29.33,47.7,34.13c0.1-9.41-1.71-18.83-5.32-27.52
			c5.26,3.29,10.81,6.68,17,7.05c6.19,0.38,13.1-3.41,13.94-9.56c0.94-6.85-5.79-11.95-12.82-13.3c3.75,0.29,7.53,0.15,10.77-1.64
			c4.33-2.37,6.59-8.94,3.01-12.34c-1.44-1.36-3.45-1.92-5.4-2.31c-7.99-1.64-16.32-1.34-24.22,0.61c2.43-2.44,2.33-8.62-1.48-10.46
			c-5.15-2.49-11.15,0.55-16.06,3.51c1.86-2.31,3.73-4.63,5.59-6.94c-11.13-7.07-22.23-14.13-33.34-21.2
			c20.33-7.12,40.24,14.46,61.77,14c2.07-0.05,4.52-0.54,5.38-2.44c0.7-1.55,0.04-3.34-0.64-4.9c-2.25-5.23-4.49-10.47-6.73-15.7
			c11.86,3.7,25.2,2.38,36.13-3.54c3.15-1.71,6.27-3.99,7.54-7.34c2.35-6.18-2.97-13.12-9.31-15c-4.03-1.2-8.24-0.88-12.42-0.09
			c5.29-1.79,10.17-4.85,13.89-9.03c1.56-1.74,2.97-3.78,3.22-6.11c0.86-8.19-11.03-10.37-19.2-9.25
			c6.71-0.02,9.66-10.22,4.95-15.01c-3.59-3.64-9.34-3.89-14.13-1.86c1.53-2.79,1.17-7.17-1.65-9.14
			c-4.39-3.04-10.59-1.16-14.77,2.15c-0.23,0.18-0.43,0.39-0.65,0.59c0.46-1.68,0.63-3.45,0.4-5.2
			c-10.75,2.19-20.88,7.3-29.05,14.63c-3.11,2.79-6.04,5.97-9.91,7.57c-3.86,1.6-9.06,1-11.19-2.59c-1.46-2.45-1.13-5.57-0.35-8.32
			c2.45-8.56,8.99-15.85,17.22-19.23c3.23-1.32,6.74-2.1,9.49-4.24c2.74-2.14,4.39-6.3,2.39-9.14c-3.55-5.02-12.25-0.03-17.44-3.33
			c3.29-4.03,8.59-5.74,12.68-8.96c4.08-3.22,6.67-9.86,2.86-13.39c-1.35-1.26-3.22-1.79-5.03-2.15c-9.79-1.96-20.2,0.32-28.57,5.72
			c2.5-3.44,3.22-7.58-0.28-9.63c-2.62-1.53-5.95-0.49-8.65,0.88c-6.27,3.17-11.71,7.94-15.69,13.73
			c0.83-10.05-7.42-20.59-17.5-20.29c-10.07,0.31-17.56,13.86-11.16,21.65c2.78,3.39,7.55,5.54,8.41,9.84
			c0.68,3.38-1.42,6.66-3.67,9.26c-19.46,22.56-53.6,23.87-83.28,21.1c-31.53-2.95-83.92-12.45-83.92-12.45
			c-8.23-2.68-17.8-1.26-24.61,4.12c-29.19-6.73,13.93,21.67-1.93,19.95c2.8,9.18,12.06,14.55,20.61,18.91
			c23.12,11.82,46.65,22.85,70.52,33.07c15.23,6.52,30.92,12.91,43.28,23.95c12.34,11.04,20.87,27.96,17.23,44.12
			c-2.28,10.1-8.94,18.74-11.62,28.74c-2.69,10.01,1.07,23.42,11.28,25.13c2.43,0.4,4.99,0.09,7.28,1.03
			c3.57,1.47,5.31,5.51,8.31,7.94c6.54,5.29,18.26-0.84,17.64-9.23c4.96,0.58,8.62,4.72,12.74,7.54c4.12,2.82,10.76,3.89,13.34-0.39
			C404.95,442.74,404.93,440.5,404.71,438.4z"/>
		<path class="st4" d="M379.6,399.65c-4.19-18.89-8.38-37.78-12.56-56.67c5.54,11.75,17.53,20.2,30.47,21.47
			c-0.27-4.39-0.54-8.78-0.81-13.17c6.88,1.1,11.93,6.82,16.3,12.23c4.35,5.41,9.21,11.24,16.01,12.69
			c6.8,1.45,15.2-4.64,13.04-11.24c-0.78-2.37-2.67-4.18-4.62-5.75c-5.65-4.56-12.26-7.93-19.27-9.81
			c-2.59-8.1-8.55-14.92-15.97-19.03c0.58,0.07,1.16,0.2,1.75,0.21c4.53,0.08,9.43-2.34,10.73-6.68c0.61-2.01-0.05-4.2-1.28-5.89
			c7.34,3.2,14.94,5.83,22.81,7.34c4.87,0.93,10.03,1.52,14.64-0.27c4.61-1.78,8.39-6.61,7.42-11.46c-0.35-1.74-1.51-3.19-2.98-4.19
			c7.9-0.69,15.72-2.37,23.19-5.01c3.25-1.14,7.03-3.33,6.82-6.77c-0.23-3.88-5.18-5.36-9.06-5.47c-2.11-0.06-4.19,0.28-6.3,0.44
			c1.99-1.2,3.85-2.6,5.43-4.3c1.41-1.53,2.69-3.38,2.72-5.47c0.12-6.07-8.61-7.17-14.6-6.11c-14.25,2.52-28.51,5.04-42.77,7.55
			c0.31-3.42-3.78-5.88-6.88-5.05c5.39-2.86,9.8-7.57,12.04-13.26c-2.16-1.98-4.31-3.96-6.46-5.94
			c9.52-6.24,15.68-17.32,15.97-28.69c-13.25,2.93-25.59,9.8-35.05,19.53c7.46-6.32,15.22-17.91,7.96-24.46
			c-4.05-3.66-10.7-2.6-15.13,0.59c-4.43,3.19-7.35,8.02-10.75,12.28c-13.87,17.34-36.56,25.72-58.71,27.13
			c-22.15,1.39-44.19-3.36-65.88-8.09c-16.38-3.57-32.77-7.14-49.15-10.72c0,0,2.33-4.43-5.47-3.2c-2.99,0.48-6.31,1.5-7.7,4.2
			c-1.98,3.85,1.13,8.29,4.22,11.32c32.76,32.16,81.74,39.51,123.47,58.59c6.13,2.8,12.31,6.01,16.6,11.18
			c5.67,6.81,7.29,16,9.28,24.64c3.95,17.18,10.12,33.85,18.29,49.47c2.01,3.85,5.87,8.26,9.8,6.43
			C380.73,408.58,380.46,403.49,379.6,399.65z"/>
		<g>
			<path class="st2" d="M357.71,309.6c0.64,2.13,5.93,2.01,5.2-0.43C362.27,307.05,356.97,307.16,357.71,309.6L357.71,309.6z"/>
		</g>
		<g>
			<path class="st2" d="M388.32,244.4c0.64,2.13,5.94,2.01,5.21-0.43C392.9,241.84,387.6,241.95,388.32,244.4L388.32,244.4z"/>
		</g>
		<path class="st5" d="M461.58,291.4c-11.38-0.89-22.6-0.7-33.89,1.05c-12.81,1.98-24.98,5.47-38.08,3.69
			c-18.57-2.52-35.17-10.61-53.59-9.38c7.01-1.33,13.86-3.21,20.57-5.57c0.43-0.02,0.84-0.09,1.17-0.3
			c0.13-0.09,0.23-0.18,0.36-0.26c19.15-6.94,37.27-17.29,54.78-27.79c2.77-1.66-1.6-3.94-3.53-2.79
			c-12.8,7.67-25.97,15.32-39.6,21.54c2.13-1.94,4.29-3.86,6.19-6.08c5.6-6.49,9.16-15.52,16.74-19.93c2.79-1.62-1.6-3.91-3.53-2.79
			c-5.88,3.41-8.85,8.49-12.63,13.96c-5.81,8.42-13.06,15.3-21.63,20.84c-17.42,6.24-35.64,9.54-54.93,6.92
			c-30.02-4.06-54.58-25.82-84.78-27.3c-3.24-0.16-3.62,3.29-0.32,3.45c19.14,0.94,34.74,11.39,51.96,18.49
			c7.51,3.09,15.28,5.48,23.19,7.14c0.16,0.11,0.1,0.22,0.32,0.33c9.73,4.38,19.52,8.87,29.83,11.79
			c10.37,2.95,25.46,2.18,33.58,9.52c12.15,10.95,1.35,22.83,1.47,35.22c0.13,11.88,6.59,22.53,6.76,34.53
			c0.04,2.38,5.34,2.79,5.31,0.5c-0.18-13.83-8.62-26.97-6.17-40.8c1-5.71,3.1-11.09,3.47-16.35c3,2.96,6.56,5.46,10.28,7.99
			c9.77,6.67,19.14,13.73,28.12,21.41c1.68,1.44,6.44,0.01,3.98-2.09c-7.17-6.14-14.56-11.98-22.28-17.41
			c-8.54-6.01-18.9-11.02-21.87-21.84c-0.31-1.12-1.87-1.59-3.23-1.46c-4.76-4.86-11.63-7.11-18.08-8.46
			c-13.19-2.79-25.31-6.17-37.52-10.88c2.9,0.26,5.78,0.54,8.7,0.59c4.72,0.09,9.39-0.15,13.98-0.65c-2.18,1.03,0.84,3.5,3,2.98
			c23.74-5.6,44.96,8.83,68.4,9.02c21.39,0.17,41.34-7.15,63.14-5.43C464.51,295.11,464.86,291.66,461.58,291.4z"/>
	</g>
	<g>
		<path class="st6" d="M61.96,316.32c1.61-2.37,3.67-4.38,5.9-6.17c-2.53-1.49-4.3-4-3.77-6.85c0.62-3.28,3.75-5.37,6.62-7.07
			c10.16-6.01,20.45-11.78,30.78-17.47c-6.46,2.74-14.16,2.81-21.35,3.33c-13.85,1-27.51,4.49-40.15,10.24
			c-0.91-7.77,6.57-13.65,13.19-17.82c-13.79,7.78-30.59,10.05-45.94,6.21c3.4-6.61,8.16-12.52,13.89-17.27
			c-4.9,0.36-10.02,0.67-14.49-1.35c-4.47-2.03-7.89-7.23-6.21-11.83c1.88-5.13,8.46-6.21,13.88-4.56
			c-2.74-1.18-5.32-2.68-6.92-5.12c-2.14-3.26-1.3-8.69,2.46-9.74c1.51-0.42,3.12-0.06,4.62,0.38c6.18,1.81,11.89,5.09,16.7,9.39
			c-0.81-2.6,1.55-6.89,4.9-6.77c4.52,0.17,7.59,4.51,9.93,8.39c-0.44-2.3-0.89-4.61-1.33-6.91c10.38-0.83,20.75-1.66,31.13-2.49
			c-11.57-12.49-33.46-4.76-48.33-13.06c-1.43-0.8-2.96-2.05-2.86-3.69c0.09-1.35,1.21-2.35,2.26-3.2c3.5-2.83,7.01-5.65,10.51-8.48
			c-9.66-1.81-18.5-7.65-23.93-15.83c-1.57-2.36-2.91-5.11-2.56-7.92c0.64-5.18,6.93-8.06,12.05-7.04c3.26,0.66,6.08,2.44,8.72,4.53
			c-3.04-3.21-5.31-7.15-6.38-11.44c-0.43-1.8-0.67-3.74,0.01-5.46c2.43-6.05,11.54-3.17,16.84,0.63
			c-4.68-2.49-2.97-10.71,2.08-12.31c3.85-1.22,7.97,0.73,10.57,3.91c-0.04-2.51,1.83-5.44,4.54-5.77c4.18-0.51,7.82,3.1,9.52,6.96
			c0.09,0.21,0.15,0.44,0.23,0.65c0.3-1.35,0.84-2.64,1.65-3.78c6.7,5.5,11.89,12.82,14.89,20.96c1.14,3.1,2.02,6.41,4.12,8.95
			c2.12,2.54,5.95,4.05,8.79,2.34c1.92-1.18,2.83-3.48,3.31-5.69c1.44-6.89-0.42-14.4-4.93-19.8c-1.77-2.11-3.93-3.97-5.06-6.47
			c-1.14-2.51-0.75-6.03,1.7-7.27c4.34-2.2,8.58,4.5,13.43,4.12c-0.81-4.03-3.89-7.19-5.54-10.94c-1.66-3.76-1.02-9.36,2.95-10.42
			c1.41-0.38,2.91-0.06,4.3,0.35c7.57,2.26,14,7.69,17.85,14.56c-0.47-3.33,0.57-6.49,3.76-6.62c2.39-0.11,4.34,1.86,5.72,3.81
			c3.21,4.53,5.25,9.87,5.88,15.39c3.13-7.33,12.8-11.65,19.72-7.7c6.93,3.94,7.15,16.18-0.2,19.26c-3.2,1.34-7.33,1.08-9.52,3.77
			c-1.72,2.1-1.47,5.17-0.86,7.82c5.25,22.96,28.63,36.49,50.39,45.53c23.11,9.6,63.24,22.33,63.24,22.33
			c6.74,1.17,12.9,5.7,15.68,11.99c22.88,6.08-17.75,9.98-6.02,14.64c-5.35,5.38-13.81,5.71-21.39,5.6
			c-20.52-0.29-41.05-1.28-61.5-2.97c-13.05-1.07-26.38-2.41-39.08,0.74c-12.72,3.15-24.93,11.82-28.37,24.45
			c-2.14,7.9-0.68,16.39-2.51,24.38c-1.82,7.98-9.39,15.97-17.17,13.38c-1.85-0.61-3.53-1.78-5.47-1.97
			c-3.05-0.29-5.75,1.89-8.75,2.48c-6.52,1.28-12.44-7.34-8.92-12.97c-3.68-1.43-7.76,0.12-11.69,0.57
			c-3.92,0.45-8.95-1.26-9.18-5.21C60.2,319.27,61.04,317.7,61.96,316.32z"/>
		<path class="st7" d="M93.84,298.53c9.9-11.65,19.82-23.3,29.72-34.95c-8.22,6.17-19.72,7.64-29.23,3.74
			c1.81-2.97,3.62-5.94,5.43-8.91c-5.2-1.77-10.84,0.36-15.89,2.52c-5.06,2.17-10.6,4.45-15.89,2.94c-5.29-1.5-8.91-8.86-4.95-12.67
			c1.42-1.37,3.42-1.93,5.35-2.31c5.63-1.1,11.5-1.01,17.09,0.27c4.8-4.7,11.49-7.26,18.19-7.39c-0.44-0.17-0.88-0.29-1.3-0.51
			c-3.19-1.61-5.73-5.12-5.04-8.63c0.32-1.63,1.6-2.92,3.08-3.65c-6.32-0.47-12.61-1.45-18.65-3.3c-3.74-1.14-7.56-2.65-10.13-5.6
			c-2.57-2.95-3.42-7.73-0.95-10.75c0.89-1.09,2.23-1.67,3.63-1.83c-5.27-3.4-10.1-7.46-14.36-12.07c-1.85-2-3.67-4.92-2.25-7.25
			c1.6-2.63,5.59-1.84,8.35-0.47c1.49,0.74,2.83,1.75,4.24,2.63c-0.95-1.57-1.72-3.24-2.2-5.01c-0.42-1.59-0.63-3.36,0.12-4.83
			c2.17-4.29,8.67-1.83,12.46,1.13c9.03,7.03,18.07,14.06,27.09,21.09c1.04-2.5,4.8-2.71,6.66-0.99c-2.7-3.99-4.04-8.91-3.5-13.71
			c2.24-0.59,4.47-1.18,6.71-1.77c-4.35-7.88-4.56-17.9-0.55-25.95c8.18,6.94,14.26,16.31,17.27,26.6
			c-2.88-7.18-4.01-18.14,3.48-20.04c4.19-1.06,8.45,2.13,10.37,6.01c1.92,3.87,2.17,8.32,2.97,12.56
			c3.27,17.24,16.03,31.49,31,40.66c14.97,9.17,32.12,13.99,49.02,18.7c12.77,3.56,25.53,7.12,38.3,10.68c0,0,0.02-3.96,5.01-0.21
			c1.92,1.44,3.86,3.38,3.82,5.78c-0.04,3.41-3.85,5.37-7.13,6.35c-34.78,10.36-71.72-2.61-107.94-4.71
			c-5.31-0.31-10.82-0.35-15.73,1.68c-6.48,2.67-11.01,8.48-15.6,13.78c-9.11,10.54-19.56,19.92-31.06,27.81
			c-2.83,1.94-7.15,3.6-9.22,0.87C89.74,304.34,91.83,300.89,93.84,298.53z"/>
		<g>
			<path class="st2" d="M142.43,243.7c-1.24,1.25-4.89-0.79-3.48-2.23C140.18,240.22,143.84,242.26,142.43,243.7L142.43,243.7z"/>
		</g>
		<g>
			<path class="st2" d="M145.13,186.82c-1.23,1.25-4.88-0.79-3.48-2.23C142.89,183.34,146.55,185.38,145.13,186.82L145.13,186.82z"
				/>
		</g>
		<path class="st5" d="M76.57,192.58c8.27,3.58,16.05,7.87,23.29,13.26c8.23,6.12,15.42,13.06,25.24,16.66
			c13.9,5.1,28.49,5.58,40.91,13.26c-4.41-3.51-8.48-7.36-12.3-11.49c-0.29-0.17-0.56-0.38-0.7-0.64c-0.07-0.1-0.1-0.21-0.17-0.32
			c-10.81-11.93-19.66-25.85-28-39.66c-1.32-2.19,2.58-2.16,3.49-0.65c6.11,10.1,12.48,20.3,19.71,29.7
			c-0.78-2.15-1.58-4.28-2.08-6.54c-1.52-6.6-0.65-14.23-4.34-20.11c-1.34-2.16,2.57-2.14,3.49-0.65c2.86,4.56,3.05,9.2,3.67,14.42
			c0.95,8.04,3.47,15.52,7.41,22.56c9.87,10.8,21.37,19.84,35.81,25.15c22.48,8.25,47.69,2.13,69.33,12.27
			c2.33,1.08,1.32,3.64-1.04,2.53c-13.72-6.43-28.49-4.88-43.15-6.29c-6.4-0.62-12.7-1.82-18.85-3.58c-0.15,0.02-0.16,0.12-0.35,0.1
			c-8.42-0.53-16.93-1.02-25.2-2.78c-8.34-1.77-18.6-7.89-27-5.77c-12.53,3.17-9.38,15.46-14.05,24.07
			c-4.47,8.25-12.93,13.31-17.48,21.63c-0.9,1.65-4.76-0.02-3.89-1.61c5.24-9.6,15.99-15.67,19.39-26.23
			c1.4-4.36,1.92-8.89,3.6-12.71c-3.18,0.96-6.6,1.39-10.13,1.79c-9.28,1.05-18.45,2.52-27.56,4.57c-1.71,0.38-4.49-2.37-2.01-2.93
			c7.29-1.63,14.61-2.99,22.01-3.93c8.18-1.04,17.28-0.71,23.33-7.18c0.64-0.67,1.91-0.42,2.81,0.18
			c5.12-1.64,10.75-0.67,15.77,0.77c10.24,2.93,19.97,5.05,30.24,6.27c-2.12-0.88-4.25-1.76-6.3-2.8c-3.34-1.69-6.51-3.58-9.53-5.63
			c1.14,1.52-1.88,2.13-3.2,0.97c-14.52-12.69-34.69-10.45-51.13-18.98c-15.02-7.8-26.25-20.27-42.12-27.14
			C73.16,194.09,74.19,191.55,76.57,192.58z"/>
	</g>
	<g>
		<path class="st8" d="M264.06,234.99c3.07-37.51-25.51-75.66-62.69-80.97c-6.41-2.34-13.56-2.69-20.43-2.1
			c-36.79,3.15-70.68,31.56-77.97,67.77c-7.26,36.21,14.55,76.71,49.54,88.48c12.23,4.12,25.46,4.9,38.21,2.95
			C228.3,305.37,260.96,272.87,264.06,234.99z"/>
		<g>
			<path class="st9" d="M206.26,158.02c1.78-0.34,1.32-2.79-0.46-2.45C204.01,155.9,204.48,158.36,206.26,158.02L206.26,158.02z"/>
		</g>
		<g class="st10">
			<path class="st11" d="M202.18,203.39c1.49-9.82,1.38-20.68-4.57-28.64c-7.04-9.44-20.86-13.07-20.86-13.07
				c-12.6-4.5-27.11-1.23-38.13,6.36c-11.02,7.59-18.91,19.02-24.6,31.14c-5.53,11.79-9.27,24.98-7.05,37.82
				c1.32,7.59,4.66,14.73,9,21.09c8.57,12.58,23.85,22.93,38.4,18.43c5.77-1.78,10.64-5.69,15.01-9.87
				C186.85,249.94,198.58,227.31,202.18,203.39z"/>
		</g>
		<g class="st12">
			<path class="st11" d="M177.01,174.86c-2.67-6.36-10.23-9.69-17.1-9.02c-0.9,0.09-1.77,0.37-2.66,0.57l1.19-0.68
				c-10.59-1.73-19.47,7.66-25.78,16.34c-6.21,8.52-12.27,17.68-13.84,28.11c-1.83,12.22,3.21,25.23,12.8,33.02
				c3.34,2.7,7.36,4.86,11.66,4.89c5.4,0.05,10.4-3.31,13.65-7.61c3.27-4.31,5.12-9.49,6.93-14.59c3.79-10.7,7.56-21.4,11.36-32.1
				C177.38,187.66,179.54,180.84,177.01,174.86z"/>
		</g>
		<g class="st13">
			<path class="st14" d="M257.46,231.73c0.52-29.94-18.62-59.3-46.24-70.91l-14.74-2.09c15.26,1.56,26.96,14.72,33.18,28.75
				c12.64,28.6,7.22,64.83-14.76,87.06c-21.98,22.23-59.68,27.7-86.06,10.91c21.2,19.12,53.24,25.67,79.94,15.53
				C236.8,290.35,256.93,261.68,257.46,231.73z"/>
		</g>
	</g>
	<g>
		<path class="st8" d="M378.71,185.93c-20.53-17.25-49.66-23.41-75.62-16.72c0,0-66.27,15.87-57.17,77.09
			c1.45,9.79,0.94,20.05,5.36,28.91c3.99,8.01,10.31,14.62,17.13,20.4c24.54,20.79,59.29,32.06,89.64,21.44
			c25.31-8.86,44.47-32.77,48.4-59.29C410.37,231.25,399.24,203.17,378.71,185.93z"/>
		<g class="st10">
			<path class="st11" d="M322.83,176.01c-8.57-5.02-19.77-5.16-28.48-0.37l5.47-2.26c-27.37,8.25-48.44,34.27-50.82,62.75
				c-0.61,7.32,0.26,15.51,5.67,20.49c2.82,2.59,6.51,3.96,10.1,5.27c9.36,3.42,20.1,6.77,28.9,2.1c3.06-1.62,5.58-4.09,8-6.57
				c8.14-8.35,15.71-17.26,22.64-26.63c6.59-8.94,12.83-19.03,12.75-30.13C337,190.73,331.39,181.03,322.83,176.01z"/>
		</g>
		<g class="st12">
			<path class="st11" d="M310.49,181.41c-1.52-2.03-3.95-3.18-6.38-3.9c-7.37-2.2-15.66-1.1-22.2,2.96c0,0-4.78,4.48-7.93,7.55
				c-8.02,7.79-14.65,17.48-16.7,28.47c-2.05,10.99,1.19,23.36,9.9,30.37c3.44,2.77,8,4.67,12.27,3.52
				c4.61-1.25,7.6-5.59,10.05-9.69c8.61-14.42,15.68-29.76,21.03-45.67C312.06,190.54,313.31,185.2,310.49,181.41z"/>
		</g>
		<g>
			<path class="st9" d="M344.43,178.95c1.69-0.32,1.43-1.76-0.27-1.44C342.47,177.83,342.73,179.28,344.43,178.95L344.43,178.95z"/>
		</g>
		<g class="st13">
			<path class="st14" d="M394.63,215.16c-10.72-23.26-33.57-40.2-58.73-44.86c6.16,4.18,11.97,8.84,17.6,13.7
				c11.1,8.79,20.15,20.2,24.61,33.56c5.6,16.78,3.16,36.64-8.39,50.04c-6.16,7.14-14.41,12.1-22.5,16.93
				c-9.81,5.86-19.79,11.81-30.85,14.72c-11.05,2.91-23.54,2.45-33.08-3.86c11.3,8.16,23.48,15.66,37.07,18.77
				c24.95,5.69,52.61-5.36,67.68-26.05C403.11,267.41,405.34,238.41,394.63,215.16z"/>
		</g>
		<g class="st13">
			<path class="st14" d="M344.67,177.74l15.56,12.12c-2.15-2.04-4.47-3.92-6.73-5.87C350.67,181.75,347.73,179.63,344.67,177.74z"/>
		</g>
		<path class="st14" d="M362.19,184.3c0.97,0.49,1.94,1.01,2.93,1.5c-0.84-0.84-1.67-1.69-2.5-2.52L362.19,184.3z"/>
		<g class="st12">
			<path class="st14" d="M401.04,223.01c-1.95-6.43-4.83-12.63-9.01-17.89c-6.93-8.72-16.93-14.25-26.91-19.31
				c12.79,12.92,25.58,27.35,27.39,45.27c0.81,7.99-0.7,16.07-3.14,23.73c-10.51,33.05-41.69,60.3-76.37,60.14
				c24.94,6.41,53.08-1.62,70.9-20.22C401.72,276.12,408.51,247.67,401.04,223.01z"/>
		</g>
	</g>
	<g>
		<path class="st8" d="M208.04,268.85l3.65,0.12c-25.35,1.12-50.13,14.38-64.33,35.5c-16.69,24.85-17.93,59.22-3.06,85.21
			c3.66,6.39,8.24,12.33,14.08,16.81c10.62,8.16,24.34,10.84,37.56,12.93c29.13,4.61,61.33,6.92,85.78-9.54
			c29.95-20.16,36.99-65.33,18.82-96.52C282.38,282.16,244.02,265.89,208.04,268.85z"/>
		<g class="st10">
			<path class="st11" d="M242.59,284.5c-12.86-10.63-30.94-13.89-47.26-10.4c-16.32,3.5-30.89,13.23-42.08,25.61
				c-6.85,7.59-12.72,16.61-13.97,26.76c-0.89,7.38-1.19,35.93,22.58,41.57c6.25,1.48,12.76,0.94,19-0.55
				c20.86-4.98,40.34-15.58,55.86-30.38c5.7-5.43,10.95-11.55,14.06-18.79c3.1-7.24,3.83-15.77,0.59-22.95
				C249.44,291.09,246.21,287.49,242.59,284.5z"/>
		</g>
		<g class="st12">
			<path class="st11" d="M168.19,288.99c0,0-11.31,9.3-20.4,25.85c-4.36,7.94-7.25,17.74-3.37,25.92
				c4.77,10.11,18.33,13.4,29.04,10.2c10.72-3.2,19.23-11.2,27.31-18.94c4.46-4.27,8.93-8.56,13.4-12.84
				c8.26-7.9,17.22-17.84,15.2-29.08c-1.09-6.04-5.38-11.17-10.61-14.39C206.16,267.93,176.93,277.04,168.19,288.99z"/>
		</g>
		<g class="st13">
			<path class="st14" d="M263.43,286.79c4.13,3.78,7.58,8.41,9.94,13.44c5.71,12.17,6.45,26.02,6.5,39.46
				c0.05,12.78-0.53,25.97-5.97,37.52c-7.2,15.24-22.16,25.7-38.1,31.2c-13.09,4.51-26.93,6.07-40.79,7.11
				c22.53,6.1,45.87,9.91,67.42,2.09c28.11-10.2,47.03-40.79,44.55-70.59C304.8,321.1,287.03,297.55,263.43,286.79z"/>
		</g>
		<g class="st13">
			<path class="st14" d="M242.4,277.86l10.1,4.97c3.75,1,7.4,2.35,10.92,3.96C257.57,281.44,250.28,277.87,242.4,277.86z"/>
		</g>
		<g class="st13">
			<path class="st14" d="M185.96,416.17c3.01-0.19,6.02-0.42,9.04-0.65c-5.59-1.52-11.16-3.14-16.6-4.8
				C176.45,414.05,182.13,416.43,185.96,416.17z"/>
		</g>
		<g class="st12">
			<path class="st14" d="M248.97,277.56l19.34,11.32c16.9,11.44,25.42,32,28.64,52.15c1.72,10.74,2.12,22.1-2,32.17
				c-3.86,9.42-11.33,16.87-19.11,23.45c-10.26,8.7-21.38,16.38-33.13,22.89c8.28,2.66,16.98-2.21,24.05-7.29
				c10.25-7.37,20.02-15.8,26.7-26.51c11.79-18.9,12.47-43.75,3.43-64.09C287.84,301.31,269.75,285.57,248.97,277.56z"/>
		</g>
	</g>
</g>
</svg>
