<?xml version="1.0" encoding="utf-8"?>
<!-- Generator: Adobe Illustrator 25.4.1, SVG Export Plug-In . SVG Version: 6.00 Build 0)  -->
<svg version="1.1" id="Layer_1" xmlns="http://www.w3.org/2000/svg" xmlns:xlink="http://www.w3.org/1999/xlink" x="0px" y="0px"
	 viewBox="0 0 305.05 471.98" style="enable-background:new 0 0 305.05 471.98;" xml:space="preserve">
<style type="text/css">
	.st0{display:none;}
	.st1{display:inline;}
	.st2{fill:#A3CF5F;}
	.st3{fill:#84C441;}
	.st4{fill:#49A947;}
	.st5{fill:#59B547;}
	.st6{fill:#61BB46;}
	.st7{fill:#40A047;}
	.st8{fill:#F7901E;}
	.st9{fill:#F47421;}
</style>
<g class="st0">
	<g class="st1">
		<path class="st2" d="M410.11,56.19c0,0-1.14,60.69-8.01,67.57c-5.65-18.82-37.57-49.99-56.4-62.42c-0.29,0.47-0.57,0.94-0.85,1.41
			v25.17c1.95,1.24,3.57,2.31,4.39,3.08c11.97,11.12,21.25,23.9,25.95,39.47c7.72,25.55,17.02,56.64,16.51,79.15h35.58V56.19H410.11
			z"/>
		<path class="st3" d="M444.47,56.19c0,0,1.14,60.69,8.01,67.57c5.65-18.82,37.57-49.99,56.4-62.42c0.28,0.47,0.57,0.94,0.85,1.41
			v25.17c-1.95,1.24-3.57,2.31-4.39,3.08c-11.97,11.12-21.26,23.9-25.96,39.47c-7.72,25.55-17.02,56.64-16.52,79.15h-35.58V56.19
			H444.47z"/>
	</g>
	<g class="st1">
		<path class="st4" d="M394.6,64.22c0,23.05-18.68,41.74-41.74,41.74c-23.06,0-41.74-18.7-41.74-41.74s18.68-41.75,41.74-41.75
			C375.92,22.47,394.6,41.17,394.6,64.22z"/>
		<path class="st5" d="M373.27,59.63c0,15.7-12.73,28.43-28.42,28.43c-15.7,0-28.42-12.73-28.42-28.43
			c0-15.69,12.72-28.42,28.42-28.42C360.55,31.22,373.27,43.94,373.27,59.63z"/>
	</g>
	<g class="st1">
		<path class="st4" d="M537.31,30.94c0,30.3-24.56,54.85-54.85,54.85c-30.29,0-54.85-24.55-54.85-54.85
			c0-30.29,24.56-54.84,54.85-54.84C512.75-23.9,537.31,0.65,537.31,30.94z"/>
		<path class="st5" d="M509.27,24.92c0,20.63-16.72,37.35-37.34,37.35c-20.63,0-37.35-16.72-37.35-37.35
			c0-20.63,16.72-37.35,37.35-37.35C492.55-12.43,509.27,4.29,509.27,24.92z"/>
	</g>
	<g class="st1">
		<path class="st4" d="M444.73,37.16c0,31.28-25.36,56.62-56.62,56.62c-31.27,0-56.63-25.35-56.63-56.62s25.36-56.64,56.63-56.64
			C419.37-19.48,444.73,5.88,444.73,37.16z"/>
		<path class="st5" d="M415.78,30.94c0,21.29-17.26,38.56-38.55,38.56c-21.29,0-38.56-17.27-38.56-38.56
			c0-21.29,17.27-38.54,38.56-38.54C398.52-7.61,415.78,9.64,415.78,30.94z"/>
	</g>
	<g class="st1">
		<path class="st4" d="M482.46,41.73c0,23.06-18.68,41.75-41.74,41.75c-23.05,0-41.74-18.68-41.74-41.75
			C398.97,18.68,417.66,0,440.72,0C463.77,0,482.46,18.68,482.46,41.73z"/>
		<path class="st6" d="M461.12,37.16c0,15.69-12.72,28.41-28.41,28.41c-15.7,0-28.42-12.72-28.42-28.41
			c0-15.7,12.73-28.43,28.42-28.43C448.4,8.73,461.12,21.45,461.12,37.16z"/>
	</g>
	<g class="st1">
		<path class="st4" d="M549.91,72.96c0,23.05-18.69,41.73-41.75,41.73c-23.05,0-41.74-18.68-41.74-41.73
			c0-23.06,18.69-41.75,41.74-41.75C531.22,31.22,549.91,49.9,549.91,72.96z"/>
		<path class="st6" d="M528.57,68.38c0,15.69-12.73,28.41-28.42,28.41c-15.7,0-28.42-12.73-28.42-28.41
			c0-15.69,12.72-28.42,28.42-28.42C515.85,39.96,528.57,52.69,528.57,68.38z"/>
	</g>
</g>
<g>
	<g>
		<g>
			<path class="st4" d="M257.06,21.77L257.06,21.77c2.02-5.37-5-9.44-8.66-5.03l-29.87,35.99c-2.6,3.13-7.62,2.09-8.77-1.8l-4-13.54
				c-1.59-5.37-9.42-4.6-9.92,0.97l-8.03,87.86l11.73,9.35l64.82-107.72C260.42,30.23,255.34,26.37,257.06,21.77z"/>
		</g>
		<g>
			<path class="st7" d="M286.5,116.01l-18.23-6.34c-3.71-1.28-4.61-6.12-1.62-8.66l36.6-31.16c3.8-3.23,1.16-9.41-3.8-8.91
				l-19.17,1.95c-4.16,0.41-7.02-4.08-4.86-7.67l28.57-47.48c2.96-4.91-3.21-10.19-7.61-6.52l-31.31,26.22
				c-0.23,0.18-0.47,0.27-0.71,0.41l-64.82,107.72l24.31,19.39l63.13-29.56C291.12,123.47,290.81,117.49,286.5,116.01z"/>
		</g>
	</g>
	<g>
		<path class="st8" d="M202.66,133.27c-4.48-3.16-9.42-5.6-14.84-7.05c-22.17-5.94-46.07,5.6-61.23,22.83
			c-15.17,17.24-23.38,39.34-31.28,60.88C63.54,296.66,31.77,383.36,0,470.06L202.66,133.27z"/>
	</g>
	<g>
		<path class="st9" d="M202.66,133.27c4.87,2.48,9.36,5.71,13.18,9.81c15.63,16.81,16.63,43.34,8.5,64.79
			c-8.13,21.47-23.8,39.08-39.15,56.15C123.46,332.71,61.73,401.38,0,470.06L202.66,133.27z"/>
	</g>
	<g>
		<path class="st9" d="M158.92,168.87l-22.77-13.7c-2.09-1.25-2.76-3.97-1.5-6.06c1.25-2.09,3.97-2.77,6.06-1.5l22.77,13.7
			c2.09,1.25,2.76,3.97,1.51,6.06C163.73,169.46,161.01,170.14,158.92,168.87z"/>
	</g>
	<g>
		<path class="st9" d="M150.77,213.86l-21.5-12.95c-2.09-1.25-2.77-3.97-1.51-6.06c1.26-2.09,3.97-2.77,6.07-1.52l21.51,12.95
			c2.09,1.25,2.76,3.97,1.5,6.06C155.58,214.43,152.87,215.11,150.77,213.86z"/>
	</g>
	<g>
		<path class="st9" d="M111.46,253.83l-16.61-10c-2.09-1.25-2.76-3.98-1.5-6.07c1.26-2.08,3.97-2.76,6.07-1.5l16.6,10
			c2.09,1.25,2.77,3.97,1.51,6.06C116.26,254.41,113.55,255.09,111.46,253.83z"/>
	</g>
	<g>
		<path class="st9" d="M91.99,305.75l-18.94-11.4c-2.09-1.25-2.77-3.98-1.51-6.06c1.26-2.09,3.97-2.77,6.07-1.52l18.94,11.4
			c2.09,1.25,2.76,3.98,1.51,6.07C96.8,306.33,94.08,307.01,91.99,305.75z"/>
	</g>
	<g>
		<path class="st8" d="M209.06,188.73l-20.36-12.25c-2.09-1.27-2.77-3.98-1.51-6.07c1.26-2.09,3.97-2.76,6.07-1.51l20.36,12.25
			c2.09,1.25,2.76,3.97,1.5,6.06C213.86,189.31,211.15,189.98,209.06,188.73z"/>
	</g>
	<g>
		<path class="st8" d="M199.76,220.97l-22.72-13.67c-2.09-1.27-2.77-3.98-1.51-6.07c1.26-2.09,3.97-2.76,6.07-1.5l22.73,13.67
			c2.09,1.27,2.76,3.98,1.5,6.08C204.57,221.55,201.85,222.23,199.76,220.97z"/>
	</g>
	<g>
		<path class="st8" d="M163.31,264.39l-20.2-12.15c-2.09-1.27-2.76-3.98-1.5-6.08c1.25-2.09,3.97-2.76,6.07-1.5l20.2,12.15
			c2.09,1.27,2.76,3.98,1.51,6.08C168.12,264.98,165.4,265.65,163.31,264.39z"/>
	</g>
	<g>
		<path class="st8" d="M127.88,303.28l-11.37-6.84c-2.09-1.27-2.76-3.98-1.5-6.07c1.25-2.09,3.97-2.76,6.07-1.5l11.36,6.84
			c2.09,1.25,2.76,3.97,1.51,6.06C132.69,303.85,129.97,304.53,127.88,303.28z"/>
	</g>
	<g>
		<path class="st8" d="M92.19,345.43l-8.84-5.32c-2.09-1.25-2.76-3.98-1.51-6.06c1.25-2.09,3.97-2.77,6.07-1.52l8.83,5.32
			c2.09,1.25,2.77,3.98,1.51,6.07C97,346.01,94.28,346.69,92.19,345.43z"/>
	</g>
</g>
</svg>
