<?xml version="1.0" encoding="utf-8"?>
<!-- Generator: Adobe Illustrator 25.4.1, SVG Export Plug-In . SVG Version: 6.00 Build 0)  -->
<svg version="1.1" id="Layer_1" xmlns="http://www.w3.org/2000/svg" xmlns:xlink="http://www.w3.org/1999/xlink" x="0px" y="0px"
	 viewBox="0 0 512.74 365.96" style="enable-background:new 0 0 512.74 365.96;" xml:space="preserve">
<style type="text/css">
	.st0{fill:#EECFBA;}
	.st1{fill:#E9BEAC;}
	.st2{opacity:0.38;fill:#FFFFFF;}
	.st3{fill:#FEDECA;}
	.st4{fill:#E2BFA3;}
	.st5{fill:#CEAE98;}
	.st6{fill:#FFF6D7;}
	.st7{fill:#FEDE40;}
</style>
<g>
	<g>
		<path class="st0" d="M512.73,80.71l-10.98,0.53c-1.81,40.85-87.46,63.28-244.02,63.28c-151.52,0-241.17-29.49-244.02-63.28
			L2.62,79.19c0,0-3.92,54.39,25.34,117.58c43.89,94.77,104.56,111.85,104.56,111.85l123.95,2.39l123.95-2.39
			c0,0,60.67-17.08,104.56-111.85C514.24,133.58,512.73,80.71,512.73,80.71z"/>
		<path class="st0" d="M382.92,329.18v-21.9l-125.2-15.75l-125.2,17.08v20.57c0,0-1.06,9.91,36.92,22.99
			c51.93,17.9,136.31,12.01,176.57,0C384.49,340.7,382.92,329.18,382.92,329.18z"/>
		<path class="st1" d="M345.91,352.18c38.49-11.48,36.92-22.99,36.92-22.99v-21.9l-57.4-7.22c-0.09,0.05-0.18,0.11-0.27,0.16
			c-6.58,3.97-12.91,7.55-13.4,15.74c-0.52,8.6,4.17,19.04,0.43,27.26c-2.3,5.06-8.34,7.06-13.77,8.27
			c-41.45,9.23-84.84,3.56-126.12-6.42c-12.89-3.12-25.97-6.78-36.82-14.41c-0.89-0.63-1.97-1.26-3.05-1.67v0.18
			c0,0-1.06,9.91,36.92,22.99C221.27,370.08,305.65,364.18,345.91,352.18z"/>
		<path class="st2" d="M63.91,161.52c-2.64,7.02-0.4,14.86,2.23,21.89c7.22,19.25,17.32,37.31,28.75,54.4
			c8.22,12.29,18.51,25,33.04,27.74c5.1,0.96,10.59,0.53,15.13-1.98c4.54-2.51,7.95-7.3,8.08-12.49c0.13-5.28-2.95-10.03-5.72-14.52
			c-6.79-10.99-12.51-22.78-15.37-35.37c-1.9-8.37-2.6-17.25-6.89-24.68C115.79,163.76,72.19,139.5,63.91,161.52z"/>
		<path class="st2" d="M151.78,316.95c-1.2,0.04-2.45,0.15-3.47,0.79c-2.12,1.33-2.38,4.51-1.17,6.7c1.21,2.19,3.47,3.58,5.69,4.73
			c9.21,4.79,19.45,7.24,29.66,9.09c3.92,0.71,8.1,1.32,11.77-0.23c3.67-1.55,6.37-6.08,4.53-9.62c-1.75-3.36-6.19-3.96-9.96-4.31
			C176.55,322.97,163.81,316.58,151.78,316.95z"/>
		<path class="st1" d="M512.73,80.71l-11.48,0.53c-1.02,22.89-28.36,40-79.75,50.62c-2.59,18.55-8.48,40.79-20.76,64.27
			c-35.72,68.29-69.56,87.28-110.95,101.37c-51.36,17.47-111.5,13.09-111.5,13.09s60.3,13.78,108.65,13.78
			c48.08,0,92.9-15.74,92.9-15.74s61.25-17.08,105.14-111.85C514.24,133.58,512.73,80.71,512.73,80.71z"/>
		<path class="st3" d="M512.6,77.33h-10.94c0.1,1.15,0.14,2.31,0.11,3.48c-1.24,41.12-86.94,63.7-244.04,63.7
			c-152.15,0-241.91-29.73-244.06-63.7c0.11-1.18,0.26-2.34,0.44-3.48H2.99c-0.19,1.28-0.26,0.53-0.37,1.86
			c2.24,38.07,95.98,73.44,255.01,73.44c164.21,0,253.79-25.31,255.08-71.4C512.75,79.92,512.71,78.62,512.6,77.33z"/>
	</g>
	<g>
		<path class="st3" d="M2.62,79.19c2.24,38.07,96.06,71.4,255.1,71.4c164.21,0,253.79-25.31,255.08-71.4
			C514.1,33.1,425.18-0.7,261.61,0C123.85,0.59,8.46,10.39,2.62,79.19L2.62,79.19z"/>
		<path class="st4" d="M13.67,78.77c2.14,33.97,91.91,63.7,244.06,63.7c157.1,0,242.8-22.58,244.04-63.7
			c1.24-41.12-83.83-71.27-240.32-70.65C129.65,8.64,19.25,17.38,13.67,78.77L13.67,78.77z"/>
		<path class="st5" d="M13.67,78.89c1.72,27.23,59.75,51.74,161.08,60.39c-5.44-3.69-10.73-7.6-15.85-11.72
			c-31.35-25.24-56.51-58.21-72.34-95.23c-1.33-3.11-2.78-6.38-4.17-9.73C42.09,32.8,16.29,50.03,13.67,78.89z"/>
		<path class="st6" d="M263.99,64.39C160.22,64.8,68.77,71.52,32.24,103.8c32.89,22.92,113.53,38.67,228.4,38.67
			c118.43,0,194.64-13.82,226.32-37.75C455.54,79.4,380.04,63.93,263.99,64.39z"/>
	</g>
	<path class="st7" d="M131.33,85.63c1.51,2.35,0.47,5.57,1.53,8.15c0.95,2.34,3.41,3.7,5.8,4.53c14.87,5.16,30.76-3.03,46.43-4.56
		c6.81-0.67,13.68-0.05,20.52-0.05c3.6,0,7.37-0.21,10.48-2.03c3.11-1.82,5.28-5.72,4-9.09c-1.85-4.89-9.11-5.54-11.56-10.16
		c-0.7-1.31-0.93-2.83-1.6-4.15c-2.17-4.26-7.81-5.04-12.59-5.25c-16.5-0.71-35.59-3.2-51.69,1.41c-5.04,1.44-9.82,4.27-13.83,7.66
		C119.75,79.77,127.41,79.5,131.33,85.63z"/>
	<path class="st7" d="M236.45,110.43c-3.38,2.93-7.88,4.1-12.03,5.77c-4.15,1.67-8.4,4.29-9.76,8.55c-0.24,0.75-0.38,1.58-0.12,2.32
		c0.25,0.71,0.82,1.25,1.4,1.73c5.63,4.73,13.35,6.89,20.62,5.75c6.57-1.02,12.51-4.53,19.02-5.91c8.45-1.79,17.96-0.08,25.21-4.78
		c4.39-2.84,7.26-7.91,7.43-13.14c0.16-4.87-2.63-10.29-7.43-11.18c-5.32-0.99-9.88-0.64-15.22-2.42c-3.43-1.15-7.69-3.46-11.39-3.3
		C244.7,94.23,242.53,105.16,236.45,110.43z"/>
	<path class="st7" d="M301.54,80.53c-1.35,6.72,3.06,14.11,9.62,16.11c2.24,0.68,4.69,0.81,6.75,1.94
		c5.07,2.77,5.56,9.96,9.48,14.21c4.89,5.3,13.33,4.53,20.41,3.16c6.16-1.19,13.05-3.06,16.02-8.59c3.35-6.23-0.48-14.57-6.77-17.82
		c-3.16-1.63-6.87-2.31-9.58-4.63c-1.48-1.26-2.54-2.93-3.75-4.45C335.37,69.92,305.42,61.17,301.54,80.53z"/>
	<path class="st7" d="M389.65,92.72c-1.36,1.74-2.22,3.81-3.06,5.85c-1.74,4.23-3.49,8.47-5.23,12.7c-0.77,1.88-1.54,4.08-0.54,5.86
		c0.52,0.93,1.45,1.56,2.38,2.08c6.95,3.89,15.59,3.45,23.25,1.26c7.66-2.19,14.78-5.96,22.32-8.54c5.69-1.95,11.61-3.21,17.6-3.76
		c3.86-0.35,7.9-0.45,11.31-2.29c3.41-1.84,5.88-6.16,4.19-9.65c-0.65-1.34-1.8-2.37-2.99-3.27c-5.79-4.39-13.14-6.68-20.4-6.36
		c-3.3,0.15-6.56,0.81-9.86,0.77c-7.16-0.09-13.89,0.02-20.79,0.28C401.12,87.91,394.43,86.61,389.65,92.72z"/>
	<path class="st7" d="M86.86,117.67c7.29,0.47,14.59-1.64,21.86-0.95c8.89,0.85,17.38,5.85,26.23,4.61c2.88-0.4,5.95-1.76,6.99-4.47
		c1.29-3.36-1.2-7.08-4.26-8.97c-3.06-1.88-6.7-2.64-9.81-4.45c-4.9-2.85-8.04-8.06-12.83-11.08c-5.28-3.33-12.02-3.63-18.1-2.2
		c-5.79,1.37-22.4,6.43-25.37,12.26C67.23,110.97,80.5,117.25,86.86,117.67z"/>
	<path class="st7" d="M290.81,124.49c-0.3,0.63-0.54,1.33-0.38,2.01c0.41,1.77,2.85,1.89,4.67,1.72c4.94-0.45,9.97,0.12,14.69,1.66
		c2.45,0.8,4.86,1.87,7.43,2.06c2.57,0.2,5.44-0.7,6.7-2.95c1.24-2.22,0.52-5.15-1.18-7.05c-1.69-1.9-4.16-2.92-6.62-3.56
		C308.6,116.42,294.74,116.19,290.81,124.49z"/>
	<path class="st7" d="M235.76,75.07c-0.98,0.44-1.99,0.92-2.65,1.76c-1.47,1.87-0.49,4.85,1.49,6.16c1.98,1.31,4.55,1.31,6.89,0.87
		c2.33-0.44,4.6-1.26,6.97-1.44c6.13-0.46,11.62,3.38,17.22,5.92c5.22,2.37,10.91,3.7,16.64,3.87c0.61,0.02,1.26,0.02,1.8-0.26
		c0.59-0.31,0.98-0.91,1.23-1.53c1.7-4.2-1.79-8.58-5.05-11.72c-3.18-3.06-6.59-6.18-10.84-7.39
		C257.52,67.92,246.67,70.18,235.76,75.07z"/>
	<path class="st7" d="M152.64,116.24c-1.42,0.7-2.89,1.47-3.75,2.8c-2.28,3.52,1.39,8.22,5.45,9.29c4.05,1.07,8.4,0.12,12.51,0.93
		c3.49,0.68,6.8,2.62,10.34,2.31c3.84-0.33,6.95-3.21,9.3-6.26c2.35-3.05,4.35-6.48,7.44-8.77c5.98-4.43,14.89-3.71,20.29-8.83
		c5.84-5.55,0.65-9.74-5.21-10.42c-5.42-0.63-9.95,1.12-15,2.75C179.85,104.61,166.01,109.62,152.64,116.24z"/>
</g>
</svg>
