<?xml version="1.0" encoding="utf-8"?>
<!-- Generator: Adobe Illustrator 25.4.1, SVG Export Plug-In . SVG Version: 6.00 Build 0)  -->
<svg version="1.1" id="Layer_1" xmlns="http://www.w3.org/2000/svg" xmlns:xlink="http://www.w3.org/1999/xlink" x="0px" y="0px"
	 viewBox="0 0 517.22 264" style="enable-background:new 0 0 517.22 264;" xml:space="preserve">
<style type="text/css">
	.st0{fill:#D4D0BD;}
	.st1{fill:#E8E3CD;}
	.st2{fill:#D1C4A7;}
	.st3{fill:#FACA82;}
	.st4{fill:#E0A870;}
	.st5{fill:#E9AC6A;}
	.st6{fill:#C69465;}
	.st7{opacity:0.66;fill:#FFFFFF;}
	.st8{fill:#D89559;}
	.st9{fill:#F9DA91;}
	.st10{fill:#BF2748;}
	.st11{fill:#8F1D3B;}
	.st12{fill:#DD2D5B;}
	.st13{opacity:0.33;fill:#FFFFFF;}
	.st14{fill:#60174E;}
</style>
<g>
	<g>
		<path class="st0" d="M517.22,170.08c0,44.78-115.11,93.92-257.12,93.92S2.99,214.86,2.99,170.08
			c0-44.78,115.11-68.23,257.12-68.23S517.22,125.3,517.22,170.08z"/>
		<ellipse class="st1" cx="260.1" cy="170.08" rx="257.12" ry="81.08"/>
		<path class="st2" d="M62.66,192.72c38.22,13.79,76.72,27.65,116.86,34c49.79,7.87,100.63,3.95,150.77-1.23
			c40.71-4.21,81.7-9.33,120.38-22.71c7.47-2.59,15.19-5.72,20.16-11.88c4.97-6.15,5.97-16.2,0.11-21.51
			c-2.69-2.44-6.34-3.52-9.91-4.18c-19.16-3.56-38.56,2.83-57.43,7.7c-97.09,25.06-199.38,10.62-298.91-1.55
			c-10.97-1.34-21.99-2.66-33.05-2.47c-6.45,0.11-21.16-0.78-24.84,6.39C42.13,184.42,56.45,190.48,62.66,192.72z"/>
		<g>
			<path class="st3" d="M55.1,120.77c-11.07,13.23-13.85,35.09-2.18,47.66c6.12,6.6,14.93,9.62,23.36,12.41
				c20.4,6.75,40.81,13.49,61.21,20.24c23.16,7.66,46.43,15.35,70.49,19.13c24.82,3.91,50.09,3.6,75.21,2.9
				c49.71-1.39,99.38-4.27,148.94-8.65c6.81-0.6,13.74-1.26,20.09-3.9c11.06-4.59,19.04-14.57,26.53-24.16
				c3.83-4.9,7.76-9.99,9.39-16.06c2.79-10.36-1.87-21.65-9.33-29.11c-7.45-7.46-17.3-11.77-27.06-15.46
				c-27.25-10.29-55.66-16.93-83.97-23.55c-25.01-5.85-50.12-11.71-75.69-13.99c-19.63-1.75-39.38-1.38-59.09-1.01
				c-34.79,0.65-69.61,1.31-104.34,3.85C104.13,92.88,72.03,100.52,55.1,120.77z"/>
			<path class="st4" d="M488.47,164.83c-1.63,6.07-5.56,11.15-9.39,16.06c-7.49,9.59-15.47,19.56-26.53,24.16
				c-6.35,2.64-13.27,3.3-20.09,3.9c-49.56,4.38-99.23,7.26-148.94,8.65c-25.12,0.7-50.38,1.01-75.21-2.9
				c-24.05-3.79-47.33-11.47-70.49-19.13c-20.4-6.75-40.81-13.49-61.21-20.24c-8.44-2.79-17.24-5.81-23.36-12.41
				c-5.12-5.52-7.46-12.82-7.54-20.4c-1.22,9.46,0.84,19.07,7.2,25.92c6.12,6.6,14.93,9.62,23.36,12.41
				c20.4,6.75,40.81,13.5,61.21,20.24c23.16,7.66,46.43,15.35,70.49,19.13c24.82,3.91,50.09,3.6,75.21,2.9
				c49.71-1.39,99.38-4.27,148.94-8.65c6.81-0.6,13.74-1.26,20.09-3.9c11.06-4.59,19.04-14.57,26.53-24.16
				c3.83-4.9,7.76-9.99,9.39-16.06c0.67-2.47,0.9-5,0.78-7.51C488.8,163.5,488.65,164.17,488.47,164.83z"/>
			<path class="st5" d="M470.69,144.46c-0.51-2.29-1.27-4.77-0.26-6.88c0.39-0.82,1.02-1.49,1.54-2.23
				c-6.07-4.06-12.94-6.96-19.78-9.54c-27.25-10.29-55.66-16.93-83.97-23.55c-25.01-5.85-50.12-11.71-75.69-13.99
				c-19.63-1.75-39.38-1.38-59.09-1.01c-34.79,0.65-69.61,1.31-104.34,3.85c-20.28,1.49-45.72,6.98-63.51,20.26
				c-1.45,1.36-2.8,2.8-4.02,4.33c-6.71,8.38-9.26,21.38-2.94,30.02c5.14,7.03,14.3,9.24,22.72,10.68
				c26.18,4.47,53.07,6.27,77.98,15.66c16.91,6.37,33.13,16.26,51.14,16.93c18.06,0.67,35.14-8.08,52.95-11.37
				c40.24-7.42,79.86,13.28,120.44,17.93c7.26,0.83,14.72,1.13,21.78-0.82c7.32-2.03,13.83-6.36,20.97-8.99
				c10.75-3.96,23-4.1,32.44-10.74C468.38,168.45,473.2,155.76,470.69,144.46z"/>
		</g>
		<g>
			<path class="st3" d="M35.16,116.89c-9.93,14.11-10.88,36.12,1.79,47.68c6.65,6.07,15.67,8.35,24.31,10.43
				c20.89,5.03,41.79,10.06,62.68,15.09c23.71,5.71,47.55,11.44,71.83,13.21c25.06,1.83,50.21-0.57,75.19-3.36
				c49.42-5.51,98.69-12.51,147.71-20.99c6.74-1.17,13.59-2.4,19.69-5.55c10.64-5.5,17.77-16.1,24.44-26.28
				c3.41-5.21,6.9-10.6,8.02-16.78c1.92-10.56-3.67-21.42-11.72-28.24c-8.05-6.82-18.22-10.3-28.25-13.16
				c-28.01-7.99-56.87-12.25-85.63-16.49c-25.41-3.75-50.92-7.5-76.59-7.66c-19.71-0.12-39.36,1.89-58.97,3.9
				c-34.62,3.54-69.26,7.08-103.66,12.51C81.71,85.03,50.35,95.31,35.16,116.89z"/>
			<path class="st6" d="M470.7,124.8c-1.12,6.18-4.61,11.58-8.02,16.78c-6.67,10.18-13.79,20.78-24.44,26.28
				c-6.11,3.16-12.96,4.39-19.69,5.55c-49.02,8.48-98.29,15.48-147.71,20.99c-24.97,2.78-50.13,5.19-75.19,3.36
				c-24.28-1.78-48.12-7.5-71.83-13.21c-20.89-5.03-41.79-10.06-62.68-15.09c-8.64-2.08-17.66-4.36-24.31-10.43
				c-5.56-5.07-8.5-12.16-9.2-19.7c-0.43,9.53,2.42,18.93,9.33,25.23c6.65,6.07,15.67,8.35,24.31,10.43
				c20.89,5.03,41.79,10.06,62.68,15.09c23.71,5.71,47.55,11.44,71.83,13.21c25.06,1.83,50.21-0.57,75.19-3.36
				c49.42-5.51,98.69-12.51,147.71-20.99c6.74-1.17,13.59-2.4,19.69-5.55c10.64-5.5,17.77-16.1,24.44-26.28
				c3.41-5.21,6.9-10.6,8.02-16.78c0.46-2.52,0.48-5.06,0.16-7.55C470.91,123.45,470.82,124.13,470.7,124.8z"/>
			<path class="st5" d="M451.28,105.98c-0.7-2.24-1.66-4.65-0.83-6.84c0.32-0.85,0.89-1.57,1.35-2.35
				c-6.39-3.55-13.48-5.86-20.5-7.86c-28.01-7.99-56.87-12.25-85.63-16.49c-25.41-3.75-50.92-7.5-76.59-7.66
				c-19.71-0.12-39.36,1.89-58.97,3.9c-34.62,3.54-69.26,7.08-103.66,12.51c-20.09,3.17-44.99,10.75-61.6,25.47
				c-1.33,1.48-2.56,3.03-3.65,4.65c-6,8.9-7.45,22.07-0.44,30.16c5.7,6.58,15.01,8.02,23.53,8.75c26.46,2.28,53.41,1.84,79.01,9.12
				c17.38,4.94,34.37,13.45,52.37,12.62c18.06-0.84,34.34-10.97,51.82-15.73c39.49-10.74,80.69,6.6,121.52,7.87
				c7.3,0.23,14.76-0.09,21.64-2.63c7.12-2.63,13.26-7.49,20.15-10.7c10.39-4.84,22.58-6,31.44-13.4
				C450.97,130.08,454.73,117.03,451.28,105.98z"/>
		</g>
		<g>
			<path class="st3" d="M97.94,68.46c-7.6,14.06-8.23,36.06,1.62,47.68c5.17,6.1,12.15,8.42,18.83,10.55
				c16.16,5.13,32.33,10.27,48.49,15.4c18.35,5.83,36.78,11.67,55.55,13.57c19.37,1.96,38.78-0.32,58.06-2.98
				c38.15-5.26,76.16-12.02,113.99-20.26c5.2-1.13,10.48-2.33,15.18-5.45c8.19-5.44,13.64-16.01,18.74-26.15
				c2.61-5.19,5.28-10.57,6.11-16.74c1.43-10.54-2.94-21.43-9.19-28.29c-6.25-6.86-14.12-10.39-21.88-13.3
				c-21.68-8.13-43.99-12.53-66.23-16.92c-19.65-3.87-39.37-7.75-59.19-8.04c-15.22-0.22-30.39,1.7-45.53,3.61
				c-26.72,3.37-53.46,6.74-80.01,11.99C133.74,36.83,109.57,46.96,97.94,68.46z"/>
			<path class="st4" d="M434.39,78.54c-0.84,6.17-3.51,11.55-6.11,16.74c-5.1,10.14-10.55,20.71-18.74,26.15
				c-4.7,3.12-9.98,4.32-15.18,5.45c-37.82,8.24-75.84,14.99-113.99,20.26c-19.28,2.66-38.69,4.94-58.06,2.98
				c-18.77-1.9-37.2-7.74-55.55-13.57c-16.16-5.13-32.33-10.27-48.49-15.4c-6.68-2.12-13.66-4.45-18.83-10.55
				c-4.32-5.1-6.62-12.2-7.21-19.75c-0.29,9.53,1.96,18.94,7.33,25.28c5.17,6.1,12.15,8.42,18.83,10.55
				c16.16,5.13,32.33,10.27,48.49,15.4c18.35,5.83,36.78,11.67,55.55,13.57c19.37,1.96,38.78-0.32,58.06-2.98
				c38.15-5.26,76.16-12.02,113.99-20.26c5.2-1.13,10.48-2.33,15.18-5.45c8.19-5.44,13.64-16.01,18.74-26.15
				c2.61-5.19,5.28-10.57,6.11-16.74c0.34-2.52,0.35-5.05,0.08-7.55C434.55,77.19,434.48,77.86,434.39,78.54z"/>
			<path class="st5" d="M419.3,59.62c-0.55-2.24-1.31-4.66-0.68-6.84c0.25-0.85,0.68-1.57,1.03-2.34
				c-4.95-3.58-10.44-5.92-15.87-7.96c-21.68-8.13-43.99-12.53-66.23-16.92c-19.65-3.87-39.37-7.75-59.19-8.04
				c-15.22-0.22-30.39,1.7-45.53,3.61c-26.72,3.37-53.46,6.74-80.01,11.99c-15.5,3.07-34.7,10.52-47.46,25.16
				c-1.02,1.47-1.96,3.01-2.8,4.63c-4.59,8.87-5.64,22.03-0.19,30.16c4.44,6.61,11.64,8.09,18.22,8.87
				c20.45,2.42,41.26,2.11,61.08,9.52c13.45,5.03,26.61,13.62,40.51,12.88c13.94-0.75,26.47-10.8,39.95-15.47
				c30.45-10.54,62.35,7,93.9,8.47c5.64,0.26,11.4-0.02,16.7-2.52c5.49-2.59,10.2-7.42,15.51-10.6c8-4.79,17.41-5.88,24.22-13.24
				C419.18,83.71,422.02,70.69,419.3,59.62z"/>
		</g>
		<path class="st7" d="M16.66,175.47c1.76,5.52,5.29,10.31,9.24,14.54c10.42,11.15,24.24,19.09,39.13,22.48
			c2.94,0.67,6.68,0.85,8.28-1.71c1.17-1.88,0.48-4.45-1-6.09c-1.48-1.64-3.58-2.56-5.61-3.44c-9.39-4.08-18.83-8.38-26.75-14.85
			c-7.93-6.47-14.29-15.44-15.58-25.58c-0.68-5.3-4.08-5.09-6.84-1.41C14.52,163.41,15.26,171.09,16.66,175.47z"/>
		<path class="st7" d="M84.66,216.29c-1.83-0.37-3.05,2.28-2.17,3.93c0.88,1.65,2.81,2.39,4.58,3c2.77,0.95,5.54,1.89,8.31,2.84
			c1.31,0.45,2.67,0.9,4.06,0.84c1.39-0.07,2.84-0.78,3.37-2.06c0.93-2.25-1.3-4.52-3.42-5.72c-4.6-2.6-9.91-3.92-15.19-3.77
			L84.66,216.29z"/>
		<path class="st7" d="M495.76,166.84c-1.41,1.78-1.77,4.15-2.12,6.4c-1.05,6.74-2.68,13.82-7.45,18.71
			c-3.35,3.43-8.15,5.69-10.07,10.08c-0.44,1.01-0.55,2.48,0.45,2.95c0.4,0.19,0.86,0.14,1.3,0.07c4.53-0.72,8.37-3.66,11.71-6.81
			c6.37-6,11.66-13.14,15.57-20.97c1.09-2.19,2.1-4.56,1.84-6.99C506.46,165.42,498.9,162.87,495.76,166.84z"/>
		<g>
			<path class="st8" d="M141.92,53.67c2.49-0.63,4.97-1.25,7.46-1.88c0.61-0.15,1.03-0.87,0.84-1.47c-0.2-0.63-0.82-1-1.47-0.84
				c-2.49,0.63-4.97,1.25-7.46,1.88c-0.61,0.15-1.03,0.87-0.84,1.47C140.66,53.46,141.27,53.83,141.92,53.67L141.92,53.67z"/>
		</g>
		<g>
			<path class="st8" d="M202.81,109.34c0.98,0,1.96,0.03,2.93,0.1c0.47,0.04,0.94,0.08,1.4,0.14c0.12,0.01,0.23,0.03,0.35,0.04
				c0.29,0.03-0.11-0.02,0.15,0.02c0.27,0.04,0.54,0.08,0.81,0.12c0.61,0.1,1.32-0.16,1.47-0.84c0.13-0.58-0.17-1.36-0.84-1.47
				c-2.08-0.34-4.17-0.52-6.28-0.51c-0.63,0-1.22,0.55-1.2,1.2C201.64,108.79,202.14,109.35,202.81,109.34L202.81,109.34z"/>
		</g>
		<g>
			<path class="st8" d="M179.68,85.49c1.24,0,2.49,0,3.73,0c0.63,0,1.22-0.55,1.2-1.2c-0.03-0.65-0.53-1.2-1.2-1.2
				c-1.24,0-2.49,0-3.73,0c-0.63,0-1.22,0.55-1.2,1.2C178.51,84.94,179.01,85.49,179.68,85.49L179.68,85.49z"/>
		</g>
		<g>
			<path class="st8" d="M352.86,89.14c2.74,0.5,5.47,0.99,8.21,1.49c0.63,0.11,1.29-0.17,1.47-0.84c0.16-0.58-0.2-1.36-0.84-1.47
				c-2.74-0.5-5.47-0.99-8.21-1.49c-0.63-0.11-1.29,0.17-1.47,0.84C351.86,88.25,352.22,89.03,352.86,89.14L352.86,89.14z"/>
		</g>
		<g>
			<path class="st8" d="M391.98,66.72c0.52,0.02,1.04,0.05,1.57,0.1c0.26,0.02,0.52,0.05,0.78,0.08c0.06,0.01,0.12,0.01,0.18,0.02
				c-0.12-0.02-0.1-0.01,0.04,0.01c0.12,0.02,0.24,0.04,0.36,0.05c1.03,0.16,2.06,0.39,3.06,0.67c0.6,0.17,1.33-0.21,1.47-0.84
				c0.14-0.63-0.19-1.29-0.84-1.47c-2.15-0.61-4.39-0.95-6.62-1.02c-0.63-0.02-1.22,0.56-1.2,1.2
				C390.81,66.19,391.31,66.69,391.98,66.72L391.98,66.72z"/>
		</g>
		<g>
			<path class="st8" d="M282.59,35.42c0.87-0.23,1.75-0.46,2.62-0.7c0.29-0.08,0.56-0.29,0.71-0.55c0.15-0.26,0.21-0.63,0.12-0.92
				c-0.2-0.62-0.82-1.01-1.47-0.84c-0.87,0.23-1.75,0.46-2.62,0.7c-0.29,0.08-0.56,0.29-0.71,0.55c-0.15,0.26-0.21,0.63-0.12,0.92
				C281.32,35.21,281.94,35.59,282.59,35.42L282.59,35.42z"/>
		</g>
		<g>
			<path class="st8" d="M287.13,91.85c1.86-0.15,3.73-0.3,5.59-0.45c0.62-0.05,1.23-0.51,1.2-1.2c-0.03-0.6-0.53-1.25-1.2-1.2
				c-1.86,0.15-3.73,0.3-5.59,0.45c-0.62,0.05-1.23,0.51-1.2,1.2C285.97,91.26,286.47,91.91,287.13,91.85L287.13,91.85z"/>
		</g>
		<g>
			<path class="st8" d="M341.98,104.14c0.62,0,1.24,0,1.87,0c0.31,0,0.63-0.13,0.85-0.35c0.21-0.21,0.36-0.55,0.35-0.85
				c-0.01-0.31-0.12-0.63-0.35-0.85c-0.23-0.21-0.52-0.35-0.85-0.35c-0.62,0-1.24,0-1.87,0c-0.31,0-0.63,0.13-0.85,0.35
				c-0.21,0.21-0.36,0.55-0.35,0.85c0.01,0.31,0.12,0.63,0.35,0.85C341.37,104.01,341.65,104.14,341.98,104.14L341.98,104.14z"/>
		</g>
		<g>
			<path class="st8" d="M419.92,139.97c2.23-0.89,4.46-1.78,6.7-2.66c0.58-0.23,1.05-0.81,0.84-1.47c-0.18-0.56-0.85-1.08-1.47-0.84
				c-2.23,0.89-4.46,1.78-6.7,2.66c-0.58,0.23-1.05,0.81-0.84,1.47C418.63,139.7,419.3,140.22,419.92,139.97L419.92,139.97z"/>
		</g>
		<g>
			<path class="st8" d="M434.41,122.73c0.86-0.39,1.73-0.77,2.59-1.16c0.26-0.11,0.48-0.46,0.55-0.71c0.08-0.29,0.04-0.67-0.12-0.92
				c-0.16-0.26-0.41-0.48-0.71-0.55c-0.11-0.01-0.21-0.03-0.32-0.04c-0.22,0-0.42,0.06-0.6,0.16c-0.86,0.39-1.73,0.77-2.59,1.16
				c-0.26,0.11-0.48,0.46-0.55,0.71c-0.08,0.29-0.04,0.67,0.12,0.92c0.16,0.26,0.41,0.48,0.71,0.55c0.11,0.01,0.21,0.03,0.32,0.04
				C434.02,122.89,434.22,122.84,434.41,122.73L434.41,122.73z"/>
		</g>
		<g>
			<path class="st8" d="M249.34,58.89c0.75,0,1.51,0,2.26,0c0.31,0,0.63-0.13,0.85-0.35c0.21-0.21,0.36-0.55,0.35-0.85
				c-0.01-0.31-0.12-0.63-0.35-0.85c-0.23-0.21-0.52-0.35-0.85-0.35c-0.75,0-1.51,0-2.26,0c-0.31,0-0.63,0.13-0.85,0.35
				c-0.21,0.21-0.36,0.55-0.35,0.85c0.01,0.31,0.12,0.63,0.35,0.85C248.73,58.75,249.02,58.89,249.34,58.89L249.34,58.89z"/>
		</g>
		<g>
			<path class="st9" d="M144.14,111.51c2.08,0.28,4.16,0.55,6.24,0.83c0.62,0.08,1.22-0.61,1.2-1.2c-0.03-0.72-0.53-1.11-1.2-1.2
				c-2.08-0.28-4.16-0.55-6.24-0.83c-0.62-0.08-1.22,0.61-1.2,1.2C142.98,111.03,143.48,111.42,144.14,111.51L144.14,111.51z"/>
		</g>
		<g>
			<path class="st9" d="M144.72,119.46c2.6,0.49,5.25,0.66,7.89,0.45c0.62-0.05,1.23-0.51,1.2-1.2c-0.03-0.61-0.53-1.25-1.2-1.2
				c-2.45,0.2-4.92,0.08-7.25-0.36c-0.61-0.12-1.32,0.17-1.47,0.84C143.75,118.58,144.06,119.34,144.72,119.46L144.72,119.46z"/>
		</g>
		<g>
			<path class="st9" d="M166.53,127.94c4.89,1.08,9.78,2.16,14.67,3.24c1.5,0.33,2.14-1.97,0.64-2.31
				c-4.89-1.08-9.78-2.16-14.67-3.24C165.67,125.3,165.02,127.61,166.53,127.94L166.53,127.94z"/>
		</g>
		<g>
			<path class="st9" d="M168.32,118.1c2.86,0.75,5.83,1.08,8.78,0.94c0.65-0.03,1.2-0.53,1.2-1.2c0-0.62-0.55-1.23-1.2-1.2
				c-2.75,0.13-5.48-0.15-8.14-0.86c-0.62-0.16-1.3,0.21-1.47,0.84C167.31,117.25,167.69,117.93,168.32,118.1L168.32,118.1z"/>
		</g>
		<g>
			<path class="st9" d="M212.87,138.9c0.79-0.51,1.64-1.02,2.52-1.35c-0.29,0.11,0.1-0.04,0.16-0.06c0.09-0.04,0.18-0.07,0.27-0.1
				c0.24-0.09,0.48-0.17,0.72-0.25c0.45-0.15,0.91-0.28,1.38-0.39c0.61-0.14,1.03-0.87,0.84-1.47c-0.21-0.63-0.82-0.99-1.47-0.84
				c-1.99,0.47-3.9,1.29-5.62,2.4c-0.52,0.34-0.79,1.08-0.43,1.64C211.57,139,212.31,139.26,212.87,138.9L212.87,138.9z"/>
		</g>
		<g>
			<path class="st9" d="M241.54,125.25c1.64-0.58,3.27-1.17,4.91-1.75c0.59-0.21,1.04-0.82,0.84-1.47
				c-0.19-0.58-0.84-1.06-1.47-0.84c-1.64,0.58-3.27,1.17-4.91,1.75c-0.59,0.21-1.04,0.82-0.84,1.47
				C240.25,125,240.91,125.48,241.54,125.25L241.54,125.25z"/>
		</g>
		<g>
			<path class="st9" d="M239.59,136.64c3.16,0.71,6.39,1.11,9.63,1.16c1.54,0.03,1.54-2.36,0-2.39c-3.03-0.05-6.04-0.41-8.99-1.08
				c-0.63-0.14-1.29,0.19-1.47,0.84C238.59,135.77,238.96,136.5,239.59,136.64L239.59,136.64z"/>
		</g>
		<path class="st10" d="M143.04,84.65c0.73,6.51-3,12.78-7.74,17.29c-4.74,4.51-10.53,7.76-15.62,11.88
			c-13.81,11.18-21.94,29.04-21.31,46.8c0.21,5.99,1.47,12.17,5.08,16.95c3.61,4.78,10.01,7.8,15.76,6.11
			c10.08-2.96,11.71-16.42,18.16-24.72c8.22-10.58,25.24-13.38,29.84-25.97c1.22-3.34,1.37-7.05,2.98-10.22
			c3.49-6.88,12.23-8.83,19.88-9.84c10.42-1.37,20.87-2.43,31.36-3.16c13.53-0.94,27.46-1.3,40.29,3.09
			c12.83,4.39,24.5,14.47,27.21,27.76c2.28,11.17-1.11,25.01,7.57,32.41c3.9,3.33,9.33,4.26,13.56,7.17
			c9.86,6.8,9.83,21.15,15.16,31.87c1.31,2.64,3.31,5.32,6.22,5.8c4.42,0.73,7.79-3.85,9.46-8c6.27-15.59,4.7-34.11-4.11-48.43
			c-1.85-3.01-4.09-6.18-3.74-9.7c0.48-4.84,5.44-7.68,9.21-10.75c8.36-6.82,12.5-18.44,10.34-29.01
			c11.94-2.72,23.63-6.56,34.85-11.46c3.91-1.71,8.01-3.77,10.03-7.53c2.77-5.17,0.52-11.74-3.21-16.26s-8.78-7.78-12.78-12.07
			c-1.46-1.57-2.83-3.4-3.03-5.53c-0.5-5.24,5.78-8.29,10.96-9.23c5.18-0.94,11.53-2.2,13.11-7.23c1.78-5.65-4.12-10.61-9.41-13.3
			c-22.89-11.65-48.67-16.08-74.08-19.84c-37.28-5.51-76.13-9.75-112.02,1.76c-13.46,4.31-26.06,11-39.56,15.16
			c-8.16,2.51-17.37,2.28-25.03,6.12C132.6,37.53,124.84,48,128.24,59.2C131.14,68.77,141.89,74.26,143.04,84.65z"/>
		<g>
			<path class="st11" d="M249.6,107.82c-12.83-4.39-26.76-4.04-40.29-3.09c-10.48,0.73-20.94,1.78-31.36,3.16
				c-7.64,1.01-16.39,2.96-19.88,9.84c-1.61,3.17-1.76,6.88-2.98,10.22c-4.6,12.58-21.62,15.38-29.84,25.97
				c-6.45,8.3-8.07,21.76-18.16,24.72c-0.67,0.2-1.35,0.32-2.03,0.4c3.72,4.06,9.49,6.44,14.73,4.9
				c10.08-2.96,11.71-16.42,18.16-24.72c8.22-10.58,25.24-13.38,29.84-25.97c1.22-3.34,1.37-7.05,2.98-10.22
				c3.49-6.88,12.23-8.83,19.88-9.84c10.42-1.37,20.87-2.43,31.36-3.16c12.26-0.86,24.85-1.22,36.65,1.99
				C255.78,110.3,252.73,108.89,249.6,107.82z"/>
			<path class="st11" d="M393.7,29.65c-5.15-2.62-10.45-4.88-15.86-6.84c1.06,0.5,2.12,1.02,3.16,1.55
				c5.28,2.69,11.19,7.64,9.41,13.3c-1.58,5.02-7.93,6.29-13.11,7.23c-5.18,0.94-11.46,3.98-10.96,9.23
				c0.2,2.13,1.57,3.96,3.03,5.53c4,4.29,9.04,7.55,12.78,12.07c3.74,4.52,5.98,11.09,3.21,16.26c-2.02,3.76-6.12,5.82-10.03,7.53
				c-11.22,4.9-22.91,8.74-34.85,11.46c2.16,10.57-1.98,22.19-10.34,29.01c-3.77,3.08-8.72,5.91-9.21,10.75
				c-0.35,3.52,1.89,6.69,3.74,9.7c8.81,14.31,10.38,32.84,4.11,48.43c-0.84,2.09-2.12,4.29-3.74,5.87
				c0.24,0.55,0.49,1.09,0.75,1.62c1.31,2.64,3.31,5.32,6.22,5.8c4.42,0.73,7.79-3.85,9.46-8c6.27-15.59,4.7-34.11-4.11-48.43
				c-1.85-3.01-4.09-6.18-3.74-9.7c0.48-4.84,5.44-7.68,9.21-10.76c8.36-6.82,12.5-18.44,10.34-29.01
				c11.94-2.72,23.63-6.56,34.85-11.46c3.91-1.71,8.01-3.77,10.03-7.53c2.77-5.17,0.52-11.74-3.21-16.26
				c-3.74-4.52-8.78-7.78-12.78-12.07c-1.46-1.57-2.83-3.4-3.03-5.53c-0.5-5.24,5.78-8.29,10.96-9.23
				c5.18-0.94,11.53-2.2,13.11-7.23C404.88,37.29,398.98,32.34,393.7,29.65z"/>
		</g>
		<path class="st12" d="M153.49,34.87c-2.61,1.08-5.52,2.53-6.27,5.26c-1.55,5.68,7.18,8.95,8.54,14.69
			c0.89,3.78-1.65,7.99,0.03,11.49c1.47,3.07,5.4,3.93,8.8,4.06c9.18,0.33,18.21-2.04,27.15-4.13c24.3-5.67,49.06-9.38,73.96-11.09
			c13.91-0.95,27.97-1.29,41.53-4.54c3.16-0.76,6.39-1.73,8.88-3.82c2.49-2.09,4.07-5.58,3.03-8.67c-0.46-1.37-1.41-2.78-0.92-4.15
			c0.59-1.64,2.75-1.93,4.19-2.9c2.33-1.57,2.64-5.09,1.31-7.57c-1.32-2.48-3.84-4.08-6.37-5.28c-7.58-3.62-16.11-4.67-24.48-5.35
			C244.36,8.93,198.29,16.28,153.49,34.87z"/>
		<path class="st12" d="M287.9,114.03c3.85,3.24,6.38,8,6.9,13.01c0.32,3.04,0.09,6.55,2.33,8.64c1.2,1.12,2.9,1.56,4.54,1.67
			c9.36,0.64,16.85-7.66,21.24-15.94c4.39-8.29,7.67-17.77,15.24-23.31c2.57-1.88,5.61-3.28,7.48-5.86s1.8-6.96-1.11-8.25
			c-2.05-0.91-4.39,0.13-6.42,1.09c-14.69,6.94-30.57,10.02-46.76,10c-4.32-0.01-10.52-1.2-13.13,3.2
			C273.89,105.53,283.65,110.46,287.9,114.03z"/>
		<path class="st13" d="M166.13,39.83c-2.41,1.46-5.04,3.5-5.02,6.32c0.03,4.16,5.56,5.82,9.66,5.09
			c7.64-1.36,13.97-6.5,20.83-10.14c20.97-11.13,46.9-8.21,68.69-17.62c0.91-0.39,1.86-0.84,2.42-1.66c1.57-2.3-1.06-5.32-3.74-6.09
			c-3.08-0.89-6.37-0.45-9.55,0.01C220.83,19.88,191.25,24.55,166.13,39.83z"/>
		<g>
			<path class="st11" d="M350.44,68.78c2.57,0.24,5.21,0.47,7.67-0.3c2.46-0.77,4.71-2.8,4.92-5.37c0.15-1.9-0.85-3.76-2.26-5.04
				c-1.42-1.28-3.22-2.05-5.02-2.66c-7.15-2.41-23.48-4.86-27.12,4.42C324.79,69.59,345.32,68.3,350.44,68.78z"/>
			<circle class="st14" cx="336.08" cy="48.37" r="17.56"/>
			<path class="st14" d="M345.09,31.26c0.11,0.18,0.24,0.38,0.44,0.45c0.19,0.07,0.41,0.01,0.6-0.06c1.1-0.35,2.2-0.7,3.29-1.05
				c-0.17,0.82-0.33,1.65-0.5,2.47c1.39,0.01,2.78,0.02,4.17,0.03c-0.51,0.85-1.03,1.71-1.54,2.56c0.91,0.01,1.83,0.02,2.74,0.03
				c0.41,0,0.98,0.18,0.9,0.59c-0.03,0.14-0.13,0.24-0.23,0.34c-1.14,1.15-2.28,2.3-3.51,3.34c-0.56,0.47-1.18,0.94-1.9,1.01
				c-0.66,0.07-1.3-0.2-1.89-0.5c-1.95-0.96-5.2-2.68-6.07-4.82c-0.85-2.09,1.14-4.48,2.59-5.79
				C344.54,30.32,344.8,30.79,345.09,31.26z"/>
			<path class="st13" d="M330.4,35.65c-2.02,1.04-3.64,2.95-4.01,5.18c-0.09,0.52-0.1,1.06,0.05,1.57c0.19,0.62,0.61,1.14,1.1,1.57
				c0.39,0.34,0.87,0.64,1.39,0.59c0.82-0.09,1.25-0.98,1.67-1.69c1.43-2.45,4.48-3.83,7.27-3.3c0.74,0.14,1.7,0.3,2.05-0.36
				c0.1-0.19,0.12-0.41,0.12-0.63C340.02,33.65,333.36,34.14,330.4,35.65z"/>
		</g>
		<g>
			<path class="st11" d="M303.25,36.88c2.1,0.2,4.27,0.38,6.28-0.25c2.01-0.63,3.86-2.29,4.02-4.4c0.12-1.56-0.69-3.08-1.85-4.12
				c-1.16-1.04-2.63-1.68-4.11-2.18c-5.86-1.98-19.23-3.98-22.2,3.61C282.26,37.54,299.06,36.49,303.25,36.88z"/>
			
				<ellipse transform="matrix(0.2298 -0.9732 0.9732 0.2298 204.8895 299.2361)" class="st14" cx="291.5" cy="20.17" rx="14.37" ry="14.37"/>
			<path class="st14" d="M298.87,6.17c0.09,0.15,0.2,0.31,0.36,0.37c0.16,0.06,0.33,0.01,0.49-0.05c0.9-0.29,1.8-0.57,2.7-0.86
				c-0.14,0.67-0.27,1.35-0.41,2.02c1.14,0.01,2.27,0.02,3.41,0.03c-0.42,0.7-0.84,1.4-1.26,2.1c0.75,0.01,1.5,0.02,2.24,0.03
				c0.34,0,0.8,0.15,0.74,0.48c-0.02,0.11-0.11,0.2-0.19,0.28c-0.93,0.94-1.87,1.88-2.87,2.74c-0.46,0.39-0.96,0.77-1.56,0.83
				c-0.54,0.05-1.06-0.17-1.55-0.41c-1.6-0.79-4.26-2.19-4.97-3.95c-0.7-1.71,0.93-3.67,2.12-4.74
				C298.42,5.39,298.63,5.78,298.87,6.17z"/>
			<path class="st13" d="M286.85,9.76c-1.65,0.85-2.98,2.41-3.28,4.24c-0.07,0.43-0.09,0.87,0.04,1.28c0.15,0.51,0.5,0.93,0.9,1.28
				c0.32,0.28,0.71,0.53,1.14,0.48c0.67-0.07,1.02-0.8,1.37-1.38c1.17-2,3.67-3.14,5.95-2.71c0.6,0.11,1.39,0.25,1.68-0.29
				c0.08-0.16,0.1-0.34,0.1-0.52C294.72,8.12,289.27,8.52,286.85,9.76z"/>
		</g>
		<g>
			<path class="st11" d="M279.84,96.61c2.1,0.2,4.27,0.38,6.28-0.25c2.01-0.63,3.86-2.29,4.02-4.4c0.12-1.56-0.69-3.08-1.85-4.12
				c-1.16-1.04-2.63-1.68-4.11-2.18c-5.86-1.98-19.23-3.98-22.2,3.61C258.85,97.27,275.65,96.22,279.84,96.61z"/>
			
				<ellipse transform="matrix(0.7071 -0.7071 0.7071 0.7071 22.0192 212.9683)" class="st14" cx="268.09" cy="79.9" rx="14.37" ry="14.37"/>
			<path class="st14" d="M275.46,65.9c0.09,0.15,0.2,0.31,0.36,0.37c0.16,0.06,0.33,0.01,0.49-0.05c0.9-0.29,1.8-0.57,2.7-0.86
				c-0.14,0.67-0.27,1.35-0.41,2.02c1.14,0.01,2.27,0.02,3.41,0.03c-0.42,0.7-0.84,1.4-1.26,2.1c0.75,0.01,1.5,0.02,2.24,0.03
				c0.34,0,0.8,0.15,0.74,0.48c-0.02,0.11-0.11,0.2-0.19,0.28c-0.93,0.94-1.87,1.88-2.87,2.74c-0.46,0.39-0.96,0.77-1.56,0.83
				c-0.54,0.05-1.06-0.17-1.54-0.41c-1.6-0.79-4.26-2.19-4.97-3.95c-0.7-1.71,0.93-3.67,2.12-4.74
				C275.01,65.12,275.22,65.51,275.46,65.9z"/>
			<path class="st13" d="M263.44,69.49c-1.65,0.85-2.98,2.41-3.28,4.24c-0.07,0.43-0.09,0.87,0.04,1.28c0.15,0.51,0.5,0.93,0.9,1.28
				c0.32,0.28,0.71,0.53,1.14,0.48c0.67-0.07,1.02-0.8,1.37-1.38c1.17-2,3.67-3.14,5.95-2.71c0.6,0.11,1.39,0.25,1.68-0.29
				c0.08-0.16,0.1-0.34,0.1-0.52C271.31,67.85,265.86,68.25,263.44,69.49z"/>
		</g>
		<g>
			<path class="st11" d="M154.24,60.17c2.1,0.2,4.27,0.38,6.28-0.25c2.01-0.63,3.86-2.29,4.02-4.4c0.12-1.56-0.69-3.08-1.85-4.12
				c-1.16-1.04-2.63-1.68-4.11-2.18c-5.86-1.98-19.23-3.98-22.2,3.61C133.24,60.84,150.05,59.78,154.24,60.17z"/>
			
				<ellipse transform="matrix(0.7071 -0.7071 0.7071 0.7071 10.9958 113.4805)" class="st14" cx="142.48" cy="43.47" rx="14.37" ry="14.37"/>
			<path class="st14" d="M149.85,29.46c0.09,0.15,0.2,0.31,0.36,0.37c0.16,0.06,0.33,0.01,0.49-0.05c0.9-0.29,1.8-0.57,2.7-0.86
				c-0.14,0.67-0.27,1.35-0.41,2.02c1.14,0.01,2.27,0.02,3.41,0.03c-0.42,0.7-0.84,1.4-1.26,2.1c0.75,0.01,1.5,0.02,2.24,0.03
				c0.34,0,0.8,0.15,0.74,0.48c-0.02,0.11-0.11,0.2-0.19,0.28c-0.93,0.94-1.87,1.88-2.87,2.74c-0.46,0.39-0.96,0.77-1.56,0.83
				c-0.54,0.05-1.06-0.17-1.54-0.41c-1.6-0.79-4.26-2.19-4.97-3.95c-0.7-1.71,0.93-3.67,2.12-4.74
				C149.41,28.69,149.62,29.07,149.85,29.46z"/>
			<path class="st13" d="M137.83,33.06c-1.65,0.85-2.98,2.41-3.28,4.24c-0.07,0.43-0.09,0.87,0.04,1.28c0.15,0.51,0.5,0.93,0.9,1.28
				c0.32,0.28,0.71,0.53,1.14,0.48c0.67-0.07,1.02-0.8,1.37-1.38c1.17-2,3.67-3.14,5.95-2.71c0.6,0.11,1.39,0.25,1.68-0.29
				c0.08-0.16,0.1-0.34,0.1-0.52C145.71,31.41,140.25,31.81,137.83,33.06z"/>
		</g>
		<g>
			<path class="st11" d="M225.45,81.12c2.1,0.2,4.27,0.38,6.28-0.25c2.01-0.63,3.86-2.29,4.02-4.4c0.12-1.56-0.69-3.08-1.85-4.12
				c-1.16-1.04-2.63-1.68-4.11-2.18c-5.86-1.98-19.23-3.98-22.2,3.61C204.46,81.78,221.26,80.73,225.45,81.12z"/>
			
				<ellipse transform="matrix(0.7071 -0.7071 0.7071 0.7071 17.0433 169.9715)" class="st14" cx="213.7" cy="64.41" rx="14.37" ry="14.37"/>
			<path class="st14" d="M221.07,50.41c0.09,0.15,0.2,0.31,0.36,0.37c0.16,0.06,0.33,0.01,0.49-0.05c0.9-0.29,1.8-0.57,2.7-0.86
				c-0.14,0.67-0.27,1.35-0.41,2.02c1.14,0.01,2.27,0.02,3.41,0.03c-0.42,0.7-0.84,1.4-1.26,2.1c0.75,0.01,1.5,0.02,2.24,0.03
				c0.34,0,0.8,0.15,0.74,0.48c-0.02,0.11-0.11,0.2-0.19,0.28c-0.93,0.94-1.87,1.88-2.87,2.74c-0.46,0.39-0.96,0.77-1.56,0.83
				c-0.54,0.05-1.06-0.17-1.54-0.41c-1.6-0.79-4.26-2.19-4.97-3.95c-0.7-1.71,0.93-3.67,2.12-4.74
				C220.62,49.63,220.83,50.02,221.07,50.41z"/>
			<path class="st13" d="M209.05,54c-1.65,0.85-2.98,2.41-3.28,4.24c-0.07,0.43-0.09,0.87,0.04,1.28c0.15,0.51,0.5,0.93,0.9,1.28
				c0.32,0.28,0.71,0.53,1.14,0.48c0.67-0.07,1.02-0.8,1.37-1.38c1.17-2,3.67-3.14,5.95-2.71c0.6,0.11,1.39,0.25,1.68-0.29
				c0.08-0.16,0.1-0.34,0.1-0.52C216.92,52.36,211.47,52.76,209.05,54z"/>
		</g>
		<g>
			<path class="st11" d="M245.63,72.32c2.1,0.2,4.27,0.38,6.28-0.25c2.01-0.63,3.86-2.29,4.02-4.4c0.12-1.56-0.69-3.08-1.85-4.12
				c-1.16-1.04-2.63-1.68-4.11-2.18c-5.86-1.98-19.23-3.98-22.2,3.61C224.64,72.98,241.44,71.93,245.63,72.32z"/>
			
				<ellipse transform="matrix(0.7071 -0.7071 0.7071 0.7071 29.1745 181.6654)" class="st14" cx="233.88" cy="55.62" rx="14.37" ry="14.37"/>
			<path class="st14" d="M241.25,41.61c0.09,0.15,0.2,0.31,0.36,0.37c0.16,0.06,0.33,0.01,0.49-0.05c0.9-0.29,1.8-0.57,2.7-0.86
				c-0.14,0.67-0.27,1.35-0.41,2.02c1.14,0.01,2.27,0.02,3.41,0.03c-0.42,0.7-0.84,1.4-1.26,2.1c0.75,0.01,1.5,0.02,2.24,0.03
				c0.34,0,0.8,0.15,0.74,0.48c-0.02,0.11-0.11,0.2-0.19,0.28c-0.93,0.94-1.87,1.88-2.87,2.74c-0.46,0.39-0.96,0.77-1.56,0.83
				c-0.54,0.05-1.06-0.17-1.54-0.41c-1.6-0.79-4.26-2.19-4.97-3.95c-0.7-1.71,0.93-3.67,2.12-4.74
				C240.8,40.83,241.01,41.22,241.25,41.61z"/>
			<path class="st13" d="M229.23,45.2c-1.65,0.85-2.98,2.41-3.28,4.24c-0.07,0.43-0.09,0.87,0.04,1.28c0.15,0.51,0.5,0.93,0.9,1.28
				c0.32,0.28,0.71,0.53,1.14,0.48c0.67-0.07,1.02-0.8,1.37-1.38c1.17-2,3.67-3.14,5.95-2.71c0.6,0.11,1.39,0.25,1.68-0.29
				c0.08-0.16,0.1-0.34,0.1-0.52C237.1,43.56,231.65,43.96,229.23,45.2z"/>
		</g>
	</g>
</g>
</svg>
