<?xml version="1.0" encoding="utf-8"?>
<!-- Generator: Adobe Illustrator 25.4.1, SVG Export Plug-In . SVG Version: 6.00 Build 0)  -->
<svg version="1.1" id="Layer_1" xmlns="http://www.w3.org/2000/svg" xmlns:xlink="http://www.w3.org/1999/xlink" x="0px" y="0px"
	 viewBox="0 0 275.25 291.73" style="enable-background:new 0 0 275.25 291.73;" xml:space="preserve">
<style type="text/css">
	.st0{fill:#E52825;}
	.st1{fill:#EF4541;}
	.st2{fill:#F1A9A0;}
	.st3{fill:#49A947;}
	.st4{fill:#40A047;}
</style>
<g>
	<path class="st0" d="M170.05,44.55l99.59,137.03c9.52,13.09,6.62,31.42-6.48,40.95c-12.57,9.13-30.04,6.75-39.83-5.06L115.48,86.86
		c-12.15-14.72-10.07-36.48,4.64-48.63c14.71-12.15,36.48-10.07,48.63,4.64C169.18,43.39,169.66,44.01,170.05,44.55z"/>
	<path class="st0" d="M72.4,128.57l127.12,111.99c12.14,10.69,13.31,29.21,2.61,41.36c-10.28,11.66-27.84,13.14-39.97,3.76
		L28.38,181.76c-15.06-11.69-17.79-33.4-6.08-48.47c11.7-15.06,33.4-17.78,48.47-6.07C71.3,127.63,71.9,128.13,72.4,128.57z"/>
	<path class="st1" d="M130.85,80.71l113.93,137.13c8.7,10.47,5.9,27.57-5.99,38.53c-11.44,10.54-27.73,12.05-37.41,3.51
		L67.96,141.62c-18.96-16.81-20.81-45.89-3.16-64.16c17.68-18.28,46.83-17.37,64.22,1.17C129.63,79.28,130.29,80.03,130.85,80.71z"
		/>
	<path class="st2" d="M48.69,157.28c0.49,0.53,0.96,1.05,1.43,1.56c10.23,11.4,19.98,23.61,30.83,34.4c8.01,7.98,15.31,9.41,25,14.1
		c6.25,3.02,14.58,9.07,9.75,17.74c-5.76,10.35-15.71,0.34-21.94-4.08c-6.55-4.67-15.05-11.09-23.5-17.37
		c-12.64-9.41-36.35-20.32-41.94-36.14c-2.38-6.75,1.24-16.01,8.38-16.59C41.4,150.51,45.36,153.79,48.69,157.28z"/>
	<path class="st3" d="M17.24,38.61c7.28,11.03,17.32,20.48,21.83,32.88c4.54,12.51,2.61,27.16-5.02,38.04
		C26.42,120.43,13.3,127.24,0,127.24c16.73,7.86,33.25,0.37,46.23-9.69c6.02,11.15,12.05,22.3,18.07,33.43
		c-2.59-4.79,1.61-20.92,1.86-26.91c0.46-11.43,1.38-22.88,2.12-34.31C47.32,63.34,20.3,38.21,14.1,6.71
		C5.56,12.52,10.26,28.04,17.24,38.61z"/>
	<path class="st4" d="M124.77,24.73C104.72,31.94,96.51,58.2,74.4,58.81C45.73,59.59,26.97,30.03,25.94,4.49
		c-5.4-0.44-9.23,0.44-11.84,2.23c6.19,31.5,33.21,56.62,54.17,83.05c0.04-0.66,0.09-1.31,0.13-1.98
		c11.12-1.67,23.62-2.01,34.4-5.15c5.68-1.64,18.23-11.21,24.04-8.86c-7.41-2.68-14.83-5.35-22.24-8.04
		C111.34,52.2,119.09,38.7,124.77,24.73z"/>
</g>
</svg>
