<?xml version="1.0" encoding="utf-8"?>
<!-- Generator: Adobe Illustrator 25.4.1, SVG Export Plug-In . SVG Version: 6.00 Build 0)  -->
<svg version="1.1" id="Layer_1" xmlns="http://www.w3.org/2000/svg" xmlns:xlink="http://www.w3.org/1999/xlink" x="0px" y="0px"
	 viewBox="0 0 172.6 222.79" style="enable-background:new 0 0 172.6 222.79;" xml:space="preserve">
<style type="text/css">
	.st0{fill:#F3B01C;}
	.st1{fill:#FED401;}
	.st2{fill:#FDF165;}
	.st3{fill:#A3CF5D;}
</style>
<g>
	<path class="st0" d="M105.26,115.72c0,42.4-12.97,96.22-51.89,96.22c-30.33,0-51.89-53.82-51.89-96.22
		c0-42.39,23.23-55.13,51.89-55.13C82.03,60.58,105.26,73.32,105.26,115.72z"/>
	<path class="st0" d="M69.06,115.72c0,42.4,12.97,96.22,51.89,96.22c31.63,0,51.89-53.82,51.89-96.22
		c0-42.39-23.23-55.13-51.89-55.13C92.29,60.58,69.06,73.32,69.06,115.72z"/>
	<path class="st1" d="M139.05,119.67c0,45.43-12.97,103.12-51.89,103.12c-43.24,0-51.89-57.69-51.89-103.12
		c0-45.43,23.23-59.09,51.89-59.09S139.05,74.24,139.05,119.67z"/>
	<path class="st2" d="M79.52,105.83c-8.27,16.48,0.79,39.73-8.3,39.73c-17.55,0-21.06-23.42-21.06-41.86s9.43-23.99,21.06-23.99
		C82.85,79.72,86.66,91.61,79.52,105.83z"/>
	<path class="st3" d="M91.71,44.4c0.45-12.63,5.31-22.47,18.08-26.6L102.59,0C85.74,8.94,76.79,22.43,79.62,44.97
		c-15.03,3.56-26.25,8.49-26.25,17.01c0,9.89,15.13,3.43,33.79,3.43c18.66,0,33.79,6.46,33.79-3.43
		C120.95,52.91,108.22,46.76,91.71,44.4z"/>
</g>
</svg>
