<?xml version="1.0" encoding="utf-8"?>
<!-- Generator: Adobe Illustrator 25.4.1, SVG Export Plug-In . SVG Version: 6.00 Build 0)  -->
<svg version="1.1" id="Layer_1" xmlns="http://www.w3.org/2000/svg" xmlns:xlink="http://www.w3.org/1999/xlink" x="0px" y="0px"
	 viewBox="0 0 822.5 451.63" style="enable-background:new 0 0 822.5 451.63;" xml:space="preserve">
<style type="text/css">
	.st0{fill:#DBDADA;}
	.st1{fill:#F4F4F4;}
	.st2{fill:#EBEAEA;}
	.st3{fill:#FFE989;}
	.st4{fill:#FCDC93;}
	.st5{fill:#FEECAD;}
	.st6{fill:#FDF7B8;}
	.st7{fill:#F29C9A;}
	.st8{fill:#EE7E8A;}
	.st9{fill:#F4ACA2;}
	.st10{fill:#69B445;}
	.st11{fill:#3F9F47;}
	.st12{fill:#89BE40;}
	.st13{fill:#888F37;}
	.st14{fill:#FFFCDE;}
</style>
<g>
	<g>
		<g>
			<path class="st0" d="M822.5,285.95c0,89.17-182.37,161.46-407.33,161.46c-224.97,0-407.34-72.3-407.34-161.46
				c0-89.18,182.37-161.47,407.34-161.47C640.12,124.48,822.5,196.77,822.5,285.95z"/>
			<path class="st1" d="M822.5,277.83c0,89.18-182.37,161.47-407.33,161.47c-224.97,0-407.34-72.29-407.34-161.47
				s182.37-161.46,407.34-161.46C640.12,116.37,822.5,188.65,822.5,277.83z"/>
			<path class="st2" d="M692.97,261.19c0,60.82-124.38,110.12-277.81,110.12c-153.43,0-277.81-49.31-277.81-110.12
				c0-60.82,124.38-110.12,277.81-110.12C568.59,151.07,692.97,200.37,692.97,261.19z"/>
			<path class="st1" d="M683.31,263.21c0,57.71-120.05,104.49-268.15,104.49c-148.1,0-268.15-46.78-268.15-104.49
				s120.06-104.48,268.15-104.48C563.26,158.73,683.31,205.51,683.31,263.21z"/>
		</g>
	</g>
	<g>
		<path class="st2" d="M635.78,261.47c-9.16,4.69-18.63,8.8-28.32,11.79c-21.3,6.58-43.65,8.84-65.85,9.5
			c-22.6,0.68-45.25,0.13-67.86,0c-24.61-0.14-49.25-0.76-73.77-3.05c-41.89-3.91-82.77-13.44-122.11-28.33
			c-24.06-9.1-50.57-21.18-68.18-40.96c-2.02,0.79-4.42,3.01-5.1,9.07c-1.22,11.02,2.86,19.18,2.86,19.18s-2.13-2.12-4.05-1.45
			l0.11-0.92l-16.86-15.55l-14.32,10.56l-0.14,12.86l11.25,14.75l17.7-12.93c1.24,5,5.1,10.36,7.86,13.61
			c-6.3,0.59-17.84,2.19-31.74,6.6c-12.14,3.85-18.07,7.84-20.57,11.08c0,0,0,0,0,0c-0.15,0.2-0.29,0.39-0.41,0.58
			c-0.01,0.01-0.02,0.03-0.02,0.04c-0.12,0.18-0.23,0.36-0.33,0.54c-0.01,0.01-0.01,0.02-0.02,0.03c-0.1,0.18-0.19,0.37-0.27,0.54
			c0,0,0,0,0,0c-0.25,0.55-0.4,1.06-0.46,1.54c0,0,0,0,0,0c-0.02,0.15-0.03,0.29-0.03,0.43c0,0.03,0,0.06,0,0.09
			c0,0.11,0,0.22,0.01,0.33c0,0.04,0,0.08,0.01,0.11c0.01,0.1,0.02,0.19,0.04,0.28c0.01,0.04,0.02,0.08,0.02,0.12
			c0.02,0.09,0.04,0.17,0.07,0.25c0.01,0.04,0.02,0.08,0.04,0.11c0.03,0.08,0.06,0.16,0.1,0.24c0.01,0.03,0.03,0.06,0.04,0.1
			c0.05,0.11,0.11,0.21,0.17,0.31c0,0,0.81,2.86,3.06,2.45c2.19-0.4,38.95-16.83,60.1-16.39c-6.61,4.97-15.02,14.3-15.02,29.65
			c0,25.29,21.62,41.61,55.48,40.39c33.86-1.23,68.54-27.74,99.13-19.99c30.6,7.75,48.95,35.08,117.08,38.76
			c63.87,3.44,115.19-20.01,125.72-36.06c10.47-3.39,19.83-7.41,25.63-12.08c20.8-16.72,3.26-38.75,3.26-38.75
			S632.96,267.02,635.78,261.47z M239.39,283.27c0.16-1.2,0.39-2.36,0.67-3.47c15.21,8.25,35.11,17.69,56.5,24.51
			c-2.79,0.75-5.62,1.38-8.49,1.81C260.4,310.28,236.98,301.99,239.39,283.27z M262.51,329.77c-29.37,4.08-44.6-6.53-46.5-28.01
			c-1.02-11.45,5.7-21.65,12.18-28.7c1.33,0.79,2.74,1.61,4.2,2.45c-0.74,1.2-1.39,2.5-1.91,3.91l-3.12,0.85l0.59,3.33l1.54-0.51
			c-0.37,2.06-0.46,4.29-0.16,6.7c1.99,15.63,20.05,25.83,48.19,23.77l0.03,1.98l3.05,1l0.12-3.26c1.7-0.17,3.42-0.38,5.18-0.65
			c4.01-0.6,7.97-1.41,11.84-2.37c-0.18,1.23,0.97,1.56,1.99,1.44c2.4-0.27,4.23-1.68,5.62-3.53c0.72-0.22,1.43-0.44,2.14-0.67
			c6.9,1.84,13.9,3.36,20.89,4.43C305.39,316.59,282.34,327.02,262.51,329.77z M428.96,337.66c-13.13-4.72-21.4-8.57-27.69-11.83
			c22.26,3.75,46.14,6.68,63.18,5.84c0,0,4.08,7.35,15.5,6.12c0,0,0,6.53,24.07,4.9c15.16-1.03,25.3-3.84,30.73-5.77l0.01,0.47
			l3.05,1l0.1-2.7c1.06-0.46,1.61-0.75,1.61-0.75s15.96-2.06,34.68-6.12C540.84,354.7,464.2,350.35,428.96,337.66z"/>
		<path class="st2" d="M241.63,227.97c0.05,0.05,0.07,0.08,0.07,0.08s-0.04-0.02-0.1-0.05C241.61,228,241.63,227.98,241.63,227.97z"
			/>
		<polygon class="st2" points="391.42,344.73 384.49,356.97 385.71,367.58 411.01,369.62 411.82,359.01 408.15,344.33 		"/>
		<polygon class="st2" points="174.19,290.27 160.12,308.22 160.52,321.68 180.51,327.39 195.81,308.02 194.59,295.57 		"/>
		<polygon class="st2" points="644.72,272.1 644.58,284.96 653.62,296.8 651.71,296.56 651.78,301.95 654.83,302.95 654.99,298.61 
			655.84,299.71 674.9,285.79 675.9,277.08 659.05,261.54 		"/>
		<path class="st2" d="M669.94,239.05l-2.73-1.74l-4.62,4.9l1.51,0.86C666.04,241.76,667.99,240.42,669.94,239.05z"/>
	</g>
	<g>
		<g>
			<g>
				<g>
					<path class="st3" d="M540.68,84.42c0,0,43.11-10.17,59.97-22.69c16.86-12.51,18.49-8.16,18.49-0.54
						c0,7.62-35.9,26.11-63.64,28.29C527.77,91.65,540.68,84.42,540.68,84.42z"/>
					<path class="st3" d="M587.19,154.75c0,0,46.1,5.71,57.11,37.94c11.01,32.23,8.56,42.83,8.56,42.83s2.86,4.9,7.34,2.86
						c4.49-2.04,4.9-5.3,4.49-17.13c-0.41-11.83-10.61-73.43-78.33-74.66L587.19,154.75z"/>
					<path class="st3" d="M557.41,144.96c0,0,49.59-5.98,77.01,14.24c27.42,20.21,31.45,30.32,31.45,30.32s5.13,2.4,7.66-1.84
						c2.53-4.24,1-7.15-6.07-16.64c-7.08-9.49-61.85-64.89-118.2-27.3L557.41,144.96z"/>
				</g>
				<g>
					<path class="st4" d="M617.59,54.59c0.6,2.66-1.75,5.81-4.86,8.19c-3.51,2.68-7.37,4.48-11.39,6.28
						c-6.38,2.86-12.78,5.72-19.22,8.43c-5.25,2.22-10.66,4.63-16.16,6.15c-2.37,0.65-6.1,1.58-7.62-1.09
						c-0.57-1.01-0.2-2.07,0.67-3.13c-10.39,3.13-18.33,5-18.33,5s-12.92,7.23,14.82,5.06c27.74-2.17,63.64-20.67,63.64-28.29
						C619.15,58.23,618.89,55.76,617.59,54.59z"/>
					<path class="st4" d="M664.7,221.25c-0.41-11.83-10.61-73.43-78.33-74.66l0.82,8.16c0,0,46.1,5.71,57.11,37.94
						c11.01,32.23,8.56,42.83,8.56,42.83s2.86,4.9,7.34,2.86C664.7,236.34,665.11,233.08,664.7,221.25z M659.66,231
						c-1.87,1.88-3.86-0.33-4.51-2.19c-1.9-5.45-1.59-11.45-2.54-17.1c-0.72-4.27-1.4-8.52-2.51-12.67
						c-2.23-6.12-5.33-12.05-9.43-17.01c-9.17-11.1-21.38-18.4-34.65-23.51c-2.08-0.53-4.91-0.64-6.58-1.84
						c-1.8-1.29,0.5-3.36,1.86-3.55c3.74-0.53,7.74,0.39,11.37,1.24c3.02,0.7,6.21,1.33,9.02,2.7c5.73,2.77,10.77,6.52,15.14,10.94
						c14.3,12.48,22.04,33.51,24.52,51.34C661.82,222.76,662.43,228.23,659.66,231z"/>
					<path class="st4" d="M667.45,171.04c-7.08-9.49-61.85-64.89-118.2-27.3l8.16,1.22c0,0,49.59-5.98,77.01,14.24
						c27.42,20.21,31.45,30.32,31.45,30.32s5.13,2.4,7.66-1.84C676.05,183.44,674.53,180.53,667.45,171.04z M665.76,184.29
						c-2.81-2.39-4.54-5.67-6.99-8.39c-2.83-3.15-5.99-6.04-9.33-8.65c-7.32-5.72-14.84-11.51-23.16-15.73
						c-6.47-3.28-13.03-5.47-20.03-7.21c-2-0.5-4.46-1.08-6.47-2.18c-3.07-1.16-6.06-2.92-3.85-4.88c2.44-2.16,6.26-0.79,9.05-0.1
						c5.47,1.36,10.75,3.32,15.87,5.68c10.83,4.98,21.61,10.61,30.62,18.54c6.42,5.65,14.56,13.4,15.68,22.34
						C667.25,184.5,666.23,184.7,665.76,184.29z"/>
				</g>
				<g>
					<g>
						<path class="st3" d="M227.24,286.66c2.17,17.13,23.66,27.74,56.57,22.85c18.45-2.75,35.95-9.94,47.78-15.72l-11.38-3.46
							c-9.43,5.32-21.55,10.74-34.23,12.65c-27.67,4.17-51.1-4.12-48.68-22.84c0.7-5.39,2.77-9.9,5.11-13.47l-5.51-1.67
							C232.02,268.92,225.89,276.07,227.24,286.66z"/>
						<path class="st3" d="M581.75,315.56c-24.88,36.89-115.6,33.1-154.89,18.96c-40.79-14.69-34.81-20.94-67.72-26.93
							c-32.91-5.98-69.35,14.96-98.72,19.04c-29.37,4.08-44.6-6.53-46.51-28.01c-1.37-15.53,11.46-28.79,18.68-34.94l-8.07-2.45
							c0,0-22.85,8.97-22.85,34.27c0,25.29,21.62,41.61,55.48,40.39c33.86-1.23,68.54-27.74,99.13-19.99
							c30.6,7.75,48.95,35.08,117.08,38.75c68.13,3.67,121.98-23.25,127.28-39.16L581.75,315.56z"/>
					</g>
					<path class="st3" d="M212.08,256.13c0,0-15.71,0.21-36.92,6.93c-21.21,6.73-23.46,13.87-21.62,16.73c0,0,0.82,2.86,3.06,2.45
						c2.24-0.41,41-17.75,61.81-16.32c0,0,5.1,0.82,5.1-2.24S212.08,256.13,212.08,256.13z"/>
				</g>
				<g>
					<g>
						<path class="st4" d="M320.21,290.32c-9.43,5.32-21.55,10.74-34.23,12.65c-27.67,4.17-51.1-4.12-48.68-22.84
							c0.7-5.39,2.77-9.9,5.11-13.47l-5.51-1.67c-4.89,3.93-11.01,11.08-9.67,21.66c2.17,17.13,23.66,27.74,56.57,22.85
							c18.45-2.75,35.95-9.94,47.78-15.72L320.21,290.32z M254.98,307.87c-5.91,0.05-11.42-2.46-15.82-6.4
							c-2.48-1.56-4.74-3.43-6.62-5.78c-3.7-4.59-5.69-13.21-3.18-18.81c0.79-1.77,2.29-1.88,3.66-0.58
							c1.77,1.68,1.63,5.77,2.11,7.99c2.21,10.39,12.1,16.62,20.28,22.06C256.05,306.79,255.82,307.86,254.98,307.87z"/>
						<path class="st4" d="M581.75,315.56c-24.88,36.89-115.6,33.1-154.89,18.96c-40.79-14.69-34.81-20.94-67.72-26.93
							c-32.91-5.98-69.35,14.96-98.72,19.04c-29.37,4.08-44.6-6.53-46.51-28.01c-1.37-15.53,11.46-28.79,18.68-34.94l-8.07-2.45
							c0,0-22.85,8.97-22.85,34.27c0,25.29,21.62,41.61,55.48,40.39c33.86-1.23,68.54-27.74,99.13-19.99
							c30.6,7.75,48.95,35.08,117.08,38.75c68.13,3.67,121.98-23.25,127.28-39.16L581.75,315.56z M282.89,326.68
							c-0.08,0.29-0.25,0.65-0.56,1.08c-1.59,2.22-6.58,2.86-9.05,3.64c-8.46,2.7-17.39,3.56-26.23,3
							c-15.62-0.97-35.38-9.53-40.33-25.76c-1.41-4.62-2.3-10.72-1.73-15.54c0.58-4.94,1.57-10.02,3.39-14.65
							c0.69-1.78,7.27-13.85,10.34-7.96c1,1.93-0.02,4.14-1.18,5.69c-5.11,6.83-7.26,18.23-5.96,26.47
							c1.55,9.83,7.74,18.08,16.79,22.21c5.14,2.36,10.98,3.61,16.57,4.38c7.48,1.03,15.09-0.15,22.45-1.56
							c3.84-0.74,7.68-1.46,11.55-2.03C280.73,325.4,283.29,325.13,282.89,326.68z M522.19,349.91c-4,2.76-9.24,2.72-13.91,2.76
							c-7.11,0.05-14.16,0.95-21.27,0.97c-17.11,0.03-34.31-1.67-50.82-6.2c-12.05-3.3-24.16-7.05-35.75-11.78
							c-4.18-1.7-12.29-4.34-16.12-8.75c-1.86-1.02-3.59-2.26-4.5-3.89c-1.61-2.86,3.54-3.46,5.12-3.24
							c6.66,0.9,12.52,5.36,18.2,8.65c8.79,5.09,18.82,8.51,28.54,11.32c10.5,3.04,21.38,5.66,32.25,6.89
							c10.8,1.21,21.63,1.01,32.48,1.16c8.32,0.12,17.51-1.84,25.59,0.63C522.71,348.64,522.77,349.52,522.19,349.91z"/>
					</g>
					<path class="st4" d="M212.08,256.13c0,0-4.03,0.05-10.73,0.98c2.9,0.29,5.73,0.96,7.57,2.44c2.34,1.89-1.38,3.84-2.76,4.22
						c-4.23,1.15-8.67,1.57-13.02,2.04c-6.39,0.69-11.7,2.56-17.59,5.35c-3.42,1.62-6.81,3.33-10.31,4.75
						c-2.49,1.01-5.24,2.39-8,2.21c-3.51-0.23-2.32-3.36-0.1-6.51c-4.36,3.54-4.64,6.56-3.6,8.19c0,0,0.82,2.86,3.06,2.45
						c2.24-0.41,41-17.75,61.81-16.32c0,0,5.1,0.82,5.1-2.24S212.08,256.13,212.08,256.13z"/>
				</g>
				<path class="st5" d="M636.96,231.04c0,0,3.27-4.08,0-11.01c0,0,1.22-6.93-0.41-8.16c0,0,1.63-8.97-1.63-10.2
					c0,0,8.16-8.97,5.71-20.8c-2.45-11.83-23.25-25.29-60.37-7.75c0,0,0.51-0.39,1.32-1.08c-40.68,17.77-68.5,53.44-68.5,53.44
					c-97.37,40.25-215.4-27.2-234.98-46.78c-19.58-19.58-42.97-19.04-42.97-19.04s-17.13,0-17.95,19.18
					c-0.81,19.17,22.44,46.1,22.44,46.1s-5.71-2.45-13.46-11.02c-7.75-8.57-11.01-13.87-15.5-6.94c0,0-6.94-1.63-8.16,9.39
					c-1.23,11.01,2.85,19.17,2.85,19.17s-4.89-4.89-6.53,2.45c-1.63,7.34,7.35,17.95,10.2,20.8c2.86,2.86,68.54,46.91,129.32,51.4
					c0,0,82.41,20.4,124.02,18.36c0,0,4.08,7.35,15.5,6.12c0,0,0,6.53,24.07,4.9c24.07-1.63,35.49-7.75,35.49-7.75
					s66.49-8.57,87.3-25.3c20.8-16.72,3.26-38.75,3.26-38.75S644.71,245.32,636.96,231.04z"/>
				<path class="st4" d="M636.96,231.04c0,0,3.27-4.08,0-11.01c0,0,1.22-6.93-0.41-8.16c0,0,1.63-8.97-1.63-10.2
					c0,0,8.16-8.97,5.71-20.8c-1.31-6.34-7.9-13.14-19.43-15.4c7.35,2.63,17.2,8.52,11.98,17.17c-0.38,0.62-1.27,0.47-1.49-0.2
					c-3.67-11.07-20.51-9.61-29.31-7.38c-9.69,2.45-19.18,6.42-27.97,11.15c-17.59,9.47-33.16,22.48-45.5,38.22
					c-3.67,4.69-6.17,10.2-9.64,15.03c-1.63,2.27-4.79,7.44-8.14,4.87c-3.13-2.39-1.17-9.53-0.19-12.55
					c0.92-2.85,2.18-5.51,3.59-8.08c-0.95,1.13-1.45,1.77-1.45,1.77c-12.71,5.25-25.78,8.66-38.93,10.59
					c-0.89,0.13-1.79,0.25-2.68,0.37c-0.51,0.07-1.01,0.13-1.52,0.2c-0.83,0.1-1.65,0.19-2.47,0.28c-0.58,0.06-1.15,0.13-1.72,0.18
					c-0.76,0.07-1.52,0.15-2.28,0.21c-0.63,0.06-1.26,0.11-1.9,0.16c-0.7,0.06-1.39,0.11-2.09,0.15c-0.7,0.05-1.39,0.09-2.09,0.13
					c-0.63,0.03-1.26,0.07-1.89,0.1c-0.76,0.03-1.52,0.06-2.28,0.09c-0.57,0.02-1.14,0.04-1.71,0.05c-0.81,0.03-1.62,0.04-2.44,0.05
					c-79.26,1.08-155.59-43.93-170.99-59.33c-19.58-19.58-42.97-19.04-42.97-19.04s-17.13,0-17.95,19.18
					c-0.49,11.5,7.68,25.78,14.3,35.38c0,0,0,0,0,0c0.02,0.03,0.04,0.06,0.06,0.09c1.62,2.33,3.13,4.39,4.41,6.05
					c0.02,0.03,0.05,0.06,0.07,0.09c0.17,0.23,0.34,0.45,0.51,0.66c0.06,0.07,0.11,0.15,0.17,0.22c0.14,0.17,0.27,0.34,0.4,0.5
					c0.08,0.11,0.16,0.21,0.24,0.31c0.1,0.13,0.2,0.25,0.3,0.38c0.11,0.14,0.22,0.27,0.32,0.39c0.05,0.06,0.1,0.13,0.16,0.2
					c0.94,1.17,1.51,1.83,1.51,1.83s-5.71-2.45-13.46-11.02c-7.75-8.57-11.01-13.87-15.5-6.94c0,0-6.94-1.63-8.16,9.39
					c-1.23,11.01,2.85,19.17,2.85,19.17s-4.89-4.89-6.53,2.45c-1.63,7.34,7.35,17.95,10.2,20.8c2.86,2.86,68.54,46.91,129.32,51.4
					c0,0,82.41,20.4,124.02,18.36c0,0,4.08,7.35,15.5,6.12c0,0,0,6.53,24.07,4.9c24.07-1.63,35.49-7.75,35.49-7.75
					s66.49-8.57,87.3-25.3c20.8-16.72,3.26-38.75,3.26-38.75S644.71,245.32,636.96,231.04z M591.64,187.63
					c7.83-6.32,38.09-10.32,31.82,7.32c-0.2,0.58-0.9,0.81-1.36,0.36c-6.9-6.72-15.78-6.51-24.67-6.53
					c-1.73,0.12-3.47,0.22-5.21,0.24C591.56,189.03,591.07,188.09,591.64,187.63z M549.36,223.96
					c9.57-14.61,23.46-29.07,41.55-31.65c0.07-0.01,0.12,0,0.18,0.01c6.17-1.45,12.61-1.52,18.56,0.9
					c6.11,2.49,9.92,10.2,5.44,15.68c-0.28,0.35-0.86,0.29-1.16,0c-9.14-9.18-22.62-7.81-33.78-3.42
					c-10.96,4.32-21.28,11.03-29.52,19.47C550,225.61,548.85,224.75,549.36,223.96z M548.55,234.85
					c5.18-10.7,16.92-20.28,28.23-23.77c0.19-0.06,0.35-0.03,0.49,0.02c4.35-1.88,8.93-3.08,13.6-3.04
					c5.06,0.04,12.29,0.43,14.57,5.84c0.19,0.43,0.09,1.1-0.49,1.2c-10.23,1.77-20.58,2.08-30.31,6.06
					c-9.03,3.7-17.2,8.95-24.98,14.8C548.94,236.5,548.23,235.5,548.55,234.85z M426.27,243.17c3.52-0.81,17.2,0.67,18.56,0.62
					c7.2-0.29,14.38-1.1,21.51-2.19c6-0.92,11.68-2.42,17.46-4.19c3.27-1,11.08-5.3,14.26-1.94c3.47,3.67-4.35,7.89-7.09,9.19
					c-9.72,4.62-20.38,6.55-30.91,6.81c-9.66,0.23-22.22,1.95-31.15-3.19C428.15,247.84,423.43,243.82,426.27,243.17z M392.6,251.3
					c7.3,0.23,14.51,2.63,21.7,3.8c8.55,1.39,17.21,2.5,25.89,2.46c16.48-0.09,38.89-2.45,56.84-5.71c0.93-0.17-6.54,3.51-7.4,3.78
					c-0.42,0.13-0.85,0.24-1.27,0.37c14.66-3.41,29.21-7.31,43.67-11.51c27.4-7.94,56.2-13.89,79.86-30.7
					c3.21-2.27,12.03-10.27,16.11-5.8c9.17,10.07-41.49,28.25-48.5,30.72c-11.97,4.22-24.07,8.08-36.29,11.55
					c-19.52,5.55-39.39,9.78-59.38,13.25c-9.74,1.7-19.51,3.2-29.27,4.7c-8.21,1.26-30.14,2.81-25.25-1.31
					c4.08-1.19,16.19-1.89,21.8-2.84c8.2-1.4,16.34-3.25,24.43-5.15c-24.02,3.93-55.73,7.86-78.46-3.1
					c-0.35-0.17-0.46-0.48-0.41-0.77c-1.53-0.64-3.03-1.36-4.49-2.22C391.5,252.42,391.77,251.27,392.6,251.3z M265.26,204.34
					c-3.64-3.71-7-7.64-9.6-11.88c-2.41-3.93-3.61-8.29,2.45-6.16c5.97,2.11,11.74,7.08,16.32,11.31
					c14.73,13.62,27.97,28.76,43.8,41.18c3.88,3.05,7.85,6.08,12.21,8.4c3.78,2,16.47,8.73,11.25,7.47c-1.04,0.98-4.3-0.5-6.27-1.12
					c-2.96-0.93-5.76-2.33-8.55-3.69C304.12,238.8,283,222.4,265.26,204.34z M317.81,256.47c-5.7-0.06-15.31-3.14-20.74-4.79
					c-6.68-2.02-13.29-5.17-19.78-8.01c-6.11-2.67-12.86-4.69-18.13-8.9c-3.48-2.78-7-9.46,0.65-8.96
					c7.82,0.51,14.13,5.56,20.08,10.16c5.68,4.38,12.16,7.53,18.67,10.45c2.72,1.22,5.47,2.38,8.18,3.62
					c2.26,1.02,6.82,4.53,9.16,4.53C315.84,254.56,317.87,256.47,317.81,256.47z M328.25,235.12c-0.46-0.66,0.46-1.58,1.12-1.12
					c24.89,17.62,55.99,21.49,84.66,29.56c0.73,0.21,0.84,1.44,0,1.57c-13.06,2.15-27.95,0.43-40.65-3.15
					c-6.14-1.73-11.92-4.22-17.44-7.19C345.52,251.08,334.66,244.3,328.25,235.12z M413.54,278.5c7.2-0.61,14.36,0.21,21.56,0.13
					c7.79-0.09,15.61-0.92,23.36-1.72c16.31-1.69,32.73-3.41,48.9-6.11c15.63-2.61,31.23-5.97,46.57-9.95
					c12.82-3.32,24.96-9.53,38.29-10.64c0.73-0.05,1.05,0.92,0.58,1.4c-4.8,4.75-12.18,7.33-18.26,10.04
					c-7.09,3.17-14.29,6.17-21.7,8.48c-15.75,4.91-31.69,8.61-47.98,11.24c-14.55,2.35-29.18,5.08-43.87,6.3
					c-13.21,1.1-26.7,0.91-39.3-3.52c-3.16-0.8-6.16-2.06-8.72-4.25C412.37,279.39,412.9,278.55,413.54,278.5z M232.62,178.66
					c-3.35,6.6,1.8,13.71-0.55,20.27c-10-6.45-13.83-23.66-3.91-32.34c11.8-10.32,31,0.11,40.82,7.74
					c16.19,12.55,29.37,25.88,47.37,35.83c10.37,5.74,21.08,10.46,32.19,14.59c5.54,2.06,11.11,4.08,16.59,6.28
					c3.39,1.36,13.04,3.87,14.28,7.12c0.38,1-20.34-0.68-21.99-1.02c-8.05-1.67-15.86-4.48-23.32-7.89
					c-14.99-6.87-28.7-16.31-41.71-26.36c-6.61-5.1-13.05-10.41-19.39-15.84c-6.5-5.57-13.27-11.23-21.73-13.48
					C244.62,171.78,236.24,171.54,232.62,178.66z M239.03,184.14c0.05-0.02,0.09-0.03,0.13-0.05c4.3-1.56,12,11.35,14.16,14.08
					c9.12,11.52,19.75,23.13,31.94,32.07c3.94,2.39,7.87,4.81,11.74,7.3c0.89,0.57,0.12,1.88-0.82,1.4
					c-7.04-3.54-14.87-6.42-21.61-10.49c-12.79-7.72-26-17.09-33.77-30.48C239.44,195.64,234.67,186.03,239.03,184.14z
					 M217.94,211.89c3.41,1.11,6.17,5.14,8.65,8.17c9.84,8.08,20.56,15.08,31.99,20.74c14.25,7.06,29.05,11.54,44.26,15.96
					c16.59,4.81,32.92,9.73,50.13,11.79c15.46,1.86,31.14,2.87,46.71,2.87c1.05,0,1.04,1.46,0,1.63c-26.25,4.49-45.8,0.79-68.47-2.8
					c-3.88-0.62-7.73-1.35-11.57-2.15c-0.13,0.04-0.26,0.05-0.41,0.02c-26.22-4.76-54.32-10-76.82-25.08
					c-7.5-5.03-15.15-10.38-21.48-16.88c-2.28-2.35-6.96-7.13-5.87-10.93c-0.04-0.13-0.09-0.27-0.13-0.41
					C214.44,213.01,216.01,211.27,217.94,211.89z M276.06,268c6.75,4.48,14.09,7.94,20.94,12.24c0.76,0.48,0.28,1.79-0.63,1.49
					c-8.77-2.89-17.51-6.37-25.46-11.14c-0.17,0.05-0.37,0.03-0.57-0.1c-4.42-2.72-10.81-6.25-11.01-12.13
					c-0.02-0.5,0.54-0.97,1.03-0.78C266.36,259.77,270.83,264.53,276.06,268z M269.18,288.8c-5.47-1.4-10.68-3.55-15.69-6.15
					c-10.16-4.28-20.02-9.15-29.29-15.29c-7.7-5.1-20.71-13.18-20.89-23.68c-0.01-0.58,0.53-0.87,1.03-0.79
					c0.16,0.03,0.28,0.07,0.42,0.11c0.22-0.19,0.54-0.25,0.87-0.02c2.33,1.64,3.73,4.02,5.6,6.11c2.12,2.36,4.33,4.64,6.72,6.74
					c4.99,4.38,10.37,8.33,15.76,12.21c6.52,4.7,13.29,9.39,20.49,13.13c5.07,2.14,10.21,4.14,15.42,6.05
					C270.59,287.59,270.21,289.07,269.18,288.8z M351.96,309.54c-11.39-1.52-22.59-5.3-33.48-8.82c-9.82-3.17-17.51-4.69-27.05-8.62
					c-17.13-7.07-29.37-14.69-42.96-22.45c-9.04-6.19-17.51-13.24-25.26-20.17c-7.38-6.59-15.59-14.33-17.59-24.46
					c-0.36-1.84-0.72-7.26,2.45-7.06c2.75,0.17,5.16,4.5,6.49,6.48c2.35,3.51,4.32,7.27,6.82,10.68c5.59,7.63,12,14.66,19.05,20.97
					c7.7,6.9,16.02,13.06,24.8,18.47c6.69,2.93,12.87,6.89,19.59,9.77c19.02,8.12,38.74,13.54,58.38,19.82
					c2.83,0.91,10.55,2.12,12.46,4.67c0.31,0.41,0.39,0.69,0.31,0.87C355.67,310.35,353.13,309.69,351.96,309.54z M342.15,290.05
					c-8.75-2.06-17.37-4.63-25.81-7.68c-0.13,0.37-0.46,0.63-0.93,0.45c-10.88-4.27-21.97-8.22-31.74-14.77
					c-0.73-0.49-0.29-1.8,0.63-1.49c9.44,3.22,18.49,6.37,28.35,8.13c17.79,3.17,35.33,7.76,52.7,12.72
					c6.54,1.87,13.4,2.48,19.93,4.48c3.1,0.95,19.1,6.29,7.72,7.27c-7.22,0.63-14.28-1.23-21.25-2.51
					C361.8,294.85,351.99,292.37,342.15,290.05z M459.45,321.44c-5.38,1.25-10.82,1.59-16.28,1.55c-10.16,0.7-20.66-1-30.57-2.29
					c-9.32-1.22-18.58-2.98-27.49-5.92c-2.71-0.73-5.35-1.67-7.88-2.94c-0.06-0.03-0.09-0.07-0.13-0.11
					c-0.14-0.06-0.27-0.11-0.41-0.16c-0.76-0.33-0.36-1.55,0.41-1.52c13.89,0.44,27.23,4.45,40.96,6.15
					c13.69,1.68,27.5,1.93,41.18,3.64C460.07,319.94,460.42,321.22,459.45,321.44z M424.42,310.86c-10.94-0.61-23.06-1-32.77-6.64
					c-0.84-0.49-0.25-1.65,0.63-1.49c12.62,2.37,26.21,0.15,38.93-0.58c12.77-0.74,25.47-1.89,38.2-3.25
					c14.94-1.6,29.88-3.25,44.73-5.48c11.96-2.29,23.87-4.79,35.73-7.55c0.89-0.21,1.46,1.03,0.63,1.49
					c-11.81,6.58-24.2,12.27-37.18,16.13c-13.44,4-27.11,5.95-41.07,6.91C456.31,311.49,440.36,311.75,424.42,310.86z
					 M527.46,326.73c-6.81,2.11-13.72,4.1-20.66,5.78c-2.65,0.64-5.89,1.52-8.9,1.4c-4.24,0.86-8.67,1.08-12.43-1.4
					c-0.58-0.38-0.51-1.29,0.2-1.49c26.06-7.5,52.02-17.2,75.63-30.66c11.3-6.45,21.66-14.04,32.15-21.69
					c7.47-5.45,14.98-11.02,21.4-17.67c-0.07-0.24-0.03-0.51,0.19-0.75c3.16-3.29,5.83-7.03,9.25-10.06
					c0.69-0.62,1.72,0.15,1.28,0.99c-0.03,0.05-0.06,0.1-0.08,0.15c0.03,0.04,0.06,0.06,0.08,0.11c1.71,3.83-0.71,8.3-2.7,11.55
					c-2.9,4.74-6.32,9.22-10.12,13.26c-11.14,11.84-24.57,21.99-38.59,30.17C559.45,314.99,543.71,321.7,527.46,326.73z
					 M615.25,305.28c-8.29,4.94-17.29,7.76-26.54,10.29c-5.61,1.53-13.22,4.9-18.94,2.25c-0.72-0.33-0.39-1.26,0.19-1.49
					c12.22-4.82,25.08-8.25,36.52-14.88c3.84-2.22,8.01-4.24,11.12-7.48c1.53-1.6,2.84-3.52,3.28-5.73
					c0.53-2.66-0.86-5.45-0.32-8.05c0.39-1.9,1.36-3.25,2.48-4.82c0.25-0.34,0.73-0.56,1.11-0.3
					C636.81,283.69,624.56,299.72,615.25,305.28z M631.47,237c-3.78,9.62-13.28,15.08-20.21,22.19
					c-4.86,4.98-12.59,9.88-17.96,14.31c-13.3,10.99-27.79,20.57-43.15,28.43c-16.04,8.22-32.47,15.74-49.69,21.18
					c-5.93,1.88-11.86,4.12-17.93,5.51c-4.67,1.07-10,2.11-14.46-0.19c-0.64-0.33-0.46-1.31,0.19-1.49
					c14.84-3.97,30.14-6.76,44.37-12.7c13.73-5.73,26.8-13.13,39.55-20.75c17.57-10.52,36.38-21.7,51.66-35.44
					c7.24-6.51,14.26-14.97,20.1-22.78c1.49-1.99,4.24-7.83,7.26-7.53c0.54,0.05,0.83,0.33,0.94,0.75
					C632.89,231.44,632.54,234.28,631.47,237z"/>
				<path class="st3" d="M278.1,178.69c19.58,19.58,137.62,87.03,234.98,46.78c0,0,27.83-35.67,68.5-53.44
					c4.05-3.44,15.73-14.64,11.32-25.84c-4.74-12.02-9.46-12.65-10.42-12.65c-0.12,0-0.19,0-0.19,0s0.07,0,0.19,0
					c2.05-0.09,21.29-1.03,25.92-4.89c4.9-4.08,2.04-9.39-0.41-11.42c0,0,10.2-2.86,7.75-7.35c-2.45-4.49-14.69-9.38-39.98-6.93
					c0,0,4.49-0.41,4.49-9.39c0-8.97-12.65-4.48-19.99-5.3c-33.86,0.41-64.46,26.92-73.84,37.53c-9.38,10.61-15.09,25.29-40.8,26.11
					c-25.7,0.81-37.94-15.51-37.94-15.51c-23.25-0.41-44.06-7.34-76.7-14.69c-32.64-7.34-70.17,2.44-70.17,2.44
					c-2.85,0.57-5.39,0.94-7.69,1.16c-9.22,2.95-28.59,10.01-41.27,20.87c-17.14,14.69-13.05,32.23-6.53,28.97
					c6.53-3.27,21.21-27.34,33.45-30.6c0,0-4.48,6.53,1.23,8.57c0,0-4.9,2.85-4.9,6.53C235.12,159.65,258.52,159.11,278.1,178.69z"
					/>
				<path class="st4" d="M615.75,109.88c-2.45-4.49-14.69-9.38-39.98-6.93c0,0,4.49-0.41,4.49-9.39c0-5.91-5.49-5.98-11.34-5.57
					c-0.13,0.21-0.33,0.37-0.63,0.4c-0.07,0.01-0.14,0.02-0.22,0.03c1.18,0.5,2.26,1.15,3.15,2.06c2.31,2.38-0.17,5.31-2.5,6.27
					c-4.59,1.88-10.11,2.06-14.99,2.65c-9.58,1.15-19.27,1.36-28.74,3.38c-0.92,0.19-1.4-0.97-0.63-1.49
					c10.06-6.84,21.59-10.71,33.45-12.94c-32.87,1.61-62.22,27.09-71.38,37.44c-9.38,10.61-15.09,25.29-40.8,26.11
					c-25.7,0.81-37.94-15.51-37.94-15.51c-23.25-0.41-44.06-7.34-76.7-14.69c-32.64-7.34-70.17,2.44-70.17,2.44
					c-2.2,0.44-4.21,0.76-6.06,0.98c1.83-0.08,3.62,0.14,5.25,0.9c0.58,0.27,0.49,1.12,0,1.4c-11.49,6.81-24.12,11.06-35.05,18.91
					c-10.24,7.36-19.23,16.16-23.19,28.34c0.97,0.9,2.22,1.14,3.57,0.46c6.53-3.27,21.21-27.34,33.45-30.6c0,0-4.48,6.53,1.23,8.57
					c0,0-4.9,2.85-4.9,6.53c0,0,23.39-0.54,42.97,19.04c19.58,19.58,137.62,87.03,234.98,46.78c0,0,27.83-35.67,68.5-53.44
					c4.05-3.44,15.73-14.64,11.32-25.84c-4.74-12.02-9.46-12.65-10.42-12.65c-0.12,0-0.19,0-0.19,0s0.07,0,0.19,0
					c2.05-0.09,21.29-1.03,25.92-4.89c4.9-4.08,2.04-9.39-0.41-11.42C608,117.22,618.2,114.37,615.75,109.88z M505.53,114
					c1.32-1.38,2.76-2.48,4.34-3.38c0.04-0.11,0.1-0.2,0.23-0.27c3.66-2.04,8.32-3.41,12.32-1.61c0.4,0.18,0.3,0.72,0,0.92
					c-4.85,3.23-10.88,3.72-16.37,5.23C505.53,115.04,505.16,114.38,505.53,114z M492.38,125.08c9.17-7.92,22.44-9.22,33.88-11.38
					c13.87-2.63,27.55-6.05,41.45-8.51c0.1-0.08,0.21-0.15,0.37-0.17c1.61-0.27,3.24-0.5,4.87-0.7c0.82-0.13,1.64-0.27,2.47-0.39
					c0.19-0.03,0.35,0.01,0.49,0.09c3.43-0.32,6.86-0.46,10.27-0.27c4.6,0.26,10.96,0.7,13.54,5.19c0.26,0.44,0.03,1.08-0.49,1.2
					c-8.71,1.95-17.67,1.71-26.51,2.62c-10.19,1.05-20.33,2.58-30.33,4.83c-8.82,1.99-17.38,4.76-26.12,7.02
					c-7.75,2.01-15.58,3.34-23.55,1.84C492.15,126.33,491.93,125.46,492.38,125.08z M490.59,155.95c0.09-0.12,0.21-0.2,0.34-0.18
					c11.33,1.22,21.26-1.17,32.24-4.28c5.61-1.59,11.65-4.89,17.87-8.41c1.59-0.9,4.43-0.38,3.91,3.29
					c-0.63,4.53-5.08,7.38-7.52,8.84c-4.29,2.58-8.79,4.37-13.37,5.24c-6.21,1.17-12.51,1.48-18.74,0.66
					c-4.87-0.64-10.19-0.89-14.8-3.53C489.94,157.25,490.1,155.99,490.59,155.95z M453.6,163.96c6.63,1,13.19,2.65,19.87,3.29
					c5.78,0.56,11.62,0.5,17.42,0.27c9.74-0.39,19.63-0.68,29.31-1.84c14.61-1.76,31.75-6.22,39.6-19.72
					c0.81-2.95,2.31-5.19,4.65-1.81c2.43,3.51-1.5,10.05-3.54,12.78c-6.09,8.14-17.89,11.38-27.34,13.31
					c-15.59,3.16-31.55,3.54-47.38,2.48c-7.78-0.52-15.56-1.19-23.22-2.69c-3.71-0.73-8.16-1.35-10.28-4.86
					C452.27,164.48,452.94,163.86,453.6,163.96z M418.32,150.8c3.08-0.22,7.14-0.65,9.77,1.34c0.59,0.45,0.49,1.21-0.19,1.49
					c-9.75,3.96-20.25,4.69-30.46,6.8c-7.48,1.55-16.22,3.25-22.93-1.44c-0.61-0.43-0.48-1.23,0.19-1.49
					c10.93-4.28,22.89-4.81,34.6-5.48C412.3,151.54,415.29,151.02,418.32,150.8z M383.15,137.26c6.64,0.43,26.48,2.42,23.75,6.4
					c-2.06,3.01-13.42,3.61-16.7,4.28c-6.02,1.24-12.05,2.73-18.11,3.69c-3.73,0.6-24.13,4.92-17.1-5.28
					c5.54-8.04,17.33-9.16,26.23-9.19C381.52,137.17,382.2,137.19,383.15,137.26z M281.87,125.89c3.46-3.86,9.52-4.34,14.33-5.01
					c7.89-1.1,15.87-1.11,23.76,0.05c13.78,2.01,28.16,6.6,39.32,15.16c0.62,0.48,0.46,1.49-0.41,1.52
					c-12.76,0.49-24.3-3.86-36.51-6.74c-12.6-2.97-25.36-3.97-38.27-3.61c-0.18,0.2-0.44,0.32-0.77,0.26
					c-0.37-0.06-0.74-0.15-1.09-0.27C281.63,127.06,281.46,126.35,281.87,125.89z M243.23,148.74c-0.01,0-0.02,0-0.03,0.01
					c-0.29,0.15-0.58,0.29-0.86,0.45c-0.38,0.21-0.74,0.08-0.97-0.17c-0.47-0.05-0.97-0.5-0.77-1.03
					c3.76-9.99,17.65-12.39,26.95-13.14c14.84-1.2,30.8,2.09,44.14,8.58c0.72,0.35,0.39,1.58-0.41,1.52
					c-22.87-1.69-46.63-7.46-67.99,3.74C243.27,148.71,243.25,148.73,243.23,148.74z M244.24,156.54c-0.42-0.22-0.48-0.73-0.29-1.12
					c0.05-0.11,0.12-0.19,0.17-0.3c0.02-0.15,0.1-0.28,0.23-0.4c0.51-0.77,1.12-1.22,2.07-1.77c0.4-0.22,0.77-0.08,1,0.19
					c17.79-8.42,37.94-7.92,57.06-4.72c11.33,1.89,22.45,4.71,33.62,7.38c7.63,1.83,15.52,2.96,22.97,5.4
					c14.81,3.34,29.09,9.39,42.3,16.72c8.79,4.88,17.28,10.3,26.21,14.91c6.8,3.51,13.72,6.79,20.51,10.31
					c4.72,1.72,9.46,3.35,14.33,4.58c5.37,1.34,10.76,2.55,15.97,4.44c0.67,0.25,0.88,1.45,0,1.57c-23.96,3.52-47.53-8-65.57-22.46
					c-4.05-3.24-8.04-6.59-12.53-9.21c-9.67-5.65-20.16-9.59-30.86-12.82c-11.51-3.47-23.59-6.09-35.46-8
					c-22.74-3.66-44.41-5.94-67.38-2.91C260.48,159.42,251.77,160.42,244.24,156.54z M479.57,222.72
					c-16.42,2.88-42.85,2.65-51.78-14.52c-0.4-0.76,0.38-1.46,1.12-1.12c9.04,4.15,18.12,7.97,27.9,9.85
					c7.62,1.21,15.32,2.16,22.77,4.21C480.3,221.34,480.4,222.57,479.57,222.72z M372.8,217.82c-15.71-2.47-41.82-3.57-47.89-21.78
					c-0.24-0.74,0.6-1.21,1.2-0.92c6.18,3.02,12.07,6.6,18.57,8.89c0.49,0.17,0.63,0.65,0.52,1.04c9.2,4.04,18.8,7.2,28.03,11.2l0,0
					c0.06,0.03,0.13,0.05,0.2,0.08C374.34,216.73,373.63,217.95,372.8,217.82z M338.26,195.85c10.62-4.44,24.93,1.12,30.84,10.71
					c0.36,0.59-0.24,1.44-0.92,1.2c-3.81-1.35-7.62-2.72-11.42-4.13c-0.23,0.27-0.61,0.43-1.02,0.24
					c-5.66-2.6-11.63-4.35-17.48-6.44C337.45,197.13,337.51,196.16,338.26,195.85z M387.46,224.95c-0.52,0.56-1.35,0.09-1.39-0.58
					c-1.81-25.01-26.01-32.49-47.33-35.32c-11.76-0.89-23.56,1.3-35.29-0.33c-0.68-0.1-0.82-1.23-0.19-1.49
					c11.03-4.81,23.46-5.95,35.37-4.97c9.98,0.83,20.45,2.59,29.58,6.91C380.67,195.07,400.99,210.22,387.46,224.95z M419.25,224.92
					c-1.06,3.79-0.27,7.19-4.99,6.75c-6.3-0.59-6.04-13.13-7.25-17.9c-4.18-16.53-13.05-23.02-28.55-29.37
					c-15.82-6.49-34.52-9.36-51.57-11.1c-10.69-1.08-21.53-1.16-32.26-0.51c-2.28,0.14-27.43,0.82-19.93-3.35
					c7.34-4.08,15.09-4.08,25.29-4.08c11.42,0,22.43,2.29,33.77,2.89c10.72,0.56,21.37,1.9,31.91,3.91
					c12.08,2.3,24.51,7.61,34.81,14.41C412.79,194.7,423.78,208.84,419.25,224.92z M497.62,226.07c0.09,0.47-0.07,1.08-0.57,1.85
					c-2.49,3.83-12.87,4.24-16.98,4.94c-6.8,1.15-13.74,1.47-20.61,1.9c-10.4,0.66-24.21,2.53-32.9-4.64
					c-0.2-0.16-0.31-0.55-0.21-0.79c2.77-6.71,15.74-3.27,20.97-2.49c10.61,1.57,21.45,1.05,32.08-0.1c3.84-0.42,7.68-0.54,11.51-1
					C493.15,225.47,497.27,224.21,497.62,226.07z M541.77,190.81c-4.19,3.18-8.5,6.48-13.36,8.57c-4.58,1.97-9.11,2.73-14.05,3.14
					c-12.18,1.01-24.16,0.84-36.16-1.58c-12.04-2.42-23.71-6.29-35.11-10.82c-7.2-2.86-16.42-4.57-21.98-10.32
					c-0.59-0.61,0.01-1.53,0.8-1.36c6.81,1.46,13.27,4.03,19.85,6.26c0.5,0.17,0.64,0.66,0.52,1.05
					c13.81,4.24,28.05,7.14,42.36,8.79c18.82,2.17,38.69,1.94,56.5-5.22C542.08,188.95,542.44,190.3,541.77,190.81z M582.67,154.56
					c-1.97,6.42-6.34,11.07-11.52,15.16c-5.92,4.68-12.09,8.31-19.12,11.07c-6.33,2.49-13.09,5.53-20,5.7
					c-0.97,0.2-1.94,0.39-2.9,0.55c-17.74,2.97-36.95,2.54-54.64-0.48c-15.69-2.69-34.23-5.11-47.34-14.86
					c-2.3-1.71-9.23-6.53-5.2-9.65c2.94-2.27,7.94,1.07,10.47,2.56c3.86,2.28,7.64,4.15,11.95,5.46c4.24,1.29,8.13,3.47,12.39,4.75
					c12.76,3.83,26.43,4.92,39.66,5.79c12.21,0.81,24.13,0.58,36.05-2.51c9.52-2.46,18.62-6.09,27.51-10.26
					c1.28-0.98,2.53-1.98,3.72-2.98c4.28-3.63,8.74-7.97,11.45-13.08c0-0.1,0-0.2,0.05-0.31c1.29-3.55,1.55-7.35,3.14-10.8
					c0.17-0.37,0.79-0.55,1.12-0.29C583.63,143.6,584.16,149.73,582.67,154.56z M579.45,128.43c-8.77,1.32-17.46,3.5-26.12,5.21
					c-8.54,1.68-17.09,3.33-25.66,4.91c-9.07,1.68-18.17,3.25-27.19,5.07c-7.57,1.52-15.2,3-22.99,3.34
					c-0.83,0.03-1.22-0.65-0.52-1.03c5.89-3.23,12.55-5.6,19.37-7.62c7.47-2.23,15.03-4.43,22.73-6.2
					c8.55-1.95,17.27-3.43,25.83-5.37c3.96-0.9,7.92-1.78,11.91-2.54c0.1-0.05,0.22-0.1,0.36-0.12c8.86-1.42,17.72-3.29,26.72-4.02
					c3.84-0.31,7.74-0.52,11.55-0.28c1.59,0.1,3.62,0.17,4.61,1.13C604.32,125.09,581.97,128.05,579.45,128.43z"/>
				<path class="st5" d="M331,121.71c32.64,7.35,53.44,14.28,76.7,14.69c0,0,12.24,16.32,37.94,15.51
					c25.7-0.82,31.41-15.51,40.8-26.11c9.38-10.61,39.98-37.12,73.84-37.53c0,0-4.89-8.97-21.62-8.97c0,0,4.89-4.9-2.45-13.46
					c-7.35-8.57-30.19-10.61-48.96-1.63c0,0,9.79-17.13,39.57-19.58c29.78-2.44,33.45,4.9,37.94,0.41
					c4.49-4.49-5.3-12.65-23.25-11.42c-17.95,1.23-58.74,11.42-81.59,38.76c0,0-23.39-18.36-70.85-10.61c0,0-39.71-26.65-66.9-29.37
					c-27.19-2.72-30.46,5.44-26.11,8.7c0,0,1.09,1.09,8.84,0.27c7.75-0.81,42.02,0.82,56.3,26.93c0,0-16.32-15.09-37.12-11.83
					c-20.8,3.27-34.27,14.28-44.46,30.6c0,0-21.62-2.45-29.78,5.3c-8.16,7.75-2.86,12.64,3.26,13.05c0,0-6.94,5.3-7.34,10.2
					c-0.41,4.89,2.86,8.16,12.65,8.16c0,0-2,0.53-5.24,1.56c2.29-0.22,4.84-0.59,7.69-1.16C260.83,124.15,298.36,114.37,331,121.71z
					"/>
				<path class="st4" d="M556.81,35.13c0.2,0.59,0.31,1.24,0.3,1.98c-0.06,4.86-6.89,3.23-9.94,3.03
					c-10.48-0.73-21.21-0.49-31.37,2.5c-16.52,4.85-28.9,16.14-42.69,25.77c-2.95,2.07-7.17,5.55-11.04,5.29
					c-1.17-0.08-1.76-0.69-2.01-1.53c-0.05,0.06-0.11,0.12-0.16,0.19c0,0-23.39-18.36-70.85-10.61c0,0-22.29-14.97-44.91-23.61
					c1.95,1.01,3.88,2.07,5.78,3.2c8.48,5.03,15.82,11.25,23.57,17.28c4.71,3.66,9.85,6.51,14.82,9.78c3,1.97,6.46,3.38,8.94,6.03
					c0.47,0.5,0.16,1.42-0.58,1.4c-10.78-0.31-20.18-6.67-28.43-13.04c-9.27-7.16-18.04-15.46-28.82-20.36
					c-6.55-2.98-13.27-4.56-20.49-4.6c-5.19-0.03-10.88,1.12-16.01,0.39c-2.44-0.35-5.32-1.49-6.63-3.08
					c-2.62,2.01-2.21,4.47-0.25,5.94c0,0,1.09,1.09,8.84,0.27c7.75-0.81,42.02,0.82,56.3,26.93c0,0-16.32-15.09-37.12-11.83
					c-20.8,3.27-34.27,14.28-44.46,30.6c0,0-21.62-2.45-29.78,5.3c-8.16,7.75-2.86,12.64,3.26,13.05c0,0-6.94,5.3-7.34,10.2
					c-0.41,4.89,2.86,8.16,12.65,8.16c0,0-2,0.53-5.24,1.56c2.29-0.22,4.84-0.59,7.69-1.16c0,0,37.53-9.78,70.17-2.44
					c32.64,7.35,53.44,14.28,76.7,14.69c0,0,12.24,16.32,37.94,15.51c25.7-0.82,31.41-15.51,40.8-26.11
					c9.38-10.61,39.98-37.12,73.84-37.53c0,0-4.89-8.97-21.62-8.97c0,0,4.89-4.9-2.45-13.46c-7.35-8.57-30.19-10.61-48.96-1.63
					c0,0,9.79-17.13,39.57-19.58c29.78-2.44,33.45,4.9,37.94,0.41C567.7,42.07,564.46,37.55,556.81,35.13z M408.7,62.38
					c8.06-2.55,16.75-1.08,24.8,0.85c7.59,1.82,15.73,3.51,22.13,8.21c0.38,0.28,0.51,0.69,0.29,1.12
					c-3.08,6.05-11.62,4.13-16.82,2.52c-10.23-3.17-19.95-7.78-30.2-10.92c-0.18-0.05-0.29-0.15-0.38-0.26
					C408,63.58,407.94,62.62,408.7,62.38z M479.22,93.44c-7.42,3.04-16.28,6.2-24.29,3.62c-0.72-0.23-0.76-1.08-0.19-1.49
					c2.3-1.69,4.81-2.97,7.4-4.11c2.67-1.59,5.3-3.27,7.96-4.81c6.96-4.06,14.03-8,21.44-11.18c9.03-3.88,26.62-10.82,32.31,1.63
					c0.31,0.67-0.19,1.32-0.92,1.2c-10.82-1.88-21.29,5.71-30.97,9.34c-0.59,0.22-1.21,0.41-1.81,0.62
					C486.57,90.13,482.96,91.91,479.22,93.44z M489.93,96.22c-0.98,3.35-3.32,5.89-5.54,8.46c-2.98,3.46-6.27,8.72-11.5,8.41
					c-2.78-0.16-10.41-1.66-9.98-5.69c-0.16-1.89,3.92-3.96,5.27-4.73c6.28-3.58,13.75-6.67,20.96-7.48
					C489.67,95.13,490.07,95.75,489.93,96.22z M467,126.98c-3.57,0.75-5.88-2.74-7.7-5.36c-2.75-3.94-4.91-8.27-7.76-12.12
					c-4.75-6.4-9.38-13.31-15.35-18.67c-7.82-7.02-18.06-10.57-26.22-17.1c-0.63-0.5,0.05-1.65,0.79-1.36
					c5.51,2.16,11.65,2.96,16.91,5.66c8.41,4.31,15.5,11.53,21.79,18.42C451.72,98.91,474.67,125.38,467,126.98z M408.73,112.58
					c7.89-0.33,15.22,3.15,22.82,4.65c4.88,0.97,9.93,0.2,14.8,1.48c2.49,0.65,10.68,6.55,4.06,7.7c-3.94,0.69-9.24-1.35-13.26-1.62
					c-8.47-0.56-15.31-1.67-22.62-6.19c-1.46-0.9-7.38-3.23-7.18-5.26C407.4,112.83,407.93,112.62,408.73,112.58z M394.46,97.65
					c-0.22-0.63,0.32-1.03,0.83-0.99c1.43-2.82,13.99,1.85,15.06,2.18c7.06,2.23,14.2,4.6,21.15,7.17
					c3.63,1.34,8.79,2.39,10.96,5.89c0.4,0.67-0.26,1.32-0.92,1.2c-10.83-1.87-21.84-3.24-32.46-6.1
					C403.59,105.53,396.58,103.58,394.46,97.65z M422.2,127.28c2.7-1.03,5.42,0.29,7.99,1.06c3.32,1,6.74,1.18,10.18,1.04
					c5.49-0.22,11-0.76,16.48-0.13c0.63,0.07,1.18,0.87,0.58,1.39c-8,6.88-19.24,5.99-28.23,1.81c-0.33-0.16-8.41-4.57-7.23-5.08
					C422.04,127.34,422.12,127.3,422.2,127.28z M440.3,82.31c-4.45-0.74-8.48-4.22-12.01-6.81c-0.44-0.32-0.42-0.86-0.19-1.22
					c0-0.48,0.4-1.01,1.02-0.89c3.51,0.7,7.08,1.32,10.49,2.41c1.84,0.59,5.67,1.61,5.77,4.14
					C445.48,82.47,442.12,82.62,440.3,82.31z M376.52,76.66c0.06-0.27,0.19-0.55,0.39-0.82c2.27-3.11,10.41,1.19,12.98,2.13
					c6.39,2.32,12.72,4.57,19.32,6.22c4.3,1.08,8.76,1.85,12.8,3.76c2.06,0.97,4.17,2.23,5.62,4.03c1.35,1.66,1.66,3.36-0.78,4.57
					c-2.46,1.22-5.26-0.52-7.46-1.28c-12.2-4.22-25.54-3.06-36.23-11.46C381.57,82.55,375.85,79.48,376.52,76.66z M371.96,108.21
					c0.46,0.59,0.07,1.64-0.79,1.37c-4.72-1.51-8.69-4.33-13.05-6.59c-4.97-2.59-10.52-4.49-15.79-6.42
					c-5.6-2.05-11.32-3.62-17.18-4.69c-2.92-0.54-6.16,0.02-8.99-0.72c-0.31-0.08-0.5-0.33-0.57-0.61
					c-0.29-0.29-0.38-0.75,0.01-1.11c6.76-6.15,19.5-3.49,27.41-1.53C355.47,91.02,364.15,98.15,371.96,108.21z M314.35,82.79
					c-4.54,2.59-9.59,5.96-14.78,3.5c-0.67,0.71-1.75-0.4-1.11-1.19c10.86-13.4,30.46-12.88,45.13-6.74
					c0.96,0.4,0.62,1.76-0.43,1.57C333.61,78.2,322.99,77.85,314.35,82.79z M289.14,76.36c6.17-8.21,16.17-12.8,25.91-15.04
					c14-3.23,36.8-3,44.8,11.43c0.31,0.57-0.22,1.49-0.92,1.2c-12.61-5.12-26.35-9.54-39.97-5.66
					c-11.21,3.2-19.92,10.67-29.19,17.35c0.07,0.37-0.08,0.76-0.57,0.82C281.8,87.52,287.07,79.12,289.14,76.36z M249.64,101.5
					c-1.94-2.62-0.73-5.46,1.25-7.56c5.63-7.34,17.92-5.05,26.04-4.61c12.57,0.69,27.42,0.3,38.04,8.14
					c0.64,0.48,0.44,1.49-0.41,1.52c-16.72,0.77-35.01-2.52-51.17,2.85C259.65,103.09,252.67,105.6,249.64,101.5z M378.24,128.07
					c-12.89-2.04-24.68-7.08-37.14-10.65c-8.58-2.46-17.36-3.74-26.18-4.89c-14.63-0.94-29.31-0.14-43.3,4.27
					c-5.22,1.65-14.99,5.47-20.01,1.4c-6.19-5.01,1.16-10,5.69-12.28c0.18-0.09,0.36-0.1,0.52-0.06
					c10.81-6.22,25.44-5.76,37.31-5.25c5.31,0.22,10.55,1.03,15.74,2.11c24.04,2.86,46.71,12.74,68,23.88
					C379.75,127.04,379.09,128.21,378.24,128.07z M540.68,84.42c0.69,0.3,0.43,1.31-0.19,1.49c-10.68,3.1-21.87,5.77-31.05,12.37
					c-9.71,6.99-17.91,16.6-25.81,25.53c-5.41,6.11-11.11,12.17-17.75,16.97c-4.92,3.57-10.79,6.98-16.99,6.66
					c-33.81,5.16-58.58-40.87-76.45-63.65c-0.03-0.04-0.04-0.07-0.06-0.11c-0.02-0.01-0.03-0.02-0.05-0.03
					c-0.91-0.52-0.09-1.93,0.82-1.4c7.23,4.15,12.31,10.61,17.5,16.97c5.75,7.04,12.25,13.29,18.83,19.53
					c6.61,6.28,12.76,13.79,20.51,18.72c5.29,3.36,10.69,4.84,16.35,4.4c3.75-1.06,7.45-2.35,10.58-4.64
					c4.93-3.62,9.51-7.86,13.79-12.21c7.88-8.02,14.64-17.1,23.08-24.58c7.04-6.23,14.93-11.78,23.92-14.78
					C524.89,83.26,533.44,81.26,540.68,84.42z M490.56,63.94c11.14-4,25.48-6.69,35.98,0.36c0.77,0.51,0.29,1.69-0.63,1.48
					c-19.34-4.32-37.01,5.12-53.2,14.6c-6.64,3.9-20.69,16.33-27.53,7.14c-0.74-0.21-0.95-1.4-0.05-1.55
					c8.51-1.4,15.45-6.71,22.65-11.07C474.96,70.57,482.67,66.78,490.56,63.94z"/>
				<path class="st6" d="M582.48,133.53c-0.12,0-0.19,0-0.19,0S582.37,133.53,582.48,133.53z"/>
			</g>
			<g>
				<g>
					<polygon class="st7" points="383.62,364.44 408.91,366.48 409.73,355.87 382.4,353.83 					"/>
					<polygon class="st8" points="389.33,341.59 382.4,353.83 409.73,355.87 406.06,341.19 					"/>
				</g>
				<g>
					<polygon class="st7" points="192.49,292.43 172.1,287.13 158.02,305.08 178.63,312.02 					"/>
					<g>
						<polygon class="st9" points="158.02,305.08 158.43,318.55 178.42,324.25 178.63,312.02 						"/>
						<polygon class="st8" points="192.49,292.43 178.63,312.02 178.42,324.25 193.72,304.88 						"/>
					</g>
				</g>
				<g>
					<polygon class="st7" points="334.99,180.42 312.35,174.54 296.73,194.46 319.6,202.16 					"/>
					<g>
						<polygon class="st9" points="296.73,194.46 297.18,209.4 319.37,215.74 319.6,202.16 						"/>
						<polygon class="st8" points="334.99,180.42 319.6,202.16 319.37,215.74 336.35,194.23 						"/>
					</g>
				</g>
				<g>
					<g>
						<polygon class="st7" points="170.22,228.17 170.08,241.03 181.33,255.78 200.4,241.86 201.4,233.15 184.37,246.23 						"/>
						<polygon class="st7" points="170.22,228.17 184.37,246.23 201.4,233.15 184.54,217.6 						"/>
					</g>
					<g>
						<polygon class="st9" points="170.22,228.17 170.08,241.03 181.33,255.78 184.37,246.23 						"/>
						<polygon class="st8" points="184.37,246.23 181.33,255.78 200.4,241.86 201.4,233.15 						"/>
					</g>
				</g>
				<g>
					<g>
						<polygon class="st7" points="642.63,268.97 642.49,281.82 653.74,296.57 672.81,282.65 673.81,273.94 656.78,287.03 						"/>
						<polygon class="st7" points="642.63,268.97 656.78,287.03 673.81,273.94 656.95,258.4 						"/>
					</g>
					<g>
						<polygon class="st9" points="642.63,268.97 642.49,281.82 653.74,296.57 656.78,287.03 						"/>
						<polygon class="st8" points="656.78,287.03 653.74,296.57 672.81,282.65 673.81,273.94 						"/>
					</g>
				</g>
				<g>
					<g>
						<polygon class="st7" points="605.69,142.97 605.6,151.46 613.03,161.2 625.63,152 626.29,146.26 615.04,154.9 						"/>
						<polygon class="st7" points="605.69,142.97 615.04,154.9 626.29,146.26 615.15,135.99 						"/>
					</g>
					<g>
						<polygon class="st9" points="605.69,142.97 605.6,151.46 613.03,161.2 615.04,154.9 						"/>
						<polygon class="st8" points="615.04,154.9 613.03,161.2 625.63,152 626.29,146.26 						"/>
					</g>
				</g>
				<g>
					<g>
						<polygon class="st7" points="331.47,278.7 331.33,291.95 342.93,307.15 362.57,292.81 363.6,283.83 346.06,297.32 						"/>
						<polygon class="st7" points="331.47,278.7 346.06,297.32 363.6,283.83 346.24,267.82 						"/>
					</g>
					<g>
						<polygon class="st9" points="331.47,278.7 331.33,291.95 342.93,307.15 346.06,297.32 						"/>
						<polygon class="st8" points="346.06,297.32 342.93,307.15 362.57,292.81 363.6,283.83 						"/>
					</g>
				</g>
				<g>
					<g>
						<polygon class="st7" points="458.06,216.93 457.11,229.1 466.83,243.8 485.79,231.83 487.29,223.64 470.32,234.96 						"/>
						<polygon class="st7" points="458.06,216.93 470.32,234.96 487.29,223.64 472.32,207.83 						"/>
					</g>
					<g>
						<polygon class="st9" points="458.06,216.93 457.11,229.1 466.83,243.8 470.32,234.96 						"/>
						<polygon class="st8" points="470.32,234.96 466.83,243.8 485.79,231.83 487.29,223.64 						"/>
					</g>
				</g>
				<g>
					<g>
						<polygon class="st7" points="506.96,154.05 506.9,164.13 515.78,175.65 530.67,164.66 531.42,157.83 518.13,168.15 						"/>
						<polygon class="st7" points="506.96,154.05 518.13,168.15 531.42,157.83 518.14,145.71 						"/>
					</g>
					<g>
						<polygon class="st9" points="506.96,154.05 506.9,164.13 515.78,175.65 518.13,168.15 						"/>
						<polygon class="st8" points="518.13,168.15 515.78,175.65 530.67,164.66 531.42,157.83 						"/>
					</g>
				</g>
				<g>
					<g>
						<polygon class="st7" points="344.43,95.21 344.49,107.47 333.69,121.48 315.59,108.11 314.68,99.81 330.84,112.37 						"/>
						<polygon class="st7" points="344.43,95.21 330.84,112.37 314.68,99.81 330.82,85.07 						"/>
					</g>
					<g>
						<polygon class="st9" points="344.43,95.21 344.49,107.47 333.69,121.48 330.84,112.37 						"/>
						<polygon class="st8" points="330.84,112.37 333.69,121.48 315.59,108.11 314.68,99.81 						"/>
					</g>
				</g>
			</g>
			<g>
				<g>
					<path class="st10" d="M410.82,43.24c0,0,1.63-5.98-1.09-11.15l-5.17,8.43c0,0-4.08-8.97-11.15-10.87l3.26,6.8
						c0,0-27.74,0.27-32.63,8.16c-4.89,7.89-1.63,50.86-1.63,50.86s35.63-9.24,50.59-10.33c14.96-1.09,7.34-13.6,5.16-18.49
						c0,0,5.17,2.72,6.53,5.44c0,0,6.53-12.79-5.98-20.67c0,0,8.7,1.36,11.69,3.26C430.4,54.67,424.42,42.16,410.82,43.24z"/>
					<path class="st11" d="M418.7,51.4c0,0,8.7,1.36,11.69,3.26c0,0-5.98-12.51-19.58-11.42c0,0,0.01-0.05,0.03-0.13
						c-6.58,2.22-13.32,4.49-19.07,8.42c-5.71,3.89-10.79,8.8-15.1,14.18c-6.6,8.24-12.35,18.05-14.35,28.55
						c0.05,0.77,0.08,1.2,0.08,1.2s35.63-9.24,50.59-10.33c14.96-1.09,7.34-13.6,5.16-18.49c0,0,5.17,2.72,6.53,5.44
						C424.69,72.08,431.22,59.29,418.7,51.4z"/>
					<path class="st12" d="M373.22,41.55c0,0-8.36,0.81-9.59,7.75c-1.23,6.93-1.23,36.92-1.02,37.33
						C362.82,87.03,364.04,47.05,373.22,41.55z"/>
				</g>
				<g>
					<path class="st10" d="M429.85,20.13c0,0-4.89-7.07-4.62-11.69c0,0-14.42,12.51-3.54,32.09c0,0-0.54,19.85,28.83,25.56
						l-4.35-6.26c0,0,11.42,3.54,20.67,1.36l-6.53-5.98c0,0,14.41,4.89,18.77,0.81c4.35-4.08,14.41-38.07,19.31-40.53
						c0,0-31-20.4-51.4-8.43L446.72,0C446.72,0,430.94,4.63,429.85,20.13z"/>
					<path class="st11" d="M457.37,21.43c-12.78,4.1-25.91,9.5-35.84,18.78c0.06,0.1,0.11,0.21,0.17,0.32
						c0,0-0.54,19.85,28.83,25.56l-4.35-6.26c0,0,11.42,3.54,20.67,1.36l-6.53-5.98c0,0,14.41,4.89,18.77,0.81
						c4.21-3.94,13.75-35.86,18.8-40.18C484.17,16.1,470.75,17.13,457.37,21.43z"/>
					<path class="st12" d="M424.28,10.61c0,0-10.88,12.37-2.45,26.79c0,0-2.99-15.09,3.13-23.25L424.28,10.61z"/>
				</g>
			</g>
			<g>
				<g>
					<g>
						<polygon class="st13" points="291.97,154.75 287.35,159.65 291.15,161.82 294.96,156.65 						"/>
						<polygon class="st13" points="232.1,182.55 226.36,184.13 226.94,187.45 232.07,185.76 						"/>
						<polygon class="st13" points="279.6,220.4 279.82,214.44 276.47,214 276.55,219.4 						"/>
					</g>
					<g>
						<polygon class="st13" points="491.32,199.63 486.7,204.52 490.5,206.7 494.31,201.53 						"/>
						<polygon class="st13" points="431.46,227.42 425.71,229 426.3,232.33 431.42,230.63 						"/>
						<polygon class="st13" points="478.95,265.27 479.17,259.31 475.82,258.88 475.9,264.27 						"/>
					</g>
					<g>
						<polygon class="st13" points="384.71,245.86 380.09,250.76 383.89,252.93 387.7,247.76 						"/>
						<polygon class="st13" points="324.85,273.66 319.1,275.24 319.68,278.56 324.81,276.86 						"/>
						<polygon class="st13" points="372.34,311.5 372.56,305.55 369.21,305.11 369.29,310.51 						"/>
					</g>
					<g>
						<polygon class="st13" points="290.88,247.77 286.26,252.66 290.07,254.84 293.87,249.67 						"/>
						<polygon class="st13" points="231.02,275.56 225.27,277.14 225.86,280.47 230.98,278.77 						"/>
						<polygon class="st13" points="278.51,313.41 278.73,307.45 275.38,307.01 275.46,312.41 						"/>
					</g>
					<g>
						<polygon class="st13" points="548.08,269.61 543.46,274.5 547.26,276.68 551.07,271.51 						"/>
						<polygon class="st13" points="488.22,297.4 482.47,298.98 483.06,302.31 488.18,300.61 						"/>
						<polygon class="st13" points="535.71,335.25 535.93,329.29 532.58,328.85 532.66,334.25 						"/>
					</g>
					<g>
						<polygon class="st13" points="665.11,234.17 660.49,239.06 664.29,241.24 668.1,236.07 						"/>
						<polygon class="st13" points="605.24,261.96 599.5,263.54 600.08,266.87 605.21,265.17 						"/>
						<polygon class="st13" points="652.74,299.81 652.96,293.85 649.61,293.42 649.69,298.81 						"/>
					</g>
					<g>
						<polygon class="st13" points="602.2,143.68 597.98,148.15 601.46,150.14 604.94,145.42 						"/>
						<polygon class="st13" points="547.55,169.06 542.3,170.5 542.84,173.54 547.52,171.99 						"/>
						<polygon class="st13" points="590.91,203.61 591.11,198.18 588.06,197.78 588.12,202.7 						"/>
					</g>
					<g>
						<polygon class="st13" points="427.61,125.45 423.39,129.92 426.86,131.9 430.34,127.19 						"/>
						<polygon class="st13" points="372.96,150.83 367.71,152.27 368.24,155.3 372.92,153.76 						"/>
						<polygon class="st13" points="416.32,185.38 416.52,179.94 413.46,179.55 413.53,184.47 						"/>
					</g>
					<g>
						<polygon class="st13" points="492.6,71.61 487.98,76.51 491.78,78.68 495.59,73.52 						"/>
						<polygon class="st13" points="432.74,99.41 426.99,100.99 427.58,104.31 432.7,102.62 						"/>
						<polygon class="st13" points="480.23,137.26 480.45,131.3 477.1,130.86 477.18,136.26 						"/>
					</g>
					<g>
						<polygon class="st13" points="350.63,61.82 346.01,66.72 349.82,68.89 353.62,63.72 						"/>
						<polygon class="st13" points="290.77,89.62 285.02,91.2 285.61,94.52 290.73,92.83 						"/>
						<polygon class="st13" points="338.27,127.46 338.49,121.51 335.13,121.08 335.21,126.47 						"/>
					</g>
				</g>
			</g>
			<g>
				<g>
					<path class="st14" d="M302.08,131.36c-3.3-0.11-6.03,1.53-8.22,3.82c-0.17,0.17-0.2,0.44-0.09,0.59
						c-0.12,0.33-0.16,0.7-0.11,1.11c0.16,1.13,1.71,1.19,2.52,0.86c0.67-0.28,1.25-0.68,1.83-1.13c0.8-0.61,1.88-0.7,2.84-0.88
						c1.43-0.27,2.89-0.42,3.46-2.02C304.92,132.07,303.44,131.4,302.08,131.36z"/>
					<path class="st14" d="M323.72,150.55c3.27-0.36,5.74-2.38,7.58-4.97c0.14-0.2,0.14-0.47,0-0.61c0.07-0.34,0.06-0.71-0.05-1.11
						c-0.32-1.09-1.87-0.93-2.62-0.49c-0.63,0.38-1.14,0.86-1.65,1.38c-0.7,0.72-1.76,0.97-2.69,1.29
						c-1.37,0.48-2.78,0.84-3.13,2.49C320.81,150.26,322.37,150.7,323.72,150.55z"/>
					<path class="st14" d="M324.59,125.91c-0.3,2.54,0.8,4.74,2.43,6.58c0.12,0.14,0.33,0.19,0.46,0.1
						c0.25,0.11,0.52,0.17,0.84,0.16c0.88-0.06,1.03-1.25,0.82-1.89c-0.17-0.54-0.44-1.01-0.75-1.49c-0.42-0.65-0.42-1.49-0.5-2.24
						c-0.12-1.13-0.15-2.25-1.34-2.8C325.31,123.76,324.71,124.86,324.59,125.91z"/>
					<path class="st14" d="M305.76,161.17c2.54-0.28,4.44-1.84,5.87-3.84c0.11-0.15,0.11-0.36,0-0.47c0.05-0.27,0.05-0.55-0.05-0.86
						c-0.24-0.84-1.44-0.72-2.02-0.37c-0.49,0.29-0.88,0.66-1.28,1.06c-0.54,0.56-1.36,0.75-2.08,0.99
						c-1.06,0.37-2.16,0.65-2.42,1.93C303.51,160.94,304.71,161.29,305.76,161.17z"/>
				</g>
				<g>
					<path class="st14" d="M266.77,93.55c-3.3-0.11-6.02,1.53-8.22,3.82c-0.16,0.18-0.2,0.44-0.09,0.6
						c-0.12,0.33-0.17,0.69-0.11,1.11c0.16,1.13,1.71,1.19,2.52,0.85c0.67-0.28,1.25-0.68,1.83-1.12c0.8-0.61,1.88-0.7,2.84-0.88
						c1.43-0.27,2.88-0.43,3.46-2.02C269.6,94.26,268.13,93.6,266.77,93.55z"/>
					<path class="st14" d="M288.4,112.75c3.27-0.37,5.74-2.39,7.58-4.97c0.14-0.2,0.13-0.47,0-0.6c0.07-0.34,0.06-0.71-0.05-1.11
						c-0.32-1.09-1.87-0.93-2.62-0.49c-0.63,0.37-1.14,0.86-1.65,1.38c-0.7,0.72-1.76,0.96-2.69,1.29
						c-1.38,0.47-2.79,0.84-3.13,2.49C285.49,112.45,287.05,112.9,288.4,112.75z"/>
					<path class="st14" d="M289.27,88.11c-0.3,2.53,0.8,4.74,2.43,6.57c0.12,0.14,0.33,0.19,0.46,0.11
						c0.25,0.11,0.53,0.17,0.84,0.15c0.88-0.05,1.02-1.24,0.82-1.89c-0.17-0.54-0.44-1.01-0.75-1.48c-0.42-0.65-0.42-1.49-0.5-2.25
						c-0.12-1.12-0.15-2.25-1.34-2.8C290,85.96,289.4,87.05,289.27,88.11z"/>
					<path class="st14" d="M270.44,123.36c2.54-0.29,4.44-1.84,5.87-3.85c0.11-0.15,0.1-0.36,0-0.47c0.05-0.27,0.05-0.55-0.04-0.86
						c-0.25-0.84-1.45-0.72-2.03-0.37c-0.49,0.29-0.88,0.66-1.28,1.06c-0.54,0.56-1.36,0.75-2.08,0.99
						c-1.06,0.37-2.16,0.65-2.42,1.93C268.19,123.14,269.4,123.48,270.44,123.36z"/>
				</g>
				<g>
					<path class="st14" d="M230.05,198.8c-3.29-0.11-6.02,1.53-8.22,3.82c-0.17,0.18-0.2,0.44-0.09,0.6
						c-0.12,0.33-0.17,0.69-0.11,1.1c0.16,1.13,1.71,1.19,2.52,0.86c0.67-0.28,1.25-0.68,1.84-1.12c0.79-0.61,1.88-0.7,2.84-0.89
						c1.43-0.27,2.88-0.43,3.46-2.01C232.89,199.52,231.41,198.85,230.05,198.8z"/>
					<path class="st14" d="M251.69,218c3.28-0.37,5.74-2.38,7.58-4.97c0.14-0.2,0.14-0.47,0-0.61c0.07-0.34,0.06-0.7-0.05-1.1
						c-0.32-1.09-1.86-0.93-2.62-0.49c-0.63,0.38-1.14,0.86-1.65,1.38c-0.7,0.72-1.76,0.97-2.69,1.29
						c-1.38,0.47-2.79,0.84-3.13,2.49C248.78,217.71,250.33,218.15,251.69,218z"/>
					<path class="st14" d="M252.56,193.36c-0.29,2.54,0.8,4.74,2.44,6.58c0.12,0.14,0.33,0.18,0.45,0.11
						c0.25,0.11,0.53,0.17,0.85,0.15c0.88-0.05,1.02-1.24,0.82-1.89c-0.18-0.54-0.45-1.01-0.75-1.49c-0.42-0.65-0.42-1.49-0.5-2.25
						c-0.12-1.12-0.15-2.25-1.34-2.8C253.28,191.22,252.68,192.31,252.56,193.36z"/>
					<path class="st14" d="M233.73,228.61c2.54-0.28,4.44-1.84,5.87-3.84c0.11-0.16,0.1-0.36,0-0.47c0.05-0.27,0.05-0.54-0.04-0.86
						c-0.25-0.84-1.44-0.72-2.02-0.37c-0.49,0.29-0.89,0.66-1.28,1.07c-0.54,0.55-1.36,0.74-2.08,0.99
						c-1.07,0.37-2.16,0.65-2.42,1.93C231.48,228.39,232.68,228.73,233.73,228.61z"/>
				</g>
				<g>
					<path class="st14" d="M329.31,160.04c-2.23-0.07-4.08,1.03-5.56,2.59c-0.11,0.11-0.13,0.29-0.06,0.4
						c-0.08,0.22-0.11,0.47-0.07,0.75c0.11,0.76,1.16,0.81,1.71,0.58c0.46-0.19,0.84-0.46,1.24-0.76c0.54-0.41,1.27-0.47,1.92-0.6
						c0.97-0.18,1.95-0.28,2.34-1.36C331.23,160.53,330.23,160.07,329.31,160.04z"/>
					<path class="st14" d="M343.95,173.03c2.22-0.25,3.88-1.61,5.13-3.36c0.09-0.14,0.09-0.32,0-0.41c0.05-0.23,0.04-0.48-0.04-0.76
						c-0.22-0.73-1.26-0.62-1.77-0.32c-0.42,0.26-0.77,0.58-1.12,0.93c-0.47,0.49-1.19,0.65-1.82,0.87
						c-0.93,0.32-1.89,0.56-2.12,1.68C341.98,172.83,343.03,173.13,343.95,173.03z"/>
					<path class="st14" d="M344.54,156.35c-0.2,1.72,0.55,3.21,1.65,4.45c0.08,0.09,0.22,0.12,0.31,0.07
						c0.17,0.08,0.36,0.11,0.57,0.1c0.6-0.04,0.7-0.84,0.55-1.28c-0.12-0.36-0.3-0.68-0.51-1c-0.28-0.44-0.29-1.01-0.34-1.52
						c-0.08-0.76-0.1-1.52-0.91-1.89C345.03,154.91,344.62,155.64,344.54,156.35z"/>
					<path class="st14" d="M331.8,180.21c1.72-0.19,3.01-1.25,3.97-2.61c0.08-0.1,0.08-0.24,0-0.32c0.03-0.18,0.03-0.37-0.03-0.58
						c-0.17-0.57-0.97-0.49-1.37-0.25c-0.33,0.2-0.6,0.45-0.86,0.72c-0.37,0.38-0.92,0.5-1.4,0.68c-0.72,0.24-1.46,0.43-1.64,1.3
						C330.27,180.06,331.09,180.29,331.8,180.21z"/>
				</g>
				<g>
					<path class="st14" d="M475.13,222.39c-3.29-0.11-6.02,1.53-8.21,3.82c-0.17,0.18-0.2,0.44-0.09,0.6
						c-0.12,0.33-0.16,0.69-0.1,1.1c0.16,1.13,1.71,1.19,2.52,0.86c0.68-0.28,1.26-0.68,1.84-1.12c0.79-0.61,1.88-0.7,2.84-0.88
						c1.43-0.27,2.88-0.43,3.46-2.02C477.97,223.1,476.49,222.44,475.13,222.39z"/>
					<path class="st14" d="M496.76,241.58c3.28-0.36,5.74-2.38,7.58-4.97c0.14-0.2,0.14-0.47,0-0.61c0.07-0.34,0.06-0.7-0.05-1.11
						c-0.32-1.09-1.87-0.93-2.62-0.48c-0.63,0.38-1.14,0.86-1.65,1.38c-0.7,0.72-1.76,0.97-2.69,1.29
						c-1.38,0.47-2.79,0.84-3.13,2.49C493.85,241.3,495.41,241.74,496.76,241.58z"/>
					<path class="st14" d="M497.64,216.94c-0.29,2.53,0.8,4.74,2.43,6.58c0.12,0.14,0.33,0.18,0.46,0.11
						c0.25,0.11,0.53,0.16,0.84,0.15c0.88-0.05,1.03-1.24,0.82-1.89c-0.17-0.54-0.44-1.01-0.75-1.48c-0.42-0.65-0.42-1.49-0.5-2.25
						c-0.12-1.12-0.15-2.25-1.34-2.8C498.36,214.8,497.76,215.89,497.64,216.94z"/>
					<path class="st14" d="M478.81,252.2c2.54-0.28,4.44-1.84,5.86-3.84c0.11-0.15,0.11-0.36,0-0.47c0.06-0.27,0.05-0.55-0.04-0.86
						c-0.25-0.85-1.44-0.72-2.02-0.37c-0.49,0.29-0.89,0.66-1.28,1.07c-0.54,0.55-1.36,0.74-2.08,0.99
						c-1.07,0.37-2.16,0.65-2.43,1.93C476.56,251.97,477.76,252.32,478.81,252.2z"/>
				</g>
				<g>
					<path class="st14" d="M387.93,258.01c-3.59-0.12-6.57,1.66-8.96,4.16c-0.18,0.19-0.22,0.48-0.09,0.65
						c-0.13,0.36-0.18,0.75-0.12,1.2c0.17,1.23,1.87,1.3,2.75,0.93c0.74-0.31,1.37-0.74,2-1.23c0.87-0.66,2.05-0.76,3.1-0.96
						c1.56-0.29,3.14-0.46,3.77-2.2C391.02,258.79,389.41,258.07,387.93,258.01z"/>
					<path class="st14" d="M411.51,278.93c3.57-0.4,6.25-2.59,8.26-5.41c0.15-0.22,0.15-0.51,0-0.66c0.08-0.38,0.07-0.77-0.06-1.21
						c-0.35-1.19-2.03-1.02-2.85-0.53c-0.68,0.41-1.25,0.93-1.81,1.5c-0.76,0.78-1.92,1.05-2.92,1.4c-1.5,0.52-3.04,0.91-3.41,2.72
						C408.33,278.61,410.02,279.09,411.51,278.93z"/>
					<path class="st14" d="M412.45,252.07c-0.32,2.76,0.87,5.17,2.65,7.17c0.14,0.16,0.36,0.21,0.5,0.12
						c0.27,0.12,0.57,0.19,0.92,0.16c0.95-0.06,1.12-1.35,0.89-2.06c-0.19-0.59-0.48-1.1-0.82-1.62c-0.46-0.71-0.46-1.63-0.55-2.45
						c-0.13-1.22-0.16-2.45-1.46-3.04C413.24,249.74,412.59,250.93,412.45,252.07z"/>
					<path class="st14" d="M391.93,290.49c2.76-0.31,4.84-2,6.39-4.19c0.12-0.17,0.11-0.39,0-0.51c0.06-0.29,0.05-0.6-0.05-0.93
						c-0.27-0.92-1.57-0.79-2.21-0.41c-0.53,0.32-0.96,0.72-1.4,1.17c-0.59,0.6-1.48,0.81-2.27,1.08c-1.16,0.4-2.35,0.7-2.64,2.11
						C389.48,290.25,390.79,290.62,391.93,290.49z"/>
				</g>
				<g>
					<path class="st14" d="M293.96,278.77c-3.29-0.12-6.02,1.52-8.22,3.82c-0.17,0.17-0.2,0.44-0.09,0.6
						c-0.12,0.33-0.16,0.7-0.11,1.1c0.16,1.13,1.71,1.19,2.52,0.86c0.68-0.28,1.25-0.68,1.84-1.13c0.79-0.61,1.88-0.7,2.84-0.88
						c1.43-0.27,2.88-0.43,3.46-2.02C296.8,279.48,295.33,278.81,293.96,278.77z"/>
					<path class="st14" d="M315.6,297.96c3.28-0.37,5.74-2.38,7.58-4.97c0.14-0.19,0.14-0.46,0-0.6c0.07-0.34,0.06-0.71-0.05-1.11
						c-0.32-1.09-1.86-0.93-2.62-0.48c-0.63,0.38-1.14,0.85-1.65,1.37c-0.7,0.72-1.76,0.97-2.68,1.29
						c-1.38,0.48-2.79,0.84-3.13,2.49C312.69,297.67,314.25,298.11,315.6,297.96z"/>
					<path class="st14" d="M316.47,273.31c-0.29,2.54,0.8,4.74,2.43,6.58c0.13,0.14,0.33,0.18,0.46,0.1
						c0.25,0.11,0.52,0.17,0.84,0.15c0.88-0.05,1.03-1.24,0.82-1.89c-0.17-0.54-0.44-1.01-0.75-1.48c-0.42-0.65-0.42-1.49-0.5-2.25
						c-0.12-1.12-0.15-2.25-1.34-2.8C317.2,271.17,316.59,272.27,316.47,273.31z"/>
					<path class="st14" d="M297.64,308.57c2.54-0.28,4.44-1.84,5.87-3.84c0.11-0.15,0.11-0.36,0-0.47c0.05-0.27,0.05-0.55-0.04-0.86
						c-0.25-0.85-1.44-0.72-2.02-0.38c-0.49,0.29-0.89,0.66-1.28,1.07c-0.54,0.55-1.36,0.75-2.08,0.99
						c-1.07,0.37-2.16,0.65-2.42,1.93C295.39,308.35,296.59,308.69,297.64,308.57z"/>
				</g>
				<g>
					<path class="st14" d="M521.84,139.74c-2.85-0.1-5.21,1.32-7.11,3.3c-0.15,0.15-0.18,0.38-0.08,0.52
						c-0.1,0.29-0.14,0.6-0.09,0.96c0.14,0.97,1.48,1.03,2.18,0.74c0.59-0.24,1.08-0.59,1.59-0.97c0.69-0.53,1.62-0.6,2.46-0.76
						c1.24-0.24,2.49-0.37,3-1.75C524.3,140.36,523.02,139.78,521.84,139.74z"/>
					<path class="st14" d="M540.56,156.35c2.83-0.32,4.97-2.06,6.56-4.31c0.12-0.16,0.12-0.4,0-0.52c0.06-0.3,0.05-0.61-0.05-0.96
						c-0.28-0.94-1.61-0.8-2.27-0.42c-0.54,0.33-0.99,0.74-1.43,1.19c-0.6,0.62-1.52,0.83-2.32,1.11c-1.19,0.41-2.41,0.72-2.71,2.16
						C538.04,156.1,539.39,156.48,540.56,156.35z"/>
					<path class="st14" d="M541.31,135.03c-0.25,2.19,0.69,4.1,2.11,5.69c0.11,0.12,0.28,0.16,0.39,0.09
						c0.22,0.1,0.45,0.15,0.73,0.14c0.76-0.05,0.89-1.08,0.71-1.64c-0.15-0.47-0.38-0.87-0.65-1.28c-0.36-0.56-0.37-1.3-0.44-1.95
						c-0.1-0.97-0.13-1.94-1.16-2.41C541.94,133.17,541.42,134.11,541.31,135.03z"/>
					<path class="st14" d="M525.02,165.53c2.19-0.24,3.84-1.59,5.08-3.33c0.09-0.13,0.09-0.31,0-0.4c0.05-0.23,0.04-0.48-0.04-0.75
						c-0.22-0.73-1.25-0.63-1.75-0.32c-0.42,0.25-0.76,0.57-1.11,0.92c-0.46,0.48-1.18,0.65-1.8,0.86
						c-0.92,0.32-1.87,0.56-2.09,1.67C523.07,165.34,524.11,165.63,525.02,165.53z"/>
				</g>
				<g>
					<path class="st14" d="M434.03,168.62c-3.3-0.11-6.03,1.53-8.22,3.82c-0.17,0.17-0.2,0.44-0.09,0.6
						c-0.12,0.33-0.16,0.7-0.11,1.1c0.16,1.13,1.71,1.19,2.52,0.86c0.67-0.27,1.25-0.68,1.84-1.13c0.79-0.6,1.88-0.7,2.84-0.88
						c1.43-0.27,2.88-0.43,3.46-2.02C436.86,169.33,435.39,168.67,434.03,168.62z"/>
					<path class="st14" d="M455.66,187.81c3.27-0.36,5.74-2.38,7.58-4.97c0.14-0.2,0.14-0.47,0-0.6c0.07-0.35,0.06-0.71-0.05-1.11
						c-0.32-1.09-1.87-0.93-2.62-0.49c-0.63,0.38-1.14,0.86-1.65,1.38c-0.7,0.72-1.76,0.96-2.68,1.28
						c-1.37,0.48-2.79,0.84-3.13,2.49C452.75,187.52,454.31,187.96,455.66,187.81z"/>
					<path class="st14" d="M456.54,163.17c-0.3,2.54,0.8,4.74,2.43,6.58c0.13,0.14,0.33,0.18,0.46,0.1
						c0.25,0.11,0.52,0.17,0.85,0.15c0.88-0.05,1.02-1.24,0.82-1.89c-0.17-0.54-0.45-1.01-0.75-1.48c-0.42-0.65-0.43-1.49-0.51-2.25
						c-0.12-1.12-0.15-2.25-1.34-2.8C457.26,161.02,456.65,162.12,456.54,163.17z"/>
					<path class="st14" d="M437.7,198.42c2.54-0.28,4.44-1.84,5.87-3.84c0.11-0.16,0.1-0.37,0-0.47c0.05-0.27,0.05-0.55-0.04-0.86
						c-0.25-0.85-1.44-0.72-2.02-0.38c-0.49,0.29-0.89,0.66-1.28,1.07c-0.54,0.55-1.36,0.75-2.08,0.99
						c-1.06,0.37-2.16,0.65-2.42,1.93C435.45,198.2,436.66,198.54,437.7,198.42z"/>
				</g>
				<g>
					<path class="st14" d="M381.81,139.24c-3.3-0.11-6.03,1.53-8.22,3.82c-0.16,0.17-0.2,0.44-0.09,0.6
						c-0.12,0.33-0.16,0.7-0.11,1.11c0.16,1.12,1.71,1.19,2.52,0.85c0.68-0.28,1.26-0.68,1.84-1.12c0.79-0.61,1.88-0.7,2.84-0.88
						c1.43-0.27,2.88-0.43,3.46-2.02C384.65,139.95,383.17,139.29,381.81,139.24z"/>
					<path class="st14" d="M403.45,158.44c3.28-0.36,5.74-2.38,7.58-4.97c0.14-0.2,0.14-0.47,0-0.6c0.07-0.34,0.06-0.71-0.05-1.11
						c-0.32-1.09-1.86-0.93-2.62-0.49c-0.63,0.38-1.14,0.86-1.65,1.38c-0.7,0.72-1.76,0.96-2.68,1.28
						c-1.38,0.48-2.79,0.84-3.13,2.49C400.53,158.15,402.09,158.59,403.45,158.44z"/>
					<path class="st14" d="M404.32,133.8c-0.29,2.53,0.8,4.74,2.43,6.57c0.12,0.15,0.33,0.19,0.46,0.11
						c0.25,0.11,0.52,0.17,0.84,0.15c0.88-0.05,1.03-1.25,0.82-1.89c-0.18-0.54-0.45-1.01-0.75-1.48c-0.42-0.65-0.42-1.5-0.5-2.25
						c-0.12-1.12-0.15-2.25-1.34-2.8C405.04,131.65,404.44,132.75,404.32,133.8z"/>
					<path class="st14" d="M385.49,169.05c2.54-0.28,4.44-1.84,5.87-3.84c0.11-0.16,0.11-0.37,0-0.47c0.05-0.27,0.05-0.55-0.04-0.86
						c-0.25-0.85-1.44-0.72-2.02-0.38c-0.49,0.29-0.89,0.66-1.28,1.07c-0.54,0.55-1.36,0.74-2.08,0.99
						c-1.06,0.37-2.16,0.65-2.42,1.93C383.23,168.83,384.44,169.17,385.49,169.05z"/>
				</g>
				<g>
					<path class="st14" d="M491.95,94.37c-3.29-0.11-6.02,1.52-8.22,3.82c-0.16,0.17-0.2,0.44-0.09,0.6
						c-0.12,0.33-0.16,0.7-0.11,1.11c0.16,1.13,1.71,1.19,2.52,0.86c0.68-0.28,1.25-0.68,1.84-1.13c0.79-0.61,1.88-0.7,2.84-0.88
						c1.43-0.27,2.88-0.43,3.46-2.02C494.79,95.08,493.32,94.42,491.95,94.37z"/>
					<path class="st14" d="M513.59,113.57c3.28-0.37,5.74-2.38,7.58-4.97c0.14-0.19,0.14-0.46,0-0.6c0.07-0.34,0.06-0.71-0.05-1.11
						c-0.32-1.09-1.86-0.94-2.62-0.49c-0.63,0.38-1.14,0.85-1.65,1.38c-0.7,0.72-1.76,0.97-2.68,1.28c-1.38,0.48-2.79,0.84-3.13,2.5
						C510.68,113.27,512.24,113.71,513.59,113.57z"/>
					<path class="st14" d="M514.46,88.92c-0.29,2.54,0.8,4.74,2.43,6.58c0.13,0.14,0.33,0.18,0.46,0.11
						c0.25,0.11,0.52,0.17,0.84,0.15c0.88-0.05,1.03-1.24,0.82-1.89c-0.17-0.54-0.44-1.01-0.75-1.49c-0.42-0.65-0.42-1.49-0.5-2.25
						c-0.12-1.12-0.15-2.25-1.34-2.8C515.19,86.78,514.58,87.87,514.46,88.92z"/>
					<path class="st14" d="M495.63,124.18c2.54-0.28,4.44-1.84,5.87-3.84c0.11-0.16,0.11-0.36,0-0.47c0.05-0.26,0.05-0.55-0.04-0.85
						c-0.25-0.85-1.44-0.72-2.03-0.38c-0.49,0.29-0.89,0.66-1.28,1.07c-0.54,0.55-1.36,0.75-2.08,1c-1.07,0.37-2.16,0.65-2.42,1.93
						C493.38,123.95,494.58,124.29,495.63,124.18z"/>
				</g>
				<g>
					<path class="st14" d="M538.46,189.83c-3.29-0.11-6.02,1.52-8.22,3.82c-0.17,0.17-0.2,0.44-0.09,0.6
						c-0.12,0.33-0.16,0.69-0.11,1.1c0.16,1.13,1.71,1.19,2.52,0.86c0.68-0.28,1.25-0.68,1.84-1.13c0.8-0.61,1.88-0.7,2.84-0.88
						c1.43-0.27,2.88-0.43,3.46-2.01C541.3,190.54,539.82,189.88,538.46,189.83z"/>
					<path class="st14" d="M560.1,209.02c3.28-0.36,5.74-2.38,7.58-4.97c0.14-0.2,0.14-0.47,0-0.61c0.07-0.34,0.06-0.71-0.05-1.1
						c-0.32-1.09-1.86-0.93-2.61-0.49c-0.63,0.38-1.14,0.85-1.65,1.38c-0.7,0.72-1.76,0.97-2.69,1.29
						c-1.38,0.47-2.79,0.84-3.13,2.49C557.19,208.73,558.75,209.17,560.1,209.02z"/>
					<path class="st14" d="M560.97,184.38c-0.29,2.53,0.81,4.74,2.43,6.58c0.13,0.14,0.33,0.18,0.46,0.11
						c0.24,0.11,0.52,0.17,0.84,0.15c0.88-0.05,1.03-1.24,0.82-1.89c-0.17-0.54-0.44-1.01-0.75-1.49c-0.42-0.65-0.42-1.49-0.5-2.25
						c-0.12-1.12-0.15-2.25-1.34-2.8C561.69,182.24,561.09,183.33,560.97,184.38z"/>
					<path class="st14" d="M542.14,219.64c2.54-0.28,4.44-1.84,5.87-3.84c0.11-0.16,0.11-0.36,0-0.47c0.06-0.27,0.05-0.54-0.04-0.86
						c-0.25-0.84-1.44-0.72-2.02-0.37c-0.49,0.29-0.89,0.66-1.28,1.06c-0.54,0.56-1.36,0.75-2.08,1c-1.06,0.37-2.16,0.65-2.42,1.93
						C539.89,219.42,541.09,219.75,542.14,219.64z"/>
				</g>
				<g>
					<path class="st14" d="M492.54,301.05c-3.29-0.11-6.02,1.52-8.22,3.82c-0.17,0.17-0.2,0.44-0.09,0.6
						c-0.12,0.33-0.17,0.69-0.11,1.1c0.16,1.12,1.71,1.19,2.52,0.86c0.67-0.28,1.25-0.68,1.84-1.13c0.79-0.61,1.88-0.7,2.84-0.88
						c1.43-0.27,2.88-0.43,3.46-2.01C495.38,301.76,493.9,301.1,492.54,301.05z"/>
					<path class="st14" d="M514.18,320.25c3.28-0.37,5.74-2.38,7.58-4.97c0.14-0.2,0.14-0.47,0-0.6c0.07-0.35,0.06-0.71-0.06-1.11
						c-0.32-1.09-1.86-0.93-2.62-0.48c-0.63,0.38-1.14,0.86-1.65,1.38c-0.7,0.72-1.76,0.97-2.69,1.28c-1.38,0.48-2.79,0.84-3.13,2.5
						C511.27,319.95,512.82,320.39,514.18,320.25z"/>
					<path class="st14" d="M515.05,295.6c-0.29,2.53,0.81,4.74,2.43,6.58c0.12,0.14,0.32,0.18,0.46,0.11
						c0.25,0.11,0.52,0.17,0.84,0.15c0.88-0.05,1.03-1.24,0.82-1.89c-0.17-0.54-0.45-1.01-0.76-1.48c-0.42-0.65-0.42-1.5-0.5-2.25
						c-0.12-1.12-0.15-2.25-1.34-2.79C515.77,293.45,515.17,294.55,515.05,295.6z"/>
					<path class="st14" d="M496.22,330.85c2.54-0.28,4.44-1.84,5.87-3.84c0.11-0.16,0.11-0.36,0-0.47c0.05-0.27,0.05-0.55-0.04-0.86
						c-0.25-0.85-1.45-0.72-2.03-0.38c-0.49,0.29-0.88,0.66-1.28,1.07c-0.54,0.56-1.36,0.75-2.08,1c-1.06,0.37-2.16,0.65-2.42,1.93
						C493.97,330.63,495.17,330.97,496.22,330.85z"/>
				</g>
				<g>
					<path class="st14" d="M566.89,246.9c-3.3-0.11-6.03,1.52-8.22,3.82c-0.17,0.17-0.2,0.44-0.09,0.6
						c-0.12,0.33-0.17,0.69-0.11,1.1c0.16,1.13,1.71,1.19,2.52,0.86c0.68-0.28,1.25-0.68,1.84-1.12c0.8-0.61,1.88-0.7,2.84-0.89
						c1.43-0.27,2.88-0.43,3.46-2.01C569.72,247.61,568.25,246.94,566.89,246.9z"/>
					<path class="st14" d="M588.52,266.09c3.27-0.36,5.74-2.38,7.58-4.97c0.14-0.19,0.14-0.46,0-0.6c0.07-0.34,0.06-0.71-0.05-1.11
						c-0.32-1.09-1.87-0.93-2.61-0.49c-0.63,0.38-1.14,0.86-1.65,1.38c-0.7,0.72-1.76,0.97-2.69,1.29
						c-1.37,0.48-2.79,0.84-3.13,2.49C585.61,265.8,587.17,266.24,588.52,266.09z"/>
					<path class="st14" d="M589.39,241.45c-0.29,2.54,0.81,4.74,2.43,6.58c0.13,0.14,0.33,0.19,0.46,0.1
						c0.24,0.11,0.52,0.17,0.84,0.15c0.88-0.05,1.03-1.24,0.82-1.89c-0.17-0.54-0.44-1.01-0.75-1.48c-0.42-0.65-0.42-1.5-0.5-2.25
						c-0.12-1.12-0.15-2.25-1.34-2.79C590.12,239.31,589.51,240.4,589.39,241.45z"/>
					<path class="st14" d="M570.56,276.7c2.54-0.28,4.44-1.84,5.87-3.84c0.11-0.16,0.1-0.36,0-0.47c0.05-0.27,0.05-0.55-0.04-0.86
						c-0.25-0.84-1.44-0.72-2.03-0.37c-0.48,0.29-0.88,0.66-1.28,1.06c-0.54,0.56-1.36,0.75-2.08,1c-1.06,0.37-2.16,0.65-2.42,1.93
						C568.31,276.48,569.52,276.82,570.56,276.7z"/>
				</g>
			</g>
		</g>
	</g>
</g>
</svg>
