<?xml version="1.0" encoding="utf-8"?>
<!-- Generator: Adobe Illustrator 25.4.1, SVG Export Plug-In . SVG Version: 6.00 Build 0)  -->
<svg version="1.1" id="Layer_1" xmlns="http://www.w3.org/2000/svg" xmlns:xlink="http://www.w3.org/1999/xlink" x="0px" y="0px"
	 viewBox="0 0 220.47 188.41" style="enable-background:new 0 0 220.47 188.41;" xml:space="preserve">
<style type="text/css">
	.st0{fill:#9B1C1F;}
	.st1{fill:#DC1F27;}
	.st2{fill:#A11D21;}
	.st3{opacity:0.15;fill:#E8CEB0;}
	.st4{fill:#EECAAF;}
</style>
<g>
	<g>
		<path class="st0" d="M140.04,20.62c0,0-6.75-16.12-13.87-18.74c20.24,8.62,22.74,15.75,22.74,15.75S148.29,7.5,157.66,0
			c-1.5,12,0,20.62,0,20.62l-10.5,12L140.04,20.62z"/>
		<path class="st1" d="M158.31,48.26c0,0-3.88-30,12.43-40.88c-15.54,5.44-17.92,13.21-17.92,13.21s-13.15-12.43-32.58-9.32
			c14.76,7.77,19.42,36.99,19.42,36.99H158.31z"/>
		<path class="st1" d="M152.82,44.67c0,0-67.65-24.86-67.65,46.62c0,83.91,67.65,70.7,67.65,70.7s67.65,13.21,67.65-70.7
			C220.47,19.81,152.82,44.67,152.82,44.67z"/>
		<path class="st2" d="M170.74,143.14c0,0-67.65,13.21-67.65-70.7c0-11.77,1.84-20.92,4.91-28.01
			C95.46,50.2,85.17,63.42,85.17,91.29c0,83.91,67.65,70.7,67.65,70.7s39.37,7.68,58.04-25.93
			C192.13,147.32,170.74,143.14,170.74,143.14z"/>
		<path class="st0" d="M143.51,42.16c0,0-1.35-14.9-7.62-21.94c7.54,6.23,13.02,17.82,13.13,23.27
			C144.72,42.42,143.51,42.16,143.51,42.16z"/>
		<path class="st3" d="M185.56,41.02c-12.16,8.75-25.33,24.79-14.82,50.19c10.1,24.4,31,28.18,46.85,27.04
			c1.83-7.63,2.87-16.55,2.87-26.96C220.47,54.79,202.82,43.42,185.56,41.02z"/>
		<path class="st3" d="M87.78,69.85c22.6,5.78,73.78,14.97,129.76-1.17c-12.99-43.02-64.71-24.01-64.71-24.01
			S100.18,25.34,87.78,69.85z"/>
	</g>
	<g>
		<path class="st0" d="M55.75,46.32c0,0-10.48-13.98-18.03-14.79c21.74,3.42,25.9,9.72,25.9,9.72s-3.07-9.67,4.18-19.23
			c1.48,12,5.04,19.99,5.04,19.99l-7.25,14.2L55.75,46.32z"/>
		<path class="st0" d="M65.55,68.66c0,0-80.14-5.45-62.69,63.86c20.49,81.37,91.34,49.9,91.34,49.9s77.3-5.85,56.8-87.21
			C133.54,25.9,65.55,68.66,65.55,68.66z"/>
		<path class="st1" d="M80.22,68.66c0,0-11.09-28.14,2.07-42.68c-13.74,9.07-14.16,17.19-14.16,17.19s-15.79-8.84-33.87-1.09
			c16.21,3.93,27.87,31.13,27.87,31.13L80.22,68.66z"/>
		<path class="st1" d="M74.02,66.53c0,0-71.67-7.59-54.21,61.72c20.49,81.37,82.87,52.04,82.87,52.04s68.82-3.71,48.33-85.08
			C133.54,25.9,74.02,66.53,74.02,66.53z"/>
		<path class="st4" d="M75.78,73.54c0,0-62.53-6.62-47.3,53.86c17.88,70.99,72.3,45.4,72.3,45.4s60.05-3.24,42.17-74.23
			C127.72,38.09,75.78,73.54,75.78,73.54z"/>
		<g>
			<path class="st0" d="M44.29,97.28c0.85,3.36-1.19,6.77-4.55,7.61c-3.36,0.85-6.77-1.19-7.61-4.55c-0.85-3.36,1.19-6.77,4.55-7.61
				C40.03,91.88,43.44,93.92,44.29,97.28z"/>
			<path class="st4" d="M41.05,96.29c0.3,1.19-0.42,2.39-1.61,2.69c-1.19,0.3-2.39-0.42-2.69-1.61c-0.3-1.19,0.42-2.39,1.61-2.69
				C39.55,94.38,40.75,95.1,41.05,96.29z"/>
		</g>
		<g>
			<path class="st0" d="M45.7,114.75c0.85,3.36-1.19,6.77-4.55,7.61c-3.36,0.85-6.77-1.19-7.61-4.55c-0.85-3.36,1.19-6.77,4.55-7.61
				C41.45,109.35,44.86,111.39,45.7,114.75z"/>
			<path class="st4" d="M42.47,113.76c0.3,1.19-0.42,2.39-1.61,2.69c-1.19,0.3-2.39-0.42-2.69-1.61c-0.3-1.19,0.42-2.39,1.61-2.69
				C40.96,111.85,42.17,112.57,42.47,113.76z"/>
		</g>
		<g>
			<path class="st0" d="M50.77,134.87c0.85,3.36-1.19,6.77-4.55,7.61c-3.36,0.85-6.77-1.19-7.61-4.55
				c-0.85-3.36,1.19-6.77,4.55-7.61C46.51,129.47,49.92,131.51,50.77,134.87z"/>
			<path class="st4" d="M47.54,133.88c0.3,1.19-0.42,2.39-1.61,2.69c-1.19,0.3-2.39-0.42-2.69-1.61c-0.3-1.19,0.42-2.39,1.61-2.69
				C46.03,131.97,47.24,132.69,47.54,133.88z"/>
		</g>
		<g>
			<path class="st0" d="M60.93,149.55c0.85,3.36-1.19,6.77-4.55,7.61c-3.36,0.85-6.77-1.19-7.61-4.55
				c-0.85-3.36,1.19-6.77,4.55-7.61C56.68,144.15,60.09,146.19,60.93,149.55z"/>
			<path class="st4" d="M57.7,148.56c0.3,1.19-0.42,2.39-1.61,2.69c-1.19,0.3-2.39-0.42-2.69-1.61c-0.3-1.19,0.42-2.39,1.61-2.69
				C56.2,146.65,57.4,147.37,57.7,148.56z"/>
		</g>
		<g>
			<path class="st0" d="M74.16,162.56c0.85,3.36-1.19,6.77-4.55,7.61c-3.36,0.85-6.77-1.19-7.61-4.55
				c-0.85-3.36,1.19-6.77,4.55-7.61C69.91,157.16,73.32,159.2,74.16,162.56z"/>
			<path class="st4" d="M70.93,161.57c0.3,1.19-0.42,2.39-1.61,2.69c-1.19,0.3-2.39-0.42-2.69-1.61c-0.3-1.19,0.42-2.39,1.61-2.69
				C69.42,159.66,70.63,160.38,70.93,161.57z"/>
		</g>
		<g>
			<circle class="st0" cx="70.86" cy="149.43" r="6.27"/>
			<path class="st4" d="M73.7,146.91c0.3,1.19-0.42,2.39-1.61,2.69c-1.19,0.3-2.39-0.42-2.69-1.61c-0.3-1.19,0.42-2.39,1.61-2.69
				C72.2,145,73.41,145.72,73.7,146.91z"/>
		</g>
		<g>
			<path class="st0" d="M67.45,131.15c0.85,3.36-1.19,6.77-4.55,7.61c-3.36,0.85-6.77-1.19-7.61-4.55
				c-0.85-3.36,1.19-6.77,4.55-7.61C63.2,125.76,66.6,127.79,67.45,131.15z"/>
			<path class="st4" d="M64.22,130.17c0.3,1.19-0.42,2.39-1.61,2.69c-1.19,0.3-2.39-0.42-2.69-1.61c-0.3-1.19,0.42-2.39,1.61-2.69
				C62.71,128.26,63.92,128.98,64.22,130.17z"/>
		</g>
		<g>
			<path class="st0" d="M61.3,106.73c0.85,3.36-1.19,6.77-4.55,7.61c-3.36,0.85-6.77-1.19-7.61-4.55c-0.85-3.36,1.19-6.77,4.55-7.61
				C57.05,101.34,60.45,103.37,61.3,106.73z"/>
			<path class="st4" d="M58.07,105.75c0.3,1.19-0.42,2.39-1.61,2.69c-1.19,0.3-2.39-0.42-2.69-1.61s0.42-2.39,1.61-2.69
				C56.56,103.84,57.77,104.56,58.07,105.75z"/>
		</g>
		<g>
			<path class="st0" d="M62.6,86.2c0.85,3.36-1.19,6.77-4.55,7.61c-3.36,0.85-6.77-1.19-7.61-4.55c-0.85-3.36,1.19-6.77,4.55-7.61
				C58.34,80.8,61.75,82.84,62.6,86.2z"/>
			<path class="st4" d="M59.36,85.21c0.3,1.19-0.42,2.39-1.61,2.69c-1.19,0.3-2.39-0.42-2.69-1.61c-0.3-1.19,0.42-2.39,1.61-2.69
				C57.86,83.3,59.06,84.02,59.36,85.21z"/>
		</g>
		<g>
			<path class="st0" d="M77.58,102.63c0.85,3.36-1.19,6.77-4.55,7.61c-3.36,0.85-6.77-1.19-7.61-4.55
				c-0.85-3.36,1.19-6.77,4.55-7.61C73.33,97.24,76.74,99.27,77.58,102.63z"/>
			<path class="st4" d="M74.35,101.64c0.3,1.19-0.42,2.39-1.61,2.69c-1.19,0.3-2.39-0.42-2.69-1.61c-0.3-1.19,0.42-2.39,1.61-2.69
				C72.85,99.74,74.05,100.46,74.35,101.64z"/>
		</g>
		<g>
			<path class="st0" d="M84.89,119.81c0.85,3.36-1.19,6.77-4.55,7.61c-3.36,0.85-6.77-1.19-7.61-4.55
				c-0.85-3.36,1.19-6.77,4.55-7.61C80.64,114.41,84.05,116.45,84.89,119.81z"/>
			<path class="st4" d="M81.66,118.82c0.3,1.19-0.42,2.39-1.61,2.69c-1.19,0.3-2.39-0.42-2.69-1.61c-0.3-1.19,0.42-2.39,1.61-2.69
				C80.16,116.91,81.36,117.63,81.66,118.82z"/>
		</g>
		<g>
			<path class="st0" d="M98.01,136.12c0.85,3.36-1.19,6.77-4.55,7.61c-3.36,0.85-6.77-1.19-7.61-4.55
				c-0.85-3.36,1.19-6.77,4.55-7.61C93.76,130.72,97.17,132.76,98.01,136.12z"/>
			<path class="st4" d="M94.78,135.13c0.3,1.19-0.42,2.39-1.61,2.69c-1.19,0.3-2.39-0.42-2.69-1.61c-0.3-1.19,0.42-2.39,1.61-2.69
				C93.27,133.23,94.48,133.95,94.78,135.13z"/>
		</g>
		<g>
			<path class="st0" d="M99.34,158.6c0.85,3.36-1.19,6.77-4.55,7.61c-3.36,0.85-6.77-1.19-7.61-4.55c-0.85-3.36,1.19-6.77,4.55-7.61
				C95.09,153.2,98.5,155.24,99.34,158.6z"/>
			<path class="st4" d="M96.11,157.61c0.3,1.19-0.42,2.39-1.61,2.69c-1.19,0.3-2.39-0.42-2.69-1.61c-0.3-1.19,0.42-2.39,1.61-2.69
				C94.61,155.7,95.81,156.42,96.11,157.61z"/>
		</g>
		<g>
			<circle class="st1" cx="76.38" cy="137.38" r="6.27"/>
			<path class="st4" d="M79.23,134.87c0.3,1.19-0.42,2.39-1.61,2.69c-1.19,0.3-2.39-0.42-2.69-1.61c-0.3-1.19,0.42-2.39,1.61-2.69
				C77.73,132.96,78.93,133.68,79.23,134.87z"/>
		</g>
		<g>
			<path class="st1" d="M74.19,118.41c0.85,3.36-1.19,6.77-4.55,7.61c-3.36,0.85-6.77-1.19-7.61-4.55
				c-0.85-3.36,1.19-6.77,4.55-7.61C69.94,113.02,73.35,115.05,74.19,118.41z"/>
			<path class="st4" d="M70.96,117.43c0.3,1.19-0.42,2.39-1.61,2.69c-1.19,0.3-2.39-0.42-2.69-1.61c-0.3-1.19,0.42-2.39,1.61-2.69
				C69.46,115.52,70.66,116.24,70.96,117.43z"/>
		</g>
		<g>
			<path class="st1" d="M60.01,120.18c0.85,3.36-1.19,6.77-4.55,7.61c-3.36,0.85-6.77-1.19-7.61-4.55
				c-0.85-3.36,1.19-6.77,4.55-7.61C55.75,114.79,59.16,116.83,60.01,120.18z"/>
			<path class="st4" d="M56.77,119.2c0.3,1.19-0.42,2.39-1.61,2.69c-1.19,0.3-2.39-0.42-2.69-1.61c-0.3-1.19,0.42-2.39,1.61-2.69
				C55.27,117.29,56.48,118.01,56.77,119.2z"/>
		</g>
		<g>
			<path class="st1" d="M57.48,96.33c0.85,3.36-1.19,6.77-4.55,7.61c-3.36,0.85-6.77-1.19-7.61-4.55c-0.85-3.36,1.19-6.77,4.55-7.61
				C53.23,90.94,56.64,92.97,57.48,96.33z"/>
			<path class="st4" d="M54.25,95.35c0.3,1.19-0.42,2.39-1.61,2.69c-1.19,0.3-2.39-0.42-2.69-1.61c-0.3-1.19,0.42-2.39,1.61-2.69
				C52.75,93.44,53.95,94.16,54.25,95.35z"/>
		</g>
		<g>
			<path class="st1" d="M68.7,96.6c0.85,3.36-1.19,6.77-4.55,7.61c-3.36,0.85-6.77-1.19-7.61-4.55c-0.85-3.36,1.19-6.77,4.55-7.61
				C64.44,91.2,67.85,93.24,68.7,96.6z"/>
			<path class="st4" d="M65.47,95.61c0.3,1.19-0.42,2.39-1.61,2.69c-1.19,0.3-2.39-0.42-2.69-1.61c-0.3-1.19,0.42-2.39,1.61-2.69
				C63.96,93.71,65.17,94.43,65.47,95.61z"/>
		</g>
		<g>
			<path class="st1" d="M79.36,113.99c0.85,3.36-1.19,6.77-4.55,7.61c-3.36,0.85-6.77-1.19-7.61-4.55
				c-0.85-3.36,1.19-6.77,4.55-7.61C75.1,108.6,78.51,110.64,79.36,113.99z"/>
			<path class="st4" d="M76.12,113.01c0.3,1.19-0.42,2.39-1.61,2.69c-1.19,0.3-2.39-0.42-2.69-1.61c-0.3-1.19,0.42-2.39,1.61-2.69
				C74.62,111.1,75.82,111.82,76.12,113.01z"/>
		</g>
		<g>
			<path class="st1" d="M104.66,105.82c0.85,3.36-1.19,6.77-4.55,7.61c-3.36,0.85-6.77-1.19-7.61-4.55
				c-0.85-3.36,1.19-6.77,4.55-7.61C100.41,100.42,103.82,102.46,104.66,105.82z"/>
			<path class="st4" d="M101.43,104.83c0.3,1.19-0.42,2.39-1.61,2.69c-1.19,0.3-2.39-0.42-2.69-1.61c-0.3-1.19,0.42-2.39,1.61-2.69
				C99.92,102.93,101.13,103.65,101.43,104.83z"/>
		</g>
		<g>
			<circle class="st1" cx="94.48" cy="87.5" r="6.27"/>
			<path class="st4" d="M97.33,84.98c0.3,1.19-0.42,2.39-1.61,2.69c-1.19,0.3-2.39-0.42-2.69-1.61c-0.3-1.19,0.42-2.39,1.61-2.69
				C95.82,83.07,97.03,83.79,97.33,84.98z"/>
		</g>
		<g>
			<path class="st1" d="M97.03,73.92c0.85,3.36-1.19,6.77-4.55,7.61c-3.36,0.85-6.77-1.19-7.61-4.55c-0.85-3.36,1.19-6.77,4.55-7.61
				S96.18,70.56,97.03,73.92z"/>
			<path class="st4" d="M93.79,72.93c0.3,1.19-0.42,2.39-1.61,2.69c-1.19,0.3-2.39-0.42-2.69-1.61c-0.3-1.19,0.42-2.39,1.61-2.69
				C92.29,71.03,93.49,71.75,93.79,72.93z"/>
		</g>
		<g>
			
				<ellipse transform="matrix(0.2953 -0.9554 0.9554 0.2953 -13.8734 161.0897)" class="st1" cx="102.26" cy="89.95" rx="6.27" ry="6.27"/>
			<path class="st4" d="M105.11,87.43c0.3,1.19-0.42,2.39-1.61,2.69c-1.19,0.3-2.39-0.42-2.69-1.61c-0.3-1.19,0.42-2.39,1.61-2.69
				C103.61,85.52,104.81,86.24,105.11,87.43z"/>
		</g>
		<g>
			<path class="st1" d="M60.22,82.71c0.85,3.36-1.19,6.77-4.55,7.61c-3.36,0.85-6.77-1.19-7.61-4.55c-0.85-3.36,1.19-6.77,4.55-7.61
				C55.96,77.31,59.37,79.35,60.22,82.71z"/>
			<path class="st4" d="M56.98,81.72c0.3,1.19-0.42,2.39-1.61,2.69c-1.19,0.3-2.39-0.42-2.69-1.61c-0.3-1.19,0.42-2.39,1.61-2.69
				C55.48,79.81,56.68,80.53,56.98,81.72z"/>
		</g>
		<g>
			<path class="st1" d="M69.76,111.07c0.85,3.36-1.19,6.77-4.55,7.61c-3.36,0.85-6.77-1.19-7.61-4.55
				c-0.85-3.36,1.19-6.77,4.55-7.61C65.5,105.67,68.91,107.71,69.76,111.07z"/>
			<path class="st4" d="M66.52,110.08c0.3,1.19-0.42,2.39-1.61,2.69c-1.19,0.3-2.39-0.42-2.69-1.61c-0.3-1.19,0.42-2.39,1.61-2.69
				C65.02,108.18,66.23,108.9,66.52,110.08z"/>
		</g>
		<g>
			<path class="st1" d="M54.59,112.51c0.85,3.36-1.19,6.77-4.55,7.61c-3.36,0.85-6.77-1.19-7.61-4.55
				c-0.85-3.36,1.19-6.77,4.55-7.61S53.75,109.15,54.59,112.51z"/>
			<path class="st4" d="M51.36,111.52c0.3,1.19-0.42,2.39-1.61,2.69c-1.19,0.3-2.39-0.42-2.69-1.61c-0.3-1.19,0.42-2.39,1.61-2.69
				C49.85,109.62,51.06,110.34,51.36,111.52z"/>
		</g>
		<g>
			<path class="st1" d="M44.68,124.53c0.85,3.36-1.19,6.77-4.55,7.61c-3.36,0.85-6.77-1.19-7.61-4.55
				c-0.85-3.36,1.19-6.77,4.55-7.61S43.84,121.17,44.68,124.53z"/>
			<path class="st4" d="M41.45,123.54c0.3,1.19-0.42,2.39-1.61,2.69c-1.19,0.3-2.39-0.42-2.69-1.61c-0.3-1.19,0.42-2.39,1.61-2.69
				C39.94,121.63,41.15,122.35,41.45,123.54z"/>
		</g>
		<g>
			<path class="st1" d="M85.91,123.85c0.85,3.36-1.19,6.77-4.55,7.61s-6.77-1.19-7.61-4.55c-0.85-3.36,1.19-6.77,4.55-7.61
				C81.66,118.45,85.07,120.49,85.91,123.85z"/>
			<path class="st4" d="M82.68,122.86c0.3,1.19-0.42,2.39-1.61,2.69c-1.19,0.3-2.39-0.42-2.69-1.61c-0.3-1.19,0.42-2.39,1.61-2.69
				C81.18,120.96,82.38,121.68,82.68,122.86z"/>
		</g>
		<g>
			<path class="st1" d="M72.62,130.33c0.85,3.36-1.19,6.77-4.55,7.61c-3.36,0.85-6.77-1.19-7.61-4.55
				c-0.85-3.36,1.19-6.77,4.55-7.61C68.37,124.94,71.78,126.97,72.62,130.33z"/>
			<path class="st4" d="M69.39,129.35c0.3,1.19-0.42,2.39-1.61,2.69c-1.19,0.3-2.39-0.42-2.69-1.61c-0.3-1.19,0.42-2.39,1.61-2.69
				C67.89,127.44,69.09,128.16,69.39,129.35z"/>
		</g>
		<g>
			<path class="st1" d="M51.18,103.3c0.85,3.36-1.19,6.77-4.55,7.61c-3.36,0.85-6.77-1.19-7.61-4.55c-0.85-3.36,1.19-6.77,4.55-7.61
				C46.93,97.9,50.34,99.94,51.18,103.3z"/>
			<path class="st4" d="M47.95,102.31c0.3,1.19-0.42,2.39-1.61,2.69c-1.19,0.3-2.39-0.42-2.69-1.61c-0.3-1.19,0.42-2.39,1.61-2.69
				C46.45,100.4,47.65,101.12,47.95,102.31z"/>
		</g>
		<g>
			<path class="st1" d="M59.7,139.88c0.85,3.36-1.19,6.77-4.55,7.61c-3.36,0.85-6.77-1.19-7.61-4.55c-0.85-3.36,1.19-6.77,4.55-7.61
				C55.44,134.48,58.85,136.52,59.7,139.88z"/>
			<path class="st4" d="M56.46,138.89c0.3,1.19-0.42,2.39-1.61,2.69c-1.19,0.3-2.39-0.42-2.69-1.61c-0.3-1.19,0.42-2.39,1.61-2.69
				C54.96,136.99,56.16,137.71,56.46,138.89z"/>
		</g>
		<g>
			<path class="st1" d="M76.57,157.86c0.85,3.36-1.19,6.77-4.55,7.61c-3.36,0.85-6.77-1.19-7.61-4.55
				c-0.85-3.36,1.19-6.77,4.55-7.61C72.32,152.47,75.73,154.5,76.57,157.86z"/>
			<path class="st4" d="M73.34,156.88c0.3,1.19-0.42,2.39-1.61,2.69c-1.19,0.3-2.39-0.42-2.69-1.61c-0.3-1.19,0.42-2.39,1.61-2.69
				C71.83,154.97,73.04,155.69,73.34,156.88z"/>
		</g>
		<g>
			<path class="st1" d="M69.48,150.26c0.85,3.36-1.19,6.77-4.55,7.61c-3.36,0.85-6.77-1.19-7.61-4.55
				c-0.85-3.36,1.19-6.77,4.55-7.61C65.22,144.86,68.63,146.9,69.48,150.26z"/>
			<path class="st4" d="M66.24,149.27c0.3,1.19-0.42,2.39-1.61,2.69c-1.19,0.3-2.39-0.42-2.69-1.61c-0.3-1.19,0.42-2.39,1.61-2.69
				C64.74,147.36,65.95,148.08,66.24,149.27z"/>
		</g>
		<g>
			
				<ellipse transform="matrix(0.5991 -0.8007 0.8007 0.5991 -92.6252 145.3773)" class="st1" cx="98.86" cy="165.19" rx="6.27" ry="6.27"/>
			<path class="st4" d="M101.71,162.67c0.3,1.19-0.42,2.39-1.61,2.69c-1.19,0.3-2.39-0.42-2.69-1.61c-0.3-1.19,0.42-2.39,1.61-2.69
				C100.21,160.76,101.41,161.48,101.71,162.67z"/>
		</g>
		<g>
			<path class="st1" d="M68.86,141.08c0.85,3.36-1.19,6.77-4.55,7.61c-3.36,0.85-6.77-1.19-7.61-4.55
				c-0.85-3.36,1.19-6.77,4.55-7.61C64.61,135.68,68.02,137.72,68.86,141.08z"/>
			<path class="st4" d="M65.63,140.09c0.3,1.19-0.42,2.39-1.61,2.69c-1.19,0.3-2.39-0.42-2.69-1.61c-0.3-1.19,0.42-2.39,1.61-2.69
				C64.12,138.19,65.33,138.91,65.63,140.09z"/>
		</g>
		<g>
			<path class="st1" d="M87.03,157.52c0.85,3.36-1.19,6.77-4.55,7.61c-3.36,0.85-6.77-1.19-7.61-4.55
				c-0.85-3.36,1.19-6.77,4.55-7.61C82.77,152.12,86.18,154.16,87.03,157.52z"/>
			<path class="st4" d="M83.79,156.53c0.3,1.19-0.42,2.39-1.61,2.69c-1.19,0.3-2.39-0.42-2.69-1.61c-0.3-1.19,0.42-2.39,1.61-2.69
				C82.29,154.62,83.49,155.34,83.79,156.53z"/>
		</g>
		<g>
			
				<ellipse transform="matrix(0.5966 -0.8025 0.8025 0.5966 -81.7911 133.6429)" class="st1" cx="92.04" cy="148.18" rx="6.27" ry="6.27"/>
			<path class="st4" d="M94.89,145.66c0.3,1.19-0.42,2.39-1.61,2.69c-1.19,0.3-2.39-0.42-2.69-1.61c-0.3-1.19,0.42-2.39,1.61-2.69
				C93.38,143.75,94.59,144.47,94.89,145.66z"/>
		</g>
		<g>
			<path class="st1" d="M50.66,87.4c0.85,3.36-1.19,6.77-4.55,7.61s-6.77-1.19-7.61-4.55c-0.85-3.36,1.19-6.77,4.55-7.61
				C46.41,82,49.82,84.04,50.66,87.4z"/>
			<path class="st4" d="M47.43,86.41c0.3,1.19-0.42,2.39-1.61,2.69c-1.19,0.3-2.39-0.42-2.69-1.61c-0.3-1.19,0.42-2.39,1.61-2.69
				C45.92,84.51,47.13,85.23,47.43,86.41z"/>
		</g>
		<g>
			<path class="st1" d="M42.18,105.08c0.85,3.36-1.19,6.77-4.55,7.61c-3.36,0.85-6.77-1.19-7.61-4.55
				c-0.85-3.36,1.19-6.77,4.55-7.61C37.92,99.68,41.33,101.72,42.18,105.08z"/>
			<path class="st4" d="M38.94,104.09c0.3,1.19-0.42,2.39-1.61,2.69c-1.19,0.3-2.39-0.42-2.69-1.61c-0.3-1.19,0.42-2.39,1.61-2.69
				C37.44,102.19,38.65,102.91,38.94,104.09z"/>
		</g>
		<g>
			<path class="st1" d="M53.46,145.54c0.85,3.36-1.19,6.77-4.55,7.61c-3.36,0.85-6.77-1.19-7.61-4.55
				c-0.85-3.36,1.19-6.77,4.55-7.61C49.2,140.14,52.61,142.18,53.46,145.54z"/>
			<path class="st4" d="M50.22,144.55c0.3,1.19-0.42,2.39-1.61,2.69c-1.19,0.3-2.39-0.42-2.69-1.61c-0.3-1.19,0.42-2.39,1.61-2.69
				C48.72,142.64,49.92,143.36,50.22,144.55z"/>
		</g>
		<g>
			<path class="st1" d="M84.15,146.08c0.85,3.36-1.19,6.77-4.55,7.61c-3.36,0.85-6.77-1.19-7.61-4.55
				c-0.85-3.36,1.19-6.77,4.55-7.61C79.89,140.68,83.3,142.72,84.15,146.08z"/>
			<path class="st4" d="M80.91,145.09c0.3,1.19-0.42,2.39-1.61,2.69c-1.19,0.3-2.39-0.42-2.69-1.61c-0.3-1.19,0.42-2.39,1.61-2.69
				C79.41,143.19,80.61,143.91,80.91,145.09z"/>
		</g>
		<g>
			<path class="st1" d="M90.02,167.41c0.85,3.36-1.19,6.77-4.55,7.61c-3.36,0.85-6.77-1.19-7.61-4.55
				c-0.85-3.36,1.19-6.77,4.55-7.61C85.76,162.02,89.17,164.06,90.02,167.41z"/>
			<path class="st4" d="M86.78,166.43c0.3,1.19-0.42,2.39-1.61,2.69c-1.19,0.3-2.39-0.42-2.69-1.61c-0.3-1.19,0.42-2.39,1.61-2.69
				C85.28,164.52,86.48,165.24,86.78,166.43z"/>
		</g>
		<g>
			<path class="st1" d="M64.96,160.79c0.85,3.36-1.19,6.77-4.55,7.61c-3.36,0.85-6.77-1.19-7.61-4.55
				c-0.85-3.36,1.19-6.77,4.55-7.61C60.71,155.39,64.12,157.43,64.96,160.79z"/>
			<path class="st4" d="M61.73,159.8c0.3,1.19-0.42,2.39-1.61,2.69c-1.19,0.3-2.39-0.42-2.69-1.61c-0.3-1.19,0.42-2.39,1.61-2.69
				C60.22,157.89,61.43,158.61,61.73,159.8z"/>
		</g>
		<g>
			<path class="st0" d="M87.49,157.4c0.85,3.36-1.19,6.77-4.55,7.61c-3.36,0.85-6.77-1.19-7.61-4.55c-0.85-3.36,1.19-6.77,4.55-7.61
				C83.24,152,86.65,154.04,87.49,157.4z"/>
			<path class="st4" d="M84.26,156.41c0.3,1.19-0.42,2.39-1.61,2.69c-1.19,0.3-2.39-0.42-2.69-1.61c-0.3-1.19,0.42-2.39,1.61-2.69
				C82.76,154.5,83.96,155.22,84.26,156.41z"/>
		</g>
		<g>
			<circle class="st0" cx="61.79" cy="119.4" r="6.27"/>
			<path class="st4" d="M64.64,116.88c0.3,1.19-0.42,2.39-1.61,2.69c-1.19,0.3-2.39-0.42-2.69-1.61c-0.3-1.19,0.42-2.39,1.61-2.69
				C63.14,114.98,64.34,115.7,64.64,116.88z"/>
		</g>
		<g>
			<path class="st0" d="M59.23,130.94c0.85,3.36-1.19,6.77-4.55,7.61c-3.36,0.85-6.77-1.19-7.61-4.55
				c-0.85-3.36,1.19-6.77,4.55-7.61C54.98,125.54,58.39,127.58,59.23,130.94z"/>
			<path class="st4" d="M56,129.95c0.3,1.19-0.42,2.39-1.61,2.69c-1.19,0.3-2.39-0.42-2.69-1.61c-0.3-1.19,0.42-2.39,1.61-2.69
				C54.5,128.04,55.7,128.76,56,129.95z"/>
		</g>
		<g>
			<path class="st0" d="M89.83,129.33c0.85,3.36-1.19,6.77-4.55,7.61c-3.36,0.85-6.77-1.19-7.61-4.55
				c-0.85-3.36,1.19-6.77,4.55-7.61C85.58,123.93,88.99,125.97,89.83,129.33z"/>
			<path class="st4" d="M86.6,128.34c0.3,1.19-0.42,2.39-1.61,2.69c-1.19,0.3-2.39-0.42-2.69-1.61c-0.3-1.19,0.42-2.39,1.61-2.69
				C85.1,126.44,86.3,127.16,86.6,128.34z"/>
		</g>
		<g>
			
				<ellipse transform="matrix(0.508 -0.8614 0.8614 0.508 -108.3474 148.6306)" class="st0" cx="75.93" cy="169.16" rx="6.27" ry="6.27"/>
			<path class="st4" d="M78.78,166.64c0.3,1.19-0.42,2.39-1.61,2.69c-1.19,0.3-2.39-0.42-2.69-1.61c-0.3-1.19,0.42-2.39,1.61-2.69
				C77.28,164.73,78.48,165.45,78.78,166.64z"/>
		</g>
		<g>
			<path class="st0" d="M55.52,153.29c0.85,3.36-1.19,6.77-4.55,7.61c-3.36,0.85-6.77-1.19-7.61-4.55
				c-0.85-3.36,1.19-6.77,4.55-7.61C51.26,147.89,54.67,149.93,55.52,153.29z"/>
			<path class="st4" d="M52.28,152.3c0.3,1.19-0.42,2.39-1.61,2.69c-1.19,0.3-2.39-0.42-2.69-1.61c-0.3-1.19,0.42-2.39,1.61-2.69
				C50.78,150.4,51.98,151.12,52.28,152.3z"/>
		</g>
		<g>
			<path class="st0" d="M114.77,79.53c0.85,3.36,4.25,5.4,7.61,4.55c3.36-0.85,5.4-4.26,4.55-7.61c-0.85-3.36-4.25-5.4-7.61-4.55
				C115.96,72.76,113.92,76.17,114.77,79.53z"/>
			<path class="st4" d="M117.15,77.12c0.3,1.19,1.5,1.91,2.69,1.61c1.19-0.3,1.91-1.5,1.61-2.69c-0.3-1.19-1.5-1.91-2.69-1.61
				C117.57,74.73,116.85,75.94,117.15,77.12z"/>
		</g>
		<g>
			<path class="st0" d="M121.79,95.59c0.85,3.36,4.25,5.4,7.61,4.55c3.36-0.85,5.4-4.26,4.55-7.61c-0.85-3.36-4.25-5.4-7.61-4.55
				C122.99,88.82,120.95,92.23,121.79,95.59z"/>
			<path class="st4" d="M124.18,93.18c0.3,1.19,1.5,1.91,2.69,1.61c1.19-0.3,1.91-1.5,1.61-2.69c-0.3-1.19-1.5-1.91-2.69-1.61
				C124.6,90.79,123.88,92,124.18,93.18z"/>
		</g>
		<g>
			<path class="st0" d="M126.86,115.71c0.85,3.36,4.25,5.4,7.61,4.55s5.4-4.25,4.55-7.61s-4.25-5.4-7.61-4.55
				C128.05,108.94,126.02,112.35,126.86,115.71z"/>
			<path class="st4" d="M129.24,113.3c0.3,1.19,1.5,1.91,2.69,1.61c1.19-0.3,1.91-1.5,1.61-2.69c-0.3-1.19-1.5-1.91-2.69-1.61
				C129.66,110.91,128.94,112.12,129.24,113.3z"/>
		</g>
		<g>
			<path class="st0" d="M124.86,133.45c0.85,3.36,4.25,5.4,7.61,4.55c3.36-0.85,5.4-4.25,4.55-7.61c-0.85-3.36-4.25-5.4-7.61-4.55
				C126.05,126.68,124.02,130.09,124.86,133.45z"/>
			<path class="st4" d="M127.24,131.04c0.3,1.19,1.5,1.91,2.69,1.61c1.19-0.3,1.91-1.5,1.61-2.69c-0.3-1.19-1.5-1.91-2.69-1.61
				C127.66,128.65,126.94,129.86,127.24,131.04z"/>
		</g>
		<g>
			<path class="st0" d="M119.37,151.17c0.85,3.36,4.26,5.4,7.61,4.55c3.36-0.85,5.4-4.25,4.55-7.61c-0.85-3.36-4.25-5.4-7.61-4.55
				C120.57,144.4,118.53,147.81,119.37,151.17z"/>
			<path class="st4" d="M121.75,148.77c0.3,1.19,1.5,1.91,2.69,1.61c1.19-0.3,1.91-1.5,1.61-2.69c-0.3-1.19-1.5-1.91-2.69-1.61
				C122.18,146.38,121.46,147.58,121.75,148.77z"/>
		</g>
		<g>
			
				<ellipse transform="matrix(0.4487 -0.8937 0.8937 0.4487 -59.3772 179.8272)" class="st0" cx="116.07" cy="138.04" rx="6.27" ry="6.27"/>
			<path class="st4" d="M112.37,137.17c0.3,1.19,1.5,1.91,2.69,1.61c1.19-0.3,1.91-1.5,1.61-2.69c-0.3-1.19-1.5-1.91-2.69-1.61
				C112.79,134.78,112.07,135.98,112.37,137.17z"/>
		</g>
		<g>
			<path class="st0" d="M110.41,120.33c0.85,3.36,4.25,5.4,7.61,4.55c3.36-0.85,5.4-4.25,4.55-7.61c-0.85-3.36-4.26-5.4-7.61-4.55
				C111.6,113.56,109.56,116.97,110.41,120.33z"/>
			<path class="st4" d="M112.79,117.93c0.3,1.19,1.5,1.91,2.69,1.61c1.19-0.3,1.91-1.5,1.61-2.69c-0.3-1.19-1.5-1.91-2.69-1.61
				C113.21,115.54,112.49,116.74,112.79,117.93z"/>
		</g>
		<g>
			<path class="st0" d="M104.26,95.91c0.85,3.36,4.26,5.4,7.61,4.55c3.36-0.85,5.4-4.26,4.55-7.61c-0.85-3.36-4.25-5.4-7.61-4.55
				C105.45,89.15,103.42,92.55,104.26,95.91z"/>
			<path class="st4" d="M106.64,93.51c0.3,1.19,1.5,1.91,2.69,1.61c1.19-0.3,1.91-1.5,1.61-2.69c-0.3-1.19-1.5-1.91-2.69-1.61
				C107.06,91.12,106.34,92.33,106.64,93.51z"/>
		</g>
		<g>
			<circle class="st0" cx="99.47" cy="76.91" r="6.27"/>
			<path class="st4" d="M95.77,76.04c0.3,1.19,1.5,1.91,2.69,1.61c1.19-0.3,1.91-1.5,1.61-2.69c-0.3-1.19-1.5-1.91-2.69-1.61
				C96.19,73.65,95.47,74.85,95.77,76.04z"/>
		</g>
		<g>
			
				<ellipse transform="matrix(0.4532 -0.8914 0.8914 0.4532 -36.3578 137.6919)" class="st0" cx="94.06" cy="98.48" rx="6.27" ry="6.27"/>
			<path class="st4" d="M90.36,97.61c0.3,1.19,1.5,1.91,2.69,1.61c1.19-0.3,1.91-1.5,1.61-2.69c-0.3-1.19-1.5-1.91-2.69-1.61
				C90.78,95.22,90.06,96.43,90.36,97.61z"/>
		</g>
		<g>
			<path class="st0" d="M89.67,118.6c0.85,3.36,4.25,5.4,7.61,4.55c3.36-0.85,5.4-4.25,4.55-7.61c-0.85-3.36-4.25-5.4-7.61-4.55
				C90.87,111.83,88.83,115.24,89.67,118.6z"/>
			<path class="st4" d="M92.05,116.2c0.3,1.19,1.5,1.91,2.69,1.61c1.19-0.3,1.91-1.5,1.61-2.69c-0.3-1.19-1.5-1.91-2.69-1.61
				C92.48,113.81,91.76,115.01,92.05,116.2z"/>
		</g>
		<g>
			<path class="st0" d="M85.85,139.18c0.85,3.36,4.25,5.4,7.61,4.55c3.36-0.85,5.4-4.25,4.55-7.61c-0.85-3.36-4.25-5.4-7.61-4.55
				C87.04,132.42,85,135.82,85.85,139.18z"/>
			<path class="st4" d="M88.23,136.78c0.3,1.19,1.5,1.91,2.69,1.61c1.19-0.3,1.91-1.5,1.61-2.69c-0.3-1.19-1.5-1.91-2.69-1.61
				C88.65,134.39,87.93,135.59,88.23,136.78z"/>
		</g>
		<g>
			<path class="st0" d="M95.32,159.61c0.85,3.36,4.26,5.4,7.61,4.55c3.36-0.85,5.4-4.26,4.55-7.61c-0.85-3.36-4.25-5.4-7.61-4.55
				C96.51,152.84,94.47,156.25,95.32,159.61z"/>
			<path class="st4" d="M97.7,157.21c0.3,1.19,1.5,1.91,2.69,1.61c1.19-0.3,1.91-1.5,1.61-2.69c-0.3-1.19-1.5-1.91-2.69-1.61
				C98.12,154.82,97.4,156.02,97.7,157.21z"/>
		</g>
		<g>
			
				<ellipse transform="matrix(0.4509 -0.8926 0.8926 0.4509 -58.1544 165.579)" class="st1" cx="105.49" cy="130.05" rx="6.27" ry="6.27"/>
			<path class="st4" d="M101.79,129.18c0.3,1.19,1.5,1.91,2.69,1.61c1.19-0.3,1.91-1.5,1.61-2.69c-0.3-1.19-1.5-1.91-2.69-1.61
				C102.21,126.79,101.49,128,101.79,129.18z"/>
		</g>
		<g>
			<path class="st1" d="M98.44,112.31c0.85,3.36,4.26,5.4,7.61,4.55c3.36-0.85,5.4-4.25,4.55-7.61c-0.85-3.36-4.25-5.4-7.61-4.55
				C99.63,105.54,97.59,108.95,98.44,112.31z"/>
			<path class="st4" d="M100.82,109.91c0.3,1.19,1.5,1.91,2.69,1.61c1.19-0.3,1.91-1.5,1.61-2.69c-0.3-1.19-1.5-1.91-2.69-1.61
				C101.24,107.52,100.52,108.72,100.82,109.91z"/>
		</g>
		<g>
			<path class="st1" d="M111.77,107.15c0.85,3.36,4.26,5.4,7.61,4.55c3.36-0.85,5.4-4.25,4.55-7.61c-0.85-3.36-4.25-5.4-7.61-4.55
				C112.96,100.38,110.92,103.79,111.77,107.15z"/>
			<path class="st4" d="M114.15,104.75c0.3,1.19,1.5,1.91,2.69,1.61c1.19-0.3,1.91-1.5,1.61-2.69c-0.3-1.19-1.5-1.91-2.69-1.61
				C114.57,102.36,113.85,103.56,114.15,104.75z"/>
		</g>
		<g>
			<path class="st1" d="M102.7,84.95c0.85,3.36,4.25,5.4,7.61,4.55c3.36-0.85,5.4-4.25,4.55-7.61c-0.85-3.36-4.26-5.4-7.61-4.55
				C103.89,78.18,101.85,81.59,102.7,84.95z"/>
			<path class="st4" d="M105.08,82.54c0.3,1.19,1.5,1.91,2.69,1.61c1.19-0.3,1.91-1.5,1.61-2.69c-0.3-1.19-1.5-1.91-2.69-1.61
				C105.5,80.15,104.78,81.36,105.08,82.54z"/>
		</g>
		<g>
			<circle class="st1" cx="104.95" cy="102.21" r="6.27"/>
			<path class="st4" d="M101.25,101.34c0.3,1.19,1.5,1.91,2.69,1.61c1.19-0.3,1.91-1.5,1.61-2.69c-0.3-1.19-1.5-1.91-2.69-1.61
				C101.67,98.95,100.95,100.15,101.25,101.34z"/>
		</g>
		<g>
			<path class="st1" d="M112.91,97.82c0.85,3.36,4.25,5.4,7.61,4.55s5.4-4.25,4.55-7.61s-4.25-5.4-7.61-4.55
				C114.1,91.06,112.06,94.47,112.91,97.82z"/>
			<path class="st4" d="M115.29,95.42c0.3,1.19,1.5,1.91,2.69,1.61c1.19-0.3,1.91-1.5,1.61-2.69c-0.3-1.19-1.5-1.91-2.69-1.61
				C115.71,93.03,114.99,94.24,115.29,95.42z"/>
		</g>
		<g>
			<circle class="st1" cx="133.41" cy="102.18" r="6.27"/>
			<path class="st4" d="M129.71,101.31c0.3,1.19,1.5,1.91,2.69,1.61c1.19-0.3,1.91-1.5,1.61-2.69c-0.3-1.19-1.5-1.91-2.69-1.61
				C130.13,98.92,129.41,100.13,129.71,101.31z"/>
		</g>
		<g>
			<path class="st1" d="M90.69,122.65c0.85,3.36,4.25,5.4,7.61,4.55c3.36-0.85,5.4-4.25,4.55-7.61c-0.85-3.36-4.26-5.4-7.61-4.55
				C91.88,115.88,89.85,119.29,90.69,122.65z"/>
			<path class="st4" d="M93.07,120.25c0.3,1.19,1.5,1.91,2.69,1.61c1.19-0.3,1.91-1.5,1.61-2.69c-0.3-1.19-1.5-1.91-2.69-1.61
				C93.49,117.85,92.77,119.06,93.07,120.25z"/>
		</g>
		<g>
			<path class="st1" d="M105.47,122.06c0.85,3.36,4.25,5.4,7.61,4.55c3.36-0.85,5.4-4.25,4.55-7.61s-4.25-5.4-7.61-4.55
				C106.66,115.29,104.62,118.7,105.47,122.06z"/>
			<path class="st4" d="M107.85,119.66c0.3,1.19,1.5,1.91,2.69,1.61c1.19-0.3,1.91-1.5,1.61-2.69s-1.5-1.91-2.69-1.61
				C108.27,117.27,107.55,118.47,107.85,119.66z"/>
		</g>
		<g>
			<path class="st1" d="M111.54,88.1c0.85,3.36,4.25,5.4,7.61,4.55c3.36-0.85,5.4-4.25,4.55-7.61c-0.85-3.36-4.25-5.4-7.61-4.55
				C112.74,81.33,110.7,84.74,111.54,88.1z"/>
			<path class="st4" d="M113.92,85.69c0.3,1.19,1.5,1.91,2.69,1.61c1.19-0.3,1.91-1.5,1.61-2.69c-0.3-1.19-1.5-1.91-2.69-1.61
				C114.35,83.3,113.63,84.51,113.92,85.69z"/>
		</g>
		<g>
			<path class="st1" d="M121.37,124.35c0.85,3.36,4.26,5.4,7.61,4.55c3.36-0.85,5.4-4.26,4.55-7.61c-0.85-3.36-4.26-5.4-7.61-4.55
				C122.56,117.58,120.53,120.99,121.37,124.35z"/>
			<path class="st4" d="M123.75,121.95c0.3,1.19,1.5,1.91,2.69,1.61c1.19-0.3,1.91-1.5,1.61-2.69c-0.3-1.19-1.5-1.91-2.69-1.61
				C124.17,119.55,123.45,120.76,123.75,121.95z"/>
		</g>
		<g>
			<path class="st1" d="M115.03,148.18c0.85,3.36,4.25,5.4,7.61,4.55c3.36-0.85,5.4-4.25,4.55-7.61c-0.85-3.36-4.25-5.4-7.61-4.55
				C116.22,141.41,114.18,144.82,115.03,148.18z"/>
			<path class="st4" d="M117.41,145.78c0.3,1.19,1.5,1.91,2.69,1.61c1.19-0.3,1.91-1.5,1.61-2.69c-0.3-1.19-1.5-1.91-2.69-1.61
				C117.83,143.39,117.11,144.59,117.41,145.78z"/>
		</g>
		<g>
			<circle class="st1" cx="123.76" cy="136.59" r="6.27"/>
			<path class="st4" d="M120.05,135.72c0.3,1.19,1.5,1.91,2.69,1.61c1.19-0.3,1.91-1.5,1.61-2.69c-0.3-1.19-1.5-1.91-2.69-1.61
				C120.48,133.33,119.76,134.53,120.05,135.72z"/>
		</g>
		<g>
			<path class="st1" d="M113.87,129.75c0.85,3.36,4.26,5.4,7.61,4.55c3.36-0.85,5.4-4.25,4.55-7.61c-0.85-3.36-4.25-5.4-7.61-4.55
				C115.06,122.98,113.02,126.39,113.87,129.75z"/>
			<path class="st4" d="M116.25,127.34c0.3,1.19,1.5,1.91,2.69,1.61c1.19-0.3,1.91-1.5,1.61-2.69c-0.3-1.19-1.5-1.91-2.69-1.61
				C116.67,124.95,115.95,126.16,116.25,127.34z"/>
		</g>
		<g>
			<path class="st1" d="M105.66,152.82c0.85,3.36,4.25,5.4,7.61,4.55c3.36-0.85,5.4-4.25,4.55-7.61c-0.85-3.36-4.25-5.4-7.61-4.55
				C106.85,146.06,104.81,149.47,105.66,152.82z"/>
			<path class="st4" d="M108.04,150.42c0.3,1.19,1.5,1.91,2.69,1.61c1.19-0.3,1.91-1.5,1.61-2.69c-0.3-1.19-1.5-1.91-2.69-1.61
				C108.46,148.03,107.74,149.24,108.04,150.42z"/>
		</g>
		<g>
			<path class="st1" d="M90.74,148.51c0.85,3.36,4.25,5.4,7.61,4.55c3.36-0.85,5.4-4.25,4.55-7.61c-0.85-3.36-4.25-5.4-7.61-4.55
				C91.93,141.74,89.89,145.15,90.74,148.51z"/>
			<path class="st4" d="M93.12,146.11c0.3,1.19,1.5,1.91,2.69,1.61c1.19-0.3,1.91-1.5,1.61-2.69c-0.3-1.19-1.5-1.91-2.69-1.61
				C93.54,143.71,92.82,144.92,93.12,146.11z"/>
		</g>
		<g>
			
				<ellipse transform="matrix(0.7457 -0.6663 0.6663 0.7457 -20.0678 92.0567)" class="st1" cx="110.56" cy="72.32" rx="6.27" ry="6.27"/>
			<path class="st4" d="M106.85,71.45c0.3,1.19,1.5,1.91,2.69,1.61c1.19-0.3,1.91-1.5,1.61-2.69c-0.3-1.19-1.5-1.91-2.69-1.61
				C107.27,69.05,106.55,70.26,106.85,71.45z"/>
		</g>
		<g>
			<path class="st1" d="M120.32,85.4c0.85,3.36,4.25,5.4,7.61,4.55c3.36-0.85,5.4-4.25,4.55-7.61c-0.85-3.36-4.25-5.4-7.61-4.55
				C121.51,78.63,119.47,82.04,120.32,85.4z"/>
			<path class="st4" d="M122.7,83c0.3,1.19,1.5,1.91,2.69,1.61c1.19-0.3,1.91-1.5,1.61-2.69c-0.3-1.19-1.5-1.91-2.69-1.61
				C123.12,80.61,122.4,81.81,122.7,83z"/>
		</g>
		<g>
			<path class="st1" d="M129.55,126.38c0.85,3.36,4.25,5.4,7.61,4.55c3.36-0.85,5.4-4.25,4.55-7.61c-0.85-3.36-4.25-5.4-7.61-4.55
				C130.74,119.61,128.7,123.02,129.55,126.38z"/>
			<path class="st4" d="M131.93,123.97c0.3,1.19,1.5,1.91,2.69,1.61c1.19-0.3,1.91-1.5,1.61-2.69c-0.3-1.19-1.5-1.91-2.69-1.61
				C132.35,121.58,131.63,122.79,131.93,123.97z"/>
		</g>
		<g>
			<path class="st1" d="M102.78,141.39c0.85,3.36,4.25,5.4,7.61,4.55c3.36-0.85,5.4-4.25,4.55-7.61c-0.85-3.36-4.26-5.4-7.61-4.55
				C103.97,134.62,101.93,138.03,102.78,141.39z"/>
			<path class="st4" d="M105.16,138.99c0.3,1.19,1.5,1.91,2.69,1.61c1.19-0.3,1.91-1.5,1.61-2.69c-0.3-1.19-1.5-1.91-2.69-1.61
				C105.58,136.59,104.86,137.8,105.16,138.99z"/>
		</g>
		<g>
			<path class="st1" d="M107.71,162.96c0.85,3.36,4.25,5.4,7.61,4.55s5.4-4.25,4.55-7.61c-0.85-3.36-4.25-5.4-7.61-4.55
				C108.9,156.19,106.87,159.6,107.71,162.96z"/>
			<path class="st4" d="M110.09,160.56c0.3,1.19,1.5,1.91,2.69,1.61c1.19-0.3,1.91-1.5,1.61-2.69c-0.3-1.19-1.5-1.91-2.69-1.61
				C110.51,158.16,109.79,159.37,110.09,160.56z"/>
		</g>
		<g>
			<circle class="st1" cx="132.72" cy="143.72" r="6.27"/>
			<path class="st4" d="M129.02,142.85c0.3,1.19,1.5,1.91,2.69,1.61c1.19-0.3,1.91-1.5,1.61-2.69c-0.3-1.19-1.5-1.91-2.69-1.61
				C129.44,140.46,128.72,141.67,129.02,142.85z"/>
		</g>
		<g>
			
				<ellipse transform="matrix(0.7462 -0.6658 0.6658 0.7462 -72.5592 112.5151)" class="st0" cx="111.27" cy="151.41" rx="6.27" ry="6.27"/>
			<path class="st4" d="M107.57,150.54c0.3,1.19,1.5,1.91,2.69,1.61c1.19-0.3,1.91-1.5,1.61-2.69c-0.3-1.19-1.5-1.91-2.69-1.61
				C107.99,148.15,107.27,149.35,107.57,150.54z"/>
		</g>
		<g>
			<path class="st0" d="M103.75,108.84c0.85,3.36,4.26,5.4,7.61,4.55c3.36-0.85,5.4-4.25,4.55-7.61c-0.85-3.36-4.25-5.4-7.61-4.55
				C104.94,102.07,102.9,105.48,103.75,108.84z"/>
			<path class="st4" d="M106.13,106.44c0.3,1.19,1.5,1.91,2.69,1.61c1.19-0.3,1.91-1.5,1.61-2.69c-0.3-1.19-1.5-1.91-2.69-1.61
				C106.55,104.04,105.83,105.25,106.13,106.44z"/>
		</g>
		<g>
			
				<ellipse transform="matrix(0.5083 -0.8612 0.8612 0.5083 -38.0062 162.8703)" class="st0" cx="123.63" cy="114.72" rx="6.27" ry="6.27"/>
			<path class="st4" d="M119.93,113.85c0.3,1.19,1.5,1.91,2.69,1.61c1.19-0.3,1.91-1.5,1.61-2.69c-0.3-1.19-1.5-1.91-2.69-1.61
				C120.35,111.46,119.63,112.66,119.93,113.85z"/>
		</g>
		<g>
			<path class="st0" d="M89.83,129.33c0.85,3.36,4.26,5.4,7.61,4.55c3.36-0.85,5.4-4.26,4.55-7.61c-0.85-3.36-4.25-5.4-7.61-4.55
				C91.03,122.56,88.99,125.97,89.83,129.33z"/>
			<path class="st4" d="M92.21,126.93c0.3,1.19,1.5,1.91,2.69,1.61c1.19-0.3,1.91-1.5,1.61-2.69c-0.3-1.19-1.5-1.91-2.69-1.61
				C92.64,124.54,91.92,125.74,92.21,126.93z"/>
		</g>
		<g>
			
				<ellipse transform="matrix(0.4477 -0.8942 0.8942 0.4477 -74.3291 195.3048)" class="st0" cx="120.94" cy="157.82" rx="6.27" ry="6.27"/>
			<path class="st4" d="M117.24,156.95c0.3,1.19,1.5,1.91,2.69,1.61c1.19-0.3,1.91-1.5,1.61-2.69c-0.3-1.19-1.5-1.91-2.69-1.61
				C117.66,154.56,116.94,155.77,117.24,156.95z"/>
		</g>
		<g>
			
				<ellipse transform="matrix(0.5084 -0.8611 0.8611 0.5084 -46.6367 183.5976)" class="st0" cx="137.49" cy="132.65" rx="6.27" ry="6.27"/>
			<path class="st4" d="M133.79,131.78c0.3,1.19,1.5,1.91,2.69,1.61c1.19-0.3,1.91-1.5,1.61-2.69c-0.3-1.19-1.5-1.91-2.69-1.61
				C134.21,129.38,133.49,130.59,133.79,131.78z"/>
		</g>
		<path class="st0" d="M64.38,66.37c0,0-4.95-14.12-12.75-19.42c8.83,4.2,16.98,14.1,18.41,19.36
			C65.61,66.32,64.38,66.37,64.38,66.37z"/>
	</g>
</g>
</svg>
