<?xml version="1.0" encoding="utf-8"?>
<!-- Generator: Adobe Illustrator 25.4.1, SVG Export Plug-In . SVG Version: 6.00 Build 0)  -->
<svg version="1.1" id="Layer_1" xmlns="http://www.w3.org/2000/svg" xmlns:xlink="http://www.w3.org/1999/xlink" x="0px" y="0px"
	 viewBox="0 0 492.06 428.55" style="enable-background:new 0 0 492.06 428.55;" xml:space="preserve">
<style type="text/css">
	.st0{fill:#688EAD;}
	.st1{fill:#F4D1A0;}
	.st2{fill:#F1C194;}
	.st3{fill:#BF9777;}
	.st4{fill:#60174E;}
	.st5{opacity:0.33;fill:#FFFFFF;}
	.st6{fill:#93BAE3;}
	.st7{fill:#80ABD5;}
	.st8{fill:#E5E5B7;}
	.st9{opacity:0.1;fill:#FFFFFF;}
	.st10{fill:#F2DCA5;}
</style>
<g>
	<path class="st0" d="M480.28,51.05C460.44,19.58,391.27,0.1,224.66,0.1c-56.9,0-114.45,6.48-167.68,26.92
		C39.57,33.7-4.88,52.14-6.19,96.35c-0.27,9.21,5.15,17.55,6.83,26.79l6.41,25.63c-0.11-0.87-0.1-1.63-0.14-2.37
		c35.11,161.06,244,147.13,364.25,101.69c44.83-16.94,79.42-40.53,101.19-84.96c8.5-17.34,16.48-41.19,19.23-60.56
		c0.84-5.88-0.26-11.37,0.47-17.52C490.82,72.91,486.51,60.93,480.28,51.05z"/>
	<path class="st1" d="M44.47,88.62c7.42-1.99,15.33-1.66,22.69-3.82c10.1-2.96,18.23-10.28,26.92-16.21
		c14.51-9.91,31.4-16.3,48.83-18.5c18.49-2.32,37.35,0.02,55.79-2.68c18.85-2.76,37.07-10.76,56.11-9.99
		c18.13,0.73,35.13,9.38,53.21,10.99c20.81,1.86,42.77-5.57,62.18,2.17c9.45,3.77,17.41,10.89,27.2,13.67
		c6.57,1.87,13.52,1.65,20.29,2.52c15,1.94,28.72,9.17,42.07,16.28c10.23,5.44,21.18,11.66,25.67,22.34
		c5.75,13.68-1.47,29.59-11.62,40.42c-18.31,19.52-44.97,28.68-71,34.92c-57.78,13.85-117.56,16.75-176.95,18.45
		c-45.98,1.32-92.39,1.92-137.54-6.93c-16.73-3.28-34-8.27-46.2-20.19C20.06,150.51,2.87,99.78,44.47,88.62z"/>
	<path class="st2" d="M381.04,73.87c-1.09,3.31-3.99,5.67-6.87,7.64c-4.9,3.36-10.17,6.17-15.69,8.37
		c-2.32,0.93-4.79,1.81-6.46,3.66s-2.19,5.05-0.36,6.75c0.76,0.71,1.8,1.05,2.82,1.25c6.82,1.29,13.32-3.12,20.16-4.28
		c5.03-0.86,10.17,0.07,15.27,0.27c5.1,0.21,10.61-0.47,14.4-3.89c1.23-1.11,2.27-2.57,2.37-4.22c0.1-1.65-1.02-3.44-2.66-3.63
		c6.73,2.78,14.12,3.93,21.38,3.35c2.03-0.16,4.42-0.74,5.15-2.64c0.33-0.87,0.23-1.85-0.03-2.75c-1.57-5.56-7.87-8.24-13.57-9.2
		s-11.87-1.06-16.57-4.42c-2.15-1.54-3.84-3.67-6.03-5.14c-4.12-2.76-13.29-4.68-17.11-1.41C379.58,66.31,382.31,70.02,381.04,73.87
		z"/>
	<path class="st2" d="M292.93,109.39c-1.71,3.83-6.32,5.19-10.27,6.62c-5.86,2.12-11.32,5.33-16.03,9.41
		c-0.56,0.48-1.12,0.99-1.42,1.66c-1.24,2.69,2.48,5.25,5.42,4.85c2.94-0.39,5.59-2.25,8.56-2.29c3.54-0.05,6.57,2.47,10.02,3.3
		c2.49,0.6,5.11,0.3,7.66-0.01c11.48-1.4,22.96-2.79,34.44-4.19c4.43-0.54,9.43-1.41,11.91-5.12c0.53-0.79,0.92-1.75,0.76-2.68
		c-0.3-1.71-2.19-2.58-3.85-3.06c-5.15-1.48-10.61-1.89-15.92-1.2c-0.86-4.76,8.23-5.8,8.71-10.62c-8.16-1.71-16.33-3.42-24.49-5.13
		c-8.24-1.72-16.68-3.46-25.02-2.29C288.13,99.45,296.26,102.73,292.93,109.39z"/>
	<path class="st2" d="M347.59,142.28c6.91-3.9,12.8-10.45,13.85-18.31c13.2,0.19,27.62-0.02,37.82-8.4
		c2.23-1.83,4.19-4.01,6.68-5.47c3.04-1.79,6.62-2.37,10.1-2.91c9.65-1.51,19.3-3.02,28.95-4.52c1.13-0.18,2.34-0.34,3.37,0.16
		c1.9,0.92,2.16,3.54,1.67,5.59c-1.7,7.12-8.88,11.59-15.94,13.55c-7.06,1.95-14.56,2.19-21.4,4.81c-6.5,2.49-12,6.97-17.79,10.83
		c-7.92,5.28-16.55,9.48-25.59,12.46c-19.33,6.37-40,7.02-60.34,7.62c-10.55,0.31-21.2,0.61-31.56-1.4
		c10.16-7.89,24.6-4.04,36.41-5.37C325.04,149.63,337.66,147.87,347.59,142.28z"/>
	<g>
		<path class="st3" d="M160.56,96.79c3.01,0.28,6.12,0.55,9-0.35c2.89-0.9,5.53-3.29,5.77-6.3c0.18-2.23-0.99-4.41-2.66-5.91
			c-1.66-1.5-3.77-2.4-5.89-3.12c-8.39-2.83-27.55-5.7-31.82,5.18C130.47,97.74,154.56,96.23,160.56,96.79z"/>
		<circle class="st4" cx="143.71" cy="72.85" r="20.6"/>
		<path class="st4" d="M154.28,52.77c0.13,0.22,0.28,0.45,0.52,0.53c0.23,0.08,0.48,0.01,0.71-0.07c1.29-0.41,2.58-0.82,3.86-1.23
			c-0.19,0.97-0.39,1.93-0.58,2.9c1.63,0.01,3.26,0.03,4.89,0.04c-0.6,1-1.2,2-1.8,3c1.07,0.01,2.14,0.02,3.22,0.04
			c0.48,0.01,1.15,0.21,1.06,0.69c-0.03,0.16-0.15,0.29-0.27,0.4c-1.34,1.35-2.67,2.7-4.12,3.92c-0.65,0.55-1.38,1.1-2.23,1.19
			c-0.77,0.08-1.52-0.24-2.21-0.58c-2.29-1.13-6.1-3.14-7.12-5.66c-1-2.45,1.33-5.26,3.04-6.79
			C153.64,51.66,153.94,52.22,154.28,52.77z"/>
		<path class="st5" d="M137.05,57.93c-2.36,1.22-4.27,3.46-4.71,6.08c-0.1,0.61-0.12,1.25,0.05,1.84c0.22,0.73,0.72,1.34,1.29,1.84
			c0.46,0.4,1.02,0.76,1.63,0.69c0.96-0.1,1.47-1.15,1.96-1.98c1.68-2.87,5.26-4.5,8.53-3.88c0.86,0.16,1.99,0.35,2.41-0.42
			c0.12-0.22,0.14-0.49,0.14-0.74C148.34,55.57,140.52,56.15,137.05,57.93z"/>
	</g>
	<g>
		<path class="st3" d="M108.33,138.46c3.01,0.28,6.12,0.55,9-0.35c2.89-0.9,5.53-3.29,5.77-6.3c0.18-2.23-0.99-4.41-2.66-5.91
			c-1.66-1.5-3.77-2.4-5.89-3.12c-8.39-2.83-27.55-5.7-31.82,5.18C78.23,139.41,102.32,137.9,108.33,138.46z"/>
		
			<ellipse transform="matrix(0.2318 -0.9728 0.9728 0.2318 -41.1227 176.9535)" class="st4" cx="91.48" cy="114.51" rx="20.6" ry="20.6"/>
		<path class="st4" d="M102.04,94.44c0.13,0.22,0.28,0.45,0.52,0.53c0.23,0.08,0.48,0.01,0.71-0.07c1.29-0.41,2.58-0.82,3.86-1.23
			c-0.19,0.97-0.39,1.93-0.58,2.9c1.63,0.01,3.26,0.03,4.89,0.04c-0.6,1-1.2,2-1.8,3c1.07,0.01,2.14,0.02,3.22,0.04
			c0.48,0.01,1.15,0.21,1.06,0.69c-0.03,0.16-0.15,0.29-0.27,0.4c-1.34,1.35-2.67,2.7-4.12,3.92c-0.65,0.55-1.38,1.1-2.23,1.19
			c-0.77,0.08-1.52-0.24-2.21-0.58c-2.29-1.13-6.1-3.14-7.12-5.66c-1-2.45,1.33-5.26,3.04-6.79
			C101.4,93.33,101.7,93.88,102.04,94.44z"/>
		<path class="st5" d="M84.82,99.59c-2.36,1.22-4.27,3.46-4.71,6.08c-0.1,0.61-0.12,1.25,0.05,1.84c0.22,0.73,0.72,1.34,1.29,1.84
			c0.46,0.4,1.02,0.76,1.63,0.69c0.96-0.1,1.47-1.15,1.96-1.98c1.68-2.87,5.26-4.5,8.53-3.88c0.86,0.16,1.99,0.35,2.41-0.42
			c0.12-0.22,0.14-0.49,0.14-0.74C96.1,97.24,88.28,97.81,84.82,99.59z"/>
	</g>
	<g>
		<path class="st3" d="M295.28,147.54c3.01,0.28,6.12,0.55,9-0.35c2.89-0.9,5.53-3.29,5.77-6.3c0.18-2.23-0.99-4.41-2.66-5.91
			c-1.66-1.5-3.77-2.4-5.89-3.12c-8.39-2.83-27.55-5.7-31.82,5.18C265.18,148.49,289.27,146.98,295.28,147.54z"/>
		
			<ellipse transform="matrix(0.9511 -0.3088 0.3088 0.9511 -24.5599 92.0323)" class="st4" cx="278.43" cy="123.59" rx="20.6" ry="20.6"/>
		<path class="st4" d="M288.99,103.52c0.13,0.22,0.28,0.45,0.52,0.53c0.23,0.08,0.48,0.01,0.71-0.07c1.29-0.41,2.58-0.82,3.86-1.23
			c-0.19,0.97-0.39,1.93-0.58,2.9c1.63,0.01,3.26,0.03,4.89,0.04c-0.6,1-1.2,2-1.8,3c1.07,0.01,2.14,0.02,3.22,0.04
			c0.48,0.01,1.15,0.21,1.06,0.69c-0.03,0.16-0.15,0.29-0.27,0.4c-1.34,1.35-2.67,2.7-4.12,3.92c-0.65,0.55-1.38,1.1-2.23,1.19
			c-0.77,0.08-1.52-0.24-2.21-0.58c-2.29-1.13-6.1-3.14-7.12-5.66c-1-2.45,1.33-5.26,3.04-6.79
			C288.35,102.41,288.66,102.96,288.99,103.52z"/>
		<path class="st5" d="M271.77,108.67c-2.36,1.21-4.27,3.46-4.71,6.08c-0.1,0.61-0.12,1.25,0.05,1.84c0.22,0.73,0.72,1.34,1.29,1.84
			c0.46,0.4,1.02,0.76,1.63,0.69c0.96-0.1,1.47-1.15,1.96-1.98c1.68-2.87,5.26-4.5,8.53-3.88c0.86,0.16,1.99,0.35,2.41-0.42
			c0.12-0.22,0.14-0.49,0.14-0.74C283.05,106.32,275.23,106.89,271.77,108.67z"/>
	</g>
	<g>
		<path class="st3" d="M341.94,104.5c3.01,0.28,6.12,0.55,9-0.35c2.89-0.9,5.53-3.29,5.77-6.3c0.18-2.23-0.99-4.41-2.66-5.91
			c-1.66-1.5-3.77-2.4-5.89-3.12c-8.39-2.83-27.55-5.7-31.82,5.18C311.85,105.45,335.93,103.94,341.94,104.5z"/>
		
			<ellipse transform="matrix(0.6357 -0.7719 0.7719 0.6357 56.2397 280.2817)" class="st4" cx="325.09" cy="80.55" rx="20.6" ry="20.6"/>
		<path class="st4" d="M335.66,60.48c0.13,0.22,0.28,0.45,0.52,0.53c0.23,0.08,0.48,0.01,0.71-0.07c1.29-0.41,2.58-0.82,3.86-1.23
			c-0.19,0.97-0.39,1.93-0.58,2.9c1.63,0.01,3.26,0.03,4.89,0.04c-0.6,1-1.2,2-1.8,3c1.07,0.01,2.14,0.02,3.22,0.04
			c0.48,0.01,1.15,0.21,1.06,0.69c-0.03,0.16-0.15,0.29-0.27,0.4c-1.34,1.35-2.67,2.7-4.12,3.92c-0.65,0.55-1.38,1.1-2.23,1.19
			c-0.77,0.08-1.52-0.24-2.21-0.58c-2.29-1.13-6.1-3.14-7.12-5.66c-1-2.45,1.33-5.26,3.04-6.79
			C335.01,59.37,335.32,59.92,335.66,60.48z"/>
		<path class="st5" d="M318.43,65.63c-2.36,1.22-4.27,3.46-4.7,6.08c-0.1,0.61-0.12,1.25,0.05,1.84c0.22,0.73,0.72,1.34,1.29,1.84
			c0.46,0.4,1.02,0.76,1.63,0.69c0.96-0.1,1.47-1.15,1.96-1.98c1.68-2.87,5.26-4.5,8.53-3.88c0.86,0.16,1.99,0.35,2.41-0.42
			c0.12-0.22,0.14-0.49,0.14-0.74C329.71,63.28,321.89,63.85,318.43,65.63z"/>
	</g>
	<g>
		<path class="st3" d="M253.65,63.94c3.01,0.28,6.12,0.55,9-0.35c2.89-0.9,5.53-3.29,5.77-6.3c0.18-2.23-0.99-4.41-2.66-5.91
			c-1.66-1.5-3.77-2.4-5.89-3.12c-8.39-2.83-27.55-5.7-31.82,5.18C223.56,64.88,247.65,63.38,253.65,63.94z"/>
		
			<ellipse transform="matrix(0.2277 -0.9737 0.9737 0.2277 143.9322 261.4647)" class="st4" cx="236.8" cy="39.99" rx="20.6" ry="20.6"/>
		<path class="st4" d="M247.37,19.92c0.13,0.22,0.28,0.45,0.52,0.53c0.23,0.08,0.48,0.01,0.71-0.07c1.29-0.41,2.58-0.82,3.86-1.23
			c-0.19,0.97-0.39,1.93-0.58,2.9c1.63,0.01,3.26,0.03,4.89,0.04c-0.6,1-1.2,2-1.8,3c1.07,0.01,2.14,0.02,3.22,0.04
			c0.48,0.01,1.15,0.21,1.06,0.69c-0.03,0.16-0.15,0.29-0.27,0.4c-1.34,1.35-2.67,2.7-4.12,3.92c-0.65,0.55-1.38,1.1-2.23,1.19
			c-0.77,0.08-1.52-0.24-2.21-0.58c-2.29-1.13-6.1-3.14-7.12-5.66c-1-2.45,1.33-5.26,3.04-6.79
			C246.73,18.81,247.03,19.36,247.37,19.92z"/>
		<path class="st5" d="M230.14,25.07c-2.36,1.22-4.27,3.46-4.71,6.08c-0.1,0.61-0.12,1.25,0.05,1.84c0.22,0.73,0.72,1.34,1.29,1.84
			c0.46,0.4,1.02,0.76,1.63,0.69c0.96-0.1,1.47-1.15,1.96-1.98c1.68-2.87,5.26-4.5,8.53-3.88c0.86,0.16,1.99,0.35,2.41-0.42
			c0.12-0.22,0.14-0.49,0.14-0.74C241.43,22.72,233.61,23.29,230.14,25.07z"/>
	</g>
	<g>
		<path class="st3" d="M429.16,157.8c3.01,0.28,6.12,0.55,9-0.35c2.89-0.9,5.53-3.29,5.77-6.3c0.18-2.23-0.99-4.41-2.66-5.91
			c-1.66-1.5-3.77-2.4-5.89-3.12c-8.39-2.83-27.55-5.7-31.82,5.18C399.07,158.75,423.15,157.24,429.16,157.8z"/>
		
			<ellipse transform="matrix(0.2103 -0.9776 0.9776 0.2103 194.7574 508.8017)" class="st4" cx="412.31" cy="133.85" rx="20.6" ry="20.6"/>
		<path class="st4" d="M422.88,113.78c0.13,0.22,0.28,0.45,0.52,0.53c0.23,0.08,0.48,0.01,0.71-0.07c1.29-0.41,2.58-0.82,3.86-1.23
			c-0.19,0.97-0.39,1.93-0.58,2.9c1.63,0.01,3.26,0.03,4.89,0.04c-0.6,1-1.2,2-1.8,3c1.07,0.01,2.14,0.02,3.22,0.04
			c0.48,0.01,1.15,0.21,1.06,0.69c-0.03,0.16-0.15,0.29-0.27,0.4c-1.34,1.35-2.67,2.7-4.12,3.92c-0.65,0.55-1.38,1.1-2.23,1.19
			c-0.77,0.08-1.52-0.24-2.21-0.58c-2.29-1.13-6.1-3.14-7.12-5.66c-1-2.45,1.33-5.26,3.04-6.79
			C422.23,112.67,422.54,113.22,422.88,113.78z"/>
		<path class="st5" d="M405.65,118.93c-2.36,1.21-4.27,3.46-4.7,6.08c-0.1,0.61-0.12,1.25,0.05,1.84c0.22,0.73,0.72,1.34,1.29,1.84
			c0.46,0.4,1.02,0.76,1.63,0.69c0.96-0.1,1.47-1.15,1.96-1.98c1.68-2.87,5.26-4.5,8.53-3.88c0.86,0.16,1.99,0.35,2.41-0.42
			c0.12-0.22,0.14-0.49,0.14-0.74C416.93,116.58,409.11,117.15,405.65,118.93z"/>
	</g>
	<g>
		<path class="st6" d="M492.06,85.05c-5.34,14.84-16.24,23.86-26.2,33.07c-13.15,12.16-26.79,21.15-43.03,29.29
			c-41.6,20.86-88.1,18.33-133.62,22.28c-61.61,5.34-141.67,5.16-199.62-13.93c-39.7-13.08-64.12-32.74-95.78-59.41
			c-1.26,36.39,5.36,69.45,8.9,91.95c7.62,48.43,27.34,103.33,62.52,137.64c8.12,7.92,16.39,14.76,24.87,20.7
			c5.89,89.11,164.09,83.06,218.48,80.95c38.51-1.49,73.88-20.8,85.7-38.65c7.79-15.48,8.7-29.36,7.82-42.78
			c25.59-18.29,46.97-42.28,61.08-70.7c21.82-43.91,20.79-90.32,26.84-137.73C492.11,121.49,492.7,101.93,492.06,85.05z"/>
	</g>
	<path class="st7" d="M463.19,275.47c21.82-43.91,20.79-90.32,26.84-137.73c2.08-16.25,2.67-35.82,2.03-52.69
		c-11.14,17.78-17.17,25.17-27.36,34.14c-13.97,12.29-25.45,19.77-41.87,28.22c-6.35,3.27-12.87,5.48-19.53,8.08
		c-3.08,13.19-5.74,27.01-8.82,39.39c-14.5,58.12-47.44,118.39-104.45,143.29c-8.4,3.67-55.67,7.09-51.36,18.61
		c2.01,5.38,16.94,6.8,20.6,14.01c3.88,7.64,1.89,22.21,0.36,30.47c-1.45,7.82-6.52,18.42-3.85,27.18
		c21.17,0.38,39.92-0.34,52.83-0.84c38.51-1.49,73.88-20.8,85.7-38.65c7.79-15.48,8.7-29.36,7.82-42.78
		C427.69,327.87,449.07,303.88,463.19,275.47z"/>
	<g>
		<path class="st8" d="M2.98,147.12c4.16-0.38,8.69-0.46,12.49,1.56c2.99,1.59,5.14,4.19,6.95,7c5.14,7.96,8.69,16.61,16.68,22.31
			c15.59,11.12,35.4-1.25,51.48,8.01c4.43,2.55,8.29,6.21,12.15,9.53c3.72,3.2,7.4,6.45,11.23,9.53c7.16,5.77,14.84,11,23.71,13.73
			c10.45,3.22,21.27,2.2,31.75-0.3c9.3-2.21,18.45-6.3,28.03-7.14c4.81-0.42,9.51,0.14,14.08,1.72c5.77,1.99,10.87,5.54,16.32,8.21
			c10.62,5.2,22.06,8.97,33.96,9.31c12.2,0.36,24.11-3.16,34.67-9.17c8.68-4.94,17.81-10.07,27.81-11.66
			c7.86-1.25,15.74,0.46,23.32,2.47c9.44,2.5,19.1,6.65,29.05,5.41c15.24-1.9,22.63-15.68,32.42-25.66
			c5.31-5.42,11.62-9.82,19.23-11.11c6.38-1.08,12.72,0.44,19.09,0.62c6.54,0.19,12.47-1.94,16.88-6.9
			c3.28-3.69,5.67-8.13,7.56-12.67c1.54-3.7,1.95-7.72,3.25-11.49c1.15-3.34,3.04-4.51,6.56-4.27c0-2.07,0-4.15,0-6.22
			c-2.35,0.28-4.27,1.28-6.04,2.83c-3.01,2.65,1.4,7.04,4.4,4.4c0.39-0.34,1.11-0.95,1.64-1.01c3.92-0.47,4.08-5.94,0-6.22
			c-4.25-0.3-8.17,1.09-10.62,4.7c-2.15,3.17-2.76,7.14-3.66,10.78c-1.68,6.83-5.86,15.93-12.84,18.83
			c-5.03,2.09-11.27,0.61-16.73,0.19c-7.53-0.58-15,0.48-21.68,4.19c-6.81,3.78-12.2,9.45-17.16,15.35
			c-4.21,5.01-8.3,10.59-13.89,14.16c-6.65,4.26-14.37,4.1-21.78,2.07c-9.37-2.56-18.61-5.78-28.31-6.82
			c-8.21-0.88-16.26,0.66-23.88,3.74c-11.2,4.53-21.04,12-32.75,15.24c-11.28,3.11-22.95,2.36-34.05-1.1
			c-5.84-1.82-11.44-4.31-16.84-7.17c-5.36-2.83-10.45-6.02-16.34-7.69c-9.25-2.61-18.47-1.07-27.52,1.56
			c-10.43,3.03-20.99,6.76-31.99,6.69c-19.89-0.13-33.94-14.75-48.16-26.67c-3.91-3.28-7.83-6.69-12.52-8.8
			c-4.32-1.94-8.86-2.92-13.58-3.15c-8.58-0.43-17.35,1.98-25.87,0.44c-9.96-1.8-15.41-9.55-20.09-17.82
			c-3.8-6.7-7.75-13.6-15.32-16.48c-4.14-1.58-8.73-1.67-13.1-1.27C-0.97,141.26-1.01,147.49,2.98,147.12L2.98,147.12z"/>
	</g>
	<g>
		<path class="st8" d="M10.54,178.73c4.21-1.34,8.41-1.5,12.15,1.14c3.29,2.33,5.56,5.92,7.62,9.3c4.27,6.98,7.27,15.81,13.73,21.14
			c3.55,2.93,7.77,4.4,12.31,4.92c5.2,0.59,10.09-0.62,15.07-2.01c4.93-1.38,10.01-2.66,15.02-0.84c4.41,1.61,7.85,4.24,10.88,7.79
			c5.89,6.89,9.99,15.54,17.96,20.41c4.45,2.72,9.92,4.67,15.18,4.72c4.53,0.04,8.74-1.5,12.81-3.33c8.98-4.05,17.66-9.04,27.87-8.2
			c7.93,0.65,14.93,5.1,21.58,9.09c8.18,4.91,16.78,9.94,26.16,12.16c9.82,2.33,19.62,0.35,28.97-2.9
			c9.04-3.14,18.12-7.43,27.85-7.67c9.31-0.23,18.28,3.46,26.44,7.58c6.93,3.5,13.88,7.27,21.81,7.61
			c10.51,0.46,20.37-5.05,29.08-10.31c4.63-2.8,9.2-5.93,14.28-7.89c5.37-2.07,10.95-2.52,16.63-1.8c5.47,0.7,10.91,2.09,16.47,1.57
			c5.69-0.53,10.88-2.69,15.22-6.4c7.18-6.13,9.37-15.58,15.04-22.82c2.65-3.39,6.33-6.42,10.52-7.61c3.82-1.09,7.86-1.23,11.74-2
			c6.59-1.31,12.45-4.99,17.93-8.75c3.07-2.1,6.07-4.34,8.84-6.81c1.95-1.74,4.05-3.72,5.2-6.1c1.18-2.42,0.86-5.32-1.68-6.73
			c-3.5-1.95-6.64,3.42-3.14,5.37c0.48,0.26-0.4-0.44-0.46-0.56c-0.73-1.42,0.51,0.61-0.22-0.81c-0.02-0.05-0.16-0.65,0.03-0.28
			c0.06,0.11-0.39,0.86-0.01,0.08c-0.54,1.1-0.86,1.38-1.76,2.34c-2.22,2.37-4.8,4.42-7.42,6.33c-4.79,3.5-10.68,7.72-16.09,9.25
			c-3.94,1.12-8.06,1.34-12.07,2.07c-3.98,0.72-7.53,2.36-10.71,4.85c-7.74,6.08-10.47,15-15.8,22.86c-2.71,4-6.58,7.26-11.26,8.66
			c-5.37,1.6-10.76,0.71-16.17-0.15c-5.66-0.9-11.23-1.34-16.9-0.22c-5.24,1.04-10.12,3.42-14.7,6.1
			c-8.81,5.15-17.86,11.99-28.25,13.35c-7.67,1-14.43-2.21-21.08-5.6c-8.1-4.13-16.36-7.81-25.45-9.06
			c-9.64-1.32-18.93,1.45-27.9,4.73c-8.8,3.22-17.79,6.91-27.33,6.52c-9.52-0.38-18.58-5.24-26.64-9.95
			c-6.99-4.09-13.85-8.81-21.72-11.09c-8.71-2.52-17.71-1.19-25.99,2.19c-8.48,3.46-16.95,10.04-26.54,7.33
			c-4.7-1.33-8.8-3.72-12.14-7.26c-3.07-3.25-5.5-7.01-8.13-10.6c-5.57-7.59-12.59-14.27-22.47-15.17
			c-10.18-0.92-19.36,6.01-29.56,3.05c-8-2.31-11.05-10.65-14.69-17.29c-3.9-7.1-8.62-15.49-16.6-18.51
			c-4.26-1.62-8.91-1.19-13.18,0.17C5.08,173.94,6.7,179.95,10.54,178.73L10.54,178.73z"/>
	</g>
	<path class="st9" d="M128.9,189.19c-9.41-6.77-19.89-11.54-30.54-16.58c-11.28-5.34-41.95-25.78-51.8-12.36
		c-42.14,12.55-5,86.53,12.17,111.39c10.73,15.54,50.89,48.33,68.29,22.33c6.19-9.26,3.9-24.26,4.76-34.82
		c1.02-12.43,0.9-25.05,2.83-37.25C136.91,207.43,142.55,199.01,128.9,189.19z"/>
	<path class="st10" d="M185.93,62.68c-2.16,1.64-3.42,4.83-2.03,7.16c0.81,1.36,2.29,2.14,3.72,2.82
		c4.76,2.26,10.18,4.58,12.19,9.46c2.19,5.31-0.72,11.38-4.48,15.72c-4.11,4.74-9.32,8.53-15.11,10.96
		c-7.24,3.04-15.55,4.11-21.51,9.22c-1.44,1.24-2.79,2.9-2.67,4.8c0.16,2.57,2.83,4.15,5.23,5.06c13.48,5.04,29.51,2.54,40.81-6.37
		c2.86-2.26,5.46-4.91,8.71-6.56c4.27-2.17,9.21-2.4,13.95-3.03c9.24-1.21,18.27-4.06,26.53-8.38c3.13-1.64,6.2-3.52,8.54-6.17
		c0.68-0.77,1.31-1.64,1.49-2.65c0.36-2.02-1.25-3.97-3.15-4.74c-1.9-0.77-4.03-0.67-6.09-0.64c-5.4,0.08-10.9-0.41-15.93-2.39
		c-5.03-1.98-9.57-5.58-11.86-10.47c-1-2.13-1.55-4.46-2.68-6.52c-1.68-3.06-4.54-5.32-7.61-6.97
		C206.43,58.9,193.36,57.03,185.93,62.68z"/>
</g>
</svg>
