<?xml version="1.0" encoding="utf-8"?>
<!-- Generator: Adobe Illustrator 25.4.1, SVG Export Plug-In . SVG Version: 6.00 Build 0)  -->
<svg version="1.1" id="Layer_1" xmlns="http://www.w3.org/2000/svg" xmlns:xlink="http://www.w3.org/1999/xlink" x="0px" y="0px"
	 viewBox="0 0 183.72 183.07" style="enable-background:new 0 0 183.72 183.07;" xml:space="preserve">
<style type="text/css">
	.st0{fill:#44853E;}
	.st1{fill:#E48525;}
	.st2{fill:#F89521;}
	.st3{fill:#FAAA3F;}
	.st4{fill:#FFDE94;}
</style>
<g>
	<g>
		<path class="st0" d="M99.15,29.28c-0.67-8.29,3.56-14.4,10.07-16.81c1.65-0.62,11.52-0.74,4.78-8.86
			c-5.71-6.86-17.63,1.1-21.82,9.48c-2.65,5.34-3.7,11.42-4.81,15.46c-5.8,21.06-39.63,16.25-39.63,22.55
			c0,8.67,88.59,8.74,88.59,0.86C136.33,43.59,100.73,51.23,99.15,29.28z"/>
		<path class="st1" d="M182.5,110.48c-3.01,32.87-27.45,61.99-48.36,59.73c-20.91-2.26-30.37-35.04-27.36-67.91
			c3-32.87,22.39-57.69,43.3-55.43C170.99,49.14,185.5,77.61,182.5,110.48z"/>
		<path class="st2" d="M164.04,117.59c-4.13,34.81-34.1,62.34-56.16,59.72c-22.06-2.62-27.87-34.39-23.74-69.2
			c4.13-34.81,15.34-61.27,47.43-58.29C153.69,51.88,168.17,82.78,164.04,117.59z"/>
		<path class="st1" d="M0.39,110.48c3,32.87,27.45,61.99,48.36,59.73c20.91-2.26,30.37-35.04,27.37-67.91
			c-3.01-32.87-22.39-57.69-43.3-55.43C11.9,49.14-2.61,77.61,0.39,110.48z"/>
		<path class="st2" d="M18.85,117.59c4.13,34.81,34.1,62.34,56.16,59.72c22.06-2.62,27.87-34.39,23.74-69.2
			C94.62,73.3,83.41,46.84,51.32,49.82C29.2,51.88,14.72,82.78,18.85,117.59z"/>
		<path class="st3" d="M129.99,115.92c0,35.87-18.3,65.54-38.77,66c-0.17,0.01-0.34,0.01-0.51,0.01
			c-21.07,0-39.01-30.44-39.01-66.01c0-35.57,9.21-66.33,39.01-66.01c0.09,0,0.17,0,0.26,0.01c0.08-0.01,0.15-0.01,0.22,0
			c0.01-0.01,0.01,0,0.03,0C121.36,49.6,129.99,80.24,129.99,115.92z"/>
		<path class="st4" d="M129.67,70.39c1.81,1.5,17.97,9.53,17.22,16.78c0.9-8.69-1.7-22.96-10.52-27.2
			C129.9,56.87,122.49,64.43,129.67,70.39z"/>
	</g>
</g>
</svg>
