<?xml version="1.0" encoding="utf-8"?>
<!-- Generator: Adobe Illustrator 25.4.1, SVG Export Plug-In . SVG Version: 6.00 Build 0)  -->
<svg version="1.1" id="Layer_1" xmlns="http://www.w3.org/2000/svg" xmlns:xlink="http://www.w3.org/1999/xlink" x="0px" y="0px"
	 viewBox="0 0 177.91 133.54" style="enable-background:new 0 0 177.91 133.54;" xml:space="preserve">
<style type="text/css">
	.st0{fill:#E52825;}
	.st1{fill:#272A3B;}
	.st2{fill:#FEE6DA;}
	.st3{fill:#F3704F;}
	.st4{fill:#F79B89;}
</style>
<g id="_x31_2">
	<g>
		<g>
			<path class="st0" d="M48.92,55.63c9.15,1.31,16.99,5.66,26.14,7.84c8.71,1.74,17.42,2.62,26.14,0c0.02-0.01,0.04-0.01,0.07-0.02
				c0-0.71,0.04-1.41,0.13-2.1c0.99-8.1,7.41-15.39,14.86-19.92C132.91,31.3,159.43,35,169.1,53.33
				c6.65-19.29-16.48-32.6-31.56-37.17c-12.92-3.92-26.66-5.08-40.11-4.61c-25.8,0.9-55.62,7.51-74.85,25.94
				c-3.93,3.77-7.35,8.11-9.75,13.01c-1.11,2.25-1.99,4.6-2.64,7.04C23.32,55.5,35.97,54.15,48.92,55.63z"/>
			<path class="st1" d="M171.41,69.12c-2.64,6.4-15.81,18.31-23.21,19.11c-11.84,1.27-27.52-0.1-37.69-7.95
				c-2.42-1.87-4.53-4.11-6.21-6.76c-2.12-3.38-3.04-6.77-3.03-10.07c-0.03,0.01-0.05,0.01-0.07,0.02c-8.72,2.62-17.43,1.74-26.14,0
				c-9.15-2.18-16.99-6.54-26.14-7.84c-10.95-1.25-35.23-3.93-42.9,5.91c-2.98,3.82-3.19,9.05-3.08,13.9
				c0.25,10.38,4.13,20.48,4.13,20.48s19.67,21.67,41.47,28.87c31.56,10.42,59.76,12.34,87.16,1.36
				c13.75-5.51,26.04-14.65,34.3-27.05C174.97,91.64,184.67,73.75,171.41,69.12z"/>
			<path class="st2" d="M171.41,62.15c-2.64,6.4-15.81,18.31-23.21,19.11c-11.84,1.28-27.52-0.1-37.69-7.95
				c-2.42-1.87-4.53-4.11-6.21-6.76c-2.54-4.04-3.35-8.11-2.92-11.99H9.37c-1.34,8.99,0.52,19.11,6.6,30.3
				c0.76,1.4,1.57,2.76,2.41,4.07c15.55,24.15,44.79,28.84,72.48,30.17c31.15,1.5,49.34,0.71,76.14-24.03
				C174.78,87.89,184.68,66.78,171.41,62.15z"/>
			<path class="st3" d="M167.01,93.76c-5.33,4.92-10.32,8.89-15.13,12.08c-1.46,0.96-2.89,1.86-4.32,2.68
				c-4.88,2.83-9.63,4.89-14.44,6.36c-2.69,0.82-5.39,1.46-8.15,1.96c-10.14,1.81-20.97,1.58-34.11,0.95
				c-6.2-0.3-12.47-0.76-18.66-1.58c-2.88-0.38-5.74-0.84-8.56-1.38h-0.01c-18.19-3.54-34.82-10.98-45.26-27.21
				c-0.85-1.31-1.65-2.67-2.41-4.07c-8.7-16.03-8.78-29.86-3.14-41.32c2.41-4.9,5.82-9.24,9.75-13.01
				c6.84-6.55,15.01-11.61,23.86-15.44c0,0,0,0,0,0c2.4-1.04,4.85-1.99,7.34-2.86c8.43-2.94,17.29-4.91,26.05-6.13
				c1.43-0.2,2.86-0.38,4.29-0.54h0c4.51-0.5,8.96-0.82,13.3-0.97c12.34-0.42,24.92,0.51,36.89,3.7c1.08,0.28,2.15,0.59,3.22,0.91
				c1.02,0.31,2.06,0.66,3.14,1.04c14.92,5.35,34.62,18.14,28.42,36.13c-9.67-18.33-36.19-22.03-52.84-11.9
				c-7.45,4.53-13.87,11.82-14.86,19.92c-0.48,3.94,0.32,8.06,2.9,12.17c1.67,2.66,3.79,4.89,6.21,6.76
				c10.17,7.85,25.84,9.22,37.69,7.95c7.4-0.8,20.56-12.7,23.21-19.1C184.68,65.48,174.78,86.58,167.01,93.76z"/>
			<g>
				<path class="st4" d="M72.21,116.21c-2.88-0.38-5.74-0.84-8.56-1.38h-0.01c-9.18-5.32-16.5-12.14-21.78-20.29
					C31.86,79.07,30.64,61.08,31.38,48.71c0.44-7.34,1.57-13.11,3.57-18.17c2.57-6.53,6.55-12,11.49-16.77c0,0,0,0,0,0
					c2.4-1.04,4.85-1.99,7.34-2.86c-7.28,5.62-13.1,12.21-16.4,20.59c-1.89,4.79-2.97,10.31-3.39,17.37
					c-0.72,11.99,0.45,29.39,10.07,44.26C50.41,102.91,60.31,110.91,72.21,116.21z"/>
			</g>
			<g>
				<path class="st4" d="M133.12,114.89c-2.69,0.82-5.39,1.46-8.15,1.96c-6.62-0.82-13.13-2.35-19.41-4.84
					c-25.28-9.97-43.24-35.45-43.69-61.97c-0.22-13.05,3.98-26.45,11.84-37.72c1.87-2.68,3.92-5.2,6.13-7.54
					c1.43-0.2,2.86-0.38,4.29-0.54C71.9,15.96,64.19,32.87,64.48,49.99c0.43,25.48,17.71,49.99,42.03,59.58
					C115.03,112.93,124,114.49,133.12,114.89z"/>
			</g>
			<g>
				<path class="st4" d="M151.88,105.85c-1.46,0.96-2.89,1.86-4.32,2.68c-0.73,0-1.46-0.02-2.19-0.06
					c-20.62-0.84-39.82-10.97-50.1-26.44c-5.38-8.09-8.28-18.05-8.19-28.04c0.09-10.29,3.41-19.98,9.35-27.29
					c4.76-5.86,11.32-10.69,19.5-14.36c5.87-2.64,12.08-4.43,18.4-5.37c1.08,0.28,2.15,0.59,3.22,0.91
					c1.02,0.31,2.06,0.66,3.14,1.04c-8.14,0.51-16.2,2.44-23.69,5.8c-7.8,3.5-14.04,8.08-18.53,13.62
					c-11.38,14.01-11.81,35.98-1.01,52.24c9.83,14.79,28.23,24.47,48.03,25.28C147.64,105.95,149.77,105.94,151.88,105.85z"/>
			</g>
			<path class="st2" d="M99.69,50.43c-1.87-1.18-6.08,2.28-8.24,3.66c-4.99,3.19-8.83,1.98-13.4-0.48
				C72.54,50.64,67.19,50.7,61,52.2c-7.07,1.7-19.09,3.82-30.37,2.12c-7.57-1.13-13-6.25-17.75-11.83
				c-3.62,5.67-10.74,21.41-8.5,27.95C6.18,75.71,14.17,84.1,18,88.33c0.47-7.7,13.06-18.92,19.72-22.07
				c7.21-3.41,16.78-4.54,24.18-2.16c4.75,1.53,9.93,1.72,14.78,0.55c1.97-0.48,3.95-1.18,5.97-1.03c1.99,0.15,3.81,1.1,5.65,1.87
				c4.8,2.02,10.07,2.89,15.26,2.53c1.25-1.16,0.8-3.27-0.15-4.68c-0.95-1.41-2.32-2.59-2.85-4.21c-0.54-1.64-0.12-3.41,0.02-5.13
				C100.75,51.95,100.38,50.87,99.69,50.43z"/>
			<path class="st4" d="M98.13,60.71c0,2.59-2.1,4.69-4.7,4.69c-2.59,0-4.69-2.1-4.69-4.69c0-2.59,2.1-4.7,4.69-4.7
				C96.03,56.02,98.13,58.12,98.13,60.71z"/>
		</g>
		<path class="st4" d="M20.63,56.02c0,2.93-2.37,5.29-5.29,5.29c-2.92,0-5.29-2.37-5.29-5.29c0-2.92,2.37-5.29,5.29-5.29
			C18.26,50.73,20.63,53.09,20.63,56.02z"/>
		<path class="st4" d="M20.63,70.7c0,2.92-2.37,5.29-5.29,5.29c-2.92,0-5.29-2.37-5.29-5.29c0-2.93,2.37-5.29,5.29-5.29
			C18.26,65.4,20.63,67.77,20.63,70.7z"/>
	</g>
</g>
</svg>
