<?xml version="1.0" encoding="utf-8"?>
<!-- Generator: Adobe Illustrator 25.4.1, SVG Export Plug-In . SVG Version: 6.00 Build 0)  -->
<svg version="1.1" id="Layer_1" xmlns="http://www.w3.org/2000/svg" xmlns:xlink="http://www.w3.org/1999/xlink" x="0px" y="0px"
	 viewBox="0 0 474.91 461.09" style="enable-background:new 0 0 474.91 461.09;" xml:space="preserve">
<style type="text/css">
	.st0{fill:#BD5A37;}
	.st1{fill:#E5E5B7;}
	.st2{fill:#F47845;}
	.st3{fill:#E16B41;}
	.st4{opacity:0.1;fill:#FFFFFF;}
	.st5{fill:#FFFFFF;}
</style>
<path class="st0" d="M463.61,101.84C444.73,71.9,394.55,62.58,362.1,59.46c-47.21-4.54-93.35-6.11-141.76-6.1
	c-54.15,0.01-108.91,6.17-159.58,25.62C4.31,100.65,2.94,146.3,3.57,151.13c0.97,7.34,2.24,11.92,3.59,19.31l6.1,24.39
	c-0.1-0.82-0.1-1.55-0.13-2.26c33.41,153.27,223.1,140.62,337.53,97.37c42.66-16.12,84.69-39.17,105.41-81.46
	c8.09-16.5,13.71-39.15,16.33-57.59c0.78-5.5,2.51-11.57,2.24-17.08C474.08,122.17,469.59,111.32,463.61,101.84z"/>
<path class="st1" d="M455.01,136.08c0.15-11.18-10.57-17.88-20.76-18.27c4.31-22.85-25.89-9.22-30.43-22.99
	c-3.43-10.41,9.76-9.97,2.49-20.8c-4.42-6.58-12.82-8.43-17.38-14.55c-5.86-7.87-4.67-10.67-15.86-13.44
	c-7.75-1.92-14.81,2.12-18.35-7.33c-3.02-8.04,2.9-14.54-3.91-23.23c-4.5-5.75-12.37-9.69-18.94-12.41
	c-10.21-4.22-17.49-4.52-26.83,1.8c-9.23,6.24-15.49,15.89-28.33,10.97c-9.45-3.62-11.37-11.41-23.17-11.27
	c-10.24,0.12-15.91,5.47-25.34,5.82c-3.96,0.15-7.96-3-12.8-0.06c-3.86,2.34-2.78,9.39-6.96,11.07c-5.91,2.38-14.05-6.59-21.99-7.08
	c-23.61-1.46-39.61,18.59-50.28,36.44c-21.6-5.94-40.31-3.36-54.34,18.44c-6.87,10.67-3.32,14.5-2.38,25.62
	c1.33,15.83-2.37,10.67-12.5,12.17c-5.6,0.83-20.47,2.24-24.42,6.13c-3.87,3.81,0.23,8.55-2.39,12.25
	c-2.65,3.75-5.28,2.74-8.57,4.85c-8.55,5.49-13.68,5.27-14.66,18.27c-0.57,7.54,0.24,19.09,4.88,24.39l9.76,21.96
	c1.32,22.92,27.43,51.85,46.35,62.51c18.43,10.38,40.79,15.03,61.41,18.94c41.44,7.85,86.78,14.26,128.87,8.62
	c45.2-6.05,97.33-22.62,137.28-44.98c25.75-14.42,43.86-30.01,53.91-58.23C463.75,169.41,474.18,141.35,455.01,136.08z"/>
<g>
	<path class="st2" d="M474.65,133.84c-5.08,14.12-15.27,23.07-24.75,31.84c-12.51,11.57-25.5,20.13-40.95,27.87
		c-39.59,19.85-85.34,26.8-128.66,30.55c-58.63,5.08-116.5,1.53-171.65-16.64C70.85,195.02,33.7,176.52,3.57,151.13
		c-2.95,32.39,2.19,59.91,5.56,81.33c7.25,46.09,26.02,98.34,59.5,130.99c7.73,7.54,15.59,14.05,23.67,19.7
		c5.05,95.01,156.16,79.04,207.92,77.04c36.65-1.42,70.31-19.8,81.56-36.78c7.41-14.73,8.28-27.94,7.44-40.72
		c24.35-17.41,44.7-40.24,58.13-67.28c20.76-41.78,19.78-85.95,25.55-131.07C474.87,168.88,475.25,149.89,474.65,133.84z"/>
</g>
<path class="st3" d="M447.34,315.42c20.76-41.78,19.78-85.95,25.55-131.07c1.98-15.47,2.36-34.46,1.76-50.51
	c-10.6,16.92-15.85,24.3-25.33,33.06c-12.51,11.57-24.92,18.9-40.37,26.65c-6.08,3.05-12.31,5.79-18.65,8.27
	c-2.93,12.55-5.4,25.13-8.34,36.91c-13.8,55.31-45.14,112.67-99.4,136.37c-8,3.49-52.98,6.74-48.88,17.71
	c1.91,5.12,16.12,6.47,19.6,13.33c3.69,7.27,1.8,21.13,0.34,29c-1.38,7.44-6.21,17.53-3.67,25.86c20.15,0.36,37.99-0.33,50.27-0.8
	c36.65-1.42,70.31-19.8,81.56-36.78c7.41-14.73,8.28-27.94,7.44-40.72C413.57,365.29,433.91,342.46,447.34,315.42z"/>
<g>
	<path class="st1" d="M9.38,193.27c3.96-0.36,8.27-0.44,11.89,1.48c2.85,1.51,4.89,3.99,6.61,6.66c4.89,7.58,8.27,15.8,15.88,21.23
		c14.84,10.58,33.69-1.19,48.99,7.62c4.22,2.43,7.89,5.91,11.56,9.07c3.54,3.05,7.05,6.14,10.68,9.07
		c6.81,5.49,14.12,10.47,22.56,13.06c9.95,3.06,20.24,2.09,30.22-0.29c8.85-2.11,17.56-6,26.68-6.79c4.58-0.4,9.05,0.14,13.4,1.63
		c5.49,1.89,10.34,5.27,15.53,7.82c10.1,4.95,21,8.53,32.32,8.86c11.61,0.34,22.95-3.01,32.99-8.73c8.26-4.7,16.95-9.58,26.47-11.09
		c7.48-1.19,14.98,0.44,22.19,2.35c8.99,2.38,18.17,6.33,27.65,5.15c14.5-1.81,21.53-14.92,30.85-24.42
		c5.06-5.15,11.06-9.35,18.3-10.57c6.07-1.03,12.1,0.41,18.17,0.59c6.22,0.18,11.87-1.85,16.06-6.56c3.12-3.51,5.4-7.74,7.19-12.05
		c1.46-3.52,1.86-7.34,3.09-10.94c1.09-3.18,2.89-4.3,6.24-4.06c0-1.97,0-3.95,0-5.92c-2.23,0.27-4.07,1.21-5.75,2.7
		c-2.87,2.52,1.33,6.7,4.19,4.19c0.37-0.32,1.06-0.9,1.57-0.96c3.73-0.45,3.88-5.65,0-5.92c-4.05-0.28-7.78,1.04-10.11,4.47
		c-2.04,3.01-2.63,6.79-3.48,10.26c-1.6,6.5-5.57,15.16-12.22,17.92c-4.79,1.99-10.72,0.58-15.92,0.18
		c-7.17-0.55-14.28,0.46-20.63,3.99c-6.48,3.6-11.61,8.99-16.33,14.61c-4,4.77-7.9,10.08-13.21,13.48
		c-6.33,4.05-13.68,3.9-20.73,1.97c-8.91-2.44-17.71-5.5-26.94-6.49c-7.82-0.84-15.47,0.63-22.72,3.56
		c-10.65,4.31-20.02,11.42-31.16,14.5c-10.73,2.96-21.84,2.24-32.4-1.05c-5.56-1.73-10.88-4.1-16.03-6.82
		c-5.1-2.7-9.95-5.73-15.55-7.31c-8.8-2.48-17.58-1.02-26.19,1.49c-9.93,2.89-19.98,6.44-30.45,6.37
		c-18.93-0.13-32.29-14.04-45.83-25.38c-3.72-3.12-7.45-6.37-11.91-8.37c-4.11-1.84-8.44-2.77-12.93-3
		c-8.17-0.41-16.51,1.88-24.62,0.42c-9.48-1.71-14.66-9.09-19.12-16.96c-3.61-6.38-7.38-12.94-14.58-15.69
		c-3.94-1.5-8.31-1.59-12.46-1.21C5.62,187.7,5.58,193.62,9.38,193.27L9.38,193.27z"/>
</g>
<g>
	<path class="st1" d="M16.57,223.35c4.01-1.27,8-1.43,11.56,1.08c3.13,2.21,5.29,5.64,7.25,8.85c4.06,6.64,6.92,15.04,13.06,20.12
		c3.38,2.79,7.4,4.19,11.72,4.68c4.95,0.56,9.6-0.59,14.34-1.91c4.69-1.31,9.53-2.53,14.29-0.8c4.2,1.53,7.47,4.04,10.36,7.41
		c5.6,6.55,9.51,14.79,17.1,19.42c4.24,2.59,9.44,4.45,14.45,4.5c4.31,0.04,8.32-1.42,12.19-3.17c8.54-3.85,16.81-8.6,26.52-7.8
		c7.55,0.62,14.21,4.85,20.54,8.65c7.78,4.68,15.97,9.46,24.89,11.57c9.35,2.22,18.67,0.33,27.57-2.76c8.6-2.98,17.25-7.07,26.5-7.3
		c8.86-0.22,17.4,3.29,25.17,7.21c6.6,3.33,13.21,6.91,20.76,7.24c10.01,0.44,19.39-4.81,27.67-9.81c4.41-2.66,8.76-5.64,13.59-7.51
		c5.11-1.97,10.42-2.4,15.83-1.71c5.21,0.66,10.39,1.99,15.67,1.5c5.42-0.5,10.35-2.56,14.49-6.09c6.83-5.84,8.92-14.83,14.31-21.71
		c2.52-3.22,6.03-6.11,10.01-7.24c3.63-1.04,7.48-1.17,11.17-1.9c6.27-1.24,11.85-4.75,17.06-8.32c2.92-2,5.78-4.13,8.41-6.48
		c1.85-1.66,3.85-3.54,4.95-5.8c1.12-2.31,0.82-5.06-1.59-6.4c-3.33-1.85-6.32,3.26-2.99,5.11c0.45,0.25-0.38-0.42-0.44-0.53
		c-0.69-1.35,0.48,0.58-0.21-0.77c-0.02-0.04-0.16-0.62,0.03-0.27c0.06,0.11-0.37,0.82-0.01,0.07c-0.51,1.05-0.82,1.32-1.68,2.23
		c-2.12,2.25-4.57,4.21-7.06,6.03c-4.56,3.33-10.16,7.34-15.31,8.8c-3.75,1.07-7.67,1.27-11.49,1.97
		c-3.78,0.69-7.17,2.24-10.19,4.62c-7.37,5.79-9.96,14.28-15.03,21.76c-2.58,3.81-6.26,6.91-10.71,8.24
		c-5.11,1.53-10.24,0.67-15.39-0.14c-5.39-0.86-10.69-1.27-16.08-0.2c-4.99,0.99-9.63,3.25-13.99,5.8c-8.38,4.9-17,11.41-26.89,12.7
		c-7.3,0.95-13.74-2.11-20.06-5.33c-7.71-3.93-15.57-7.43-24.22-8.62c-9.18-1.25-18.02,1.38-26.55,4.5
		c-8.38,3.06-16.93,6.57-26.01,6.21c-9.06-0.36-17.68-4.98-25.35-9.47c-6.66-3.89-13.19-8.39-20.67-10.55
		c-8.29-2.4-16.85-1.13-24.74,2.08c-8.07,3.29-16.13,9.55-25.26,6.97c-4.47-1.26-8.37-3.54-11.55-6.91
		c-2.92-3.09-5.23-6.67-7.74-10.08c-5.3-7.23-11.98-13.58-21.38-14.43c-9.69-0.88-18.42,5.72-28.14,2.91
		c-7.61-2.2-10.52-10.14-13.98-16.46c-3.71-6.76-8.21-14.74-15.79-17.62c-4.06-1.54-8.48-1.13-12.54,0.16
		C11.38,218.79,12.93,224.51,16.57,223.35L16.57,223.35z"/>
</g>
<path class="st4" d="M129.22,233.31c-8.95-6.44-18.93-10.98-29.07-15.78c-10.74-5.08-39.92-24.53-49.29-11.76
	c-40.11,11.94-4.76,82.35,11.58,106c10.21,14.79,48.43,46,64.99,21.25c5.89-8.81,3.71-23.09,4.53-33.13
	c0.97-11.83,0.86-23.84,2.7-35.45C136.83,250.66,142.2,242.65,129.22,233.31z"/>
<path class="st5" d="M129.46,139.98c-6.87-6.17-10.87,2.63-17.63,0.04c-7.48-2.86-1.31-8.92,2.69-11.96
	c3.69-2.79,13.63-4.01,2.79-10.75c-3.81-2.37-15.4-1.27-19.4-0.24c-8.6,2.21-16.55,7.83-15.5,17.3
	c-10.09,1.73-20.28-7.08-29.64,0.14c-11.41,8.8,1.12,20.36,3.06,12.97c12.25-1.81,11.35,8.9,21.23,12.64
	c5.87,2.22,11.15-1.05,16.52,3.84c4.52,4.12,5.89,10.24,5.62,16.21c8.22-12.47,24.21-7.67,31.86-21.88
	C133.96,152.92,134.94,144.9,129.46,139.98z"/>
<path class="st5" d="M202.35,77.04c-2.35-0.27-13.76,3.52-16.47,1.73c-6.99-4.62-2.82-20.97,3.84-23.82
	c-4.24-5.54-15.08-5.01-20.32-0.93c-2.88,2.24-5.59,6.63-3.4,8.41c-9.71-1.99-23.43-6.06-31.24-2.99c-3.36,1.32-4.13,5.55-7.37,6.73
	c-2.65,0.97-5.14-0.51-7.3-0.06c-6.31,1.31-12.19,0.96-10.86,10.64c2.48-0.15,5.61,0.72,8.02,0.35C111.63,79.8,98,82.8,97.38,91.52
	c-0.5,7.04,8.02,11.32,12.62,5.49h-6.4c8.9-3.4,31.42-12.46,27.17,6.31c10.01-8.64,16.72,12.54,0.36,17.7
	c6.19,5.63,11.47-1.86,17.31,7.96c2.89,4.85,6.93,13.35,3.32,17.29c8.71-10.41,34.61-3.46,28.49-26.36
	c-2.21-8.26-12.73-11.69-0.75-18.14c11.66-6.27,13.48,3.04,21.77,4.66C214.44,109,219.79,79.07,202.35,77.04z"/>
<path class="st5" d="M203.53,35.7c-7.15-10.12-20.85-19.65-31.32-9.12c-2.97,2.99-8.14,8.65-10.07,12.12
	c-2.98,5.36-1.62,13.99,6.4,7.09l-3.66-0.91c6.57-6.53,8.16-3.58,14.66-4.51c5.39-0.77,11.29-6.36,16.24,0.11
	c3.13,4.09-2.31,16.95,6.4,15.18C210.59,53.95,206.41,39.76,203.53,35.7z"/>
<path class="st5" d="M333.25,34.81c-1.92-7.31-9.61-13.14-17.42-10.08c-7.59,2.97-6.91,12.78-17.38,11.25
	c-3.93-0.58-7.27-5.05-10.98-5.78c-5.29-1.05-5.59,1.24-10.06,1.87c-11.06,1.56-7.85-3.27-17.38-8.96
	c-8.15-4.86-43.62-1.91-37.55,14.49c0.73,1.96,2.41,2.89,4.5,3.37c-1.29,1.83-2.23,3.78-2.67,5.69c-2.56,11.15,8.47,8.31,8.53,16.51
	c0.03,4.33-5.65,4.48-3.06,9.4c1.42,2.7,7.74,2.54,9.9,5.42c4.57,6.08,2.75,16.4-2.72,20.63c-6.61,5.11-14.87,3.46-15.39,14.86
	c-0.61,13.32,13.7,11.86,22.23,5.5c11.14-8.31,8.91-26.28,20.59-32.79c8.02-4.47,19.97,0.99,27.41-3.13
	c10.14-5.62,9.47-19.86,4.95-27.92c10.14-4.85,18.01,8.53,27.34,6.21C332.29,59.31,335.2,42.24,333.25,34.81z"/>
<path class="st5" d="M271.98,128.09c-4.5-10.54-19.02-6.08-25.68,0.02c-8.65,7.93-6.48,14.98-20.12,11.18
	c-10.23-2.85-15.65-7.18-12.92-18.31c-3.66-2.12-6.71-0.84-9.1,1.64c-6.26-0.69-15.08,5.64-12.78,12.91
	c1.96,6.18,11.17,4.18,4.66,11.08c-7.62,8.08-32-1.25-30.33,12.68c-1.84-3.73-11.62,5.5-13.27,9.35c0.94,0.18,2.1,0.64,3.24,0.78
	c-5.22,8.51-12.95,17.52,2.13,18.16c10.88,0.46,17.3-10.11,28.15-8.25c11.74,2,7.57,13.15,15.3,17.62
	c7.02,4.07,16.55-3.6,18.77-10.06c3.37-9.81-8.64-18.41-0.8-26.8c12.12-12.97,13.58,8.87,21.54,11.07
	c4.82,1.33,10.09-4.06,14.72-4.64c4.7-0.59,7.16,2.27,10.71-0.86c3.69-3.26,3.81-12.77,1.83-19.74
	C271.48,141.43,273.63,131.96,271.98,128.09z"/>
<path class="st5" d="M353.31,59.3c-11.66-0.73-16.41,1.25-20.34,12.92c-3.78-2.06-13.1-3.31-17.12-0.82
	c-7.58,4.69-0.24,8.82-0.16,15.39c-5.81,1.65-40.62,8.56-29.46,18.52c-4.33-0.5-18.27,0.28-19.87,5.38
	c-3.13,10.03,11.7,5.72,15.59,8.26c7.41,4.84,0.81,12.25,3.64,19.28c2.72,6.77,11.55,9.08,18.18,8.05
	c1.98-5.51,2.02-12.23-2.58-16.33c0.05-17.39,7.26-17.74,18.5-24.7c4.81-2.98,4.18-6.86,11.69-5.53c5.1,0.9,7.79,4.74,11.66,7.62
	c2.59,1.92,3.79,7.41,7.36,4.14c3.9-3.58-4.07-19-4.45-22.57c-1.61-15.15,14.92-25.37,26.41-14.84
	C374.65,60.58,364.23,59.98,353.31,59.3z"/>
<g>
	<path class="st5" d="M296.61,209.52l0.91-2.74c-1.08-0.36-2.06-0.78-2.98-1.23C294.16,206.94,294.64,208.35,296.61,209.52z"/>
	<path class="st5" d="M317.7,184.78c-5.41-1.41-33.96,3.62-21.13-9.99c8.04-8.54,23.74-7.33,33.57-6.59
		c-2.27-2.97-5.57-7.35-9.05-8.78c-6.03-2.49-7.94,1.32-13.5,1.87c-9,0.9-17-6.33-26.44-0.98c1.49,5.96,4.81,8.29,1.05,12.85
		c-3.8,4.6-8.54,1.69-13.03,3.43c-11.43,4.45-2.53,16.58-19.21,12.55c-32.66-7.89-17.98,36.41,4.57,16.63
		c5.9,7.17,15.55-2.57,21.95-4.51c8.75-2.64,12.11,1.39,18.06,4.28c0.67-2.44,3.98-4.84,6.65-5.88c4.99-1.94,10.63,1.78,14.84,1.42
		C328.7,200,330.26,188.05,317.7,184.78z"/>
</g>
</svg>
