<?xml version="1.0" encoding="utf-8"?>
<!-- Generator: Adobe Illustrator 25.4.1, SVG Export Plug-In . SVG Version: 6.00 Build 0)  -->
<svg version="1.1" id="Layer_1" xmlns="http://www.w3.org/2000/svg" xmlns:xlink="http://www.w3.org/1999/xlink" x="0px" y="0px"
	 viewBox="0 0 479.73 365.96" style="enable-background:new 0 0 479.73 365.96;" xml:space="preserve">
<style type="text/css">
	.st0{fill:#F7D3B0;}
	.st1{fill:#E2BFA3;}
	.st2{fill:#CEAE98;}
	.st3{fill:#70B56B;}
	.st4{fill:#84C77A;}
	.st5{fill:#E14D25;}
	.st6{fill:#F15C2F;}
	.st7{fill:#F58B79;}
	.st8{fill:#FBB065;}
	.st9{opacity:0.24;fill:#FFFFFF;}
	.st10{fill:#93CA68;}
	.st11{fill:#5AB24D;}
	.st12{fill:#87C87D;}
	.st13{fill:#B5DBA6;}
	.st14{fill:#C7E2B0;}
	.st15{fill:#EECFBA;}
	.st16{fill:#E9BEAC;}
	.st17{opacity:0.38;fill:#FFFFFF;}
	.st18{fill:#FEDECA;}
	.st19{fill:#0D0E0E;}
	.st20{fill:#373940;}
	.st21{fill:#FFECD8;}
	.st22{fill:#FEDC31;}
	.st23{opacity:0.52;fill:#FFFFFF;}
</style>
<g>
	<g>
		<path class="st0" d="M11.62,116.95c1.96,33.35,84.14,62.53,223.43,62.53c143.82,0,222.28-22.17,223.41-62.53
			c1.14-40.36-76.75-69.97-220.01-69.36C117.79,48.11,16.73,56.69,11.62,116.95L11.62,116.95z"/>
		<path class="st1" d="M21.29,116.58c1.88,29.75,80.5,55.79,213.76,55.79c137.6,0,212.66-19.78,213.74-55.79
			c1.09-36.01-73.43-62.43-210.49-61.88C122.87,55.17,26.18,62.82,21.29,116.58L21.29,116.58z"/>
		<path class="st2" d="M21.29,116.69c1.5,23.85,52.33,45.31,141.08,52.89c-4.76-3.23-9.4-6.66-13.89-10.27
			c-27.46-22.1-49.49-50.99-63.36-83.41c-1.17-2.73-2.44-5.59-3.65-8.52C46.19,76.33,23.59,91.41,21.29,116.69z"/>
	</g>
	<path class="st3" d="M121.08,150.99c-1.64-1.76-3.53-3.34-4.66-5.46c-1.22-2.27-1.44-4.91-2.09-7.4
		c-1.76-6.75-6.95-12.51-13.48-14.97c-1.67-0.63-3.54-1.13-4.63-2.55c-1.11-1.44-1.11-3.41-1.32-5.21
		c-0.83-7.03-6.01-13.36-12.74-15.56c-2.07-0.68-4.32-1.02-6.05-2.34c-3.83-2.93-3.23-8.86-5.51-13.1
		c-1.28-2.39-3.44-4.16-5.55-5.86c-3.63-2.94-7.25-5.88-10.88-8.81c-3.72-3.01-7.69-6.14-12.43-6.8c-2.45-0.34-5.16-0.05-7.2-1.47
		c-1.85-1.29-2.58-3.62-3.64-5.61c-4.59-8.69-17.73-11.17-25.26-4.86s-7.49,19.53-0.01,25.9C0.28,81.21-0.11,89.61,2.89,95.8
		c3,6.19,8.57,10.68,14.01,14.9c1.37,1.07,2.79,2.18,3.6,3.72c1.16,2.22,0.84,4.88,0.86,7.38c0.09,11.28,8.61,21.94,19.59,24.52
		l86,33.29C130.41,169.97,128.06,158.49,121.08,150.99z"/>
	<path class="st4" d="M101.06,88.34c-4.63-5.97-9.31-12.03-12.18-19.02C86,62.34,85.11,54.2,88.16,47.29
		c0.78-1.77,1.81-3.46,2.09-5.38c0.33-2.28-0.47-4.54-0.91-6.79c-1.55-7.82,1.42-16.37,7.47-21.56c6.06-5.19,14.96-6.8,22.45-4.07
		c4.83-3.94,12.04-4.68,17.57-1.81c5.53,2.87,9.08,9.19,8.65,15.41c5.92-1.56,12.23,2.27,15.38,7.52c3.15,5.25,3.79,11.6,4.06,17.72
		c8.81-0.55,17.78,3.52,23.17,10.52c5.39,7,7.03,16.71,4.25,25.09c8.34,6.73,16.38,15.04,18.33,25.58
		c1.95,10.54-4.98,23.19-15.7,23.6c5.95,0.57,8.68,8.62,6.12,14.03c-2.55,5.41-8.29,8.49-13.79,10.83
		c-11.15,4.73-22.95,7.94-34.96,9.52c-7.09,0.93-14.5,1.26-21.21-1.23c-14.7-5.47-21.47-21.7-26.71-35.22
		C99.78,119.08,85.12,98.37,101.06,88.34z"/>
	<path class="st3" d="M310.44,55.67c3.98-5.99,12.04-8.93,18.95-6.91c0.77-8.67,7.98-16.35,16.58-17.67
		c8.61-1.32,17.78,3.85,21.12,11.89c5.5-4.5,14.58,0.67,16.07,7.62c1.49,6.95-2.19,13.95-6.53,19.58c5.71,1.75,8.49,8.67,7.6,14.58
		c-0.88,5.91-4.47,11.01-7.95,15.87c7.46,5.59,8.95,17.09,4.42,25.24c-4.54,8.14-13.95,12.84-23.26,13.25
		c-9.72,0.43-17.81-3.55-26.28-7.6c-29.99,36.97-69.88-49.49-20.09-55.84C307.22,69.67,306.34,61.85,310.44,55.67z"/>
	<path class="st4" d="M352.12,91.3c4.03-6.68,8.81-13.03,14.98-17.79c4.51-3.48,9.64-6.03,14.74-8.55
		c14.05-6.96,31.14-13.88,44.61-5.86c2.46,1.47,4.66,3.38,7.24,4.62c5.71,2.75,12.39,1.86,18.73,1.82
		c6.45-0.04,13.12,0.96,18.56,4.42c5.45,3.45,9.41,9.77,8.66,16.17c-0.4,3.38-2.03,6.56-2.07,9.96c-0.04,2.93,1.11,5.74,1.52,8.64
		c1.06,7.41-3.8,15.65-11.18,16.92c-2.59,0.45-5.27,0.06-7.88,0.44c-11.48,1.68-16.36,16.45-27.07,20.91
		c-3.01,1.26-6.32,1.61-9.43,2.61c-3.31,1.06-6.34,2.82-9.49,4.27c-20.23,9.31-46.12,4.39-61.52-11.7
		C338.97,124.04,342.79,106.76,352.12,91.3z"/>
	<path class="st3" d="M313.94,145.72c1.03,0.24,2.13,0.62,3.11,0.22c1.25-0.52,1.68-2.03,2.13-3.3c2.58-7.25,11.38-11.61,18.71-9.27
		c1.58,0.51,3.17,1.29,4.82,1.11c2.33-0.25,3.99-2.28,5.84-3.72c4.74-3.66,12.09-3.37,16.53,0.65c1.2,1.09,2.24,2.43,3.72,3.11
		c1.6,0.73,3.47,0.55,5.16,1.05c5.88,1.72,7.39,10.5,13.3,12.12c3.86-6.53,13.79-7.58,20.02-3.25c6.23,4.33,8.91,12.5,8.43,20.07
		c-1.06,16.77-17.47,31-34.22,29.66c-7.53-0.6-14.74-3.87-22.3-3.84c-7.29,0.03-14.16,3.12-20.93,5.81
		c-16.42,6.53-32.77,4.22-37.73-14.53C297.74,171.03,293.22,140.9,313.94,145.72z"/>
	<g>
		<path class="st5" d="M328.08,55.65c0,0-18.04,34.85,28.75,55.35c46.79,20.5,59.99-19.36,59.99-19.36L328.08,55.65L328.08,55.65
			L328.08,55.65z"/>
		
			<ellipse transform="matrix(0.3858 -0.9226 0.9226 0.3858 160.2613 388.9586)" class="st6" cx="372.25" cy="74.12" rx="18.85" ry="47.88"/>
		
			<ellipse transform="matrix(0.3858 -0.9226 0.9226 0.3858 160.2609 388.9584)" class="st7" cx="372.25" cy="74.12" rx="16.59" ry="43.9"/>
		<path class="st6" d="M359.14,61.9c-1.94,0.07-4.24,0.58-4.91,2.4c-0.27,0.75-0.21,1.63-0.65,2.29c-0.44,0.65-1.29,0.97-1.64,1.68
			c-0.24,0.5-0.18,1.1-0.02,1.64c0.99,3.46,4.88,5.05,8.3,6.17c8.85,2.91,17.71,5.82,26.56,8.72c2.29,0.75,5.07,1.42,6.9-0.14
			c1.54-1.3,1.67-3.73,0.83-5.56c-0.84-1.83-2.43-3.19-4.01-4.45c-4.74-3.76-9.92-7.13-15.65-9.18
			C369.63,63.6,364.83,61.7,359.14,61.9z"/>
		<g>
			<path class="st8" d="M339.76,61c1.62,0.57,3.27,1.04,4.94,1.42c0.31,0.07,0.73-0.08,0.97-0.26c0.26-0.2,0.49-0.56,0.52-0.89
				c0.06-0.78-0.42-1.32-1.15-1.49c-0.51-0.12-1.02-0.24-1.52-0.38c0.12,0.03,0.23,0.06,0.34,0.09c-1.04-0.28-2.06-0.6-3.08-0.95
				c-0.66-0.23-1.48,0.01-1.74,0.71C338.81,59.91,339.05,60.76,339.76,61L339.76,61z"/>
		</g>
		<g>
			<path class="st8" d="M345.4,57.6c1.58,0.66,2.61-1.79,1.03-2.46C344.84,54.48,343.81,56.94,345.4,57.6L345.4,57.6z"/>
		</g>
		<g>
			<path class="st8" d="M345.42,57.56c0.9,0.46,1.79,0.93,2.69,1.39c0.29,0.15,0.73,0.12,1.02,0c0.3-0.12,0.61-0.41,0.72-0.72
				c0.12-0.32,0.15-0.7,0-1.02c-0.15-0.34-0.39-0.55-0.72-0.72c-0.9-0.46-1.79-0.93-2.69-1.39c-0.29-0.15-0.73-0.12-1.02,0
				c-0.3,0.12-0.61,0.41-0.72,0.72c-0.12,0.32-0.15,0.7,0,1.02C344.85,57.17,345.09,57.39,345.42,57.56L345.42,57.56z"/>
		</g>
		<g>
			<path class="st8" d="M355.87,55.06c-0.02,0.28-0.02,0.58,0.03,0.86c0.05,0.28,0.13,0.57,0.24,0.83c0.24,0.53,0.58,0.99,1.04,1.36
				c0.14,0.12,0.3,0.2,0.48,0.23c0.17,0.06,0.34,0.08,0.52,0.05c0.18-0.02,0.33-0.07,0.48-0.17c0.16-0.07,0.29-0.18,0.39-0.33
				c0.06-0.1,0.12-0.21,0.18-0.31c0.09-0.22,0.12-0.45,0.09-0.69c-0.06-0.34-0.22-0.65-0.5-0.87c-0.07-0.05-0.13-0.11-0.19-0.17
				c0.08,0.08,0.16,0.16,0.24,0.25c-0.13-0.13-0.24-0.28-0.33-0.44c0.06,0.1,0.11,0.2,0.17,0.3c-0.1-0.17-0.17-0.35-0.22-0.53
				c0.03,0.11,0.06,0.22,0.09,0.33c-0.05-0.18-0.07-0.36-0.07-0.55c0,0.12,0,0.23,0,0.35c0-0.04,0-0.09,0-0.13
				c0.03-0.18,0.01-0.35-0.05-0.51c-0.03-0.17-0.1-0.32-0.21-0.46c-0.1-0.15-0.24-0.26-0.4-0.34c-0.15-0.1-0.31-0.17-0.5-0.18
				c-0.34-0.03-0.7,0.04-0.97,0.26C356.12,54.38,355.89,54.7,355.87,55.06L355.87,55.06z"/>
		</g>
		<g>
			<path class="st8" d="M364.8,57.17c-0.13,0.49-0.25,0.99-0.38,1.48c-0.03,0.18-0.01,0.35,0.05,0.51c0.03,0.17,0.1,0.32,0.21,0.46
				c0.1,0.15,0.24,0.26,0.4,0.34c0.15,0.1,0.31,0.17,0.5,0.18c0.34,0.03,0.7-0.04,0.97-0.26c0.08-0.08,0.16-0.16,0.25-0.24
				c0.15-0.19,0.24-0.41,0.27-0.65c0.13-0.49,0.25-0.99,0.38-1.48c0.03-0.18,0.01-0.35-0.05-0.51c-0.03-0.17-0.1-0.32-0.21-0.46
				c-0.1-0.15-0.24-0.26-0.4-0.34c-0.15-0.1-0.31-0.17-0.5-0.18c-0.34-0.03-0.7,0.04-0.97,0.26c-0.08,0.08-0.16,0.16-0.25,0.24
				C364.92,56.71,364.83,56.92,364.8,57.17L364.8,57.17z"/>
		</g>
		<g>
			<path class="st8" d="M380.72,65.63c0.56-0.23,1.13-0.46,1.69-0.7c0.17-0.06,0.31-0.16,0.42-0.29c0.14-0.11,0.24-0.26,0.3-0.43
				c0.08-0.17,0.11-0.34,0.09-0.52c0.01-0.17-0.02-0.34-0.09-0.5c-0.06-0.1-0.11-0.2-0.17-0.3c-0.15-0.19-0.33-0.33-0.55-0.43
				c-0.11-0.03-0.23-0.06-0.34-0.09c-0.23-0.03-0.46,0-0.67,0.09c-0.56,0.23-1.13,0.46-1.69,0.7c-0.17,0.06-0.31,0.16-0.42,0.29
				c-0.14,0.11-0.24,0.26-0.3,0.43c-0.08,0.17-0.11,0.34-0.09,0.52c-0.01,0.17,0.02,0.34,0.09,0.5c0.06,0.1,0.11,0.2,0.17,0.3
				c0.15,0.19,0.33,0.33,0.55,0.43c0.11,0.03,0.23,0.06,0.34,0.09C380.28,65.75,380.5,65.72,380.72,65.63L380.72,65.63z"/>
		</g>
		<g>
			<path class="st8" d="M391.2,72.05c0.88,0.11,1.77,0.21,2.65,0.32c0.33,0.04,0.7-0.05,0.97-0.26c0.26-0.2,0.49-0.56,0.52-0.89
				c0.03-0.34-0.04-0.7-0.26-0.97c-0.23-0.28-0.53-0.48-0.89-0.52c-0.88-0.11-1.77-0.21-2.65-0.32c-0.33-0.04-0.7,0.05-0.97,0.26
				c-0.26,0.2-0.49,0.56-0.52,0.89c-0.03,0.34,0.04,0.7,0.26,0.97C390.54,71.81,390.84,72.01,391.2,72.05L391.2,72.05z"/>
		</g>
		<g>
			<path class="st8" d="M398.21,78.98c1.27,0.64,2.62,1.08,4.01,1.39c0.31,0.07,0.73-0.07,0.97-0.26c0.26-0.2,0.49-0.56,0.52-0.89
				c0.03-0.34-0.04-0.7-0.26-0.97c-0.24-0.29-0.53-0.44-0.89-0.52c-0.27-0.06-0.54-0.12-0.8-0.19c0.11,0.03,0.23,0.06,0.34,0.09
				c-0.99-0.27-1.95-0.64-2.87-1.1c-0.62-0.31-1.51,0.07-1.74,0.71C397.23,77.95,397.54,78.64,398.21,78.98L398.21,78.98z"/>
		</g>
		<g>
			<path class="st8" d="M400.66,86.75c1.09,0.76,2.18,1.51,3.27,2.27c0.29,0.2,0.64,0.32,1,0.27c0.32-0.04,0.68-0.23,0.87-0.5
				c0.4-0.56,0.39-1.44-0.23-1.87c-1.09-0.76-2.18-1.51-3.27-2.27c-0.29-0.2-0.64-0.32-1-0.27c-0.32,0.04-0.68,0.23-0.87,0.5
				C400.03,85.44,400.04,86.32,400.66,86.75L400.66,86.75z"/>
		</g>
		<g>
			<path class="st8" d="M393.39,88.68c0.43,0.81,0.86,1.63,1.29,2.44c0.06,0.17,0.16,0.31,0.29,0.42c0.11,0.14,0.26,0.24,0.43,0.3
				c0.3,0.13,0.72,0.14,1.02,0c0.31-0.14,0.6-0.38,0.72-0.72c0.11-0.31,0.17-0.71,0-1.02c-0.43-0.81-0.86-1.63-1.29-2.44
				c-0.06-0.17-0.16-0.31-0.29-0.42c-0.11-0.14-0.26-0.24-0.43-0.3c-0.3-0.13-0.72-0.14-1.02,0c-0.31,0.14-0.6,0.38-0.72,0.72
				C393.28,87.97,393.23,88.37,393.39,88.68L393.39,88.68z"/>
		</g>
		<g>
			<path class="st8" d="M382.83,88.69c0.03,0.18,0.05,0.36,0.05,0.55c0-0.12,0-0.23,0-0.35c0,0.26-0.03,0.52-0.1,0.78
				c0.03-0.11,0.06-0.23,0.09-0.34c-0.02,0.08-0.05,0.17-0.08,0.25c-0.08,0.17-0.11,0.34-0.09,0.52c-0.01,0.17,0.02,0.34,0.09,0.5
				c0.06,0.17,0.16,0.31,0.29,0.42c0.11,0.14,0.26,0.24,0.43,0.3c0.32,0.12,0.7,0.15,1.02,0c0.31-0.14,0.6-0.38,0.72-0.72
				c0.13-0.36,0.23-0.74,0.26-1.12c0.03-0.38,0.03-0.77-0.04-1.14c-0.06-0.34-0.22-0.66-0.5-0.87c-0.14-0.12-0.3-0.2-0.48-0.23
				c-0.17-0.06-0.34-0.08-0.52-0.05c-0.33,0.06-0.67,0.21-0.87,0.5c-0.06,0.1-0.12,0.21-0.18,0.31
				C382.83,88.22,382.8,88.45,382.83,88.69L382.83,88.69z"/>
		</g>
		<g>
			<path class="st8" d="M368.86,84.84c-0.02,0.3-0.07,0.59-0.15,0.88c0.03-0.11,0.06-0.23,0.09-0.34c-0.09,0.35-0.23,0.68-0.4,0.99
				c-0.08,0.17-0.11,0.34-0.09,0.52c-0.01,0.17,0.02,0.34,0.09,0.5c0.12,0.3,0.41,0.61,0.72,0.72c0.32,0.12,0.7,0.15,1.02,0
				c0.1-0.06,0.2-0.11,0.3-0.17c0.19-0.15,0.33-0.33,0.43-0.55c0.16-0.29,0.29-0.6,0.38-0.92c0.12-0.43,0.23-0.85,0.26-1.29
				c0.02-0.35-0.04-0.69-0.26-0.97c-0.1-0.15-0.24-0.26-0.4-0.34c-0.15-0.1-0.31-0.17-0.5-0.18c-0.34-0.03-0.7,0.04-0.97,0.26
				C369.12,84.16,368.89,84.48,368.86,84.84L368.86,84.84z"/>
		</g>
		<g>
			<path class="st8" d="M359.41,80.5c-0.05,0.14-0.11,0.28-0.18,0.41c0.06-0.1,0.12-0.21,0.18-0.31c-0.11,0.18-0.24,0.35-0.39,0.49
				c0.08-0.08,0.16-0.16,0.25-0.24c-0.14,0.14-0.3,0.26-0.48,0.36c0.1-0.06,0.2-0.11,0.3-0.17c-0.16,0.09-0.32,0.16-0.5,0.21
				c-0.17,0.06-0.31,0.16-0.42,0.29c-0.14,0.11-0.24,0.26-0.3,0.43c-0.13,0.3-0.14,0.72,0,1.02c0.14,0.31,0.38,0.6,0.72,0.72
				c0.11,0.03,0.23,0.06,0.34,0.09c0.23,0.03,0.46,0,0.67-0.09c0.29-0.08,0.53-0.23,0.79-0.38c0.17-0.1,0.32-0.21,0.47-0.35
				c0.21-0.2,0.43-0.41,0.59-0.66c0.16-0.25,0.32-0.52,0.42-0.8c0.12-0.34,0.14-0.68,0-1.02c-0.12-0.3-0.41-0.61-0.72-0.72
				c-0.32-0.12-0.7-0.15-1.02,0C359.82,79.92,359.52,80.16,359.41,80.5L359.41,80.5z"/>
		</g>
		<g>
			<path class="st8" d="M350.93,72.22c-0.44,0.19-0.89,0.35-1.35,0.47c0.11-0.03,0.22-0.06,0.33-0.09
				c-0.68,0.18-1.38,0.29-2.09,0.32c-0.32,0.01-0.68,0.26-0.87,0.5c-0.2,0.26-0.33,0.67-0.27,1c0.06,0.33,0.21,0.67,0.5,0.87
				c0.1,0.06,0.21,0.12,0.31,0.18c0.22,0.09,0.45,0.12,0.69,0.09c1.29-0.06,2.58-0.37,3.77-0.88c0.32-0.14,0.59-0.4,0.72-0.72
				c0.13-0.3,0.14-0.72,0-1.02c-0.14-0.31-0.38-0.6-0.72-0.72C351.62,72.1,351.26,72.08,350.93,72.22L350.93,72.22z"/>
		</g>
		<g>
			<path class="st8" d="M339.96,68c0.38-0.15,0.75-0.31,1.13-0.46c0.17-0.06,0.31-0.16,0.42-0.29c0.14-0.11,0.24-0.26,0.3-0.43
				c0.08-0.17,0.11-0.34,0.09-0.52c0.01-0.17-0.02-0.34-0.09-0.5c-0.06-0.1-0.11-0.2-0.17-0.3c-0.15-0.19-0.33-0.33-0.55-0.43
				c-0.11-0.03-0.23-0.06-0.34-0.09c-0.23-0.03-0.46,0-0.67,0.09c-0.38,0.15-0.75,0.31-1.13,0.46c-0.17,0.06-0.31,0.16-0.42,0.29
				c-0.14,0.11-0.24,0.26-0.3,0.43c-0.08,0.17-0.11,0.34-0.09,0.52c-0.01,0.17,0.02,0.34,0.09,0.5c0.06,0.1,0.11,0.2,0.17,0.3
				c0.15,0.19,0.33,0.33,0.55,0.43c0.11,0.03,0.23,0.06,0.34,0.09C339.52,68.12,339.74,68.09,339.96,68L339.96,68z"/>
		</g>
		<path class="st9" d="M332.94,88.32c1.83,2.7,3.81,5.49,6.73,6.95c1.06,0.53,2.6,0.72,3.18-0.31c0.47-0.83-0.06-1.86-0.6-2.65
			c-1.17-1.74-2.44-3.47-2.97-5.49c-0.9-3.45-1.68-11.43-7.15-11.39C326.45,75.46,331.48,86.16,332.94,88.32z"/>
	</g>
	<path class="st10" d="M187.21,116.37c-4.15-8.4-4.45-18.88,1.12-26.53c4.7-6.47,12.68-10.03,20.27-13.3
		c-9.97-9.26-12.38-24.85-5.63-36.38c6.75-11.53,22.09-18.02,35.8-15.15c-3.06-10.13,5.38-21.4,16.36-23.72
		c10.98-2.32,22.81,3.24,29.06,11.99c7.69-4.64,18.98-2.97,24.76,3.66c5.78,6.63,5.25,17.32-1.16,23.42
		c10.89,9.09,11.96,26.62,2.25,36.81c5.88,4.68,9.05,12.19,8.17,19.37c-0.88,7.18-5.77,13.82-12.63,17.15
		c1.42,4.7,2.8,9.92,0.48,14.3c-2.71,5.11-9.5,7.09-15.6,7.22c-6.1,0.14-12.29-1.02-18.26,0.13c2.3,5.72-2.37,12.23-8.38,14.63
		c-6.01,2.4-12.84,1.8-19.34,1.16c-7.31-0.72-14.63-1.45-21.94-2.17c-4.1-0.41-8.42-0.88-11.75-3.16
		c-3.84-2.63-5.31-9.07-8.85-12.66C196.48,127.58,190.73,123.49,187.21,116.37z"/>
	<g>
		<path class="st11" d="M323.43,116.46l-0.78,14.35c0,0,7.38,20.65,38.34,24.51c34.85,4.35,60.71-6.76,60.91-27.82
			c0.03-3.42-4.54-12.54-4.54-12.54l-94.53,0.74L323.43,116.46z"/>
		
			<ellipse transform="matrix(0.0518 -0.9987 0.9987 0.0518 233.825 482.2144)" class="st12" cx="370.84" cy="117.98" rx="24.6" ry="47.46"/>
		<path class="st13" d="M415.1,119.5c0.22,10.33-19.05,19.8-43.17,19.03c-24.12-0.77-45.39-12.14-45.61-22.47
			c-0.22-10.33,20.72-20.72,44.83-19.95C395.28,96.88,414.88,109.17,415.1,119.5z"/>
		<path class="st14" d="M343.54,113.96c-0.87-0.62-1.78-1.43-1.84-2.47c-0.09-1.67,1.95-2.42,3.59-2.53
			c3.42-0.23,6.93,0.29,10.22,1.5c-1.06-1.22-1.93-2.61-2.57-4.09c-0.14-0.31-0.26-0.66-0.17-0.98c0.22-0.74,1.3-0.62,2.05-0.33
			c3.79,1.47,7.4,3.48,10.68,5.94c-0.95-1.45-1.74-3.07-1.84-4.76c-0.11-1.69,0.58-3.47,2.02-4.28c1.88-1.06,4.47-0.15,6.01,1.52
			c1.54,1.67,2.27,3.89,2.86,6.06c2.89-2.47,6.82-3.7,10.72-3.33c0.91,0.09,1.96,0.35,2.41,1.18c0.68,1.27-0.59,2.59-1.72,3.37
			c4.43-1.25,9.61,0.05,13.16,3.29c0.44,0.4,0.89,0.91,0.85,1.48c-0.02,0.35-0.21,0.65-0.42,0.92c-1.53,2.01-3.95,3.17-6.45,3.68
			c-2.5,0.51-5.11,0.44-7.69,0.36c2.54,0.88,4.99,2.11,7.24,3.63c0.28,0.19,0.59,0.42,0.66,0.76c0.06,0.27-0.07,0.54-0.2,0.77
			c-1.59,2.69-5.3,3.44-8.42,2.59c-3.12-0.85-5.8-2.94-8.37-4.98c1.27,1.57,2.23,3.57,1.95,5.5c-0.29,1.94-2.2,3.59-4.12,3.04
			c-0.85-0.24-1.56-0.85-2.2-1.49c-1.93-1.92-3.45-4.25-4.43-6.77c-0.14,3.32-2.98,6.17-6.28,6.31c-0.86,0.04-1.8-0.12-2.42-0.75
			c-0.74-0.75-0.78-1.97-0.37-2.89c0.41-0.92,1.18-1.61,1.92-2.28c-2.32,1.48-5.38,2.84-7.79,1.26c-0.73-0.47-1.34-1.35-1.1-2.14
			c0.15-0.51,0.61-0.84,1.04-1.13c1.13-0.75,4.2-1.72,4.6-2.93C352.21,117.99,347.82,117,343.54,113.96z"/>
	</g>
	<g>
		<path class="st11" d="M167.83,191.64l15.58,11.95c0,0,31.5,10.03,68.97-13.05c42.18-25.98,57.08-56.54,33.21-73.29
			c-3.87-2.72-19.19-6.04-19.19-6.04l-100.08,80.33L167.83,191.64z"/>
		
			<ellipse transform="matrix(0.8652 -0.5014 0.5014 0.8652 -46.9557 131.0178)" class="st12" cx="220.19" cy="152.84" rx="66.56" ry="31.67"/>
		<path class="st13" d="M269.19,116.7c12.06,7.95,2.32,31.66-24.31,51.4s-62.34,28.73-74.4,20.79c-12.06-7.95-1.59-33.8,25.04-53.53
			S257.13,108.75,269.19,116.7z"/>
		<path class="st14" d="M186.45,172.71c-1.63,0.25-3.53,0.38-4.78-0.39c-2-1.24-0.69-3.54,0.95-5.02c3.39-3.07,7.73-5.62,12.63-7.44
			c-2.53-0.07-5.05-0.43-7.42-1.05c-0.5-0.13-1.04-0.3-1.3-0.63c-0.61-0.77,0.69-1.58,1.81-1.98c5.73-2.04,11.88-3.51,18.2-4.33
			c-2.67-0.34-5.36-0.95-7.41-2.19c-2.05-1.24-3.35-3.22-2.74-5.07c0.8-2.42,4.6-3.88,8.15-3.87c3.55,0.01,6.87,1.16,9.98,2.36
			c0.25-4.38,3.06-8.67,7.64-11.66c1.08-0.7,2.5-1.38,3.92-1.1c2.19,0.43,2.33,2.53,2.01,4.1c3.31-4.72,10.32-8.07,17.82-8.51
			c0.93-0.05,1.98-0.03,2.61,0.45c0.38,0.29,0.51,0.69,0.6,1.08c0.66,2.87-0.59,5.83-2.68,8.34s-4.95,4.66-7.8,6.78
			c3.73-1.45,7.74-2.55,11.88-3.25c0.52-0.09,1.12-0.16,1.57,0.04c0.37,0.17,0.55,0.48,0.67,0.78c1.38,3.46-1.73,7.18-6.03,9.15
			c-4.3,1.97-9.55,2.57-14.63,3.14c3.16,0.16,6.46,0.92,8.38,2.69c1.91,1.77,1.76,4.69-0.92,5.87c-1.19,0.53-2.64,0.65-4.05,0.68
			c-4.26,0.11-8.55-0.44-12.48-1.59c3.65,2.73,3.88,7.37,0.51,10.27c-0.87,0.75-2.06,1.42-3.45,1.45c-1.65,0.03-3.09-0.9-3.7-1.97
			c-0.62-1.07-0.59-2.26-0.55-3.41c-0.78,3.12-2.5,6.77-6.88,7.57c-1.32,0.24-2.97,0.07-3.62-0.76c-0.41-0.53-0.31-1.17-0.18-1.77
			c0.35-1.54,2.52-4.9,1.56-6.19C200.32,168.56,194.49,171.49,186.45,172.71z"/>
	</g>
	<g>
		<path class="st11" d="M188.39,24.55l-14.27,6.27c0,0-16.75,17.43-6.71,49.93c11.3,36.58,33.59,56.7,54.12,46.56
			c3.33-1.64,10.14-10.64,10.14-10.64l-42.82-93.09L188.39,24.55z"/>
		
			<ellipse transform="matrix(0.9376 -0.3477 0.3477 0.9376 -12.1112 76.8341)" class="st12" cx="208.03" cy="72.16" rx="26.65" ry="51.6"/>
		<path class="st13" d="M226.26,116.66c-9.93,5.29-27.7-9.11-37.69-33.33c-9.99-24.22-8.43-50.82,1.49-56.12
			c9.93-5.29,29.34,10.31,39.33,34.53C239.38,85.97,236.19,111.37,226.26,116.66z"/>
		<path class="st14" d="M199.77,43.21c0.21-1.16,0.59-2.46,1.58-3.03c1.58-0.91,3.21,0.74,4.05,2.31c1.74,3.27,2.81,6.99,3.1,10.84
			c0.72-1.65,1.67-3.19,2.82-4.54c0.24-0.29,0.52-0.58,0.87-0.64c0.82-0.14,1.18,0.99,1.23,1.86c0.26,4.47-0.08,9.02-1.01,13.48
			c0.98-1.65,2.2-3.22,3.8-4.16c1.6-0.94,3.62-1.13,5.05-0.11c1.86,1.34,2.13,4.34,1.2,6.68c-0.93,2.34-2.77,4.15-4.6,5.8
			c3.69,1.64,6.63,4.93,8,8.97c0.32,0.95,0.53,2.11-0.07,2.96c-0.93,1.3-2.77,0.69-4.03-0.05c3.18,3.77,4.23,9.53,2.67,14.63
			c-0.19,0.63-0.49,1.32-1.06,1.57c-0.35,0.15-0.72,0.11-1.08,0.04c-2.63-0.53-4.83-2.35-6.44-4.57c-1.61-2.22-2.7-4.84-3.78-7.43
			c0.28,2.95,0.18,5.96-0.3,8.94c-0.06,0.38-0.15,0.79-0.44,1.02c-0.24,0.19-0.55,0.2-0.84,0.18c-3.32-0.25-5.7-3.55-6.26-7.06
			c-0.57-3.5,0.27-7.17,1.11-10.71c-0.96,2.03-2.47,3.96-4.47,4.63c-2.01,0.67-4.47-0.42-4.79-2.58c-0.14-0.96,0.13-1.96,0.47-2.9
			c1.01-2.85,2.59-5.5,4.6-7.7c-3.28,1.49-7.31,0.09-8.92-3.11c-0.42-0.83-0.68-1.84-0.35-2.76c0.4-1.1,1.57-1.74,2.64-1.78
			s2.09,0.37,3.07,0.78c-2.47-1.57-5.15-3.92-4.69-7.09c0.14-0.95,0.71-1.98,1.59-2.13c0.56-0.1,1.09,0.19,1.56,0.48
			c1.23,0.75,3.54,3.31,4.89,3.11C199.72,53.75,198.72,48.92,199.77,43.21z"/>
	</g>
	<g>
		<path class="st5" d="M124.06,136.14c0,0,2.9,39.13,53.49,32.07c50.59-7.06,40.94-47.93,40.94-47.93L124.06,136.14L124.06,136.14
			L124.06,136.14z"/>
		
			<ellipse transform="matrix(0.9879 -0.155 0.155 0.9879 -17.8798 28.1166)" class="st6" cx="171.36" cy="128.71" rx="47.88" ry="18.85"/>
		
			<ellipse transform="matrix(0.9879 -0.155 0.155 0.9879 -17.8798 28.1167)" class="st7" cx="171.36" cy="128.71" rx="43.9" ry="16.59"/>
		<path class="st6" d="M153.79,125.18c-1.61,1.07-3.31,2.72-2.92,4.62c0.16,0.78,0.68,1.49,0.65,2.29c-0.03,0.79-0.59,1.5-0.51,2.29
			c0.05,0.56,0.43,1.03,0.84,1.41c2.66,2.42,6.8,1.74,10.3,0.9c9.06-2.16,18.13-4.33,27.19-6.49c2.35-0.56,5.06-1.44,5.81-3.74
			c0.62-1.92-0.53-4.05-2.21-5.18c-1.67-1.12-3.74-1.45-5.74-1.69c-6.01-0.71-12.18-0.87-18.14,0.38
			C163.62,121.13,158.53,122.03,153.79,125.18z"/>
		<g>
			<path class="st8" d="M136.81,134.58c1.68-0.36,3.33-0.83,4.96-1.38c0.3-0.1,0.58-0.45,0.69-0.73c0.12-0.31,0.13-0.73-0.03-1.03
				c-0.35-0.69-1.05-0.91-1.76-0.66c-0.49,0.17-0.99,0.33-1.49,0.48c0.11-0.03,0.23-0.07,0.34-0.1c-1.03,0.31-2.07,0.57-3.12,0.8
				c-0.68,0.15-1.26,0.79-1.11,1.52C135.43,134.14,136.09,134.74,136.81,134.58L136.81,134.58z"/>
		</g>
		<g>
			<path class="st8" d="M139.83,128.72c1.69-0.27,1.28-2.9-0.41-2.63C137.73,126.36,138.14,128.99,139.83,128.72L139.83,128.72z"/>
		</g>
		<g>
			<path class="st8" d="M139.83,128.68c1.01-0.08,2.01-0.15,3.02-0.23c0.32-0.02,0.68-0.28,0.87-0.53c0.19-0.26,0.31-0.67,0.24-0.99
				c-0.07-0.34-0.24-0.67-0.53-0.87c-0.31-0.2-0.62-0.27-0.99-0.24c-1.01,0.08-2.01,0.15-3.02,0.23c-0.32,0.02-0.68,0.28-0.87,0.53
				c-0.19,0.26-0.31,0.67-0.24,0.99c0.07,0.34,0.24,0.67,0.53,0.87C139.15,128.64,139.46,128.71,139.83,128.68L139.83,128.68z"/>
		</g>
		<g>
			<path class="st8" d="M147.42,121.07c0.13,0.25,0.29,0.5,0.48,0.71c0.19,0.21,0.41,0.42,0.64,0.58c0.48,0.33,1.02,0.54,1.59,0.61
				c0.18,0.03,0.36,0.01,0.53-0.06c0.17-0.04,0.33-0.11,0.46-0.23c0.14-0.11,0.25-0.24,0.32-0.4c0.1-0.15,0.15-0.31,0.17-0.48
				c0-0.12-0.01-0.24-0.01-0.36c-0.04-0.24-0.13-0.45-0.28-0.64c-0.23-0.26-0.53-0.44-0.88-0.48c-0.09-0.01-0.17-0.03-0.25-0.05
				c0.11,0.03,0.22,0.06,0.34,0.08c-0.18-0.05-0.35-0.11-0.52-0.2c0.1,0.05,0.2,0.11,0.3,0.16c-0.17-0.09-0.33-0.21-0.47-0.34
				c0.08,0.08,0.16,0.16,0.25,0.23c-0.13-0.13-0.25-0.27-0.35-0.43c0.06,0.1,0.12,0.2,0.18,0.29c-0.02-0.04-0.04-0.07-0.06-0.11
				c-0.07-0.16-0.17-0.3-0.31-0.41c-0.12-0.13-0.26-0.22-0.42-0.28c-0.17-0.07-0.34-0.1-0.51-0.08c-0.18-0.01-0.35,0.02-0.52,0.11
				c-0.3,0.15-0.58,0.4-0.69,0.73C147.28,120.36,147.25,120.76,147.42,121.07L147.42,121.07z"/>
		</g>
		<g>
			<path class="st8" d="M156.13,118.18c0.15,0.49,0.3,0.97,0.45,1.46c0.07,0.16,0.17,0.3,0.31,0.41c0.12,0.13,0.26,0.22,0.42,0.28
				c0.17,0.07,0.34,0.1,0.51,0.08c0.18,0.01,0.35-0.02,0.52-0.11c0.3-0.15,0.58-0.4,0.69-0.73c0.03-0.11,0.06-0.22,0.08-0.33
				c0.03-0.24-0.01-0.48-0.11-0.7c-0.15-0.49-0.3-0.97-0.45-1.46c-0.07-0.16-0.17-0.3-0.31-0.41c-0.12-0.13-0.26-0.22-0.42-0.28
				c-0.17-0.07-0.34-0.1-0.51-0.08c-0.18-0.01-0.35,0.02-0.52,0.11c-0.3,0.15-0.58,0.4-0.69,0.73c-0.03,0.11-0.06,0.22-0.08,0.34
				C155.99,117.73,156.03,117.96,156.13,118.18L156.13,118.18z"/>
		</g>
		<g>
			<path class="st8" d="M174.12,117.05c0.36-0.49,0.72-0.99,1.08-1.48c0.11-0.14,0.18-0.29,0.21-0.47c0.06-0.17,0.07-0.34,0.03-0.52
				c-0.02-0.18-0.09-0.35-0.19-0.49c-0.08-0.15-0.19-0.28-0.34-0.38c-0.1-0.05-0.2-0.11-0.3-0.16c-0.22-0.09-0.45-0.11-0.69-0.08
				c-0.11,0.03-0.23,0.07-0.34,0.1c-0.21,0.1-0.39,0.24-0.53,0.43c-0.36,0.49-0.72,0.99-1.08,1.48c-0.11,0.14-0.18,0.29-0.21,0.47
				c-0.06,0.17-0.07,0.34-0.03,0.52c0.02,0.18,0.09,0.35,0.19,0.49c0.08,0.15,0.19,0.28,0.34,0.38c0.1,0.05,0.2,0.11,0.3,0.16
				c0.22,0.09,0.45,0.11,0.69,0.08c0.11-0.03,0.23-0.07,0.34-0.1C173.81,117.38,173.99,117.24,174.12,117.05L174.12,117.05z"/>
		</g>
		<g>
			<path class="st8" d="M186.42,117.02c0.81-0.37,1.62-0.75,2.42-1.12c0.31-0.14,0.57-0.41,0.69-0.73c0.12-0.31,0.13-0.73-0.03-1.03
				c-0.15-0.3-0.4-0.58-0.73-0.69c-0.34-0.12-0.7-0.13-1.03,0.03c-0.81,0.37-1.62,0.75-2.42,1.12c-0.31,0.14-0.57,0.41-0.69,0.73
				c-0.12,0.31-0.13,0.73,0.03,1.03c0.15,0.3,0.4,0.58,0.73,0.69C185.72,117.16,186.09,117.17,186.42,117.02L186.42,117.02z"/>
		</g>
		<g>
			<path class="st8" d="M196.02,119.25c1.42-0.12,2.8-0.45,4.14-0.92c0.3-0.11,0.58-0.44,0.69-0.73c0.12-0.31,0.13-0.73-0.03-1.03
				c-0.15-0.3-0.4-0.58-0.73-0.69c-0.36-0.12-0.68-0.1-1.03,0.03c-0.26,0.09-0.52,0.18-0.78,0.25c0.11-0.03,0.23-0.07,0.34-0.1
				c-0.98,0.29-1.99,0.48-3.02,0.57c-0.7,0.06-1.25,0.85-1.11,1.52C194.65,118.88,195.27,119.31,196.02,119.25L196.02,119.25z"/>
		</g>
		<g>
			<path class="st8" d="M202.17,124.58c1.32,0.07,2.65,0.15,3.97,0.22c0.36,0.02,0.71-0.06,0.99-0.29c0.25-0.2,0.46-0.56,0.48-0.88
				c0.05-0.69-0.43-1.43-1.17-1.47c-1.32-0.07-2.65-0.15-3.97-0.22c-0.36-0.02-0.71,0.06-0.99,0.29c-0.25,0.2-0.46,0.56-0.48,0.88
				C200.95,123.8,201.43,124.54,202.17,124.58L202.17,124.58z"/>
		</g>
		<g>
			<path class="st8" d="M197,130.03c0.79,0.47,1.59,0.93,2.38,1.4c0.14,0.11,0.29,0.18,0.47,0.21c0.17,0.06,0.34,0.07,0.52,0.03
				c0.32-0.05,0.69-0.25,0.87-0.53c0.19-0.29,0.31-0.64,0.24-0.99c-0.07-0.33-0.23-0.69-0.53-0.87c-0.79-0.47-1.59-0.93-2.38-1.4
				c-0.14-0.11-0.29-0.18-0.47-0.21c-0.17-0.06-0.34-0.07-0.52-0.03c-0.32,0.05-0.69,0.25-0.87,0.53c-0.19,0.29-0.31,0.64-0.24,0.99
				C196.53,129.49,196.7,129.86,197,130.03L197,130.03z"/>
		</g>
		<g>
			<path class="st8" d="M188.01,135.58c0.12,0.14,0.23,0.28,0.33,0.44c-0.06-0.1-0.12-0.2-0.18-0.29c0.14,0.22,0.24,0.46,0.32,0.71
				c-0.03-0.11-0.07-0.23-0.1-0.34c0.02,0.08,0.05,0.17,0.06,0.25c0.02,0.18,0.09,0.35,0.19,0.49c0.08,0.15,0.19,0.28,0.34,0.38
				c0.14,0.11,0.29,0.18,0.47,0.21c0.17,0.06,0.34,0.07,0.52,0.03c0.34-0.07,0.67-0.24,0.87-0.53c0.19-0.29,0.31-0.64,0.24-0.99
				c-0.08-0.37-0.19-0.75-0.37-1.09c-0.17-0.34-0.38-0.67-0.63-0.95c-0.23-0.26-0.53-0.44-0.88-0.48c-0.18-0.03-0.36-0.01-0.53,0.06
				c-0.17,0.04-0.33,0.11-0.46,0.23c-0.25,0.23-0.46,0.53-0.48,0.88c0,0.12,0.01,0.24,0.01,0.36
				C187.76,135.18,187.86,135.39,188.01,135.58L188.01,135.58z"/>
		</g>
		<g>
			<path class="st8" d="M174.09,139.62c0.14,0.26,0.25,0.54,0.34,0.83c-0.03-0.11-0.07-0.23-0.1-0.34c0.1,0.34,0.16,0.7,0.18,1.06
				c0.02,0.18,0.09,0.35,0.19,0.49c0.08,0.15,0.19,0.28,0.34,0.38c0.26,0.19,0.67,0.31,0.99,0.24c0.34-0.07,0.67-0.24,0.87-0.53
				c0.05-0.1,0.11-0.2,0.16-0.3c0.09-0.22,0.11-0.45,0.08-0.69c-0.02-0.33-0.07-0.66-0.16-0.99c-0.12-0.43-0.25-0.84-0.46-1.24
				c-0.16-0.31-0.4-0.56-0.73-0.69c-0.17-0.07-0.34-0.1-0.51-0.08c-0.18-0.01-0.35,0.02-0.52,0.11c-0.3,0.15-0.58,0.4-0.69,0.73
				C173.96,138.91,173.93,139.3,174.09,139.62L174.09,139.62z"/>
		</g>
		<g>
			<path class="st8" d="M163.76,140.88c0.03,0.15,0.05,0.29,0.06,0.44c0-0.12-0.01-0.24-0.01-0.36c0,0.21-0.02,0.42-0.07,0.62
				c0.03-0.11,0.06-0.22,0.08-0.33c-0.05,0.19-0.12,0.38-0.22,0.56c0.05-0.1,0.11-0.2,0.16-0.3c-0.09,0.16-0.19,0.3-0.31,0.44
				c-0.11,0.14-0.18,0.29-0.21,0.47c-0.06,0.17-0.07,0.34-0.03,0.52c0.05,0.32,0.25,0.69,0.53,0.87c0.29,0.19,0.64,0.31,0.99,0.24
				c0.11-0.03,0.23-0.07,0.34-0.1c0.21-0.1,0.39-0.24,0.53-0.43c0.2-0.22,0.34-0.47,0.48-0.73c0.09-0.17,0.16-0.35,0.21-0.54
				c0.08-0.29,0.15-0.57,0.16-0.87c0.01-0.3,0-0.61-0.06-0.91c-0.08-0.35-0.24-0.66-0.53-0.87c-0.26-0.19-0.67-0.31-0.99-0.24
				c-0.34,0.07-0.67,0.24-0.87,0.53C163.82,140.17,163.69,140.54,163.76,140.88L163.76,140.88z"/>
		</g>
		<g>
			<path class="st8" d="M152.21,138.27c-0.27,0.39-0.58,0.76-0.9,1.11c0.08-0.08,0.16-0.17,0.23-0.25
				c-0.49,0.51-1.03,0.97-1.61,1.37c-0.26,0.18-0.45,0.58-0.48,0.88c-0.04,0.33,0.07,0.74,0.29,0.99c0.23,0.25,0.53,0.46,0.88,0.48
				c0.12,0,0.24-0.01,0.36-0.01c0.24-0.04,0.45-0.13,0.64-0.28c1.07-0.73,2.01-1.67,2.75-2.73c0.2-0.28,0.29-0.65,0.24-0.99
				c-0.05-0.32-0.25-0.69-0.53-0.87c-0.29-0.19-0.64-0.31-0.99-0.24C152.73,137.81,152.41,137.98,152.21,138.27L152.21,138.27z"/>
		</g>
		<g>
			<path class="st8" d="M140.66,140.43c0.24-0.33,0.48-0.66,0.72-0.99c0.11-0.14,0.18-0.29,0.21-0.47c0.06-0.17,0.07-0.34,0.03-0.52
				c-0.02-0.18-0.09-0.35-0.19-0.49c-0.08-0.15-0.19-0.28-0.34-0.38c-0.1-0.05-0.2-0.11-0.3-0.16c-0.22-0.09-0.45-0.11-0.69-0.08
				c-0.11,0.03-0.23,0.07-0.34,0.1c-0.21,0.1-0.39,0.24-0.53,0.43c-0.24,0.33-0.48,0.66-0.72,0.99c-0.11,0.14-0.18,0.29-0.21,0.47
				c-0.06,0.17-0.07,0.34-0.03,0.52c0.02,0.18,0.09,0.35,0.19,0.49c0.08,0.15,0.19,0.28,0.34,0.38c0.1,0.05,0.2,0.11,0.3,0.16
				c0.22,0.09,0.45,0.11,0.69,0.08c0.11-0.03,0.23-0.07,0.34-0.1C140.34,140.76,140.52,140.62,140.66,140.43L140.66,140.43z"/>
		</g>
		<path class="st9" d="M145.32,161.41c2.97,1.34,6.12,2.68,9.37,2.39c1.17-0.11,2.59-0.75,2.55-1.93c-0.04-0.96-1.03-1.55-1.9-1.95
			c-1.91-0.86-3.9-1.67-5.41-3.12c-2.57-2.47-7.42-8.85-12.06-5.95C133.06,153.87,142.94,160.34,145.32,161.41z"/>
	</g>
	<g>
		<path class="st5" d="M230.96,108.37c0,0,24.55,30.62,62.25-3.84c37.71-34.46,6.62-62.69,6.62-62.69L230.96,108.37L230.96,108.37
			L230.96,108.37z"/>
		
			<ellipse transform="matrix(0.7267 -0.687 0.687 0.7267 20.7821 203.2009)" class="st6" cx="265.75" cy="75.48" rx="47.88" ry="18.85"/>
		
			<ellipse transform="matrix(0.7267 -0.687 0.687 0.7267 20.7822 203.2012)" class="st7" cx="265.75" cy="75.48" rx="43.9" ry="16.59"/>
		<path class="st6" d="M249.27,82.52c-0.72,1.8-1.19,4.12,0.21,5.46c0.58,0.55,1.4,0.85,1.83,1.53c0.42,0.67,0.37,1.57,0.87,2.18
			c0.36,0.43,0.93,0.61,1.49,0.69c3.56,0.49,6.59-2.42,9-5.09c6.25-6.92,12.5-13.83,18.74-20.75c1.62-1.79,3.35-4.05,2.67-6.37
			c-0.57-1.93-2.74-3.04-4.75-3.02c-2.01,0.02-3.9,0.92-5.69,1.86c-5.36,2.81-10.54,6.18-14.73,10.58
			C255.07,73.61,251.39,77.24,249.27,82.52z"/>
		<g>
			<path class="st8" d="M240.59,99.87c1.18-1.25,2.28-2.57,3.3-3.94c0.19-0.25,0.23-0.7,0.16-0.99c-0.07-0.32-0.31-0.68-0.61-0.84
				c-0.68-0.37-1.38-0.15-1.83,0.45c-0.31,0.42-0.63,0.83-0.96,1.24c0.07-0.09,0.15-0.19,0.22-0.28c-0.68,0.84-1.38,1.65-2.12,2.43
				c-0.48,0.51-0.59,1.36-0.05,1.88C239.2,100.3,240.08,100.41,240.59,99.87L240.59,99.87z"/>
		</g>
		<g>
			<path class="st8" d="M239.77,93.34c1.25-1.18-0.58-3.11-1.83-1.93C236.69,92.58,238.52,94.52,239.77,93.34L239.77,93.34z"/>
		</g>
		<g>
			<path class="st8" d="M239.74,93.3c0.79-0.63,1.57-1.26,2.36-1.9c0.25-0.2,0.41-0.62,0.42-0.93c0.01-0.33-0.12-0.72-0.36-0.95
				c-0.25-0.24-0.58-0.42-0.93-0.42c-0.37,0.01-0.66,0.13-0.95,0.36c-0.79,0.63-1.57,1.26-2.36,1.9c-0.25,0.2-0.41,0.62-0.42,0.93
				c-0.01,0.33,0.12,0.72,0.36,0.95c0.25,0.24,0.58,0.42,0.93,0.42C239.15,93.66,239.45,93.53,239.74,93.3L239.74,93.3z"/>
		</g>
		<g>
			<path class="st8" d="M241.69,82.73c0.25,0.13,0.52,0.25,0.8,0.32c0.28,0.07,0.57,0.11,0.86,0.11c0.58,0,1.15-0.13,1.66-0.4
				c0.17-0.08,0.3-0.2,0.4-0.35c0.12-0.13,0.21-0.28,0.25-0.45c0.06-0.17,0.07-0.34,0.04-0.51c0-0.17-0.05-0.34-0.14-0.49
				c-0.07-0.1-0.14-0.19-0.21-0.29c-0.17-0.17-0.36-0.3-0.59-0.36c-0.34-0.08-0.68-0.06-1,0.1c-0.08,0.04-0.15,0.07-0.23,0.1
				c0.11-0.04,0.22-0.08,0.32-0.12c-0.17,0.06-0.36,0.11-0.54,0.13c0.11-0.01,0.23-0.02,0.34-0.03c-0.19,0.02-0.39,0.01-0.58-0.02
				c0.11,0.02,0.22,0.04,0.34,0.05c-0.18-0.03-0.36-0.08-0.53-0.16c0.11,0.05,0.21,0.09,0.32,0.14c-0.04-0.02-0.08-0.04-0.12-0.06
				c-0.15-0.1-0.31-0.15-0.48-0.17c-0.17-0.04-0.34-0.04-0.51,0.01c-0.18,0.03-0.33,0.11-0.47,0.23c-0.16,0.09-0.28,0.22-0.37,0.38
				c-0.16,0.3-0.25,0.66-0.16,0.99C241.17,82.23,241.37,82.57,241.69,82.73L241.69,82.73z"/>
		</g>
		<g>
			<path class="st8" d="M247.23,75.42c0.4,0.31,0.8,0.63,1.2,0.94c0.15,0.1,0.31,0.15,0.48,0.17c0.17,0.04,0.34,0.04,0.51-0.01
				c0.18-0.03,0.33-0.11,0.47-0.23c0.16-0.09,0.28-0.22,0.37-0.38c0.16-0.3,0.25-0.66,0.16-0.99c-0.04-0.11-0.08-0.22-0.12-0.32
				c-0.12-0.22-0.28-0.39-0.49-0.51c-0.4-0.31-0.8-0.63-1.2-0.94c-0.15-0.1-0.31-0.15-0.48-0.17c-0.17-0.04-0.34-0.04-0.51,0.01
				c-0.18,0.03-0.33,0.11-0.47,0.23c-0.16,0.09-0.28,0.22-0.37,0.38c-0.16,0.3-0.25,0.66-0.16,0.99c0.04,0.11,0.08,0.22,0.12,0.32
				C246.86,75.12,247.03,75.3,247.23,75.42L247.23,75.42z"/>
		</g>
		<g>
			<path class="st8" d="M261.43,64.31c0.02-0.61,0.03-1.22,0.05-1.83c0.01-0.18-0.02-0.34-0.09-0.5c-0.05-0.17-0.14-0.32-0.27-0.45
				c-0.12-0.14-0.27-0.24-0.44-0.29c-0.15-0.08-0.32-0.12-0.49-0.12c-0.11,0.01-0.23,0.02-0.34,0.03c-0.23,0.06-0.44,0.16-0.61,0.33
				c-0.07,0.09-0.15,0.19-0.22,0.28c-0.12,0.2-0.18,0.42-0.19,0.65c-0.02,0.61-0.03,1.22-0.05,1.83c-0.01,0.18,0.02,0.34,0.09,0.5
				c0.05,0.17,0.14,0.32,0.27,0.45c0.12,0.14,0.27,0.24,0.44,0.29c0.15,0.08,0.32,0.12,0.49,0.12c0.11-0.01,0.23-0.02,0.34-0.03
				c0.23-0.06,0.44-0.17,0.61-0.33c0.07-0.09,0.15-0.19,0.22-0.28C261.36,64.76,261.42,64.54,261.43,64.31L261.43,64.31z"/>
		</g>
		<g>
			<path class="st8" d="M271.54,57.32c0.45-0.76,0.91-1.53,1.36-2.29c0.17-0.29,0.23-0.66,0.16-0.99c-0.07-0.32-0.31-0.68-0.61-0.84
				c-0.3-0.16-0.66-0.25-0.99-0.16c-0.34,0.1-0.65,0.29-0.84,0.61c-0.45,0.76-0.91,1.53-1.36,2.29c-0.17,0.29-0.23,0.66-0.16,0.99
				c0.07,0.32,0.31,0.68,0.61,0.84c0.3,0.16,0.66,0.25,0.99,0.16C271.05,57.83,271.36,57.63,271.54,57.32L271.54,57.32z"/>
		</g>
		<g>
			<path class="st8" d="M280.72,53.72c1.1-0.9,2.05-1.96,2.89-3.11c0.19-0.26,0.23-0.69,0.16-0.99c-0.07-0.32-0.31-0.68-0.61-0.84
				c-0.3-0.16-0.66-0.25-0.99-0.16c-0.36,0.1-0.62,0.3-0.84,0.61c-0.16,0.22-0.33,0.44-0.5,0.65c0.07-0.09,0.15-0.19,0.22-0.28
				c-0.65,0.79-1.37,1.52-2.17,2.17c-0.54,0.44-0.55,1.41-0.05,1.88C279.38,54.2,280.14,54.2,280.72,53.72L280.72,53.72z"/>
		</g>
		<g>
			<path class="st8" d="M288.81,54.64c1.13-0.69,2.27-1.38,3.4-2.07c0.31-0.19,0.55-0.45,0.65-0.8c0.09-0.31,0.06-0.72-0.1-1
				c-0.35-0.59-1.16-0.94-1.8-0.55c-1.13,0.69-2.27,1.38-3.4,2.07c-0.31,0.19-0.55,0.45-0.65,0.8c-0.09,0.31-0.06,0.72,0.1,1
				C287.36,54.68,288.18,55.03,288.81,54.64L288.81,54.64z"/>
		</g>
		<g>
			<path class="st8" d="M287.63,62.06c0.92-0.06,1.84-0.13,2.76-0.19c0.18,0.01,0.34-0.02,0.5-0.09c0.17-0.05,0.32-0.14,0.45-0.27
				c0.24-0.22,0.42-0.6,0.42-0.93c-0.01-0.34-0.11-0.71-0.36-0.95c-0.24-0.23-0.58-0.44-0.93-0.42c-0.92,0.06-1.84,0.13-2.76,0.19
				c-0.18-0.01-0.34,0.02-0.5,0.09c-0.17,0.05-0.32,0.14-0.45,0.27c-0.24,0.22-0.42,0.6-0.42,0.93c0.01,0.34,0.11,0.71,0.36,0.95
				C286.94,61.88,287.29,62.08,287.63,62.06L287.63,62.06z"/>
		</g>
		<g>
			<path class="st8" d="M283.36,71.72c0.18,0.04,0.35,0.1,0.52,0.18c-0.11-0.05-0.21-0.09-0.32-0.14c0.24,0.11,0.46,0.24,0.67,0.41
				c-0.09-0.07-0.19-0.15-0.28-0.22c0.07,0.05,0.13,0.11,0.2,0.17c0.12,0.14,0.27,0.24,0.44,0.29c0.15,0.08,0.32,0.12,0.49,0.12
				c0.18,0.01,0.34-0.02,0.5-0.09c0.17-0.05,0.32-0.14,0.45-0.27c0.24-0.25,0.42-0.58,0.42-0.93c0-0.34-0.11-0.71-0.36-0.95
				c-0.28-0.26-0.58-0.51-0.92-0.69c-0.33-0.18-0.69-0.34-1.06-0.43c-0.33-0.08-0.69-0.06-1,0.1c-0.17,0.08-0.3,0.2-0.4,0.35
				c-0.12,0.13-0.21,0.28-0.25,0.45c-0.08,0.33-0.07,0.7,0.1,1c0.07,0.1,0.14,0.19,0.21,0.29
				C282.93,71.53,283.13,71.65,283.36,71.72L283.36,71.72z"/>
		</g>
		<g>
			<path class="st8" d="M274.18,82.93c0.26,0.14,0.51,0.3,0.75,0.49c-0.09-0.07-0.19-0.15-0.28-0.22c0.28,0.23,0.53,0.48,0.75,0.77
				c0.12,0.14,0.27,0.24,0.44,0.29c0.15,0.08,0.32,0.12,0.49,0.12c0.33,0.01,0.72-0.12,0.95-0.36c0.24-0.25,0.42-0.58,0.42-0.93
				c-0.01-0.11-0.02-0.23-0.03-0.34c-0.06-0.23-0.17-0.44-0.33-0.61c-0.2-0.26-0.43-0.51-0.69-0.72c-0.34-0.29-0.69-0.55-1.08-0.76
				c-0.31-0.16-0.65-0.24-0.99-0.16c-0.18,0.03-0.33,0.11-0.47,0.23c-0.16,0.09-0.28,0.22-0.37,0.38c-0.16,0.3-0.25,0.66-0.16,0.99
				C273.66,82.42,273.86,82.76,274.18,82.93L274.18,82.93z"/>
		</g>
		<g>
			<path class="st8" d="M266.37,89.81c0.11,0.1,0.21,0.21,0.3,0.33c-0.07-0.1-0.14-0.19-0.21-0.29c0.12,0.17,0.22,0.36,0.29,0.55
				c-0.04-0.11-0.08-0.22-0.12-0.32c0.07,0.19,0.11,0.38,0.14,0.58c-0.01-0.11-0.02-0.23-0.03-0.34c0.02,0.18,0.01,0.36-0.01,0.54
				c-0.01,0.18,0.02,0.34,0.09,0.5c0.05,0.17,0.14,0.32,0.27,0.45c0.22,0.24,0.6,0.42,0.93,0.42c0.34-0.01,0.71-0.11,0.95-0.36
				c0.07-0.09,0.15-0.19,0.22-0.28c0.12-0.2,0.18-0.42,0.19-0.65c0.04-0.29,0.01-0.58-0.02-0.88c-0.02-0.19-0.06-0.38-0.13-0.57
				c-0.1-0.28-0.2-0.56-0.36-0.8c-0.17-0.25-0.34-0.5-0.57-0.71c-0.26-0.24-0.57-0.41-0.93-0.42c-0.33-0.01-0.72,0.12-0.95,0.36
				c-0.24,0.25-0.42,0.58-0.42,0.93C266.02,89.2,266.12,89.57,266.37,89.81L266.37,89.81z"/>
		</g>
		<g>
			<path class="st8" d="M255.37,94.21c-0.01,0.48-0.04,0.95-0.12,1.42c0.02-0.11,0.04-0.22,0.05-0.34c-0.11,0.7-0.3,1.38-0.55,2.04
				c-0.11,0.3-0.04,0.73,0.1,1c0.16,0.29,0.48,0.57,0.8,0.65c0.33,0.08,0.7,0.07,1-0.1c0.1-0.07,0.19-0.14,0.29-0.21
				c0.17-0.17,0.3-0.36,0.36-0.59c0.47-1.2,0.71-2.51,0.72-3.8c0-0.35-0.12-0.7-0.36-0.95c-0.22-0.24-0.6-0.42-0.93-0.42
				c-0.34,0.01-0.71,0.11-0.95,0.36C255.54,93.53,255.37,93.85,255.37,94.21L255.37,94.21z"/>
		</g>
		<g>
			<path class="st8" d="M247.07,102.52c0.01-0.41,0.02-0.81,0.03-1.22c0.01-0.18-0.02-0.34-0.09-0.5c-0.05-0.17-0.14-0.32-0.27-0.45
				c-0.12-0.14-0.27-0.24-0.44-0.29c-0.15-0.08-0.32-0.12-0.49-0.12c-0.11,0.01-0.23,0.02-0.34,0.03c-0.23,0.06-0.44,0.16-0.61,0.33
				c-0.07,0.09-0.15,0.19-0.22,0.28c-0.12,0.2-0.18,0.42-0.19,0.65c-0.01,0.41-0.02,0.81-0.03,1.22c-0.01,0.18,0.02,0.34,0.09,0.5
				c0.05,0.17,0.14,0.32,0.27,0.45c0.12,0.14,0.27,0.24,0.44,0.29c0.15,0.08,0.32,0.12,0.49,0.12c0.11-0.01,0.23-0.02,0.34-0.03
				c0.23-0.06,0.44-0.16,0.61-0.33c0.07-0.09,0.15-0.19,0.22-0.28C247,102.98,247.07,102.76,247.07,102.52L247.07,102.52z"/>
		</g>
		<path class="st9" d="M262.79,117.18c3.21-0.57,6.57-1.25,9.08-3.33c0.91-0.75,1.71-2.09,1.01-3.03c-0.57-0.77-1.72-0.7-2.67-0.53
			c-2.06,0.37-4.16,0.83-6.23,0.49c-3.52-0.58-11.13-3.1-13.31,1.92C248.41,117.9,260.23,117.64,262.79,117.18z"/>
	</g>
	<g>
		<path class="st5" d="M277.14,152.99c0,0,11.31,37.57,59.17,19.72s29.59-55.66,29.59-55.66L277.14,152.99L277.14,152.99
			L277.14,152.99z"/>
		
			<ellipse transform="matrix(0.9309 -0.3652 0.3652 0.9309 -27.2643 126.8619)" class="st6" cx="321.71" cy="135.5" rx="47.88" ry="18.85"/>
		
			<ellipse transform="matrix(0.9309 -0.3652 0.3652 0.9309 -27.2643 126.8623)" class="st7" cx="321.71" cy="135.5" rx="43.9" ry="16.59"/>
		<path class="st6" d="M303.79,135.85c-1.34,1.4-2.64,3.37-1.85,5.14c0.33,0.73,0.98,1.31,1.13,2.1c0.14,0.77-0.25,1.6,0,2.34
			c0.17,0.53,0.64,0.91,1.12,1.19c3.12,1.79,7.02,0.22,10.25-1.35c8.38-4.08,16.76-8.15,25.14-12.23c2.17-1.05,4.63-2.5,4.86-4.9
			c0.19-2-1.4-3.84-3.28-4.57s-3.97-0.6-5.97-0.4c-6.02,0.6-12.08,1.79-17.62,4.3C312.51,129.77,307.74,131.75,303.79,135.85z"/>
		<g>
			<path class="st8" d="M289.25,148.7c1.56-0.72,3.07-1.53,4.54-2.42c0.27-0.16,0.47-0.56,0.52-0.86c0.05-0.33-0.04-0.74-0.25-1
				c-0.49-0.6-1.22-0.66-1.86-0.27c-0.45,0.27-0.9,0.53-1.35,0.79c0.1-0.06,0.21-0.12,0.31-0.17c-0.94,0.52-1.9,1.01-2.87,1.46
				c-0.63,0.29-1.06,1.04-0.75,1.73C287.81,148.58,288.57,149.02,289.25,148.7L289.25,148.7z"/>
		</g>
		<g>
			<path class="st8" d="M290.93,142.34c1.59-0.63,0.62-3.11-0.97-2.48C288.36,140.48,289.33,142.96,290.93,142.34L290.93,142.34z"/>
		</g>
		<g>
			<path class="st8" d="M290.92,142.29c0.97-0.29,1.93-0.58,2.9-0.87c0.31-0.09,0.61-0.42,0.73-0.71c0.13-0.3,0.15-0.72,0.02-1.02
				c-0.14-0.31-0.38-0.61-0.71-0.73c-0.34-0.13-0.66-0.13-1.02-0.02c-0.97,0.29-1.93,0.58-2.9,0.87c-0.31,0.09-0.61,0.42-0.73,0.71
				c-0.13,0.3-0.15,0.72-0.02,1.02c0.14,0.31,0.38,0.61,0.71,0.73C290.24,142.41,290.56,142.4,290.92,142.29L290.92,142.29z"/>
		</g>
		<g>
			<path class="st8" d="M296.68,133.22c0.18,0.21,0.39,0.43,0.62,0.59c0.23,0.17,0.49,0.32,0.75,0.43c0.54,0.22,1.11,0.31,1.69,0.25
				c0.18-0.01,0.35-0.07,0.5-0.17c0.16-0.07,0.3-0.18,0.4-0.33c0.11-0.13,0.19-0.29,0.22-0.46c0.06-0.16,0.08-0.33,0.06-0.51
				c-0.03-0.12-0.06-0.23-0.08-0.35c-0.09-0.22-0.23-0.41-0.41-0.56c-0.28-0.2-0.61-0.31-0.96-0.28c-0.09,0.01-0.17,0.01-0.26,0.01
				c0.12,0,0.23,0.01,0.35,0.01c-0.19-0.01-0.37-0.03-0.55-0.09c0.11,0.03,0.22,0.06,0.33,0.1c-0.19-0.05-0.36-0.13-0.53-0.23
				c0.1,0.06,0.19,0.12,0.29,0.17c-0.16-0.1-0.31-0.21-0.44-0.34c0.08,0.08,0.16,0.16,0.24,0.25c-0.03-0.03-0.06-0.06-0.09-0.09
				c-0.1-0.15-0.23-0.26-0.39-0.33c-0.14-0.1-0.3-0.16-0.47-0.18c-0.18-0.03-0.35-0.02-0.52,0.03c-0.18,0.03-0.34,0.1-0.49,0.22
				c-0.26,0.21-0.48,0.51-0.52,0.86C296.39,132.56,296.45,132.95,296.68,133.22L296.68,133.22z"/>
		</g>
		<g>
			<path class="st8" d="M304.56,128.52c0.25,0.44,0.51,0.88,0.76,1.32c0.1,0.15,0.23,0.26,0.39,0.33c0.14,0.1,0.3,0.16,0.47,0.18
				c0.18,0.03,0.35,0.02,0.52-0.03c0.18-0.03,0.34-0.1,0.49-0.22c0.26-0.21,0.48-0.51,0.52-0.86c0-0.12,0.01-0.23,0.01-0.35
				c-0.03-0.24-0.11-0.46-0.26-0.66c-0.25-0.44-0.51-0.88-0.76-1.32c-0.1-0.15-0.23-0.26-0.39-0.33c-0.14-0.1-0.3-0.16-0.47-0.18
				c-0.18-0.03-0.35-0.02-0.52,0.03c-0.18,0.03-0.34,0.1-0.49,0.22c-0.26,0.21-0.48,0.51-0.52,0.86c0,0.11-0.01,0.23-0.01,0.34
				C304.33,128.1,304.41,128.32,304.56,128.52L304.56,128.52z"/>
		</g>
		<g>
			<path class="st8" d="M321.88,123.52c0.24-0.56,0.49-1.12,0.73-1.68c0.08-0.16,0.11-0.33,0.1-0.5c0.02-0.18-0.01-0.35-0.08-0.52
				c-0.06-0.17-0.16-0.32-0.29-0.44c-0.11-0.13-0.25-0.23-0.41-0.3c-0.11-0.03-0.22-0.06-0.33-0.1c-0.24-0.04-0.47-0.01-0.69,0.08
				c-0.1,0.06-0.21,0.12-0.31,0.17c-0.19,0.14-0.33,0.32-0.42,0.53c-0.24,0.56-0.49,1.12-0.73,1.68c-0.08,0.16-0.11,0.33-0.1,0.5
				c-0.02,0.18,0.01,0.35,0.08,0.52c0.06,0.17,0.16,0.32,0.29,0.44c0.11,0.13,0.25,0.23,0.41,0.3c0.11,0.03,0.22,0.06,0.33,0.1
				c0.24,0.04,0.47,0.01,0.69-0.08c0.1-0.06,0.21-0.12,0.31-0.17C321.65,123.91,321.79,123.73,321.88,123.52L321.88,123.52z"/>
		</g>
		<g>
			<path class="st8" d="M333.88,120.82c0.71-0.54,1.42-1.08,2.12-1.62c0.27-0.2,0.46-0.53,0.52-0.86c0.05-0.33-0.04-0.74-0.25-1
				c-0.21-0.26-0.51-0.48-0.86-0.52c-0.35-0.04-0.71,0.03-1,0.25c-0.71,0.54-1.42,1.08-2.12,1.62c-0.27,0.2-0.46,0.53-0.52,0.86
				c-0.05,0.33,0.04,0.74,0.25,1c0.21,0.26,0.51,0.48,0.86,0.52C333.23,121.11,333.59,121.04,333.88,120.82L333.88,120.82z"/>
		</g>
		<g>
			<path class="st8" d="M343.73,120.92c1.36-0.43,2.64-1.05,3.84-1.8c0.27-0.17,0.47-0.56,0.52-0.86c0.05-0.33-0.04-0.74-0.25-1
				c-0.21-0.26-0.51-0.48-0.86-0.52c-0.37-0.04-0.69,0.05-1,0.25c-0.23,0.15-0.47,0.28-0.71,0.42c0.1-0.06,0.21-0.12,0.31-0.17
				c-0.9,0.49-1.84,0.9-2.82,1.21c-0.67,0.21-1.03,1.1-0.75,1.73C342.31,120.86,343.01,121.14,343.73,120.92L343.73,120.92z"/>
		</g>
		<g>
			<path class="st8" d="M350.89,124.8c1.31-0.22,2.62-0.43,3.93-0.64c0.35-0.06,0.68-0.21,0.91-0.5c0.2-0.25,0.33-0.64,0.28-0.96
				c-0.1-0.68-0.73-1.31-1.46-1.18c-1.31,0.22-2.62,0.43-3.93,0.64c-0.35,0.06-0.68,0.21-0.91,0.5c-0.2,0.25-0.33,0.64-0.28,0.96
				C349.53,124.29,350.16,124.92,350.89,124.8L350.89,124.8z"/>
		</g>
		<g>
			<path class="st8" d="M347.02,131.24c0.88,0.28,1.75,0.57,2.63,0.85c0.16,0.08,0.33,0.11,0.5,0.1c0.18,0.02,0.35-0.01,0.52-0.08
				c0.3-0.12,0.61-0.4,0.73-0.71c0.12-0.32,0.16-0.69,0.02-1.02c-0.14-0.3-0.38-0.63-0.71-0.73c-0.88-0.28-1.75-0.57-2.63-0.85
				c-0.16-0.08-0.33-0.11-0.5-0.1c-0.18-0.02-0.35,0.01-0.52,0.08c-0.3,0.12-0.61,0.4-0.73,0.71c-0.12,0.32-0.16,0.69-0.02,1.02
				C346.45,130.81,346.69,131.13,347.02,131.24L347.02,131.24z"/>
		</g>
		<g>
			<path class="st8" d="M339.45,138.6c0.15,0.11,0.29,0.23,0.42,0.36c-0.08-0.08-0.16-0.16-0.24-0.25c0.18,0.19,0.34,0.4,0.47,0.63
				c-0.06-0.1-0.12-0.21-0.17-0.31c0.04,0.08,0.08,0.15,0.12,0.23c0.06,0.17,0.16,0.32,0.29,0.44c0.11,0.13,0.25,0.23,0.41,0.3
				c0.16,0.08,0.33,0.11,0.5,0.1c0.18,0.02,0.35-0.01,0.52-0.08c0.31-0.14,0.61-0.38,0.73-0.71c0.12-0.32,0.17-0.7,0.02-1.02
				c-0.16-0.35-0.35-0.69-0.59-0.99c-0.24-0.29-0.52-0.57-0.82-0.79c-0.28-0.2-0.62-0.32-0.96-0.28c-0.19,0.01-0.35,0.07-0.5,0.17
				c-0.16,0.07-0.3,0.18-0.4,0.33c-0.2,0.27-0.33,0.62-0.28,0.96c0.03,0.12,0.06,0.23,0.08,0.35
				C339.12,138.26,339.26,138.45,339.45,138.6L339.45,138.6z"/>
		</g>
		<g>
			<path class="st8" d="M326.74,145.55c0.19,0.23,0.36,0.47,0.51,0.73c-0.06-0.1-0.12-0.21-0.17-0.31c0.17,0.31,0.31,0.65,0.4,0.99
				c0.06,0.17,0.16,0.32,0.29,0.44c0.11,0.13,0.25,0.23,0.41,0.3c0.3,0.13,0.72,0.15,1.02,0.02c0.31-0.14,0.61-0.38,0.73-0.71
				c0.03-0.11,0.06-0.22,0.1-0.33c0.04-0.24,0.01-0.47-0.08-0.69c-0.09-0.32-0.21-0.63-0.37-0.93c-0.21-0.39-0.43-0.77-0.72-1.11
				c-0.22-0.27-0.51-0.46-0.86-0.52c-0.18-0.03-0.35-0.02-0.52,0.03c-0.18,0.03-0.34,0.1-0.49,0.22c-0.26,0.21-0.48,0.51-0.52,0.86
				C326.45,144.89,326.51,145.28,326.74,145.55L326.74,145.55z"/>
		</g>
		<g>
			<path class="st8" d="M316.93,149.02c0.06,0.14,0.11,0.28,0.15,0.42c-0.03-0.12-0.06-0.23-0.08-0.35c0.05,0.2,0.07,0.41,0.07,0.62
				c0-0.12,0.01-0.23,0.01-0.35c-0.01,0.2-0.04,0.4-0.09,0.59c0.03-0.11,0.06-0.22,0.1-0.33c-0.05,0.17-0.12,0.34-0.21,0.49
				c-0.08,0.16-0.11,0.33-0.1,0.5c-0.02,0.18,0.01,0.35,0.08,0.52c0.12,0.3,0.4,0.61,0.71,0.73c0.32,0.12,0.69,0.16,1.02,0.02
				c0.1-0.06,0.21-0.12,0.31-0.17c0.19-0.14,0.33-0.32,0.42-0.53c0.15-0.26,0.23-0.53,0.31-0.82c0.05-0.19,0.08-0.38,0.09-0.57
				c0.01-0.3,0.02-0.59-0.03-0.88c-0.06-0.3-0.13-0.6-0.26-0.87c-0.15-0.32-0.37-0.59-0.71-0.73c-0.3-0.13-0.72-0.15-1.02-0.02
				c-0.31,0.14-0.61,0.38-0.73,0.71C316.82,148.32,316.78,148.7,316.93,149.02L316.93,149.02z"/>
		</g>
		<g>
			<path class="st8" d="M305.08,148.98c-0.18,0.44-0.4,0.87-0.64,1.28c0.06-0.1,0.12-0.19,0.17-0.29c-0.36,0.61-0.79,1.17-1.28,1.69
				c-0.22,0.23-0.31,0.66-0.28,0.96c0.03,0.33,0.23,0.71,0.5,0.91c0.27,0.2,0.62,0.33,0.96,0.28c0.12-0.03,0.23-0.06,0.35-0.09
				c0.22-0.09,0.41-0.23,0.56-0.41c0.88-0.94,1.6-2.07,2.09-3.26c0.13-0.32,0.15-0.7,0.02-1.02c-0.12-0.3-0.4-0.61-0.71-0.73
				c-0.32-0.12-0.69-0.16-1.02-0.02C305.49,148.42,305.21,148.65,305.08,148.98L305.08,148.98z"/>
		</g>
		<g>
			<path class="st8" d="M294.27,153.59c0.16-0.37,0.33-0.75,0.49-1.12c0.08-0.16,0.11-0.33,0.1-0.5c0.02-0.18-0.01-0.35-0.08-0.52
				c-0.06-0.17-0.16-0.32-0.29-0.44c-0.11-0.13-0.25-0.23-0.41-0.3c-0.11-0.03-0.22-0.06-0.33-0.1c-0.24-0.04-0.47-0.01-0.69,0.08
				c-0.1,0.06-0.21,0.12-0.31,0.17c-0.19,0.14-0.33,0.32-0.42,0.53c-0.16,0.37-0.33,0.75-0.49,1.12c-0.08,0.16-0.11,0.33-0.1,0.5
				c-0.02,0.18,0.01,0.35,0.08,0.52c0.06,0.17,0.16,0.32,0.29,0.44c0.11,0.13,0.25,0.23,0.41,0.3c0.11,0.03,0.22,0.06,0.33,0.1
				c0.24,0.04,0.47,0.01,0.69-0.08c0.1-0.06,0.21-0.12,0.31-0.17C294.04,153.98,294.18,153.8,294.27,153.59L294.27,153.59z"/>
		</g>
		<path class="st9" d="M303.37,173.06c3.19,0.67,6.56,1.3,9.66,0.31c1.12-0.36,2.37-1.3,2.07-2.44c-0.24-0.93-1.34-1.29-2.28-1.49
			c-2.05-0.43-4.17-0.79-5.96-1.88c-3.05-1.86-9.16-7.04-13.06-3.19C289.76,168.35,300.81,172.53,303.37,173.06z"/>
	</g>
	<g>
		<path class="st5" d="M59.14,87.2c0,0-36.71,13.85-15.63,60.38c21.08,46.53,57.55,25.72,57.55,25.72L59.14,87.2L59.14,87.2
			L59.14,87.2z"/>
		
			<ellipse transform="matrix(0.9038 -0.428 0.428 0.9038 -48.1824 46.6368)" class="st6" cx="79.63" cy="130.47" rx="18.85" ry="47.88"/>
		
			<ellipse transform="matrix(0.9038 -0.428 0.428 0.9038 -48.1824 46.6367)" class="st7" cx="79.63" cy="130.47" rx="16.59" ry="43.9"/>
		<path class="st6" d="M78.05,112.62c-1.48-1.25-3.54-2.4-5.25-1.49c-0.7,0.38-1.24,1.07-2.02,1.27c-0.76,0.19-1.61-0.14-2.34,0.16
			c-0.52,0.21-0.87,0.7-1.11,1.2c-1.57,3.23,0.26,7.02,2.05,10.13c4.64,8.08,9.28,16.17,13.92,24.25c1.2,2.09,2.82,4.45,5.23,4.51
			c2.01,0.06,3.74-1.66,4.34-3.58c0.6-1.92,0.33-4-0.01-5.98c-1.01-5.97-2.61-11.93-5.5-17.29
			C84.71,120.9,82.41,116.28,78.05,112.62z"/>
		<g>
			<path class="st8" d="M64.24,99c0.82,1.51,1.74,2.96,2.72,4.36c0.18,0.26,0.59,0.43,0.89,0.46c0.33,0.03,0.74-0.09,0.98-0.32
				c0.57-0.53,0.57-1.27,0.14-1.88c-0.3-0.43-0.59-0.86-0.88-1.3c0.06,0.1,0.13,0.2,0.19,0.3c-0.59-0.9-1.14-1.82-1.65-2.77
				c-0.33-0.61-1.11-0.98-1.77-0.63C64.26,97.54,63.88,98.34,64.24,99L64.24,99z"/>
		</g>
		<g>
			<path class="st8" d="M70.7,100.24c0.73,1.55,3.14,0.41,2.41-1.14C72.38,97.55,69.97,98.68,70.7,100.24L70.7,100.24z"/>
		</g>
		<g>
			<path class="st8" d="M70.75,100.22c0.36,0.94,0.71,1.89,1.07,2.83c0.11,0.3,0.46,0.58,0.76,0.68c0.31,0.11,0.72,0.1,1.02-0.05
				c0.3-0.16,0.58-0.42,0.68-0.76c0.11-0.35,0.08-0.67-0.05-1.02c-0.36-0.94-0.71-1.89-1.07-2.83c-0.11-0.3-0.46-0.58-0.76-0.68
				c-0.31-0.11-0.72-0.1-1.02,0.05c-0.3,0.16-0.58,0.42-0.68,0.76C70.59,99.55,70.61,99.87,70.75,100.22L70.75,100.22z"/>
		</g>
		<g>
			<path class="st8" d="M80.19,105.35c-0.2,0.2-0.4,0.42-0.55,0.66c-0.15,0.24-0.28,0.51-0.37,0.78c-0.18,0.55-0.23,1.13-0.14,1.7
				c0.03,0.18,0.09,0.35,0.21,0.49c0.08,0.16,0.2,0.28,0.35,0.38c0.14,0.1,0.3,0.17,0.47,0.19c0.17,0.05,0.34,0.06,0.51,0.02
				c0.11-0.04,0.23-0.07,0.34-0.11c0.22-0.1,0.39-0.25,0.53-0.45c0.18-0.3,0.27-0.63,0.21-0.98c-0.01-0.08-0.02-0.17-0.03-0.26
				c0,0.11,0.01,0.23,0.01,0.34c-0.01-0.19,0.01-0.37,0.05-0.55c-0.02,0.11-0.05,0.22-0.07,0.33c0.04-0.19,0.11-0.37,0.19-0.54
				c-0.05,0.1-0.1,0.2-0.15,0.3c0.09-0.17,0.19-0.32,0.31-0.46c-0.08,0.09-0.15,0.17-0.23,0.26c0.03-0.03,0.06-0.06,0.09-0.09
				c0.14-0.11,0.24-0.25,0.31-0.41c0.09-0.15,0.14-0.31,0.15-0.48c0.02-0.18,0-0.35-0.07-0.51c-0.04-0.18-0.12-0.33-0.25-0.47
				c-0.23-0.25-0.55-0.44-0.89-0.46C80.83,105.01,80.44,105.1,80.19,105.35L80.19,105.35z"/>
		</g>
		<g>
			<path class="st8" d="M85.42,112.89c-0.42,0.28-0.85,0.56-1.27,0.85c-0.14,0.11-0.24,0.25-0.31,0.41
				c-0.09,0.15-0.14,0.31-0.15,0.48c-0.02,0.18,0,0.35,0.07,0.51c0.04,0.18,0.12,0.33,0.25,0.47c0.23,0.25,0.55,0.44,0.89,0.46
				c0.11,0,0.23-0.01,0.34-0.01c0.24-0.04,0.45-0.14,0.64-0.3c0.42-0.28,0.85-0.56,1.27-0.85c0.14-0.11,0.24-0.25,0.31-0.41
				c0.09-0.15,0.14-0.31,0.15-0.48c0.02-0.18,0-0.35-0.07-0.51c-0.04-0.18-0.12-0.33-0.25-0.47c-0.23-0.25-0.55-0.44-0.89-0.46
				c-0.11,0-0.23,0.01-0.34,0.01C85.82,112.63,85.61,112.73,85.42,112.89L85.42,112.89z"/>
		</g>
		<g>
			<path class="st8" d="M91.6,129.83c0.57,0.21,1.15,0.41,1.72,0.62c0.16,0.07,0.33,0.09,0.51,0.07c0.18,0.01,0.35-0.03,0.51-0.12
				c0.17-0.07,0.31-0.18,0.41-0.32c0.13-0.12,0.22-0.26,0.27-0.43c0.02-0.11,0.05-0.22,0.07-0.33c0.02-0.24-0.02-0.47-0.12-0.69
				c-0.06-0.1-0.13-0.2-0.19-0.3c-0.15-0.18-0.34-0.3-0.56-0.38c-0.57-0.21-1.15-0.41-1.72-0.62c-0.16-0.07-0.33-0.09-0.51-0.07
				c-0.18-0.01-0.35,0.03-0.51,0.12c-0.17,0.07-0.31,0.18-0.41,0.32c-0.13,0.12-0.22,0.26-0.27,0.43c-0.02,0.11-0.05,0.22-0.07,0.33
				c-0.02,0.24,0.02,0.47,0.12,0.69c0.06,0.1,0.13,0.2,0.19,0.3C91.19,129.62,91.38,129.75,91.6,129.83L91.6,129.83z"/>
		</g>
		<g>
			<path class="st8" d="M95.1,141.61c0.59,0.67,1.17,1.34,1.76,2.01c0.22,0.25,0.56,0.43,0.89,0.46c0.33,0.03,0.74-0.09,0.98-0.32
				c0.25-0.23,0.44-0.55,0.46-0.89c0.02-0.36-0.08-0.71-0.32-0.98c-0.59-0.67-1.17-1.34-1.76-2.01c-0.22-0.25-0.56-0.43-0.89-0.46
				c-0.33-0.03-0.74,0.09-0.98,0.32c-0.25,0.23-0.44,0.55-0.46,0.89C94.77,140.98,94.86,141.34,95.1,141.61L95.1,141.61z"/>
		</g>
		<g>
			<path class="st8" d="M95.68,151.45c0.52,1.32,1.22,2.56,2.06,3.71c0.19,0.26,0.59,0.43,0.89,0.46c0.33,0.03,0.74-0.09,0.98-0.32
				c0.25-0.23,0.44-0.55,0.46-0.89c0.02-0.38-0.1-0.68-0.32-0.98c-0.16-0.22-0.32-0.45-0.47-0.68c0.06,0.1,0.13,0.2,0.19,0.3
				c-0.55-0.86-1.02-1.78-1.4-2.73c-0.25-0.65-1.17-0.95-1.77-0.63C95.64,150.03,95.41,150.75,95.68,151.45L95.68,151.45z"/>
		</g>
		<g>
			<path class="st8" d="M92.3,158.86c0.3,1.29,0.61,2.58,0.91,3.87c0.08,0.35,0.26,0.66,0.56,0.87c0.26,0.18,0.66,0.28,0.98,0.21
				c0.67-0.15,1.25-0.82,1.08-1.54c-0.3-1.29-0.61-2.58-0.91-3.87c-0.08-0.35-0.26-0.66-0.56-0.87c-0.26-0.18-0.66-0.28-0.98-0.21
				C92.71,157.47,92.13,158.13,92.3,158.86L92.3,158.86z"/>
		</g>
		<g>
			<path class="st8" d="M85.61,155.44c-0.22,0.89-0.45,1.79-0.67,2.68c-0.07,0.16-0.09,0.33-0.07,0.51
				c-0.01,0.18,0.03,0.35,0.12,0.51c0.14,0.3,0.44,0.59,0.76,0.68c0.33,0.1,0.7,0.12,1.02-0.05c0.29-0.16,0.6-0.42,0.68-0.76
				c0.22-0.89,0.45-1.79,0.67-2.68c0.07-0.16,0.09-0.33,0.07-0.51c0.01-0.18-0.03-0.35-0.12-0.51c-0.14-0.3-0.44-0.59-0.76-0.68
				c-0.33-0.1-0.7-0.12-1.02,0.05C86,154.84,85.7,155.1,85.61,155.44L85.61,155.44z"/>
		</g>
		<g>
			<path class="st8" d="M77.75,148.38c-0.1,0.16-0.21,0.3-0.33,0.44c0.08-0.09,0.15-0.17,0.23-0.26c-0.18,0.19-0.38,0.37-0.59,0.51
				c0.1-0.06,0.2-0.13,0.3-0.19c-0.07,0.05-0.15,0.09-0.23,0.13c-0.17,0.07-0.31,0.18-0.41,0.32c-0.13,0.12-0.22,0.26-0.27,0.43
				c-0.07,0.16-0.09,0.33-0.07,0.51c-0.01,0.18,0.03,0.35,0.12,0.51c0.16,0.3,0.42,0.58,0.76,0.68c0.33,0.1,0.71,0.12,1.02-0.05
				c0.34-0.18,0.67-0.4,0.95-0.66c0.27-0.26,0.53-0.55,0.73-0.87c0.18-0.29,0.27-0.64,0.21-0.98c-0.03-0.18-0.09-0.35-0.21-0.49
				c-0.08-0.16-0.2-0.28-0.35-0.38c-0.29-0.18-0.64-0.29-0.98-0.21c-0.11,0.04-0.23,0.07-0.34,0.11
				C78.06,148.04,77.89,148.19,77.75,148.38L77.75,148.38z"/>
		</g>
		<g>
			<path class="st8" d="M69.94,136.18c-0.21,0.21-0.45,0.39-0.7,0.56c0.1-0.06,0.2-0.13,0.3-0.19c-0.3,0.19-0.62,0.35-0.96,0.47
				c-0.17,0.07-0.31,0.18-0.41,0.32c-0.13,0.12-0.22,0.26-0.27,0.43c-0.11,0.31-0.1,0.72,0.05,1.02c0.16,0.3,0.42,0.58,0.76,0.68
				c0.11,0.02,0.22,0.05,0.33,0.07c0.24,0.02,0.47-0.02,0.69-0.12c0.31-0.11,0.62-0.26,0.9-0.43c0.38-0.24,0.74-0.48,1.06-0.79
				c0.25-0.24,0.43-0.54,0.46-0.89c0.02-0.18,0-0.35-0.07-0.51c-0.04-0.18-0.12-0.33-0.25-0.47c-0.23-0.25-0.55-0.44-0.89-0.46
				C70.58,135.85,70.2,135.93,69.94,136.18L69.94,136.18z"/>
		</g>
		<g>
			<path class="st8" d="M65.81,126.63c-0.13,0.07-0.27,0.13-0.41,0.18c0.11-0.04,0.23-0.07,0.34-0.11c-0.2,0.06-0.41,0.1-0.62,0.11
				c0.11,0,0.23-0.01,0.34-0.01c-0.2,0.01-0.4-0.01-0.59-0.05c0.11,0.02,0.22,0.05,0.33,0.07c-0.18-0.04-0.34-0.1-0.51-0.18
				c-0.16-0.07-0.33-0.09-0.51-0.07c-0.18-0.01-0.35,0.03-0.51,0.12c-0.3,0.14-0.59,0.44-0.68,0.76c-0.1,0.33-0.12,0.7,0.05,1.02
				c0.06,0.1,0.13,0.2,0.19,0.3c0.15,0.18,0.34,0.3,0.56,0.38c0.27,0.13,0.55,0.19,0.84,0.25c0.19,0.04,0.38,0.06,0.58,0.05
				c0.3-0.01,0.59-0.02,0.88-0.09c0.29-0.08,0.59-0.17,0.85-0.32c0.31-0.17,0.56-0.41,0.68-0.76c0.11-0.31,0.1-0.72-0.05-1.02
				c-0.16-0.3-0.42-0.58-0.76-0.68C66.5,126.48,66.12,126.46,65.81,126.63L65.81,126.63z"/>
		</g>
		<g>
			<path class="st8" d="M65.04,114.8c-0.45-0.15-0.89-0.34-1.32-0.55c0.1,0.05,0.2,0.1,0.3,0.15c-0.63-0.32-1.22-0.71-1.77-1.16
				c-0.25-0.2-0.68-0.27-0.98-0.21c-0.33,0.06-0.69,0.27-0.87,0.56c-0.18,0.29-0.29,0.64-0.21,0.98c0.04,0.11,0.07,0.23,0.11,0.34
				c0.1,0.22,0.25,0.39,0.45,0.53c1,0.82,2.17,1.45,3.39,1.87c0.33,0.11,0.7,0.1,1.02-0.05c0.3-0.14,0.59-0.44,0.68-0.76
				c0.1-0.33,0.12-0.7-0.05-1.02C65.63,115.18,65.38,114.92,65.04,114.8L65.04,114.8z"/>
		</g>
		<g>
			<path class="st8" d="M59.71,104.34c0.38,0.14,0.77,0.27,1.15,0.41c0.16,0.07,0.33,0.09,0.51,0.07c0.18,0.01,0.35-0.03,0.51-0.12
				c0.17-0.07,0.31-0.18,0.41-0.32c0.13-0.12,0.22-0.26,0.27-0.43c0.02-0.11,0.05-0.22,0.07-0.33c0.02-0.24-0.02-0.47-0.12-0.69
				c-0.06-0.1-0.13-0.2-0.19-0.3c-0.15-0.18-0.34-0.3-0.56-0.38c-0.38-0.14-0.77-0.27-1.15-0.41c-0.16-0.07-0.33-0.09-0.51-0.07
				c-0.18-0.01-0.35,0.03-0.51,0.12c-0.17,0.07-0.31,0.18-0.41,0.32c-0.13,0.12-0.22,0.26-0.27,0.43c-0.02,0.11-0.05,0.22-0.07,0.33
				c-0.02,0.24,0.02,0.47,0.12,0.69c0.06,0.1,0.13,0.2,0.19,0.3C59.3,104.13,59.49,104.26,59.71,104.34L59.71,104.34z"/>
		</g>
		<path class="st9" d="M40.9,114.74c-0.45,3.23-0.84,6.63,0.35,9.66c0.43,1.1,1.46,2.27,2.57,1.9c0.91-0.31,1.2-1.42,1.33-2.37
			c0.29-2.07,0.5-4.21,1.47-6.07c1.64-3.17,6.4-9.62,2.29-13.25C44.67,100.85,41.26,112.16,40.9,114.74z"/>
	</g>
	<path class="st10" d="M85.08,128.62c5.31-3.41,13.13-2.04,16.96,2.96c4.61-6.25,14.25-7.45,20.97-3.56
		c6.71,3.89,10.43,11.85,10.53,19.61c10.9-3.52,22.41,4.44,28.78,13.96c1.06,1.58,2.08,3.26,3.66,4.31
		c1.92,1.28,4.34,1.44,6.62,1.73c19.3,2.46,36.1,18.44,39.52,37.6c1.04,5.86,0.82,12.32-2.56,17.22c-2.71,3.93-7.06,6.35-11.26,8.62
		c-4.8,2.61-9.8,5.27-15.25,5.64c-15.64,1.06-25.94-15.97-40.2-22.49c-11.61-5.31-25.1-3.25-36.73-8.33
		c-9.06-3.95-18.1-12-26.13-17.95c-6.78-5.02-11.11-10.32-13.68-18.49c-3.2-10.16-1.79-29.41,14.13-24.43
		C78.14,139.29,79.66,132.1,85.08,128.62z"/>
	<g>
		<path class="st15" d="M458.46,118.74h-9.68c-1.59,35.78-76.6,55.42-213.73,55.42c-132.71,0-211.23-25.83-213.73-55.42h-9.7
			c0,0-3.44,45.85,22.19,101.19c38.44,83,91.58,97.96,91.58,97.96l108.56,2.1l108.56-2.1c0,0,53.13-14.96,91.58-97.96
			C459.71,164.59,458.46,118.74,458.46,118.74z"/>
		<path class="st15" d="M344.7,335.91v-19.18l-109.66-13.79l-109.66,14.96v18.01c0,0-0.93,8.68,32.33,20.14
			c45.48,15.68,119.38,10.52,154.64,0C346.08,345.99,344.7,335.91,344.7,335.91z"/>
		<path class="st16" d="M312.28,356.05c33.71-10.05,32.33-20.14,32.33-20.14v-19.18l-50.28-6.32c-0.08,0.05-0.16,0.09-0.24,0.14
			c-5.77,3.48-11.31,6.61-11.74,13.79c-0.46,7.53,3.65,16.68,0.38,23.88c-2.01,4.43-7.3,6.18-12.06,7.24
			c-36.31,8.08-74.3,3.12-110.46-5.62c-11.29-2.73-22.75-5.94-32.25-12.62c-0.78-0.55-1.72-1.1-2.67-1.47v0.16
			c0,0-0.93,8.68,32.33,20.14C203.12,371.72,277.03,366.56,312.28,356.05z"/>
		<path class="st17" d="M65.3,189.06c-2.31,6.15-0.35,13.02,1.96,19.17c6.32,16.86,15.17,32.68,25.18,47.64
			c7.2,10.76,16.21,21.89,28.94,24.29c4.47,0.84,9.27,0.47,13.25-1.73c3.98-2.2,6.97-6.39,7.08-10.94
			c0.11-4.63-2.58-8.78-5.01-12.72c-5.95-9.62-10.96-19.95-13.46-30.98c-1.66-7.33-2.27-15.11-6.04-21.61
			C110.74,191.02,72.55,169.78,65.3,189.06z"/>
		<path class="st17" d="M142.26,325.2c-1.05,0.03-2.15,0.13-3.04,0.69c-1.86,1.16-2.08,3.95-1.02,5.87
			c1.06,1.92,3.04,3.13,4.98,4.14c8.07,4.19,17.03,6.34,25.98,7.96c3.43,0.62,7.1,1.15,10.31-0.2c3.22-1.35,5.58-5.33,3.97-8.42
			c-1.53-2.94-5.42-3.47-8.72-3.78C163.95,330.47,152.79,324.87,142.26,325.2z"/>
		<path class="st16" d="M457.94,118.74h-9.61c-0.89,20.05-24.84,35.03-69.85,44.33c-2.27,16.25-7.43,35.73-18.18,56.29
			c-31.28,59.81-60.92,76.45-97.18,88.78c-44.98,15.3-97.65,11.46-97.65,11.46s52.81,12.07,95.16,12.07
			c42.11,0,81.36-13.78,81.36-13.78s53.13-14.96,91.58-97.96C459.2,164.59,457.94,118.74,457.94,118.74z"/>
		<path class="st18" d="M458.28,115.33h-9.59c0.09,1.01,0.12,2.02,0.09,3.05c-1.09,36.01-76.14,55.79-213.74,55.79
			c-133.26,0-211.88-26.04-213.76-55.79c0.09-1.03,0.23-2.05,0.39-3.05h-9.73c-0.17,1.12-0.31,2.26-0.41,3.42
			c1.96,33.35,84.14,62.53,223.43,62.53c143.82,0,222.28-22.17,223.41-62.53C458.41,117.59,458.38,116.46,458.28,115.33z"/>
	</g>
	<g>
		<path class="st11" d="M51.93,78.47l-2.07,15.45c0,0,6.16,23.37,39.14,31.71c37.12,9.39,65.9,0.83,67.93-21.98
			c0.33-3.7-3.81-14.2-3.81-14.2L51.35,77.56L51.93,78.47z"/>
		
			<ellipse transform="matrix(0.1911 -0.9816 0.9816 0.1911 -1.7278 170.8652)" class="st12" cx="102.81" cy="86.48" rx="26.65" ry="51.6"/>
		<path class="st13" d="M150.3,94.07c-0.65,11.23-22.2,18.91-48.08,14.83c-25.88-4.08-47.79-19.25-47.14-30.48
			c0.65-11.23,24.07-19.68,49.95-15.61C130.91,66.9,150.94,82.84,150.3,94.07z"/>
		<path class="st14" d="M73.78,78.46c-0.88-0.78-1.79-1.78-1.76-2.92c0.05-1.82,2.3-2.36,4.08-2.25c3.7,0.21,7.43,1.24,10.87,3
			c-1.04-1.47-1.85-3.09-2.41-4.77c-0.12-0.36-0.22-0.75-0.1-1.08c0.3-0.77,1.46-0.49,2.23-0.08c3.95,2.1,7.66,4.76,10.98,7.87
			c-0.9-1.7-1.6-3.56-1.57-5.41c0.03-1.85,0.92-3.68,2.54-4.37c2.11-0.89,4.82,0.44,6.33,2.45c1.51,2.01,2.1,4.53,2.55,6.95
			c3.32-2.29,7.66-3.09,11.82-2.17c0.98,0.22,2.08,0.64,2.49,1.6c0.63,1.47-0.85,2.72-2.14,3.42c4.88-0.76,10.34,1.34,13.88,5.33
			c0.44,0.49,0.87,1.1,0.79,1.72c-0.05,0.37-0.29,0.67-0.53,0.94c-1.82,1.97-4.52,2.9-7.26,3.12c-2.74,0.22-5.54-0.21-8.31-0.64
			c2.66,1.3,5.18,2.95,7.48,4.91c0.29,0.25,0.6,0.54,0.64,0.91c0.04,0.3-0.12,0.58-0.29,0.81c-1.94,2.71-6,3.02-9.29,1.68
			c-3.29-1.34-5.98-3.97-8.57-6.52c1.24,1.88,2.1,4.17,1.62,6.23c-0.47,2.06-2.68,3.6-4.7,2.74c-0.89-0.38-1.61-1.14-2.24-1.91
			c-1.91-2.34-3.35-5.07-4.18-7.93c-0.44,3.58-3.73,6.29-7.3,6c-0.92-0.07-1.93-0.37-2.54-1.14c-0.73-0.92-0.67-2.24-0.15-3.19
			c0.52-0.94,1.4-1.59,2.26-2.21c-2.62,1.29-6.03,2.35-8.49,0.32c-0.74-0.61-1.32-1.64-0.99-2.47c0.21-0.53,0.73-0.83,1.22-1.08
			c1.27-0.66,4.67-1.3,5.21-2.56C82.76,83.99,78.12,82.33,73.78,78.46z"/>
	</g>
	<g>
		<path class="st19" d="M227.8,133.19c6.56-2.67,14.3-2.92,20.57,0.37c1.36,0.71,3.28,1.48,4.18,0.24c0.44-0.59,0.38-1.4,0.26-2.13
			c-1.26-7.58-8.22-13.81-15.89-14.23c-5.81-0.32-11.34,2.32-16.36,5.26c-3.65,2.13-7.19,4.45-10.6,6.94
			c-4.33,3.17-8.81,6.93-10.94,12.01c-1.59,3.77-2.35,11.71,2.93,13.01c5.31,1.3,7.78-6.45,10.4-9.58
			C216.55,140.06,221.71,135.67,227.8,133.19z"/>
		<path class="st20" d="M242.68,116.88c-8.32-1.36-16.9,1.04-24.29,5.08c-7.39,4.05-13.78,9.66-20.11,15.23
			c-6.63,5.83-6.35,17.71-2.27,24.96c3.79,6.73,11.1,11.29,18.8,11.92c7.59,0.62,15.01-2.31,21.84-5.68
			c7.19-3.55,14.27-7.78,19.33-14.01c5.06-6.23,7.8-14.8,5.41-22.45C258.87,123.89,250.99,118.24,242.68,116.88z M245.61,139.26
			c-2.14,4.18-6.11,7.11-10.17,9.48c-3.82,2.24-7.84,4.13-12,5.66c-3.47,1.27-7.12,2.29-10.81,2.03c-3.68-0.26-7.43-1.99-9.33-5.16
			c-7.44-12.45,11.95-22.21,20.48-25.69c4.74-1.93,10.03-2.89,15.02-1.77c1.89,0.42,3.74,1.16,5.19,2.44
			C247.53,129.38,247.75,135.08,245.61,139.26z"/>
	</g>
	<g>
		<path class="st19" d="M128.65,51.91c6.56-2.67,14.3-2.92,20.57,0.37c1.36,0.71,3.28,1.48,4.18,0.24c0.44-0.59,0.38-1.4,0.26-2.13
			c-1.26-7.58-8.22-13.81-15.89-14.23c-5.81-0.32-11.34,2.32-16.36,5.26c-3.65,2.13-7.19,4.45-10.6,6.94
			c-4.33,3.17-8.81,6.93-10.94,12.01c-1.59,3.77-2.35,11.71,2.93,13.01c5.31,1.3,7.78-6.45,10.4-9.58
			C117.4,58.78,122.57,54.39,128.65,51.91z"/>
		<path class="st20" d="M143.53,35.6c-8.32-1.36-16.9,1.04-24.29,5.08c-7.39,4.05-13.78,9.66-20.11,15.23
			c-6.63,5.83-6.35,17.71-2.27,24.96c3.79,6.73,11.1,11.29,18.8,11.92c7.59,0.62,15.01-2.31,21.84-5.68
			c7.19-3.55,14.27-7.78,19.33-14.01c5.06-6.23,7.8-14.8,5.41-22.45C159.72,42.6,151.84,36.96,143.53,35.6z M146.46,57.98
			c-2.14,4.18-6.11,7.11-10.17,9.48c-3.82,2.24-7.84,4.13-12,5.66c-3.47,1.27-7.12,2.29-10.81,2.03c-3.68-0.26-7.43-1.99-9.32-5.16
			c-7.44-12.45,11.95-22.21,20.48-25.69c4.74-1.93,10.03-2.89,15.02-1.77c1.89,0.42,3.74,1.16,5.19,2.44
			C148.38,48.1,148.6,53.8,146.46,57.98z"/>
	</g>
	<g>
		<path class="st19" d="M414,76.95c5.28,4.71,8.91,11.56,8.72,18.64c-0.04,1.53,0.11,3.59,1.62,3.87c0.72,0.13,1.43-0.27,2.03-0.7
			c6.25-4.46,8.79-13.45,5.8-20.52c-2.27-5.35-7.07-9.17-11.91-12.39c-3.52-2.34-7.15-4.5-10.89-6.46
			c-4.75-2.5-10.1-4.87-15.59-4.55c-4.08,0.23-11.56,3.03-10.39,8.35c1.17,5.34,9.21,4.16,13.18,5.13
			C402.88,69.86,409.1,72.57,414,76.95z"/>
		<path class="st20" d="M435.19,83.14c-2.43-8.07-8.36-14.72-15.24-19.58c-6.88-4.86-14.74-8.13-22.52-11.37
			c-8.15-3.39-18.7,2.08-23.42,8.93c-4.38,6.36-5.26,14.93-2.44,22.12c2.78,7.09,8.67,12.46,14.7,17.12
			c6.35,4.9,13.27,9.4,21.08,11.2c7.82,1.8,16.72,0.51,22.55-5.01C436.01,100.76,437.62,91.21,435.19,83.14z M416.37,95.61
			c-4.7-0.09-9.07-2.37-12.99-4.96c-3.69-2.45-7.16-5.23-10.35-8.29c-2.66-2.56-5.19-5.39-6.57-8.81s-1.48-7.55,0.53-10.64
			c7.91-12.16,25.2,0.98,32.08,7.11c3.82,3.41,7,7.74,8.19,12.72c0.45,1.88,0.6,3.88,0.09,5.74C426.09,93,421.07,95.69,416.37,95.61
			z"/>
	</g>
	<g>
		<path class="st21" d="M259.48,105.73c0,0,16.78,41.75,65.45,29.66c48.67-12.1,68.08-42.13,72.53-47.44
			c9.36-11.16,8.91-27.76,8.91-27.76L259.48,105.73z"/>
		<path class="st22" d="M281.5,98.92c-0.36,0.11,12.32,28.49,35.3,23.95c45.5-9,38.03-46.59,38.03-46.59L281.5,98.92z"/>
		<path class="st23" d="M383.04,81.64c-2.82,9.51-12.27,15.12-19.42,22c-1.38,1.32-2.79,3.22-2.03,4.97
			c0.55,1.28,2.13,1.86,3.51,1.69c1.38-0.18,2.61-0.95,3.74-1.75c5.63-3.96,10.38-9.02,14.98-14.13
			c5.01-5.57,10.12-11.75,10.96-19.2c0.09-0.76,0.12-1.55-0.17-2.26c-1.33-3.21-5.78-1.45-7.63,0.18
			C384.5,75.31,383.93,78.61,383.04,81.64z"/>
	</g>
</g>
</svg>
