<?xml version="1.0" encoding="utf-8"?>
<!-- Generator: Adobe Illustrator 25.4.1, SVG Export Plug-In . SVG Version: 6.00 Build 0)  -->
<svg version="1.1" id="Layer_1" xmlns="http://www.w3.org/2000/svg" xmlns:xlink="http://www.w3.org/1999/xlink" x="0px" y="0px"
	 viewBox="0 0 344.67 385.02" style="enable-background:new 0 0 344.67 385.02;" xml:space="preserve">
<style type="text/css">
	.st0{fill:#F8EBCF;}
	.st1{fill:#F0D09F;}
	.st2{opacity:0.4;}
	.st3{fill:#E0B373;}
	.st4{fill:#1172BA;}
	.st5{opacity:0.2;fill:#E0B373;}
	.st6{fill:#045A8A;}
	.st7{fill:#2BAAE2;}
	.st8{opacity:0.2;}
	.st9{fill:#FFFFFF;}
	.st10{opacity:0.15;}
	.st11{fill:#FCF38B;}
	.st12{opacity:0.5;}
</style>
<g>
	<path class="st0" d="M61.13,323.03v38.64c0,13.64,49.49,24.69,110.55,24.69c61.06,0,110.56-11.05,110.56-24.69v-38.64H61.13z"/>
	<path class="st1" d="M61.13,323.03v38.64c0,13.64,49.49,22.37,110.55,22.37c61.06,0,110.56-8.74,110.56-22.37v-38.64H61.13z"/>
	<path class="st0" d="M332.67,39.19H11.04v44.48l15.9,113.11c5.78,2.18,12.64,4.22,20.58,6.07c17.69,4.12,40.25,7.32,65.75,9.31
		c3.78-29.68,28.92-51.4,58.52-51.4c29.6,0,54.37,19.83,58.52,51.41c25.56-1.99,48.16-5.2,65.88-9.32
		c7.95-1.85,14.8-3.89,20.57-6.07l-13.6,96.73h0.01l29.5-209.84V39.19z"/>
	<path class="st0" d="M290.9,311.48c-29.06,7.07-71.61,11.55-119.16,11.55c-47.55,0-90.1-4.48-119.16-11.55
		c-3.57-0.87-6.8-1.81-9.9-2.75l2.75,19.56c1.3,9.24,7.86,16.96,16.87,19.41c0.34,0.09,0.69,0.19,1.05,0.29
		c26.7,7.06,65.82,11.55,109.52,11.55c43.71,0,77.02-3.04,103.74-10.11c1.25-0.32,2.8-0.75,4.51-1.23
		c9.04-2.52,15.77-10.17,17.08-19.46l2.82-20.07C297.86,309.64,294.56,310.59,290.9,311.48z"/>
	<g class="st2">
		<path class="st3" d="M329.75,74.68c-0.37-6.11,0.36-16.66-2.05-21.99c-4,0.77-7.42,3.67-11.07,5.47
			c-4.91,2.42-10.14,3.6-15.4,5.11c-8.9,2.55-17.48,5.33-26.79,5.94c-10.36,0.68-19.28,5.32-29.59,6.21
			c-9.25,0.81-19.01,1.02-28.29,1.25c-42.84,1.09-84.64-2.34-127.07-7.84c-13.82-1.79-27.72-1.68-41.47-3.77
			c-4.62-0.71-10.21-0.58-14.64-1.98c-5.26-1.66-9.36-6.28-15.27-5.79l1.71,2.86c-2.22,10.15-2.31,22.7,5.67,30.48
			c4.73,4.61,8.34,4.04,13.72,0.77c3.19-1.94,5.69-4.11,7.74-7.31c1.38-2.14,2.19-6.9,4.17-8.39c6.54-4.92,22.37,0.6,29.7,1.97
			c10.69,2.01,21.68,2.15,32.23,4.4c40.98,8.78,84.81,9.32,126.6,8.86c5.65-0.06,33.71-5.63,25.91,5.58
			c-3.13,4.5-12.08,8.15-17.07,9.82c-4.9,1.62-14.71,1.49-17.64,6.19c8.24,6.76,31.68,0.4,41.01-2.2c0,0,37.18-9.61,50.46-16.24
			C330.97,89.77,330.27,83.5,329.75,74.68z"/>
	</g>
	<path class="st4" d="M172.86,308.2c-47.55,0-90.1-4.47-119.16-11.54c-4.92-1.19-9.21-2.5-13.26-3.84l2.23,15.91
		c3.1,0.94,6.33,1.88,9.9,2.75c29.06,7.07,71.61,11.55,119.16,11.55c47.54,0,90.1-4.48,119.16-11.55c3.67-0.89,6.96-1.84,10.13-2.82
		l2.12-15.15c-3.45,1.1-7.06,2.16-11.13,3.15C262.96,303.72,220.42,308.2,172.86,308.2z"/>
	<path class="st5" d="M292.7,61.43c-29.48,7.06-72.62,11.55-120.85,11.55c-48.22,0-91.38-4.49-120.85-11.55
		c-24.81-5.95-39.96-13.71-39.96-22.24v44.48c0,18.66,71.99,33.79,160.81,33.79c88.82,0,160.82-15.13,160.82-33.79V39.19
		C332.67,47.72,317.5,55.48,292.7,61.43z"/>
	<path class="st6" d="M343.42,44.32c0,20.87-76.82,37.78-171.58,37.78C77.09,82.1,0.27,65.19,0.27,44.32
		c0-20.87,76.82-37.78,171.58-37.78C266.6,6.54,343.42,23.45,343.42,44.32z"/>
	<path class="st4" d="M297.35,188.02c-30.31,7.07-74.71,11.55-124.32,11.55s-94.01-4.48-124.32-11.55
		c-9.56-2.23-17.61-4.72-24.03-7.41l2.27,16.17c5.78,2.18,12.63,4.22,20.59,6.07c30.32,7.06,74.72,11.55,124.32,11.55
		c49.62,0,94.01-4.49,124.33-11.55c7.95-1.85,14.8-3.89,20.57-6.07l2.14-15.2C312.93,183.9,305.75,186.06,297.35,188.02z"/>
	<path class="st4" d="M171.78,160.76c29.61,0,53.98,23.13,58.53,51.46l15.19-1.42c-4.65-36.61-35.84-64.94-73.72-64.94
		c-37.88,0-69.07,28.33-73.73,64.94l15.2,1.42C117.8,183.88,142.16,160.76,171.78,160.76z"/>
	<path class="st7" d="M171.85,1.41C77.09,1.41,0.27,18.32,0.27,39.19c0,4.13,3.13,8.1,8.71,11.83L1.24,69.58
		c-3.55,8.5,0.47,18.26,8.97,21.81c8.49,3.55,18.26-0.47,21.81-8.98l7.96-19.08c31.47,8.32,78.85,13.62,131.87,13.62
		c94.75,0,171.58-16.92,171.58-37.78C343.42,18.32,266.6,1.41,171.85,1.41z"/>
	<path class="st7" d="M53.71,296.65c29.06,7.07,71.61,11.54,119.16,11.54c47.55,0,90.1-4.47,119.15-11.54
		c4.07-0.99,7.69-2.05,11.13-3.15l13.6-96.73c-5.78,2.18-12.63,4.22-20.57,6.07c-17.72,4.12-40.32,7.33-65.88,9.32
		c-4.15-31.58-28.92-51.41-58.52-51.41c-29.6,0-54.74,21.73-58.52,51.4c-25.5-1.99-48.06-5.19-65.75-9.31
		c-7.94-1.85-14.8-3.9-20.58-6.07l13.51,96.04C44.5,294.16,48.78,295.46,53.71,296.65z"/>
	<g class="st8">
		<path class="st9" d="M36.66,61.24c-2.57-0.64-10.95-2.71-13.73-3.66c-4.16-1.43-12.36-5.53-12.36-5.53
			c-3.22,6.4-10.05,18.13-8.76,25.18c2.07,11.28,14.67,16.39,23.13,10.09C28.82,84.45,36.66,61.24,36.66,61.24z"/>
	</g>
	<g class="st10">
		<path class="st9" d="M207.28,8.92c-18-1.87-35.53-2.8-53.63-2.84c-17.37-0.05-35.96,0.01-53.2,2.42c-18,2.52-36.43,4.93-53.7,10.7
			c-7.33,2.44-36.52,9.71-33.57,21.74c0.1,0.55,0.27,1.02,0.5,1.53c0.12,0.25,0.29,0.51,0.43,0.76c0.36,0.61,0.65,1.2,1.16,1.7
			c0.13,0.16,0.2,0.32,0.34,0.48c7.07,8.17,21.47,9.79,31.15,13.13c12.06,4.15,75.35,12.92,94.37,13.11
			c35.74,0.38,70.56-1.39,105.78-7.85c10.15-1.86,45.06-7.54,52.47-24.91C306.67,21.77,240.32,12.35,207.28,8.92z"/>
	</g>
	<path class="st11" d="M53.7,296.65c29.07,7.07,71.61,11.54,119.17,11.54c47.55,0,90.1-4.47,119.15-11.54
		c4.07-0.99,7.69-2.06,11.13-3.15l4.77-33.86c-4.51-0.11-9.48,0.73-13.9,0.65c-1.52-7.11-5.23-12.86-13.6-12.76
		c-8.01,0.09-12.22,8.69-19.11,9.38c4.7-7.55,4.47-10.31-3.56-15.22c-6.03-3.69-11.82-4.23-18.62-5.55
		c-6.18-1.21-10.98-1.78-17.3-0.75c-2.86,0.47-5.11,0.99-7.7,2.23c-2.34,1.12-5.15,4.1-7.66,3.96c5.42-5.6,10.6-12.25,4.16-19.89
		c-2.4-2.85-6.22-4.87-9.76-5.8c-4.47-1.16-3.74,0.44-4.67-3.9c-1.71-7.89-4.2-15.72-11.79-20.31c-3.63-2.21-6.99-1.46-10.91-2.45
		c-3.24-0.81-5.77-3.66-8.87-4.18c8.19,4.05,7.73,12.14-0.12,16.6c-3.34,1.9-18.24,6.73-8.7,12.43c-7.23,0.24-15.65-0.29-20.43,6.44
		c-2.25,3.15-2.42,7.27,0.47,10.26c2.83,2.93,5.99,1.36,9.28,2.55c-7.38,5.89-25.13-4.01-33.66-3.83
		c-5.8,0.12-11.84,0.83-16.71,4.26c-6.41,4.52-5.77,8.4-2.51,14.9c-2.56-1.25-5.43-1.63-7.96-2.92c-2.55-1.3-4.49-3.41-7.14-4.61
		c-4.94-2.24-10.45-2.86-15.73-2.1c-5.23,0.74-11.93,2.95-14.5,8.11c-2.39,4.77,0.01,9.83,5.39,10.42
		c-5.79-0.86-9.53-4.77-15.69-2.85c-0.48,0.15-0.96,0.49-1.45,0.7l5.26,37.4C44.5,294.16,48.78,295.46,53.7,296.65z"/>
	<g class="st12">
		<path class="st9" d="M171.75,193.81c2.27,4.22-1.66,9.17-6.28,10.94c-3.02,1.16-14.82,1.06-8.56,6.78
			C165.3,219.19,178.26,202.18,171.75,193.81z"/>
		<path class="st9" d="M142.95,230.58c5.77,3.16,20.74,5.95,23.68-2.74c-3.19-2-23.66-1.48-13.26-10.24
			c-1.12-0.83-2.29-0.73-3.42-0.24C144.69,216.28,132.74,224.99,142.95,230.58z"/>
		<path class="st9" d="M180.3,238.94c6.33-8.66,2.43-19.88-8.63-20.85c3.95,2.44,6.51,5.93,6.52,10.77
			c0.01,6.53-4.75,10.17-4.75,10.17c-17.91,8.75-33.77,6.3-50.94-2.58c-6.81-3.53-16.57-5.95-23.16-0.18
			c-7.71,6.76,4.06,20.01,9.83,12.59c-7.61-10.97,13.74-2.29,17.27-0.95c8.23,3.13,17.91,5.29,26.73,4.06
			C161.13,250.88,175.41,245.63,180.3,238.94z"/>
		<path class="st9" d="M206.79,221.8c0.49-2.97-5.25-6.19-7.89-6.21c-3.28-0.02-6.05,3.13-9.03,5.4c-0.15,0.09-1.68,1.41-1.68,1.41
			c-0.75,0.64-1.47,1.16-2.26,2.1C188.57,229.45,205.81,227.73,206.79,221.8z"/>
		<path class="st9" d="M227.03,239.37c-3.43,0.28-6.63,0.82-10.66,2.65c-5.79,2.63-10.61,6.57-16.36,9.41
			c-10.28,5.08-21.98,6.51-33.37,6.28c14.97,1.65,28.37,2.33,42.56-4.08c5.81-2.62,12.93-7.43,19.67-6.57
			c11.82,1.49-4.36,14.6-6.35,4.36c-2.53,0.21-3.54,3.46-2.58,5.66c1,2.26,4.39,3.06,6.59,3.56c4.31,1,10.59,1.37,14.45-1.13
			C253.41,251.46,238.14,232.65,227.03,239.37z"/>
		<path class="st9" d="M54.79,254.73c1.68,0.95,4.46,2.13,6.2,0.63c2.44-2.12-0.46-3.63,0.45-5.8c4.07-9.68,18.87,2.6,24.25,1.73
			c-8.69-8.57-24.5-15.97-33.65-4.68C52.04,246.62,51.18,252.68,54.79,254.73z"/>
		<path class="st9" d="M284.26,254.33c3.56-6.44-4.98-5.24-8.54-3.44h2.47c-3.08,1.3-5.43,4.7-8.36,6.85
			c-2.41,1.77-5.51,3.37-8.69,4.11c4.63-0.1,9.07-0.13,13.72-1.96C277.69,258.79,282.66,257.22,284.26,254.33z"/>
		<path class="st9" d="M296.91,263.57c-7.06-0.64-14.42,3.49-21.72,4.33c5.7,0.58,11.47,1.8,17.02,2.46
			c3.12,0.38,10.04,2.19,12.1-1.46C306.77,264.54,301.65,263.55,296.91,263.57z"/>
		<path class="st9" d="M58.07,261.73c-7.13-2.87-18.4,2.26-18.4,2.26c-5.5,3.64,2.59,6.9,5.77,6.86c3.67-0.04,7.31-1.15,10.91-1.74
			c8.07-1.33,14.58-3.53,22.12-6.7C72.32,265.9,64.11,264.17,58.07,261.73z"/>
		<path class="st9" d="M118.28,249.06c8.04,8.25-9.55,13.33-14.69,13.26c-8.47-0.11-15.68-2.44-22.45-7.69l-1.71,0.85
			c4.69,6.26,7.59,10.32,15.83,12.08c5.93,1.27,11.79,0.8,17.75-0.31c5.29-0.98,14.43-2.6,16.88-8.33
			C132.67,252.38,123.88,246.57,118.28,249.06z"/>
	</g>
	<g>
		<path class="st9" d="M54.07,251.4c1.85-0.38,1.79-3.53,2.99-4.79c1.66-1.73,4.79-2.32,7.09-2.54c5.22-0.49,9.5,1.05,14.31,2.54
			c-3.43-1.91-6.58-4.99-10.61-5.51c-3-0.94-7.36-0.98-10.13-0.19c-2.78,0.78-5.19,2.22-6.42,4.99
			C50.51,247.74,50.84,252.06,54.07,251.4z"/>
		<path class="st9" d="M122,249.06c-1.65-0.72-4.76,0.37-4.8,2.42c-0.07,2.58,2.81,2.53,0.91,5.59c-2.06,3.32-9.35,4.29-12.87,4.56
			c-4.27,0.33-8.81-0.39-12.83-1.73c-3.15-1.04-8.1-2.18-10.51-4.78c2.78,6.99,18.08,8.98,24.48,8.77
			c4.72-0.15,8.78-0.86,12.84-3.41C122.13,258.66,127.87,251.62,122,249.06z"/>
		<path class="st9" d="M140.56,243.34c-5.99-1.73-11.44-3.7-16.96-6.63c-3.93-2.08-7.88-4.47-12.62-4.58
			c-5.8-0.47-10.1,1.74-12.49,3.97c-1.52,1.42-3.29,4.58-2.53,6.82c0.5,1.51,3.04,3.75,4.8,2.9c1.95-0.95,0.96-4.01,2.51-5.72
			c1.32-1.45,3.89-2.23,5.8-2.55c4.38-0.75,9.18,0.72,13.26,2.38c8.84,3.6,16.52,7.05,26.22,7.55c6.19,0.31,22.91-0.69,24.9-8.45
			C162.55,244.54,152.63,246.83,140.56,243.34z"/>
		<path class="st9" d="M140.28,226.22c3.74,1.85,20.05,5.79,22.66,1.36c-2.06-1.4-5.56-0.51-7.97-0.91
			c-2.47-0.41-6.22-1.04-8.13-2.84c-3.09-2.9-0.21-4.04,2.43-5.37c1.21-0.61,2.64-1.96,2.59-2.66
			C145.81,215.03,129.6,220.93,140.28,226.22z"/>
		<path class="st9" d="M149.83,215.54l2.01,0.22C151.79,215.38,151.37,215.15,149.83,215.54z"/>
		<path class="st9" d="M151.84,215.76c0.01,0.01,0.01,0.02,0.01,0.04c0.17,0.02,0.4-0.01,0.54,0.02L151.84,215.76z"/>
		<path class="st9" d="M166.46,203.55c-2.33,0.95-14.49,1.53-10.59,6.58c2.14,2.77,10.94-2.99,13.3-4.6
			c4.14-2.8,6.06-6.69,4.03-10.27C174.57,198.88,170.29,201.99,166.46,203.55z"/>
		<path class="st9" d="M189.48,197.31c-1.44-4.34-6.88-6.82-11.14-7.68c-4.17-0.85-7.26-1.15-10.74-3.35
			c1.6,3.5,7.31,5.46,10.74,6.41c2.06,0.57,4,0.6,5.99,1.52C186.14,195.04,187.63,196.73,189.48,197.31z"/>
		<path class="st9" d="M166.08,185.31c0.52,0.41,1.02,0.65,1.52,0.97c-0.02-0.04-0.07-0.07-0.09-0.11L166.08,185.31z"/>
		<path class="st9" d="M194.88,224.17c2.38,0.4,6.98,0.19,7.98-2.63c1.33-3.73-3.28-5.05-5.7-6.29l-0.29,0.57
			c1.09,3.57-3.59,2.97-5.3,3.97C188.19,221.76,192.23,223.73,194.88,224.17z"/>
		<path class="st9" d="M241.14,239.16c-3.71-2.28-7.97-1.75-12.06-1.03c-9,1.59-16.77,7.24-24.81,11.4
			c-6.13,3.19-16.57,7.59-23.65,7.07l-0.3,0.57c6.22,1.25,12.72-2.04,18.4-4.14c6.03-2.23,12.28-4.19,18.11-6.9
			c4.57-2.13,13.41-7.81,17.69-2.33c2.15,2.76,0.22,6.66-2.42,8.48c-2.82,1.93-5.37,1.31-8.41,0.59c-2.63,4.79,6.95,4.58,9.11,4.22
			c4.2-0.69,9.19-2.63,11.59-6.42C246.91,246.7,244.96,241.51,241.14,239.16z"/>
		<path class="st9" d="M280.56,248.97l1.29,0.22c-0.74-0.89-1.72-0.96-2.8-0.56c-0.23,0.02-0.34-0.09-0.62-0.02l0.5,0.08
			c-3.1,1.24-6.95,6.23-8.48,7.34c-4.05,2.94-8.03,5.19-13.02,6.15c5.08-1.16,9.8-2.97,14.58-5.01c2.43-1.04,5.76-2.46,7.61-4.34
			C280.78,251.66,281.37,249.8,280.56,248.97z"/>
		<path class="st9" d="M295.85,262.02l1.43,0.13c-3.43,0.44-7.29,1.88-9.68,2.57c-4.57,1.33-9.67,2.94-14.47,2.71
			c6.28-0.01,12.45-0.93,18.73-1.14c2.5-0.08,7.18,0.36,9.43-0.81C307.16,262.41,298.5,261.23,295.85,262.02z"/>
		<path class="st9" d="M39.39,262.84c0,0,0.18,3.44,3.77,2.88c3.67-0.57,6.08-2.32,10.05-2.31c5.21,0.01,10.27-0.27,15.34-0.99
			c-4.5,0.01-9.23-1.59-13.2-3.06C50.2,257.45,41.8,255.91,39.39,262.84z"/>
	</g>
	<g>
		<path class="st6" d="M153.62,261.9c0.44-5.23-6.83-5.32-6.59-8.37c0.1-1.16,1.06-1.77,2.42-1.66c0.82,0.07,1.32,0.36,1.8,0.67
			c0.13,0.4,0.21,0.71,0.2,0.8l-0.13,1.68l1.87,0.27l0.69-4.36c-1.55-0.61-3.35-1.1-4.93-1.22c-3.1-0.25-5.49,1.29-5.72,4.08
			c-0.44,5.41,6.84,5.32,6.58,8.67c-0.12,1.29-1.22,1.82-2.53,1.71c-1.16-0.09-1.94-0.54-2.4-0.84c-0.12-0.39-0.25-0.82-0.24-0.95
			c0.02-0.27,0.11-1.59,0.11-1.59l-1.88-0.27l-0.7,4.35c0,0,2.14,1.27,5.21,1.53C150.65,266.66,153.37,265.01,153.62,261.9z"/>
		<path class="st6" d="M163.46,267.43c4.94,0.18,8.24-3.03,8.42-8.14c0.18-5.14-2.88-8.57-7.81-8.75c-4.93-0.18-8.24,3.03-8.42,8.17
			C155.47,263.82,158.53,267.25,163.46,267.43z M164,252.74c2.72,0.1,3.95,2.15,3.81,6.39c-0.16,4.23-1.52,6.18-4.25,6.09
			c-2.74-0.1-3.96-2.15-3.82-6.37C159.9,254.6,161.26,252.65,164,252.74z"/>
		<path class="st6" d="M174.73,255.64l0.02,5.57c0.02,3.91,2.27,6.46,6.63,6.43c4.35-0.02,6.62-2.59,6.6-6.5l-0.03-6.26
			c-0.01-0.46,0.12-1.53,0.19-1.85l1.5-0.15l-0.12-1.84c0,0-1.32,0.12-3.91,0.13c-1.08,0.01-2.28-0.1-2.28-0.1l-0.11,1.71l1.49,0.27
			c0.05,0.34,0.22,1.39,0.23,2.53l0.02,5.76c0.01,2.28-0.8,3.68-3.2,3.69c-2.17,0.01-3.34-1.61-3.35-3.66l-0.02-6.44
			c0-0.46,0.12-1.61,0.18-1.86l1.51-0.14l-0.11-1.86c0,0-1.97,0.13-4.56,0.14c-1.07,0.01-2.28-0.1-2.28-0.1l-0.11,1.71l1.49,0.27
			C174.58,253.43,174.72,254.51,174.73,255.64z"/>
		<path class="st6" d="M196.94,262.52l-0.08-1.97c0.38,0.03,0.75,0.03,1,0.02l0.35-0.02l2.04,3.57c0.33,0.53,1.24,2.58,1.24,2.58
			c2.57-0.11,4.35-0.08,4.35-0.08l0.03-1.74l-1.09-0.04l-0.85-1.24c-0.13-0.17-1.47-1.98-2.63-4.05c1.6-0.94,2.66-2.52,2.58-4.45
			c-0.13-3-2.37-4.7-5.54-4.55c-1.22,0.05-3.38,0.38-4.67,0.44c-1.14,0.05-2.35-0.01-2.35-0.01l-0.03,1.72l1.49,0.2
			c0.06,0.42,0.27,1.4,0.31,2.51l0.37,7.94c0.02,0.45-0.1,1.73-0.12,1.97l-1.48,0.34l0.18,1.58c0,0,1.2-0.16,2.26-0.21
			c2.57-0.12,4.42-0.09,4.42-0.09l0.03-1.73l-1.47-0.07C197.22,264.83,197,263.66,196.94,262.52z M196.58,254.59
			c-0.02-0.31,0.01-1.37,0.04-2.05c0.2-0.03,0.37-0.03,0.47-0.05c2.04-0.09,3.02,0.84,3.11,2.84c0.1,2.09-0.73,3.25-2.89,3.34
			l-0.55,0.03L196.58,254.59z"/>
		<path class="st6" d="M121.73,282.99c-0.53,6.4,2.58,11.06,9.39,11.62c2.5,0.21,4.74-0.14,6.7-0.45l0.17-5.07l-2.21-0.12
			c0,0-0.13,1.05-0.18,1.36c-0.02,0.25-0.53,1.21-0.59,1.41c-1.36,0.19-2.43,0.25-3.69,0.14c-3.61-0.3-4.67-3.99-4.31-8.48
			c0.36-4.5,2.04-7.95,5.65-7.65c1.16,0.1,2.07,0.31,3.26,0.68c0.12,0.39,0.26,1.05,0.25,1.24l-0.05,1.79l2.25,0.31l0.8-5.24
			c-1.87-0.62-3.75-1.3-6.27-1.51C126.08,272.46,122.24,276.58,121.73,282.99z"/>
		<path class="st6" d="M156.72,291.55c-0.15-0.24-1.68-2.7-2.95-5.49c2.15-1.05,3.68-2.95,3.78-5.46c0.14-3.88-2.57-6.29-6.65-6.44
			c-1.6-0.06-4.39,0.13-6.06,0.08c-1.47-0.06-3.02-0.25-3.02-0.25l-0.23,2.19l1.9,0.42c0.04,0.57,0.2,1.84,0.14,3.27l-0.36,10.26
			c-0.02,0.58-0.31,2.22-0.36,2.51l-1.95,0.29l0.08,2.06c0,0,1.55-0.1,2.93-0.05c3.32,0.12,5.7,0.36,5.7,0.36l0.23-2.23l-1.92-0.25
			c-0.04-0.41-0.19-1.95-0.14-3.41l0.09-2.56c0.5,0.07,0.98,0.12,1.29,0.13l0.45,0.01l2.27,4.82c0.36,0.72,1.32,3.46,1.32,3.46
			c3.32,0.12,5.61,0.35,5.61,0.35l0.23-2.23l-1.41-0.17L156.72,291.55z M148.73,284.49l-0.71-0.02l0.18-5.32
			c0.02-0.41,0.15-1.76,0.28-2.64c0.26-0.02,0.47-0.01,0.61-0.01c2.65,0.1,3.81,1.4,3.72,3.99
			C152.72,283.2,151.52,284.6,148.73,284.49z"/>
		<path class="st6" d="M174.11,291.44c-0.09,0.3-0.26,0.74-0.55,1.27c-0.6,0.12-1.43,0.23-2.28,0.23h-3.68
			c-0.03-0.58-0.1-2-0.1-3.12v-3.61c0.21-0.03,0.83-0.03,0.92-0.03h0.92c0.58,0,1.89,0.18,1.89,0.18l0.27,1.77l1.89-0.17
			c0,0-0.09-2.27-0.09-3.75c0-0.58,0.03-2.45,0.03-2.45l-1.84-0.15l-0.27,1.89c0,0-0.72,0.27-1.3,0.27h-1.64
			c-0.16,0-0.48,0-0.78-0.03v-4.22c0-0.48,0.1-1.86,0.13-2.4h3.24c0.89,0,1.74,0.06,2.34,0.13c0.15,0.23,0.26,0.58,0.28,0.7
			c0.12,0.44,0.21,1.27,0.27,1.74l2.13-0.14l-0.21-4.61l-0.55-0.54c0,0-2.79,0.3-3.37,0.3h-7.92c-1.06,0-2.96-0.14-2.96-0.14
			l-0.14,2.21l1.92,0.35c0.14,0.63,0.26,1.8,0.26,3.28v10.3c0,0.6-0.17,2.25-0.26,2.54l-1.95,0.37l0.15,2.06
			c0,0,1.57-0.12,2.98-0.15h8.33c0.58,0,3.37,0.11,3.37,0.11l0.55-0.53l0.45-5.2l-2.07-0.15C174.41,290.24,174.23,291,174.11,291.44
			z"/>
		<path class="st6" d="M195.36,291.15l-6.49-17.07l-3.29,0.44l-4.98,16.18l-1.15,2.58l-1.3,0.26l0.22,2.14c0,0,1.59-0.21,4.08-0.3
			c1.38-0.05,3.12,0.04,3.12,0.04l0.07-2.06l-1.71-0.28l0.13-1.12l0.43-1.9l5.55-0.2l0.47,1.46l0.2,1.51l-1.72,0.33l0.22,2.14
			c0,0,2.5-0.22,5.99-0.35c1.03-0.04,2.48,0.06,2.48,0.06l0.07-2.07l-1.66-0.21L195.36,291.15z M185.2,287.61l1.87-7.04l2.12,6.84
			L185.2,287.61z"/>
		<path class="st6" d="M226.32,290.37h-1.99c-0.16-0.52-0.44-1.29-0.53-1.67l-2.12-12.75c-0.04-0.39-0.07-1.18-0.07-1.72l1.85-0.49
			l-0.32-2.11c0,0-2.33,0.37-3.87,0.51l-2.85,0.25l-0.53,0.65c0,0-0.67,3.41-0.84,4.1l-2.4,9.94l-3.87-8.93
			c-0.45-1.05-1.67-4.31-1.67-4.31l-0.64-0.54l-4.14,0.38c-1.26,0.12-3.13,0.13-3.13,0.13l0.06,2.13l2.01,0.17
			c0.13,0.52,0.29,1.31,0.32,1.66l0.36,12.91c-0.05,0.39-0.15,1.2-0.25,1.75l-1.96,0.53l0.32,1.95c0,0,1.72-0.3,2.96-0.42
			c3.18-0.29,4.54-0.26,4.54-0.26l-0.01-2.16h-2.02c-0.12-0.67-0.3-1.93-0.36-2.58l-0.4-10.51l6.66,14.74l2.7-0.25l4-15.71
			l1.43,10.42c0.07,0.65,0.13,1.92,0.13,2.6l-1.94,0.53l0.33,1.96c0,0,1.78-0.31,3-0.43c3.18-0.29,5.31-0.34,5.31-0.34
			L226.32,290.37z"/>
	</g>
	<g class="st2">
		<path class="st3" d="M299.68,106.87c-9.35,2.57-18.19,6.11-27.81,7.6c-16.86,2.61-32.78,4.03-49.72,4.24
			c-0.92-0.03-1.75-0.02-2.35,0.1c-0.53,0-1,0.06-1.54,0.06h1.35c-5.84,1.41,4.71,9.83,8.33,14.71
			c6.19,8.33,12.02,16.47,16.28,26.02c3.22,7.25,5.1,14.55,6.77,22.3c2,9.3,5.2,7.44,14.31,6.57c13.56-1.29,31.17-2.97,43.67-8.57
			c7.4-3.32,6.63-10.75,7.51-18.25c0.88-7.4,2.78-14.81,3.31-22.24c0.53-7.55-0.08-14.77,1.65-22.24c1.6-6.92,5.01-13.73,5.17-20.91
			C318.97,102.47,308.94,104.33,299.68,106.87z"/>
	</g>
	<g class="st2">
		<path class="st3" d="M327.14,96.14c-13.84,4.7-27.63,10.94-41.87,14.99c-11.32,3.21-28.11,3.29-37.36,7.74v1.71
			c6.84,17.6,18.96,32.49,22.69,51.32c1.35,6.81-1.89,18,5.82,19.02c7.28,0.96,17.72-4.16,24.53-6.48
			c9.91-3.38,13.94-5.43,16.51-15.52c2.11-8.26,2.86-16.02,4.17-24.4c1.3-8.29,1.91-16.5,2.96-24.8
			C325.5,112.46,330.06,103.39,327.14,96.14z"/>
	</g>
	<g class="st8">
		<path class="st4" d="M304.13,189.91c-7.55,2.13-16.12,2.62-23.39,5.15l-1.13,1.71c0,19.14,0.59,38.16,0.57,57.31
			c-0.01,9.68,1.17,19.37,0.6,29.08c-0.67,11.35-4.36,19.12-8.54,29.25c5.22,0.92,17.51-3.1,22.77-4.84
			c8.77-2.92,7.9-9.41,8.57-17.85c1.19-15.17,3.59-30.19,5.04-45.33c1.49-15.37,4.26-30.53,5.77-45.91
			C315.4,188.34,314.28,187.05,304.13,189.91z"/>
	</g>
	<g>
		<g class="st2">
			<path class="st3" d="M296.37,312.3c-8.5,3.23-17.59,5.04-26.51,6.73c-7.5,1.42-16.54,1.79-23.66,4l-0.58-1.14
				c-6.25,14.45-20.45,28.04-36.51,32.65c5.8-0.06,11.83,0.29,16.56-0.13c10.21-0.9,20.38-2.5,30.51-4.08
				c9.54-1.47,23.3-3.84,30.76-10.44C292.39,335.11,299.66,319.33,296.37,312.3z"/>
		</g>
		<g class="st2">
			<path class="st3" d="M209.11,354.54c-4.76,0.05-9.38,0.37-12.91,1.75C200.58,356.49,204.89,355.75,209.11,354.54z"/>
		</g>
	</g>
	<g class="st2">
		<path class="st3" d="M296.38,312.2c-10.35,1.12-20.41,6.37-30.8,7.41c-2.5,14.27-11.52,25.87-23.77,33.05
			c12.04-3.22,25.61-2.86,37.18-7.64C288.2,341.2,301.36,322.85,296.38,312.2z"/>
	</g>
	<g class="st8">
		<path class="st9" d="M73.7,189.52c4.8,0.52,15.62,2.96,18.15-0.42c1.52-2.05,0.6-7.98,1.02-10.63c0.58-3.82,1.82-7.4,2.81-11.12
			c2.19-8.24,4.68-16.41,7.4-24.52c1.45-4.33,2.99-8.73,4.89-12.87c1.84-4.02,5.86-8.06,6.52-12.33
			c-5.81-2.04-15.08,0.73-21.67-0.31c-8.3-1.31-16.51-3.12-24.8-4.41c-8.28-1.29-15.95-0.66-24-3.47
			c-8.26-2.89-17.99-6.28-25.33-11.07l-1.71-1.14c0.03,13.94,2.77,27.53,4.05,41.35c0.67,7.11,1.74,14.38,3.21,21.38
			c1.26,5.94,1.06,16.33,5.94,20c4.94,3.71,15.32,4.92,21.3,5.97C58.85,187.21,66.18,188.71,73.7,189.52z"/>
		<path class="st9" d="M77.4,310.49c3.5,0.17,14.34,2.45,17.08,0.48c4.87-3.51-1.06-22.72-2.12-28.46
			c-3.91-21.21-3.21-42.49-4.66-63.84c-0.26-3.89,1.03-14.71-1.14-17.37c-2.43-2.97-13.01-2.43-16.56-3.13
			c-10.76-2.11-26.82-3.16-35.92-9.16l-2.29,1.71c-0.47,20.52,5.57,41.74,7.54,62.15c1.05,10.88,2.78,22.36,4.84,33.08
			c0.67,3.48,1.24,11.38,3.07,14.2c2.41,3.71,10.84,5.56,14.79,6.9C67.21,308.82,71.91,310.23,77.4,310.49z"/>
		<path class="st9" d="M111.61,338.43c-6.36-4.91-11.25-15.51-18.19-18.18c-6.32-2.44-15.44-2.71-22.28-3.48
			c-7.06-0.8-15.21-1.5-21.68-4.59l-1.13-3.99c0.02,8.57,0.08,18.38,3.95,26.26c4.73,9.67,15.92,11.31,25.42,13.45
			c9.26,2.09,17.93,3.62,27.42,4.16c7.56,0.43,20.74,3.96,27.42-0.07C125.01,348.09,118.47,343.71,111.61,338.43z"/>
	</g>
	<g class="st12">
		<path class="st9" d="M67.71,187.89c5.76,0.54,5.71,0.63,6.85-4.31c1.85-8.06,1.48-17.34,3.07-25.64
			c1.55-8.06,1.99-17.08,4.87-24.79c3.65-9.87,10.95-16.58-3.94-18.29c-9.78-1.13-19.31-3.43-29.09-5.09
			c-9.52-1.62-20.29-4.39-28.51-9.71H18.1c0,16.75,1.75,33.84,5.54,50.18c1.87,8.01,2.64,19.46,7.52,26.28
			c4.88,6.85,16.18,6.55,23.71,8.74C59.02,186.46,63.42,187.49,67.71,187.89z"/>
		<path class="st9" d="M67.63,297.46c6.82-3.56,3.57-16.33,3.07-22.34c-1.32-16.23-1.73-32.16-1.85-48.47
			c-0.06-8.26,1.84-20.18-6.83-23.41c-8.36-3.11-17.48-4.58-26.25-6.25v-1.14c-2.75,14.81,2.87,33.77,4.49,48.76
			c0.84,7.71,1.93,15.38,2.78,23.09c0.77,6.94,0.49,16.84,3.78,23.14C49.74,296.42,61.59,300.61,67.63,297.46z"/>
		<path class="st9" d="M77.69,324.46c-2.8-6.63-4.38-6.79-11.41-7.77c-5.18-0.72-10.07-1.56-15.11-2.78l-0.58,0.57
			c1.73,12.93,2.4,24.52,16.25,29.91c7.35,2.86,27.09,9.21,34.32,5.92C93.03,341.32,82.81,336.56,77.69,324.46z"/>
	</g>
</g>
</svg>
