<?xml version="1.0" encoding="utf-8"?>
<!-- Generator: Adobe Illustrator 25.4.1, SVG Export Plug-In . SVG Version: 6.00 Build 0)  -->
<svg version="1.1" id="Layer_1" xmlns="http://www.w3.org/2000/svg" xmlns:xlink="http://www.w3.org/1999/xlink" x="0px" y="0px"
	 viewBox="0 0 726.91 513.81" style="enable-background:new 0 0 726.91 513.81;" xml:space="preserve">
<style type="text/css">
	.st0{fill:#E3E2E2;}
	.st1{fill:#F4F4F4;}
	.st2{fill:#FFFFFF;}
	.st3{fill:#EBEAEA;}
	.st4{fill:#FFD9A6;}
	.st5{opacity:0.6;fill:#F8CE9B;}
	.st6{fill:#216EB7;}
	.st7{opacity:0.5;fill:#FFD9A6;}
	.st8{opacity:0.8;fill:#DDC09F;}
	.st9{fill:#449E46;}
	.st10{fill:#79BC43;}
	.st11{opacity:0.8;fill:#A1BB3A;}
	.st12{opacity:0.8;fill:#F8CE9B;}
	.st13{fill:#F8991D;}
	.st14{opacity:0.7;fill:#F8991D;}
	.st15{fill:#FFC42F;}
	.st16{fill:#4BAA47;}
	.st17{opacity:0.7;fill:#4BAA47;}
	.st18{fill:#C02026;}
</style>
<g>
	<g>
		<path class="st0" d="M364.6,473.69l-146.86-7.56l3.31,11.55c2.32,2.67,5.03,4.56,8.01,5.99c16.9,4.77,64.37,25.12,135.55,23.49
			c71.18,1.64,118.65-18.71,135.55-23.49c2.97-1.44,5.68-3.32,8-5.99l3.31-11.55L364.6,473.69z"/>
		<g>
			<g>
				<path class="st1" d="M724.14,164.08l-5.11,3.63l-294.06,33.07l-121.36-0.3L9.54,167.41l-5.11-3.64
					c0,0,27.61,274.31,287.8,326.75c22.04,4.83,46.94,7.57,73.31,7.57c28.47,0,55.23-3.18,78.52-8.76
					C697.89,433.98,724.14,164.08,724.14,164.08z"/>
				<path class="st2" d="M726.91,147.03c0,75.11-162.23,136.01-362.34,136.01c-200.12,0-362.35-60.9-362.35-136.01
					s162.23-136,362.35-136C564.69,11.02,726.91,71.91,726.91,147.03z"/>
				<ellipse class="st3" cx="364.57" cy="140.2" rx="362.35" ry="136.01"/>
				<g>
					<path class="st2" d="M364.39,8.63c196.84,0,358.76,60.4,358.76,136.26c0,14.87-8.5,30.26-19.84,43.66
						c15.23-15.02,23.6-31.32,23.6-48.35c0-75.12-162.23-136.01-362.34-136.01C164.45,4.19,2.22,65.08,2.22,140.2
						c0,16.21,7.57,31.75,21.43,46.18C13.47,173.6,6.04,158.5,6.04,144.44C6.04,68.59,167.55,8.63,364.39,8.63z"/>
				</g>
				<g>
					<path class="st0" d="M226.98,266.05c42.43,6.54,88.88,10.16,137.59,10.16c48.71,0,95.16-3.62,137.59-10.16
						c-34.1-13.99-83.1-22.77-137.59-22.77S261.08,252.06,226.98,266.05z"/>
				</g>
				<g>
					<path class="st4" d="M364.57,63.67c-185.69,0-336.22,56.5-336.22,126.2c0,0.38,0.03,0.76,0.04,1.15
						c53.63,49.94,183.93,85.19,336.18,85.19s282.55-35.25,336.18-85.19c0.01-0.39,0.04-0.77,0.04-1.15
						C700.78,120.17,550.26,63.67,364.57,63.67z"/>
				</g>
				<path class="st5" d="M364.57,63.67c-185.69,0-336.22,56.5-336.22,126.2c0,0.38,0.03,0.76,0.04,1.15
					c53.63,49.94,183.93,85.19,336.18,85.19s282.55-35.25,336.18-85.19c0.01-0.39,0.04-0.77,0.04-1.15
					C700.78,120.17,550.26,63.67,364.57,63.67z M364.57,243.28c-158.98,0-287.86-38.5-287.86-85.98
					c0-47.49,128.88-85.98,287.86-85.98c158.98,0,287.85,38.49,287.85,85.98C652.42,204.78,523.55,243.28,364.57,243.28z"/>
				<g>
					<path class="st5" d="M160.44,89.59c54.82-14.73,126.14-23.63,204.13-23.63s149.31,8.9,204.13,23.63
						c-56.6-16.26-127.35-25.92-204.13-25.92C287.79,63.67,217.04,73.33,160.44,89.59z"/>
				</g>
			</g>
			<g>
				<path class="st6" d="M665.81,247.71c-80.37,37.24-187.36,57.74-301.23,57.74c-113.88,0-220.85-20.5-301.23-57.74
					c-18.43-8.54-32.05-15.81-46.59-25.58l3.14,10.5c78.34,48.7,205.6,83.08,344.68,83.08c138.72,0,265.96-34.26,344.33-82.74
					l3.13-10.61C697.66,231.98,683.98,239.3,665.81,247.71z"/>
			</g>
		</g>
		<path class="st7" d="M119.58,165.65c0-42.57,116.95-77.07,261.2-77.07c65.48,0,125.33,7.11,171.17,18.85
			c-47.89-16.27-118.52-26.56-197.29-26.56c-144.26,0-261.2,34.51-261.2,77.08c0,23.24,34.88,44.09,90.03,58.22
			C143.68,202.64,119.58,184.98,119.58,165.65z"/>
	</g>
	<g>
		<path class="st8" d="M479.44,153.85c0,0-19.66-11.2-39.2-6.37c0,0,10.06-5.76,11.59-12.75c0,0-13.62-1.18-28.08,10.39
			c0,0,7.62-9.5,6.42-19.65c0,0-11.56,4.89-20.98,13.05c0,0,6.18-9.55,3.26-16.21c0,0-8.63,3.54-11.91,10.17
			c-0.06,0-0.14-0.01-0.22-0.02c0.58-2.53,1.08-7.13-1.49-11.32c0.66-1.04,1.31-2.14,1.92-3.36c0,0-9.31-1.22-16.55,3.17
			c-0.54,0.36-0.29,0.18,0,0c2.72-1.79,11.11-8.22,14.86-21.26c0,0-4.12-0.37-7.87,1.68c0,0,9.18-18.45,0.94-38.02
			c0,0-19.49,9.88-24.73,27.96c0,0-0.19-11-5.62-15.84c0,0-7.68,10.25-4.49,27.77c0,0-4.69-11-14.24-15.29
			c0,0-1.31,11.74,1.31,23.49c0,0-5.44-9.89-12.74-11c0,0-1.28,10.27,4.38,16.26c-0.75-0.86-5.38-5.84-12.06-6.01
			c0,0-3.69,24.65,28.3,36.59l-0.29-0.09c0,0-2.48,9.96-8.2,15.63c-5.73,5.68-15.35,9.98-15.35,9.98s2.2-20.35-2.86-29.75l0,0.01
			c4.64-22.22-19.73-31.46-19.73-31.46s-0.17,4.76,2.12,11.79c0,0-3.89-6.63-16.32-9.53c0,0-0.33,7.4,4.57,12.33
			c0.4,0.37,0.2,0.2,0,0c-1.97-1.83-8.95-7.35-21.85-8.24c0,0,0.02,3.25,2.33,5.84c0,0-18.63-4.28-36.75,5.13
			c0,0,11.3,13.58,29.21,14.86c0,0-10.59,1.85-14.77,6.8c0,0,10.58,4.38,27.2-0.79c0,0-10.18,5.32-13.45,13.39
			c0,0,11.44-0.8,22.53-4.64c0,0-9.04,5.74-9.45,11.57c0,0,10.03-0.58,15.29-5.9c-0.77,0.72-5.14,5.07-4.7,10.27
			c0,0,22.1-0.84,31.53-24.29l-0.01,0.03c0,0,2.51,13.2-1.05,25.05c-0.51,1.7-17.56,9.7-17.56,9.7c0.8,5.07,4.04,6.41,4.04,6.41
			c46.19-26.8,66.33-28.77,71.69-28.69c7.45,27.52,39.86,33.51,39.86,33.51s-2.55-5.38-9-12.42c0,0,7.89,6.03,22.6,4.92
			c0,0-3.91-8.37-11.88-12.17c-0.63-0.27-0.32-0.15,0,0c3.12,1.35,13.6,5.07,27.67,1.56c0,0-1.89-3.62-5.81-5.7
			C443.82,172.43,465.82,170.68,479.44,153.85z M347.78,165.08c6.61-4.96,8.99-15.63,9.13-16.26c8.43,2.29,15.84,1.58,22.06-0.48
			c-0.26,2.67-0.2,5.56,0.24,8.68C365.47,156.96,347.78,165.08,347.78,165.08z M399.8,134.23c0.06-0.16,0.16-0.46,0.28-0.86
			c0.04-0.05,0.08-0.1,0.12-0.15C400.05,133.56,399.91,133.89,399.8,134.23z"/>
		<g>
			<path class="st9" d="M318.98,172.09c3.55-11.86,1.05-25.05,1.05-25.05l2.25-7.2c5.05,9.41,2.86,29.75,2.86,29.75
				s9.63-4.31,15.35-9.98c5.73-5.67,8.2-15.64,8.2-15.64l4.99,1.58c0,0-2.32,11.21-9.13,16.31c0,0,17.81-8.18,31.57-8.05l2.58,5.79
				c0,0-17.99-3.47-73.25,28.59c0,0-3.24-1.34-4.04-6.41C301.42,181.8,318.47,173.8,318.98,172.09z"/>
			<g>
				<g>
					<path class="st10" d="M437.02,144.27c0,0,10.05-5.75,11.59-12.75c0,0-13.62-1.18-28.08,10.39c0,0,7.62-9.5,6.41-19.64
						c0,0-11.55,4.89-20.98,13.05c0,0,6.18-9.55,3.26-16.21c0,0-10.18,4.17-12.65,11.92c-0.03,0.1-0.06,0.17-0.06,0.17
						c0.02-0.06,0.05-0.11,0.06-0.17c0.39-1.07,2.48-7.45-0.97-13.11c0,0-25.63,11.17-18.91,39.79c56.6-16.15,99.52-7.07,99.52-7.07
						S456.55,139.44,437.02,144.27z"/>
					<path class="st9" d="M430.61,185.52c0,0-3.91-8.37-11.88-12.17c-0.62-0.28-0.33-0.16,0,0c3.12,1.35,13.61,5.07,27.67,1.56
						c0,0-1.89-3.62-5.81-5.7c0,0,22-1.75,35.62-18.58c0,0-42.92-9.08-99.52,7.07c6.48,29.07,40.33,35.31,40.33,35.31
						s-2.56-5.37-9-12.42C408.02,180.6,415.91,186.63,430.61,185.52z"/>
				</g>
				<path class="st11" d="M409.14,119.52c0,0-13.85,6.03-13.95,17.92c0,0,3.65-11.93,14.31-15.01L409.14,119.52z"/>
				<path class="st11" d="M426.34,122.97c0,0-14.02,5.72-21.4,15.94c0,0,11.47-8.92,21.76-13.02L426.34,122.97z"/>
				<path class="st11" d="M396.18,121.8c0,0,0.01-1.35-1.37-3.1c0,0-14.4,7.77-17.85,24.06
					C376.97,142.76,379.79,132.94,396.18,121.8z"/>
			</g>
			<g>
				<g>
					<path class="st10" d="M265.86,140.59c0,0-10.59,1.85-14.77,6.8c0,0,10.58,4.38,27.2-0.79c0,0-10.18,5.32-13.45,13.4
						c0,0,11.44-0.8,22.53-4.64c0,0-9.03,5.73-9.45,11.57c0,0,10.03-0.59,15.29-5.9c0.08-0.07,0.13-0.12,0.13-0.12
						c-0.04,0.05-0.09,0.08-0.13,0.12c-0.76,0.72-5.14,5.07-4.7,10.27c0,0,25.05-0.96,33.2-29.13
						c-45.86-12.16-85.07-16.45-85.07-16.45S247.94,139.31,265.86,140.59z"/>
					<path class="st9" d="M288.34,110.65c0,0-0.33,7.4,4.57,12.33c0.4,0.37,0.2,0.2,0,0c-1.97-1.82-8.95-7.35-21.85-8.23
						c0,0,0.02,3.25,2.33,5.84c0,0-18.63-4.27-36.75,5.13c0,0,39.21,4.29,85.07,16.45c6.91-23.9-19.16-33.78-19.16-33.78
						s-0.17,4.76,2.12,11.8C304.66,120.19,300.77,113.55,288.34,110.65z"/>
				</g>
				<path class="st11" d="M278.16,166.3c0,0,13.79-1.08,18.85-10.17c0,0-7.97,8.19-17.93,7.84L278.16,166.3z"/>
				<path class="st11" d="M265.61,159.61c0,0,13.8-0.8,24.09-6.74c0,0-13.07,3.9-23.17,4.42L265.61,159.61z"/>
				<path class="st11" d="M289.66,168.19c0,0-0.58,1.03-0.19,2.72c0,0,14.41-2.56,24.04-14.15
					C313.51,156.76,307.66,163.84,289.66,168.19z"/>
			</g>
			<g>
				<g>
					<path class="st10" d="M364.16,88.1c0,0-0.18-11-5.62-15.85c0,0-7.68,10.25-4.49,27.77c0,0-4.69-11-14.24-15.28
						c0,0-1.31,11.74,1.31,23.49c0,0-5.44-9.88-12.74-11c0,0-1.28,10.27,4.38,16.26c0.07,0.08,0.12,0.14,0.12,0.14
						c-0.04-0.04-0.08-0.09-0.12-0.14c-0.75-0.86-5.38-5.84-12.06-6.01c0,0-3.86,25.61,30.17,37.28
						c13.3-53.51,38.04-84.62,38.04-84.62S369.41,70.01,364.16,88.1z"/>
					<path class="st9" d="M397.51,114.56c0,0-9.3-1.22-16.55,3.17c-0.54,0.36-0.29,0.18,0,0c2.72-1.8,11.11-8.22,14.86-21.26
						c0,0-4.12-0.37-7.87,1.68c0,0,9.18-18.45,0.94-38.02c0,0-24.73,31.11-38.04,84.62c28.86,9.88,46.66-15.47,46.66-15.47
						s-6-0.75-15.36,0.74C382.15,130.03,391.33,126.86,397.51,114.56z"/>
				</g>
				<path class="st11" d="M328.7,97.51c0,0-1.42,14.17,9.04,20.41c0,0-8.76-9.08-6.29-19.18L328.7,97.51z"/>
				<path class="st11" d="M340.13,85.58c0,0-1.78,14.14,3.66,25.32c0,0-2.3-13.77-0.91-24.1L340.13,85.58z"/>
				<path class="st11" d="M324.4,109.02c0,0-1.19-0.7-3.4-0.51c0,0-0.16,15.51,12.58,26.69C333.57,135.2,326.26,127.86,324.4,109.02
					z"/>
			</g>
		</g>
	</g>
	<g>
		<g>
			<path class="st12" d="M253.44,96.27c-5.12,4.1-1.07,11.34,6.44,7.47C267.4,99.89,259.88,91.13,253.44,96.27z"/>
			<path class="st12" d="M318.09,83.88c-7.52,1.29-6.02,7.21,1.46,6.95C327.04,90.57,325.61,82.59,318.09,83.88z"/>
			<path class="st12" d="M519.72,93c-10.31-0.99-8.94,9.27,0,8.76C528.66,101.24,525.09,93.52,519.72,93z"/>
			<path class="st12" d="M471.68,119.67c-7.07-1.26-8.48,8.76,0,8.11C480.17,127.14,478.38,120.88,471.68,119.67z"/>
			<path class="st12" d="M562.49,137.66c-11.55,1.09-6.41,7.85-0.69,7.63C567.53,145.07,570.72,136.89,562.49,137.66z"/>
			<path class="st12" d="M515.54,175.53c-5.94,1.31-5.37,8.37,2.5,7.08C525.92,181.33,521.98,174.12,515.54,175.53z"/>
			<path class="st12" d="M226.35,215.55c-5.94,1.31-5.37,8.37,2.5,7.08C236.73,221.34,232.79,214.14,226.35,215.55z"/>
			<path class="st12" d="M380.18,202.08c-5.76,0.31-8.23,7.98,0,7.21C388.41,208.52,389.84,201.57,380.18,202.08z"/>
			<path class="st12" d="M323.39,234.43c-8.1-1.16-7.51,9.01,0,7.47C330.91,240.35,330.55,235.45,323.39,234.43z"/>
			<path class="st12" d="M264.52,170.67c-4.88-1.68-10.74,5.92-2.86,6.95C269.53,178.65,272.75,173.51,264.52,170.67z"/>
			<path class="st12" d="M467.62,215.66c-4.89-1.68-10.74,5.92-2.86,6.95C472.63,223.64,475.86,218.49,467.62,215.66z"/>
			<path class="st12" d="M423.77,92.5c-4.88-1.68-10.73,5.92-2.86,6.95C428.78,100.48,432,95.33,423.77,92.5z"/>
			<path class="st12" d="M169.04,148.28c-7.88-1.29-10.03,7.73-2.87,8.76C173.33,158.06,176.91,149.57,169.04,148.28z"/>
			<path class="st12" d="M202.54,123.45c-7.99-0.37-8.47,9.1,0,8.09C211.01,130.52,210.53,123.82,202.54,123.45z"/>
		</g>
		<g>
			<g>
				<path class="st13" d="M251.29,94.73c-5.13,4.1-1.08,11.33,6.44,7.47C265.25,98.34,257.73,89.58,251.29,94.73z"/>
				<path class="st14" d="M251.29,94.73c-5.13,4.1-1.08,11.33,6.44,7.47C265.25,98.34,257.73,89.58,251.29,94.73z M255.66,100.23
					c-5.04,2.59-7.75-2.26-4.31-5C255.66,91.77,260.69,97.64,255.66,100.23z"/>
			</g>
			<g>
				<path class="st15" d="M315.94,82.33c-7.52,1.29-6.02,7.21,1.46,6.95C324.89,89.03,323.46,81.05,315.94,82.33z"/>
				<path class="st15" d="M315.94,82.33c-7.52,1.29-6.02,7.21,1.46,6.95C324.89,89.03,323.46,81.05,315.94,82.33z M316.38,87.65
					c-5.25,0.18-6.3-3.98-1.02-4.87C320.63,81.87,321.63,87.47,316.38,87.65z"/>
			</g>
			<g>
				<path class="st15" d="M517.57,91.46c-10.31-0.99-8.95,9.27,0,8.76C526.52,99.69,522.94,91.97,517.57,91.46z"/>
				<path class="st15" d="M517.57,91.46c-10.31-0.99-8.95,9.27,0,8.76C526.52,99.69,522.94,91.97,517.57,91.46z M517.33,98.24
					c-6.55,0.38-7.56-7.13,0-6.41C521.26,92.2,523.88,97.85,517.33,98.24z"/>
			</g>
			<g>
				<path class="st16" d="M469.54,118.13c-7.07-1.27-8.48,8.76,0,8.11C478.02,125.6,476.23,119.33,469.54,118.13z"/>
				<path class="st17" d="M469.54,118.13c-7.07-1.27-8.48,8.76,0,8.11C478.02,125.6,476.23,119.33,469.54,118.13z M468.62,124.13
					c-5.7,0.44-4.75-6.31,0-5.45C473.12,119.5,474.32,123.71,468.62,124.13z"/>
			</g>
			<g>
				<path class="st18" d="M560.34,136.12c-11.55,1.08-6.41,7.85-0.69,7.63C565.38,143.53,568.57,135.35,560.34,136.12z"/>
				<path class="st18" d="M560.34,136.12c-11.55,1.08-6.41,7.85-0.69,7.63C565.38,143.53,568.57,135.35,560.34,136.12z
					 M558.97,141.85c-3.92,0.15-7.45-4.49,0.47-5.23C565.09,136.09,562.9,141.7,558.97,141.85z"/>
			</g>
			<g>
				<path class="st13" d="M513.39,173.98c-5.94,1.31-5.37,8.37,2.5,7.08C523.77,179.78,519.83,172.57,513.39,173.98z"/>
				<path class="st14" d="M513.39,173.98c-5.94,1.31-5.37,8.37,2.5,7.08C523.77,179.78,519.83,172.57,513.39,173.98z M514.62,179.53
					c-5,0.82-5.37-3.66-1.59-4.49C517.12,174.13,519.62,178.71,514.62,179.53z"/>
			</g>
			<g>
				<path class="st18" d="M224.2,214.01c-5.94,1.3-5.37,8.36,2.5,7.07C234.58,219.8,230.65,212.59,224.2,214.01z"/>
				<path class="st18" d="M224.2,214.01c-5.94,1.3-5.37,8.36,2.5,7.07C234.58,219.8,230.65,212.59,224.2,214.01z M225.68,219.29
					c-5.72,0.93-6.14-4.19-1.82-5.15C228.54,213.12,231.4,218.35,225.68,219.29z"/>
			</g>
			<g>
				<path class="st18" d="M378.04,200.54c-5.75,0.3-8.23,7.98,0,7.2C386.27,206.98,387.7,200.02,378.04,200.54z"/>
				<path class="st18" d="M378.04,200.54c-5.75,0.3-8.23,7.98,0,7.2C386.27,206.98,387.7,200.02,378.04,200.54z M377.51,205.93
					c-5.18,0.49-3.62-4.34,0-4.54C383.59,201.08,382.69,205.45,377.51,205.93z"/>
			</g>
			<g>
				<path class="st16" d="M321.25,232.88c-8.1-1.16-7.52,9.01,0,7.47C328.76,238.8,328.4,233.91,321.25,232.88z"/>
				<path class="st17" d="M321.25,232.88c-8.1-1.16-7.52,9.01,0,7.47C328.76,238.8,328.4,233.91,321.25,232.88z M320.24,238.28
					c-4.67,0.96-5.03-5.35,0-4.63C324.68,234.29,324.9,237.33,320.24,238.28z"/>
			</g>
			<g>
				<path class="st13" d="M262.38,169.13c-4.89-1.68-10.74,5.92-2.87,6.95C267.38,177.11,270.61,171.97,262.38,169.13z"/>
				<path class="st14" d="M262.38,169.13c-4.89-1.68-10.74,5.92-2.87,6.95C267.38,177.11,270.61,171.97,262.38,169.13z
					 M259.32,174.11c-5.29-0.69-1.36-5.81,1.93-4.67C266.78,171.34,264.62,174.8,259.32,174.11z"/>
			</g>
			<g>
				<path class="st15" d="M465.48,214.11c-4.89-1.68-10.74,5.92-2.86,6.95C470.49,222.09,473.71,216.94,465.48,214.11z"/>
				<path class="st15" d="M465.48,214.11c-4.89-1.68-10.74,5.92-2.86,6.95C470.49,222.09,473.71,216.94,465.48,214.11z
					 M462.21,219.57c-5.82-0.76-1.49-6.38,2.11-5.13C470.41,216.52,468.03,220.33,462.21,219.57z"/>
			</g>
			<g>
				<path class="st13" d="M421.63,90.95c-4.89-1.68-10.74,5.92-2.86,6.95C426.63,98.93,429.86,93.78,421.63,90.95z"/>
				<path class="st14" d="M421.63,90.95c-4.89-1.68-10.74,5.92-2.86,6.95C426.63,98.93,429.86,93.78,421.63,90.95z M419.3,96.21
					c-5.67-0.74-1.46-6.21,2.06-5.01C427.28,93.25,424.96,96.95,419.3,96.21z"/>
			</g>
			<g>
				<path class="st16" d="M166.89,146.74c-7.88-1.29-10.02,7.73-2.86,8.75C171.18,156.52,174.76,148.02,166.89,146.74z"/>
				<path class="st17" d="M166.89,146.74c-7.88-1.29-10.02,7.73-2.86,8.75C171.18,156.52,174.76,148.02,166.89,146.74z
					 M163.34,153.26c-5-0.72-3.5-7.01,2-6.11C170.84,148.05,168.34,153.98,163.34,153.26z"/>
			</g>
			<g>
				<path class="st15" d="M200.4,121.9c-7.99-0.37-8.47,9.1,0,8.08C208.86,128.98,208.39,122.28,200.4,121.9z"/>
				<path class="st15" d="M200.4,121.9c-7.99-0.37-8.47,9.1,0,8.08C208.86,128.98,208.39,122.28,200.4,121.9z M199.05,128.16
					c-6.07,0.73-5.72-6.06,0-5.79C204.78,122.63,205.11,127.44,199.05,128.16z"/>
			</g>
		</g>
	</g>
</g>
</svg>
