<?xml version="1.0" encoding="utf-8"?>
<!-- Generator: Adobe Illustrator 25.4.1, SVG Export Plug-In . SVG Version: 6.00 Build 0)  -->
<svg version="1.1" id="Layer_1" xmlns="http://www.w3.org/2000/svg" xmlns:xlink="http://www.w3.org/1999/xlink" x="0px" y="0px"
	 viewBox="0 0 727.62 301.59" style="enable-background:new 0 0 727.62 301.59;" xml:space="preserve">
<style type="text/css">
	.st0{fill:#DBDADA;}
	.st1{fill:#F4F4F4;}
	.st2{fill:#EBEAEA;}
	.st3{fill:#216EB7;}
	.st4{fill:#792321;}
	.st5{fill:#B0532E;}
	.st6{fill:#84654B;}
	.st7{fill:#A78D6A;}
	.st8{fill:#D6C3A2;}
	.st9{fill:#83321A;}
	.st10{fill:#6D4B31;}
	.st11{opacity:0.3;}
	.st12{fill:#F9A974;}
	.st13{fill:#9D4222;}
	.st14{fill:#1F4922;}
	.st15{fill:#4C8C40;}
	.st16{fill:#69B445;}
	.st17{fill:#ADD691;}
	.st18{fill:#D2A778;}
	.st19{fill:#7FA95F;}
	.st20{fill:#478C40;}
	.st21{fill:#010101;}
	.st22{fill:#FFFFFF;}
</style>
<g>
	<g>
		<g>
			<path class="st0" d="M727.62,154.02c0,79.64-162.88,144.21-363.81,144.21C162.87,298.24,0,233.66,0,154.02
				C0,74.37,162.87,9.81,363.81,9.81C564.73,9.81,727.62,74.37,727.62,154.02z"/>
			<path class="st1" d="M727.62,146.78c0,79.64-162.88,144.21-363.81,144.21C162.87,290.99,0,226.42,0,146.78
				C0,67.13,162.87,2.56,363.81,2.56C564.73,2.56,727.62,67.13,727.62,146.78z"/>
			<path class="st2" d="M611.93,131.92c0,54.31-111.09,98.35-248.12,98.35c-137.04,0-248.13-44.03-248.13-98.35
				c0-54.33,111.09-98.36,248.13-98.36C500.84,33.56,611.93,77.6,611.93,131.92z"/>
			<path class="st1" d="M603.3,133.72c0,51.55-107.22,93.32-239.49,93.32c-132.27,0-239.5-41.77-239.5-93.32
				c0-51.54,107.22-93.32,239.5-93.32C496.08,40.4,603.3,82.18,603.3,133.72z"/>
		</g>
		<path class="st3" d="M363.81,13.48c94.16,0,182.6,14.14,249.04,39.8c31.99,12.35,57.03,26.67,74.43,42.56
			c17.39,15.88,26.21,32.55,26.21,49.54s-8.82,33.67-26.21,49.55c-17.4,15.89-42.44,30.2-74.43,42.56
			c-66.44,25.66-154.88,39.79-249.04,39.79c-94.16,0-182.61-14.13-249.05-39.79c-31.98-12.36-57.03-26.68-74.43-42.56
			c-17.39-15.88-26.21-32.55-26.21-49.55s8.82-33.67,26.21-49.54c17.4-15.89,42.45-30.21,74.43-42.56
			C181.2,27.62,269.65,13.48,363.81,13.48L363.81,13.48z M363.81,8.36C167.85,8.36,8.99,69.7,8.99,145.38
			c0,75.68,158.86,137.03,354.82,137.03c195.96,0,354.81-61.35,354.81-137.03C718.62,69.7,559.77,8.36,363.81,8.36L363.81,8.36z"/>
		<path class="st3" d="M363.81,19.24c90.6,0,175.74,13.19,239.73,37.12c30.96,11.59,55.23,25.04,72.14,39.99
			c17.17,15.2,25.88,31.22,25.88,47.63c0,16.42-8.71,32.45-25.88,47.64c-16.91,14.95-41.17,28.41-72.14,39.99
			c-63.99,23.94-149.13,37.13-239.73,37.13c-90.6,0-175.74-13.19-239.74-37.13c-30.96-11.58-55.22-25.04-72.13-39.99
			c-17.18-15.18-25.88-31.21-25.88-47.64c0-16.42,8.7-32.44,25.88-47.63c16.9-14.95,41.17-28.4,72.13-39.99
			C188.07,32.42,273.2,19.24,363.81,19.24L363.81,19.24z M363.81,16.67c-187.95,0-340.32,57-340.32,127.31
			c0,70.32,152.37,127.32,340.32,127.32c187.95,0,340.31-57,340.31-127.32C704.12,73.67,551.76,16.67,363.81,16.67L363.81,16.67z"/>
	</g>
	<g>
		<g>
			<g>
				<path class="st4" d="M293.93,180.66c-0.97-3.26-0.96-4.57,1-7.83c1.96-3.26,3.27-4.23,1.97-7.82c-1.29-3.59-1.29-6.85-6.17-9.8
					c-4.89-2.94-14.66-8.18-18.57-10.8c-3.91-2.62-17.94-1.67-21.85-1.68c-3.91,0-10.42-8.5-14.33-12.42
					c-3.91-3.92-11.07-8.18-18.89-13.41c-7.82-5.23-22.16-11.14-27.05-12.45c-4.89-1.31-10.74-10.13-13.67-16.01
					c-2.92-5.88-10.08-16-18.21-22.54c-1.28-1.03-2.26-2.15-3-3.3c0.07,0.77,0.17,1.6,0.3,2.52c2.57,11.04,0.28,19.79-2.97,26.26
					c-3.26,6.48-1.32,9.08,1.6,12.01c2.91,2.92,5.49,10.38,7.75,19.15c2.25,8.76,1.93,7.14,8.41,9.74
					c6.49,2.61,13.94,6.84,17.17,10.1c3.23,3.24,2.91,4.22,9.72,4.88c6.81,0.67,21.39,9.13,40.18,19.22
					c18.18,9.76,33.31,21.31,46.02,25.02c2.06-0.69,4.12-1.5,5.37-2.37C291.97,186.86,294.91,183.93,293.93,180.66z"/>
				<path class="st5" d="M307.4,135.03c8.16-1.94,23.5-7.13,45.03-11.98c21.54-4.85,36.55-10.04,60.37-10.64
					c23.81-0.6,37.17,4.64,53.8,8.92c16.63,4.27,32.92,10.83,45.63,15.1c12.71,4.26,24.44,10.81,27.69,14.4
					c3.26,3.6,5.21,8.82,9.78,5.24c4.57-3.58,6.53-6.19,14.03-3.56c7.5,2.62,9.44,5.56,12.07-0.95c1.64-4.08,3.28-8.4,4.2-12.51
					c-2.42-3.52-5.85-5.7-12.12-7.06c-6.92-1.49-17.79-9.68-28.91-15.4c-11.12-5.71-32.18-15.71-41.11-21.32
					c-8.92-5.6-11.14-12.31-21.17-25.5c-10.02-13.2-8.54-16.67-13.71-25.11c-5.17-8.44-12.95-11.05-19.11-13.98
					c-6.15-2.94-10.04-5.86-19.77-8.16c-9.73-2.29-23.02-3.94-31.46-2.98c-8.44,0.96-10.37-1.97-15.56-1.65
					c-21.73-0.04-79.14,2.11-128.12,4.93c-48.98,2.82-72.68,11.2-82.43,21.56c-8.94,9.49-12.14,9.74-11.37,18.21
					c0.74,1.16,1.72,2.27,3,3.3c8.14,6.54,15.29,16.66,18.21,22.54c2.92,5.88,8.78,14.7,13.67,16.01
					c4.89,1.31,19.23,7.22,27.05,12.45c7.82,5.23,14.98,9.49,18.89,13.41c3.91,3.92,10.41,12.42,14.33,12.42
					c3.91,0,17.94-0.94,21.85,1.68c3.9,2.62,13.68,7.86,18.57,10.8c1.23,0.74,2.15,1.51,2.86,2.28c0.28-1.99,0.58-4.97,0.74-9.12
					C294.68,139.57,299.24,136.97,307.4,135.03z"/>
				<g>
					<path class="st6" d="M560.09,180.55c0.66-3.91,6.22-11.4,11.13-18.57c1.56-2.27,2.06-4.61,2.03-6.75
						c-1.92,0.95-4.45-0.95-9.51-2.72c-7.5-2.63-9.46-0.02-14.03,3.56c-2.07,1.62-3.61,1.42-4.97,0.4c-0.48,1.57-1.19,3-2.22,3.82
						c-3.27,2.6-5.88,4.56-4.26,8.15c1.62,3.59,2.28,3.92,0.31,7.83c-1.83,3.65-1.68,7.87,1.52,14.52
						c8.97,0.59,12.91,1.51,17.11,1.25c0.52-1.42,1.16-2.82,1.89-3.67C561.06,186.1,559.43,184.47,560.09,180.55z"/>
					<path class="st7" d="M580.73,140.18c-0.23-0.39-0.48-0.77-0.73-1.13c-0.92,4.11-2.56,8.43-4.2,12.51
						c-0.85,2.12-1.64,3.22-2.56,3.67c0.04,2.14-0.47,4.48-2.03,6.75c-4.91,7.17-10.47,14.66-11.13,18.57
						c-0.66,3.92,0.97,5.55-0.99,7.83c-0.73,0.85-1.38,2.25-1.89,3.67c1.08-0.06,2.18-0.2,3.38-0.45
						c5.94-1.23,7.94-10.37,8.69-13.83c0.75-3.46,3.72-4.94,8.17-7.16c4.46-2.22,4.46-6.42,4.97-12.36
						C582.93,152.31,583.19,144.39,580.73,140.18z"/>
				</g>
				<g>
					<path class="st7" d="M304.42,158.18c4.58-5.53,6.86-6.18,13.72-9.11c6.85-2.92,9.14-4.22,16.33-10.08
						c7.19-5.86,11.75-5.84,18.6-7.13c6.85-1.29,14.87-5.54,19.26-6.16c15.98-2.25,30.99-0.59,41.09-0.9
						c10.12-0.31,23.16-0.28,31.64,0.06c8.48,0.35,37.82,6.6,53.47,10.87c12.03,3.29,22.31,6.94,30.58,7.87
						c-4.84-2.53-10.74-5.13-16.89-7.19c-12.71-4.27-29.01-10.83-45.63-15.1c-16.62-4.27-29.99-9.52-53.8-8.92
						c-23.81,0.6-38.83,5.79-60.37,10.64c-21.53,4.84-36.88,10.04-45.03,11.98c-8.16,1.94-12.73,4.54-13.07,13.34
						c-0.16,4.15-0.46,7.13-0.74,9.12c1.93,2.15,2.3,4.43,3.1,6.87C299.19,162.95,302.19,160.88,304.42,158.18z"/>
					<path class="st8" d="M539.93,150.83c-1.68-1.85-5.63-4.5-10.8-7.21c-8.27-0.94-18.55-4.59-30.58-7.87
						c-15.65-4.27-44.99-10.53-53.47-10.87c-8.48-0.34-21.53-0.37-31.64-0.06c-10.11,0.31-25.11-1.36-41.09,0.9
						c-4.39,0.62-12.41,4.87-19.26,6.16c-6.85,1.29-11.42,1.28-18.6,7.13c-7.19,5.86-9.48,7.16-16.33,10.08
						c-6.86,2.93-9.14,3.57-13.72,9.11c-2.23,2.7-5.24,4.77-7.73,6.19c0.07,0.21,0.14,0.42,0.21,0.64c1.3,3.59-0.01,4.56-1.97,7.82
						c-1.96,3.26-1.97,4.56-1,7.83c0.98,3.26-1.97,6.19-5.23,8.47c-1.25,0.87-3.3,1.68-5.37,2.37c0.43,0.12,0.86,0.26,1.28,0.37
						c12.97,3.27,12.98-3.87,18.19-10.99c4.2-5.75,14.95-15.22,37.68-27.82c22.4-12.27,56.46-16.75,81.43-13.13
						c37.61,5.27,63.54,14.07,78.44,21.57c14.91,7.49,19.43,16.58,28.17,24.06c8.75,7.48,11.34,5.21,11.34,5.21
						c0.08,0,0.14,0.01,0.21,0.02c-3.19-6.65-3.35-10.87-1.52-14.52c1.97-3.91,1.31-4.24-0.31-7.83c-1.63-3.59,0.99-5.54,4.26-8.15
						c1.03-0.81,1.73-2.25,2.22-3.82C543.1,155.23,541.7,152.79,539.93,150.83z"/>
				</g>
				<g>
					<path class="st9" d="M184.77,100.8l18.47,48.17c0.45,0.18,0.92,0.37,1.4,0.57l-16.22-45.78
						C187.22,103.09,185.99,102.06,184.77,100.8z"/>
					<path class="st9" d="M245.25,139.97l15.24,40.16c0.69,0.41,1.39,0.83,2.06,1.24l-14.91-39.59
						C246.88,141.31,246.07,140.7,245.25,139.97z"/>
				</g>
				<path class="st10" d="M551.15,158.2c0,0-7.67,3.5-8.49,6.92c-0.82,3.42,0.98,5.85-0.38,8.38c-1.36,2.52,0.14,2.64-1.18,5.76
					c-1.18,2.79-1.55,7.93,3.31,8.11c4.87,0.2,6.85-1.24,9.19-0.34c2.34,0.91,4.96-1.43,3.61-3.96c-1.35-2.52-1.07-7.12,1.73-10.17
					c2.79-3.06,6.95-7.74,7.77-11.79C567.55,157.06,563.68,153.45,551.15,158.2z"/>
				<g class="st11">
					<path class="st12" d="M567.88,131.99c-6.92-1.49-17.79-9.68-28.91-15.4c-11.12-5.71-32.18-15.71-41.11-21.32
						c-8.92-5.6-11.14-12.31-21.17-25.5c-10.02-13.2-8.54-16.67-13.71-25.11c-0.11-0.18-0.23-0.35-0.34-0.52
						c1.74,3.83,2.75,9.38,3.52,12.71c0.94,4.08-0.79,5.17-2.28,12.1c-1.5,6.92,1.71,8.66,6.15,14.11
						c4.44,5.45,1.47,5.69-10.65,6.91c-12.12,1.21-13.12,1.7-17.82,4.42c-4.71,2.71-7.17,2.05-18.4,4.16
						c-11.22,2.13-16.49-0.36-23.74-1.86c-7.25-1.5-21.76-1.53-23.42,0.44c-1.66,1.98-1.66,2.81-8.92,3.61
						c-7.26,0.81-8.75,4.27-14.68,5.08c-5.94,0.81-13.03,1.62-23.26,3.09c-10.23,1.46-13.69,1.12-20.12,3.42
						c-6.44,2.3-16.5,5.25-20.95,4.91c-4.45-0.34-5.77-0.34-4.46,3.29c1.31,3.63-2.98,2.96-7.75,0.81
						c-4.78-2.16-14.17-4.98-20.77-5.98c-6.59-1-7.42-1-11.21-5.13c-3.78-4.13-5.26-5.13-10.87-7.28c-5.6-2.15-20.92-7.96-28.34-8.8
						c-7.42-0.84-14.67-2.01-20.6-7.13c-5.93-5.12-9.58-11.43-11.91-14.66c-2.33-3.22-2.43-4.33-4.54-5.11
						c-2.11-0.78-2.33-2.78-5.1-5.34c-4.32-3.98,2.99-9.56,11.91-19.1c3.59-3.83,6.04-6.49,7.7-8.3
						c-7.17,2.96-12.21,6.31-15.59,9.89c-8.94,9.49-12.14,9.74-11.37,18.21c0.74,1.16,1.72,2.27,3,3.3
						c8.14,6.54,15.29,16.66,18.21,22.54c2.92,5.88,8.78,14.7,13.67,16.01c4.89,1.31,19.23,7.22,27.05,12.45
						c7.82,5.23,14.98,9.49,18.89,13.41c3.91,3.92,10.41,12.42,14.33,12.42c3.91,0,17.94-0.94,21.85,1.68
						c3.9,2.62,13.68,7.86,18.57,10.8c1.23,0.74,2.15,1.51,2.86,2.28c0.28-1.99,0.58-4.97,0.74-9.12
						c0.35-8.81,4.91-11.4,13.07-13.34c8.16-1.94,23.5-7.13,45.03-11.98c21.54-4.85,36.55-10.04,60.37-10.64
						c23.81-0.6,37.17,4.64,53.8,8.92c16.63,4.27,32.92,10.83,45.63,15.1c12.71,4.26,24.44,10.81,27.69,14.4
						c3.26,3.6,5.21,8.82,9.78,5.24c4.57-3.58,6.53-6.19,14.03-3.56c7.5,2.62,9.44,5.56,12.07-0.95c1.64-4.08,3.28-8.4,4.2-12.51
						C577.58,135.53,574.15,133.35,567.88,131.99z"/>
				</g>
				<path class="st8" d="M434.13,106.31c0,0,14.04-0.95,20.5,1.76c6.47,2.71,8.98,1.82,14.73,3c5.74,1.18,13.47,2.18,17.24,3.89
					c3.77,1.71,8.44,3.79,9.61,2.9c1.17-0.9-2.63-7.04-12.26-11.89c-9.51-5.83-11.86-7.81-14.45-10.29
					c-2.59-2.48-5.06-3.59-7.54-1.25c-2.73,1.97-4.58,1.35-6.19,1.47c-1.6,0.13-2.85,1.6-5.94,2.84c-3.1,1.23-3.1,1.47-6.93,1.96
					c-3.83,0.49-4.7,1.47-7.8,2.58C432.01,104.38,426.36,105,434.13,106.31z"/>
				<g>
					<path class="st7" d="M492.25,100.08c6.93,3.96,10.52,7.56,14.34,12.12c3.82,4.55,8.12,7.07,14.83,7.57
						c6.7,0.49,12.36,1.11,21.58,3.92c9.23,2.82,16.65,5.14,23.56,8.46c6.23,2.98,9.39,5.43,12.84,9.26
						c0.23-0.79,0.43-1.58,0.61-2.36c-2.42-3.52-5.85-5.7-12.12-7.06c-6.92-1.49-17.79-9.68-28.91-15.4
						c-11.12-5.71-32.18-15.71-41.11-21.32c-8.92-5.6-11.14-12.31-21.17-25.5c-0.36-0.47-0.69-0.92-1.02-1.36
						c1.34,3.77,2.52,7.83,2.77,10.96C479.08,87.29,485.31,96.12,492.25,100.08z"/>
				</g>
				<g>
					<path class="st13" d="M163.03,104.8c-0.77-1.72-1.08-3.5-1.39-5.34c-0.43-2.54-1.43-4.66-2.58-6.93
						c-0.05-0.09-0.13-0.11-0.22-0.08c-0.05-0.04-0.14,0.04-0.2,0.11c-0.17,0.15-0.31,0.37-0.23,0.52c0.03,0.07,0.07,0.15,0.11,0.22
						c-0.51,4.76,2.28,9.65,4.38,13.82c0.19,0.39,0.8-0.28,0.77-0.55C163.58,105.95,163.3,105.39,163.03,104.8z"/>
					<path class="st13" d="M176.2,103.45c-0.87-2.38-1.45-4.64-3.03-6.67c-0.14-0.18-0.58,0.28-0.43,0.48
						c0.28,0.36,0.5,0.71,0.72,1.06c0.46,1.75,0.3,3.46,0.72,5.3c0.29,1.28,0.94,2.28,1.6,3.4c0.35,0.6,0.77,1.65,1.45,1.94
						c0.18,0.08,0.4-0.22,0.42-0.36C177.92,106.97,176.74,104.94,176.2,103.45z"/>
					<path class="st13" d="M178.72,122.49c-0.83-3.36-2.92-6.52-4.78-9.39c-0.15-0.22-0.58,0.21-0.47,0.4
						c0.25,0.4,0.49,0.79,0.74,1.19c0.39,0.95,0.64,1.99,1,2.94c0.57,1.51,1.19,2.99,1.74,4.51c0.58,1.6,0.83,3.29,1.45,4.89
						c0.5,1.28,1.48,2.19,2.21,3.31c0.15,0.23,0.51-0.17,0.49-0.35C180.78,127.4,179.34,125.01,178.72,122.49z"/>
					<path class="st13" d="M194.22,136.52c-0.66-2.37-0.94-4.87-1.71-7.18c-0.85-2.54-2.67-4.67-3.78-7.1
						c-0.98-2.15-2.42-4.13-2.61-6.54c-0.01-0.2-0.2-0.16-0.37-0.03c0.02-0.15-0.19,0.01-0.22,0.09c-1.15,4.1,0.77,9.31,1.8,13.28
						c1.34,5.18,4.83,8.93,7.76,13.26c0.2,0.3,0.66-0.21,0.63-0.45C195.54,140.02,194.72,138.27,194.22,136.52z"/>
					<path class="st13" d="M213.83,136.15c-0.81-1.95-1.79-3.85-2.56-5.81c-0.09-0.24-0.43,0.18-0.43,0.31
						c0,0.14,0.02,0.28,0.04,0.42c-0.05,0.05-0.09,0.13-0.07,0.17c1.23,3.49,2.05,7.55,4.32,10.57c0.16,0.22,0.53-0.29,0.52-0.45
						C215.57,139.65,214.49,137.74,213.83,136.15z"/>
					<path class="st13" d="M229.45,158.59c-1.05-1.83-1.66-3.99-2.37-5.97c-0.64-1.79-1.78-3.43-2.76-5.05
						c-0.41-0.69-0.84-1.33-1.32-1.96c-0.44-0.59-1.28-0.79-1.67-1.38c-0.18-0.29-0.69,0.24-0.58,0.49
						c0.14,0.33,0.11,0.31,0.35,0.44c-0.04,0.04-0.07,0.09-0.06,0.13c1.53,6.4,5.78,12.44,9.59,17.74c0.17,0.24,0.61-0.31,0.59-0.49
						C231.03,161.12,230.15,159.8,229.45,158.59z"/>
					<path class="st13" d="M239.79,148.79c-0.65-1.69-1.23-3.33-2.16-4.89c-0.88-1.48-1.94-2.8-2.89-4.23
						c-0.54-0.81-1.01-1.81-1.69-2.48c-0.22-0.22-0.74,0.38-0.54,0.62c0.07,0.09,0.13,0.18,0.2,0.26c0.91,2.84,1.55,5.8,3.22,8.32
						c0.92,1.39,1.75,2.82,2.62,4.24c0.86,1.38,2.01,2.68,2.71,4.14c0.17,0.34,0.68-0.27,0.62-0.53
						C241.42,152.34,240.49,150.61,239.79,148.79z"/>
					<path class="st13" d="M266.38,171.09c-1.37-2.5-2.64-5.1-3.9-7.65c-0.95-1.92-2.28-3.83-2.96-5.86
						c-0.09-0.25-0.58,0.2-0.5,0.42c0.07,0.21,0.15,0.42,0.23,0.63c0.06,2.45,1.27,4.5,2.32,6.71c0.96,2.03,2.39,4.94,4.42,6.13
						C266.16,171.57,266.47,171.26,266.38,171.09z"/>
					<path class="st13" d="M277.43,167.98c-1.02-2.15-2.84-4.29-3.48-6.58c-0.07-0.25-0.57,0.19-0.51,0.42
						c0.03,0.09,0.06,0.19,0.09,0.28c-0.36,2.1,0.55,3.83,1.54,5.65c1.28,2.35,2.62,4.86,4.08,7.09c0.17,0.26,0.54-0.19,0.53-0.39
						C279.6,172.41,278.3,169.81,277.43,167.98z"/>
					<path class="st13" d="M283.71,162.18c-0.33-0.6-0.57-1.24-0.78-1.9c-0.38-1.2-0.98-2.28-1.78-3.26
						c-0.15-0.17-0.45,0.26-0.41,0.41l0,0c-0.02,0.03-0.02,0.06-0.02,0.07c0.31,2.36,1.33,4.53,2.99,6.3
						c0.18,0.2,0.55-0.29,0.53-0.46C284.21,162.93,283.92,162.56,283.71,162.18z"/>
				</g>
				<g>
					<path class="st5" d="M217.32,57.91c-1.58,0.17-2.82,0.64-4.4,0.06c-0.95-0.35-1.66-0.79-2.68-0.85c-3.54-0.19-3.6,5.83-4,7.91
						c-0.78,4.08-5.27,4.88-8.49,6.24c-1.7,0.72-3.12,1.9-4.3,3.29c0,0,0,0,0,0.01c-0.78,0.62-1.52,1.34-2.3,1.95
						c-1.77,1.38-3.84,2.22-5.62,3.56c-2.44,1.84-5.9,3.69-7.37,6.5c-0.66,1.24-0.96,2.41-1.02,3.81c-0.09,2.04-0.48,4.35,0.03,6.35
						c0.66,2.66,2.91,4.6,5.63,5.09c0.23,0.04,0.48-0.21,0.56-0.41c0.1-0.29,0.11-0.53,0.06-0.77c0.05,0.13,0.1,0.25,0.15,0.38
						c0.03,0.08,0.17-0.06,0.16-0.13c-0.65-2.06-1.51-4.22-1.16-6.41c0.33-2.05,3.65-2.64,5.21-3.22c0.99-0.36,1.89-0.91,2.77-1.47
						c1.41-0.9,2.5-2.09,3.26-3.56c0.6-1.12,0.71-2.6,1.11-3.79c0.69-2.1,3.1-1.93,4.76-2.18c1.15-0.16,1.9-0.77,2.48-1.73
						c0.32-0.53,0.4-1.33,0.52-1.91c0.55-2.8,2.78-3.21,4.96-3.1c1.3,0.06,3.33,0.41,4.38-0.66c1.26-1.28,1.41-2.73,1.57-4.46
						c0.04-0.53,0.07-1.06,0.1-1.59c0.16-2.46,1.76-2.4,3.34-2.72c0.41-0.09,1.05-0.3,1.37-0.57c0.98-0.83,1.41-1.71,1.46-3
						C219.9,59.21,218.71,57.76,217.32,57.91z"/>
					<path class="st5" d="M265.51,22.28c-2.59,0.87-5.33,0.37-7.98,0.21c-0.66-0.04-1.32,0.22-1.93,0.43
						c-1.18,0.41-2.38,0.55-3.58,0.85c-1.4,0.34-3.33,0.51-4.4,1.59c-1.65,1.63-1.24,4.16-4.03,5.11c-3.94,1.33-6.54,4.04-8.93,7.29
						c-1.86,2.54-4.05,4.88-6.35,7.03c-1.57,1.49-3.17,2.38-5.02,3.03c-0.03-0.03-0.07-0.04-0.15,0c-2.05,0.78-3.98,0.19-4.44,2.75
						c-0.31,1.74,0.71,5.58,3.18,4.53c0.55-0.24,0.68-0.29,1.21-0.59c2-1.1,3.46-0.81,5.2,0.39c0.89,0.61,1.81,0.3,2.61-0.18
						c1.96-1.16,1.62-3.41,1.24-5.4c0.05-0.09,0.08-0.19,0.06-0.26c-0.99-4.23,6.25-7.3,9.21-9.14c3.17-1.97,6.56-4.02,9.28-6.6
						c1.13-1.07,1.99-3.29,3.25-4.04c1.96-1.16,4.24-1.81,6.42-2.39c0.47-0.13,0.92-0.29,1.36-0.46c0.01,0,0.01,0,0.02,0
						c1.34-0.28,2.67-1.21,3.26-2.5c0.29-0.43,0.53-0.9,0.7-1.45C265.75,22.3,265.63,22.23,265.51,22.28z"/>
					<path class="st5" d="M227.89,62.52c-0.15-0.54-0.46-0.92-0.85-1.21c0.1-0.09,0.17-0.24,0.03-0.24c-0.18,0-0.37-0.04-0.54-0.07
						c-0.18-0.09-0.37-0.17-0.57-0.24c-0.03-0.01-0.06,0-0.1,0.02c-0.43-0.16-1.96-0.35-2.43-0.32c-0.62,0.03-0.99,0.79-1.19,1.28
						c-0.74,1.84,0.33,3.47,1.44,4.84c1.03,1.26,2.81-0.85,3.19-1.61C227.16,64.36,228.08,63.18,227.89,62.52z"/>
					<path class="st5" d="M270.07,65.65c-3.39,0.04-8.09-1.11-10.98,1.33c-0.77,0.65-1.16,1.54-1.49,2.46
						c-1.04,2.96-2.69,4.46-5.19,6.25c-3.66,2.63-7.9,4.25-11.41,7.1c-1.46,1.19-2.75,2.58-4.15,3.84c-1.48,1.34-3.51,1.9-5.09,3.11
						c-2.23,1.69-3.65,3.81-3.4,6.58c-0.02-0.02-0.04-0.03-0.05-0.05c-0.16-0.2-0.63,0.31-0.52,0.52c1.26,2.39,5.71-0.08,7.33-0.62
						c0.96-0.32,2.6-0.48,3.18-1.52c0.33-0.61,0.33-0.59,0.47-1.28c0.38-1.9,1.83-2.49,3.26-3.39c1.86-1.18,3.9-2.12,5.85-3.12
						c2.08-1.06,4.36-1.47,6.31-2.74c1.13-0.74,2.77-1.48,3.35-2.82c0.23-0.52,0.21-1.66,0.3-2.1c0.19-0.98,2.48-3.59,3.34-4.36h0
						c1.9-1.4,3.75-2.91,5.92-3.88c1.96-0.87,3.96,0.11,5.96-0.37c1.29-0.31,3.92-1.31,3.86-3.06
						C276.85,64.99,271.5,65.63,270.07,65.65z"/>
					<path class="st5" d="M281.05,55.68c-1.66-0.54-3.73,0.33-5.32,0.64c-2.34,0.46-4.71,0.73-7.05,1.16
						c-0.19,0.04-0.43,0.39-0.42,0.56c-0.59,0.89-0.71,2.48,0.11,2.78c1.05,0.39,2.18-0.48,3.1-0.94c2.71-1.34,5.59-1.71,8.47-2.51
						C280.66,57.18,282.75,56.23,281.05,55.68z"/>
					<path class="st5" d="M327.95,19.2c-3.27,0.07-6.87,0.67-10.13,0.02c-0.02,0-0.03-0.01-0.04-0.01h-0.07
						c-0.1,0-0.24,0.11-0.35,0.25c-3.71,1.03-7.2,2.74-9.3,6.06c-0.64,1-1.19,2.04-1.83,3.04c-1.28,1.98-3.46,2.97-5.52,3.89
						c-1.65,0.74-3.29,1.54-4.55,2.87c-2.04,2.15-3.34,5.25-6.13,6.56c-2.19,1.03-4.73,1.1-6.95,2.12c-1.67,0.76-3.41,2.7-1.09,3.78
						c1.83,0.85,4.87,0.08,6.74-0.14c2.46-0.29,4.92-0.54,7.33-1.15c4.62-1.16,4.58-5.28,7.17-8.54c1.75-2.2,4.84-3.56,7.22-4.97
						c2.1-1.25,3.96-2.7,5.81-4.28c3.77-3.24,8.24-5.48,11.72-9.03C328.09,19.56,328.24,19.19,327.95,19.2z"/>
					<path class="st5" d="M226,104.36c-0.05-0.23-0.09-0.46-0.14-0.69c-0.01-0.15-0.14-0.2-0.27-0.15c-3.08,1.2-6.13,2.46-9.16,3.8
						c-2.22,1-4.39,2.23-5.82,4.26c-1.45,2.06-0.06,5.29,0.26,7.47c0.26,1.77,0.53,4.27,2.52,4.97c1.04,0.37,2.16,0.15,2.62-0.99
						c0.3-0.73,0.4-1.37,0.35-2.17c-0.09-1.76-1.71-4.47-0.26-5.81c0.94-0.87,2.62-1.55,3.72-2.23c0.86-0.53,1.76-1.15,2.47-1.87
						c1.75-1.79,2.53-3.9,3.01-6.25c0.03,0.05,0.06,0.1,0.09,0.17C225.52,105.21,226.08,104.63,226,104.36z"/>
					<path class="st5" d="M275.04,108.14c-1.84,0.55-3.05,1.73-3.89,3.44c-1.11,2.27-2.01,4.12-4.47,5.23
						c-1.25,0.57-2.64,0.87-3.96,1.23c-2.16,0.58-4.09,1.35-5.64,3c-0.54,0.58-0.97,1.45-1.16,2.21c-0.16,0.66-0.35,1.32-0.52,1.98
						c-0.6,2.36-2.31,2.58-4.14,2.71c-2.63,0.18-11.52-1.74-12.13,2.65c-0.32,2.33,0.91,4.52,1.85,6.58
						c1.41,3.06,2.31,6.32,3.83,9.32c-0.03,0.09-0.01,0.14,0.07,0.15c0.02,0.05,0.05,0.1,0.07,0.15c0.18,0.34,0.62-0.17,0.7-0.34
						c0.03-0.06,0.06-0.13,0.09-0.18c0.14-0.28,0.02-0.35-0.16-0.31c1.04-1.29,0.97-2.39,0.5-4.29c-0.47-1.89-1.41-3.51-1.67-5.48
						c-0.39-2.88,5.25-2.89,6.86-3.06c2.98-0.33,5.65-1.03,8.14-2.73c2.29-1.56,4.01-3.86,5.8-5.93c2.58-2.99,5.36-6.32,9.21-7.58
						c2.24-0.73,4.51-1.18,6.27-2.84C284.2,110.75,278.14,107.23,275.04,108.14z"/>
					<path class="st5" d="M311.32,79.88c-2.2-1.24-3.35,0.14-4,2.14c-1.32,4.09-5.01,7.07-7.42,10.59
						c-1.79,2.62-4.06,3.97-7.16,4.53c-1.92,0.35-3.79,0.54-5.58,1.4c-1.36,0.65-1.27,1.73-0.76,2.75
						c-0.11,0.15-0.17,0.33-0.06,0.43c0.2,0.19,0.41,0.34,0.63,0.48c0.11,0.17,0.24,0.33,0.37,0.48c0.05,0.07,0.19-0.06,0.22-0.15
						c2.08,0.94,4.52,0.01,6.37-1.41c1.7-1.31,3.3-2.74,5-4.06c1.8-1.39,3.85-2.38,5.69-3.71c1.83-1.32,3.15-3.09,5.12-4.3
						c1.31-0.8,2.57-1.68,3.63-2.78C315.64,83.91,313.68,81.22,311.32,79.88z"/>
					<path class="st5" d="M323.75,78.88c-0.28-0.13-0.88,0.03-1.13,0.11c-0.65,0.19-1.3,0.29-1.94,0.44
						c-1.24,0.31-2.24,0.7-3.35,1.24c0.02-0.05,0.02-0.1,0.06-0.13c0.13-0.1,0.29-0.55-0.01-0.42c-1.65,0.66-0.19,2.25,0.42,3.18
						c0.37,0.57,1.27,1.62,2.07,1.45c0.98-0.19,1.37-0.97,1.99-1.69C322.38,82.47,325.68,79.75,323.75,78.88z"/>
					<path class="st5" d="M383.15,19.16c-1.55,0.74-3.27,0.3-4.88,0.83c-1.98,0.65-3.92,1.6-5.76,2.57
						c-2.06,1.08-4.03,2.48-5.99,3.72c-1.14,0.72-2.28,1.33-2.98,2.49c-0.04,0.07-0.07,0.16-0.08,0.24
						c-1.44,1.53-2.21,3.48-3.91,4.94c-2.09,1.79-4.88,3.2-6.69,5.27c-1.44,1.64-1.88,3.95-2.43,5.98c-0.4,1.47-1.01,2.71-1.79,4
						c-0.47,0.77-0.13,1.65-0.51,2.46c-1.72-0.2-3.83-0.85-5.43-0.26c-1.7,0.63-3.35,1.52-4.89,2.47c-3.6,2.22-6.25,5.77-9.59,8.34
						c-2.08,1.6-4.24,3.11-6.42,4.57c-0.75,0.5-1.87,1.34-2.26,2.2c-0.3,0.7-0.53,1.65,0.19,2.25c1.55,1.28,3.29,0.55,3.98,2.57
						c-0.21,0.06-0.49,0.39-0.4,0.58c0.05,0.18,0.09,0.36,0.14,0.53c0,0.06,0.03,0.13,0.1,0.14c0.8,0.15,1.74-0.4,2.38-0.81
						c1.74-1.1,3.45-2.06,5.02-3.39c3.24-2.75,5.81-6.28,8.89-9.22c1.38-1.32,3-2.11,4.53-3.22c2.06-1.5,4.12-3.19,6.48-4.19
						c2.53-1.07,1.9-2.08,2.59-4.61c0.12-0.45,0.09-0.99,0.09-1.44c0.01-1.63,0.75-3.02,1.83-4.17c1.58-1.67,3.3-2.91,5.04-4.36
						c2.39-2.02,3.67-4.74,6.35-6.58c3.33-2.29,6.71-4.56,10.14-6.7c2.78-1.74,5.02-3.96,6.49-6.89
						C383.43,19.3,383.36,19.06,383.15,19.16z"/>
					<path class="st5" d="M289.96,50.63c-0.12-0.42-0.95-0.2-1.19-0.15c-0.87,0.18-1.84,0-2.56,0.52c-0.1-0.05-0.26,0.1-0.3,0.17
						c-0.87,1.37,3.11,1.8,3.79,0.44C289.85,51.3,290.05,50.98,289.96,50.63z"/>
					<path class="st5" d="M315.52,73.25c-0.67,0.01-1.63,0.4-1.91,1.05c-0.12,0.28-0.04,0.56,0.2,0.73
						c0.22,0.16,0.62-0.03,0.81-0.15l0.01-0.02c0.46-0.1,0.91-0.3,1.26-0.6C316.43,73.8,316.22,73.24,315.52,73.25z"/>
					<path class="st5" d="M367.43,39.72c-1.43-0.61-3.3,0.04-4.68,0.49c-1.97,0.64-4.57,1.53-4.69,3.92
						c-0.01,0.14,0.1,0.14,0.21,0.08c0.46,2.39,2.81,2.02,4.66,0.87c1.63-1.03,3.33-1.79,5.08-2.57c0.5-0.22,1.03-0.64,1.15-1.2
						C369.35,40.46,368,39.97,367.43,39.72z"/>
					<path class="st5" d="M363.33,89.01c-1.58,0.46-3.24,1.47-4.21,2.83c-2.15,3.02-1.76,7.03-4.6,9.62
						c-2.51,2.29-5.85,3.74-8.64,5.67c-2.77,1.92-5.28,4.17-7.88,6.32c-5.13,4.25-11.2,7.09-15.65,12.18
						c-2.24,2.56-3.33,5.18-2.22,8.22c-0.02-0.01-0.05-0.01-0.07-0.01c-0.33-0.04-0.81,0.7-0.47,0.74c0.3,0.04,0.6,0.07,0.89,0.09
						c0.03,0.06,0.05,0.13,0.08,0.18c0.06,0.11,0.24-0.04,0.27-0.17c4.3,0.2,7.11-1.69,9.8-5.3c1.9-2.55,3.5-5.22,5.85-7.4
						c2.67-2.47,6.43-3.72,9.65-5.35c6.04-3.06,11.62-6.47,16.01-11.7c2.14-2.55,4.05-5.27,6.27-7.75c1.49-1.68,5.01-3.91,5.52-6.22
						C374.74,87.33,364.94,88.54,363.33,89.01z"/>
					<path class="st5" d="M373.73,75.6c-2.39-0.59-5.22,0.14-7.56,0.73c-1.26,0.32-3.41,0.61-4.07,1.97
						c-0.26,0.53-0.4,1.03-0.21,1.62c0.27,0.86,0.7,1.65,0.85,2.55c0.24,1.4-1.21,2.17-2.08,2.81c-0.5,0.37-1.08,0.84-1.28,1.36
						c-0.02,0-0.04-0.01-0.06-0.02c-0.13-0.05-0.39,0.28-0.26,0.34c0.08,0.04,0.16,0.07,0.24,0.1c0.02,0.24,0.12,0.48,0.35,0.73
						c0.15,0.16,0.5-0.16,0.56-0.39c1.59,0.46,3.42,0.36,4.96-0.06c0.71-0.2,1.2-0.76,1.64-1.3c0.19-0.22,0.34-0.49,0.45-0.76
						c0.75-1.66,1.77-3.09,3.59-3.77C372.83,80.8,378.32,76.72,373.73,75.6z"/>
					<path class="st5" d="M376.66,83.17c-0.13,0-0.28,0.15-0.38,0.3c-0.29,0-0.59-0.05-0.87-0.07c-0.67-0.05-1.36,0.11-2.01,0.24
						c-0.74,0.13-1.74,0.15-2.29,0.77c-1.3,1.49,1.56,2.3,2.38,2.97c1.33,1.09,2.77-1.66,3.46-2.24
						C377.92,84.32,378.32,83.21,376.66,83.17z"/>
					<path class="st5" d="M390.43,70.58c-0.59-0.32-0.41-0.26-1.07-0.41c-0.22-0.02-0.44-0.03-0.65-0.05
						c-0.72,0.19-1.29,0.01-1.73-0.54c0.71-0.22,1.18-0.39,1.65-1c0.73-0.94,0-3.56-1.18-3.84c-1.44-0.35-2.54,0.22-3.97,0.41
						c-1.7,0.24-2.98,0.19-4.62,0.8c-0.2,0.07-0.7,0.73-0.24,0.73c0.04,0,0.08,0,0.13,0c0.02,0,0.04-0.01,0.06-0.02
						c-0.04,0.71-0.2,1.59,0.2,2.07c0.03,0.05,0.11,0.02,0.15,0.02c0.92-0.23,1.96,0.38,2.74,0.24c-0.56,0.1-1.16,0.09-1.73,0.17
						c-0.5,0.07-0.88,0.24-1.15,0.66c-0.05,0.07-0.13,0.24-0.07,0.33c0.42,0.62,0.99,0.57,1.72,0.63c0.45,0.04,0.97-0.09,1.4-0.16
						c0.23-0.02,0.46-0.04,0.68-0.07c0.64-0.18,0.69,0.09,0.18,0.83c-1.65,0.21-3.34-0.35-3.76,1.71c-0.43,2.14,0.25,4.74,2.77,4.46
						c1.57-0.18,3.17-1.2,4.61-1.81c1.11-0.46,2.15-0.83,3.12-1.54C390.39,73.7,391.63,71.23,390.43,70.58z"/>
					<path class="st5" d="M439.37,28.21c-1.04-0.48-2.07-1.01-3.08-1.55c0.17-0.15,0.34-0.48,0.07-0.46c-0.08,0-0.17,0-0.25,0.01
						c-0.06,0-0.14,0.05-0.2,0.12c-2.96,0.81-5.32,2.39-7.83,4.18c-2.65,1.89-5.3,3.82-7.61,6.14c-2.61,2.61-3.87,6.1-7.39,7.75
						c-2.48,1.15-5.06,1.49-7.17,3.35c-2.45,2.17-1.9,5.9-5.26,7.43c-2.57,1.16-5.39,1.12-7.87,2.64c-3.93,2.42-2.97,7.2,1.47,8.1
						c1.96,0.4,3.85-0.34,5.37-1.53c0.62-0.48,1-1.24,1.35-1.93c1.15-2.26,1.42-4.16,3.74-5.73c2.66-1.81,5.97-2.45,8.68-4.25
						c2.41-1.61,3.9-4.22,5.93-6.22c2.86-2.82,6.65-4.22,10.23-5.88c3.45-1.6,6.65-3.65,9.87-5.67c1.37-0.87,2.89-1.59,3.66-3.09
						C443.92,29.91,440.43,28.69,439.37,28.21z"/>
					<path class="st5" d="M471.98,62.72c-0.01-0.02-0.02-0.04-0.04-0.05c0.07-0.15,0.02-0.3-0.17-0.14
						c-2.03,1.73-3.82,3.52-5.45,5.65c-1.76,2.3-2.72,4.96-4.25,7.37c-1.92,3.03-5.7,4.25-8.76,5.73c-2.55,1.24-5.14,2.5-7.43,4.2
						c-4.7,3.48-6.98,8.7-10.88,12.93c-0.58,0.63-5.43,5.88-1.79,4.77c2.41-0.72,4.74-2.77,6.67-4.31c2.3-1.84,4.35-3.94,6.37-6.06
						c4.81-5.05,12.08-6.36,17.78-10.19c1.37-0.92,2.61-1.9,4.14-2.55c1.39-0.59,2.95-0.87,4.4-1.25c2.02-0.54,3.93-1.27,5.04-3.13
						C480.05,71.58,473.12,66.17,471.98,62.72z"/>
					<path class="st5" d="M431.55,97.14c-0.12-0.04-0.2-0.07-0.27-0.1c0.02-0.05,0.01-0.1-0.08-0.08c-0.03,0.01-0.07,0.02-0.1,0.03
						c-0.1-0.02-0.2-0.01-0.51-0.02c-0.1,0-0.22,0.11-0.3,0.23c-1.17,0.28-2.34,0.44-3.52,0.88c-1.44,0.54-3.12,0.21-4.51,0.9
						c-1.48,0.74-1.69,2.51-0.71,3.85c1.63,2.23,4.09-0.05,5.84-0.92c2.02-1.01,3.72-2.27,4.24-4.57
						C431.66,97.26,431.65,97.17,431.55,97.14z"/>
					<path class="st5" d="M426.06,106.31c-0.76-1.42-3.45-0.84-4.64-0.73c-1.35,0.12-3.14-0.25-4.22,0.6
						c-0.07-0.04-0.25,0.12-0.24,0.2c0,0.01,0,0.01,0,0.02c-0.1,0.11-0.21,0.22-0.29,0.37c-0.25,0.46,0.17,0.5,0.41,0.23
						c0.45,1.55,1.63,2.09-0.96,3.93c-0.98,0.7-1.77,1.55-2.58,2.43c-1.41,1.54-2.91,2.38-4.71,3.29c-0.39,0.19-0.88,0.67-0.96,1.13
						c-0.31,1.86,1.57,2.43,3.1,2.13c0.92-0.18,1.79-0.89,2.54-1.41c1.57-1.09,3.23-2.01,4.84-3.04c2.28-1.46,3.94-3.81,6.09-5.48
						C425.65,109.06,426.91,107.91,426.06,106.31z"/>
				</g>
				<g>
					<path class="st5" d="M217.32,57.91c-0.16,0.02-0.32,0.04-0.48,0.06c-8.2,7.88-15.81,16.34-24.4,23.81
						c-3.91,3.39-10.76,7.11-11.73,12.62c-0.36,2.09-0.5,4.21-0.66,6.33c0.81,0.53,1.74,0.91,2.74,1.09
						c0.23,0.04,0.48-0.21,0.56-0.41c0.1-0.29,0.11-0.53,0.06-0.77c0.05,0.13,0.1,0.25,0.15,0.38c0.03,0.08,0.17-0.06,0.16-0.13
						c-0.65-2.06-1.51-4.22-1.16-6.41c0.33-2.05,3.65-2.64,5.21-3.22c0.99-0.36,1.89-0.91,2.77-1.47c1.41-0.9,2.5-2.09,3.26-3.56
						c0.6-1.12,0.71-2.6,1.11-3.79c0.69-2.1,3.1-1.93,4.76-2.18c1.15-0.16,1.9-0.77,2.48-1.73c0.32-0.53,0.4-1.33,0.52-1.91
						c0.55-2.8,2.78-3.21,4.96-3.1c1.3,0.06,3.33,0.41,4.38-0.66c1.26-1.28,1.41-2.73,1.57-4.46c0.04-0.53,0.07-1.06,0.1-1.59
						c0.16-2.46,1.76-2.4,3.34-2.72c0.41-0.09,1.05-0.3,1.37-0.57c0.98-0.83,1.41-1.71,1.46-3
						C219.9,59.21,218.71,57.76,217.32,57.91z"/>
					<path class="st5" d="M265.51,22.28c-1.54,0.52-3.13,0.55-4.73,0.46c-13.99,10.18-27.98,20.44-40.7,32.17
						c0.48,0.36,1.08,0.48,1.8,0.17c0.55-0.24,0.68-0.29,1.21-0.59c2-1.1,3.46-0.81,5.2,0.39c0.89,0.61,1.81,0.3,2.61-0.18
						c1.96-1.16,1.62-3.41,1.24-5.4c0.05-0.09,0.08-0.19,0.06-0.26c-0.99-4.23,6.25-7.3,9.21-9.14c3.17-1.97,6.56-4.02,9.28-6.6
						c1.13-1.07,1.99-3.29,3.25-4.04c1.96-1.16,4.24-1.81,6.42-2.39c0.47-0.13,0.92-0.29,1.36-0.46c0.01,0,0.01,0,0.02,0
						c1.34-0.28,2.67-1.21,3.26-2.5c0.29-0.43,0.53-0.9,0.7-1.45C265.75,22.3,265.63,22.23,265.51,22.28z"/>
					<path class="st5" d="M270.28,65.64c-9.62,10.06-22.03,16.28-31.81,26.07c-1.62,1.63-3.21,3.33-4.8,5.04
						c0.58-0.25,1.09-0.46,1.46-0.59c0.96-0.32,2.6-0.48,3.18-1.52c0.33-0.61,0.33-0.59,0.47-1.28c0.38-1.9,1.83-2.49,3.26-3.39
						c1.86-1.18,3.9-2.12,5.85-3.12c2.08-1.06,4.36-1.47,6.31-2.74c1.13-0.74,2.77-1.48,3.35-2.82c0.23-0.52,0.21-1.66,0.3-2.1
						c0.19-0.98,2.48-3.59,3.34-4.36h0c1.9-1.4,3.75-2.91,5.92-3.88c1.96-0.87,3.96,0.11,5.96-0.37c1.29-0.31,3.92-1.31,3.86-3.06
						C276.85,65.09,271.94,65.58,270.28,65.64z"/>
					<path class="st5" d="M281.05,55.68c-0.66-0.21-1.38-0.2-2.12-0.1c-0.74,0.85-1.46,1.71-2.17,2.57
						c1.05-0.25,2.12-0.48,3.18-0.77C280.66,57.18,282.75,56.23,281.05,55.68z"/>
					<path class="st5" d="M327.95,19.2c-1.52,0.04-3.12,0.18-4.72,0.26c-7.11,4.87-13.67,10.36-20.33,15.82
						c-5.27,4.31-10.84,8.32-16.09,12.66c0.7-0.11,1.36-0.22,1.92-0.28c2.46-0.29,4.92-0.54,7.33-1.15
						c4.62-1.16,4.58-5.28,7.17-8.54c1.75-2.2,4.84-3.56,7.22-4.97c2.1-1.25,3.96-2.7,5.81-4.28c3.77-3.24,8.24-5.48,11.72-9.03
						C328.09,19.56,328.24,19.19,327.95,19.2z"/>
					<path class="st5" d="M222.8,107.34c-3.79,3.03-8.65,6.14-8.07,11.83c0.17,1.64,0.42,3.21,0.53,4.79
						c0.32-0.18,0.59-0.49,0.76-0.91c0.3-0.73,0.4-1.37,0.35-2.17c-0.09-1.76-1.71-4.47-0.26-5.81c0.94-0.87,2.62-1.55,3.72-2.23
						c0.86-0.53,1.76-1.15,2.47-1.87c1.59-1.63,2.38-3.52,2.87-5.63C224.38,106.02,223.6,106.7,222.8,107.34z"/>
					<path class="st5" d="M279.71,109.07c-4.04,3.41-7.98,6.92-11.97,10.47c-5.06,4.51-10.46,8.73-16.89,11.11
						c-1.23,0.46-2.53,0.82-3.74,1.35c-1.41,0.62-2.2,1.82-2.56,3.21c0.87-1.92,5.33-1.94,6.74-2.09c2.98-0.33,5.65-1.03,8.14-2.73
						c2.29-1.56,4.01-3.86,5.8-5.93c2.58-2.99,5.36-6.32,9.21-7.58c2.24-0.73,4.51-1.18,6.27-2.84
						C282.69,112.17,281.6,110.23,279.71,109.07z"/>
					<path class="st5" d="M310.97,84.73c-7.55,6.18-15.46,11.95-23.21,17.88c2.03,0.78,4.37-0.11,6.15-1.48
						c1.7-1.31,3.3-2.74,5-4.06c1.8-1.39,3.85-2.38,5.69-3.71c1.83-1.32,3.15-3.09,5.12-4.3c1.31-0.8,2.57-1.68,3.63-2.78
						c1.29-1.34,1.23-2.78,0.49-4.03C312.91,83.09,311.95,83.92,310.97,84.73z"/>
					<path class="st5" d="M286.33,101.72c0.08,0.07,0.17,0.13,0.24,0.19c2.08-1.6,4.18-3.2,6.26-4.79c-0.03,0-0.06,0.02-0.1,0.02
						c-1.92,0.35-3.79,0.54-5.58,1.4c-1.36,0.65-1.27,1.73-0.76,2.75C286.28,101.44,286.22,101.62,286.33,101.72z"/>
					<path class="st5" d="M383.15,19.16c-0.03,0.02-0.07,0.03-0.11,0.04c-5.77,4.49-11.46,9.06-17.03,13.78
						c-4.01,3.4-7.92,6.78-11.21,10.9c-2.38,2.98-4.61,6.12-7.17,8.95c-5.24,5.78-11.6,9.4-17.58,14.28
						c-2.32,1.89-4.51,3.93-6.66,6.01c0.12,0.18,0.23,0.39,0.32,0.66c-0.21,0.06-0.49,0.39-0.4,0.58c0.05,0.18,0.09,0.36,0.14,0.53
						c0,0.06,0.03,0.13,0.1,0.14c0.8,0.15,1.74-0.4,2.38-0.81c1.74-1.1,3.45-2.06,5.02-3.39c3.24-2.75,5.81-6.28,8.89-9.22
						c1.38-1.32,3-2.11,4.53-3.22c2.06-1.5,4.12-3.19,6.48-4.19c2.53-1.07,1.9-2.08,2.59-4.61c0.12-0.45,0.09-0.99,0.09-1.44
						c0.01-1.63,0.75-3.02,1.83-4.17c1.58-1.67,3.3-2.91,5.04-4.36c2.39-2.02,3.67-4.74,6.35-6.58c3.33-2.29,6.71-4.56,10.14-6.7
						c2.78-1.74,5.02-3.96,6.49-6.89C383.43,19.3,383.36,19.06,383.15,19.16z"/>
					<path class="st5" d="M367.56,88.47c-0.02,0.07-0.03,0.15-0.05,0.22c-5.62,21.27-34.64,26.24-41.84,45.11
						c1.85-0.87,3.44-2.35,4.96-4.4c1.9-2.55,3.5-5.22,5.85-7.4c2.67-2.47,6.43-3.72,9.65-5.35c6.04-3.06,11.62-6.47,16.01-11.7
						c2.14-2.55,4.05-5.27,6.27-7.75c1.49-1.68,5.01-3.91,5.52-6.22C374.44,88.69,370.76,88.31,367.56,88.47z"/>
					<path class="st5" d="M374.94,76.11c-3.16,1.69-6.03,3.92-6.8,7.61c0.66-0.96,1.51-1.74,2.72-2.19
						C372.6,80.89,377.08,77.62,374.94,76.11z"/>
					<path class="st5" d="M376.66,83.17c-0.13,0-0.28,0.15-0.38,0.3c-0.29,0-0.59-0.05-0.87-0.07c-0.67-0.05-1.36,0.11-2.01,0.24
						c-0.74,0.13-1.74,0.15-2.29,0.77c-1.3,1.49,1.56,2.3,2.38,2.97c1.33,1.09,2.77-1.66,3.46-2.24
						C377.92,84.32,378.32,83.21,376.66,83.17z"/>
					<path class="st5" d="M390.43,70.58c-0.59-0.32-0.41-0.26-1.07-0.41c-0.22-0.02-0.44-0.03-0.65-0.05
						c-0.57,0.15-1.05,0.06-1.44-0.26c-2.66,1.6-5.38,2.92-8.2,4.24c-0.07,1.86,0.74,3.7,2.88,3.46c1.57-0.18,3.17-1.2,4.61-1.81
						c1.11-0.46,2.15-0.83,3.12-1.54C390.39,73.7,391.63,71.23,390.43,70.58z"/>
					<path class="st5" d="M439.97,28.47c-9.98,6.67-20.07,13.18-28.94,21.37c-5.78,5.34-11.41,11.02-17.69,15.82
						c0.29,0.1,0.59,0.2,0.92,0.26c1.96,0.4,3.85-0.34,5.37-1.53c0.62-0.48,1-1.24,1.35-1.93c1.15-2.26,1.42-4.16,3.74-5.73
						c2.66-1.81,5.97-2.45,8.68-4.25c2.41-1.61,3.9-4.22,5.93-6.22c2.86-2.82,6.65-4.22,10.23-5.88c3.45-1.6,6.65-3.65,9.87-5.67
						c1.37-0.87,2.89-1.59,3.66-3.09C443.8,30.16,441.35,29.06,439.97,28.47z"/>
					<path class="st5" d="M451.33,86.54c-5.47,3.77-10.84,7.75-16.2,11.71c-0.05,0.05-0.09,0.1-0.13,0.15
						c-0.58,0.63-5.43,5.88-1.79,4.77c2.41-0.72,4.74-2.77,6.67-4.31c2.3-1.84,4.35-3.94,6.37-6.06
						c4.81-5.05,12.08-6.36,17.78-10.19c1.37-0.92,2.61-1.9,4.14-2.55c1.39-0.59,2.95-0.87,4.4-1.25c2.02-0.54,3.93-1.27,5.04-3.13
						c1.02-1.71,0.4-3.66-0.74-5.59C468.55,75.78,459.69,80.77,451.33,86.54z"/>
					<path class="st5" d="M425.18,105.58c-5.66,4.25-11.16,8.84-15.54,14.37c0.44,0.07,0.91,0.07,1.35-0.02
						c0.92-0.18,1.79-0.89,2.54-1.41c1.57-1.09,3.23-2.01,4.84-3.04c2.28-1.46,3.94-3.81,6.09-5.48c1.21-0.94,2.47-2.09,1.62-3.68
						C425.87,105.95,425.56,105.72,425.18,105.58z"/>
				</g>
			</g>
			<g>
				<path class="st5" d="M359.52,23.06c-14.54-1.91-29.7-1.9-44.35-1.96c-15.28-0.06-30.53-0.05-45.66,2.27
					c-7.28,1.12-14.28,1.16-21.62,0.98c-7.42-0.18-14.42,1.16-21.61,2.88c-7.81,1.87-15.65,3.76-23.27,6.3
					c-6.06,2.02-13,3.09-18.47,6.46c-0.31,0.19-0.55,0.94,0.02,0.66c3.06-1.51,6.67-1.86,9.97-2.69c3.26-0.82,6.44-1.95,9.64-2.95
					c7.32-2.29,15.19-3.32,22.75-4.54c14.05-2.27,28.02-0.2,42.08-2.36c13.92-2.13,28.04-2.05,42.09-2.03
					c15.55,0.04,31.52,1.35,47-0.34C358.89,25.64,360.86,23.24,359.52,23.06z"/>
				<path class="st5" d="M458.58,49.42c-2.32-7.24-9.31-10.46-15.74-13.82c-7.24-3.79-14.91-5.91-22.86-7.8
					c-8.22-1.95-16.41-2.3-24.79-3c-3.57-0.3-6.48-1.02-10.15-0.82c-3.62,0.19-8.38,0.98-11.77-0.26c-0.5-0.18-1.52,1.04-1.01,1.34
					c5.07,2.88,12.03,0.48,17.61,2.1c7.63,2.21,15.56,2.8,23.34,4.7c7.98,1.95,16.84,3.67,24.07,7.69c3.41,1.91,6.66,4.05,10,6.06
					c1.43,0.86,2.77,1.54,4.08,2.59c1.69,1.35,2.16,3.11,4.2,4.2C457,53.14,459.03,50.82,458.58,49.42z"/>
			</g>
		</g>
		<g>
			<g>
				<g>
					<path class="st14" d="M343.79,183.94c0,0,38.6-27.11,71.05-16.01c-6.9-7.89-35.03-10.02-63.06,7.08
						C342.43,181.31,341.58,184.77,343.79,183.94z"/>
					<path class="st15" d="M344.21,183.1c0,0,19.19-4.1,25.95,7.7C370.74,182.69,355.65,171.3,344.21,183.1z"/>
					<path class="st15" d="M346.38,179.7c0,0,7.41-12.89,6.03-23.44C357.67,160.73,353.56,176.22,346.38,179.7z"/>
					<path class="st15" d="M351.78,175.02c0,0,11.6-9.37,19.75-26.16C373.01,157.38,358.86,174.77,351.78,175.02z"/>
					<path class="st16" d="M358.42,174.32c0,0,14.53-2.14,19.31,10.17C378.84,175.38,370.73,165.2,358.42,174.32z"/>
					<path class="st15" d="M375.11,168.37c0,0,16.61-0.64,15.74,18.63C394.74,173.71,389.01,161.27,375.11,168.37z"/>
					<path class="st15" d="M368.24,167.81c0,0,6.72-6.8,10.06-17.71C381.14,155.81,373.02,167.86,368.24,167.81z"/>
					<path class="st15" d="M383.67,165.18c0,0,16.65,4.31,23.51,19.31C408.88,190.02,410.33,161.25,383.67,165.18z"/>
					<path class="st16" d="M378.77,164.68c0,0,10.02-7.84,11.51-20.77C394.14,148.59,387.26,164.03,378.77,164.68z"/>
					<path class="st15" d="M388.93,163.42c0,0,11.05-12.43,23.01-15.45c3.53-0.96-10.13-4.25-25.64,15.34
						C387.92,163.27,388.93,163.42,388.93,163.42z"/>
					<path class="st16" d="M391.92,163.25c0,0,11.92-6,21.3-6.55C406.25,152.94,395.83,157.28,391.92,163.25z"/>
				</g>
				<path class="st17" d="M363.44,173.26c0,0,11.55,0.22,14.31,9.66C377.77,176.49,370.75,172.41,363.44,173.26z"/>
				<path class="st17" d="M389.15,166.02c0,0,12.53,2.51,18.11,16.87C407.26,182.89,403.34,166.87,389.15,166.02z"/>
				<path class="st17" d="M378.21,151.59c0,0-1.18,7.02-8.3,15.14C374.11,163.88,377.29,156.9,378.21,151.59z"/>
			</g>
			<g>
				<g>
					<path class="st18" d="M413.75,199.19c0,0,13.85-37.26,52.43-29.54C444.28,159.62,415.47,172.65,413.75,199.19z"/>
					<path class="st19" d="M420.32,186.27c0,0,12.52-5.84,30.95-3.23C441.31,176.92,422.57,177.99,420.32,186.27z"/>
					<path class="st15" d="M417.09,191.89c0,0,12.81-4.39,23.98,9.91C436,186.42,419.19,182.89,417.09,191.89z"/>
					<path class="st16" d="M430.29,175.99c0,0,13.72-2.1,29.32,4.01C455.01,173.63,435.22,169.12,430.29,175.99z"/>
					<path class="st15" d="M428,178.1c0,0,19.38-21.06,29.7-23.22C445.17,155.07,426.73,171.44,428,178.1z"/>
					<path class="st16" d="M423.71,178.82c0,0,3.61-14.57,14.81-23.16c-12.78,4.91-19.6,16.22-20.36,30.37
						C421.38,181.09,423.71,178.82,423.71,178.82z"/>
					<path class="st20" d="M415.06,193.73c0,0-1.29-16.07-6.76-26.77c8.45,1.6,9.44,20.66,9.44,20.66L415.06,193.73z"/>
				</g>
				<path class="st17" d="M420.18,180.51c0,0,3.57-14.75,14.34-22.36C428.78,159.13,420.14,172.92,420.18,180.51z"/>
				<path class="st17" d="M433.67,174.76c0,0,10.78-1.43,23.06,3.44C451.98,174.52,439.33,172.5,433.67,174.76z"/>
			</g>
			<g>
				<path class="st21" d="M338.07,167.67c0.23-0.31,0.39-0.67,0.5-1.01c0.14-0.45,0.19-1.47-0.52-1.42
					c-0.09,0.01-0.19,0.03-0.27,0.06c-0.26-0.07-0.54,0.09-0.77,0.3c-0.48,0.43-0.78,1.1-0.87,1.72c-0.09,0.57,0.22,1.19,0.87,1.07
					c0.34-0.06,0.63-0.25,0.86-0.49c0.03-0.03,0.05-0.06,0.08-0.09c0.02-0.03,0.05-0.05,0.07-0.07
					C338.03,167.73,338.05,167.7,338.07,167.67z"/>
				<path class="st21" d="M310.3,185.36c-0.14,0.07-0.26,0.17-0.36,0.29c-0.1,0.09-0.18,0.21-0.21,0.35
					c0.01-0.07-0.04,0.09-0.05,0.12c-0.14,0.29-0.32,0.65-0.06,0.93c0.15,0.16,0.34,0.13,0.52,0.03c0.01,0.05,0.05,0.09,0.12,0.07
					c0.54-0.11,0.81-0.64,0.84-1.14C311.1,185.5,310.8,185.11,310.3,185.36z"/>
				<path class="st21" d="M397.67,188.58c-0.27-0.22-0.71-0.09-1.01,0.05c-0.53,0.24-0.92,0.58-0.95,1.2
					c-0.01,0.35,0.2,0.82,0.59,0.87c0.28,0.04,0.51-0.07,0.76-0.18c0.43-0.19,1.08-0.42,1.21-0.95c0.06-0.28,0.05-0.55-0.08-0.81
					C398.09,188.58,397.83,188.36,397.67,188.58z"/>
				<path class="st21" d="M417.14,162.7c-0.22-0.3-0.61-0.7-1.02-0.66c-0.8,0.08-1.01,1.37-0.83,1.99c0.18,0.6,0.77,1.29,1.39,0.7
					c0.04-0.03,0.07-0.07,0.1-0.11c0.26-0.07,0.49-0.42,0.55-0.63C417.46,163.56,417.42,163.08,417.14,162.7z"/>
				<g>
					<path class="st21" d="M425.32,149.85C425.32,149.85,425.32,149.85,425.32,149.85C425.3,149.9,425.3,149.89,425.32,149.85z"/>
					<path class="st21" d="M427.1,149c-0.03-0.02-0.07-0.04-0.11-0.07c-0.19-0.09-0.41-0.06-0.61-0.01
						c-0.21,0.05-0.38,0.17-0.56,0.3c-0.13,0.1-0.25,0.24-0.35,0.39c-0.01,0.02-0.11,0.18-0.15,0.24c-0.22,0.41-0.35,0.87-0.19,1.31
						c0.12,0.34,0.48,0.48,0.81,0.41c0.52-0.1,0.92-0.43,1.18-0.88C427.35,150.32,427.93,149.03,427.1,149z"/>
				</g>
				<path class="st21" d="M334.52,196.94c-0.6-0.57-1.24-0.5-1.74-0.14c-0.69,0.31-1.25,1.19-1.23,1.87c0.02,0.52,0.28,1,0.72,1.27
					c0.52,0.32,1.02,0.16,1.47-0.17C334.54,199.19,335.4,197.79,334.52,196.94z"/>
				<path class="st21" d="M456.14,184.51c-0.52-0.21-0.95,0.2-1,0.71c0,0.04,0.01,0.07,0.01,0.11c-0.17,0.53,0.07,1.26,0.34,1.67
					c0.33,0.49,0.86,0.8,1.41,0.49c0.57-0.32,0.44-1.25,0.29-1.75C457.03,185.22,456.66,184.72,456.14,184.51z"/>
				<path class="st21" d="M423.98,195.46c-0.61-0.17-1.21,0.43-1.52,0.87c0.12-0.17-0.07,0.08-0.11,0.14
					c-0.06,0.09-0.11,0.18-0.15,0.28c-0.1,0.18-0.15,0.41-0.16,0.62c-0.02,0.35,0.14,0.66,0.47,0.81c0.29,0.13,0.68-0.11,0.9-0.28
					c0.17-0.14,0.33-0.3,0.45-0.49C424.55,196.95,424.87,195.72,423.98,195.46z"/>
				<path class="st21" d="M450.47,161.61c-0.26-0.12-0.59,0.1-0.78,0.25c-0.27,0.2-0.5,0.58-0.52,0.93c-0.07,0.2-0.11,0.4-0.07,0.6
					c0.05,0.23,0.17,0.42,0.38,0.52c0.21,0.11,0.48,0.22,0.71,0.12C451.09,163.68,451.47,162.09,450.47,161.61z"/>
				<path class="st21" d="M463.68,165.66c-0.06-0.17-0.18-0.28-0.33-0.33c-0.08-0.31-0.25-0.6-0.57-0.69
					c-0.61-0.19-1.27,0.44-1.52,0.92c-0.51,1.02,0.55,2.44,1.67,1.86C463.55,167.08,463.9,166.34,463.68,165.66z"/>
				<path class="st22" d="M423.46,195.75c-0.32,0-0.78,0.76-0.33,0.76C423.44,196.51,423.9,195.75,423.46,195.75z"/>
				<path class="st22" d="M337.92,165.65h-0.33c-0.26,0-0.6,0.44-0.61,0.71c-0.13,0.17-0.19,0.37,0,0.46c0.22,0.1,0.43,0,0.62-0.14
					c0.07-0.06,0.15-0.13,0.21-0.2c0.04-0.06,0.08-0.11,0.12-0.16c-0.04,0.04-0.03,0.04,0.02-0.01
					C338.1,166.15,338.31,165.65,337.92,165.65z"/>
				<path class="st21" d="M380.66,159.31c0.23-0.3,0.4-0.67,0.5-1c0.14-0.46,0.19-1.47-0.52-1.43c-0.09,0-0.18,0.03-0.27,0.06
					c-0.25-0.07-0.53,0.09-0.77,0.3c-0.48,0.43-0.78,1.09-0.87,1.72c-0.09,0.57,0.22,1.19,0.87,1.07c0.34-0.06,0.63-0.25,0.87-0.49
					c0.03-0.02,0.05-0.06,0.08-0.09c0.02-0.03,0.05-0.05,0.07-0.07C380.63,159.36,380.65,159.33,380.66,159.31z"/>
				<path class="st22" d="M380.52,157.28h-0.33c-0.26,0-0.6,0.43-0.61,0.7c-0.13,0.17-0.19,0.37,0.01,0.46
					c0.22,0.1,0.43,0,0.62-0.14c0.07-0.06,0.15-0.13,0.21-0.2c0.04-0.06,0.07-0.1,0.12-0.16c-0.04,0.05-0.03,0.05,0.02-0.01
					C380.69,157.78,380.9,157.28,380.52,157.28z"/>
				<path class="st21" d="M356.04,197.82c0.23-0.31,0.4-0.66,0.5-1c0.14-0.46,0.2-1.47-0.52-1.42c-0.1,0-0.19,0.03-0.28,0.06
					c-0.26-0.07-0.54,0.09-0.77,0.3c-0.48,0.43-0.77,1.09-0.87,1.72c-0.09,0.57,0.22,1.19,0.88,1.07c0.34-0.06,0.62-0.24,0.86-0.49
					c0.03-0.02,0.06-0.06,0.08-0.09c0.02-0.02,0.05-0.05,0.06-0.07C356,197.88,356.02,197.85,356.04,197.82z"/>
				<path class="st22" d="M355.89,195.8h-0.32c-0.26,0-0.6,0.44-0.62,0.7c-0.13,0.17-0.19,0.37,0.01,0.47
					c0.23,0.11,0.44,0,0.62-0.13c0.08-0.06,0.15-0.13,0.21-0.2c0.04-0.06,0.08-0.11,0.12-0.16c-0.03,0.04-0.03,0.04,0.02-0.01
					C356.07,196.29,356.28,195.8,355.89,195.8z"/>
				<path class="st22" d="M426.6,149.32c-0.41,0-1.02,1-0.43,1C426.57,150.32,427.19,149.32,426.6,149.32z"/>
				<path class="st22" d="M333.09,198.19c0.12-0.13,0.22-0.28,0.24-0.44c0.05-0.19,0.04-0.37-0.15-0.48
					c-0.02-0.02-0.05-0.03-0.07-0.03c-0.01-0.01-0.02-0.02-0.04-0.04c-0.34-0.26-0.97,0.5-0.72,0.81c0.01,0.02,0.02,0.04,0.04,0.05
					c-0.01,0.04-0.02,0.06-0.02,0.09c0.02,0.13,0.02,0.14,0.02,0.06c-0.01,0.15,0.07,0.21,0.18,0.21c0.02,0,0.03,0,0.05,0
					c0.02,0,0.04,0,0.05,0c0.03-0.01,0.07-0.01,0.1-0.02c0.05-0.01,0.08-0.03,0.11-0.05c0.06-0.03,0.11-0.07,0.17-0.13
					C333.07,198.22,333.08,198.2,333.09,198.19z"/>
				<path class="st22" d="M462.85,165.15c0-0.01,0.01-0.02,0.01-0.04c-0.11-0.29-0.52,0.1-0.59,0.22c-0.06,0.1-0.12,0.24-0.07,0.35
					c0.05,0.14,0.25,0.1,0.35,0.03c0.02-0.03,0.05-0.05,0.08-0.08C462.79,165.56,463.08,165.19,462.85,165.15z"/>
			</g>
		</g>
	</g>
</g>
</svg>
