<?xml version="1.0" encoding="utf-8"?>
<!-- Generator: Adobe Illustrator 25.4.1, SVG Export Plug-In . SVG Version: 6.00 Build 0)  -->
<svg version="1.1" id="Layer_1" xmlns="http://www.w3.org/2000/svg" xmlns:xlink="http://www.w3.org/1999/xlink" x="0px" y="0px"
	 viewBox="0 0 208.33 235.83" style="enable-background:new 0 0 208.33 235.83;" xml:space="preserve">
<style type="text/css">
	.st0{fill:#ED4C49;}
	.st1{fill:#55B748;}
	.st2{fill:#EBCF49;}
</style>
<g>
	<g>
		<path class="st0" d="M190.82,57.78c-11.58-21.81-41.63-41.64-66.53-31.56C106.8,33.31,92.21,47.13,76.5,57.84
			C63.68,56,46.3,64.39,38.27,72.16c-17.09,16.51-22.32,42.72-15.91,65.35c13.24,46.7,58.3,76.37,101.24,92.11
			c14.92,5.47,39.42,9.09,55.38,3.15c27.74-10.32,27.7-34.92,28.64-55.09C209.4,139.34,209.21,92.4,190.82,57.78z"/>
		<path class="st1" d="M78.25,31.56c-6.47-6.43-10.88-20.18-14.78-28.72c-8.1,2.42-22.72,9.36-28.66,15.86
			c11.64,7.41,24.1,16.8,32.6,27.61C44.36,42.06,17.17,59.3,0,73.31c12.05-0.19,24.06,0.16,36.03-0.85
			c9.83-0.83,28.56-2.54,36.3-8.59l-4.52,1.51c12.47-4.7,24.61-13.03,34.25-22.83c5.81-5.9,11.8-12.64,16.12-19.63
			c4.18-6.77,4.08-18.02,10.35-22.91C107.02-0.36,84.99,10.66,78.25,31.56z"/>
		<g>
			<path class="st2" d="M40.41,98.82c0.26,7.87,2.22,16.16,4.31,23.76c0.72,2.62,3.81,8.07,5.71,2.89c0.75-2.04-2.5-2.91-3.24-0.89
				c1.64,0.28,2.08-0.12,1.3-1.18c-0.33-0.87-0.55-1.77-0.8-2.66c-0.55-1.99-0.97-4.02-1.39-6.04c-1.09-5.23-2.36-10.53-2.54-15.88
				C43.7,96.65,40.34,96.65,40.41,98.82L40.41,98.82z"/>
		</g>
		<g>
			<path class="st2" d="M62.75,92.2c2.36,1.55,4.02,4.68,5.51,6.99c0.86,1.33,1.66,2.69,2.43,4.07c0.25,0.45,0.49,0.91,0.72,1.37
				c0.16,0.31,0.18,0.87,0.23,0.39c0.28-0.48,0.55-0.97,0.83-1.45c0.57,0.03,1.15,0.06,1.72,0.09c-1.59-1.47-3.97,0.9-2.38,2.38
				c1.24,1.14,2.99,0.7,3.19-1.08c0.15-1.31-1.28-3.16-1.87-4.21c-2.19-3.87-4.87-8.94-8.69-11.46
				C62.63,88.1,60.95,91.02,62.75,92.2L62.75,92.2z"/>
		</g>
		<g>
			<path class="st2" d="M98.02,80.52c2.85,2.76,6.36,4.94,9.75,6.98c1.86,1.12,3.55-1.79,1.7-2.9c-3.14-1.89-6.42-3.89-9.07-6.46
				C98.84,76.63,96.46,79.01,98.02,80.52L98.02,80.52z"/>
		</g>
		<g>
			<path class="st2" d="M123.22,65.33c5,2.9,9.77,6.11,15.18,8.23c2.02,0.79,2.89-2.46,0.89-3.24c-5.12-2.01-9.65-5.15-14.38-7.89
				C123.04,61.34,121.35,64.24,123.22,65.33L123.22,65.33z"/>
		</g>
		<g>
			<path class="st2" d="M154.31,43.38c2.17,0,2.17-3.36,0-3.36S152.14,43.38,154.31,43.38L154.31,43.38z"/>
		</g>
		<g>
			<path class="st2" d="M153.46,43.15c3.65,2.27,6.36,5.98,10.08,8.06c1.89,1.06,3.58-1.84,1.7-2.9c-1.53-0.86-2.83-2.3-4.14-3.44
				c-1.89-1.64-3.81-3.3-5.93-4.62C153.31,39.1,151.62,42.01,153.46,43.15L153.46,43.15z"/>
		</g>
		<g>
			<path class="st2" d="M39.8,149.66c1.63,4.77,3.68,10.42,7.15,14.18c1.47,1.59,3.84-0.79,2.38-2.38c-3.05-3.3-4.86-8.52-6.29-12.7
				C42.34,146.73,39.1,147.6,39.8,149.66L39.8,149.66z"/>
		</g>
		<g>
			<path class="st2" d="M68.86,139.98c1.76,3.39,4.32,6.37,6.98,9.08c1.52,1.54,3.9-0.83,2.38-2.38c-2.48-2.51-4.82-5.24-6.46-8.39
				C70.77,136.36,67.87,138.06,68.86,139.98L68.86,139.98z"/>
		</g>
		<g>
			<path class="st2" d="M104.74,122.85c3.09,3.12,6.35,7.39,10.82,8.5c2.1,0.52,3-2.72,0.89-3.24c-3.8-0.94-6.71-4.97-9.34-7.63
				C105.59,118.93,103.21,121.31,104.74,122.85L104.74,122.85z"/>
		</g>
		<g>
			<path class="st2" d="M136.06,108.4c2.26,3.03,4.35,6.35,6.98,9.08c1.51,1.56,3.88-0.82,2.38-2.38c-2.43-2.52-4.36-5.59-6.46-8.39
				C137.68,104.99,134.76,106.66,136.06,108.4L136.06,108.4z"/>
		</g>
		<g>
			<path class="st2" d="M162.93,96.98c1.52,2.25,3.43,4.32,4.7,6.72c1.01,1.92,3.91,0.22,2.9-1.7c-1.27-2.4-3.19-4.47-4.7-6.72
				C164.63,93.5,161.72,95.17,162.93,96.98L162.93,96.98z"/>
		</g>
		<g>
			<path class="st2" d="M184.27,85.15c1.44,3.49,3.81,7.12,3.97,10.98c0.09,2.16,3.45,2.17,3.36,0c-0.18-4.26-2.51-8.02-4.09-11.87
				C186.69,82.28,183.44,83.15,184.27,85.15L184.27,85.15z"/>
		</g>
		<g>
			<path class="st2" d="M77.19,186.01c3.45,4.15,8.2,7.48,13.11,9.67c1.96,0.88,3.67-2.02,1.7-2.9c-4.69-2.1-9.13-5.18-12.43-9.14
				C78.18,181.97,75.82,184.36,77.19,186.01L77.19,186.01z"/>
		</g>
		<g>
			<path class="st2" d="M109.11,174.85c2.87,2.17,5.72,4.94,9.14,6.22c2.03,0.76,2.9-2.49,0.89-3.24c-3.06-1.14-5.76-3.94-8.33-5.88
				C109.08,170.64,107.41,173.56,109.11,174.85L109.11,174.85z"/>
		</g>
		<g>
			<path class="st2" d="M140.76,157.45c2.25,3.68,4.96,7.05,7.65,10.42c1.35,1.69,3.71-0.7,2.38-2.38c-2.52-3.15-5.02-6.3-7.13-9.74
				C142.53,153.91,139.63,155.6,140.76,157.45L140.76,157.45z"/>
		</g>
		<g>
			<path class="st2" d="M171.78,143.5c2.17,0,2.17-3.36,0-3.36C169.61,140.14,169.61,143.5,171.78,143.5L171.78,143.5z"/>
		</g>
		<g>
			<path class="st2" d="M170.33,142.67c2.51,3.28,3.82,6.99,4.53,11.02c0.38,2.13,3.62,1.22,3.24-0.89
				c-0.76-4.29-2.21-8.34-4.87-11.82C171.93,139.28,169.01,140.95,170.33,142.67L170.33,142.67z"/>
		</g>
		<g>
			<path class="st2" d="M195.02,130.84c1.23,3.35,1.31,7.04,0.67,10.53c-0.39,2.12,2.85,3.02,3.24,0.89
				c0.75-4.06,0.77-8.4-0.67-12.32C197.52,127.93,194.27,128.81,195.02,130.84L195.02,130.84z"/>
		</g>
		<g>
			<path class="st2" d="M119.86,215.84c4.43,2.58,9.78,4.77,14.96,4.93c2.17,0.07,2.16-3.29,0-3.36c-4.58-0.14-9.35-2.2-13.26-4.47
				C119.68,211.85,117.99,214.75,119.86,215.84L119.86,215.84z"/>
		</g>
		<g>
			<path class="st2" d="M142.37,200.12c3.01,3.56,7.63,6.14,12.16,7.15c2.11,0.47,3.01-2.77,0.89-3.24
				c-4.03-0.89-8.01-3.13-10.68-6.29C143.34,196.09,140.98,198.48,142.37,200.12L142.37,200.12z"/>
		</g>
		<g>
			<path class="st2" d="M167.64,189.7c1.79,2.48,2.71,5.34,4.03,8.06c0.95,1.95,3.84,0.24,2.9-1.7c-1.32-2.73-2.25-5.58-4.03-8.06
				C169.29,186.27,166.37,187.94,167.64,189.7L167.64,189.7z"/>
		</g>
		<g>
			<path class="st2" d="M197.03,173.85c0.72,2.99,1.2,6.13,0.67,9.19c-0.37,2.12,2.87,3.03,3.24,0.89c0.64-3.68,0.2-7.36-0.67-10.97
				C199.76,170.85,196.52,171.74,197.03,173.85L197.03,173.85z"/>
		</g>
		<g>
			<path class="st2" d="M160.58,224.74c4.31,1.7,9.19,3.34,13.89,2.75c2.12-0.27,2.15-3.63,0-3.36c-4.42,0.56-8.93-1.03-12.99-2.63
				C159.45,220.71,158.59,223.96,160.58,224.74L160.58,224.74z"/>
		</g>
		<g>
			<path class="st2" d="M173.28,216.25c1.85,1.82,4.52,4.32,7.24,4.52c2.16,0.16,2.15-3.2,0-3.36c-0.45-0.03-1.72-0.96-2.32-1.38
				c-0.9-0.64-1.75-1.38-2.54-2.16C174.11,212.35,171.73,214.73,173.28,216.25L173.28,216.25z"/>
		</g>
		<g>
			<path class="st2" d="M193.28,204.64c2.17,0,2.17-3.36,0-3.36C191.11,201.29,191.11,204.64,193.28,204.64L193.28,204.64z"/>
		</g>
		<g>
			<path class="st2" d="M191.66,203.41c0.56,3,0.68,6.2,0,9.19c-0.48,2.11,2.76,3.01,3.24,0.89c0.82-3.61,0.67-7.35,0-10.97
				C194.5,200.39,191.27,201.29,191.66,203.41L191.66,203.41z"/>
		</g>
	</g>
</g>
</svg>
