<?xml version="1.0" encoding="utf-8"?>
<!-- Generator: Adobe Illustrator 25.4.1, SVG Export Plug-In . SVG Version: 6.00 Build 0)  -->
<svg version="1.1" id="Layer_1" xmlns="http://www.w3.org/2000/svg" xmlns:xlink="http://www.w3.org/1999/xlink" x="0px" y="0px"
	 viewBox="0 0 458.03 182.78" style="enable-background:new 0 0 458.03 182.78;" xml:space="preserve">
<style type="text/css">
	.st0{fill:#D9D5C7;}
	.st1{fill:#F5F2DC;}
	.st2{fill:#F58563;}
	.st3{fill:#E8E5D4;}
	.st4{fill:#F3735F;}
	.st5{fill:#363A30;}
	.st6{fill:#7BBA68;}
	.st7{fill:#FFF9F5;}
	.st8{fill:#71A65D;}
	.st9{fill:#FFF0E7;}
	.st10{fill:#F16140;}
	.st11{fill:#E55539;}
	.st12{fill:#FFFFFF;}
	.st13{fill:#F69578;}
	.st14{fill:#E26659;}
	.st15{opacity:0.32;fill:#FFFFFF;}
</style>
<g>
	<path class="st0" d="M436.39,176.84c2.7-0.08,5.46-0.18,7.96-1.21c4.25-1.76,7.05-6.02,8.22-10.47c1.16-4.45,0.92-9.13,0.66-13.72
		c-1.81-31.49-0.48-60.39-3.9-91.74c-0.42-3.84-0.89-11.07-2.38-14.63c-4.02-9.62-18.49-13.85-28.46-16.91
		c-12.72-3.91-25.91-6.06-39.11-7.76c-32.45-4.19-65.3-5.78-97.93-3.41c-9.51,0.69-19.89,2.14-26.34,9.16
		c-4.22,4.59-1.12,13.04-1.38,19.27c-0.35,8.55-2.91,14.87-0.56,23.1c5.23,18.31,11.1,37.68,25.39,50.27
		c7.9,6.95,17.74,11.23,26.5,17.06c7.79,5.19,14.71,11.67,20.45,19.06c2.87,3.7,5.45,7.62,7.7,11.72c1.81,3.3,3.05,7.61,5.83,10.26
		c5.35,5.1,16.59,2.5,23.12,2.29c11.53-0.36,23.06-0.73,34.59-1.09C409.96,177.68,423.17,177.26,436.39,176.84z"/>
	<path class="st1" d="M253.38,27.23c-1.88,1.01-2.79,7-2.92,9.14c-0.97,15.94-0.66,31.93-0.36,47.9c0.2,10.36,0.4,20.72,0.59,31.08
		c0.21,10.82,0.62,22.31,6.65,31.29c6.44,9.6,17.91,14.29,28.74,18.35c18.44,6.91,37.36,13.59,57.03,14.28
		c1.74,0.06,3.55,0.06,5.14-0.67c3.07-1.42,4.33-5.04,5.09-8.33c2.72-11.71,3.01-23.82,3.28-35.84c0.55-23.88,1.1-47.77,0.22-71.64
		c-0.22-5.95-0.73-12.42-4.72-16.84c-2.62-2.91-6.39-4.48-10.07-5.81c-15.67-5.69-32.16-8.68-48.66-10.68
		C285.24,28.47,263.25,21.94,253.38,27.23z"/>
	<path class="st2" d="M261.7,29.62c21.87-0.12,42.82,8.08,64.31,12.1c9.39,1.76,19.99,3.33,25.63,11.05
		c3.88,5.32,4.37,12.32,4.65,18.9c0.98,22.48,1.32,44.99,1.04,67.5c-0.13,10.01-0.41,20.18-3.49,29.71
		c10.5-2.16,21.27-2.5,31.98-2.84c21.05-0.66,42.1-1.33,63.15-1.99c1.3-0.04,2.69-0.12,3.71-0.92c0.97-0.76,1.38-2.01,1.71-3.2
		c2.37-8.62,2.68-17.65,2.98-26.58c1.03-30.67,2-61.92-6.37-91.44c-1.03-3.62-2.26-7.32-4.8-10.1
		c-4.97-5.43-40.88-15.92-66.73-19.05c-27.24-3.3-64.05-5.4-91.38-2.99c-9.92,0.87-22.36,3.92-30.59,9.52
		c-7.64,5.2-8.53,14.86-7.15,23.98c-0.31-3.8,0.47-7.35,2.06-10.32C254.58,28.89,257.57,29.65,261.7,29.62z"/>
	<g>
		<path class="st3" d="M330.41,162.57c-0.17,0.72,0.34,1.63,1.07,1.57c0.09-1.29,0.43-2.56,0.99-3.74
			c-0.23,0.16-0.46,0.32-0.69,0.49C331.19,161.33,330.58,161.85,330.41,162.57z"/>
		<path class="st3" d="M354.21,57.13c-1.99-1.53-5.24-2.31-6.76-0.31c0.19,1.56,1.95,2.3,3.22,3.22c1.28,0.92,1.98,3.26,0.5,3.79
			c-1.77,0.64-2.37-2.32-3.7-3.65c-1.73-1.73-4.65-0.41-6.67,0.98c1.14,0.84,2.58,1.15,3.87,1.73c1.3,0.57,2.58,1.6,2.72,3.01
			c0.14,1.41-1.61,2.82-2.72,1.95c-0.57-0.45-0.72-1.24-1.11-1.85c-1.31-2.06-5.09-0.82-5.37,1.61c-0.28,2.42,2.31,4.51,4.74,4.3
			c0.94-0.08,1.86-0.43,2.81-0.35c1.65,0.14,2.96,1.58,3.46,3.16c0.5,1.58,0.37,3.28,0.23,4.93c-0.13,1.49-0.3,3.09-1.26,4.24
			c-0.96,1.15-3.02,1.48-3.88,0.25c-0.84-1.2-0.03-2.85-0.23-4.3c-0.26-1.86-2.54-3.12-4.25-2.36c-1.84,0.82-2.4,3.17-2.39,5.19
			c0.01,2.02,0.32,4.18-0.65,5.95s-3.98,2.46-4.88,0.65c-0.6-1.2-0.01-2.93-1.04-3.79c-0.46-0.38-1.1-0.44-1.69-0.39
			c-2.37,0.19-4.53,1.97-5.18,4.26c-0.65,2.29,0.26,4.93,2.17,6.35c3.66-3.7,10.52-3.43,13.87,0.55c0.13-2.52,1.2-4.98,2.94-6.81
			c0.23,1.88,1.19,3.67,2.62,4.91c1.08,0.93,2.41,1.56,3.4,2.59c2.35,2.45,1.81,7.02-1.04,8.86c-0.72,0.46-1.69,0.75-2.39,0.26
			c-1.06-0.74-0.54-2.36-0.52-3.66c0.04-3.2-4.14-5.24-7.06-3.9c-2.91,1.34-4.29,4.87-4.07,8.07s1.7,6.15,3.16,9.01
			c-0.32-2.06,0-4.2,0.89-6.08c0.31-0.66,0.75-1.33,1.45-1.54c1.12-0.34,2.2,0.72,2.59,1.82c0.38,1.1,0.37,2.33,0.86,3.38
			c1.11,2.38,4.95,2.78,6.52,0.67c-1.12,0.19-2.25-0.9-2.11-2.03c0.14-1.12,1.51-1.9,2.55-1.45c0.83,0.36,1.26,1.26,1.58,2.11
			c1.71,4.57,1.91,9.67,0.59,14.36c0.21-1.31-1.45-2.43-2.88-2.64c-1.56-0.23-3.45-0.23-4.3-1.57c-0.76-1.2-0.19-2.8-0.6-4.16
			c-0.62-2.04-3.78-2.66-5.12-1.01c-1.44,1.77-0.89,5.14-3.06,5.87c-1.55,0.52-3.11-1.06-3.38-2.67c-0.27-1.61,0.27-3.24,0.43-4.87
			c0.16-1.63-0.25-3.55-1.71-4.28c-1.8-0.9-3.96,0.63-4.86,2.44c-2.46,4.96,1.21,11.36,6.42,13.23c2.5,0.9,5.86,0.68,7.09-1.66
			c0.31-0.59,0.49-1.31,1.07-1.64c0.92-0.52,2,0.35,2.61,1.21c2.19,3.09,3.04,7.09,2.3,10.81c1.58-0.98,3.73,0.72,3.84,2.57
			c0.11,1.85-1.11,3.51-2.41,4.84c-1.29,1.33-2.77,2.59-3.43,4.33c1.91-0.37,3.88-0.74,5.78-0.35c1.9,0.39,3.75,1.74,4.11,3.64
			c0.2,1.06-0.07,2.15-0.42,3.17c-1.28,3.73-3.72,7.06-6.89,9.4c-0.67,0.49-1.44,0.96-2.26,0.86c-2.06-0.25-2.04-3.33-1.04-5.16
			c1-1.82,2.39-4.07,1.17-5.75c-1.53-2.11-5.98-1.23-6.4-3.8c-0.2-1.19,0.77-2.21,1.47-3.2c2.13-2.99,2.04-7.39-0.21-10.29
			c-2.25-2.91-6.48-4.09-9.91-2.77c-1.22,0.47-2.41,1.33-2.73,2.59c-0.48,1.87,1.15,3.66,2.91,4.46c1.76,0.8,3.75,1.03,5.4,2.03
			c1.65,1,2.82,3.28,1.72,4.86c-1.57,2.25-6.52,1.71-6.3,4.45c1.75,0.11,3.49,0.22,5.24,0.34c0.5,0.03,1.03,0.08,1.43,0.37
			c1.45,1.08-0.36,3.15-1.75,4.3c-1.19,0.98-2.15,2.24-2.81,3.63c1.43-0.97,2.97-1.76,4.59-2.34c1.29,3.38-1.49,7.06-4.7,8.72
			c-2.6,1.35-5.96,1.87-8.35,0.17c-2.39-1.7-2.52-6.12,0.21-7.17c1.26-0.49,2.67-0.15,4.02-0.14c1.35,0.01,2.95-0.56,3.24-1.88
			c0.33-1.5-1.33-2.76-2.86-2.87c-1.53-0.12-3.04,0.44-4.57,0.43c-1.53-0.01-3.3-0.98-3.29-2.51c0.02-1.84,2.38-2.6,4.23-2.61
			c1.84-0.01,4.12-0.05,4.95-1.69c0.58-1.14,0.12-2.54-0.6-3.6c-1.06-1.57-2.97-2.83-4.79-2.31c-3.22,0.93-4.43,6.65-7.63,5.68
			c-1.43-0.43-2.08-2.11-2.16-3.6c-0.09-1.49,0.17-3.04-0.31-4.45c-1.06-3.11-5.58-3.97-8.21-2c-2.62,1.97-3.34,5.78-2.44,8.93
			c1.26-2,4.56-1.69,6.06,0.13c1.5,1.82,1.53,4.46,0.97,6.75c2.86-1.04,6.41,1.32,6.54,4.36c-0.55,0.25-1.1,0.51-1.65,0.76
			c2.02,1.05,2.88,3.86,1.8,5.86c-0.95,1.76-3.06,2.65-5.06,2.7c-2,0.05-3.95-0.59-5.85-1.23c2.8-2.76,2.48-7.29,1.96-11.19
			c-0.08-0.6-0.17-1.22-0.45-1.76c-1.03-1.91-4.57-1.17-4.76,0.98c1.7,0.51,2.92,2.29,2.8,4.06c-0.12,1.77-1.58,3.36-3.33,3.63
			c0.6-1.03-0.32-2.39-1.46-2.75c-1.14-0.36-2.36-0.05-3.54,0.14c-1.7,0.28-3.65,0.24-4.91-0.93c-1.27-1.18-1.07-3.79,0.61-4.18
			c0.59-0.14,1.21,0.02,1.81,0.05c2.69,0.13,4.99-2.51,5.03-5.21c0.04-2.69-1.74-5.17-4.04-6.58c-2.3-1.41-5.04-1.9-7.72-2.11
			c1.36-0.92,2.61-2,3.72-3.2c-2.2-1.49-4.8-2.38-7.44-2.58c-1.17-0.09-2.44,0-3.36,0.72c-1.6,1.25-1.35,3.91-0.02,5.45
			c1.33,1.54,3.36,2.24,5.3,2.86c2.09,0.67,4.36,1.46,5.49,3.34c1.13,1.88,0.05,5.03-2.14,4.9c-1.71-0.1-3.88-1.85-4.7-0.35
			c-0.62,1.14,0.87,2.7,0.11,3.75c-0.27,0.37-0.74,0.53-1.19,0.62c-2.38,0.48-4.98-0.29-6.71-2c0.75-1.55,2.47-2.31,3.85-3.33
			c1.39-1.01,2.59-2.86,1.76-4.36c-0.31-0.55-0.84-0.94-1.37-1.29c-3-2.03-6.27-3.67-9.68-4.89c-1.39-0.5-3.57-0.45-3.66,1.03
			c-0.07,1.16,1.33,1.75,2.42,2.13c1.77,0.63,3.48,1.68,4.41,3.31c0.93,1.63,0.87,3.91-0.5,5.19c-1.29,1.21-3.37,1.23-4.98,0.51
			c-1.62-0.72-2.88-2.03-4.1-3.31c-0.98-1.03-1.99-2.14-2.34-3.51c-0.38-1.49,0.06-3.05-0.05-4.58c-0.11-1.53-1.19-3.26-2.71-3.09
			c-0.25,0.03-0.5,0.12-0.65,0.32c-0.4,0.52,0.17,1.2,0.37,1.82c0.53,1.58-1.8,2.91-3.26,2.11c-1.46-0.8-1.94-2.68-1.93-4.35
			c0.02-1.67,0.38-3.36,0.01-4.99c-0.34-1.49-1.64-2.93-3.11-2.88c0.81,5.96,2.43,11.68,5.76,16.65
			c6.44,9.6,17.91,14.29,28.74,18.35c18.44,6.91,37.36,13.59,57.03,14.28c1.74,0.06,3.55,0.06,5.14-0.67
			c3.07-1.42,4.33-5.04,5.09-8.33c2.72-11.71,3.01-23.82,3.28-35.84c0.55-23.88,1.1-47.77,0.22-71.64
			c-0.03-0.77-0.06-1.55-0.11-2.33C356.49,59.22,355.46,58.09,354.21,57.13z"/>
	</g>
	<path class="st4" d="M456.83,144.33c-2.11,3.27-5.18,5.93-8.8,7.36c-3.37,1.34-7.04,1.67-10.65,1.96
		c-19.71,1.57-39.5,2.13-59.26,1.67c-3.47-0.08-7.31-0.35-9.75-2.83c-3-3.06-1.57-7.94-1.82-12.22
		c-1.14-19.81,2.24-42.86,0.87-63.52c-1.03-15.49-1.36-30.58-14.38-39.02c-7.37-4.79-16.38-6.15-25.08-7.4
		c-20.27-2.92-40.53-5.83-60.8-8.75c-4.12-0.59-8.58-1.11-12.44,0.11c-5.08,5.46-5.58,13.73-4.39,21.61
		c-0.31-3.8,0.47-7.35,2.06-10.32c2.17-4.06,5.16-3.3,9.3-3.32c21.87-0.12,42.82,8.08,64.31,12.1c9.39,1.76,19.99,3.33,25.63,11.05
		c3.88,5.32,4.37,12.32,4.65,18.9c0.98,22.48,1.32,44.99,1.04,67.5c-0.13,10.01-0.41,20.18-3.49,29.71
		c10.5-2.16,21.27-2.5,31.98-2.84c21.05-0.66,42.1-1.33,63.15-1.99c1.3-0.04,2.69-0.12,3.71-0.92c0.97-0.76,1.38-2.01,1.71-3.2
		C455.77,154.86,456.44,149.62,456.83,144.33z"/>
	<path class="st5" d="M269.74,61.1c-0.47,0.99-0.51,2.13-0.55,3.22c-0.55,18.01-1.1,36.03-1.66,54.04
		c-0.08,2.51-0.15,5.06,0.43,7.51c0.9,3.8,3.43,7.18,6.82,9.11c3.75,2.14,8.21,2.47,12.48,3.05c6.77,0.91,13.45,2.56,19.86,4.91
		c3.43,1.25,6.84,2.72,10.46,3.17c3.62,0.45,7.61-0.27,10.19-2.86c2.73-2.74,3.34-6.91,3.54-10.77c0.23-4.56,0.08-9.13-0.07-13.69
		c-0.44-13.51-0.89-27.01-1.33-40.52c-0.1-3.14-0.27-6.48-2.09-9.05c-1.98-2.79-5.54-4.04-8.95-4.28c-3.41-0.24-6.82,0.37-10.23,0.5
		c-8.05,0.31-15.88-2.01-23.37-4.73C281.44,59.33,272.3,55.72,269.74,61.1z"/>
	<path class="st6" d="M297,94.38c10.55,1.68,21.01,3.96,31.3,6.83c0.63-7.57,1.26-15.23,0.06-22.73c-0.34-2.14-0.85-4.3-2.04-6.11
		c-1.87-2.83-5.21-4.41-8.56-4.99c-3.35-0.58-6.77-0.31-10.17-0.22c-1.46,0.04-2.93,0.05-4.39-0.07c-1.17-0.09-3.59-1.11-4.61-0.86
		c-1.86,0.45-0.96,6.21-0.98,8.03C297.55,80.97,297.34,87.67,297,94.38z"/>
	<path class="st7" d="M276.33,61.25c-0.8-0.24-1.66-0.47-2.46-0.23c-1.73,0.52-2.11,2.77-2.17,4.57c-0.11,3.2-0.21,6.4-0.32,9.6
		c-0.26,8-0.53,16-0.79,24.01c-0.24,7.37-0.49,14.74-0.4,22.11c0.03,2.41,0.13,4.93,1.35,7c1.05,1.78,2.83,3.02,4.68,3.96
		c7.79,3.93,17.08,3.14,25.5,5.44c4.98,1.37,9.95,3.85,15.04,3.02c-1.97-1.25-3.6-3.04-4.67-5.11c-0.87-1.69-1.37-3.54-1.68-5.42
		c-1.67-10.1,2.07-20.59-0.02-30.61c-0.07-0.32-0.15-0.66-0.39-0.87c-0.22-0.19-0.52-0.25-0.8-0.3c-4.63-0.82-9.28-1.52-13.95-2.1
		c0.02,0,0.15-18.63,0.16-20.32c0.02-2.12,1.02-7.12-0.29-8.87c-1.27-1.71-5.8-2.1-7.74-2.66C283.7,63.4,280.01,62.33,276.33,61.25z
		"/>
	<path class="st8" d="M326.32,72.37c-0.74-1.12-1.71-2.04-2.82-2.78c1.8,2.28,2.7,5.26,3.19,8.17c0.8,4.69,0.76,9.51-0.1,14.19
		c-0.17,0.91-0.44,1.91-1.24,2.36c-0.68,0.39-1.53,0.24-2.3,0.07c-6.61-1.45-13.34-3.51-20.01-2.38c-1.37,0.23-2.75,0.6-4.13,0.39
		c-0.72-0.11-1.29-0.55-1.79-1.07c-0.05,1.02-0.09,2.05-0.14,3.07c10.55,1.68,21.01,3.96,31.3,6.83c0.63-7.57,1.26-15.23,0.06-22.73
		C328.02,76.34,327.52,74.17,326.32,72.37z"/>
	<path class="st9" d="M316.76,140.74c-1.97-1.25-3.6-3.04-4.67-5.11c-0.87-1.69-1.37-3.54-1.68-5.42
		c-1.67-10.1,2.07-20.59-0.02-30.61c-0.07-0.32-0.15-0.66-0.39-0.87c-0.22-0.19-0.52-0.25-0.8-0.3c-4.63-0.82-12.44-1.49-12.9-3
		c-1.23-5.59,0.46-3.59-0.89-19.42c-0.18-2.11,1.02-7.12-0.29-8.87c-1.27-1.71-5.8-2.1-7.74-2.66c-0.25-0.07-0.5-0.15-0.75-0.22
		c1.62,1.4,2.65,3.57,3.53,5.6c1.13,2.6,2.25,5.2,3.38,7.81c0.56,1.28,1.12,2.59,1.27,3.98c0.31,2.83-1.09,5.52-2.13,8.17
		c-1.04,2.65-1.69,5.85-0.07,8.19c1.9,2.74,5.88,2.92,8.62,4.82c2.87,1.99,4.08,5.7,4.19,9.19c0.11,3.63-0.83,7.35-3.02,10.25
		c-2.19,2.89-5.72,4.85-9.35,4.75c-3.38-0.09-6.72-1.88-10.01-1.08c-2.95,0.71-5.49,3.43-8.48,2.9c-1.86-0.33-3.29-1.93-3.96-3.7
		c-0.11-0.29-0.2-0.58-0.28-0.88c0.15,1.43,0.48,2.83,1.21,4.06c1.05,1.78,2.83,3.02,4.68,3.96c7.79,3.93,17.08,3.14,25.5,5.44
		C306.69,139.09,311.66,141.57,316.76,140.74z"/>
	<path class="st10" d="M328.81,124.22c-0.06-5.52-0.17-11.04-0.34-16.55c-0.03-0.95-0.06-1.92-0.37-2.83
		c-0.25-0.75-0.69-1.43-1.11-2.1c-0.39-0.62-0.79-1.24-1.18-1.85c-0.44-0.7-0.9-1.41-1.56-1.91c-0.78-0.6-1.81-0.85-2.78-0.69
		c-1.31,0.22-2.76,1.13-3.81,0.32c-0.27-0.21-0.47-0.52-0.75-0.72c-0.35-0.24-0.79-0.29-1.22-0.33c-0.9-0.09-1.79-0.17-2.69-0.26
		c-1.05-0.1-2.14-0.2-3.16,0.08c-1.02,0.28-1.98,1.03-2.21,2.06c-0.22,1.04,0.58,2.26,1.63,2.22c0.54-0.02,1.01-0.33,1.5-0.53
		c0.5-0.2,1.13-0.29,1.52,0.08c0.39,0.37-0.18,1.17-0.7,1.03c-0.55,2.69,1.33,0.55,0.88,2.39c-0.21,0.87-0.59,1.75-0.44,2.63
		c0.1,0.59,0.44,1.11,0.61,1.68c0.49,1.65-0.41,3.44-0.06,5.12c0.17,0.83,0.64,1.58,0.75,2.42c0.22,1.69-1.01,3.18-1.61,4.77
		c-0.59,1.54-0.58,3.3,0.01,4.83c0.48,1.24,1.33,2.38,1.39,3.7c0.04,0.8-0.22,1.58-0.29,2.37c-0.22,2.62,1.59,4.93,3.3,6.92
		c1.62,1.89,3.64,3.96,6.12,3.76c2.54-0.2,4.24-2.71,5.09-5.11C328.85,133.44,328.86,128.78,328.81,124.22z"/>
	<path class="st11" d="M327.34,137.73c1.51-4.3,1.52-8.97,1.47-13.52c-0.06-5.52-0.17-11.04-0.34-16.55
		c-0.03-0.95-0.06-1.92-0.37-2.83c-0.25-0.75-0.69-1.43-1.11-2.1c-0.39-0.62-0.79-1.24-1.18-1.85c-0.44-0.7-0.9-1.41-1.56-1.91
		c-0.78-0.6-1.81-0.85-2.78-0.69c-0.31,0.05-0.64,0.15-0.96,0.25c0.13,0.08,0.28,0.14,0.42,0.21c1.75,0.83,3.2,2.29,4.01,4.05
		c-0.4-0.07-0.8-0.14-1.21-0.21c0.92,1.54,1.38,3.36,1.3,5.16c-0.54,0.04-1.1,0.08-1.57,0.36c-0.46,0.28-0.79,0.86-0.6,1.37
		c0.29,0.75,1.41,0.79,1.84,1.47c0.24,0.37,0.21,0.85,0.18,1.3c-0.08,0.96-0.16,1.93-0.24,2.89c-0.85-0.05-1.7-0.1-2.55-0.16
		c-0.27-0.02-0.56-0.03-0.79,0.11c-0.71,0.43-0.12,1.52,0.52,2.07c0.64,0.54,1.3,1.56,0.64,2.07c-0.42,0.32-1.03,0.09-1.54,0.24
		c-0.64,0.2-0.9,1.08-0.57,1.65c0.34,0.58,1.13,0.79,1.76,0.57c0.26-0.09,0.51-0.26,0.78-0.32c0.65-0.14,1.3,0.33,1.63,0.91
		c0.64,1.14,0.29,2.73-0.78,3.49c-0.59,0.41-1.32,0.58-1.94,0.94c-0.62,0.37-1.14,1.1-0.9,1.77c-0.64-0.79-2.07-0.14-2.3,0.85
		c-0.23,0.99,0.32,1.98,0.92,2.8c-0.39-0.04-0.77-0.08-1.16-0.12c-0.15,1.36-1.28,2.59-2.65,2.7c-1.36,0.11-2.74-1.04-2.74-2.4
		c0-1.43,0.73-2.66-0.22-3.93c0.18,0.46,0.32,0.93,0.34,1.43c0.04,0.8-0.22,1.58-0.29,2.37c-0.22,2.62,1.59,4.93,3.3,6.92
		c1.62,1.89,3.64,3.96,6.12,3.76C324.79,142.65,326.5,140.14,327.34,137.73z"/>
	<path class="st12" d="M254.1,37.83c-0.71,1.6-0.55,3.45-0.23,5.17c0.33,1.74,0.86,3.53,2.11,4.78c1.25,1.26,3.39,1.77,4.82,0.73
		c1.25-0.91,1.56-2.79,0.89-4.19c-0.67-1.4-2.14-2.3-3.67-2.54c0.72-2.24,3.26-3.74,5.57-3.27c2.31,0.47,4.07,2.83,3.86,5.18
		c-0.22,2.47-2.2,5.25-0.55,7.1c0.78,0.87,2.07,1.04,3.24,1.08c2.59,0.08,5.79-0.68,6.44-3.19c0.35-1.32-0.16-2.69-0.41-4.04
		c-0.24-1.34-0.07-3,1.12-3.67c1.02-0.58,2.3-0.15,3.39,0.28c2.99,1.18,5.97,2.36,8.96,3.55c1.71,0.68,3.58,1.51,4.31,3.2
		c0.72,1.69-0.85,4.18-2.55,3.47c0.41-1.23-0.93-2.37-2.2-2.67c-1.26-0.3-2.68-0.23-3.73-1c-0.5-0.36-0.88-0.9-1.45-1.12
		c-0.9-0.34-1.91,0.25-2.51,1c-2.14,2.65-0.34,7.36,3.02,7.91c1.03,0.17,2.24,0.08,2.91,0.87c0.44,0.52,0.51,1.3,1.02,1.76
		c0.58,0.53,1.48,0.41,2.25,0.26c1.32-0.26,2.63-0.52,3.95-0.77c0.91-0.18,1.95-0.47,2.3-1.32c0.35-0.87-0.23-1.83-0.29-2.77
		c-0.11-1.59,1.62-3.01,3.16-2.6c0.66,0.18,1.22,0.61,1.84,0.88c2.38,1.03,5.45-0.89,5.74-3.48c0.28-2.58-2.08-5.07-4.68-5.1
		c-1.97-0.03-4.59,0.8-5.43-0.98c5.18-2.12,10.99,0.81,15.5,4.13c2.76,2.03,6.03,4.37,9.28,3.31c0.7-0.23,1.37-0.64,1.74-1.27
		c0.79-1.37-0.2-3.19-1.6-3.94c-1.4-0.74-3.05-0.75-4.62-0.91c-7.89-0.84-15.23-6.16-23.07-4.96c-0.7,0.11-1.47,0.32-1.8,0.94
		c-0.61,1.11,0.63,2.3,1.72,2.93c1.09,0.63,2.39,1.69,1.93,2.86c-0.42,1.08-2.1,1.07-2.93,0.25c-0.83-0.82-1.04-2.05-1.28-3.19
		c-0.23-1.14-0.6-2.37-1.59-3c-1.98-1.26-4.84,0.86-6.88-0.32c-1.08-0.62-1.51-1.95-2.36-2.85c-1.78-1.87-4.83-1.49-7.3-0.73
		c-1.42,0.44-2.97,1.1-3.56,2.47c-0.85,1.95,0.67,4.05,2.08,5.63c-0.3,0.88-1.69,0.84-2.28,0.13c-0.59-0.71-0.61-1.72-0.59-2.65
		c0.02-1.39,0.04-2.78,0.06-4.17c0.02-1.03-0.06-2.24-0.93-2.8c-1.81-1.15-3.68,2.02-5.82,1.9c0.9-1.47-0.11-3.71-1.81-4
		c-2.59-0.45-2.14,1.99-3.31,3.1C256.65,36.37,255,35.79,254.1,37.83z"/>
	<path class="st12" d="M254.98,61.13c0.41,0.32,0.95,0.47,1.3,0.86c0.87,0.95,0.12,2.72,1.03,3.64c0.43,0.43,1.09,0.51,1.61,0.82
		c1.62,0.96,1.09,3.63-0.44,4.73c-0.69,0.5-1.51,0.8-2.15,1.36c-0.89,0.79-1.32,1.98-1.53,3.15c-0.55,3.01,0.06,6.23,1.7,8.82
		c0.5,0.8,1.11,1.56,1.34,2.47c0.57,2.26-1.28,4.34-2.03,6.55c-0.68,1.99-0.41,4.29,0.72,6.07c0.21,0.33,0.49,0.67,0.88,0.72
		c0.38,0.04,0.71-0.21,0.98-0.48c2.73-2.67,2.37-7.14,1.34-10.82c-1.03-3.68-2.55-7.53-1.48-11.19c0.25-0.87,0.84-1.83,1.75-1.84
		c0.77,0.81,0.43,2.5,1.48,2.88c1.03,0.37,1.74-1.03,1.94-2.1c0.73-3.93,1.28-8.52-1.47-11.42c-0.4-0.42-0.87-0.8-1.07-1.35
		c-0.5-1.32,1.27-2.74,2.53-2.1c1.26,0.63,1.37,2.65,0.3,3.57c3.01-2.58,2.9-8.17-1.48-10.01
		C259.64,54.37,251.16,58.12,254.98,61.13z"/>
	<path class="st12" d="M262.05,104.89c-0.01,0.38-0.04,0.77-0.24,1.09c-0.3,0.49-0.91,0.67-1.47,0.77c-1.1,0.2-2.23,0.2-3.33,0.02
		c-0.46-0.08-0.99-0.16-1.32,0.16c-0.15,0.15-0.22,0.35-0.28,0.54c-0.71,2.25-0.65,4.74,0.17,6.95c0.34,0.92,0.81,1.79,1.08,2.73
		c0.45,1.6,0.3,3.34,0.88,4.89c0.57,1.56,2.38,2.91,3.84,2.12c1.47-0.8,1.33-3,0.54-4.47c-0.79-1.47-2.03-2.81-2.16-4.47
		c-0.11-1.43,0.73-2.9,2.02-3.52c-0.01,0.86,0.44,1.72,1.16,2.19c1.18-2.51,1.54-5.4,1.01-8.13c0.64,0.15,1.28-0.35,1.51-0.96
		c0.23-0.61,0.15-1.29,0.05-1.94c-0.27-1.7-0.64-3.39-1.13-5.04c0.2,0.7-1.83,2.22-2.48,2.3
		C261.95,101.71,262.11,103.29,262.05,104.89z"/>
	<path class="st12" d="M275.56,66.83c-2.14,1.24-1.65,4.39-1.04,6.78c2.16,8.39,2.28,17.29,0.37,25.74
		c-0.93,4.12-2.33,8.48-0.89,12.45c0.34,0.95,0.95,1.93,1.93,2.17c1.83,0.46,3.09-1.8,3.54-3.63c0.77-3.13,1.25-6.33,1.45-9.54
		c0.1-1.57,0.13-3.17,0.67-4.65c0.55-1.47,1.74-2.82,3.29-3.06c0.14,0.64,0.27,1.28,0.41,1.92c2.61-2.95,5.16-6.96,3.59-10.56
		c-1.08-2.47-4.01-4.66-3.03-7.17c0.23-0.58,0.65-1.06,0.89-1.64C288.38,71.79,278.68,65.02,275.56,66.83z"/>
	<path class="st13" d="M379.25,114.14c2.46,0.54,5.17,0.06,7.42,1.19c3.93,1.98,4.23,7.38,6.39,11.21
		c4.84,8.57,18.66,8.54,23.35,17.2c0.8,1.47,1.54,3.35,3.19,3.62c1.51,0.25,2.8-1.03,3.74-2.24c6.19-7.93,10.34-17.71,18.36-23.78
		c4.96-3.76,11.45-6.19,14.21-11.76c1.6-3.23,1.64-7.01,1.19-10.58c-2.13,1.18-3.14,3.72-5.05,5.23c-1.5,1.19-3.43,1.65-5.28,2.14
		c-10.23,2.67-20.05,6.9-29.03,12.48c-1.05,0.65-2.15,1.34-3.38,1.39c-1.07,0.05-2.09-0.39-3.05-0.84
		c-4.46-2.06-8.87-4.5-13.74-5.09c-3.3-0.4-6.71,0.08-9.92-0.8c-2.61-0.71-4.91-2.26-7.46-3.17c-3.54-1.27-7.46-1.26-10.92-2.72
		c-1.29-0.55-2.5-1.12-3.87-1.38c1.69,1.6,4.56,2.53,6.57,3.92C374.24,111.74,376.47,113.54,379.25,114.14z"/>
	<path class="st13" d="M375.39,67.42c5.63,0.4,11.64,0.95,16.02,4.5c1.87,1.51,3.39,3.54,5.6,4.5c1.62,0.7,3.45,0.74,5.17,1.16
		c5.69,1.4,9.45,6.67,12.68,11.57c8.3-9.01,18.8-15.61,28.67-22.87c4.79-3.52,9.87-8.01,10.02-13.95c-0.94,3.6-5.14,5.32-8.86,5.44
		c-3.72,0.12-7.48-0.81-11.13-0.12c-6.16,1.16-11.14,6.73-17.4,6.62c-2.18-0.04-4.28-0.78-6.38-1.38
		c-16.02-4.57-33.1-0.7-49.31,3.18c-0.11,0.03,2.23,0.89,2.48,0.93c0.72,0.11,2.36-0.24,3.17-0.24
		C369.17,66.74,372.33,67.2,375.39,67.42z"/>
	<path class="st13" d="M356.58,37.33c2.57-0.08,5.1,0.58,7.65,0.9c6.87,0.86,13.77-0.76,20.61-1.85c6.84-1.08,14.15-1.57,20.41,1.38
		c0.68,0.32,1.41,0.68,2.14,0.51c1.25-0.3,1.6-1.86,2.3-2.93c1.08-1.65,3.19-2.23,5.1-2.68c6.59-1.55,13.17-3.1,19.76-4.66
		c-3.42-1.12-6.9-2.05-10.42-2.77c-3.86-0.8-7.84-1.36-11.72-0.67c-2.69,0.47-5.24,1.53-7.9,2.14c-5.45,1.25-11.12,0.57-16.71,0.52
		c-11.97-0.11-23.95,2.73-34.59,8.22c-1.51,0.78-3.28,1.64-4.32,2.92C351.18,39.21,354.15,37.4,356.58,37.33z"/>
	<path class="st13" d="M290.33,21.44c15.07-1.69,30.13-3.38,45.2-5.07c7.7-0.86,15.66-1.71,23.07,0.55
		c2.36,0.72,4.66,1.75,7.12,1.99c2.13,0.2,4.26-0.2,6.35-0.61c5.62-1.08,11.24-2.17,16.85-3.25c-4.61-2.13-9.97-0.52-15.04-0.2
		c-11.77,0.75-23.17-5.71-34.92-4.72c-6.5,0.55-12.63,3.35-19.11,4.07c-4.51,0.5-9.07-0.02-13.6,0.21
		c-4.63,0.24-9.17,1.26-13.69,2.28c-2.91,0.65-5.86,1.33-8.45,2.8c-2.51,1.44-4.77,3.83-5.23,6.77c1.68-0.49,2.51-2.51,4.24-3.35
		C285.28,21.87,288,21.7,290.33,21.44z"/>
	<path class="st4" d="M366.05,18.66c13.24,3.11,27.32,6.71,36.48,16.76c6.74,7.4,9.9,17.47,10.9,27.42c1,9.96,0.02,19.99-0.48,29.99
		c-0.76,15.24-0.42,30.5-0.07,45.75c0.16,7.15,0.32,14.3,0.48,21.44c0.01,0.3,0.02,0.61,0.15,0.87c0.18,0.37,0.57,0.59,0.96,0.73
		c3,1.11,6.34-1.4,7.36-4.43c1.02-3.03,0.39-6.34-0.15-9.49c-4.96-28.66-2.43-58.07-4.77-87.06c-0.41-5.13-1-10.32-2.91-15.1
		c-3.22-8.05-9.99-14.25-17.49-18.62c-10.46-6.09-22.41-9.04-34.21-11.69c-6.87-1.55-13.75-3.02-20.63-4.49
		c-3.82-0.82-8.31-2.14-12.2-1.57c3.39,3.19,11.14,3.48,15.56,4.52C352.04,15.36,359.04,17.01,366.05,18.66z"/>
	<path class="st4" d="M382.48,111.66c3.55,1.04,7.1,2.08,10.56,3.39c4.38,1.66,8.59,3.76,12.56,6.25c0.97,0.61,1.95,1.27,2.58,2.22
		c0.66,1,0.88,2.23,1.42,3.3c0.61,1.19,1.59,2.13,2.42,3.18c3.03,3.87,3.73,9.01,4.32,13.89c1.13-6,2.76-11.9,4.86-17.63
		c0.37-1,0.76-2.03,1.45-2.85c0.76-0.91,1.81-1.51,2.84-2.09c7.51-4.23,15.01-8.46,22.52-12.69c1.4-0.79,2.82-1.59,4.02-2.66
		c3.37-2.99,4.66-7.62,5.72-12c-1.52,1.86-3.03,3.73-4.55,5.59c-1.3,1.6-2.63,3.23-4.34,4.39c-1.98,1.35-4.35,1.99-6.66,2.63
		c-6.24,1.74-12.43,3.66-18.56,5.77c-1.65,0.57-3.34,1.17-4.72,2.25c-2.48,1.94-3.63,5.18-3.89,8.33
		c-2.58-3.17-6.25-5.34-10.14-6.63c-2.23-0.74-4.54-1.21-6.85-1.68c-7.37-1.5-14.73-2.99-22.1-4.49c-1.87-0.38-3.81-0.79-5.31-1.98
		c-2.18-1.73-3.33-4.99-6.06-5.51c-1.09-0.21-4.48,0.91-4.07,2.57c0.2,0.82,4.32,1.27,5.08,1.49
		C371.22,108.34,376.85,110.02,382.48,111.66z"/>
	<path class="st4" d="M385.22,64.02c2.04,0.35,4.06,0.87,6.12,1.05c2.25,0.2,4.52-0.01,6.78-0.04c2.82-0.03,5.64,0.22,8.4,0.75
		c1.79,0.34,3.59,0.82,5.08,1.87c3.16,2.23,4.13,6.4,4.79,10.21c-0.02-3,0.09-6.33,2.2-8.46c0.71-0.71,1.6-1.23,2.48-1.71
		c6.96-3.83,14.47-6.64,22.23-8.34c2.2-0.48,4.45-0.88,6.44-1.93c1.99-1.05,3.71-2.9,3.95-5.13c-3.48,2.79-8.05,3.84-12.5,4.2
		c-4.45,0.37-8.94,0.14-13.36,0.75c-2.73,0.38-5.48,1.12-7.77,2.65c-2.3,1.53-4.11,3.95-4.42,6.7c-0.2-1.88-1.69-3.43-3.4-4.23
		c-1.71-0.8-3.64-0.99-5.52-1.17c-8.53-0.82-17.16-1.63-25.65-0.49c-6.3,0.85-12.83,2.74-18.86,0.71c-0.97-0.33-2.23-0.68-2.87,0.12
		c-0.2,0.26-0.29,0.58-0.36,0.9c-0.5,2.29-0.84,6.96,0.84,8.91c0.93,1.08,1.1-0.35,1.52-1.32c0.89-2.09,1.77-3.11,3.91-3.94
		c2.96-1.15,6.06-1.92,9.2-2.3C378.03,63.34,381.67,63.42,385.22,64.02z"/>
	<path class="st4" d="M354.06,35.02c2.35-1.25,5.03-1.66,7.65-2.14c6.57-1.2,13.09-2.96,19.76-3.24c8.5-0.36,17.09,1.74,24.46,5.98
		c-1.27-0.81-2.57-1.65-3.43-2.89c-0.85-1.24-1.15-2.99-0.3-4.24c0.7-1.02,1.97-1.46,3.15-1.83c7.44-2.29,15.61-4.02,22.88-1.25
		c-9.77-4.45-21.64-3.97-31.02,1.24c-0.4,0.22-0.8,0.45-1.24,0.55c-0.51,0.12-1.05,0.06-1.57-0.01c-3.94-0.53-7.9-1.44-11.86-1.06
		c-4.1,0.39-7.92,2.14-11.83,3.42c-9.29,3.06-19.83,3.81-27.2,10.22c-0.41,0.35-0.83,0.82-0.74,1.35c0.33,1.87,5.58,0.17,6.46-0.67
		C351.06,38.7,351.41,36.15,354.06,35.02z"/>
	<path class="st4" d="M408.26,100.88c3.55,1.82,6.78,4.55,8.43,8.19c0.31-2.94,2.29-5.39,4.3-7.56c2.84-3.07,5.94-5.98,9.62-7.99
		c5.69-3.11,12.48-3.91,17.89-7.48c-1.78,1.22-4.08,1.2-6.21,1.47c-7.82,0.99-14.35,6.15-21.39,9.69c-1.8,0.9-3.64,1.71-5.53,2.42
		c-0.26,0.1-0.53,0.2-0.81,0.2c-0.32,0.01-0.64-0.11-0.94-0.22c-10.24-3.82-21.37-4.39-32.3-4.43c2.43,0.01,4.72-0.29,7.16,0.07
		c2.5,0.36,4.71,1.43,7.14,1.99c1.81,0.42,3.61,0.44,5.44,0.96C403.52,98.88,405.97,99.71,408.26,100.88z"/>
	<path class="st4" d="M397.5,152.2c-6.93-2.06-13.16-5.92-19.3-9.74c1.59,1.76,4.24,1.86,6.54,2.42c2.41,0.58,4.63,1.77,7,2.51
		c2.44,0.76,5.01,1.04,7.47,1.74c3.76,1.07,7.19,3.09,10.94,4.19c2.61,0.76,5.52,1.17,7.41,3.12c0.98,1.02,1.78,2.49,3.19,2.61
		c0.67,0.06,1.33-0.23,1.94-0.51c2.14-1,4.24-2.06,6.31-3.18c2.18-1.18,4.32-2.43,6.3-3.93c5.32-4.02,9.53-9.86,15.86-11.95
		c-5.32,2.92-8.08,8.89-12.22,13.33c-2.72,2.92-6.05,5.19-9.37,7.41c-2.53,1.69-5.11,3.4-8.02,4.28c-4.71,1.42-9.77,0.55-14.61-0.33
		c-1.66-0.3-3.71-1.01-3.38-3.1c0.31-1.99,2.65-2.15,3.34-3.73C408.16,154.45,399.29,152.73,397.5,152.2z"/>
	<path class="st4" d="M404.93,45.8c-1.86,0.15-3.67,0.68-5.5,1.01c-9.03,1.66-18.66-1.19-27.37,1.71c4.14-1.29,8.5-1.72,12.82-2.14
		c5.49-0.54,10.99-1.07,16.48-1.61c3.16-0.31,6.35-0.62,9.52-0.38c0.13-0.64,0.81-0.99,1.41-1.26c8.62-3.76,17.59-7.6,26.99-7.37
		c-7.43,0.49-14.69,3.28-20.54,7.87c-1.1,0.86-2.16,1.81-2.86,3.01c-1.29,2.22-1.13,4.96-0.94,7.53c-0.68-0.09-1.18-0.72-1.39-1.37
		c-0.22-0.65-0.22-1.35-0.35-2.03C412.45,47.07,408.32,45.52,404.93,45.8z"/>
	<path class="st4" d="M283.1,21.45c0.71-0.48,1.57-0.69,2.41-0.89c2.92-0.69,5.83-1.39,8.75-2.08c3.77-0.9,7.54-1.79,11.35-2.52
		c13.7-2.63,27.73-3.08,41.69-3.01c-3.4-1.14-6.83-2.28-10.39-2.74c-3.95-0.51-7.95-0.17-11.91,0.25
		c-8.81,0.92-17.58,2.17-26.35,3.41c-7.43,1.05-15.25,2.25-21.11,6.94c-0.86,0.69-1.72,1.55-1.87,2.64
		c-0.19,1.43,0.89,2.7,1.97,3.65c2.06,1.8,4.8,3.71,7.5,4.31c-1.01-1.03-2.39-1.79-3.18-3.06C280.67,26.29,280.96,22.88,283.1,21.45
		z"/>
	<path class="st14" d="M456.61,152.37c-5.97,4.37-13.19,7.02-20.51,8.39c-9.09,1.7-18.4,1.57-27.64,1.44
		c-15.84-0.22-31.69-0.45-47.53-0.67c2.17-30.41,2.46-60.96,0.87-91.41c-0.37-7.08-1.01-14.62-5.32-20.24
		c-5.86-7.64-16.47-9.35-26.02-10.49c-9.42-1.12-18.99-1.88-28.4-3.24c8.17,2.07,16.33,4.22,24.58,5.76
		c9.39,1.76,19.99,3.33,25.63,11.05c3.88,5.32,4.37,12.32,4.65,18.9c0.98,22.48,1.32,44.99,1.04,67.5
		c-0.13,10.01-0.41,20.18-3.49,29.71c10.5-2.16,21.27-2.5,31.98-2.84c21.05-0.66,42.1-1.33,63.15-1.99c1.3-0.04,2.69-0.12,3.71-0.92
		c0.97-0.76,1.38-2.01,1.71-3.2C455.7,157.55,456.22,154.97,456.61,152.37z"/>
	<path class="st15" d="M338.03,30.28c3.57,1.5,7.32,2.56,11.15,3.13c4.5,0.67,9.38,0.79,13.04,3.5c1.88,1.39,3.26,3.37,4.36,5.43
		c3.49,6.54,4.45,14.16,4.26,21.56c-0.19,7.41-1.47,14.74-2.21,22.11c-0.32,3.18-0.51,6.51,0.71,9.46c0.27,0.66,0.66,1.33,1.31,1.62
		c0.99,0.44,2.2-0.25,2.71-1.21c0.51-0.96,0.5-2.11,0.48-3.19c-0.22-11.77-0.44-23.55-0.67-35.32c-0.06-3.43-0.13-6.86-0.46-10.27
		c-0.32-3.35-0.95-6.81-2.91-9.56c-2.93-4.11-8.14-5.77-12.99-7.17c-5.28-1.53-10.54-3.14-15.84-4.59
		c-1.52-0.41-4.66-1.81-5.89,0.02C333.66,27.92,336.38,29.58,338.03,30.28z"/>
	<path class="st15" d="M317.73,23.97c3.73,0.56,7.45,1.13,11.18,1.69c0.58,0.09,1.18,0.17,1.74,0c0.56-0.17,1.07-0.68,1.03-1.26
		c-0.04-0.59-0.58-1.02-1.12-1.26c-2.21-1-5.02-0.32-6.99-1.73c-1.65-1.18-4.47-2.45-6.64-1.6
		C313.88,21.02,314.75,23.52,317.73,23.97z"/>
</g>
<g>
	<path class="st0" d="M315.92,179.6c2.7-0.08,5.46-0.18,7.96-1.21c4.25-1.76,7.05-6.02,8.22-10.47c1.16-4.45,0.92-9.13,0.66-13.72
		c-1.81-31.49-0.48-60.39-3.9-91.74c-0.42-3.84-0.89-11.07-2.38-14.63c-4.02-9.62-18.49-13.85-28.46-16.91
		c-12.72-3.91-25.91-6.06-39.11-7.76c-32.45-4.19-65.3-5.78-97.93-3.41c-9.51,0.69-19.89,2.14-26.34,9.16
		c-4.22,4.59-1.12,13.04-1.38,19.27c-0.35,8.55-2.91,14.87-0.56,23.1c5.23,18.31,11.1,37.68,25.39,50.27
		c7.9,6.95,17.74,11.23,26.5,17.06c7.79,5.19,14.71,11.67,20.45,19.06c2.87,3.7,5.45,7.62,7.7,11.72c1.81,3.3,3.05,7.61,5.83,10.26
		c5.35,5.1,16.59,2.5,23.12,2.29c11.53-0.36,23.06-0.73,34.59-1.09C289.48,180.43,302.7,180.01,315.92,179.6z"/>
	<path class="st1" d="M132.91,29.99c-1.88,1.01-2.79,7-2.92,9.14c-0.97,15.94-0.66,31.93-0.36,47.9c0.2,10.36,0.4,20.72,0.59,31.08
		c0.21,10.82,0.62,22.31,6.65,31.29c6.44,9.6,17.91,14.29,28.74,18.35c18.44,6.91,37.36,13.59,57.03,14.28
		c1.74,0.06,3.55,0.06,5.14-0.67c3.07-1.41,4.33-5.04,5.09-8.33c2.72-11.71,3.01-23.82,3.28-35.84c0.55-23.88,1.1-47.77,0.22-71.64
		c-0.22-5.95-0.73-12.42-4.72-16.84c-2.62-2.91-6.39-4.48-10.07-5.81c-15.67-5.69-32.16-8.68-48.66-10.68
		C164.76,31.23,142.77,24.69,132.91,29.99z"/>
	<path class="st2" d="M141.23,32.38c21.87-0.12,42.82,8.08,64.31,12.1c9.39,1.76,19.99,3.33,25.63,11.05
		c3.88,5.32,4.37,12.32,4.65,18.9c0.98,22.48,1.32,44.99,1.04,67.5c-0.13,10.01-0.41,20.18-3.49,29.71
		c10.5-2.16,21.27-2.5,31.98-2.84c21.05-0.66,42.1-1.33,63.15-1.99c1.3-0.04,2.69-0.12,3.71-0.92c0.97-0.76,1.38-2.01,1.71-3.2
		c2.37-8.62,2.68-17.64,2.98-26.58c1.03-30.67,2-61.92-6.37-91.44c-1.03-3.62-2.26-7.32-4.8-10.1
		c-4.97-5.43-40.88-15.92-66.73-19.05c-27.24-3.3-64.05-5.4-91.38-2.99c-9.92,0.87-22.36,3.92-30.59,9.52
		c-7.64,5.2-8.53,14.86-7.15,23.98c-0.31-3.8,0.47-7.35,2.06-10.32C134.1,31.64,137.09,32.4,141.23,32.38z"/>
	<g>
		<path class="st3" d="M209.94,165.32c-0.17,0.72,0.34,1.63,1.07,1.57c0.09-1.29,0.43-2.56,0.99-3.74
			c-0.23,0.16-0.46,0.32-0.69,0.49C210.72,164.08,210.11,164.6,209.94,165.32z"/>
		<path class="st3" d="M233.74,59.89c-1.99-1.53-5.24-2.31-6.76-0.31c0.19,1.56,1.95,2.3,3.22,3.22c1.28,0.92,1.98,3.26,0.5,3.79
			c-1.77,0.64-2.37-2.32-3.7-3.65c-1.73-1.73-4.65-0.41-6.67,0.98c1.14,0.84,2.58,1.15,3.87,1.73c1.3,0.57,2.58,1.6,2.72,3.01
			c0.14,1.41-1.61,2.82-2.72,1.95c-0.57-0.45-0.72-1.24-1.11-1.85c-1.31-2.06-5.09-0.82-5.37,1.61c-0.28,2.42,2.31,4.51,4.74,4.3
			c0.94-0.08,1.86-0.43,2.81-0.35c1.65,0.14,2.96,1.58,3.46,3.16c0.5,1.58,0.37,3.28,0.23,4.93c-0.13,1.49-0.3,3.09-1.26,4.24
			c-0.96,1.15-3.02,1.48-3.88,0.25c-0.84-1.2-0.03-2.85-0.23-4.3c-0.26-1.86-2.54-3.12-4.25-2.36c-1.84,0.82-2.4,3.17-2.39,5.19
			c0.01,2.02,0.32,4.18-0.65,5.95c-0.97,1.77-3.98,2.46-4.88,0.65c-0.6-1.2-0.01-2.93-1.04-3.79c-0.46-0.38-1.1-0.44-1.69-0.39
			c-2.37,0.19-4.53,1.97-5.18,4.26c-0.65,2.29,0.26,4.93,2.17,6.35c3.66-3.7,10.52-3.43,13.87,0.55c0.13-2.52,1.2-4.98,2.94-6.81
			c0.23,1.88,1.19,3.67,2.62,4.91c1.08,0.93,2.41,1.56,3.4,2.59c2.35,2.45,1.81,7.02-1.04,8.86c-0.72,0.46-1.69,0.75-2.39,0.26
			c-1.06-0.74-0.54-2.36-0.52-3.66c0.04-3.2-4.14-5.24-7.06-3.9c-2.91,1.34-4.29,4.87-4.07,8.07c0.22,3.2,1.7,6.15,3.16,9.01
			c-0.32-2.06,0-4.2,0.89-6.08c0.31-0.66,0.75-1.33,1.45-1.54c1.12-0.34,2.2,0.72,2.59,1.82c0.38,1.1,0.37,2.33,0.86,3.38
			c1.11,2.38,4.95,2.78,6.52,0.67c-1.12,0.19-2.25-0.9-2.12-2.03c0.14-1.12,1.51-1.9,2.55-1.45c0.83,0.36,1.26,1.26,1.58,2.11
			c1.71,4.56,1.91,9.67,0.59,14.36c0.21-1.31-1.45-2.43-2.88-2.64c-1.56-0.23-3.45-0.23-4.3-1.57c-0.76-1.2-0.19-2.8-0.6-4.16
			c-0.62-2.04-3.78-2.66-5.12-1.01c-1.44,1.77-0.89,5.14-3.06,5.87c-1.55,0.52-3.11-1.06-3.38-2.67c-0.27-1.61,0.27-3.24,0.43-4.87
			c0.16-1.63-0.25-3.55-1.71-4.28c-1.8-0.9-3.96,0.63-4.86,2.44c-2.46,4.96,1.21,11.36,6.42,13.23c2.5,0.9,5.86,0.68,7.09-1.66
			c0.31-0.59,0.49-1.31,1.07-1.64c0.92-0.52,2,0.35,2.61,1.21c2.19,3.09,3.04,7.09,2.3,10.81c1.58-0.98,3.73,0.72,3.84,2.57
			c0.11,1.85-1.11,3.51-2.41,4.84c-1.29,1.33-2.77,2.59-3.43,4.33c1.91-0.37,3.88-0.74,5.78-0.35c1.9,0.39,3.75,1.74,4.11,3.64
			c0.2,1.06-0.07,2.15-0.42,3.17c-1.28,3.73-3.72,7.06-6.89,9.4c-0.67,0.49-1.44,0.96-2.26,0.86c-2.06-0.25-2.04-3.33-1.04-5.16
			c1-1.82,2.39-4.07,1.17-5.75c-1.53-2.11-5.98-1.23-6.4-3.8c-0.2-1.19,0.77-2.21,1.47-3.2c2.13-2.99,2.04-7.39-0.21-10.29
			c-2.25-2.91-6.48-4.09-9.91-2.77c-1.22,0.47-2.41,1.33-2.73,2.59c-0.48,1.87,1.15,3.66,2.91,4.46c1.76,0.8,3.75,1.03,5.4,2.03
			c1.65,1,2.82,3.28,1.72,4.86c-1.57,2.25-6.52,1.71-6.3,4.45c1.75,0.11,3.49,0.22,5.24,0.34c0.5,0.03,1.03,0.08,1.43,0.37
			c1.45,1.08-0.36,3.15-1.75,4.3c-1.19,0.98-2.15,2.24-2.81,3.63c1.43-0.97,2.97-1.76,4.59-2.34c1.29,3.38-1.49,7.06-4.7,8.72
			c-2.6,1.35-5.96,1.87-8.35,0.17c-2.39-1.7-2.52-6.12,0.21-7.17c1.26-0.49,2.67-0.15,4.02-0.14c1.35,0.01,2.95-0.56,3.24-1.88
			c0.33-1.5-1.33-2.76-2.86-2.87c-1.53-0.12-3.04,0.44-4.57,0.43c-1.53-0.01-3.3-0.98-3.29-2.51c0.02-1.84,2.38-2.6,4.23-2.61
			c1.84-0.01,4.12-0.05,4.95-1.69c0.58-1.14,0.12-2.54-0.6-3.6c-1.06-1.57-2.97-2.83-4.79-2.31c-3.22,0.93-4.43,6.65-7.63,5.68
			c-1.43-0.43-2.08-2.11-2.16-3.6c-0.09-1.49,0.17-3.04-0.31-4.45c-1.06-3.11-5.58-3.97-8.21-2c-2.62,1.97-3.34,5.78-2.44,8.93
			c1.26-2,4.56-1.69,6.06,0.13c1.5,1.82,1.53,4.46,0.97,6.75c2.86-1.04,6.41,1.32,6.54,4.36c-0.55,0.25-1.1,0.5-1.65,0.76
			c2.02,1.05,2.88,3.86,1.8,5.86c-0.95,1.76-3.06,2.65-5.06,2.7c-2,0.05-3.95-0.59-5.85-1.23c2.8-2.76,2.48-7.29,1.96-11.19
			c-0.08-0.6-0.17-1.22-0.46-1.76c-1.03-1.91-4.57-1.17-4.76,0.98c1.7,0.51,2.92,2.29,2.8,4.06c-0.12,1.77-1.58,3.36-3.33,3.63
			c0.6-1.03-0.32-2.39-1.46-2.75c-1.14-0.36-2.36-0.05-3.54,0.14c-1.7,0.28-3.65,0.24-4.91-0.93c-1.27-1.18-1.07-3.79,0.61-4.18
			c0.59-0.14,1.21,0.02,1.81,0.05c2.69,0.13,4.99-2.51,5.03-5.21c0.04-2.69-1.74-5.17-4.04-6.58c-2.3-1.41-5.04-1.9-7.72-2.11
			c1.36-0.92,2.61-2,3.72-3.2c-2.2-1.49-4.79-2.38-7.44-2.58c-1.17-0.08-2.44,0-3.36,0.72c-1.6,1.25-1.35,3.91-0.02,5.45
			c1.33,1.54,3.36,2.24,5.3,2.86c2.09,0.67,4.36,1.46,5.49,3.34c1.13,1.88,0.05,5.03-2.14,4.9c-1.71-0.1-3.88-1.85-4.7-0.35
			c-0.62,1.14,0.87,2.7,0.11,3.75c-0.27,0.37-0.74,0.53-1.19,0.62c-2.38,0.48-4.98-0.29-6.71-2c0.75-1.55,2.47-2.31,3.85-3.33
			c1.39-1.01,2.59-2.86,1.76-4.36c-0.31-0.55-0.84-0.94-1.37-1.29c-3-2.03-6.27-3.67-9.68-4.89c-1.39-0.5-3.57-0.45-3.66,1.03
			c-0.07,1.16,1.33,1.75,2.42,2.13c1.77,0.63,3.48,1.68,4.41,3.31c0.93,1.63,0.87,3.91-0.5,5.19c-1.29,1.21-3.37,1.23-4.98,0.51
			c-1.62-0.72-2.88-2.03-4.1-3.31c-0.98-1.03-1.99-2.14-2.34-3.51c-0.38-1.49,0.06-3.05-0.05-4.58c-0.11-1.53-1.19-3.26-2.71-3.09
			c-0.25,0.03-0.5,0.12-0.65,0.32c-0.4,0.52,0.17,1.2,0.37,1.82c0.53,1.58-1.8,2.91-3.26,2.11c-1.46-0.8-1.94-2.68-1.93-4.35
			c0.02-1.67,0.39-3.36,0.01-4.99c-0.34-1.49-1.64-2.93-3.11-2.88c0.81,5.96,2.43,11.68,5.76,16.65
			c6.44,9.6,17.91,14.29,28.74,18.35c18.44,6.91,37.36,13.59,57.03,14.28c1.74,0.06,3.55,0.06,5.14-0.67
			c3.07-1.41,4.33-5.04,5.09-8.33c2.72-11.71,3.01-23.82,3.28-35.84c0.55-23.88,1.1-47.77,0.22-71.64
			c-0.03-0.77-0.06-1.55-0.11-2.33C236.02,61.98,234.99,60.85,233.74,59.89z"/>
	</g>
	<path class="st4" d="M336.36,147.09c-2.11,3.27-5.18,5.93-8.8,7.36c-3.37,1.34-7.04,1.67-10.65,1.96
		c-19.71,1.57-39.5,2.13-59.26,1.67c-3.47-0.08-7.31-0.35-9.75-2.83c-3-3.06-1.57-7.94-1.82-12.22
		c-1.14-19.81,2.24-42.86,0.87-63.52c-1.03-15.49-1.36-30.58-14.38-39.03c-7.37-4.79-16.38-6.15-25.08-7.4
		c-20.27-2.92-40.53-5.83-60.8-8.75c-4.12-0.59-8.58-1.11-12.44,0.11c-5.08,5.46-5.58,13.73-4.39,21.62
		c-0.31-3.8,0.47-7.35,2.06-10.32c2.17-4.06,5.16-3.3,9.3-3.32c21.87-0.12,42.82,8.08,64.31,12.1c9.39,1.76,19.99,3.33,25.63,11.05
		c3.88,5.32,4.37,12.32,4.65,18.9c0.98,22.48,1.32,44.99,1.04,67.5c-0.13,10.01-0.41,20.18-3.49,29.71
		c10.5-2.16,21.27-2.5,31.98-2.84c21.05-0.66,42.1-1.33,63.15-1.99c1.3-0.04,2.69-0.12,3.71-0.92c0.97-0.76,1.38-2.01,1.71-3.2
		C335.29,157.61,335.97,152.37,336.36,147.09z"/>
	<path class="st5" d="M149.26,63.86c-0.47,0.99-0.51,2.13-0.55,3.22c-0.55,18.01-1.1,36.03-1.66,54.04
		c-0.08,2.51-0.15,5.06,0.43,7.51c0.9,3.8,3.43,7.18,6.82,9.11c3.75,2.14,8.21,2.47,12.48,3.05c6.77,0.91,13.45,2.56,19.86,4.91
		c3.43,1.25,6.84,2.72,10.46,3.17c3.62,0.45,7.61-0.27,10.19-2.86c2.73-2.74,3.34-6.91,3.54-10.77c0.23-4.56,0.08-9.13-0.07-13.69
		c-0.44-13.51-0.89-27.01-1.33-40.52c-0.1-3.14-0.27-6.48-2.09-9.05c-1.98-2.79-5.54-4.04-8.95-4.28c-3.41-0.24-6.82,0.37-10.23,0.5
		c-8.05,0.31-15.88-2.01-23.37-4.73C160.96,62.08,151.82,58.47,149.26,63.86z"/>
	<path class="st6" d="M176.53,97.13c10.55,1.68,21.01,3.96,31.3,6.83c0.63-7.57,1.26-15.23,0.06-22.73
		c-0.34-2.14-0.85-4.3-2.04-6.11c-1.87-2.83-5.21-4.41-8.56-4.99c-3.35-0.58-6.77-0.31-10.17-0.22c-1.46,0.04-2.93,0.05-4.39-0.07
		c-1.17-0.09-3.59-1.11-4.61-0.86c-1.86,0.45-0.96,6.21-0.98,8.03C177.07,83.72,176.87,90.43,176.53,97.13z"/>
	<path class="st7" d="M155.85,64c-0.8-0.24-1.66-0.47-2.46-0.23c-1.73,0.52-2.11,2.77-2.17,4.57c-0.11,3.2-0.21,6.4-0.32,9.6
		c-0.26,8-0.53,16-0.79,24.01c-0.24,7.37-0.49,14.74-0.4,22.11c0.03,2.41,0.13,4.93,1.35,7c1.05,1.78,2.83,3.02,4.68,3.96
		c7.79,3.93,17.08,3.14,25.5,5.44c4.98,1.37,9.95,3.85,15.04,3.02c-1.97-1.25-3.6-3.04-4.67-5.11c-0.87-1.69-1.37-3.54-1.68-5.42
		c-1.67-10.1,2.07-20.59-0.02-30.61c-0.07-0.32-0.15-0.66-0.39-0.87c-0.22-0.19-0.52-0.25-0.8-0.3c-4.63-0.82-9.28-1.52-13.95-2.1
		c0.02,0,0.15-18.63,0.16-20.32c0.02-2.12,1.02-7.12-0.29-8.87c-1.27-1.71-5.8-2.1-7.74-2.66C163.22,66.16,159.54,65.08,155.85,64z"
		/>
	<path class="st8" d="M205.85,75.12c-0.74-1.12-1.71-2.04-2.82-2.78c1.8,2.28,2.7,5.26,3.19,8.17c0.8,4.69,0.76,9.51-0.1,14.19
		c-0.17,0.91-0.44,1.91-1.24,2.36c-0.68,0.39-1.53,0.24-2.3,0.07c-6.61-1.45-13.34-3.51-20.01-2.38c-1.37,0.23-2.75,0.6-4.13,0.39
		c-0.72-0.11-1.29-0.55-1.79-1.07c-0.05,1.02-0.09,2.05-0.14,3.07c10.55,1.68,21.01,3.96,31.3,6.83c0.63-7.57,1.26-15.23,0.06-22.73
		C207.55,79.09,207.04,76.93,205.85,75.12z"/>
	<path class="st9" d="M196.28,143.5c-1.97-1.25-3.6-3.04-4.67-5.11c-0.87-1.69-1.37-3.54-1.68-5.42
		c-1.67-10.1,2.07-20.59-0.02-30.61c-0.07-0.32-0.15-0.66-0.39-0.87c-0.22-0.19-0.52-0.25-0.8-0.3c-4.63-0.82-12.44-1.49-12.9-3
		c-1.23-5.59,0.46-3.59-0.89-19.42c-0.18-2.11,1.02-7.12-0.29-8.87c-1.27-1.71-5.8-2.1-7.74-2.66c-0.25-0.07-0.5-0.15-0.75-0.22
		c1.62,1.4,2.65,3.57,3.53,5.6c1.13,2.6,2.25,5.2,3.38,7.81c0.56,1.28,1.12,2.59,1.27,3.98c0.31,2.83-1.09,5.52-2.13,8.17
		c-1.04,2.65-1.69,5.85-0.07,8.19c1.9,2.74,5.88,2.92,8.62,4.82c2.87,1.99,4.08,5.7,4.19,9.19c0.11,3.63-0.83,7.35-3.02,10.25
		c-2.19,2.89-5.72,4.85-9.35,4.75c-3.38-0.09-6.72-1.88-10.01-1.09c-2.95,0.71-5.49,3.43-8.48,2.9c-1.86-0.33-3.29-1.93-3.96-3.7
		c-0.11-0.29-0.2-0.58-0.28-0.88c0.15,1.43,0.48,2.83,1.21,4.06c1.05,1.78,2.83,3.02,4.68,3.96c7.79,3.93,17.08,3.14,25.5,5.44
		C186.22,141.84,191.18,144.33,196.28,143.5z"/>
	<path class="st10" d="M208.34,126.97c-0.06-5.52-0.17-11.04-0.34-16.55c-0.03-0.95-0.06-1.92-0.37-2.83
		c-0.25-0.75-0.69-1.43-1.11-2.1c-0.39-0.62-0.79-1.24-1.18-1.85c-0.44-0.7-0.9-1.41-1.56-1.91c-0.78-0.6-1.81-0.85-2.78-0.69
		c-1.31,0.22-2.76,1.13-3.81,0.32c-0.27-0.21-0.47-0.52-0.75-0.72c-0.35-0.24-0.79-0.29-1.22-0.33c-0.9-0.09-1.79-0.17-2.69-0.26
		c-1.05-0.1-2.14-0.2-3.16,0.08c-1.02,0.28-1.98,1.03-2.21,2.06c-0.22,1.04,0.58,2.26,1.63,2.22c0.54-0.02,1.01-0.33,1.5-0.53
		c0.5-0.2,1.13-0.29,1.52,0.08c0.39,0.37-0.18,1.17-0.7,1.03c-0.55,2.69,1.33,0.55,0.88,2.39c-0.21,0.87-0.59,1.75-0.44,2.63
		c0.1,0.59,0.44,1.11,0.61,1.68c0.49,1.65-0.41,3.44-0.06,5.12c0.17,0.83,0.64,1.58,0.75,2.42c0.22,1.69-1.01,3.18-1.61,4.77
		c-0.59,1.54-0.58,3.3,0.01,4.83c0.48,1.24,1.33,2.38,1.39,3.7c0.04,0.8-0.22,1.58-0.29,2.37c-0.22,2.62,1.59,4.93,3.3,6.92
		c1.62,1.89,3.64,3.96,6.12,3.76c2.54-0.2,4.24-2.71,5.09-5.11C208.38,136.2,208.39,131.53,208.34,126.97z"/>
	<path class="st11" d="M206.87,140.49c1.51-4.3,1.52-8.97,1.47-13.52c-0.06-5.52-0.17-11.04-0.34-16.55
		c-0.03-0.95-0.06-1.92-0.37-2.83c-0.25-0.75-0.69-1.43-1.11-2.1c-0.39-0.62-0.79-1.24-1.18-1.85c-0.44-0.7-0.9-1.41-1.56-1.91
		c-0.78-0.6-1.81-0.85-2.78-0.69c-0.31,0.05-0.64,0.15-0.96,0.25c0.13,0.08,0.28,0.14,0.42,0.21c1.75,0.83,3.2,2.29,4.01,4.05
		c-0.4-0.07-0.8-0.14-1.21-0.21c0.92,1.54,1.38,3.36,1.3,5.16c-0.54,0.04-1.1,0.08-1.57,0.36c-0.46,0.28-0.79,0.86-0.6,1.37
		c0.29,0.75,1.41,0.79,1.84,1.47c0.24,0.37,0.21,0.85,0.18,1.3c-0.08,0.96-0.16,1.93-0.24,2.89c-0.85-0.05-1.7-0.1-2.55-0.16
		c-0.27-0.02-0.56-0.03-0.79,0.11c-0.71,0.43-0.12,1.52,0.52,2.07c0.64,0.54,1.3,1.56,0.64,2.07c-0.42,0.32-1.03,0.09-1.54,0.24
		c-0.64,0.2-0.9,1.08-0.57,1.65c0.34,0.58,1.13,0.79,1.76,0.57c0.26-0.09,0.51-0.26,0.78-0.32c0.65-0.14,1.3,0.33,1.63,0.91
		c0.64,1.14,0.29,2.73-0.78,3.49c-0.59,0.41-1.32,0.58-1.94,0.94c-0.62,0.37-1.14,1.1-0.9,1.77c-0.64-0.79-2.07-0.14-2.3,0.85
		c-0.23,0.99,0.32,1.98,0.92,2.8c-0.39-0.04-0.77-0.08-1.16-0.12c-0.15,1.36-1.28,2.59-2.65,2.7c-1.36,0.11-2.74-1.04-2.74-2.4
		c0-1.43,0.73-2.66-0.22-3.93c0.18,0.46,0.32,0.93,0.34,1.43c0.04,0.8-0.22,1.58-0.29,2.37c-0.22,2.62,1.59,4.93,3.3,6.92
		c1.62,1.89,3.64,3.96,6.12,3.76C204.32,145.4,206.02,142.89,206.87,140.49z"/>
	<path class="st12" d="M133.62,40.59c-0.71,1.6-0.55,3.45-0.23,5.17c0.33,1.74,0.86,3.53,2.11,4.78c1.25,1.26,3.39,1.77,4.82,0.73
		c1.25-0.91,1.56-2.79,0.89-4.19c-0.67-1.4-2.14-2.3-3.67-2.54c0.72-2.25,3.26-3.74,5.57-3.27c2.31,0.47,4.07,2.83,3.86,5.18
		c-0.22,2.47-2.2,5.25-0.55,7.1c0.78,0.87,2.07,1.04,3.24,1.08c2.59,0.08,5.79-0.68,6.44-3.19c0.35-1.32-0.16-2.69-0.41-4.04
		c-0.24-1.34-0.07-3,1.12-3.67c1.02-0.58,2.3-0.15,3.39,0.28c2.99,1.18,5.97,2.36,8.96,3.55c1.71,0.68,3.58,1.51,4.31,3.2
		c0.72,1.69-0.85,4.18-2.55,3.47c0.41-1.23-0.93-2.37-2.2-2.67c-1.26-0.3-2.68-0.23-3.73-1c-0.5-0.36-0.88-0.9-1.45-1.12
		c-0.9-0.34-1.91,0.25-2.51,1c-2.14,2.65-0.34,7.36,3.02,7.91c1.03,0.17,2.24,0.08,2.91,0.87c0.44,0.52,0.51,1.3,1.02,1.76
		c0.58,0.53,1.48,0.41,2.25,0.26c1.32-0.26,2.63-0.52,3.95-0.77c0.91-0.18,1.95-0.47,2.3-1.32c0.35-0.87-0.23-1.83-0.29-2.77
		c-0.11-1.59,1.62-3.01,3.16-2.6c0.66,0.18,1.22,0.61,1.84,0.88c2.38,1.03,5.45-0.89,5.74-3.48c0.28-2.58-2.08-5.07-4.68-5.1
		c-1.97-0.03-4.59,0.8-5.43-0.98c5.18-2.12,10.99,0.81,15.5,4.13c2.76,2.03,6.03,4.37,9.28,3.31c0.7-0.23,1.37-0.64,1.74-1.27
		c0.79-1.37-0.2-3.19-1.6-3.94c-1.4-0.74-3.05-0.75-4.62-0.91c-7.89-0.84-15.23-6.16-23.07-4.96c-0.7,0.11-1.47,0.32-1.8,0.94
		c-0.61,1.11,0.63,2.3,1.72,2.93c1.09,0.63,2.39,1.69,1.93,2.86c-0.42,1.08-2.1,1.07-2.93,0.25c-0.83-0.82-1.04-2.05-1.28-3.19
		c-0.23-1.14-0.6-2.37-1.59-3c-1.98-1.26-4.84,0.86-6.88-0.32c-1.08-0.62-1.51-1.95-2.36-2.85c-1.78-1.87-4.83-1.49-7.3-0.73
		c-1.42,0.44-2.97,1.1-3.56,2.47c-0.85,1.95,0.67,4.05,2.08,5.63c-0.3,0.88-1.69,0.84-2.28,0.13c-0.59-0.71-0.61-1.72-0.59-2.65
		c0.02-1.39,0.04-2.78,0.06-4.17c0.02-1.03-0.06-2.24-0.93-2.8c-1.81-1.16-3.68,2.02-5.82,1.9c0.9-1.47-0.11-3.71-1.81-4
		c-2.59-0.45-2.14,1.99-3.31,3.1C136.18,39.13,134.53,38.55,133.62,40.59z"/>
	<path class="st12" d="M134.5,63.88c0.41,0.32,0.95,0.47,1.3,0.86c0.87,0.95,0.12,2.72,1.03,3.64c0.43,0.43,1.09,0.51,1.61,0.82
		c1.62,0.96,1.09,3.63-0.44,4.73c-0.69,0.5-1.51,0.8-2.15,1.36c-0.89,0.79-1.32,1.98-1.53,3.15c-0.55,3.01,0.06,6.23,1.7,8.82
		c0.5,0.8,1.11,1.56,1.34,2.47c0.57,2.26-1.28,4.34-2.03,6.55c-0.68,1.99-0.41,4.29,0.72,6.07c0.21,0.33,0.49,0.67,0.88,0.72
		c0.38,0.04,0.71-0.21,0.98-0.48c2.73-2.67,2.37-7.14,1.34-10.82s-2.55-7.53-1.48-11.19c0.25-0.87,0.84-1.83,1.75-1.84
		c0.77,0.81,0.43,2.5,1.48,2.88c1.03,0.37,1.74-1.03,1.94-2.1c0.73-3.93,1.28-8.52-1.47-11.42c-0.4-0.42-0.87-0.8-1.07-1.35
		c-0.5-1.32,1.27-2.74,2.53-2.1c1.26,0.63,1.37,2.65,0.3,3.57c3.01-2.58,2.9-8.17-1.48-10.01C139.16,57.12,130.69,60.87,134.5,63.88
		z"/>
	<path class="st12" d="M141.57,107.64c-0.01,0.38-0.04,0.77-0.24,1.09c-0.3,0.49-0.91,0.67-1.47,0.77c-1.1,0.2-2.23,0.2-3.33,0.02
		c-0.46-0.08-0.99-0.16-1.32,0.16c-0.15,0.15-0.22,0.35-0.28,0.54c-0.71,2.25-0.65,4.74,0.17,6.95c0.34,0.92,0.81,1.79,1.08,2.73
		c0.45,1.6,0.3,3.34,0.88,4.89c0.57,1.56,2.38,2.91,3.84,2.12c1.47-0.8,1.33-3,0.54-4.47c-0.79-1.47-2.03-2.81-2.16-4.47
		c-0.11-1.43,0.73-2.9,2.02-3.52c-0.01,0.86,0.44,1.72,1.16,2.19c1.18-2.51,1.54-5.4,1.01-8.13c0.63,0.15,1.28-0.35,1.51-0.96
		c0.23-0.61,0.15-1.29,0.05-1.94c-0.27-1.7-0.64-3.39-1.13-5.04c0.2,0.7-1.83,2.22-2.48,2.3
		C141.47,104.46,141.63,106.05,141.57,107.64z"/>
	<path class="st12" d="M155.08,69.59c-2.14,1.24-1.65,4.39-1.04,6.78c2.16,8.39,2.28,17.29,0.37,25.74
		c-0.93,4.12-2.33,8.48-0.89,12.45c0.34,0.95,0.95,1.93,1.93,2.17c1.83,0.46,3.09-1.8,3.54-3.63c0.77-3.13,1.25-6.33,1.45-9.54
		c0.1-1.57,0.13-3.17,0.67-4.65c0.55-1.47,1.74-2.82,3.29-3.06c0.14,0.64,0.27,1.28,0.41,1.92c2.61-2.95,5.16-6.96,3.59-10.56
		c-1.08-2.47-4.01-4.66-3.03-7.17c0.23-0.58,0.65-1.06,0.89-1.64C167.9,74.54,158.21,67.78,155.08,69.59z"/>
	<path class="st13" d="M258.77,116.9c2.46,0.54,5.17,0.06,7.42,1.19c3.93,1.98,4.23,7.38,6.39,11.21
		c4.84,8.57,18.66,8.54,23.35,17.2c0.8,1.47,1.54,3.35,3.19,3.62c1.51,0.25,2.8-1.03,3.74-2.24c6.19-7.93,10.34-17.71,18.36-23.78
		c4.96-3.76,11.45-6.19,14.21-11.76c1.6-3.23,1.64-7.01,1.19-10.58c-2.13,1.18-3.14,3.72-5.05,5.23c-1.5,1.19-3.43,1.65-5.28,2.14
		c-10.23,2.67-20.05,6.9-29.03,12.48c-1.05,0.65-2.15,1.34-3.38,1.39c-1.07,0.05-2.09-0.39-3.05-0.84
		c-4.46-2.06-8.87-4.5-13.74-5.09c-3.3-0.4-6.71,0.08-9.92-0.8c-2.61-0.71-4.91-2.26-7.46-3.17c-3.54-1.27-7.46-1.26-10.92-2.72
		c-1.29-0.55-2.5-1.12-3.87-1.38c1.69,1.6,4.56,2.53,6.57,3.92C253.76,114.49,255.99,116.29,258.77,116.9z"/>
	<path class="st13" d="M254.91,70.17c5.63,0.4,11.64,0.95,16.02,4.5c1.87,1.51,3.39,3.54,5.6,4.5c1.62,0.7,3.45,0.74,5.17,1.16
		c5.69,1.4,9.45,6.67,12.68,11.57c8.3-9.01,18.8-15.61,28.67-22.87c4.79-3.52,9.87-8.01,10.02-13.95c-0.94,3.6-5.14,5.32-8.86,5.44
		c-3.72,0.12-7.48-0.81-11.13-0.12c-6.16,1.16-11.14,6.73-17.4,6.62c-2.18-0.04-4.28-0.78-6.38-1.38
		c-16.02-4.57-33.1-0.7-49.31,3.18c-0.11,0.03,2.23,0.89,2.48,0.93c0.72,0.11,2.36-0.24,3.17-0.24
		C248.7,69.49,251.85,69.95,254.91,70.17z"/>
	<path class="st13" d="M236.1,40.08c2.57-0.08,5.1,0.58,7.65,0.9c6.87,0.86,13.77-0.76,20.61-1.85c6.84-1.08,14.15-1.57,20.41,1.38
		c0.68,0.32,1.41,0.68,2.14,0.51c1.25-0.3,1.6-1.86,2.3-2.93c1.08-1.65,3.19-2.23,5.1-2.68c6.59-1.55,13.17-3.1,19.76-4.66
		c-3.42-1.12-6.9-2.05-10.42-2.77c-3.86-0.8-7.84-1.36-11.72-0.67c-2.69,0.47-5.24,1.53-7.9,2.14c-5.45,1.25-11.12,0.57-16.71,0.52
		c-11.97-0.11-23.95,2.73-34.59,8.22c-1.51,0.78-3.28,1.64-4.32,2.92C230.7,41.97,233.67,40.16,236.1,40.08z"/>
	<path class="st13" d="M169.86,24.19c15.07-1.69,30.13-3.38,45.2-5.07c7.7-0.86,15.66-1.71,23.07,0.55
		c2.36,0.72,4.66,1.75,7.12,1.99c2.13,0.2,4.26-0.2,6.35-0.61c5.62-1.08,11.24-2.17,16.85-3.25c-4.61-2.13-9.97-0.52-15.04-0.2
		c-11.77,0.75-23.17-5.71-34.92-4.72c-6.5,0.55-12.63,3.35-19.11,4.07c-4.51,0.5-9.07-0.02-13.6,0.21
		c-4.63,0.24-9.17,1.26-13.69,2.28c-2.91,0.65-5.86,1.33-8.45,2.8c-2.51,1.44-4.77,3.83-5.23,6.77c1.68-0.49,2.51-2.51,4.24-3.35
		C164.81,24.62,167.53,24.46,169.86,24.19z"/>
	<path class="st4" d="M245.58,21.41c13.24,3.12,27.32,6.71,36.48,16.76c6.74,7.4,9.9,17.47,10.9,27.42c1,9.96,0.02,19.99-0.48,29.99
		c-0.76,15.24-0.42,30.5-0.07,45.75c0.16,7.15,0.32,14.3,0.48,21.44c0.01,0.3,0.02,0.61,0.15,0.87c0.18,0.37,0.57,0.59,0.96,0.73
		c3,1.11,6.34-1.4,7.36-4.43c1.02-3.03,0.39-6.34-0.15-9.49c-4.96-28.66-2.43-58.07-4.77-87.06c-0.41-5.13-1-10.32-2.91-15.1
		c-3.22-8.05-9.99-14.25-17.49-18.62c-10.46-6.09-22.41-9.03-34.21-11.69c-6.87-1.55-13.75-3.02-20.63-4.49
		c-3.82-0.82-8.31-2.14-12.2-1.57c3.39,3.19,11.14,3.48,15.56,4.52C231.56,18.11,238.57,19.76,245.58,21.41z"/>
	<path class="st4" d="M262.01,114.42c3.55,1.04,7.1,2.08,10.56,3.39c4.38,1.66,8.59,3.76,12.56,6.25c0.97,0.61,1.95,1.27,2.58,2.22
		c0.66,1,0.88,2.23,1.42,3.3c0.61,1.19,1.59,2.13,2.42,3.18c3.03,3.87,3.73,9.01,4.32,13.89c1.13-6,2.76-11.9,4.86-17.63
		c0.37-1,0.76-2.03,1.45-2.85c0.76-0.91,1.81-1.51,2.84-2.09c7.51-4.23,15.01-8.46,22.52-12.69c1.4-0.79,2.82-1.59,4.02-2.66
		c3.37-2.99,4.66-7.62,5.72-12c-1.52,1.86-3.03,3.73-4.55,5.59c-1.3,1.6-2.63,3.23-4.34,4.39c-1.98,1.35-4.35,1.99-6.66,2.63
		c-6.24,1.74-12.43,3.66-18.56,5.77c-1.65,0.57-3.34,1.17-4.72,2.25c-2.48,1.94-3.63,5.18-3.89,8.33
		c-2.58-3.17-6.25-5.34-10.14-6.63c-2.23-0.74-4.54-1.21-6.85-1.68c-7.37-1.5-14.73-3-22.1-4.49c-1.87-0.38-3.81-0.79-5.31-1.98
		c-2.18-1.73-3.33-4.99-6.06-5.51c-1.09-0.21-4.48,0.91-4.07,2.57c0.2,0.82,4.32,1.27,5.08,1.49
		C250.75,111.09,256.37,112.77,262.01,114.42z"/>
	<path class="st4" d="M264.74,66.78c2.04,0.35,4.06,0.87,6.12,1.05c2.25,0.2,4.52-0.01,6.78-0.04c2.82-0.03,5.64,0.22,8.4,0.75
		c1.79,0.34,3.59,0.82,5.08,1.87c3.16,2.23,4.13,6.4,4.79,10.21c-0.02-3,0.09-6.33,2.2-8.46c0.71-0.71,1.6-1.23,2.48-1.71
		c6.96-3.83,14.47-6.64,22.23-8.34c2.2-0.48,4.45-0.88,6.44-1.93c1.99-1.05,3.71-2.9,3.95-5.13c-3.48,2.79-8.05,3.84-12.5,4.2
		c-4.45,0.37-8.94,0.14-13.36,0.75c-2.73,0.38-5.48,1.12-7.77,2.65c-2.3,1.53-4.11,3.95-4.42,6.7c-0.2-1.88-1.68-3.43-3.4-4.23
		c-1.71-0.8-3.64-0.99-5.52-1.17c-8.53-0.82-17.16-1.63-25.65-0.49c-6.3,0.85-12.83,2.74-18.86,0.71c-0.97-0.33-2.23-0.68-2.87,0.12
		c-0.2,0.26-0.29,0.58-0.36,0.9c-0.5,2.29-0.84,6.96,0.84,8.91c0.93,1.08,1.1-0.35,1.52-1.32c0.89-2.09,1.77-3.11,3.91-3.94
		c2.96-1.15,6.06-1.92,9.2-2.3C257.56,66.1,261.2,66.17,264.74,66.78z"/>
	<path class="st4" d="M233.58,37.77c2.35-1.25,5.03-1.66,7.65-2.14c6.57-1.2,13.09-2.96,19.76-3.24c8.5-0.36,17.09,1.74,24.46,5.98
		c-1.27-0.81-2.57-1.65-3.43-2.89c-0.85-1.24-1.15-2.99-0.3-4.24c0.7-1.02,1.97-1.46,3.15-1.83c7.44-2.29,15.61-4.02,22.88-1.25
		c-9.77-4.45-21.64-3.97-31.02,1.24c-0.4,0.22-0.8,0.45-1.24,0.55c-0.51,0.12-1.05,0.06-1.57-0.01c-3.94-0.53-7.9-1.44-11.86-1.06
		c-4.1,0.39-7.92,2.14-11.83,3.42c-9.29,3.06-19.83,3.81-27.2,10.22c-0.41,0.35-0.83,0.82-0.74,1.35c0.33,1.87,5.58,0.17,6.46-0.67
		C230.58,41.46,230.94,38.91,233.58,37.77z"/>
	<path class="st4" d="M287.78,103.63c3.55,1.82,6.78,4.55,8.43,8.19c0.31-2.94,2.29-5.39,4.3-7.56c2.84-3.07,5.94-5.98,9.62-7.99
		c5.69-3.11,12.48-3.91,17.89-7.48c-1.78,1.22-4.08,1.2-6.21,1.47c-7.82,0.99-14.35,6.15-21.39,9.69c-1.8,0.9-3.64,1.71-5.53,2.42
		c-0.26,0.1-0.53,0.2-0.81,0.2c-0.32,0.01-0.64-0.11-0.94-0.22c-10.24-3.82-21.37-4.39-32.3-4.43c2.43,0.01,4.72-0.29,7.16,0.07
		c2.5,0.36,4.71,1.43,7.14,1.99c1.81,0.42,3.61,0.44,5.44,0.96C283.05,101.63,285.49,102.46,287.78,103.63z"/>
	<path class="st4" d="M277.02,154.96c-6.93-2.06-13.16-5.92-19.3-9.74c1.59,1.76,4.24,1.86,6.54,2.42c2.41,0.58,4.63,1.77,7,2.51
		c2.44,0.76,5.01,1.04,7.47,1.74c3.76,1.07,7.19,3.09,10.94,4.19c2.61,0.76,5.52,1.17,7.41,3.12c0.98,1.02,1.78,2.49,3.19,2.61
		c0.67,0.06,1.33-0.23,1.94-0.51c2.14-1,4.24-2.06,6.31-3.18c2.18-1.18,4.32-2.43,6.3-3.93c5.32-4.02,9.53-9.86,15.86-11.95
		c-5.32,2.92-8.08,8.89-12.22,13.33c-2.72,2.92-6.05,5.19-9.37,7.41c-2.53,1.69-5.11,3.4-8.02,4.28c-4.71,1.42-9.77,0.55-14.61-0.33
		c-1.66-0.3-3.71-1.01-3.38-3.1c0.31-1.99,2.65-2.15,3.34-3.73C287.68,157.21,278.81,155.49,277.02,154.96z"/>
	<path class="st4" d="M284.46,48.55c-1.86,0.15-3.67,0.68-5.5,1.01c-9.03,1.66-18.66-1.19-27.37,1.71c4.14-1.29,8.5-1.72,12.82-2.14
		c5.49-0.54,10.99-1.07,16.48-1.61c3.16-0.31,6.35-0.62,9.52-0.38c0.13-0.64,0.81-0.99,1.41-1.26c8.62-3.76,17.59-7.6,26.99-7.37
		c-7.43,0.49-14.69,3.28-20.54,7.87c-1.1,0.86-2.16,1.81-2.86,3.01c-1.29,2.22-1.13,4.96-0.94,7.53c-0.68-0.09-1.18-0.72-1.39-1.37
		c-0.22-0.65-0.22-1.35-0.35-2.03C291.97,49.82,287.85,48.27,284.46,48.55z"/>
	<path class="st4" d="M162.62,24.21c0.71-0.48,1.57-0.69,2.41-0.89c2.92-0.69,5.83-1.39,8.75-2.08c3.77-0.9,7.54-1.79,11.35-2.52
		c13.7-2.63,27.73-3.08,41.69-3.01c-3.4-1.14-6.83-2.28-10.39-2.74c-3.95-0.51-7.95-0.17-11.91,0.25
		c-8.81,0.92-17.58,2.17-26.35,3.41c-7.43,1.05-15.25,2.25-21.11,6.94c-0.86,0.69-1.72,1.55-1.87,2.64
		c-0.19,1.43,0.89,2.7,1.97,3.65c2.06,1.8,4.8,3.71,7.5,4.31c-1.01-1.03-2.39-1.79-3.18-3.06
		C160.19,29.04,160.49,25.64,162.62,24.21z"/>
	<path class="st14" d="M336.14,155.12c-5.97,4.37-13.19,7.02-20.51,8.39c-9.09,1.7-18.4,1.57-27.64,1.44
		c-15.84-0.22-31.69-0.45-47.53-0.67c2.17-30.41,2.46-60.96,0.87-91.41c-0.37-7.08-1.01-14.62-5.32-20.24
		c-5.86-7.64-16.47-9.35-26.02-10.49c-9.42-1.12-18.99-1.88-28.4-3.24c8.17,2.07,16.33,4.22,24.58,5.76
		c9.39,1.76,19.99,3.33,25.63,11.05c3.88,5.32,4.37,12.32,4.65,18.9c0.98,22.48,1.32,44.99,1.04,67.5
		c-0.13,10.01-0.41,20.18-3.49,29.71c10.5-2.16,21.27-2.5,31.98-2.84c21.05-0.66,42.1-1.33,63.15-1.99c1.3-0.04,2.69-0.12,3.71-0.92
		c0.97-0.76,1.38-2.01,1.71-3.2C335.23,160.3,335.75,157.72,336.14,155.12z"/>
	<path class="st15" d="M217.55,33.03c3.57,1.5,7.32,2.56,11.15,3.13c4.5,0.67,9.38,0.79,13.04,3.5c1.88,1.39,3.26,3.37,4.36,5.43
		c3.49,6.54,4.45,14.16,4.26,21.56c-0.19,7.41-1.47,14.74-2.21,22.11c-0.32,3.18-0.51,6.51,0.71,9.46c0.27,0.66,0.66,1.33,1.31,1.62
		c0.99,0.44,2.2-0.25,2.71-1.21c0.51-0.96,0.5-2.11,0.48-3.19c-0.22-11.77-0.44-23.55-0.67-35.32c-0.06-3.43-0.13-6.86-0.46-10.27
		c-0.32-3.35-0.95-6.81-2.91-9.56c-2.93-4.11-8.14-5.77-12.99-7.17c-5.28-1.53-10.54-3.14-15.84-4.59
		c-1.52-0.41-4.66-1.81-5.89,0.02C213.19,30.67,215.91,32.34,217.55,33.03z"/>
	<path class="st15" d="M197.26,26.73c3.73,0.56,7.45,1.13,11.18,1.69c0.58,0.09,1.18,0.17,1.74,0c0.56-0.17,1.07-0.68,1.03-1.26
		c-0.04-0.59-0.58-1.02-1.12-1.26c-2.21-1-5.02-0.32-6.99-1.73c-1.65-1.18-4.47-2.45-6.64-1.6
		C193.4,23.77,194.27,26.27,197.26,26.73z"/>
</g>
<g>
	<path class="st0" d="M191.73,179.6c2.7-0.08,5.46-0.18,7.96-1.21c4.25-1.76,7.05-6.02,8.22-10.47c1.16-4.45,0.92-9.13,0.66-13.72
		c-1.81-31.49-0.48-60.39-3.9-91.74c-0.42-3.84-0.89-11.07-2.38-14.63c-4.02-9.62-18.49-13.85-28.46-16.91
		c-12.72-3.91-25.91-6.06-39.11-7.76c-32.45-4.19-65.3-5.78-97.93-3.41c-9.51,0.69-19.89,2.14-26.34,9.16
		c-4.22,4.59-1.12,13.04-1.38,19.27c-0.35,8.55-2.91,14.87-0.56,23.1c5.23,18.31,11.1,37.68,25.39,50.27
		c7.9,6.95,17.74,11.23,26.5,17.06c7.79,5.19,14.71,11.67,20.45,19.06c2.87,3.7,5.45,7.62,7.7,11.72c1.81,3.3,3.05,7.61,5.83,10.26
		c5.35,5.1,16.59,2.5,23.12,2.29c11.53-0.36,23.06-0.73,34.59-1.09C165.29,180.43,178.51,180.01,191.73,179.6z"/>
	<path class="st1" d="M8.72,29.99c-1.88,1.01-2.79,7-2.92,9.14c-0.97,15.94-0.66,31.93-0.36,47.9c0.2,10.36,0.4,20.72,0.59,31.08
		c0.21,10.82,0.62,22.31,6.65,31.29c6.44,9.6,17.91,14.29,28.74,18.35c18.44,6.91,37.36,13.59,57.03,14.28
		c1.74,0.06,3.55,0.06,5.14-0.67c3.07-1.41,4.33-5.04,5.09-8.33c2.72-11.71,3.01-23.82,3.28-35.84c0.55-23.88,1.1-47.77,0.22-71.64
		c-0.22-5.95-0.73-12.42-4.72-16.84c-2.62-2.91-6.39-4.48-10.07-5.81c-15.67-5.69-32.16-8.68-48.66-10.68
		C40.58,31.23,18.58,24.69,8.72,29.99z"/>
	<path class="st2" d="M17.04,32.38c21.87-0.12,42.82,8.08,64.31,12.1c9.39,1.76,19.99,3.33,25.63,11.05
		c3.88,5.32,4.37,12.32,4.65,18.9c0.98,22.48,1.32,44.99,1.04,67.5c-0.13,10.01-0.41,20.18-3.49,29.71
		c10.5-2.16,21.27-2.5,31.98-2.84c21.05-0.66,42.1-1.33,63.15-1.99c1.3-0.04,2.69-0.12,3.71-0.92c0.97-0.76,1.38-2.01,1.71-3.2
		c2.37-8.62,2.68-17.64,2.98-26.58c1.03-30.67,2-61.92-6.37-91.44c-1.03-3.62-2.26-7.32-4.8-10.1
		c-4.97-5.43-40.88-15.92-66.73-19.05c-27.24-3.3-64.05-5.4-91.38-2.99c-9.92,0.87-22.36,3.92-30.59,9.52
		c-7.64,5.2-8.53,14.86-7.15,23.98c-0.31-3.8,0.47-7.35,2.06-10.32C9.91,31.64,12.9,32.4,17.04,32.38z"/>
	<g>
		<path class="st3" d="M85.75,165.32c-0.17,0.72,0.34,1.63,1.07,1.57c0.09-1.29,0.43-2.56,0.99-3.74c-0.23,0.16-0.46,0.32-0.69,0.49
			C86.53,164.08,85.92,164.6,85.75,165.32z"/>
		<path class="st3" d="M109.55,59.89c-1.99-1.53-5.24-2.31-6.76-0.31c0.19,1.56,1.95,2.3,3.22,3.22c1.28,0.92,1.98,3.26,0.5,3.79
			c-1.77,0.64-2.37-2.32-3.7-3.65c-1.73-1.73-4.65-0.41-6.67,0.98c1.14,0.84,2.58,1.15,3.87,1.73c1.3,0.57,2.58,1.6,2.72,3.01
			c0.14,1.41-1.61,2.82-2.72,1.95c-0.57-0.45-0.72-1.24-1.11-1.85c-1.31-2.06-5.09-0.82-5.37,1.61c-0.28,2.42,2.31,4.51,4.74,4.3
			c0.94-0.08,1.87-0.43,2.81-0.35c1.65,0.14,2.96,1.58,3.46,3.16c0.5,1.58,0.37,3.28,0.23,4.93c-0.13,1.49-0.3,3.09-1.26,4.24
			c-0.96,1.15-3.02,1.48-3.88,0.25c-0.84-1.2-0.03-2.85-0.23-4.3c-0.26-1.86-2.54-3.12-4.25-2.36c-1.84,0.82-2.4,3.17-2.39,5.19
			c0.01,2.02,0.32,4.18-0.65,5.95c-0.97,1.77-3.98,2.46-4.88,0.65c-0.6-1.2-0.01-2.93-1.04-3.79c-0.46-0.38-1.1-0.44-1.69-0.39
			c-2.37,0.19-4.53,1.97-5.18,4.26c-0.65,2.29,0.26,4.93,2.17,6.35c3.66-3.7,10.52-3.43,13.87,0.55c0.13-2.52,1.2-4.98,2.94-6.81
			c0.23,1.88,1.19,3.67,2.62,4.91c1.08,0.93,2.41,1.56,3.4,2.59c2.35,2.45,1.81,7.02-1.04,8.86c-0.72,0.46-1.69,0.75-2.39,0.26
			c-1.06-0.74-0.54-2.36-0.52-3.66c0.04-3.2-4.14-5.24-7.06-3.9c-2.91,1.34-4.29,4.87-4.07,8.07c0.22,3.2,1.7,6.15,3.16,9.01
			c-0.32-2.06,0-4.2,0.89-6.08c0.31-0.66,0.75-1.33,1.45-1.54c1.12-0.34,2.2,0.72,2.59,1.82c0.38,1.1,0.37,2.33,0.86,3.38
			c1.11,2.38,4.95,2.78,6.52,0.67c-1.12,0.19-2.25-0.9-2.12-2.03c0.14-1.12,1.51-1.9,2.55-1.45c0.83,0.36,1.26,1.26,1.58,2.11
			c1.71,4.56,1.91,9.67,0.59,14.36c0.21-1.31-1.45-2.43-2.88-2.64c-1.56-0.23-3.45-0.23-4.3-1.57c-0.76-1.2-0.19-2.8-0.6-4.16
			c-0.62-2.04-3.78-2.66-5.12-1.01c-1.44,1.77-0.89,5.14-3.06,5.87c-1.55,0.52-3.11-1.06-3.38-2.67c-0.27-1.61,0.27-3.24,0.43-4.87
			c0.16-1.63-0.25-3.55-1.71-4.28c-1.8-0.9-3.96,0.63-4.86,2.44c-2.46,4.96,1.21,11.36,6.42,13.23c2.5,0.9,5.86,0.68,7.09-1.66
			c0.31-0.59,0.49-1.31,1.07-1.64c0.92-0.52,2,0.35,2.61,1.21c2.19,3.09,3.04,7.09,2.3,10.81c1.58-0.98,3.73,0.72,3.84,2.57
			c0.11,1.85-1.11,3.51-2.41,4.84c-1.29,1.33-2.77,2.59-3.43,4.33c1.91-0.37,3.88-0.74,5.78-0.35c1.9,0.39,3.75,1.74,4.11,3.64
			c0.2,1.06-0.07,2.15-0.42,3.17c-1.28,3.73-3.72,7.06-6.89,9.4c-0.67,0.49-1.44,0.96-2.26,0.86c-2.06-0.25-2.04-3.33-1.04-5.16
			c1-1.82,2.39-4.07,1.17-5.75c-1.53-2.11-5.98-1.23-6.4-3.8c-0.2-1.19,0.77-2.21,1.47-3.2c2.13-2.99,2.04-7.39-0.21-10.29
			c-2.25-2.91-6.48-4.09-9.91-2.77c-1.22,0.47-2.41,1.33-2.73,2.59c-0.48,1.87,1.15,3.66,2.91,4.46c1.76,0.8,3.75,1.03,5.4,2.03
			c1.65,1,2.82,3.28,1.72,4.86c-1.57,2.25-6.52,1.71-6.3,4.45c1.75,0.11,3.49,0.22,5.24,0.34c0.5,0.03,1.03,0.08,1.43,0.37
			c1.45,1.08-0.36,3.15-1.75,4.3c-1.19,0.98-2.15,2.24-2.81,3.63c1.43-0.97,2.97-1.76,4.59-2.34c1.29,3.38-1.49,7.06-4.7,8.72
			c-2.6,1.35-5.96,1.87-8.35,0.17c-2.39-1.7-2.52-6.12,0.21-7.17c1.26-0.49,2.67-0.15,4.02-0.14c1.35,0.01,2.95-0.56,3.24-1.88
			c0.33-1.5-1.33-2.76-2.86-2.87c-1.53-0.12-3.04,0.44-4.57,0.43c-1.53-0.01-3.3-0.98-3.29-2.51c0.02-1.84,2.38-2.6,4.23-2.61
			c1.84-0.01,4.12-0.05,4.95-1.69c0.58-1.14,0.12-2.54-0.6-3.6c-1.06-1.57-2.97-2.83-4.79-2.31c-3.22,0.93-4.43,6.65-7.63,5.68
			c-1.43-0.43-2.08-2.11-2.16-3.6c-0.09-1.49,0.17-3.04-0.31-4.45c-1.06-3.11-5.58-3.97-8.21-2c-2.62,1.97-3.34,5.78-2.44,8.93
			c1.26-2,4.56-1.69,6.06,0.13c1.5,1.82,1.53,4.46,0.97,6.75c2.86-1.04,6.41,1.32,6.54,4.36c-0.55,0.25-1.1,0.5-1.65,0.76
			c2.02,1.05,2.88,3.86,1.8,5.86c-0.95,1.76-3.06,2.65-5.06,2.7c-2,0.05-3.95-0.59-5.85-1.23c2.8-2.76,2.48-7.29,1.96-11.19
			c-0.08-0.6-0.17-1.22-0.46-1.76c-1.03-1.91-4.57-1.17-4.76,0.98c1.7,0.51,2.92,2.29,2.8,4.06c-0.12,1.77-1.58,3.36-3.33,3.63
			c0.6-1.03-0.32-2.39-1.46-2.75c-1.14-0.36-2.36-0.05-3.54,0.14c-1.7,0.28-3.65,0.24-4.91-0.93c-1.27-1.18-1.07-3.79,0.61-4.18
			c0.59-0.14,1.21,0.02,1.81,0.05c2.69,0.13,4.99-2.51,5.03-5.21c0.04-2.69-1.74-5.17-4.04-6.58c-2.3-1.41-5.04-1.9-7.72-2.11
			c1.36-0.92,2.61-2,3.72-3.2c-2.2-1.49-4.79-2.38-7.44-2.58c-1.17-0.08-2.44,0-3.36,0.72c-1.6,1.25-1.35,3.91-0.02,5.45
			c1.33,1.54,3.36,2.24,5.3,2.86c2.09,0.67,4.36,1.46,5.49,3.34c1.13,1.88,0.05,5.03-2.14,4.9c-1.71-0.1-3.88-1.85-4.7-0.35
			c-0.62,1.14,0.87,2.7,0.11,3.75c-0.27,0.37-0.74,0.53-1.19,0.62c-2.38,0.48-4.98-0.29-6.71-2c0.75-1.55,2.47-2.31,3.85-3.33
			c1.39-1.01,2.59-2.86,1.76-4.36c-0.31-0.55-0.84-0.94-1.37-1.29c-3-2.03-6.27-3.67-9.68-4.89c-1.39-0.5-3.57-0.45-3.66,1.03
			c-0.07,1.16,1.33,1.75,2.42,2.13c1.77,0.63,3.48,1.68,4.41,3.31c0.93,1.63,0.87,3.91-0.5,5.19c-1.29,1.21-3.37,1.23-4.98,0.51
			c-1.62-0.72-2.88-2.03-4.1-3.31c-0.98-1.03-1.99-2.14-2.34-3.51c-0.38-1.49,0.06-3.05-0.05-4.58c-0.11-1.53-1.19-3.26-2.71-3.09
			c-0.25,0.03-0.5,0.12-0.65,0.32c-0.4,0.52,0.17,1.2,0.37,1.82c0.53,1.58-1.8,2.91-3.26,2.11c-1.46-0.8-1.94-2.68-1.93-4.35
			c0.02-1.67,0.38-3.36,0.01-4.99c-0.34-1.49-1.64-2.93-3.11-2.88c0.81,5.96,2.43,11.68,5.76,16.65
			c6.44,9.6,17.91,14.29,28.74,18.35c18.44,6.91,37.36,13.59,57.03,14.28c1.74,0.06,3.55,0.06,5.14-0.67
			c3.07-1.41,4.33-5.04,5.09-8.33c2.72-11.71,3.01-23.82,3.28-35.84c0.55-23.88,1.1-47.77,0.22-71.64
			c-0.03-0.77-0.06-1.55-0.11-2.33C111.83,61.98,110.8,60.85,109.55,59.89z"/>
	</g>
	<path class="st4" d="M212.17,147.09c-2.11,3.27-5.18,5.93-8.8,7.36c-3.37,1.34-7.04,1.67-10.65,1.96
		c-19.71,1.57-39.5,2.13-59.26,1.67c-3.47-0.08-7.31-0.35-9.75-2.83c-3-3.06-1.57-7.94-1.82-12.22
		c-1.14-19.81,2.24-42.86,0.87-63.52c-1.03-15.49-1.36-30.58-14.38-39.03c-7.37-4.79-16.38-6.15-25.08-7.4
		c-20.27-2.92-40.53-5.83-60.8-8.75c-4.12-0.59-8.58-1.11-12.44,0.11c-5.08,5.46-5.58,13.73-4.39,21.62
		c-0.31-3.8,0.47-7.35,2.06-10.32c2.17-4.06,5.16-3.3,9.3-3.32c21.87-0.12,42.82,8.08,64.31,12.1c9.39,1.76,19.99,3.33,25.63,11.05
		c3.88,5.32,4.37,12.32,4.65,18.9c0.98,22.48,1.32,44.99,1.04,67.5c-0.13,10.01-0.41,20.18-3.49,29.71
		c10.5-2.16,21.27-2.5,31.98-2.84c21.05-0.66,42.1-1.33,63.15-1.99c1.3-0.04,2.69-0.12,3.71-0.92c0.97-0.76,1.38-2.01,1.71-3.2
		C211.1,157.61,211.78,152.37,212.17,147.09z"/>
	<path class="st5" d="M25.07,63.86c-0.47,0.99-0.51,2.13-0.55,3.22c-0.55,18.01-1.1,36.03-1.66,54.04
		c-0.08,2.51-0.15,5.06,0.43,7.51c0.9,3.8,3.43,7.18,6.82,9.11c3.75,2.14,8.21,2.47,12.48,3.05c6.77,0.91,13.45,2.56,19.86,4.91
		c3.43,1.25,6.84,2.72,10.46,3.17c3.62,0.45,7.61-0.27,10.19-2.86c2.73-2.74,3.34-6.91,3.54-10.77c0.23-4.56,0.08-9.13-0.07-13.69
		c-0.44-13.51-0.89-27.01-1.33-40.52c-0.1-3.14-0.27-6.48-2.09-9.05c-1.98-2.79-5.54-4.04-8.95-4.28c-3.41-0.24-6.82,0.37-10.23,0.5
		c-8.05,0.31-15.88-2.01-23.37-4.73C36.78,62.08,27.63,58.47,25.07,63.86z"/>
	<path class="st6" d="M52.34,97.13c10.55,1.68,21.01,3.96,31.3,6.83c0.63-7.57,1.26-15.23,0.06-22.73c-0.34-2.14-0.85-4.3-2.04-6.11
		c-1.87-2.83-5.21-4.41-8.56-4.99c-3.35-0.58-6.77-0.31-10.17-0.22c-1.46,0.04-2.93,0.05-4.39-0.07c-1.17-0.09-3.59-1.11-4.61-0.86
		c-1.86,0.45-0.96,6.21-0.98,8.03C52.89,83.72,52.68,90.43,52.34,97.13z"/>
	<path class="st7" d="M31.66,64c-0.8-0.24-1.66-0.47-2.46-0.23c-1.73,0.52-2.11,2.77-2.17,4.57c-0.11,3.2-0.21,6.4-0.32,9.6
		c-0.26,8-0.53,16-0.79,24.01c-0.24,7.37-0.49,14.74-0.4,22.11c0.03,2.41,0.13,4.93,1.35,7c1.05,1.78,2.83,3.02,4.68,3.96
		c7.79,3.93,17.08,3.14,25.5,5.44c4.98,1.37,9.95,3.85,15.04,3.02c-1.97-1.25-3.6-3.04-4.67-5.11c-0.87-1.69-1.37-3.54-1.68-5.42
		c-1.67-10.1,2.07-20.59-0.02-30.61c-0.07-0.32-0.15-0.66-0.39-0.87c-0.22-0.19-0.52-0.25-0.8-0.3c-4.63-0.82-9.28-1.52-13.95-2.1
		c0.02,0,0.15-18.63,0.16-20.32c0.02-2.12,1.02-7.12-0.29-8.87c-1.27-1.71-5.8-2.1-7.74-2.66C39.03,66.16,35.35,65.08,31.66,64z"/>
	<path class="st8" d="M81.66,75.12c-0.74-1.12-1.71-2.04-2.82-2.78c1.8,2.28,2.7,5.26,3.19,8.17c0.8,4.69,0.76,9.51-0.1,14.19
		c-0.17,0.91-0.44,1.91-1.24,2.36c-0.68,0.39-1.53,0.24-2.3,0.07c-6.61-1.45-13.34-3.51-20.01-2.38c-1.37,0.23-2.75,0.6-4.13,0.39
		c-0.72-0.11-1.29-0.55-1.79-1.07c-0.05,1.02-0.09,2.05-0.14,3.07c10.55,1.68,21.01,3.96,31.3,6.83c0.63-7.57,1.26-15.23,0.06-22.73
		C83.36,79.09,82.85,76.93,81.66,75.12z"/>
	<path class="st9" d="M72.09,143.5c-1.97-1.25-3.6-3.04-4.67-5.11c-0.87-1.69-1.37-3.54-1.68-5.42c-1.67-10.1,2.07-20.59-0.02-30.61
		c-0.07-0.32-0.15-0.66-0.39-0.87c-0.22-0.19-0.52-0.25-0.8-0.3c-4.63-0.82-12.44-1.49-12.9-3c-1.23-5.59,0.46-3.59-0.89-19.42
		c-0.18-2.11,1.02-7.12-0.29-8.87c-1.27-1.71-5.8-2.1-7.74-2.66c-0.25-0.07-0.5-0.15-0.75-0.22c1.62,1.4,2.65,3.57,3.53,5.6
		c1.13,2.6,2.25,5.2,3.38,7.81c0.56,1.28,1.12,2.59,1.27,3.98c0.31,2.83-1.09,5.52-2.13,8.17c-1.04,2.65-1.69,5.85-0.07,8.19
		c1.9,2.74,5.88,2.92,8.62,4.82c2.87,1.99,4.08,5.7,4.19,9.19c0.11,3.63-0.83,7.35-3.02,10.25c-2.19,2.89-5.72,4.85-9.35,4.75
		c-3.38-0.09-6.72-1.88-10.01-1.09c-2.95,0.71-5.49,3.43-8.48,2.9c-1.86-0.33-3.29-1.93-3.96-3.7c-0.11-0.29-0.2-0.58-0.28-0.88
		c0.15,1.43,0.48,2.83,1.21,4.06c1.05,1.78,2.83,3.02,4.68,3.96c7.79,3.93,17.08,3.14,25.5,5.44
		C62.03,141.84,66.99,144.33,72.09,143.5z"/>
	<path class="st10" d="M84.15,126.97c-0.06-5.52-0.17-11.04-0.34-16.55c-0.03-0.95-0.06-1.92-0.37-2.83
		c-0.25-0.75-0.69-1.43-1.11-2.1c-0.39-0.62-0.79-1.24-1.18-1.85c-0.44-0.7-0.9-1.41-1.56-1.91c-0.78-0.6-1.81-0.85-2.78-0.69
		c-1.31,0.22-2.76,1.13-3.81,0.32c-0.27-0.21-0.47-0.52-0.75-0.72c-0.35-0.24-0.79-0.29-1.22-0.33c-0.9-0.09-1.79-0.17-2.69-0.26
		c-1.05-0.1-2.14-0.2-3.16,0.08c-1.02,0.28-1.98,1.03-2.21,2.06c-0.22,1.04,0.58,2.26,1.63,2.22c0.54-0.02,1.01-0.33,1.5-0.53
		c0.49-0.2,1.13-0.29,1.52,0.08c0.39,0.37-0.18,1.17-0.7,1.03c-0.55,2.69,1.33,0.55,0.88,2.39c-0.21,0.87-0.59,1.75-0.44,2.63
		c0.1,0.59,0.44,1.11,0.61,1.68c0.49,1.65-0.41,3.44-0.06,5.12c0.17,0.83,0.64,1.58,0.75,2.42c0.22,1.69-1.01,3.18-1.61,4.77
		c-0.59,1.54-0.58,3.3,0.01,4.83c0.48,1.24,1.33,2.38,1.39,3.7c0.04,0.8-0.22,1.58-0.29,2.37c-0.22,2.62,1.59,4.93,3.3,6.92
		c1.62,1.89,3.64,3.96,6.12,3.76c2.54-0.2,4.24-2.71,5.09-5.11C84.19,136.2,84.2,131.53,84.15,126.97z"/>
	<path class="st11" d="M82.68,140.49c1.51-4.3,1.52-8.97,1.47-13.52c-0.06-5.52-0.17-11.04-0.34-16.55
		c-0.03-0.95-0.06-1.92-0.37-2.83c-0.25-0.75-0.69-1.43-1.11-2.1c-0.39-0.62-0.79-1.24-1.18-1.85c-0.44-0.7-0.9-1.41-1.56-1.91
		c-0.78-0.6-1.81-0.85-2.78-0.69c-0.31,0.05-0.64,0.15-0.96,0.25c0.13,0.08,0.28,0.14,0.42,0.21c1.75,0.83,3.2,2.29,4.01,4.05
		c-0.4-0.07-0.8-0.14-1.21-0.21c0.92,1.54,1.38,3.36,1.3,5.16c-0.54,0.04-1.1,0.08-1.57,0.36c-0.46,0.28-0.79,0.86-0.6,1.37
		c0.29,0.75,1.41,0.79,1.84,1.47c0.24,0.37,0.21,0.85,0.18,1.3c-0.08,0.96-0.16,1.93-0.24,2.89c-0.85-0.05-1.7-0.1-2.55-0.16
		c-0.27-0.02-0.56-0.03-0.79,0.11c-0.71,0.43-0.12,1.52,0.52,2.07c0.64,0.54,1.3,1.56,0.64,2.07c-0.42,0.32-1.03,0.09-1.54,0.24
		c-0.64,0.2-0.9,1.08-0.57,1.65c0.34,0.58,1.13,0.79,1.76,0.57c0.26-0.09,0.51-0.26,0.78-0.32c0.65-0.14,1.3,0.33,1.63,0.91
		c0.64,1.14,0.29,2.73-0.78,3.49c-0.59,0.41-1.32,0.58-1.94,0.94c-0.62,0.37-1.14,1.1-0.9,1.77c-0.64-0.79-2.07-0.14-2.3,0.85
		c-0.23,0.99,0.32,1.98,0.92,2.8c-0.39-0.04-0.77-0.08-1.16-0.12c-0.15,1.36-1.28,2.59-2.65,2.7c-1.36,0.11-2.74-1.04-2.74-2.4
		c0-1.43,0.73-2.66-0.22-3.93c0.18,0.46,0.32,0.93,0.34,1.43c0.04,0.8-0.22,1.58-0.29,2.37c-0.22,2.62,1.59,4.93,3.3,6.92
		c1.62,1.89,3.64,3.96,6.12,3.76C80.13,145.4,81.83,142.89,82.68,140.49z"/>
	<path class="st12" d="M9.44,40.59c-0.71,1.6-0.55,3.45-0.23,5.17c0.33,1.74,0.86,3.53,2.11,4.78c1.25,1.26,3.39,1.77,4.82,0.73
		c1.25-0.91,1.56-2.79,0.89-4.19c-0.67-1.4-2.14-2.3-3.67-2.54c0.72-2.25,3.26-3.74,5.57-3.27c2.31,0.47,4.07,2.83,3.86,5.18
		c-0.22,2.47-2.2,5.25-0.55,7.1c0.78,0.87,2.07,1.04,3.24,1.08c2.59,0.08,5.79-0.68,6.44-3.19c0.35-1.32-0.16-2.69-0.41-4.04
		c-0.24-1.34-0.07-3,1.12-3.67c1.02-0.58,2.3-0.15,3.39,0.28c2.99,1.18,5.97,2.36,8.96,3.55c1.71,0.68,3.58,1.51,4.31,3.2
		c0.72,1.69-0.85,4.18-2.55,3.47c0.41-1.23-0.93-2.37-2.2-2.67c-1.26-0.3-2.68-0.23-3.73-1c-0.5-0.36-0.88-0.9-1.45-1.12
		c-0.9-0.34-1.91,0.25-2.51,1c-2.14,2.65-0.34,7.36,3.02,7.91c1.03,0.17,2.24,0.08,2.91,0.87c0.44,0.52,0.51,1.3,1.02,1.76
		c0.58,0.53,1.48,0.41,2.25,0.26c1.32-0.26,2.63-0.52,3.95-0.77c0.91-0.18,1.95-0.47,2.3-1.32c0.35-0.87-0.23-1.83-0.29-2.77
		c-0.11-1.59,1.62-3.01,3.16-2.6c0.66,0.18,1.22,0.61,1.84,0.88c2.38,1.03,5.45-0.89,5.74-3.48c0.28-2.58-2.08-5.07-4.68-5.1
		c-1.97-0.03-4.59,0.8-5.43-0.98c5.18-2.12,10.99,0.81,15.5,4.13c2.76,2.03,6.03,4.37,9.28,3.31c0.7-0.23,1.37-0.64,1.74-1.27
		c0.79-1.37-0.2-3.19-1.6-3.94c-1.4-0.74-3.05-0.75-4.62-0.91c-7.89-0.84-15.23-6.16-23.07-4.96c-0.7,0.11-1.47,0.32-1.8,0.94
		c-0.61,1.11,0.63,2.3,1.72,2.93c1.09,0.63,2.39,1.69,1.93,2.86c-0.42,1.08-2.1,1.07-2.93,0.25c-0.83-0.82-1.04-2.05-1.28-3.19
		c-0.23-1.14-0.6-2.37-1.59-3c-1.98-1.26-4.84,0.86-6.88-0.32c-1.08-0.62-1.51-1.95-2.36-2.85c-1.78-1.87-4.83-1.49-7.3-0.73
		c-1.42,0.44-2.97,1.1-3.56,2.47c-0.85,1.95,0.67,4.05,2.08,5.63c-0.3,0.88-1.69,0.84-2.28,0.13c-0.59-0.71-0.61-1.72-0.59-2.65
		c0.02-1.39,0.04-2.78,0.06-4.17c0.02-1.03-0.06-2.24-0.93-2.8c-1.81-1.16-3.68,2.02-5.82,1.9c0.9-1.47-0.11-3.71-1.81-4
		c-2.59-0.45-2.14,1.99-3.31,3.1C11.99,39.13,10.34,38.55,9.44,40.59z"/>
	<path class="st12" d="M10.32,63.88c0.41,0.32,0.95,0.47,1.3,0.86c0.87,0.95,0.12,2.72,1.03,3.64c0.43,0.43,1.09,0.51,1.61,0.82
		c1.62,0.96,1.09,3.63-0.44,4.73c-0.69,0.5-1.51,0.8-2.15,1.36c-0.89,0.79-1.32,1.98-1.53,3.15c-0.55,3.01,0.06,6.23,1.7,8.82
		c0.5,0.8,1.11,1.56,1.34,2.47c0.57,2.26-1.28,4.34-2.03,6.55c-0.68,1.99-0.41,4.29,0.72,6.07c0.21,0.33,0.49,0.67,0.88,0.72
		c0.38,0.04,0.71-0.21,0.98-0.48c2.73-2.67,2.37-7.14,1.34-10.82s-2.55-7.53-1.48-11.19c0.25-0.87,0.84-1.83,1.75-1.84
		c0.77,0.81,0.43,2.5,1.48,2.88c1.03,0.37,1.74-1.03,1.94-2.1c0.73-3.93,1.28-8.52-1.47-11.42c-0.4-0.42-0.87-0.8-1.07-1.35
		c-0.5-1.32,1.27-2.74,2.53-2.1c1.26,0.63,1.37,2.65,0.3,3.57c3.01-2.58,2.9-8.17-1.48-10.01C14.97,57.12,6.5,60.87,10.32,63.88z"/>
	<path class="st12" d="M17.38,107.64c-0.01,0.38-0.04,0.77-0.24,1.09c-0.3,0.49-0.91,0.67-1.47,0.77c-1.1,0.2-2.23,0.2-3.33,0.02
		c-0.46-0.08-0.99-0.16-1.32,0.16c-0.15,0.15-0.22,0.35-0.28,0.54c-0.71,2.25-0.65,4.74,0.17,6.95c0.34,0.92,0.81,1.79,1.08,2.73
		c0.45,1.6,0.3,3.34,0.88,4.89c0.57,1.56,2.38,2.91,3.84,2.12c1.47-0.8,1.33-3,0.54-4.47c-0.79-1.47-2.03-2.81-2.16-4.47
		c-0.11-1.43,0.73-2.9,2.02-3.52c-0.01,0.86,0.44,1.72,1.16,2.19c1.18-2.51,1.54-5.4,1.01-8.13c0.64,0.15,1.28-0.35,1.51-0.96
		c0.23-0.61,0.15-1.29,0.05-1.94c-0.27-1.7-0.64-3.39-1.13-5.04c0.2,0.7-1.83,2.22-2.48,2.3C17.29,104.46,17.44,106.05,17.38,107.64
		z"/>
	<path class="st12" d="M30.89,69.59c-2.14,1.24-1.65,4.39-1.04,6.78c2.16,8.39,2.28,17.29,0.37,25.74
		c-0.93,4.12-2.33,8.48-0.89,12.45c0.34,0.95,0.95,1.93,1.93,2.17c1.83,0.46,3.09-1.8,3.54-3.63c0.77-3.13,1.25-6.33,1.45-9.54
		c0.1-1.57,0.13-3.17,0.67-4.65c0.55-1.47,1.74-2.82,3.29-3.06c0.14,0.64,0.27,1.28,0.41,1.92c2.61-2.95,5.16-6.96,3.59-10.56
		c-1.08-2.47-4.01-4.66-3.03-7.17c0.23-0.58,0.65-1.06,0.89-1.64C43.71,74.54,34.02,67.78,30.89,69.59z"/>
	<path class="st13" d="M134.59,116.9c2.46,0.54,5.17,0.06,7.42,1.19c3.93,1.98,4.23,7.38,6.39,11.21
		c4.84,8.57,18.66,8.54,23.35,17.2c0.8,1.47,1.54,3.35,3.19,3.62c1.51,0.25,2.8-1.03,3.74-2.24c6.19-7.93,10.34-17.71,18.36-23.78
		c4.96-3.76,11.45-6.19,14.21-11.76c1.6-3.23,1.64-7.01,1.19-10.58c-2.13,1.18-3.14,3.72-5.05,5.23c-1.5,1.19-3.43,1.65-5.28,2.14
		c-10.23,2.67-20.05,6.9-29.03,12.48c-1.05,0.65-2.15,1.34-3.38,1.39c-1.07,0.05-2.09-0.39-3.05-0.84
		c-4.46-2.06-8.87-4.5-13.74-5.09c-3.3-0.4-6.71,0.08-9.92-0.8c-2.61-0.71-4.91-2.26-7.46-3.17c-3.54-1.27-7.46-1.26-10.92-2.72
		c-1.29-0.55-2.5-1.12-3.87-1.38c1.69,1.6,4.56,2.53,6.57,3.92C129.58,114.49,131.81,116.29,134.59,116.9z"/>
	<path class="st13" d="M130.72,70.17c5.63,0.4,11.64,0.95,16.02,4.5c1.87,1.51,3.39,3.54,5.6,4.5c1.62,0.7,3.45,0.74,5.17,1.16
		c5.69,1.4,9.45,6.67,12.68,11.57c8.3-9.01,18.8-15.61,28.67-22.87c4.79-3.52,9.87-8.01,10.02-13.95c-0.94,3.6-5.14,5.32-8.86,5.44
		c-3.72,0.12-7.48-0.81-11.13-0.12c-6.16,1.16-11.14,6.73-17.4,6.62c-2.18-0.04-4.28-0.78-6.38-1.38
		c-16.02-4.57-33.1-0.7-49.31,3.18c-0.11,0.03,2.23,0.89,2.48,0.93c0.72,0.11,2.36-0.24,3.17-0.24
		C124.51,69.49,127.66,69.95,130.72,70.17z"/>
	<path class="st13" d="M111.91,40.08c2.57-0.08,5.1,0.58,7.65,0.9c6.87,0.86,13.77-0.76,20.61-1.85c6.84-1.08,14.15-1.57,20.41,1.38
		c0.68,0.32,1.41,0.68,2.14,0.51c1.25-0.3,1.6-1.86,2.3-2.93c1.08-1.65,3.19-2.23,5.1-2.68c6.59-1.55,13.17-3.1,19.76-4.66
		c-3.42-1.12-6.9-2.05-10.42-2.77c-3.86-0.8-7.84-1.36-11.72-0.67c-2.69,0.47-5.24,1.53-7.9,2.14c-5.45,1.25-11.12,0.57-16.71,0.52
		c-11.97-0.11-23.95,2.73-34.59,8.22c-1.51,0.78-3.28,1.64-4.32,2.92C106.52,41.97,109.48,40.16,111.91,40.08z"/>
	<path class="st13" d="M45.67,24.19c15.07-1.69,30.13-3.38,45.2-5.07c7.7-0.86,15.66-1.71,23.07,0.55c2.36,0.72,4.66,1.75,7.12,1.99
		c2.13,0.2,4.26-0.2,6.35-0.61c5.62-1.08,11.24-2.17,16.85-3.25c-4.61-2.13-9.97-0.52-15.04-0.2c-11.77,0.75-23.17-5.71-34.92-4.72
		c-6.5,0.55-12.63,3.35-19.11,4.07c-4.51,0.5-9.07-0.02-13.6,0.21c-4.63,0.24-9.17,1.26-13.69,2.28c-2.91,0.65-5.86,1.33-8.45,2.8
		c-2.51,1.44-4.77,3.83-5.23,6.77c1.68-0.49,2.51-2.51,4.24-3.35C40.62,24.62,43.34,24.46,45.67,24.19z"/>
	<path class="st4" d="M121.39,21.41c13.24,3.12,27.32,6.71,36.48,16.76c6.74,7.4,9.9,17.47,10.9,27.42c1,9.96,0.02,19.99-0.48,29.99
		c-0.76,15.24-0.42,30.5-0.07,45.75c0.16,7.15,0.32,14.3,0.48,21.44c0.01,0.3,0.02,0.61,0.15,0.87c0.18,0.37,0.57,0.59,0.96,0.73
		c3,1.11,6.34-1.4,7.36-4.43c1.02-3.03,0.39-6.34-0.15-9.49c-4.96-28.66-2.43-58.07-4.77-87.06c-0.41-5.13-1-10.32-2.91-15.1
		c-3.22-8.05-9.99-14.25-17.49-18.62c-10.46-6.09-22.41-9.03-34.21-11.69c-6.87-1.55-13.75-3.02-20.63-4.49
		c-3.82-0.82-8.31-2.14-12.2-1.57c3.39,3.19,11.14,3.48,15.56,4.52C107.37,18.11,114.38,19.76,121.39,21.41z"/>
	<path class="st4" d="M137.82,114.42c3.55,1.04,7.1,2.08,10.56,3.39c4.38,1.66,8.59,3.76,12.56,6.25c0.97,0.61,1.95,1.27,2.58,2.22
		c0.66,1,0.88,2.23,1.42,3.3c0.61,1.19,1.59,2.13,2.42,3.18c3.03,3.87,3.73,9.01,4.32,13.89c1.13-6,2.76-11.9,4.86-17.63
		c0.37-1,0.76-2.03,1.45-2.85c0.76-0.91,1.81-1.51,2.84-2.09c7.51-4.23,15.01-8.46,22.52-12.69c1.4-0.79,2.82-1.59,4.02-2.66
		c3.37-2.99,4.66-7.62,5.72-12c-1.52,1.86-3.03,3.73-4.55,5.59c-1.3,1.6-2.63,3.23-4.34,4.39c-1.98,1.35-4.35,1.99-6.66,2.63
		c-6.24,1.74-12.43,3.66-18.56,5.77c-1.65,0.57-3.34,1.17-4.72,2.25c-2.49,1.94-3.63,5.18-3.89,8.33
		c-2.58-3.17-6.25-5.34-10.14-6.63c-2.23-0.74-4.54-1.21-6.85-1.68c-7.37-1.5-14.73-3-22.1-4.49c-1.87-0.38-3.81-0.79-5.31-1.98
		c-2.18-1.73-3.33-4.99-6.06-5.51c-1.09-0.21-4.48,0.91-4.07,2.57c0.2,0.82,4.32,1.27,5.08,1.49
		C126.56,111.09,132.18,112.77,137.82,114.42z"/>
	<path class="st4" d="M140.55,66.78c2.04,0.35,4.06,0.87,6.12,1.05c2.25,0.2,4.52-0.01,6.78-0.04c2.82-0.03,5.64,0.22,8.4,0.75
		c1.79,0.34,3.59,0.82,5.08,1.87c3.16,2.23,4.13,6.4,4.79,10.21c-0.02-3,0.09-6.33,2.2-8.46c0.71-0.71,1.6-1.23,2.48-1.71
		c6.96-3.83,14.47-6.64,22.23-8.34c2.2-0.48,4.45-0.88,6.44-1.93c1.99-1.05,3.71-2.9,3.95-5.13c-3.48,2.79-8.05,3.84-12.5,4.2
		c-4.45,0.37-8.94,0.14-13.36,0.75c-2.73,0.38-5.48,1.12-7.77,2.65c-2.3,1.53-4.11,3.95-4.42,6.7c-0.2-1.88-1.68-3.43-3.4-4.23
		c-1.71-0.8-3.64-0.99-5.52-1.17c-8.53-0.82-17.16-1.63-25.65-0.49c-6.3,0.85-12.83,2.74-18.86,0.71c-0.97-0.33-2.23-0.68-2.87,0.12
		c-0.2,0.26-0.29,0.58-0.36,0.9c-0.5,2.29-0.84,6.96,0.84,8.91c0.93,1.08,1.1-0.35,1.52-1.32c0.89-2.09,1.77-3.11,3.91-3.94
		c2.96-1.15,6.06-1.92,9.2-2.3C133.37,66.1,137.01,66.17,140.55,66.78z"/>
	<path class="st4" d="M109.4,37.77c2.35-1.25,5.03-1.66,7.65-2.14c6.57-1.2,13.09-2.96,19.76-3.24c8.5-0.36,17.09,1.74,24.46,5.98
		c-1.27-0.81-2.57-1.65-3.43-2.89c-0.85-1.24-1.15-2.99-0.3-4.24c0.7-1.02,1.97-1.46,3.15-1.83c7.44-2.29,15.61-4.02,22.88-1.25
		c-9.77-4.45-21.64-3.97-31.02,1.24c-0.4,0.22-0.8,0.45-1.24,0.55c-0.51,0.12-1.05,0.06-1.57-0.01c-3.94-0.53-7.9-1.44-11.86-1.06
		c-4.1,0.39-7.92,2.14-11.83,3.42c-9.29,3.06-19.83,3.81-27.2,10.22c-0.41,0.35-0.83,0.82-0.74,1.35c0.33,1.87,5.58,0.17,6.46-0.67
		C106.39,41.46,106.75,38.91,109.4,37.77z"/>
	<path class="st4" d="M163.6,103.63c3.55,1.82,6.78,4.55,8.43,8.19c0.31-2.94,2.29-5.39,4.3-7.56c2.84-3.07,5.94-5.98,9.62-7.99
		c5.69-3.11,12.48-3.91,17.89-7.48c-1.78,1.22-4.08,1.2-6.21,1.47c-7.82,0.99-14.35,6.15-21.39,9.69c-1.8,0.9-3.64,1.71-5.53,2.42
		c-0.26,0.1-0.53,0.2-0.81,0.2c-0.32,0.01-0.64-0.11-0.94-0.22c-10.24-3.82-21.37-4.39-32.3-4.43c2.43,0.01,4.72-0.29,7.16,0.07
		c2.5,0.36,4.71,1.43,7.14,1.99c1.81,0.42,3.61,0.44,5.44,0.96C158.86,101.63,161.31,102.46,163.6,103.63z"/>
	<path class="st4" d="M152.84,154.96c-6.93-2.06-13.16-5.92-19.3-9.74c1.59,1.76,4.24,1.86,6.54,2.42c2.41,0.58,4.63,1.77,7,2.51
		c2.44,0.76,5.01,1.04,7.47,1.74c3.76,1.07,7.19,3.09,10.94,4.19c2.61,0.76,5.52,1.17,7.41,3.12c0.98,1.02,1.78,2.49,3.19,2.61
		c0.67,0.06,1.33-0.23,1.94-0.51c2.14-1,4.24-2.06,6.31-3.18c2.18-1.18,4.32-2.43,6.3-3.93c5.32-4.02,9.53-9.86,15.86-11.95
		c-5.32,2.92-8.08,8.89-12.22,13.33c-2.72,2.92-6.05,5.19-9.37,7.41c-2.53,1.69-5.11,3.4-8.02,4.28c-4.71,1.42-9.77,0.55-14.61-0.33
		c-1.66-0.3-3.71-1.01-3.38-3.1c0.31-1.99,2.65-2.15,3.34-3.73C163.49,157.21,154.62,155.49,152.84,154.96z"/>
	<path class="st4" d="M160.27,48.55c-1.86,0.15-3.67,0.68-5.5,1.01c-9.03,1.66-18.66-1.19-27.37,1.71c4.14-1.29,8.5-1.72,12.82-2.14
		c5.49-0.54,10.99-1.07,16.48-1.61c3.16-0.31,6.35-0.62,9.52-0.38c0.13-0.64,0.81-0.99,1.41-1.26c8.62-3.76,17.59-7.6,26.99-7.37
		c-7.43,0.49-14.69,3.28-20.54,7.87c-1.1,0.86-2.16,1.81-2.86,3.01c-1.29,2.22-1.13,4.96-0.94,7.53c-0.68-0.09-1.18-0.72-1.39-1.37
		c-0.22-0.65-0.22-1.35-0.35-2.03C167.78,49.82,163.66,48.27,160.27,48.55z"/>
	<path class="st4" d="M38.43,24.21c0.72-0.48,1.57-0.69,2.41-0.89c2.92-0.69,5.83-1.39,8.75-2.08c3.77-0.9,7.54-1.79,11.35-2.52
		c13.7-2.63,27.73-3.08,41.69-3.01c-3.4-1.14-6.83-2.28-10.39-2.74c-3.95-0.51-7.95-0.17-11.91,0.25
		c-8.81,0.92-17.58,2.17-26.35,3.41c-7.43,1.05-15.25,2.25-21.11,6.94c-0.86,0.69-1.72,1.55-1.87,2.64
		c-0.19,1.43,0.89,2.7,1.97,3.65c2.06,1.8,4.8,3.71,7.5,4.31c-1.01-1.03-2.39-1.79-3.18-3.06C36.01,29.04,36.3,25.64,38.43,24.21z"
		/>
	<path class="st14" d="M211.95,155.12c-5.97,4.37-13.19,7.02-20.51,8.39c-9.09,1.7-18.4,1.57-27.64,1.44
		c-15.84-0.22-31.69-0.45-47.53-0.67c2.17-30.41,2.46-60.96,0.87-91.41c-0.37-7.08-1.01-14.62-5.32-20.24
		c-5.86-7.64-16.47-9.35-26.02-10.49c-9.42-1.12-18.99-1.88-28.4-3.24c8.17,2.07,16.33,4.22,24.58,5.76
		c9.39,1.76,19.99,3.33,25.63,11.05c3.88,5.32,4.37,12.32,4.65,18.9c0.98,22.48,1.32,44.99,1.04,67.5
		c-0.13,10.01-0.41,20.18-3.49,29.71c10.5-2.16,21.27-2.5,31.98-2.84c21.05-0.66,42.1-1.33,63.15-1.99c1.3-0.04,2.69-0.12,3.71-0.92
		c0.97-0.76,1.38-2.01,1.71-3.2C211.04,160.3,211.56,157.72,211.95,155.12z"/>
	<path class="st15" d="M93.36,33.03c3.57,1.5,7.32,2.56,11.15,3.13c4.5,0.67,9.38,0.79,13.04,3.5c1.88,1.39,3.26,3.37,4.36,5.43
		c3.49,6.54,4.45,14.16,4.26,21.56c-0.19,7.41-1.47,14.74-2.21,22.11c-0.32,3.18-0.51,6.51,0.71,9.46c0.27,0.66,0.66,1.33,1.31,1.62
		c0.99,0.44,2.2-0.25,2.71-1.21c0.51-0.96,0.5-2.11,0.48-3.19c-0.22-11.77-0.44-23.55-0.67-35.32c-0.06-3.43-0.13-6.86-0.46-10.27
		c-0.32-3.35-0.95-6.81-2.91-9.56c-2.93-4.11-8.14-5.77-12.99-7.17c-5.28-1.53-10.54-3.14-15.84-4.59
		c-1.52-0.41-4.66-1.81-5.89,0.02C89,30.67,91.72,32.34,93.36,33.03z"/>
	<path class="st15" d="M73.07,26.73c3.73,0.56,7.45,1.13,11.18,1.69c0.58,0.09,1.18,0.17,1.74,0c0.56-0.17,1.07-0.68,1.03-1.26
		c-0.04-0.59-0.58-1.02-1.12-1.26c-2.21-1-5.02-0.32-6.99-1.73c-1.65-1.18-4.47-2.45-6.64-1.6C69.21,23.77,70.08,26.27,73.07,26.73z
		"/>
</g>
</svg>
