<?xml version="1.0" encoding="utf-8"?>
<!-- Generator: Adobe Illustrator 25.4.1, SVG Export Plug-In . SVG Version: 6.00 Build 0)  -->
<svg version="1.1" id="Layer_1" xmlns="http://www.w3.org/2000/svg" xmlns:xlink="http://www.w3.org/1999/xlink" x="0px" y="0px"
	 viewBox="0 0 379.4 257.22" style="enable-background:new 0 0 379.4 257.22;" xml:space="preserve">
<style type="text/css">
	.st0{display:none;}
	.st1{display:inline;fill:#67C7C5;}
	.st2{display:inline;}
	.st3{fill:#4CB2AA;}
	.st4{display:inline;fill:#7FCED0;}
	.st5{display:inline;fill:#4CB2AA;}
	.st6{fill:#7FCED0;}
	.st7{display:inline;opacity:0.5;fill:#7FCED0;}
	.st8{display:inline;fill:#F5F3AE;}
	.st9{display:inline;fill:#E4E89E;}
	.st10{display:inline;fill:#C5C689;}
	.st11{fill:#B52C42;}
	.st12{fill:#E5354D;}
	.st13{fill:#EF4663;}
	.st14{opacity:0.6;fill:#D1CD94;}
	.st15{fill:#D377A3;}
	.st16{fill:#965189;}
	.st17{fill:#D195B0;}
	.st18{fill:#B3819B;}
	.st19{fill:#59C3B9;}
	.st20{opacity:0.2;fill:#FFFFFF;}
</style>
<g class="st0">
	<path class="st1" d="M424.31,218.82c4.24-8.36-0.9-12.94-1.11-19.56c-0.59-18.56,5.87-27.67-18.09-27.4
		c-29.86,0.33-72.01-61.64-96.66-19.05c-10.91,18.85,10.54,36.23,15.49,54.02c3.54,12.71,2.71,52.81,16.76,58.55
		c8.55,3.5,14.69-8.52,21.99-8.21c8.84,0.37,3.31,8.78,13.89,7.72c11.05-1.11,30.37-18.12,35.61-26.47
		c-1.08-0.59-2.17-1.47-3.21-2.12C411.34,227.79,420.56,226.21,424.31,218.82z"/>
	<g class="st2">
		<path class="st3" d="M349.75,244.6c-3.39-6.47-6.34-13.08-9.43-19.49c-7.4-15.34-15.83-30.57-24.82-44.71l-5.01,5.54
			c9.71,5.37,12.38,21.05,14.28,31.53c2.2,12.13,4.71,22.8,6.44,35.02c0.76,5.36,2.42,12.91,8.41,14.2
			c3.08,0.66,11.27-2.19,13.48-4.47C357.65,257.53,352.13,249.15,349.75,244.6z"/>
		<path class="st3" d="M388.17,249.43c-4.89-11.69-13.38-21.69-22.09-31.01c-8.45-9.04-16.66-18.26-24.77-27.48
			c-2.15-2.44-15.08-15.64-14.58-16.6l-4.3,7.12c3.21,3.84,7.94,6.72,10.68,12.19c3.47,6.91,7.57,13.48,11.43,20.18
			c6.73,11.68,12.38,22.95,16.72,35.53c1.86,5.4,4.13,12.65,8.15,16.81c3.62,3.75,10.22,0.32,14.21-2.16c2.08-1.29,4.75-2.91,6-5.01
			C391.65,255.61,389.52,252.65,388.17,249.43z"/>
		<path class="st3" d="M350.17,190.06c5.42,5.75,10.03,11.67,16.13,16.64c11.12,9.07,22.9,17.23,34.59,25.29
			c2.39,1.65,5.82,3.14,7.84,5.04c-0.36-2.79,2.09-5.03,0.74-7.02c-1.23-1.82-5.74-3.52-7.52-5c-6.72-5.59-13.18-11.72-20.33-17.08
			c-12.5-9.38-25.04-18.32-36.83-28.4c-1.91-1.63-10.26-7.76-10.62-9.28l0.39,5.61C339.77,180.76,345.16,184.75,350.17,190.06z"/>
		<path class="st3" d="M334.18,170.26l-0.01-0.13C334.16,170.17,334.17,170.21,334.18,170.26z"/>
		<path class="st3" d="M364.28,174.42c7.47,4.1,14.65,8.85,22.46,12.32c6.29,2.79,12.57,5.72,18.63,9.05
			c2.69,1.47,13.81,7.91,16.44,5.87c2.17-1.68-0.42-4.17-0.55-6.22c-0.17-2.58,1.47-4.34,1.23-6.91c-0.4-4.23-1.93-2.75-5.59-2.9
			c-4.15-0.16-8.58-1.72-12.61-2.78c-11.8-3.09-23.19-7.18-34.28-11.99c-2.64-1.15-18.93-8.02-18.4-10.9l-7.76,8.38
			C347.73,165.55,360.36,172.27,364.28,174.42z"/>
	</g>
	<path class="st4" d="M417.51,171.85c-3.78-3.09-9.11-4.57-13.67-6.25c-6.18-2.28-12.3-4.24-18.62-6.15
		c-7.37-2.23-14.71-4.46-22.05-6.75c-2.74-0.86-6.46-2.48-9.45-1.66c-4.16,1.14-3.46,7.21,0.78,6.66l0.99,1.43
		c0.92-0.58,10.37,5.4,12.57,6.24c5.62,2.16,11.09,4.79,16.84,6.65c8.4,2.72,16.93,5.84,25.42,7.95c2.93,0.73,8.42,2.67,10.84,0.47
		C424.26,177.63,419.89,173.79,417.51,171.85z"/>
	<path class="st4" d="M420.21,212.42c-5.13-2.81-10.32-5.69-15.6-8.27c-11.83-5.77-23.1-12.98-34.69-19.34
		c-6.75-3.7-13.35-7.63-20.13-11.35c-3.81-2.09-8.49-6.03-12.68-6.61c-0.18,0.19-0.22,0.43-0.39,0.62l3.7,3.51
		c8.75,10.24,21.71,16.33,32.65,24.14c10.67,7.62,21.03,16.13,32.11,22.96c3.58,2.21,6.38,5.63,9.82,7.46
		c3.28,1.75,7.04-1.34,8.98-3.95C427.45,216.95,424.24,214.63,420.21,212.42z"/>
	<path class="st1" d="M107.61-111.07c-0.27-7.2-6.83-14.97-8.85-21.7c-2.26-7.53-3.39-16.14-4.65-23.91
		c-2.58-15.93-1.13-31.44-1.32-47.18c-0.09-7.77,4.44-16.64-5.6-17.32c-8.09-0.55-17.53,9.27-24.31,10.78
		c-1.94-26.08-21.05-4.81-27.98,3.45c-3.09,3.68-3.02,9.46-8.17,10.73c-2.74,0.68-6.73-3.88-10.3-3.4
		c-7.3,0.99-13.02,9.13-16.26,15.06c-3.52,6.44-1.34,19.11-4.68,23.25c-5.55,6.89-17.71-2.67-14.15,11.16
		c3.46,13.41,30.42,19.33,41.62,25.48c12.76,7,34.49,15.95,40.69,29.44l4.96,3.91C82.53-88.3,108.26-94.08,107.61-111.07z"/>
	<path class="st5" d="M23.36-124.63c10.76,5.9,27.9,13.2,36.73,23.43c7.88-2.4,13.51-10.83,21.26-13.51
		c-0.89-7.04-7.6-14.28-12-19.48c-4.92-5.82-9.35-11.88-13.25-18.79c-8.13-14.42-12.14-27.12-13.24-43.85
		c-0.25-3.78-1.13-10.03-3.85-13.87c-1.44,1.3-2.71,2.6-3.71,3.79c-2.77,3.31-3,8.29-6.74,10.2c0.06,0.19,0.11,0.37,0.16,0.55
		c2.34,8,3.02,16.02,5.82,23.94c3.11,8.81,7,16.24,11.6,24.42c3.59,6.37,7.94,12.31,10.91,19.02c5.02,11.35-10.3-0.58-13.11-4.22
		c-6.17-7.99-12.49-17.26-17.64-26.13c-4.33-7.46-8.33-16.92-14.93-22.43c-3.32-2.77-7.93-3.91-10.86-2.86
		c-1.13,2.11-1.66,4.88-1.98,7.79c0.16,0.4,0.34,0.82,0.56,1.25c3.35,6.76,11.21,11.78,15.5,18.1c3.07,4.52,10.37,18-0.46,12.77
		c-5.88-2.84-14.64-12.18-14.64-12.18c-1.83-0.84-3.63-1.95-5.42-3c-5.98,3.65-15.55-2.9-12.34,9.57
		C-14.81-136.71,12.16-130.78,23.36-124.63z"/>
	<g class="st2">
		<path class="st6" d="M90.78-122.22c0.31-2.8-2.71-7.06-3.58-9.66c-2.74-8.2-4.89-16.4-7-24.72c-2.55-10.03-6.14-18.93-10.02-28.15
			c-1.86-4.43-4.58-10.38-5.92-16.15l0.2,6.05c-0.45-1.7-0.43-3.89-0.25-6.27c-0.8-3.54-1.07-7.01-0.28-10.01l0.32,9.61
			c0.56-6.73,2.32-14.91-1.07-18.18c-5.36-5.17-13.71-3.95-15.91,3.57c-2.09,7.14,2.53,19.48,4.75,26.44
			c2.7,8.47,6.1,16.29,10,24.14c3.82,7.7,9.25,14.39,12.98,21.91c3.37,6.8,4.72,16.25,8.92,22.36
			C86.07-118.13,90.22-117.2,90.78-122.22z"/>
		<path class="st6" d="M64.27-200.9l-0.02-0.63c-0.01,0.14-0.02,0.27-0.03,0.41C64.23-201.05,64.25-200.98,64.27-200.9z"/>
	</g>
	<g class="st2">
		<path class="st6" d="M86.12-220.28c0.37,0.14,0.69,0.34,1.03,0.53c0.33-0.02,0.67-0.02,1.04,0.02L86.12-220.28z"/>
		<path class="st6" d="M96.24-149.42c-1.01-7.79-1.13-15-1.38-22.85c-0.27-8.77-0.52-17.65,0.48-26.23
			c0.61-5.24,2.98-18.26-3.02-21.23c-1.44-0.71-3.08-0.64-4.41,0.32c-0.27-0.09-0.52-0.21-0.76-0.35
			c-7.77,0.52-2.45,16.82-1.6,21.07c1.82,9.04,2.36,17.71,2.79,27c0.38,8.32,2.12,16.84,3.66,25.08c0.83,4.44,2.01,17.92,6.33,19.4
			C100.54-133.13,97.05-143.11,96.24-149.42z"/>
	</g>
	<path class="st1" d="M44.22-72.72c1.12,21.38,233.31,261.2,244.83,268.22c19.53,11.9,93.68-46.43,89.01-67.22
		c-5.16-22.97-221.49-258.96-243.92-267.73C111.7-148.2,42.87-98.33,44.22-72.72z"/>
	<path class="st5" d="M378.53,128.15c-0.63-2.8-4.4-8.77-10.56-17.09c-1.02,0.09,8.56,12.83-5.73,25.92
		c-28.91,26.47-51.14,47.14-66.53,38.5C280.61,166.99,56.46-58.7,57.43-98.17C49.41-89.04,44.31-80,44.69-72.86
		c1.12,21.38,233.31,261.2,244.83,268.22C309.04,207.27,383.2,148.93,378.53,128.15z"/>
	<path class="st7" d="M348.1,100.2c-6.44-9.97-196.66-228.72-217.18-228.38c-5.6,0.09-15.26,7.06-19.97,10.14
		c-5.45,3.57-29.72,18.54-28.87,25.59c3.22,26.88,227.84,252.17,236.78,249.83c13.14-3.45,27.03-17.26,30.26-19.52
		c2.5-1.75,9.29-11.66,11.22-13.98C365.7,117.46,352.09,106.38,348.1,100.2z"/>
	<path class="st4" d="M122.21-125.26c-1.25-0.93-19.12,7.86-19.3,12.5c-0.18,4.64,232.18,258.91,235.7,257.88
		c3.52-1.03,21.83-11.71,19.48-17.14C355.74,122.55,143.22-109.58,122.21-125.26z"/>
	<path class="st8" d="M137.93-76.6c-3.72,6.79-12.25,9.27-19.03,5.54c-6.79-3.72-9.27-12.25-5.54-19.03
		c3.72-6.79,12.25-9.27,19.03-5.54C139.17-91.9,141.65-83.38,137.93-76.6z"/>
	<path class="st9" d="M232.08-44.08c-3.72,6.79-11.76,8.26-18.55,4.54c-6.79-3.72-9.27-12.25-5.54-19.03
		c1.28-2.33,3.12-4.15,5.27-5.39L232.08-44.08z"/>
	<path class="st9" d="M199.21,15.67c-3.72,6.79-12.25,9.27-19.03,5.54c-6.79-3.72-9.27-12.25-5.54-19.03
		c3.72-6.79,12.25-9.27,19.03-5.54C200.46,0.36,202.94,8.88,199.21,15.67z"/>
	<path class="st9" d="M130.76,1.19c-3.72,6.79-12.25,9.27-19.03,5.54s-9.27-12.25-5.54-19.03c3.72-6.79,12.25-9.27,19.03-5.54
		C132.01-14.11,134.49-5.59,130.76,1.19z"/>
	<path class="st9" d="M247.39,104.29c-3.72,6.79-12.25,9.27-19.03,5.54c-6.79-3.72-9.27-12.25-5.54-19.03
		c3.72-6.79,12.25-9.27,19.03-5.54C248.64,88.99,251.12,97.51,247.39,104.29z"/>
	<path class="st9" d="M322.5,56.33c-3.72,6.79-11.96,8.89-18.75,5.16c-6.79-3.72-9.27-12.25-5.54-19.03c1.56-2.83,3.87-5.1,6.7-6.11
		C305.44,36.16,322.5,56.33,322.5,56.33z"/>
	<path class="st8" d="M325.17,138.99c-3.72,6.79-12.25,9.27-19.03,5.54c-6.79-3.72-9.27-12.25-5.54-19.03s12.25-9.27,19.03-5.54
		C326.42,123.68,328.9,132.2,325.17,138.99z"/>
	<path class="st10" d="M128.78,3.91c-0.03-0.06-0.06-0.12-0.09-0.17c-1.13-1.95-2.8-3.48-4.25-5.18c-1.64-1.92-3.23-3.94-4.97-5.79
		c-3.07-3.28-6.22-6.47-8.92-9.93c-1.73,1.2-3.21,2.8-4.29,4.77c-3.72,6.79-1.24,15.31,5.54,19.03
		C117.53,9.77,124.51,8.48,128.78,3.91z"/>
</g>
<g>
	<path class="st11" d="M176.94,11.41c-9.04-10.36-19.79-3.6-31.09-4.88c1.48-9.89-30.27-5.61-36.32-5.61
		c-5.53,0-11.85-1.08-17.26-0.02c-8.61,1.69-3.48,3.57-3.79,9.73c-8.14,3.65-17.51-1.57-25.44,4.6c-5.67,4.42-5.62,18.38,2.53,20.11
		l1.58,4.07c1.21,1.92,2.55,4.11,4.25,6.17c12.05,14.61,32.09,15,49.89,12.7c12.59-1.63,24.32-7.09,36.87-8.7
		c6.05-0.78,14.18-2.35,19.07-6.58C186.53,34.99,184.26,19.81,176.94,11.41z"/>
	<path class="st12" d="M22.89,226.72c19.16,44.52,179.63,36.17,185.95,1.49c7.12-39.04-49.06-144.84-97.23-140.47
		C68.98,91.61,8.9,194.22,22.89,226.72z"/>
	<path class="st12" d="M193.85,29.91c-1.33-8.82,0.48-12.84-23.36-9.92c7.27,3.37,14.76,8.08,4.42,15.18
		c-1.75,1.2-8.85,3.63-11.11,2.42c-4.94-2.65,0.65-3.24,0.92-6.45c0.84-9.98-14.93-6.72-22.93-6.33c-10.87,0.53-21.7-0.88-32.39,0.3
		c14.29,11.22-8.81,8.72-15.62,6.98c-11.19-2.87-22.67-1.35-33.26-4.01c-0.17,16.01,4.71,27.13,12.73,40.77
		c3.42,5.81,16.32,35.53,19.82,35.68l-5.35,3.71c5.61,9.92,16.17,12.25,28.07,12.63c7.43,0.24,16.58,0.47,23.39-3.35
		c6.51-3.65,7.98-10.08,11.07-16.38c6.57-13.43,15.04-25.31,24.38-36.43C181.8,56.17,195.72,42.29,193.85,29.91z"/>
	<path class="st11" d="M209.54,228.21c5.51-30.19-22.82-95.92-59.41-123.44c-3.12-2.35-4.7,0.01-2.05,5.14
		c4.78,9.23,8.22,19.52,12.6,28.99c9.23,19.98,17.02,40.1,23.29,60.7c9.11,29.96-20.46,34.13-43.52,35.24
		c-24.4,1.17-50.21,0.83-73.14-6.04c-3.76-1.13-32.12-8.39-45.7-16.91c-0.35,5.79,0.25,10.85,1.97,14.84
		C42.74,271.24,203.21,262.89,209.54,228.21z"/>
	<path class="st11" d="M115.3,34.33c-0.39-4.1-4.51-11.37-9.23-5.8c-0.85,1.01-1.13,2.47-1.12,3.73l-1.04,0.69
		c-1.43,1.94-0.58,5.85-0.69,8.36c-0.16,3.69-1,7.21-1.03,10.96c-0.08,7.92-0.62,15.76-0.69,23.73c-0.06,6.92-1.1,14.29,0,21.15
		c0.33,2.07,0.86,5.33,3.8,5.18c3.09-0.15,3.92-4.95,4.49-7.26c1.65-6.68,1.04-13.51,2.15-20.34c1.23-7.57,1.79-14.85,2.41-22.45
		C114.81,46.47,115.86,40.2,115.3,34.33z"/>
	<path class="st11" d="M186.74,18.8c-6.03,1.63-4.98,6.15-5.88,11.04c-0.98,5.39-4.06,11.63-6.82,16.58
		c-6.21,11.18-11.75,22.87-17.42,34.49c-2.59,5.31-4.82,10.7-7.41,15.88c-2.24,4.48-6.45,10.88,0.94,12.08l-2.76-2.07
		c-0.04-5.31,5.55-10.43,8.37-14.48c3.92-5.62,7.17-11.68,10.97-17.36c7.65-11.43,19.68-20.9,25.1-33.74
		C194.2,35.62,203.3,14.31,186.74,18.8z"/>
	<path class="st11" d="M175.01,29.49c-2.44-1.19-5.13,2.73-5.18,3.8l-1.73,0.69c-1.61,6.22-5.39,11.66-8.2,17.6
		c-3.37,7.14-6.12,14.56-9.49,21.73c-2.42,5.14-4.02,10.52-6.73,15.54c-1.43,2.65-7.9,10.3-5.26,12.8c4.61-3.2,7.34-11,9.93-15.91
		c3.06-5.8,5.65-11.7,8.62-17.6c5.43-10.82,10.77-22.28,16.91-32.53C174.91,33.9,177.42,30.66,175.01,29.49z"/>
	<path class="st11" d="M138.9,59.41c0.52-3.41,1.01-6.94,1.1-10.3c0.11-4.03-0.76-4.83-2.22-0.68c-2.78,7.9-4.69,18.45-6.27,26.96
		c-1.49,8.03-2.88,15.8-4.08,23.82l-0.37,0.99c0.21,1.11,2.34,1.99,3.46,1.22c1.25-0.86,1.89-3.79,2.41-5.9
		c1.34-5.44,1.97-11.46,2.83-17.1C136.75,72.08,137.92,65.81,138.9,59.41z"/>
	<path class="st13" d="M93.56,112.32c-3.2-0.34-4.67-1.35-7.94-0.09c-2.63,1.02-5.11,2.83-7.25,4.65
		c-5.64,4.79-9.62,11.14-13.2,17.52c-6.84,12.19-13.73,24.79-15.8,38.67c-0.95,6.35,0,13.61,4.05,18.9
		c3.98,5.2,11.69,4.97,17.68,5.24c7.38,0.34,11.68-1.01,16.16-7.24c4.43-6.15,7.47-13.55,9.82-20.72
		c3.84-11.74,4.82-23.4,5.45-35.56c0.24-4.62,0.19-9.54-1.3-13.54c-0.98-2.64-4.62-8.78-8.36-7.17L93.56,112.32z"/>
	<path class="st13" d="M94.17,89.54c-1.33-6.17-3.62-12.38-5.52-18.62c-2.4-7.84-3.89-15.94-5.79-23.91
		c-1.01-4.21-1.88-8.68-3.54-12.7c-1.56-3.8-2.44-3.92-6.13-4.48c-4.86-0.74-9.59-1.57-13.83-4.36c0.12,5.03-0.1,10.13,0.38,15.06
		c1.12,11.58,6.27,21.48,12,31.76c2.7,4.84,6.01,9.47,9.13,14.14c2.01,3.02,5.81,9.91,8.2,11.04l6.21,2.07
		c0.13,0.31,0.18,0.63,0.36,0.93C95.58,96.49,94.97,93.27,94.17,89.54z"/>
	<path class="st13" d="M163.18,36.83c-1.25-0.52-1.38-1.12-1.3-1.12l0.34-0.69c-3.69,1.84-5.71,12.73-7.33,16.57
		c-2.87,6.81-5.6,13.65-8.46,20.36c-2.2,5.17-4.73,9.75-7.25,14.83c-1.38,2.8-6.41,13.42-3.87,15.57
		c3.27-2.36,4.96-10.41,6.81-14.21c2.29-4.72,4.22-9.82,6.65-14.46c5.25-10.04,10.36-20.27,15.53-30.39
		c0.98-1.93,1.92-4.05,2.02-6.16C165.35,37.22,164.02,37.18,163.18,36.83z"/>
	<path class="st13" d="M134.54,25.79c-1.26-1.28-6.36-0.43-8.19-0.43c-2.85,0-5.91-0.62-7.17,1.8c-0.97,1.86-0.64,6.4-0.84,8.55
		c-0.62,6.39-1.36,12.78-1.99,19.25c-0.85,8.75-0.93,17.6-1.73,26.39c-0.2,2.24-2.62,19.94,1.39,18.9l3.45,1.38
		c1.06-0.39,1.44-1.52,2.15-3.03c2.35-5.04,2.28-11.91,3.11-17.6c1.39-9.58,3.2-19.58,4.33-29.32c0.81-6.94,2.25-11.77,4.56-18.39
		C134.19,31.58,136.11,27.38,134.54,25.79z"/>
	<path class="st14" d="M33.16,172.03l34.17-8.28l20.36,17.6l31.06-17.6l26.23,17.6c0,0,13.46-20.36,14.49-19.67
		c1.04,0.69,30.37,14.5,30.37,14.5l3.8-14.84l3.11,5.87l-1.38,20.71l-30.72-12.08l-19.33,20.71l-27.61-21.4l-34.17,17.6
		l-18.98-19.67l-36.58,8.28L33.16,172.03z"/>
	<path class="st14" d="M51.11,139.24c0,0,37.27,8.28,63.5,8.28c26.23,0,64.88-10.35,64.88-10.35l2.07,3.11
		c0,0-33.48,10.35-66.61,10.35c-33.13,0-65.92-8.97-65.92-8.97L51.11,139.24z"/>
	<path class="st14" d="M24.19,194.8c0,0,64.19,16.91,92.84,15.53c28.64-1.38,89.04-15.88,89.04-15.88l0.69,3.45
		c0,0-44.52,14.15-89.04,15.88c-45.52,1.76-94.91-15.19-94.91-15.19L24.19,194.8z"/>
</g>
<g>
	<path class="st15" d="M274.77,158.12c14.76-7.05,29.03-16.9,42.32-27.79c5.36-4.39,33.18-26.23,39.25-12.91
		c1.3,2.85-1.95,5.48-1.6,8.21c0.59,4.67,0.39,2.97,3.92,6.6c6.25,6.43,10.52,9.35,14.21,17.4c1.58,3.44,3.69,6.85,3.75,10.71
		c0.05,3.05-2.89,6.3-2.98,8.53c-0.23,5.75,5.56,12.4,6.36,18.72c1.02,8.07-1.42,18.1-9.72,21.5c5.42,9.96-4.4,21.2-15.48,17.11
		c-4.52-1.67-9.22-5.97-13.92-8.21c-6.55-3.12-13.86-5.02-20.79-7.57c-12.23-4.5-29.29-8.07-39.82-15.62
		c-9.81-7.04-6.59-18.97-9.03-28.27L274.77,158.12z"/>
	<path class="st16" d="M302.82,196.11c-0.03-0.09-0.56-0.51-0.22-0.33c6.98,1.13,14.13,1.74,20.97,4.28
		c5.31,1.97,10.72,3.82,16,5.82c4.93,1.87,9.77,3.84,14.71,5.78c2.49,0.97,4.83,2.46,7.3,3.4c2.12,0.81,4.5,1.17,6.44,2.3
		c4.19,2.43-0.35,5.58-2.82,7.76c-3.26,2.88-7.47,4.01-12.01,2.86c-4.12-1.05-8.21-4.37-12.07-6.22c-3.76-1.8-7.56-3.85-11.38-5.67
		c-5.47-2.6-11.43-4.75-17.38-6.64c-2.49-0.79-6.46-1.39-8.44-3.01c-2.53-2.07-2.38-5.59-1.77-8.17L302.82,196.11z"/>
	<g>
		<path class="st16" d="M303.11,188.51l0.37,0.14C303.36,188.58,303.23,188.55,303.11,188.51z"/>
		<path class="st16" d="M378.63,192.95c-1.04-0.86-3.64-0.54-4.9-0.81c-2.06-0.45-4.11-1.15-6.15-1.62
			c-3.27-0.76-6.56-1.81-9.86-2.36c-9.16-1.53-18.71-1.32-27.94-2.06c-7.03-0.56-14.07-0.71-20.99-1.59
			c-2.66-0.34-5.36-0.86-8.01-0.96c-1.14-0.04-2.49-0.35-3.33,0.53c-1.01,1.06-0.46,3.09,1.4,2.83l3.98,1.49
			c-0.04-0.02-0.08-0.03-0.12-0.06c2.09-0.46,6.02,1.12,8.28,1.62c3.06,0.68,6.13,1.42,9.22,2.09c6.63,1.45,13,3.74,19.61,5.5
			c9.39,2.49,17.94,5.81,26.98,9.1c1.72,0.63,4,2.33,5.78,1.9c1.86-0.45,2.86-3.16,3.62-4.48
			C377.38,202.07,380.94,194.87,378.63,192.95z"/>
		<path class="st16" d="M303.11,188.51l-0.26-0.1C302.93,188.46,303.02,188.49,303.11,188.51z"/>
	</g>
	<path class="st16" d="M372.93,158.58c-2.84-0.16-5.64,0.48-8.46,0.48c-14.74-0.03-29.71,2.17-43.68,5.96
		c-5.57,1.51-11.38,3.08-16.81,5.09c-3.25,1.21-8.26,3.16-9.24,6.48c0.92,0.54,1.45,0.36,2-0.12l2.68,0.59
		c2.37-1.66,6.44-2.03,9.36-2.59c3.65-0.7,7.24-1.24,10.93-1.77c7.6-1.11,15.2-2.42,22.82-3.15c4.88-0.47,9.78-0.95,14.65-1.03
		c3.76-0.06,7.45,0.74,11.18,0.83c2.97,0.07,3.65-0.05,4.87-2.68c0.77-1.65,1.86-3.1,2.65-4.7
		C377.22,159.19,376.04,158.75,372.93,158.58z"/>
	
		<ellipse transform="matrix(0.3028 -0.9531 0.9531 0.3028 -3.3651 355.3141)" class="st15" cx="241.17" cy="179.96" rx="64.25" ry="69.66"/>
	<path class="st16" d="M302.63,153.34c0.48,7.29-0.36,14.73-2.67,22.03c-10.74,33.82-49.18,51.79-85.84,40.14
		c-18.82-5.98-33.5-18.61-41.89-34.05c1.73,26.52,20.85,51.16,49.61,60.3c36.66,11.65,75.1-6.32,85.84-40.14
		C312.9,185.16,310.59,167.99,302.63,153.34z"/>
	<path class="st15" d="M181.68,198.09c0.04-5.69,15.99-43.92,6.84-36.45l-8.59-2.73c-16.45-6.36-37.36-35.75-56.48-30.63
		c-7.17,1.92-4.24,4.22-5.76,9.31c-0.85,2.85,0.2,2.2-1.55,4.81c-0.63,0.94-3.94,2-5.09,3.32c-4.52,5.23-8.51,28.77,2.06,30.93
		c-2.42,9.36-6.35,17.78-4.22,27.9c2.55,12.13,7.12,14.64,18.41,13.84c-0.42,9.04,6.21,26.01,18.84,22.58
		c4.26-1.16,8.79-6.29,12.4-8.57c7.07-4.48,13.69-9.04,21.17-13.12C190.02,213.68,181.57,214.64,181.68,198.09z"/>
	<path class="st17" d="M225.21,242.48c19.81,5.33,39.87,2.16,55.58-7.33c0.61-2.39,3.39-8.04,4.05-10.38
		c4.29-15.29,7.6-77.16-33.37-108.03c-14.19-2.6-28.26-0.97-40.53,4.12c0.43,0.53,0.84,1.04,1.24,1.49
		c5.01,5.68,8.45,12.47,10.78,19.38c1.74,5.16,2.15,10.58,3.5,15.78c2.06,7.96,2.89,16.26,3.8,24.33
		c1.54,13.72,1.69,28.42-0.38,41.85c-0.93,5.98-2.13,12.18-4.28,17.93C225.49,241.9,225.35,242.18,225.21,242.48z"/>
	<path class="st18" d="M224.98,243.2c19.81,5.33,39.87,2.16,55.58-7.33c0.61-2.39,3.39-8.04,4.05-10.38c1.4-5.01,2.7-15,2.38-27.27
		c-13.67,15.08-34.7,23.16-56.69,21.28c-0.19,1.65-0.4,3.29-0.65,4.91c-0.93,5.98-2.13,12.18-4.28,17.93
		C225.26,242.62,225.12,242.9,224.98,243.2z"/>
	<path class="st6" d="M248.69,128.86c-0.11,3.85-5.36,6.61-11.73,6.17c-6.37-0.44-11.44-3.91-11.32-7.76
		c0.11-3.85,5.36-6.61,11.73-6.17C243.73,121.53,248.8,125.01,248.69,128.86z"/>
	<path class="st6" d="M261.85,149.59c0.57,5.07-4.1,9.46-10.43,9.81c-6.33,0.35-11.93-3.47-12.5-8.54
		c-0.57-5.07,4.1-9.46,10.43-9.81C255.68,140.7,261.28,144.52,261.85,149.59z"/>
	<path class="st6" d="M273.87,210.27c0.56,4.92-4.13,9.19-10.46,9.54c-6.33,0.35-11.92-3.35-12.47-8.27
		c-0.56-4.92,4.13-9.19,10.46-9.54C267.73,201.65,273.32,205.35,273.87,210.27z"/>
	<path class="st6" d="M271.02,178.29c0.65,5.78-3.95,10.75-10.28,11.1c-6.33,0.35-11.99-4.05-12.65-9.83
		c-0.65-5.78,3.95-10.75,10.28-11.1C264.71,168.11,270.37,172.51,271.02,178.29z"/>
	<path class="st19" d="M270.18,232.08c0.7,3.25-3.8,6.63-10.04,7.53c-6.24,0.9-11.87-1-12.56-4.25c-0.7-3.25,3.8-6.63,10.04-7.53
		C263.86,226.92,269.49,228.82,270.18,232.08z"/>
	<path class="st16" d="M184.6,210.29c-1.31-5.21-8.66-2.35-12.82-1.36c-5.87,1.4-11.8,2.83-17.54,4.67
		c-4.27,1.37-9.12,3.26-12.97,5.44c-2.94,1.67-7.02,3.4-9.26,6.04c0.01-0.08,0.03-0.15,0.03-0.23l-3.15,2.7
		c-0.75,1.7,3.54,8.27,5.25,9.6c2.93,2.29,7.57,4.65,11.43,4.68c4.88,0.04,8.91-5.29,12.71-7.59c4.04-2.44,7.96-5.05,12.09-7.54
		c3.48-2.1,7.21-4.46,10.38-7c1.44-1.15,4.33-2.63,4.76-4.32C185.78,214.27,184.89,211.47,184.6,210.29z"/>
	<path class="st16" d="M179.51,196.32c-12.62-0.04-69.82,8.58-68.25,16.58c0.38,1.91,3.47,5.4,5.28,5.71
		c1.41,1.82,21.11-2.78,27.09-4.08c8.83-1.93,15.55-3.86,24.86-4.26c5.3-0.23,13.3,0.23,15.22-0.98
		C181.71,204.36,184.45,196.33,179.51,196.32z"/>
	<path class="st16" d="M105.99,166.63c-0.06,3.1,0.8,7.15,4.13,9.26c4,2.53,10.69,2.8,15.23,3.55c14.19,2.33,28.31,4.58,42.52,6.13
		c4.01,0.44,14.21,6.22,14.61,1.39c0.71-8.47-7.23-8.47-10.43-9.06c-10.08-1.85-20.34-3.25-30.2-6.21
		c-6.6-1.98-13.17-4.08-19.75-6.13c-3.78-1.17-12.59-4.38-16.09-2.3c-2.07,1.23-2.08,4.75-0.83,6.62c1.96,2.94,6.62,2.45,9.65,2.92
		L105.99,166.63z"/>
	<path class="st20" d="M241.36,132.23c-1.73-3.29-8.15-9.72-11.99-6.25l-0.81-1.05c-11.21-1.72-26,8.05-31.96,16.02
		c-4.27,5.71-7.29,12.09-7.95,19.15c-0.57,6.15,0.47,14.22,6.41,18.16c12.6,8.36,17.54-8.35,22.01-15.15
		c2.96-4.51,6.32-7.62,10.95-10.32c3.65-2.12,7.72-4.05,10.85-6.87C243.04,142.16,244.03,137.32,241.36,132.23z"/>
	<path class="st20" d="M166.21,163.28c-9.49-2.54-18.23-6.26-27.3-9.72c-7.92-3.02-16.89-6.23-25.14-7.47l0.44,0.41
		c-1.73,0.55-3.21,2.44-2.57,4.27c0.69,1.96,3.01,2.57,5.09,3.14c5.07,1.38,10.37,2.77,15.38,4.62c10.04,3.7,20.46,7.36,30.91,10.07
		c2.94,0.76,10.87,4.06,12.46,1.59C178.43,165.58,169.04,164.03,166.21,163.28z"/>
	<path class="st20" d="M154.29,147.59c-7.86-4.77-15.73-8.98-23.42-13.79c-1.47-0.92-3.07-2-4.55-2.77
		c-1.45-0.75-3.48-0.92-3.74-0.91l-0.08,0.24c-2.49,0.39-2.65,2.77-1.1,4.35c1.57,1.59,4.71,2.25,6.79,3.01
		c5.7,2.09,10.82,5.57,16.47,7.89c9.52,3.9,18.17,8.86,26.73,13.97c1.13,0.67,2.4,1.43,3.71,1.73
		C176.94,157.55,157.46,149.51,154.29,147.59z"/>
	<path class="st20" d="M174.96,189.91c-10.51-0.05-21.75-0.62-32.37-1.88c-7.81-0.92-15.69-1.65-23.62-1.43
		c-2.68,0.07-7.01,0.45-8.81,2.47c-0.81,0.91-1.1,8.67-0.13,9.44c1.84,1.46,5.93-0.66,7.8-1.1c5.95-1.41,11.41-1.36,17.46-1.72
		c8.7-0.52,17.42-2.07,26.04-2.57c4.37-0.25,8.78-0.46,13.13-0.79c0.99-0.07,5.66,0.17,6-0.73
		C181.22,189.57,175.97,189.91,174.96,189.91z"/>
	<path class="st20" d="M349.09,117.27c-1.53-1.38-4.35,0.43-5.59,1.1c-4.3,2.32-8.62,5.42-12.83,8.08
		c-5.29,3.34-10.52,6.91-15.85,10.29c-2.72,1.72-5.41,3.46-8,5.34c-2.21,1.6-4.33,4.11-6.59,5.37l0.18,0.32
		c-1.44,2.07,1.76,1.13,2.74,0.66c1.21-0.59,2.26-1.47,3.41-2.2c3.51-2.21,7.07-4.47,10.75-6.33c6.02-3.04,11.75-6.99,17.98-9.87
		c4.18-1.93,8.81-3.73,12.03-7.01C348.41,121.9,350.98,118.97,349.09,117.27z"/>
	<path class="st20" d="M359.15,137.01c-4.1-3.57-8.39-3.77-13.23-1.69c-6.88,2.95-14.32,5.48-21.31,8.49
		c-4.16,1.79-8.05,4.08-12.15,6c-2.47,1.16-7.42,2.27-8.51,4.89l-1.01,0.47c-0.4,3.7,4.05,1.75,6.25,0.86
		c3.46-1.39,7.32-2.51,11.03-3.11c6.09-1,11.91-2.89,17.84-4.52c5.37-1.48,11.14-1.87,16.52-3.26
		C359.26,143.93,364.14,141.35,359.15,137.01z"/>
	<path class="st20" d="M374.89,182.85c0.06-1.48-1.93-3.75-3.04-4.66c-3.65-3.01-8.14-2.11-12.39-2.47
		c-8.87-0.76-17.55,0.04-26.34,0.4c-4.14,0.17-8.27,0.57-12.4,0.62c-2.01,0.03-9.55-0.77-10.16,0.41l-1.09,0.71
		c-2.74,4.39,3.86,4.54,7.03,4.94c4.14,0.52,8.1,0.96,12.23,1.19c7.62,0.42,15.1-0.11,22.71-0.21c5.76-0.07,11.36,1.27,17.1,1.15
		C370.99,184.89,374.8,185.41,374.89,182.85z"/>
</g>
</svg>
