<?xml version="1.0" encoding="utf-8"?>
<!-- Generator: Adobe Illustrator 25.4.1, SVG Export Plug-In . SVG Version: 6.00 Build 0)  -->
<svg version="1.1" id="Layer_1" xmlns="http://www.w3.org/2000/svg" xmlns:xlink="http://www.w3.org/1999/xlink" x="0px" y="0px"
	 viewBox="0 0 310.97 287.27" style="enable-background:new 0 0 310.97 287.27;" xml:space="preserve">
<style type="text/css">
	.st0{fill:#F04949;}
	.st1{fill:#40A047;}
	.st2{fill:#4B7756;}
	.st3{fill:#F1A9A0;}
</style>
<g>
	<path class="st0" d="M44.01,85.63c14.31-10.07,34.65-21.07,52.28-23.2c20.27-2.44,33.79,14.86,52.93,14.16
		c7.86-0.29,2.95-0.87,10.6-5.81c60.28-38.94,148.04,18.48,151.05,88.92c1.57,36.68-15.37,69.98-44.25,92.17
		c-15.44,11.87-33.39,20.29-51.97,25.93c-25.21,7.63-56.75,7.58-82.74,8.86c-20.05,0.99-45.39-8.14-63.35-16.58
		c-38.93-18.26-66.59-53.3-68.46-97.12C-1.42,137.31,15.01,106.02,44.01,85.63z"/>
	<path class="st1" d="M132.92,76.55c-8.15-22.11-22.8-22.96-29.19-38.3c4.13,2.08,30.41,12.18,45.8,35.26
		c7.44-0.54,2.64-3.73,5.5-7.17c9.11-10.97,24.79-26.13,24.85-31.45c2.38,16.23-1.64,24.19-10.43,33.73
		c28.07-0.63,38.92-1.81,71.09,14.34c-30.27,3.65-36.34-2.11-66.7,1.16c15.07,15.45,27.91,27.38,25.34,55.69
		c-21.74-50.76-46.59-41.65-46.59-41.65s-33.7,23.3-42.08,38.14c-1.29-15.52,7.48-31.29,16.3-44.41
		c-20.76-9.96-33.04-19.61-60.93-19.37C87.42,62.72,109.69,68.42,132.92,76.55z"/>
	<path class="st2" d="M154.06,5.45c0-2.2,1.85-3.92,4.04-3.8c0.39,0.02,0.78,0.03,1.18,0.05c1.85,0.09,3.38,1.5,3.6,3.34
		c0.01,0.09,0.02,0.15,0.02,0.24c1.52,14.91,0.97,68.94-2.8,79.67c-1.59,4.51-5.16,11.5-10.51,7.41c-4.7-3.61-2.66-18.98-1.37-24.48
		C150.41,58.53,154.05,19.5,154.06,5.45z"/>
	<path class="st3" d="M47.12,98.1c0,0-50.07,118.19,107.2,164.47c0,0-101.8,3.66-130.6-66.45C-3.33,122.12,47.12,98.1,47.12,98.1z"
		/>
</g>
</svg>
