<?xml version="1.0" encoding="utf-8"?>
<!-- Generator: Adobe Illustrator 25.4.1, SVG Export Plug-In . SVG Version: 6.00 Build 0)  -->
<svg version="1.1" id="Layer_1" xmlns="http://www.w3.org/2000/svg" xmlns:xlink="http://www.w3.org/1999/xlink" x="0px" y="0px"
	 viewBox="0 0 479.12 416.35" style="enable-background:new 0 0 479.12 416.35;" xml:space="preserve">
<style type="text/css">
	.st0{fill:#1172BA;}
	.st1{fill:#FCF38B;}
	.st2{fill:#2BAAE2;}
	.st3{opacity:0.7;}
	.st4{fill:#EEC21B;}
	.st5{opacity:0.5;}
	.st6{fill:#FFFFFF;}
	.st7{fill:#F9DD54;}
	.st8{opacity:0.7;fill:#F9DD54;}
	.st9{opacity:0.15;}
	.st10{opacity:0.4;}
	.st11{opacity:0.77;}
	.st12{opacity:0.2;}
</style>
<g>
	<path class="st0" d="M323.72,373.9H160.79h-37.5v17.87c0,13.57,53.26,24.57,118.96,24.57c65.7,0,118.96-11,118.96-24.57V373.9
		H323.72z"/>
	<path class="st0" d="M242.25,110.69c-131.4,0-237.91,22.82-237.91,50.98h18.45c0-22.7,98.26-41.1,219.47-41.1
		c121.21,0,219.47,18.41,219.47,41.1h18.45C480.17,133.52,373.65,110.69,242.25,110.69z"/>
	<path class="st1" d="M468.09,147.38c-1.67-7.06-10.19-12.54-17.87-11.3c13.88-27.69-22.69-35.04-35.15-24.45
		c0.9-7.63-3.69-16.46-10.22-20.17c-9.69-5.52-21.19-0.74-29.1,5.73c9.14-9.91,3.42-26.25-6.76-33.42
		c-3.34-2.35-10.72-3.79-16.7-2.92c2.74-10.15-3.33-24.11-11.35-29.08c-10.7-6.63-29.47-1.22-39.44,5.62
		c1.9-12.71-2.86-25.43-16.34-28.95c-13.45-3.52-20.06,5.82-30.44,9.66c-5.07-14.8-16.69-21.92-32.34-16.06
		c-15.04,5.64-14.89,16.69-15.4,30.47c-5.68-15.07-28.82-23.63-43.41-19.12c-7.36,2.27-17.8,8.12-21.61,15.09
		c-4.01,7.34-1.1,13.76-1.55,20.99c-9.27-7.87-21.95-2.11-28.6,6.51c-7.11,9.23-3.83,16.28,0.2,26.17
		c-10.79-11.13-29.55-11.29-42.37-3.5c-17.2,10.45-11.58,23.19-14.01,38.47c-56-6.43-31.45,48.62-31.45,48.62
		c2.41,12.77,9.14,15.81,18.84,22.47c9.15,6.29,12.53,16.28,21.69,22.65c8.49,5.9,18.41,6.92,28.17,5.69
		c13.14-1.66,16.47-0.58,28.15,5.61c16.96,9,33.65,1.49,51.43,3.61c17.21,2.06,31.29,7.99,48.93,4.61
		c9.05-1.74,15.96-4.89,25.21-2.45c9.07,2.38,14.91,6.1,24.73,6.29c9.53,0.19,17.51-2.82,26.67-4.08
		c8.11-1.11,15.75,1.27,23.73,1.88c18.44,1.4,34.67-2.74,51.9-7.42c18.33-4.98,33.57-2.85,51.41-12.51
		c8.73-4.73,17.04-10.02,21.12-19.66c3.28-7.73,0.1-14.98,7.25-19.53C462.14,167.35,471.08,160.03,468.09,147.38z"/>
	<path class="st2" d="M242.25,212.66c-131.4,0-237.91-22.83-237.91-50.98v27.94c0,111.65,90.51,202.16,202.16,202.16h71.51
		c111.66,0,202.16-90.52,202.16-202.16v-27.94C480.17,189.83,373.65,212.66,242.25,212.66z"/>
	<path class="st0" d="M242.25,212.66c131.4,0,237.92-22.83,237.92-50.98H465.9c-9.71,21.06-102.43,41.1-223.64,41.1
		c-121.21,0-212.54-20.58-219.63-41.1H4.34C4.34,189.83,110.86,212.66,242.25,212.66z"/>
	<g>
		<g class="st3">
			<path class="st4" d="M223.36,174.76c1.52-6.75,6.32-10.91,2.47-18.26c-3.95-7.54-10.61-8.48-17.77-10.42
				c1.74-7.73,4.42-15.54-4.77-20.21c-3.07-1.57-7.63-2.4-11.13-2.04c-3.94,0.41-7.7,4.18-11.36,3.54
				c-3.55-15.3-12.2-21.84-27.93-23.72c-6.84-0.81-12.92-0.56-18.92,3.36c-3.56,2.33-5.78,5.42-7.55,9.21
				c-1.04,2.23-1.56,7.18-3.86,8.28c-1.69,0.81-6.57-1.35-8.47-1.51c-3.31-0.29-6.61-0.29-9.66,1.19
				c-5.82,2.83-11.83,10.4-12.14,16.99c-0.28,5.87,8.66,14.21,6.31,17.83c-0.99,1.54-6.46,2.85-8.24,3.9
				c-3.46,2.03-6.83,4.31-8.6,8.04c5.16-3.97,9.61-8.66,16.75-8.76c1.85-0.02,6.81,2.62,7.9-0.23c0.57-1.5-3.22-6.69-4.19-7.91V156
				c-5.12-6.61-5.97-18.02,1.21-23.22c8.89-6.44,18.28-3.09,25.47,3.79c0.15-14.79,1.68-29.6,20.02-30.51
				c18.8-0.93,24.56,14.78,27.88,29.8c11.98-16.97,36.86,0.06,21.98,15.62c6.02-5.5,16.12-1.36,20.15,4.54
				c3.9,5.71,2.43,17.32-3.65,21.52c4.34-1.07,9.23,0.16,12.39,3.27c7.02,6.94,3.79,10.07-0.65,16.36c4.86,0.86,9.6-8.26,9.11-12.51
				C235.42,178.58,228.33,175.93,223.36,174.76z"/>
		</g>
		<g class="st3">
			<path class="st4" d="M170.97,174.29c-1.09-3.4,0.06-7.06-1.46-10.38c-1.77-3.88-5.82-6.73-9.47-8.55
				c-8.12-4.04-14.39-2.97-19.82,4.58c-4.2,5.82-2.87,15.59-10.34,18.79l-0.49,0.49c7.15,5.68,9.1-3.76,11.47-8.42
				c3.33-6.54,10.97-12.88,18.44-9.13c7.61,3.81,5.32,12.07,10.33,17.57c2.81,3.09,6.66,3.85,10.4,4.73
				C175.92,181.44,172.16,178.01,170.97,174.29z"/>
		</g>
		<g class="st3">
			<path class="st4" d="M202.55,101.14c0.43-7.41-4.25-13.91,1.03-21.2c5.16-7.1,12.11-4.97,18.63-2.59
				c0.64-4.99-0.78-8.96,1.93-13.8c2.82-5.03,8.01-8.29,13.52-9.52c5.18-1.16,10.65-0.4,15.08,2.67c5.49,3.8,6.39,10.33,10.59,14.34
				c6.69-2.57,11.96-8.8,19.36-2.21c5.35,4.77,2.48,14.56,9.83,15.56c2.99,0.41,6.57-1.67,9.6-1.84c4.12-0.23,9.17,0.66,12.94,2.6
				c8.88,4.59,3.61,11.1,5.14,18.47c13.22-2.52,6.7,10.7,14.96,13.78c0.49-7.26-2.08-14.23-7.8-17.99c-4.04-2.65-3.45-1.35-3.7-7.18
				c-0.21-4.87-0.42-6.38-4.44-9.52c-7.25-5.67-12.41-3.87-20.77-3.8c-10.11,0.09-5.2-7.9-12.32-12.78
				c-2.7-1.85-7.11-3.42-10.42-3.35c-2.85,0.06-8.16,4.19-10.34,3.64c-2.84-0.72-2.89-5.18-4.31-7.32c-2.25-3.41-5.87-5.8-9.57-7.43
				c-6.58-2.88-14.7-4.05-20.77,0.35c-3.51,2.55-6.36,6.42-8.52,10.07c-2.18,3.69-1.9,7.75-3.88,11.29
				c-6.79-1.61-14.86-3.31-19.14,4c-3.52,6-2.1,16.41,1.9,21.78L202.55,101.14z"/>
		</g>
		<g class="st3">
			<path class="st4" d="M411.06,155.41c-2.15-1.2-5.74,0.6-7.4-0.34c-3.62-2.03-1.17-6.7-3.46-10.95c-2.42-4.49-8.59-7.5-13.77-6.85
				c-7.12,0.88-4.99,4.01-8.73-2.52c-2.67-4.64-7.21-9.08-12.28-11.13c-12.62-5.09-19.77,6.03-24.3,15.6
				c-6.26-2.17-11.86-5.16-17.51-0.07c-2.56,2.3-5.5,6.45-6.56,9.68c-0.69,2.08,0.52,7.76-0.84,9.15c-1.45,1.5-5.41-0.43-7.39,0.04
				c-3.9,0.93-6.7,4.74-7.97,8.36c-2.5,7.14,2.16,12.03,3.02,18.78l1.98-0.5c-1.73-5.35-3.57-13.79-0.08-18.74
				c4.36-6.18,11.41-4.17,17.52-3.09c0.55-6.1-2.16-14.82,4.27-19.07c5.47-3.61,11.37,0.2,14.4,4.79
				c5.2-7.56,3.84-17.12,14.57-20.91c12.71-4.49,18.65,9.87,21,19.27c4.56-2.75,9.73-6.85,15.45-4.1
				c5.96,2.86,5.91,11.04,3.38,16.16c5.34-0.03,8.78-2.35,12.83,2.41c3.42,4.04,3.39,9.41-0.36,13.09c4.09-3.05,6.57-7.27,5.8-12.55
				C414.26,159.34,413.55,156.8,411.06,155.41z"/>
		</g>
		<g class="st3">
			<path class="st4" d="M292.46,133.27c-3.66-2.7-2.69-1.55-1.53-6.93c3.79-17.61-16.73-25.75-27.63-12.62
				c-2.41-6.45-5.81-13.68-15.06-11.07c-4.99,1.41-8.23,7.72-9.93,13.3c1.96-3.5,5.02-6.36,8.87-7.46
				c8.79-2.52,14.12,4.75,15.54,12.77c1.74-8.34,10.59-13.4,17.64-8.03c8.18,6.23,6.45,16.32,1.44,23.48
				c5.95,0.38,11.54-2.65,14.42,4.7c2.78,7.1-4.24,10.04-9.76,12.18c6.09-0.05,14.43-7.19,13.54-13.91
				C299.19,133.56,295.74,135.69,292.46,133.27z"/>
		</g>
	</g>
	<g class="st5">
		<path class="st6" d="M76.47,109.88c1.81-1.19,1.54-4.1,2.63-5.77c1.19-1.8,3.45-3.79,4.9-5.32c3.66-3.84,12.63-6.12,15.02-10.7
			c5.1-9.79-11.26-13.27-17.33-12.1c-8.12,1.56-12.88,9.63-12.48,17.55C67.8,100.53,69.16,114.69,76.47,109.88z"/>
		<path class="st6" d="M44.87,125.35l6.43-1.98c-8.47-3.13-17.06,0.28-20.31,8.87c-2.28,6.02-0.03,19.74,7.25,21.99
			c4.96,1.54,6.54-3.04,9.19-6.17c3.19-3.74,8.03-6.1,11.04-9.86C66.18,128.59,54,121.47,44.87,125.35z"/>
		<path class="st6" d="M87.38,111.02c-7.15-2.16-15.53,9.24-16.37,15.01c-0.97,6.66,3.95,17.79,11.8,13.25
			c4.97-2.88,13.37-16.11,14.92-21.5C100.34,108.79,87.38,111.02,87.38,111.02z"/>
		<path class="st6" d="M125.44,87.29c-6.95-1.54-17.74,5.93-19.2,12.71c-1.77,8.23,7.98,3.39,12.88,3.18
			c5.11-0.21,13.86,1.62,14.93-6.25C134.99,90.1,125.44,87.29,125.44,87.29z"/>
		<path class="st6" d="M122.76,75.94c2.22-3.53,0.08-8.55,4.23-11.51c3.07-2.17,6.65,0.71,9.16-0.92c2.89-1.87,1.65-3.99-0.64-6.77
			c-2.22-2.69-4.96-3.84-7.91-3.79c-5.58-5.88-14.79,5.22-15.45,11.02C111.54,69.43,116.65,85.7,122.76,75.94z"/>
		<path class="st6" d="M164.86,71.74c2.76,1.1,4.93,2.32,6.66-0.79c6.45-11.6-20.14-13.2-25.32-11.83c0,0-15.52,10.54-9.72,19.44
			c6.59,10.11,12.06-3.64,16.77-8.06C158.82,65.27,158.91,69.38,164.86,71.74z"/>
		<path class="st6" d="M157.59,45.21c1.03-3.19-0.28-6.75,2.49-9.39c2.19-2.09,6.8-0.61,8.35-2.41c2.14-2.47-0.54-6.78-2.35-8.45
			c-3.42-3.14-9.5-2.42-9.5-2.42c-6.95-1.01-12.77,8.68-12.82,14.57C143.7,44.51,154.45,54.98,157.59,45.21z"/>
		<path class="st6" d="M183.79,29.91c2.18,4.34,0.8,12.75,8.89,9.94c15.05-5.23-8.98-34.36-22.13-22.83
			c-0.2,0.04-0.25-0.1-0.51-0.02C170.02,21.55,181.44,25.28,183.79,29.91z"/>
		<path class="st6" d="M190.72,54.46c1.1-7.62-11.09-14.19-15.85-18.57l-1.48,0.99c-5.1,0.01-16.5,8.84-12.98,14.7
			c1.2,1.99,4.24,1.52,6.05,1.76c3.95,0.53,5.51,0.15,9.18,2.6C179.93,58.82,189.32,64.09,190.72,54.46z"/>
		<path class="st6" d="M202.51,49.99c-3.81,3.92-7.14,7.46-8.83,12.85c-1.04,3.32-1.86,6.59,1.79,8.61c3.72,2.06,6.17-1.46,9.5-2.89
			c6.69-2.86,14.38-2.17,15.11-11.71c0.65-8.4-6.13-15.57-13.18-12.95C206.41,46.4,204.39,48.06,202.51,49.99z"/>
		<path class="st6" d="M172.44,98.73c5.18,3.92,8.05,10.16,13.22,1.65c4.19-6.9-7.33-24.46-7.33-24.46
			c-5.53-2.17-21.02,4.78-19.52,12.09C159.91,93.4,168.6,95.82,172.44,98.73z"/>
		<path class="st6" d="M161.6,130.31c4.19-10.95-6.99-14.35-6.99-14.35c-4.75-1.33-9.45-0.99-13.19,2.18
			c-3.94,3.34-12.77,19.21-5.67,23.14c4.61-4.3,9.84-5.87,15.99-6.09C156.29,135.02,159.58,135.59,161.6,130.31z"/>
		<path class="st6" d="M116.49,136.43c-4.56-2.49-11.64-0.87-12.8,4.31c-1.12,4.96,7.08,19.6,12.36,18.72
			c0.92-0.15,6.83-4.27,7.94-5.03c3.01-2.04,4.16-3.6,3.98-7.33C127.7,141.73,122.03,137.09,116.49,136.43z"/>
		<path class="st6" d="M189.69,133.76l0.34,0.57c-5.93-1.3-15.54,5.01-17.87,8.54c-4.01,6.06-0.99,13.69,6.66,12.19
			c5.5-1.08,12.99-3,16.72-7.43C200.17,142.13,199.18,131.54,189.69,133.76z"/>
		<path class="st6" d="M210.14,172.2c9.33-2.32,8.98-14.61,0.81-18.17l0.32,0.55c-3.82-3.64-13-2.09-16.73-0.02
			c-3.4,1.89-15.63,14.37-7.99,17.78c1.44,0.64,7.39-1.21,9.28-1.18C200.17,171.22,205.86,173.26,210.14,172.2z"/>
		<path class="st6" d="M204.96,179.73c-4.42,2.03-10.83,8.79-6.85,13.35c2.6,2.99,19.28,2.46,19.28,2.46
			c5.67,2.55,9.27-5.23,6.9-9.4C220.92,180.25,210.99,176.95,204.96,179.73z"/>
		<path class="st6" d="M152.67,167.9c-4.59-0.73-9.44,9.31-9.5,12.93c-0.15,9.39,5.8,9.43,13.16,10.45
			C175.23,193.92,163.08,165.17,152.67,167.9z"/>
		<path class="st6" d="M112.14,168.12c-4.89-3.3-13.83-1.35-17.75,1.96c-7.73,6.51-1.02,10.88,6.06,11.12
			c7.51,0.25,17.74,2.71,23.58-3.67c2.15-2.35,2.93-4.35,1.39-7.46C122.61,164.43,116.85,165.75,112.14,168.12z"/>
		<path class="st6" d="M68.4,150.75c-0.99-0.13-2.01-0.2-2.8-0.23c-4.98-0.21-8.82,1.07-12.36,4.57c-2.16,2.14-6.85,8.23-4.53,11.75
			c1.81,2.76,7.58,2.21,10.47,3.26c7.12,2.59,13.52,7.58,19.57-0.42C84.38,162.22,79.97,144.67,68.4,150.75z"/>
		<path class="st6" d="M223.78,35.86c0.7-0.15,1.43-0.42,2.14-0.62c-2.02,6.29-3.16,17.15,1.78,18.43c3.53,0.92,6.17-4.49,8.64-5.9
			c3.59-2.03,4.86-0.56,8.71-0.98c8.95-0.96,4.09-10.32-1.48-13.87l1.06,1.91c-1.22-1.48-2.7-2.82-4.38-3.91
			c2.52-1.19,4.46-3.06,4.8-6.89l0.99,0.5c4.58-5.76-2.26-17.48-7.97-19.84c-3.53-1.46-11.49-1.28-14.84,0.62
			c-3.82,2.16-4.29,6.59-5.96,10.31c-2.02,4.5-5.94,9.04-4.34,14.31C214.42,34.81,219.03,36.88,223.78,35.86z"/>
		<path class="st6" d="M262.74,36.04c8.59,0.66,15.3-5.38,17.34-13.66c1-4.09,1.69-15.65-5.86-10.72
			C261.65,11.37,241.17,34.38,262.74,36.04z"/>
		<path class="st6" d="M286.09,15.13l-2.47,1.48c0.89-0.35,1.63-0.17,2.45-0.24C286.07,15.96,286.08,15.57,286.09,15.13z"/>
		<path class="st6" d="M279.21,35.82c-0.98,4.46-0.64,4.51,3.41,6.52c2.02,1,5.97,2.45,8.18,1.93c10.97-2.52,7.09-28.82-4.73-27.89
			c0,2.72,0.03,5.22-0.86,7.93C283.89,28.3,280.1,31.73,279.21,35.82z"/>
		<path class="st6" d="M310.9,53.61c8.21,1.35,14.46-4.66,19.57-10.27c8.87-9.76-2.02-13.97-11.26-10.91l4.1,1.47
			c-4.79-0.06-13.61,4.04-15.47,6.21C302.85,45.91,302.89,52.28,310.9,53.61z"/>
		<path class="st6" d="M340.45,40.34h-0.99c0.23,0.06,0.35,0.26,0.58,0.33C340.16,40.57,340.34,40.43,340.45,40.34z"/>
		<path class="st6" d="M327.14,54.67c-1.03,3.96,4.11,12.67,7.89,14.57c11.27,5.67,18.68-23.89,5.01-28.56
			C335.89,44.05,328.5,49.46,327.14,54.67z"/>
		<path class="st6" d="M262.58,55.67c3.92,5.29,3.32,2.57,8.43,2.69c4.41,0.1,16,9.8,19.28,2.93c1.72-3.6-13.03-14.42-16.55-16.11
			c-3.86-1.86-16.79-3.74-16.32,3.06C257.41,48.25,260.34,52.65,262.58,55.67z"/>
		<path class="st6" d="M324.75,73.97c1.23-5.84-5.31-14.29-10.56-15.81c-3.66-1.06-14.68,0.75-15.71,5.64
			C291.91,73.25,322.63,83.96,324.75,73.97z"/>
		<path class="st6" d="M331.58,79.9c-1.71,3.37-2.77,10.51-0.35,13.93c2.79,3.96,4.51,1.96,8.24,1.35
			c8.68-1.45,15.03-4.7,18.74-13.71c2.41-5.87,2.02-18.69-7.87-14.94C350.34,66.53,335.72,71.75,331.58,79.9z"/>
		<path class="st6" d="M356.02,94.28c-2.02,7.89,6.65,7.61,11.62,4.34c5.87-3.86,8.2-11.51,6.96-18.15
			c-2.68-14.25-9.92-9.98-9.92-9.98c-0.89,2.91-0.17,5.87-0.99,8.99C362.24,84.88,357.37,89,356.02,94.28z"/>
		<path class="st6" d="M395.28,110.06c3.93-6.48,11.13-15.04-1.28-15.82c-6.34-2.04-15.04,1.61-19.49,5.37
			c-7.63,6.46-4.4,13.93,3.09,18.78C385.18,123.3,391.63,116.09,395.28,110.06z"/>
		<path class="st6" d="M405.39,123.6c7.3,0.28,8.25-19.32,2.28-21.48l-1.97,1.98C407.82,107.11,392.69,123.11,405.39,123.6z"/>
		<path class="st6" d="M429.48,134.21c5.47-4.66,2.91-23.68,2.91-23.68c-7.29-3.2-14.19,0.45-17.79,6.96
			c-1.49,2.69-5.43,9.31-4.9,12.36c0.74,4.23,1.99,1.92,4.8,3.95C419.34,137.3,423.94,138.93,429.48,134.21z"/>
		<path class="st6" d="M445.22,133.5c4.23-1.24,6.92-6.59,6.76-10.79c-0.28-6.83-6.65-4.7-11.68-8.73l0.5,1.98
			c-1.36-2.48,0.98,3.4,0.99,4.84c0.01,2.78-2.03,4.99-2.28,7.51C439.07,132.69,440.14,134.99,445.22,133.5z"/>
		<path class="st6" d="M454.66,141.31c-4.94-2.67-16.5-2.52-18.78-1.8c-6.17,1.93-11.17,10.48-5.02,15.97
			c4.79,4.27,13.02-2.11,17.5-3.97C454.66,148.88,454.66,141.31,454.66,141.31z"/>
		<path class="st6" d="M445.34,159.94c-4.62,0.4-9.86,1.75-11.55,4.53c-4.37,7.18,5.1,8.78,9.75,7.14
			c4.7-1.65,14.05-6.11,12.25-12.71C454.31,153.46,449.02,156.69,445.34,159.94z"/>
		<path class="st6" d="M338.64,110.5c-2.47,4.98-3.97,18.95,4.75,15.21c3.46-1.48,5.33-6.02,8.93-7.71
			c2.28-1.08,6.48-0.47,8.34-2.08c7.4-6.39-5.11-11.27-10.3-11.75C345.71,103.51,340.78,106.16,338.64,110.5z"/>
		<path class="st6" d="M233.32,60.12c-5.29,3.16-10.8,19.42-2.14,20.88c3.48,0.58,7.79-3.47,10.83-4.63
			c3.04-1.17,6.83,0.32,9.02-0.45c5.68-2,3.67-7.81,0.2-11.53C248.51,58.62,238.46,57.05,233.32,60.12z"/>
		<path class="st6" d="M220.81,99.99c1.47-1.57,5.64-2.98,6.55-4.36c2.97-4.49-1.75-9.23-6.62-10.66
			c-2.41-5.13-11.44-0.03-13.48,4.44c-2.28,4.97-0.36,17.95,7.14,17.2C217.7,106.29,218.96,101.97,220.81,99.99z"/>
		<path class="st6" d="M278.68,70.88c-7.8-2.4-16.8,7.59-19.74,13.65c-4.87,10.01,3.9,10.69,10.95,7.22
			c5.5-2.72,4.12-2.81,9.08,0.68c3.41,2.41,6.59,5.02,8.6-1.18C287.56,91.25,286.19,73.19,278.68,70.88z"/>
		<path class="st6" d="M291.23,109.58c3.27,0.63,6.51-0.54,9.95,0.23c4.19,0.94,5.03,2.9,8.94-0.78c6.33-5.96,3.16-17.29,3.16-17.29
			C306.92,71.82,275.77,106.58,291.23,109.58z"/>
		<path class="st6" d="M321.67,134.3c4.87-1.76,10.11-8.44,7.69-12.57c0.29-1.42-0.7-3.23-1.89-4.68c-3.11-3.77-8.15-4.46-12.6-3.13
			c-5.01,1.49-15.01,12.27-10.22,18.39c2.24,2.84,4.97,0.72,7.88,0.96C316.14,133.57,318.01,135.62,321.67,134.3z"/>
		<path class="st6" d="M200.57,117.48c-0.39,4.59,3.36,3.52,6.92,4.52c4.08,1.14,5.86,1.89,7.45,5.8c1.33,3.27-0.42,8.67,2.35,10.99
			c2.89,2.42,9.67-0.49,10.93-3.22c7.52-16.31-12.52-23.84-16.42-24.21C207.89,110.98,201.03,112.14,200.57,117.48z"/>
		<path class="st6" d="M248.78,137.7c1.36-0.4,2.26-2.09,3.7-2.38c1.42-0.28,2.67,1.36,3.73,1.1c3.16-0.75,4.67-2.18,4.67-2.18
			c4.09-5.26,3.28-13.19-1.75-17.54c-7.95-6.85-12.64-0.58-15.64,7.13C240.94,130.39,239.91,140.35,248.78,137.7z"/>
		<path class="st6" d="M277.89,136.45c3.65-3.03,4.98-8.87,3.02-13.26c-5.58-12.53-13.37,8.32-11.14,15.01
			C269.77,138.21,275.45,138.48,277.89,136.45z"/>
		<path class="st6" d="M243.82,100.41c3.52-2.84,14.09-4.04,7.67-10.15c0,0-32.13,2.48-22.5,16.58
			C233.32,113.18,240.25,103.29,243.82,100.41z"/>
		<path class="st6" d="M349.86,139.44c-3.17,6.03-4.51,16.2,4.17,15.86c4.17-0.16,6.03-1.59,10.4-0.5c3.63,0.91,9.64-0.77,9.64-0.77
			c1.89-6.56,0.13-17.7-4.9-22.72C362.15,124.29,353.13,133.23,349.86,139.44z"/>
		<path class="st6" d="M347.37,156.49c0,0-5.46-6.98-11.39-8.24c-8.71-1.85-9.74,6.93-8.79,13.67c1.11,7.86,4.44,13.8,11.36,8.3
			C344.44,165.58,351.45,165.47,347.37,156.49z"/>
		<path class="st6" d="M390.38,166.38c10.45-4.09,11.47-24.39-2.97-21.2c-5.23,1.15-9.88,7.95-9.83,13.29
			C377.65,166.16,390.38,166.38,390.38,166.38z"/>
		<path class="st6" d="M398.79,122.96c-4.79-2.42-16.97-4.46-15.35,4.64c0.78,4.39,3.08,3.34,6.43,4.51
			c4.14,1.45,6.66,3.12,9.43,6.56c6.69,8.28,8.38,2.5,8.38,2.5C406.45,133.93,406.27,126.74,398.79,122.96z"/>
		<path class="st6" d="M245.4,144.28c-3.62-2.17-8.71-3.2-11.71-2.77c-3.35,0.49-8.67,2.59-9.37,6.63c-0.74,4.28,1.84,3.6,4.82,6.33
			c5.28,4.83,6.11,17.29,15.91,13.39C256.77,163.19,249.28,151.71,245.4,144.28z"/>
		<path class="st6" d="M263.81,162.81c2.59,0.47,6.63-3.32,9.42-3.78c2.78-0.45,7.08,1.56,9.46,0.4c5.7-2.8,3.09-8.67-1-12.29
			c-2.93-5.94-12.43-6.19-17.29-2.77C259.71,147.67,255.41,161.29,263.81,162.81z"/>
		<path class="st6" d="M327.62,176.05c-4-4.43-10.33-8.4-14.78-6.22c-6.08,2.98-5.83,17.93-2.55,22.52c2.93,4.09,5.77,4.32,9.8,1.89
			c4.11-2.47,4.49-3.81,9.24-4.44c10.76-1.44,2.92-9.47-2.22-14.52L327.62,176.05z"/>
		<path class="st6" d="M355.78,166.88c0,0-7.49,4.37-9.92,10.32c-4.72,11.58,2.3,11.3,10.92,8.7c5.76-1.73,13.56,0.93,16.04-4.8
			C377.3,170.75,364.54,164.26,355.78,166.88z"/>
		<path class="st6" d="M401.53,171.3c-4.4-3.37-14-3.75-17.28-1.28c-5.28,3.98-8.52,14.84,0.18,15.56c3.14,0.26,6.23-1.05,9.15-2.01
			c4.88-1.61,6.48-1.19,11.13-1.45C414.52,181.59,407.81,174.42,401.53,171.3z"/>
		<path class="st6" d="M411.99,149.54c2.44,6.44,4.28,11.02,2.62,18.29c-1.02,4.46-2.72,11.85,5.19,9.11
			C433.49,172.19,423.43,145.17,411.99,149.54z"/>
		<path class="st6" d="M411.63,149.58c0.12-0.05,0.23,0.01,0.36-0.04c-0.13-0.33-0.23-0.61-0.36-0.95V149.58z"/>
		<path class="st6" d="M294.01,172.32c2.3-0.55,5.04-7.66,6.38-9.31c2.96-3.65,6.52-5.65,10.32-8.13c7.9-5.14,1.03-11.28-6.33-8.76
			c0,0-7.92,4.82-10.42,7.73C291.41,156.81,284.98,174.47,294.01,172.32z"/>
		<path class="st6" d="M268.36,167.92c-6.09-0.56-20.3,2.28-10.23,8.37c3.02,1.83,6.51,3.09,9.57,4.94c2.9,1.76,6.29,6.35,9.48,7.03
			c6.05,1.28,6.32-3.79,4.68-8.41C287.63,173.59,272.45,168.3,268.36,167.92z"/>
		<path class="st6" d="M288.32,178.03c-4.09,1.56-4.06,14.78-2.2,18.1c1.82,3.24,9.93,1.17,13.31,0.3c6.75-1.73,5.1-7.26,0.98-11.75
			C297.75,180.47,292.07,176.59,288.32,178.03z"/>
		<path class="st6" d="M264.02,189.29c-0.03-0.11-0.08-0.22-0.12-0.33c-0.21-0.52-0.46-1.03-0.74-1.54
			c-0.22-0.41-0.42-0.81-0.71-1.23c-3-4.76-8.22-9.2-11.96-10.46c-10.47-3.49-8.25,5.73-8.4,12.6c-0.2,9.41,3.21,9.37,12.06,9.38
			c5.46,0.01,10.67-4.15,10.67-4.15C264.95,192.23,264.6,190.77,264.02,189.29z"/>
		<path class="st6" d="M137.35,90.79c3.56,7.14,17.75,4.41,17.75,4.41c0.32-1.92-0.47-3.54-1.65-4.98
			c-0.09-0.15-0.29-0.33-0.39-0.48c-0.31-0.33-0.5-0.71-0.86-1c-0.73-0.94-1.31-0.81-1.31-0.81
			C144.59,83.89,133.88,83.83,137.35,90.79z"/>
		<path class="st6" d="M108.39,115.93c0.97,0.36,10.78-0.58,11.58-1.18c2.71-2.06,1.73-6.05-1.1-7.53
			c-0.34-0.27-0.74-0.36-1.11-0.53c-0.09-0.02-0.13-0.1-0.23-0.11l0.04,0.03C111.27,103.9,101.56,113.4,108.39,115.93z"/>
	</g>
	<g>
		<path class="st6" d="M231.7,15.38c1.14-2.28,1-9.64,1-9.64c-7.74-6.95-19.83,11.1-12.9,16.82
			C224.33,26.29,229.77,19.2,231.7,15.38z"/>
		<path class="st6" d="M234.12,40.13c1.79-1.39,4.56-1.2,6.06-2.33c4.25-3.22,0.83-5.78-3.05-6.85c-0.06-0.03-0.13-0.04-0.2-0.06
			c-0.76-0.2-1.52-0.37-2.26-0.44l0.81,0.41c-7.35-0.27-12.69,14.46-6.75,14.44C231.36,45.29,232.39,41.47,234.12,40.13z"/>
		<path class="st6" d="M204.49,60.94c3.37-0.9,9.36-5.68,9.87-9.23c0.79-5.47-4.11-6.73-8.35-4.45
			C206.01,47.26,194.97,63.49,204.49,60.94z"/>
		<path class="st6" d="M188.24,23.53c0.83-4.38-12.02-12.81-14.86-6.43l-1.98,1.98C174.54,20.44,187.43,27.78,188.24,23.53z"/>
		<path class="st6" d="M152.15,39.03c1.23-1.21,1.53-3.76,2.89-5.19c1.46-1.52,4.83-1.75,5.21-4.2c0.63-3.99-2.48-4.19-5.42-3.19
			l0.75-0.45C143.72,23.22,144.53,46.58,152.15,39.03z"/>
		<path class="st6" d="M181.67,48.65c3.05-4.47-5.11-8.35-8.78-8.31c0,0-11.47,1.67-10.58,6.49
			C163.28,52.06,177.83,48.02,181.67,48.65z"/>
		<path class="st6" d="M121.26,52.39c-6.75,1.56-11.38,13.42-4.34,17.16c1.75-1.34,2.7-3.16,3.94-4.98
			c1.75-2.53,4.09-3.83,5.79-5.98C130.41,53.83,124.79,49.91,121.26,52.39z"/>
		<path class="st6" d="M142.73,73.3c2.38-0.73,11.05-6.54,11.54-9.04c0.55-2.8-1.4-4.3-3.77-4.7c0,0,0.43-0.14-0.16,0
			c-2.02-0.29-4.29,0.14-5.62,1.54c0,0-1.53,1.25-3.5,3.94C138.53,68.71,136.18,75.32,142.73,73.3z"/>
		<path class="st6" d="M180.9,87.37c2.05-2.77-0.9-7.11-4.03-9.39c0,0-1.23-1.12-2.55-1.33c-0.32-0.1-0.65-0.21-0.94-0.23l0.39,0.17
			c-6.66-0.56-15.32,7.52-5.36,9.61C171.33,86.82,179.15,89.75,180.9,87.37z"/>
		<path class="st6" d="M88.5,77.69c-8.61-5.29-20.14,10.02-11.98,13.28c3.05,1.21,10.49-5.21,12.87-7.13
			c1.99-1.61,4.32-1.77,2.41-4.76C91.11,78.02,89.8,77.71,88.5,77.69z"/>
		<path class="st6" d="M122.51,88.47c-0.07-0.1-0.21-0.11-0.29-0.19c-0.45-0.33-0.91-0.64-1.4-0.74c-0.41-0.11-0.84-0.07-1.33-0.02
			c-0.51,0.07-1.02,0.24-1.53,0.47c-0.33,0.15-0.58,0.06-0.93,0.29l0.24,0.02c-3.66,2.09-7.07,7.46-7.05,10.37
			c3,1.36,9.95-1.8,11.84-4.53c1.38-2,1.36-4.05,0.54-5.39C122.59,88.75,122.66,88.6,122.51,88.47z"/>
		<path class="st6" d="M89.85,113c-0.08-0.09-0.19-0.07-0.27-0.15c-0.54-0.51-1.06-0.88-1.83-0.96
			c-7.52-2.67-19.69,12.99-11.8,17.31c4.41,2.42,7.9-6.04,10.43-8.77c1.65-1.78,5.2-3,4.41-6.2c-0.16-0.66-0.72-0.87-1.11-1.28
			L89.85,113z"/>
		<path class="st6" d="M39.93,120.35c-5.18,0.8-14.22,9.05-11.84,15.14c2.75,7.07,11.39-2.4,15.06-4.01
			c2.45-1.08,6.6-0.76,7.95-3.67c0.41-0.89,1.68-1.46,1.68-1.46C53.54,120.69,43.73,119.77,39.93,120.35z"/>
		<path class="st6" d="M57.2,157.74c5.11,13.34,16.84-6.68,16.84-6.68C72.75,144.52,53.54,148.2,57.2,157.74z"/>
		<path class="st6" d="M111.11,135.24c0,0-12.38,4.66-3.99,11.02C118.06,154.56,120.86,136.59,111.11,135.24z"/>
		<path class="st6" d="M135.07,123.13c-2.31,8.42,5.5,3.91,9.65,2.32c3.63-1.4,15.82-2.56,15.82-2.56
			C159.5,109.4,138.2,111.69,135.07,123.13z"/>
		<path class="st6" d="M118.81,166.42c-3.99-1.61-9.47-1.39-13.2-1.04c-4.52,0.43-11.77,2.73-5.17,6.15
			c3.42,1.77,11.1,1.24,14.87,1.05C119.89,172.35,125.57,166.67,118.81,166.42z"/>
		<path class="st6" d="M153.04,166.37l3.54,2.48C155.56,167.28,154.32,166.65,153.04,166.37z"/>
		<path class="st6" d="M152.95,166.36c-6.22-1.21-13.68,10.25-5.29,13.41c3.45,1.3,10.76,0.41,12.19-3.49
			C161.46,171.89,156.38,168.88,152.95,166.36z"/>
		<path class="st6" d="M192.66,132.27c-3.97-0.27-9.57,1.82-12.86,3.91c-3.1,1.98-10.21,9.51-3.77,10.88
			c3.22,0.69,12.02-4.15,14.91-5.63C195.46,139.14,192.66,132.27,192.66,132.27z"/>
		<path class="st6" d="M211.94,161.44c5.03-9.91-19.25-12.28-19.56-1.75c-0.16,5.5,5.89,2.52,9.67,2.69
			C204.99,162.51,211.94,161.44,211.94,161.44z"/>
		<path class="st6" d="M217.19,181.24c-0.71-1.94-2.96-2.43-5.71-2c-0.62-0.18-0.58,0.12-0.58,0.12c-7.68,1.48-17.99,9.12-6.64,9.78
			c2.55,0.15,13.61-0.1,15.06-1.67C222.04,184.52,220.06,182.59,217.19,181.24z"/>
		<path class="st6" d="M247.58,156.25c2.94-4.2-5.76-11.05-5.76-11.05c-5.31-3.62-17.85-1.88-6.91,7.34
			C237.75,154.94,244.17,161.11,247.58,156.25z"/>
		<path class="st6" d="M210.95,112.01c0,0-5.26,0.14-2.83,5.95c1.29,3.08,10.23,5.51,12.97,6.61c5.57,2.22,7.49-0.06,3.34-5.17
			C220.74,114.86,216.33,113.08,210.95,112.01z"/>
		<path class="st6" d="M210.19,101.87c4.74-2.18,2.24-16.05,2.24-16.05C202.17,87.33,202.9,105.2,210.19,101.87z"/>
		<path class="st6" d="M235.87,98.88c1.61-1.09,8.7-6.92,7.74-9.18c-1.5-3.52-8.67-1-10.42,1.06l0.77-0.09
			C227.86,93.19,226.07,105.48,235.87,98.88z"/>
		<path class="st6" d="M229.99,67.78c2.88,3.55,12.58-2.14,14.29-5.48l0.29,0.28c-0.04-0.17-0.16-0.23-0.21-0.39
			c0.41-0.87,0.06-1.47-0.95-1.78C239.14,55.29,226.38,63.33,229.99,67.78z"/>
		<path class="st6" d="M265.78,84.79c5.03,2.14,12.4-10.84,12.4-10.84c-1.53-1.92-3.56-2.29-5.6-1.79
			c-0.32-0.04-0.09,0.04-0.09,0.04C266.62,73.72,260.66,82.62,265.78,84.79z"/>
		<path class="st6" d="M264.56,51.47c2.54,0.55,12.03,2.84,13.26-0.71c0.82-2.36-1.97-4.18-5.13-5.38
			c-1.19-1.24-3.16-1.65-5.38-1.44c-0.61-0.09-1.13-0.15-1.51-0.15l0.55,0.21C260.53,44.95,254.9,49.37,264.56,51.47z"/>
		<path class="st6" d="M268.28,26.43c3.55-1.07,10.8-6.71,10.87-10.83c0.11-5.61-5.69-4.66-8.83-1.82
			C263.57,18.5,258.05,29.52,268.28,26.43z"/>
		<path class="st6" d="M296.43,25.19c4.06-6.52-10.74-19.01-11.83-6.11C284.6,19.08,290.84,34.17,296.43,25.19z"/>
		<path class="st6" d="M314.98,44.07c4.17-0.2,13.23-1.86,14.59-6.69c0.57-2.02-0.48-4.46-0.48-4.46
			c-3.69-2.91-11.82-1.24-15.23,1.52C308.8,38.54,307.81,44.42,314.98,44.07z"/>
		<path class="st6" d="M340.07,60.62c9.31,0.09,3.37-24.33-3.57-15.34C336.5,45.28,333.72,60.56,340.07,60.62z"/>
		<path class="st6" d="M355.46,68.37l-0.78-0.48c-8.51-3.43-23.12,11.29-15.2,15.19C346.71,86.64,361.22,72.05,355.46,68.37z"/>
		<path class="st6" d="M319.06,70.08c5.7-5.5-8.13-14.77-13.7-8.98C305.36,61.1,314.51,74.48,319.06,70.08z"/>
		<path class="st6" d="M365.88,71.74l-0.25,0.08c-4.51,3.82-9.32,19.25-1.21,17.74C373.38,87.9,370.27,75.09,365.88,71.74z"/>
		<path class="st6" d="M395.83,101.2c3.38-5.03-1.81-6.28-6.73-5.94c-0.49,0.01-0.96,0.05-1.44,0.13c-1.95,0.25-3.72,0.72-4.69,1.29
			l1.18-0.12c-6.69,3.52-10.6,12.53-2.93,11.81C383.65,108.13,394.57,103.07,395.83,101.2z"/>
		<path class="st6" d="M354.08,110.73c2.91-2.41,1.1-4.47-1.57-5.24c-4.75-4.93-19.56,10.71-10.2,10.96
			c1.78,0.04,3.66-3.11,5.06-3.89C349.04,111.63,352.88,111.72,354.08,110.73z"/>
		<path class="st6" d="M296.98,92.2c-0.79,3.79,4.97,11.36,8.65,11.13c7.54-0.44,5.09-11.12,0.57-15.04l0.15-0.01
			c-0.08-0.05-0.18-0.04-0.26-0.08c-2.06-1.72-4.48-2.18-6.66,0.58l0.06-0.01C298.29,89.62,297.29,90.73,296.98,92.2z"/>
		<path class="st6" d="M321.63,117.6c-2.68-2.25-8.48-1.66-10.34,1.27c-3.62,5.69,3.47,5.32,6.93,6.18
			c3.18,0.8,11.03,4.64,9.71-2.39C327.48,120.27,324.62,118.55,321.63,117.6z"/>
		<path class="st6" d="M299.43,150.07c0,0-6.62,5.89-6.05,10.52c1.56,0.26,11.71-6.09,12.92-7.63
			C310.46,147.68,303.12,147.61,299.43,150.07z"/>
		<path class="st6" d="M280.15,146.61c-0.26-6.14-14.38-4.63-16.35,1.59c2.26,0.67,4.59,0.04,6.93,0.34
			c2.51,0.33,6.55,3.38,8.68,3.19C286.78,151.09,280.15,146.61,280.15,146.61z"/>
		<path class="st6" d="M255.94,116.95c-4.48-3.98-9.27,2.78-9.03,6.96c1.66,0.04,9.42-0.42,10.27-1.99
			C258.76,118.96,255.94,116.95,255.94,116.95z"/>
		<path class="st6" d="M277.1,129.33c4.31-1.04,3.49-10.65-2.05-8.99l1.64-0.91c-1.25,0.09-2.16,0.72-2.86,1.56
			c-0.52,0.27-1,0.44-1.59,0.91l1.52-0.84C271.31,124.13,272.4,130.46,277.1,129.33z"/>
		<path class="st6" d="M265.74,169.27c-6.18-0.17-11.14,5.38,0.84,6.47c2.59,0.24,9.5,0.96,9.1-3.19
			C275.34,169.09,268.84,168.91,265.74,169.27z"/>
		<path class="st6" d="M247.71,177.36c-1.06-0.46-1.86-0.51-2.35-0.09c-0.27,0-0.52-0.03-0.8-0.02l0.61,0.13
			c-0.93,1.04-0.85,3.34-0.05,5.31c0.96,2.37,5.25,8.72,7.68,8.38c3.77-0.53,3.04-6.81,1.62-9.38
			C252.85,178.86,250.5,177.71,247.71,177.36z"/>
		<path class="st6" d="M290.64,179.47c0,0,0.23-0.24-0.09,0.02c-0.04,0.02-0.08,0.06-0.11,0.08c-0.34,0.28-0.7,0.51-0.97,0.84
			c-0.3,0.27-0.63,0.41-0.91,0.79l0.87-0.73c-3.41,4.42-0.84,13.23,5.98,9.11C301.8,185.72,295.54,177.3,290.64,179.47z"/>
		<path class="st6" d="M317.04,170.78c-7.44-4.07-13.25,13.17-2.26,15.26C323.71,187.72,326.44,173.17,317.04,170.78z"/>
		<path class="st6" d="M334.29,150.91c-0.56-0.26-1.21-0.08-1.88,0.38c-1.44,0.44-2.73,1.1-3.33,2.23c0,0-2.15,10.42,5.44,9.5
			c3.44-0.42,7.97-5.88,6.3-9.43C339.82,151.46,336.99,150.68,334.29,150.91z"/>
		<path class="st6" d="M355.28,129.8c0,0-7.36,14.38,6.18,12.61C376.77,140.4,365.26,124.26,355.28,129.8z"/>
		<path class="st6" d="M392.74,150.03c-0.37-2.8-2.35-3.82-4.58-3.85c-0.09-0.02-0.19-0.06-0.28-0.08
			c-0.07,0.01-0.13,0.03-0.21,0.03c-0.91-0.1-1.82,0.17-2.71,0.68c-1.39,0.54-2.67,1.27-3.48,2.26c0,0-3.59,9.84,1.25,10.36
			C386.21,159.82,393.22,153.61,392.74,150.03z"/>
		<path class="st6" d="M382.23,174.75c1.91,3.31,20.01-1.94,20.01-1.94C401.46,161.94,377.85,167.14,382.23,174.75z"/>
		<path class="st6" d="M415.59,153.53c0.51-0.55,1.03-0.77,1.56-1.05c-0.02-0.12-0.04-0.32-0.07-0.43L415.59,153.53z"/>
		<path class="st6" d="M417.14,152.48c1.07,4.57,0.05,20.05,6.59,13.96C429.11,161.42,422.78,149.54,417.14,152.48z"/>
		<path class="st6" d="M386.66,127.6c1.25,1.3,10.06,3.25,11.64,3.24c3.1-0.02,4.14-1.43,3.28-3.03l1.15,1.01
			C405.58,119.62,379.01,119.66,386.66,127.6z"/>
		<path class="st6" d="M427.84,112.5h0.1c-3-6.53-18.63,10.33-6.82,13.77C429.67,128.76,433.6,114.85,427.84,112.5z"/>
		<path class="st6" d="M441.79,120.9l0.09-0.16c0.45,3.86,5.44,8.76,7.54,2.68C452.37,114.84,437.28,111.5,441.79,120.9z"/>
		<path class="st6" d="M451.64,141.82l1.02,0.34c-4.13-4.51-24.08-5.42-23.2,3.99c0.5,5.26,5.73,3.27,9.34,1.85
			c3.33-1.31,12.48-2.6,14.42-4.84C452.9,142.48,452.2,142.22,451.64,141.82z"/>
		<path class="st6" d="M447.72,159.46c0,0-0.81,1.1-1.93,3.28c2.78,3.16,10.6,2.28,12.13-2.06
			C460.82,152.47,450.64,156.16,447.72,159.46z"/>
		<path class="st6" d="M365.92,168.4c-3.64-8.49-26.15,4.35-16.8,11.02c3.13,2.24,11.44-2.38,14.32-3.89
			c2.17-1.13,5.23-1.09,4.66-4.61C367.93,169.92,367.01,169.09,365.92,168.4z"/>
	</g>
	<g class="st5">
		<g class="st5">
			<path class="st6" d="M142.73,97.72c10.9-1.88,21.21,5.52,31.66,3.6c17.04-3.13,9.34-12.43,13.15-24.19
				c3.87-11.92,17.53-14.42,24.59-24.34c3.86-5.43,4-12.58,8.36-18c2.72-3.39,14.69-8.35,15.84-12.34
				c2.73-9.43,1.31-15.89,1.31-15.89c-12.36-7.29-17.19-0.23-20.61,8.92c-0.16,0.11-0.34,0.19-0.49,0.31l0.44-0.19
				c-3.87,10.42-5.93,23.49-15.08,21.29c-10.05-2.43-15.09-15.63-27.54-17.26c-12.08-1.59-23.06,4.46-27.97,15.89
				c-4.54,10.56,0.54,13.16-10.45,19.58c-4.5,2.63-10.04,0.43-14.71,3.94c-6.93,5.21-3.87,9.36-6.54,14.84
				c-5.72,11.72-2.43,7.85-17.43,7.9c-11.29,0.04-22.24,1.27-29.02,11.16c-5.48,8-0.27,23.13-5.01,29.2
				c-6.47,8.3-18.17-0.23-25.52,9.16c-14.72,18.81,18.41,43.65,35.38,30.97c8.49-6.34,9.58-19.31,15.53-27.88
				c8.23-11.86,17.08-11.65,28.09-18.9C126.56,109.03,130,99.92,142.73,97.72z"/>
		</g>
		<path class="st6" d="M293.6,85.6c-10.22-4.84-19.44-9.58-29.55-15.54c-7.23-4.27-20.62-16.25-29.04-9.45
			c0,0-13.37,15.93-17.99,20.43c-6.85,6.67-6.49,12.61-11.67,19.17c-4.63,5.86-12.69,3.35-14.23,11.64
			c26.55,12.67,36.93-16.51,62.35-14.2c7.3,0.67,26.19,7.33,32.26,11.19c8.78,5.57,12.46,24.68,26.34,22.92
			C338.48,128.43,302.9,90.01,293.6,85.6z"/>
		<path class="st6" d="M160.53,146.11c30.18-18.59-3.3-30.14-3.3-30.14c-11.69-4.19-15.09,2.46-21.16,9.52
			c-3.82,4.46-2.55,6.62-7.88,10.2c-4.06,2.73-8.65-0.7-13.16,3.94c-4.46,4.59-2.24,10.2-3.81,15.3c-2.13,6.9-0.68,4.99-4.65,10.48
			c-4.33,6-18.83,15.99,0.48,18.02c14.12,1.48,15.9-13.18,22.34-21.42C139.06,149.63,149.19,153.1,160.53,146.11z"/>
		<path class="st6" d="M214.08,176.33c-2.7-4.29-2.01-9.16-4.22-12.98c-2.93-5.09-11.77-13.11-11.77-13.11
			c-12.71-3.72-17.83,3.61-19.97,13.45c-1.03,4.76,7.11,10.54,0.38,15.63c-6.59,4.98-4.22-1.31-9.32-2.96
			c-7.28-2.35-19.6-18.85-24.08,0.54c-3.16,13.63,10.31,14.17,20.04,15.14c9.22,0.92,59.07,10.84,59.12-5.9
			C224.29,179.84,216.46,180.09,214.08,176.33z"/>
	</g>
	<g class="st3">
		<path class="st7" d="M281.25,143.65c-3.5-12.74-23.37-28.84-38.71-26.55c-7.76-4.81-17.12,0.13-16.48,9.09
			c0.63,8.6,17.55,13.75,20.72,21.31c5.47,13.02-11.73,39.38,14.58,38.53C279.46,185.45,285.16,157.86,281.25,143.65z"/>
	</g>
	<path class="st8" d="M442.06,131.83c-3.84-8.02,2.27-15.23-10.57-18.49c-8.3-2.11-13.47,6.45-21.66,1.18
		c-6.44-4.15-4.45-12.38-12.93-15.91c-7.74-3.21-15.99,4.37-22.34-1.65c-5.74-5.43-1.03-16.08-6.78-21.72
		c-4.29-4.21-10.88-4.66-15.36-8.93c-9.58-9.12-15.31-26.25-26.78-26.66l0.32-0.14c-9.32-1.8-29.62,2.24-24.35,15.78
		c2.69,6.9,10.79,4.42,15.12,8.71c6.28,6.22,4.65,13.16,8.11,20.38c9.66,20.19,18.3,3.57,32.94,11.9
		c5.95,3.37,6.87,10.32,11.56,14.92c-9.57-2.35-19.94-1.59-28,3.26c-5.99,3.6-13.77,10.48-19.41,14.63
		c-7.38,5.42-13.68,9.09-14.19,19.65c9.12-2.39,12.92-11.68,21.46-14.75c4.49-1.62,9.16,1.21,13.99-0.58
		c4.04-1.5,5.7-6.77,9.35-8.07c11.74-4.17,11.22-0.3,20.47,4.18c8.73,4.22,14.14,3.22,22.9,6.03c17.33,5.57,12.42,33.46,35.49,32.73
		c8.13-0.25,16.45-6.02,18.66-14.02C453.09,143.31,446.32,140.74,442.06,131.83z"/>
	<path class="st8" d="M402.41,167.37c-0.45-18-17.43-14.87-29.32-19.94c-7.03-2.99-9.48-9.7-18.69-7.2
		c-9.27,2.52-6.97,11.06-13.08,15.24c-5.16,3.53-11.34,0.7-16.8,5.16c-6.82,5.58-4.2,14.72-10.2,19.84
		c-10.16,8.65-31.56-2.28-36.91,14.48c14.42,6.71,50.94-2.37,67.66-3.95c15.24-1.44,62.45-2.3,70.4-16.45
		c-3.98-3.35-9.25-5.66-13.06-9.81V167.37z"/>
	<g class="st5">
		<path class="st6" d="M142.01,200.18c-6.23-1-12.53-0.46-18.78-1.3c-12.97-1.73-26.16-3.72-39.07-6.1
			c-13.05-2.41-25.73-7.74-38.4-11.7c-7.24-2.26-13.62-5.16-19.75-9.69c-6.75-4.99-7.48-9.66-9.86-16.59
			c-0.91,1.25-0.67,1.9-0.67,1.9c-10.66,27.38,48.88,34.43,64.59,38.21c13.12,3.15,25.16,4.41,38.52,5.59
			c11.65,1.03,29.21,5.8,40.35,3.04C156.34,200.93,146.07,200.83,142.01,200.18z"/>
	</g>
	<g>
		<path class="st6" d="M14.88,204.27c0.48-0.67,1.05-0.88,1.59-1.29c0.52-0.7,0.98-1.45,1.7-2.01L14.88,204.27z"/>
		<path class="st6" d="M16.47,202.99c-6.08,8.11,0.89,24.63,10.88,17.72C36.04,214.7,23.91,197.31,16.47,202.99z"/>
		<path class="st6" d="M65.63,216.14l1.97-2.64c-10.91,5.91-2.01,25.87,8.63,19.76C87.53,226.79,73.37,207.47,65.63,216.14z"/>
		<path class="st6" d="M124.95,226.02h1.32c-10.63,2.36-3.09,22.27,7.95,17.93C147.11,238.89,134.79,218.99,124.95,226.02z"/>
		<path class="st6" d="M186.23,230.64h3.96c-11.92-1.79-11.25,23.64,5.94,19.22C211.36,245.94,199.37,226.3,186.23,230.64z"/>
		<path class="st6" d="M262.03,230.64l3.3-0.66c-13.71,0.9-15.01,18.39,0,17.54C282.33,246.55,274.47,224.91,262.03,230.64z"/>
		<path class="st6" d="M328.86,227.13c-10.92,1.89-7.53,19.53,6.33,14C349.46,235.44,340.07,219.59,328.86,227.13z"/>
		<path class="st6" d="M386.16,224.2c-2.51,1.76-4.26,4.38-3.38,7.29c1.82,6.05,12.87,6.16,16.97,3.11
			C412.33,225.23,395.76,214.12,386.16,224.2z"/>
		<path class="st6" d="M459.82,206.11c-10.12-4.37-21.49,15.42-5.69,17.33C470.78,225.46,467.21,204.32,459.82,206.11z"/>
		<path class="st6" d="M39.4,241.41c-5.8,8.31,1.7,24.58,11.45,17.36C59.34,252.48,46.65,235.5,39.4,241.41z"/>
		<path class="st6" d="M94.18,254.31l1.88-2.7c-10.7,6.26-1.16,25.91,9.27,19.47C116.42,264.24,101.63,245.4,94.18,254.31z"/>
		<path class="st6" d="M156.48,261.23l1.32-0.04c-10.54,2.71-2.35,22.36,8.53,17.66C179.05,273.36,166.08,253.88,156.48,261.23z"/>
		<path class="st6" d="M224.16,262.74l3.95-0.12c-11.97-1.41-10.47,23.99,6.57,19.01C249.78,277.21,237.15,257.98,224.16,262.74z"/>
		<path class="st6" d="M299.92,260.26l3.27-0.77c-13.67,1.35-14.39,18.88,0.57,17.53C320.72,275.49,312.16,254.13,299.92,260.26z"/>
		<path class="st6" d="M361.57,254.57c-10.84,2.24-6.89,19.76,6.79,13.78C382.43,262.19,372.53,246.66,361.57,254.57z"/>
		<path class="st6" d="M423.16,246.43c-2.45,1.84-4.11,4.52-3.15,7.4c2.02,5.99,13.07,5.75,17.07,2.56
			C449.35,246.61,432.42,236.05,423.16,246.43z"/>
	</g>
	<g class="st9">
		<path class="st6" d="M197.95,324.22c-5.61-19.64-15.1-37.21-22.61-56.02c-8.68-21.76-21.13-36.36-41.83-47.63
			c-18.78-10.22-40.43-12.14-61.02-15.61c-19.52-3.28-48.04-6.72-60.81-22.85c-3.63,2.84-1.65,26.13-0.76,31.38
			c1.6,9.49,3.93,21.89,6.83,31.07c6.07,19.2,15.65,38.68,26.37,55.76c12.88,20.53,26.99,31.42,45.03,47.2
			c15.82,13.85,37.32,20.86,56.55,27.93c10.09,3.71,21.44,5.12,32.13,5.93c7.56,0.57,18.4-0.99,25.59-4.14
			C219.52,370.21,201.09,335.21,197.95,324.22z"/>
	</g>
	<g class="st9">
		<path class="st6" d="M163.99,337.42c-15.37-31.87-35.35-58.7-60.13-83.86c-13.14-13.34-28.29-25.34-43.65-36.15
			c-34.96-24.62-39.4-13.14-39.4-13.14c-7.38,12.04,0.39,32.81,4.75,44.78c5.41,14.87,13.8,29.49,22.11,42.88
			c17.41,28.04,44.42,53.35,74.63,67.2c11.73,5.37,27.1,10.23,40.2,9.94C181.29,368.64,168.76,347.3,163.99,337.42z"/>
	</g>
	<g class="st10">
		<g class="st11">
			<path class="st6" d="M58.38,244.48c-0.35-11.65,1.17-23.13-8.68-31.68c-6.9-5.99-29.87-12.08-26.91,4.66l0.55-1.18
				c-2.96,13.81,8.08,34.42,13.3,44.02c4.88,8.98,10.55,18.79,16.61,27.03c4.08,5.54,17.62,24.98,24.92,23.23
				c0.59-11.31-9.53-23.55-13.21-33.94C61.24,266.16,58.72,255.58,58.38,244.48z"/>
		</g>
		<g class="st11">
			<path class="st6" d="M119.67,344.34c-10.39-5.68-20.5-11.69-30.52-18.03c1.02,4.93,6.71,8.62,10.75,11.75
				c0,0,11.06,8.89,18.45,13.84c5.32,3.56,22.95,14.89,28.43,7.96C144.58,353.39,125.88,347.72,119.67,344.34z"/>
		</g>
	</g>
	<g class="st12">
		<path class="st0" d="M475.94,177.01c-9.42,12.36-27.85,16.39-42.33,20.28c-26.06,7-52.47,11.51-79.32,14.55
			c-13.02,1.47-76.61,5.94-76.61,5.94c8.3,6.92,17.39,12.09,23.75,17.65c8.59,7.51,18.59,14.36,25.46,23.59
			c10.02,13.48,17.25,30.05,13.82,46.99c-3.64,18.01-15.51,34.7-28.61,47.17c-12.86,12.23-31.29,17.85-47.76,23.27
			c-7.71,2.54-38.06,8.89-45.48,11.12c4.17,2.86,71.27,0.03,78.1-1.26c11.8-2.24,22.73-3.41,34.6-6.4
			c17.03-4.28,44.22-15.49,68.54-33.94c11.77-8.93,55.91-52.06,68.39-101.49C471.35,233.11,476.25,207.24,475.94,177.01z"/>
	</g>
	<g class="st10">
		<path class="st0" d="M476,180.61c-9.97,11.74-35.77,17.23-44.66,19.52c-17.63,4.54-47.83,10.8-66.84,12.53
			c0,0,9.98,6.8,12.54,9.18c3.59,3.35,7.39,7.49,10.41,11.37c5.39,6.94,7.96,16.27,9.06,24.87c2,15.65,0.82,29.64-5.12,44.22
			c-7.05,17.29-18.4,31.7-32.04,44.12c-13.25,12.04-27.37,20.55-43.86,27.55c-7.26,3.08-44.45,14.48-51.21,14.3
			c20.76-0.05,50.11-3.19,71.75-9.57c10.32-3.04,17.82-6.52,27.48-11.36c10.29-5.17,22.7-11.21,31.97-17.98
			c18.71-13.66,36.94-33.51,48.85-53.21c10.88-17.99,18.64-34.82,25.13-59.82C472.86,223.26,477.22,183.99,476,180.61z"/>
	</g>
</g>
</svg>
