<?xml version="1.0" encoding="utf-8"?>
<!-- Generator: Adobe Illustrator 25.4.1, SVG Export Plug-In . SVG Version: 6.00 Build 0)  -->
<svg version="1.1" id="Layer_1" xmlns="http://www.w3.org/2000/svg" xmlns:xlink="http://www.w3.org/1999/xlink" x="0px" y="0px"
	 viewBox="0 0 411.05 270.05" style="enable-background:new 0 0 411.05 270.05;" xml:space="preserve">
<style type="text/css">
	.st0{fill:#ED8222;}
	.st1{fill:#D27428;}
	.st2{fill:#C96728;}
	.st3{fill:#F89A37;}
	.st4{fill:#F4C524;}
	.st5{fill:#EDA321;}
	.st6{fill:#E8B121;}
	.st7{fill:#EB8B23;}
</style>
<g>
	<g>
		<path class="st0" d="M78.44,108.54l1.95,27.26c-8.87,6.75-17.32,13.2-24.86,18.77l-0.1,0.21c-17.6-6.83-22.48-8.28-22.48-8.28
			c-6.16-3.36,2.55-9.98,21.53-21.1C58.72,122.89,67.38,116.73,78.44,108.54z"/>
		<path class="st1" d="M83.64,216.98c61.37,25.43,110.2,41.02,122.92,38.26v14.69c-13.67,1.61-59.21-13.08-116.02-36.6
			c-63.71-26.41-77.78-30.48-77.78-30.48c-1.02-0.55-1.66-1.19-1.98-1.87h0.07C3.61,192.31,0.74,185.3,0,183.27
			c0.43,0.63,1.06,1.19,1.97,1.7C1.97,184.96,16.79,189.21,83.64,216.98z"/>
		<path class="st2" d="M209.11,254.05c10.93-11.08,69.12-57.32,124.09-101.44c43.31-34.69,71.95-53.41,77.1-62.59
			c-1.66,5.73-5.69,19.23-8.83,22.89c-5.69,9-32.73,26.75-73.12,59.14c-52.35,42-107.78,86.03-118.25,96.6
			c-0.68,0.72-1.85,1.15-3.54,1.27v-14.69C207.73,255.02,208.58,254.6,209.11,254.05z"/>
		<path class="st3" d="M333.2,152.61c-54.97,44.11-113.16,90.35-124.09,101.44c-0.53,0.55-1.38,0.97-2.55,1.19v-9.93
			c1.17-0.21,2.02-0.63,2.55-1.19c10.93-11.13,69.12-57.32,124.09-101.44c47.13-37.83,76.89-56.64,77.85-64.84v9.55
			c0,0-0.27,0.93-0.7,2.46c0,0.04,0,0.09-0.04,0.17C405.15,99.2,376.51,117.92,333.2,152.61z"/>
		<path class="st4" d="M206.57,255.23c-12.72,2.76-61.55-12.82-122.92-38.26c-66.85-27.77-81.67-32.01-81.67-32.01
			c-0.91-0.51-1.55-1.06-1.97-1.7c-0.04-0.09-0.04-0.21-0.1-0.26c-0.04-0.26-0.11-0.38-0.11-0.38v-9.85
			c0.28,0.9,1.02,1.62,2.19,2.25c0,0,14.82,4.25,81.67,32.01c61.37,25.43,110.2,41.02,122.92,38.26V255.23z"/>
		<path class="st5" d="M210.49,78.65c15.1,4.97,30.93,10.23,46.92,15.5c-9.4,7.51-18.74,14.99-27.96,22.29l-15.77-5.35L210.49,78.65
			z"/>
		<path class="st5" d="M206.99,151.21c15.1,5.01,30.34,10.06,45.27,14.9c-9.56,7.69-18.22,14.73-25.46,20.72l-16.3-5.56v-0.09
			L206.99,151.21z"/>
		<path class="st5" d="M272.44,99.11c15.16,4.97,30.36,9.98,44.97,14.78c-2.27,1.78-4.63,3.65-7,5.56
			c-7.03,5.65-14.14,11.33-21.17,16.94l-16.58-5.52h-0.21V99.11z"/>
		<path class="st5" d="M374.05,62.39c5.8,3.27-4.18,11.25-25.28,27.3c0,0-5.94-1.78-13.97-4.29V49.14
			C355.41,55.63,371.18,60.77,374.05,62.39z"/>
		<path class="st5" d="M271.76,65.19V29.48c15.46,4.84,32.35,10.07,47.83,14.86c-10.43,8.41-21.36,17.2-32.59,26.16
			c-5.24-1.66-10.4-3.23-15.39-4.76l-0.23-0.3L271.76,65.19z"/>
		<path class="st5" d="M218.62,12.28c5.05,2,19.6,6.75,37.94,12.49c-8.7,7-17.79,14.27-27.11,21.74c-8.7-4.93-15.35-6.63-20.61-6.46
			v-29.8V10.2C211.66,10.2,214.91,10.8,218.62,12.28z"/>
		<path class="st5" d="M145.66,57.08c14.29,4.76,31.29,10.44,49.85,16.56c-7.75,6.16-15.46,12.31-23.06,18.38l-25.3-7.56
			L145.66,57.08z"/>
		<path class="st5" d="M130.03,125.78c-8.7,6.92-16.94,13.46-24.5,19.4L80.4,135.8l-1.95-27.26
			C92.2,113.13,109.95,119.07,130.03,125.78z"/>
		<path class="st6" d="M188.39,131.13l25.28-20.04l15.77,5.35c-8.6,6.84-17.04,13.55-25.11,19.96
			C198.97,134.65,193.64,132.91,188.39,131.13z"/>
		<path class="st6" d="M147.21,159.45l19.55,6.75c-11,8.75-20.47,16.22-27.74,21.95v0.04c-6.33-2.37-12.97-4.92-19.87-7.64l28-21.1
			H147.21z"/>
		<path class="st6" d="M183.77,202.67l26.73-21.48v0.09l16.3,5.56c-10.04,8.28-17.32,14.52-20.34,17.53
			c-2.19,2.17-10.25,1.44-22.69-1.66V202.67z"/>
		<path class="st6" d="M272.44,131.47v-0.6h0.21l16.58,5.52c-8.43,6.75-16.79,13.46-24.69,19.83h-0.07
			c-5.31-1.74-10.74-3.57-16.2-5.35L272.44,131.47z"/>
		<path class="st6" d="M348.76,89.69c-5.52,4.2-11.8,9-18.77,14.35c-4.92-1.66-9.98-3.31-15.03-4.93l19.83-13.71
			C342.82,87.9,348.76,89.69,348.76,89.69z"/>
		<path class="st6" d="M287.01,70.49c-5.69,4.59-11.42,9.17-17.22,13.76c-5.2-1.7-10.47-3.44-15.63-5.13l17.22-13.67l0.23,0.3
			C276.6,67.27,281.76,68.84,287.01,70.49z"/>
		<path class="st6" d="M208.84,40.05c5.27-0.17,11.91,1.53,20.61,6.46c-7.11,5.73-14.33,11.5-21.61,17.32
			c-8.3-2.76-16.37-5.48-24.03-8.03c1.13-0.97,6.71-6.11,7.35-6.71C195.51,45.15,200.45,40.31,208.84,40.05z"/>
		<path class="st6" d="M147.14,84.46l25.3,7.56c-10.32,8.2-20.36,16.22-30.04,23.9c-8.7-2.93-17.05-5.69-24.86-8.28
			C127.91,99.58,138.06,91.64,147.14,84.46z"/>
		<path class="st6" d="M105.53,145.18c-9.51,7.51-17.9,14.18-24.82,19.66c-10.47-4.2-18.74-7.51-25.28-10.06l0.1-0.21
			c7.54-5.56,15.99-12.02,24.86-18.77L105.53,145.18z"/>
		<path class="st0" d="M208.84,10.25v29.8c-8.39,0.26-13.33,5.1-17.68,9.04c-0.64,0.6-6.22,5.73-7.35,6.71
			c-9.08-3.06-17.68-5.9-25.67-8.57c17.81-14.01,31.95-25.35,36.2-28.96c0,0,4.25-8.07,14.5-8.07V10.25z"/>
		<path class="st0" d="M145.66,57.08l1.49,27.39c-9.09,7.17-19.23,15.12-29.6,23.18c-9.51-3.18-18.34-6.16-26.16-8.75
			C108.19,86.16,127.91,70.92,145.66,57.08z"/>
		<path class="st0" d="M147.14,131.47v27.98l-28,21.1c-5.73-2.3-11.7-4.67-17.79-7.22c-2.25-0.93-4.42-1.87-6.54-2.72
			c13.27-10.57,30.76-24.37,50.27-39.83C145.76,131,146.46,131.26,147.14,131.47z"/>
		<path class="st0" d="M210.49,78.65l3.18,32.44l-25.28,20.04c-10.53-3.44-20.89-6.88-30.93-10.23
			C174.4,107.43,192.53,93.04,210.49,78.65z"/>
		<path class="st0" d="M271.76,29.48v35.71l-0.38,0.26l-17.22,13.67c-10.61-3.53-21.08-6.97-31.29-10.32
			C239.83,55.21,256.52,41.79,271.76,29.48z"/>
		<path class="st0" d="M334.79,49.14V85.4l-19.83,13.71c-9.89-3.27-19.97-6.54-30.12-9.89c17.32-13.84,34.27-27.47,49.89-40.08
			C334.79,49.14,334.79,49.14,334.79,49.14z"/>
		<path class="st0" d="M272.44,130.87v0.6l-24.16,19.4c-9.57-3.1-19.25-6.28-28.91-9.47c16.94-13.46,35.01-27.86,53.07-42.29V130.87
			z"/>
		<path class="st0" d="M183.77,202.67v0.04c-8.24-2.12-18.39-5.27-30.02-9.3c13.44-10.62,32.08-25.39,53.24-42.2l3.5,29.97
			L183.77,202.67z"/>
		<path class="st7" d="M15.13,150.53c0,0,13.72,3.99,75.58,29.6c55.11,22.84,99.31,37.15,112.6,35.58v0.04l3.25,29.55
			c-12.72,2.76-61.55-12.82-122.92-38.26c-66.85-27.77-81.67-32.01-81.67-32.01c-1.17-0.63-1.91-1.36-2.19-2.25v-0.08
			c-0.15-6.8,11.91-24.12,13.4-26.24C12.59,148.15,13.23,149.47,15.13,150.53z"/>
		<path class="st0" d="M411.05,77.29v0.55c-0.96,8.19-30.72,27-77.85,64.84c-54.97,44.11-113.16,90.31-124.09,101.44
			c-0.53,0.55-1.38,0.97-2.55,1.19l-3.25-29.55v-0.04c1.66-0.13,2.76-0.55,3.46-1.23c10.19-10.27,63.96-53.11,114.83-93.84
			c47.09-37.79,75.4-55.03,71.74-61.61C397.38,62.81,408.38,73.26,411.05,77.29z"/>
		<path class="st4" d="M393.35,59.03c-0.89-0.85-1.49-1.4-1.49-1.4c-9.51-5.35-152.41-47.6-171.64-55.37
			c-19.23-7.69-26.83,6.67-26.83,6.67C178.82,21.37,59.95,114.95,38.96,127.22c-14.84,8.66-23.97,14.86-25.67,19.07
			c0,0.04-0.07,0.08-0.11,0.17c-0.6,1.7,0.04,3.01,1.95,4.07c0,0,13.72,3.99,75.58,29.6c55.11,22.84,99.31,37.15,112.6,35.58
			c1.66-0.13,2.76-0.55,3.46-1.23c10.19-10.27,63.96-53.11,114.83-93.84C368.7,82.85,397.01,65.61,393.35,59.03z M319.59,44.34
			c-10.43,8.41-21.36,17.2-32.59,26.16c-5.69,4.59-11.42,9.17-17.22,13.76c-5.2-1.7-10.47-3.44-15.63-5.13
			c-10.61-3.53-21.08-6.97-31.29-10.32c16.96-13.59,33.65-27,48.89-39.32C287.22,34.32,304.11,39.54,319.59,44.34z M257.41,94.15
			c-9.4,7.51-18.74,14.99-27.96,22.29c-8.6,6.84-17.04,13.55-25.11,19.96c-5.37-1.74-10.7-3.48-15.94-5.27
			c-10.53-3.44-20.89-6.88-30.93-10.23c16.94-13.46,35.07-27.85,53.03-42.25C225.59,83.62,241.42,88.88,257.41,94.15z M194.34,18.27
			c0,0,4.25-8.07,14.5-8.07c2.83,0,6.07,0.6,9.79,2.08c5.05,2,19.6,6.75,37.94,12.49c-8.7,7-17.79,14.27-27.11,21.74
			c-7.11,5.73-14.33,11.5-21.61,17.32c-8.3-2.76-16.37-5.48-24.03-8.03c-9.08-3.06-17.68-5.9-25.67-8.57
			C175.95,33.22,190.09,21.88,194.34,18.27z M145.66,57.08c14.29,4.76,31.29,10.44,49.85,16.56c-7.75,6.16-15.46,12.31-23.06,18.38
			c-10.32,8.2-20.36,16.22-30.04,23.9c-8.7-2.93-17.05-5.69-24.86-8.28c-9.51-3.18-18.34-6.16-26.16-8.75
			C108.19,86.16,127.91,70.92,145.66,57.08z M80.71,164.84c-10.47-4.2-18.74-7.51-25.28-10.06c-17.6-6.83-22.48-8.28-22.48-8.28
			c-6.16-3.36,2.55-9.98,21.53-21.1c4.25-2.5,12.91-8.66,23.97-16.86c13.76,4.59,31.5,10.53,51.59,17.24
			c-8.7,6.92-16.94,13.46-24.5,19.4C96.02,152.7,87.64,159.36,80.71,164.84z M139.01,188.19c-6.33-2.37-12.97-4.92-19.87-7.64
			c-5.73-2.3-11.7-4.67-17.79-7.22c-2.25-0.93-4.42-1.87-6.54-2.72c13.27-10.57,30.76-24.37,50.27-39.83
			c0.68,0.21,1.38,0.47,2.06,0.68c14.24,4.71,29.34,9.72,44.75,14.82c-8.98,7.13-17.39,13.76-25.1,19.91h-0.04
			c-11,8.75-20.47,16.22-27.74,21.95V188.19z M226.8,186.83c-10.04,8.28-17.32,14.52-20.34,17.53c-2.19,2.17-10.25,1.44-22.69-1.66
			c-8.24-2.12-18.39-5.27-30.02-9.3c13.44-10.62,32.08-25.39,53.24-42.2c15.1,5.01,30.34,10.06,45.27,14.9
			C242.7,173.8,234.04,180.85,226.8,186.83z M310.4,119.45c-7.03,5.65-14.14,11.33-21.17,16.94c-8.43,6.75-16.79,13.46-24.69,19.83
			h-0.07c-5.31-1.74-10.74-3.57-16.2-5.35c-9.57-3.1-19.25-6.28-28.91-9.47c16.94-13.46,35.01-27.86,53.07-42.29
			c15.16,4.97,30.36,9.98,44.97,14.78C315.13,115.67,312.78,117.54,310.4,119.45z M348.76,89.69c-5.52,4.2-11.8,9-18.77,14.35
			c-4.92-1.66-9.98-3.31-15.03-4.93c-9.89-3.27-19.97-6.54-30.12-9.89c17.32-13.84,34.27-27.47,49.89-40.08l0.06-0.04v0.04
			c20.61,6.5,36.39,11.63,39.25,13.25C379.84,65.66,369.86,73.64,348.76,89.69z"/>
		<path class="st5" d="M147.14,131.47c14.24,4.71,29.34,9.72,44.75,14.82c-8.98,7.13-17.39,13.76-25.1,19.91h-0.04l-19.55-6.75
			h-0.06V131.47z"/>
	</g>
</g>
</svg>
