<?xml version="1.0" encoding="utf-8"?>
<!-- Generator: Adobe Illustrator 25.4.1, SVG Export Plug-In . SVG Version: 6.00 Build 0)  -->
<svg version="1.1" id="Layer_1" xmlns="http://www.w3.org/2000/svg" xmlns:xlink="http://www.w3.org/1999/xlink" x="0px" y="0px"
	 viewBox="0 0 727.57 298.15" style="enable-background:new 0 0 727.57 298.15;" xml:space="preserve">
<style type="text/css">
	.st0{fill:#D4D0BD;}
	.st1{fill:#E8E3CD;}
	.st2{fill:#D1C4A7;}
	.st3{opacity:0.66;fill:#FFFFFF;}
	.st4{fill:#FFFFFF;}
	.st5{fill:#EFEAD0;}
	.st6{fill:#DDAB41;}
	.st7{opacity:0.5;}
	.st8{fill:#EAD672;}
	.st9{fill:#E5CC8C;}
	.st10{fill:#F0CA75;}
	.st11{fill:#E2B356;}
	.st12{fill:#DB9840;}
	.st13{fill:#E4E3C3;}
	.st14{fill:#D37F28;}
	.st15{fill:#F0CA6F;}
	.st16{fill:#E8DFA7;}
	.st17{fill:#EFD38E;}
	.st18{opacity:0.2;}
	.st19{fill:#F2E8A1;}
	.st20{fill:#EFEBCE;}
	.st21{opacity:0.6;}
	.st22{fill:#050404;}
	.st23{opacity:0.4;}
	.st24{fill:#CFCECC;}
	.st25{fill:#4A6C33;}
</style>
<g>
	<path class="st0" d="M727.57,162.77c0,64.55-162.88,135.39-363.8,135.39S-0.03,227.31-0.03,162.77
		c0-64.55,162.88-98.36,363.8-98.36S727.57,98.22,727.57,162.77z"/>
	<ellipse class="st1" cx="363.77" cy="162.77" rx="363.8" ry="116.87"/>
	<path class="st2" d="M69.2,182.04c55.49,26.18,111.39,52.49,169.66,64.54c72.28,14.94,146.1,7.51,218.89-2.34
		c59.1-7.99,118.61-17.71,174.76-43.11c10.85-4.91,22.06-10.87,29.27-22.55c7.21-11.68,8.67-30.75,0.16-40.83
		c-3.91-4.63-9.2-6.68-14.38-7.94c-27.82-6.75-55.98,5.38-83.38,14.62C423.23,192,274.72,164.59,130.22,141.5
		c-15.93-2.55-31.93-5.04-47.98-4.68c-9.37,0.21-30.73-1.49-36.06,12.13C39.39,166.29,60.19,177.79,69.2,182.04z"/>
	<path class="st3" d="M19.32,170.54c2.49,7.95,7.48,14.86,13.08,20.95c14.75,16.08,34.3,27.52,55.36,32.4
		c4.16,0.96,9.46,1.23,11.72-2.46c1.66-2.7,0.68-6.42-1.42-8.78c-2.1-2.36-5.06-3.69-7.93-4.96c-13.28-5.87-26.64-12.08-37.85-21.41
		c-11.21-9.33-20.22-22.25-22.05-36.88c-0.96-7.64-5.77-7.33-9.67-2.04C16.28,153.15,17.34,164.22,19.32,170.54z"/>
	<path class="st3" d="M115.54,229.38c-2.6-0.54-4.31,3.28-3.07,5.67c1.24,2.38,3.98,3.45,6.49,4.32c3.92,1.36,7.83,2.73,11.75,4.09
		c1.86,0.65,3.78,1.3,5.74,1.21c1.96-0.1,4.01-1.12,4.77-2.97c1.32-3.25-1.84-6.51-4.84-8.24c-6.5-3.75-14.02-5.65-21.49-5.43
		L115.54,229.38z"/>
	<path class="st3" d="M697.21,158.09c-2,2.57-2.5,5.99-3,9.23c-1.49,9.72-3.79,19.93-10.54,26.97c-4.73,4.95-11.53,8.2-14.25,14.53
		c-0.63,1.46-0.78,3.58,0.64,4.26c0.56,0.27,1.22,0.2,1.84,0.11c6.41-1.04,11.85-5.28,16.57-9.81c9.01-8.66,16.5-18.94,22.03-30.23
		c1.54-3.15,2.97-6.58,2.6-10.08C712.36,156.04,701.66,152.37,697.21,158.09z"/>
</g>
<g>
	<g>
		<path class="st4" d="M198.76,207.92c-48.3-4.78-73.26-13.62-98.38-26.51c-2.65-1.36-14.03-4.54-16.36-2.7
			c-4.26,3.37,1.72,11.27,9.57,14.94c28.97,13.52,63.56,23.93,111.62,29.16c4.53,0.49,14.34-1.6,14.17-6.16
			C219.17,210.8,202.5,208.29,198.76,207.92z"/>
		<g>
			<path class="st5" d="M398.11,0.01c-8.8,0.27-14.41,9.04-20.83,15.07c-5.82,5.47-13.12,9.05-20.4,12.33
				c-21.07,9.53-42.93,17.31-65.28,23.26c-7.07,1.88-14.28,3.71-20.82,6.89c-1.32-0.25-2.68,0.69-3.62,1.92
				c-0.26,0.16-0.55,0.27-0.81,0.43l0.71-0.3c-0.12,0.16-0.27,0.32-0.37,0.48c-4.1,6.78-2.92,16.29,2.69,21.88
				c2.79,2.77,6.51,4.64,8.72,7.91c2.95,4.36,2.57,10.32,5.4,14.77c2.78,4.38,8.24,6.46,13.43,6.51c5.19,0.06,10.23-1.59,15.15-3.21
				c1.71-0.56,3.53-1.13,5.25-0.64c2.97,0.83,4.24,4.23,6.21,6.61c5.23,6.33,15.63,4.99,22.41,0.35
				c6.77-4.63,11.55-11.7,18.09-16.66c1.66,5.01,7.81,7.5,12.96,6.32c5.14-1.17,9.22-5.17,12-9.64c5.44-8.75,6.77-19.35,7.98-29.57
				c7.7-0.12,14.46-6.54,16.19-14.05c1.73-7.5-0.97-15.57-5.88-21.51c-1.01-1.22-2.18-2.54-2.12-4.13c0.07-1.74,1.59-3.01,2.73-4.32
				c3.18-3.64,3.96-9.2,1.89-13.58C407.73,2.79,402.94-0.15,398.11,0.01z"/>
			<g>
				<path class="st4" d="M296.52,83.37c-8.4-3.68-16-9.16-22.14-15.98l-4.34-2.5c-1.7,3.94,0.44,8.69,3.82,11.34
					c3.38,2.64,7.71,3.68,11.89,4.64C289.35,81.72,292.93,82.55,296.52,83.37z"/>
				<path class="st4" d="M291.39,95.63l1.5-0.33C292.35,95.16,291.84,95.34,291.39,95.63z"/>
				<path class="st4" d="M289.54,96.03c0.54-0.11,1.09-0.14,1.62-0.23c0.08-0.07,0.15-0.12,0.23-0.16L289.54,96.03z"/>
				<path class="st4" d="M291.16,95.79c-0.74,0.59-1.24,1.57-1.05,2.52c0.31,1.61,1.9,2.71,3.51,2.98c1.61,0.27,3.25-0.12,4.84-0.5
					c5.96-1.45,11.93-2.9,17.89-4.35C308.11,94.51,299.49,94.34,291.16,95.79z"/>
				<path class="st4" d="M331.01,99.39c-1.99,1.74-3.17,4.74-2.01,7.13l1.46-2.97c-0.9,1.75,1.1,3.85,3.07,3.84
					c1.97-0.01,3.65-1.33,5.16-2.58c5.18-4.34,10.27-8.77,15.27-13.31c-5.26,1.53-10.51,3.06-15.77,4.61
					C335.65,96.84,333,97.64,331.01,99.39z"/>
				<path class="st4" d="M370.84,91.25c0.68,1.42,2.18,2.58,3.74,2.35c2.15-0.32,3.11-2.8,3.71-4.89
					c2.28-7.93,5.24-15.67,8.83-23.09c-6.96,6.26-12.72,13.84-16.97,22.18C370.21,88.99,370.33,90.18,370.84,91.25z"/>
				<path class="st4" d="M369.83,88.37c0.1-0.19,0.23-0.38,0.32-0.57c-0.02-0.39-0.06-0.8-0.07-1.19L369.83,88.37z"/>
				<path class="st4" d="M388.69,12.58l-0.54-0.7c0.27-0.31,0.6-0.54,0.89-0.82c-0.57,0-1.13,0.14-1.5,0.6
					C387.61,12.19,388.15,12.63,388.69,12.58z"/>
			</g>
			<path class="st6" d="M387.17,33.82c-1.91,9.03-3.87,18.19-8.17,26.36c-8.6,16.38-26.12,27.03-44.4,29.83
				c-3.72,0.58-7.5,0.86-11.25,0.45c-13.82-1.46-24.86-11.72-34.8-21.43c-2.22-2.16-4.47-4.37-5.9-7.11
				c-0.82-1.56-1.53-3.44-3.17-4.09c-1.64-0.65-3.83,1.67-2.43,2.75l-1.42-0.46c3.57,9.68,17.91,11.24,22.43,20.52
				c0.89,1.84,1.35,3.91,2.59,5.54c2.59,3.44,7.5,3.76,11.78,4.19c4.28,0.43,9.32,1.98,10.44,6.12c8.53-4.9,18.1-7.99,27.88-9
				c3.04-0.31,6.23-0.45,8.92-1.91c1.96-1.05,3.51-2.73,5.03-4.37c5.26-5.69,10.51-11.38,15.77-17.07c1.85-2,3.73-4.06,4.8-6.56
				c1.19-2.79,1.28-5.91,1.72-8.9c0.85-5.71,3.05-11.13,4.11-16.81c1.05-5.67,0.78-12.02-2.78-16.55
				C389.76,21.39,388.46,27.72,387.17,33.82z"/>
			<g class="st7">
				<path class="st4" d="M375.41,48.96c-8.21,17.35-33.19,35.74-51.32,29.43c-5.33-1.85-13.8-7.46-19.03-9.6
					c-5.21-2.13-4.7-12.05-9.65-14.73c-6.13-3.33-9.41,5.05-5.67,9.21c14.97,16.65,34.8,30.12,54.28,19.19
					c7.42-4.16,19.84-9.77,25.2-16.38c8.59-10.57,19.01-35.28,16.29-48.62C383.47,26.36,379.12,41.12,375.41,48.96z"/>
			</g>
			<g>
				<path class="st8" d="M297.01,52.03c0.19-0.12,0.41-0.16,0.6-0.27c-0.09-0.08-0.16-0.18-0.25-0.25L297.01,52.03z"/>
			</g>
		</g>
		<g>
			<path class="st9" d="M398.71,40.69c2.56,8.42,12.5,11.54,20,16.15c6.8,4.19,12.17,10.3,17.25,16.47
				c14.7,17.85,27.94,36.9,39.53,56.92c3.67,6.33,7.32,12.81,12.1,18.29c0.11,1.34,1.37,2.41,2.8,3c0.22,0.21,0.4,0.46,0.63,0.67
				l-0.47-0.61c0.19,0.08,0.38,0.18,0.56,0.24c7.62,2.17,16.49-1.44,20.41-8.33c1.95-3.42,2.79-7.5,5.36-10.48
				c3.44-3.99,9.28-5.18,12.84-9.08c3.5-3.83,4.08-9.65,2.78-14.67c-1.31-5.02-4.21-9.45-7.07-13.78c-0.99-1.5-2.01-3.11-1.99-4.9
				c0.02-3.08,2.98-5.19,4.76-7.72c4.74-6.71,0.72-16.4-5.53-21.72c-6.25-5.32-14.31-8.08-20.81-13.1c4.39-2.91,5.18-9.5,2.71-14.16
				c-2.47-4.65-7.4-7.54-12.45-9.06c-9.87-2.96-20.45-1.48-30.64,0.04c-2.12-7.41-10.1-12.25-17.79-11.96
				c-7.69,0.29-14.78,5.01-19.22,11.3c-0.92,1.3-1.89,2.77-3.44,3.13c-1.7,0.39-3.32-0.74-4.89-1.51
				c-4.35-2.12-9.92-1.41-13.59,1.72C398.88,30.68,397.3,36.06,398.71,40.69z"/>
			<g>
				<path class="st4" d="M505.77,116.91c-1.36,9.07-4.66,17.85-9.62,25.55l-1.28,4.84c4.25,0.61,8.27-2.7,9.94-6.66
					c1.67-3.95,1.54-8.4,1.37-12.69C506.05,124.27,505.91,120.59,505.77,116.91z"/>
				<path class="st4" d="M518.94,118.65l-0.71-1.36C518.24,117.85,518.55,118.29,518.94,118.65z"/>
				<path class="st4" d="M519.81,120.34c-0.25-0.49-0.42-1.01-0.66-1.5c-0.07-0.06-0.15-0.12-0.21-0.18L519.81,120.34z"/>
				<path class="st4" d="M519.15,118.83c0.77,0.56,1.85,0.79,2.72,0.36c1.47-0.72,2.11-2.54,1.95-4.17
					c-0.16-1.62-0.96-3.1-1.75-4.53c-2.96-5.38-5.92-10.75-8.88-16.13C513.49,102.81,515.57,111.17,519.15,118.83z"/>
				<g>
					<path class="st10" d="M516.36,78.87c1.93,0.41,3.43-2.07,2.9-3.97c-0.52-1.89-2.24-3.18-3.85-4.3
						c-5.54-3.87-11.15-7.62-16.84-11.26c2.86,4.66,5.72,9.34,8.58,14.01c1.39,2.26,2.84,4.6,5.05,6.07
						c2.21,1.47,5.41,1.82,7.41,0.08L516.36,78.87z"/>
					<path class="st10" d="M489.51,36.59c-8.25-0.14-16.48-0.96-24.59-2.48c7.87,5.07,16.68,8.65,25.85,10.57
						c1.13-0.37,2.24-0.8,3.14-1.57c1.19-1.03,1.92-2.77,1.29-4.22C494.33,36.9,491.68,36.62,489.51,36.59z"/>
					<path class="st10" d="M445.58,24.19c-5.62,2.24-11.05,4.96-16.22,8.1c4.46,2.6,10.1,3.07,14.93,1.25l0.8-0.73
						c1.93,1.01,4.46,0.77,6.17-0.59c1.7-1.37,2.49-3.78,1.92-5.89c-0.26-0.98-0.83-1.92-1.69-2.48
						C449.77,22.75,447.49,23.43,445.58,24.19z"/>
					<path class="st10" d="M417.06,33.98c-1.83-0.83-3.93-0.7-5.93-0.57c-2.06,0.14-4.55,0.58-5.29,2.51
						c-0.31,0.82-0.21,1.74-0.02,2.6c0.75,3.35,2.99,6.27,5.93,8.04c-0.24-0.87-0.08-1.92,0.51-2.64c0.97-1.18,2.51-1.69,3.92-2.25
						c1.41-0.58,2.9-1.4,3.42-2.83C420.29,36.94,418.88,34.82,417.06,33.98z"/>
				</g>
				<path class="st4" d="M413.31,46.49l-0.53,0.71c-0.37-0.17-0.68-0.43-1.03-0.65c0.15,0.55,0.43,1.05,0.97,1.28
					C413.23,47.63,413.5,47,413.31,46.49z"/>
			</g>
			<path class="st11" d="M434.21,42.39c9.22-0.52,18.57-1.02,27.59,0.98c18.06,4.02,32.92,18.13,40.42,35.04
				c1.53,3.44,2.79,7.02,3.38,10.73c2.2,13.72-4.8,27.06-11.57,39.2c-1.51,2.71-3.05,5.45-5.31,7.56c-1.3,1.19-2.92,2.37-3.12,4.12
				c-0.19,1.76,2.61,3.27,3.29,1.64l-0.08,1.49c8.41-5.99,6.17-20.23,13.94-27.03c1.54-1.34,3.42-2.33,4.67-3.94
				c2.63-3.4,1.66-8.23,0.95-12.48c-0.7-4.24-0.53-9.5,3.18-11.68c-6.96-6.95-12.44-15.37-15.98-24.55
				c-1.1-2.86-2.08-5.89-4.18-8.11c-1.53-1.62-3.55-2.68-5.53-3.71c-6.87-3.57-13.74-7.16-20.61-10.74
				c-2.42-1.26-4.9-2.54-7.59-2.92c-3-0.41-6.03,0.32-9.04,0.67c-5.73,0.67-11.54-0.04-17.3,0.43c-5.75,0.47-11.8,2.39-15.25,7.01
				C421.54,43.15,427.99,42.74,434.21,42.39z"/>
			<path class="st4" d="M451.9,49.78c18.89,3.38,43.18,22.67,41.83,41.82c-0.39,5.64-3.58,15.27-4.28,20.87
				c-0.69,5.59-10.4,7.7-11.7,13.17c-1.61,6.78,7.34,7.77,10.38,3.05c12.15-18.81,19.96-41.47,4.31-57.41
				c-5.96-6.07-14.62-16.58-22.4-20.03c-12.45-5.52-39.03-9.12-51.2-3C427.98,47.92,443.36,48.25,451.9,49.78z"/>
			<g>
				<path class="st8" d="M475.39,124.64c-0.17-0.15-0.27-0.36-0.42-0.51c-0.05,0.12-0.13,0.2-0.18,0.32L475.39,124.64z"/>
			</g>
		</g>
		<path class="st12" d="M367.48,52.24c0.81-8.63-5.42-17.39-13.85-19.45c-7.04-1.73-15.61,0.46-20.84-4.56
			c-3.57-3.42-4.15-9.13-7.71-12.55c-3.17-3.04-8.07-3.6-12.38-2.74c-4.31,0.88-8.26,2.97-12.32,4.64c-2.3,0.94-4.84,1.78-7.24,1.14
			c-2.83-0.76-4.77-3.38-7.41-4.65c-2.93-1.42-6.4-1.04-9.56-0.24c-8.92,2.24-17.01,7.67-22.48,15.07
			c-2.7,3.65-4.77,7.76-7.59,11.33c-2.79,3.54-6.25,6.47-9.43,9.66c-6.35,6.35-11.65,13.75-15.62,21.81l1.55-0.25
			c16.18-3.98,33.04-3.92,49.7-3.84c27.95,0.13,56.75,0.42,82.51,11.25c5,2.1,11.9,4.1,14.93-0.39c3.38-5.01-2.53-11.14-3.22-17.15
			C366.16,58.28,367.2,55.28,367.48,52.24z"/>
		<g>
			<path class="st13" d="M510.65,125.09c8.2,3.22,16.81-2.63,25.08-5.65c7.5-2.73,15.63-3.14,23.62-3.3
				c23.12-0.44,46.28,1.01,69.16,4.36c7.25,1.06,14.59,2.22,21.86,1.88c1.11,0.74,2.74,0.41,4.09-0.35c0.3-0.04,0.61-0.03,0.92-0.08
				h-0.77c0.17-0.11,0.37-0.18,0.53-0.3c6.43-4.62,9.11-13.82,6.15-21.17c-1.47-3.65-4.16-6.84-4.9-10.71
				c-0.99-5.17,1.71-10.5,0.86-15.71c-0.82-5.12-5.03-9.18-9.77-11.28c-4.75-2.1-10.03-2.56-15.19-3.02
				c-1.79-0.15-3.69-0.36-5.08-1.48c-2.4-1.94-2.23-5.56-3.09-8.53c-2.31-7.87-12.41-10.74-20.46-9.14
				c-8.05,1.59-15.22,6.2-23.19,8.17c0.44-5.25-4.23-9.96-9.41-10.91c-5.18-0.95-10.51,1.11-14.83,4.12
				c-8.45,5.9-13.85,15.11-19,24.03c-7.12-2.93-15.87,0.32-20.42,6.53c-4.55,6.21-5.25,14.69-3.07,22.08c0.45,1.53,1,3.21,0.31,4.64
				c-0.75,1.57-2.64,2.14-4.22,2.89c-4.36,2.09-7.27,6.89-7.09,11.73C502.9,118.74,506.15,123.32,510.65,125.09z"/>
			<g>
				<path class="st4" d="M636.87,88.5c6.27,6.7,11.1,14.73,14.06,23.41l3,4.01c3.12-2.95,3.02-8.16,0.96-11.93
					c-2.07-3.76-5.64-6.42-9.1-8.95C642.81,92.86,639.84,90.68,636.87,88.5z"/>
				<path class="st4" d="M646.42,79.26l-1.5-0.29C645.36,79.32,645.89,79.35,646.42,79.26z"/>
				<path class="st4" d="M648.28,79.63c-0.53-0.12-1.05-0.3-1.58-0.42c-0.09,0.03-0.18,0.05-0.28,0.06L648.28,79.63z"/>
				<path class="st4" d="M646.69,79.2c0.91-0.25,1.76-0.95,1.97-1.91c0.34-1.6-0.68-3.24-2.06-4.11c-1.37-0.89-3.03-1.18-4.64-1.45
					c-6.06-1.02-12.11-2.03-18.16-3.05C630.61,73.7,638.46,77.26,646.69,79.2z"/>
				<path class="st4" d="M611.49,60.2c2.52-0.82,4.78-3.11,4.66-5.76l-2.51,2.15c1.51-1.26,0.51-3.97-1.31-4.74
					c-1.81-0.76-3.88-0.22-5.77,0.35c-6.47,1.94-12.89,4.01-19.28,6.22c5.43,0.66,10.87,1.32,16.31,1.98
					C606.23,60.7,608.96,61.02,611.49,60.2z"/>
				<path class="st4" d="M571.66,51.98c-0.06-1.58-0.98-3.24-2.51-3.63c-2.1-0.56-3.96,1.35-5.34,3.03
					c-5.22,6.38-10.99,12.32-17.21,17.74c8.86-3.03,17.15-7.71,24.34-13.7C571.36,54.29,571.72,53.16,571.66,51.98z"/>
				<path class="st4" d="M571.47,55.01c-0.17,0.14-0.36,0.27-0.52,0.4c-0.14,0.38-0.26,0.75-0.4,1.12L571.47,55.01z"/>
				<path class="st4" d="M533.35,84.93l-0.07-1.09c2-0.88,3.37-3.01,3.36-5.19c-0.01-2.19-1.41-4.3-3.42-5.16
					c-0.94-0.4-2.02-0.54-2.99-0.21c-1.95,0.66-2.83,2.86-3.42,4.84c-1.72,5.8-2.97,11.74-3.72,17.74
					C527.91,93.97,531.79,89.84,533.35,84.93z"/>
				<path class="st4" d="M511.34,116.54c0.45,0.75,1.23,1.24,2.02,1.63c3.09,1.48,6.77,1.55,9.98,0.34
					c-0.83-0.35-1.55-1.13-1.75-2.03c-0.33-1.49,0.23-3.02,0.67-4.48c0.43-1.46,0.71-3.14-0.1-4.43c-1.05-1.71-3.59-1.93-5.38-1.01
					c-1.79,0.92-3,2.63-4.13,4.29C511.49,112.54,510.28,114.76,511.34,116.54z"/>
			</g>
			<g class="st7">
				<path class="st14" d="M534.02,98.33c5.32-7.55,10.73-15.2,17.9-21.02c14.36-11.66,34.66-14.55,52.57-9.92
					c3.65,0.94,7.23,2.18,10.51,4.02c12.12,6.8,18.23,20.57,23.55,33.42c1.18,2.85,2.38,5.77,2.62,8.86
					c0.14,1.76,0.05,3.77,1.31,5.01c1.26,1.24,4.17-0.02,3.32-1.56l1.12,0.98c0.53-10.31-12.03-17.39-12.53-27.7
					c-0.1-2.04,0.3-4.13-0.19-6.12c-1.03-4.17-5.42-6.41-9.18-8.49c-3.76-2.09-7.79-5.48-7.18-9.74
					c-9.78,1.14-19.78,0.21-29.17-2.72c-2.92-0.91-5.9-2.03-8.96-1.76c-2.22,0.19-4.3,1.12-6.34,2.03
					c-7.08,3.16-14.15,6.32-21.23,9.48c-2.49,1.11-5.03,2.25-7,4.13c-2.19,2.1-3.5,4.92-5.09,7.5c-3.03,4.91-7.19,9.03-10.4,13.83
					c-3.2,4.8-5.45,10.73-3.97,16.31C526.75,108.73,530.44,103.42,534.02,98.33z"/>
			</g>
			<path class="st4" d="M550.8,89.04c14.39-12.71,44.58-19.76,58.76-6.82c4.17,3.81,9.74,12.3,13.7,16.32
				c3.95,4.01-0.43,12.93,3.05,17.34c4.32,5.47,10.64-0.93,8.84-6.23c-7.2-21.21-20.11-41.41-42.33-39.03
				c-8.46,0.91-22.08,1.17-29.61,5.12c-12.06,6.34-31.38,24.94-34.13,38.27C534.49,106.63,544.31,94.78,550.8,89.04z"/>
		</g>
		<path class="st12" d="M489.65,93.9c-5.51-2.3-12.62-0.74-17-4.8c-4.23-3.92-3.45-10.85-6.21-15.91
			c-3.11-5.71-10.37-8.07-16.83-7.34c-6.46,0.71-12.33,3.89-18.07,6.94c-5.68,3.01-11.62,5.99-18.02,6.43
			c10.39,17.49,26.12,31.09,41.6,44.31c4.51,3.86,9.03,7.72,13.54,11.57c2.12,1.81,4.47,3.72,7.26,3.81
			c3.46,0.13,6.31-2.54,8.7-5.05c5.49-5.75,11.06-11.95,13.1-19.64C499.76,106.53,497,96.96,489.65,93.9z"/>
		<g>
			<path class="st15" d="M217.59,102.6c8.19,3.22,16.8-2.62,25.08-5.64c7.51-2.74,15.63-3.15,23.62-3.31
				c23.12-0.44,46.28,1.01,69.16,4.36c7.24,1.06,14.58,2.22,21.85,1.88c1.11,0.74,2.74,0.41,4.09-0.34c0.3-0.05,0.61-0.03,0.91-0.08
				l-0.77-0.01c0.17-0.11,0.37-0.18,0.53-0.3c6.44-4.62,9.11-13.82,6.15-21.17c-1.47-3.65-4.16-6.83-4.9-10.71
				c-0.99-5.17,1.7-10.5,0.86-15.71c-0.83-5.12-5.03-9.18-9.78-11.28c-4.75-2.09-10.02-2.56-15.19-3.02
				c-1.78-0.15-3.68-0.36-5.08-1.48c-2.4-1.94-2.23-5.56-3.09-8.52c-2.31-7.88-12.41-10.75-20.46-9.15
				c-8.06,1.59-15.23,6.2-23.2,8.17c0.45-5.24-4.23-9.96-9.41-10.91c-5.18-0.95-10.51,1.12-14.83,4.13
				c-8.45,5.89-13.85,15.11-19,24.03c-7.12-2.94-15.87,0.31-20.41,6.52c-4.55,6.22-5.25,14.69-3.07,22.09c0.45,1.52,1,3.2,0.31,4.63
				c-0.75,1.57-2.64,2.14-4.22,2.89c-4.36,2.09-7.27,6.9-7.09,11.73C209.85,96.25,213.09,100.83,217.59,102.6z"/>
			<g>
				<path class="st4" d="M343.81,66.01c6.27,6.7,11.1,14.73,14.06,23.42l3,4c3.12-2.95,3.03-8.16,0.96-11.92
					c-2.06-3.77-5.64-6.43-9.1-8.96C349.76,70.37,346.78,68.19,343.81,66.01z"/>
				<path class="st4" d="M353.36,56.78l-1.5-0.3C352.3,56.83,352.84,56.86,353.36,56.78z"/>
				<path class="st4" d="M355.22,57.14c-0.53-0.11-1.05-0.3-1.58-0.42c-0.09,0.03-0.18,0.05-0.28,0.07L355.22,57.14z"/>
				<path class="st4" d="M353.64,56.71c0.91-0.25,1.76-0.95,1.97-1.91c0.34-1.6-0.68-3.24-2.06-4.11c-1.37-0.89-3.03-1.18-4.64-1.45
					c-6.05-1.02-12.11-2.03-18.16-3.05C337.55,51.21,345.41,54.77,353.64,56.71z"/>
				<path class="st4" d="M320.68,29.86c2.52-0.82,4.78-3.1,4.66-5.76l-2.51,2.15c1.51-1.25,0.5-3.97-1.31-4.73
					c-1.81-0.77-3.88-0.22-5.76,0.34c-6.47,1.94-12.9,4.01-19.28,6.22c5.43,0.67,10.87,1.32,16.31,1.99
					C315.41,30.37,318.15,30.68,320.68,29.86z"/>
				<path class="st4" d="M277.16,22.25c-0.07-1.57-0.99-3.23-2.51-3.63c-2.1-0.55-3.97,1.35-5.34,3.04
					c-5.22,6.38-10.98,12.32-17.21,17.73c8.86-3.02,17.15-7.7,24.34-13.69C276.85,24.58,277.2,23.44,277.16,22.25z"/>
				<path class="st4" d="M233.53,59.47l-0.08-1.08c2-0.89,3.38-3.02,3.37-5.2c-0.01-2.18-1.41-4.3-3.42-5.15
					c-0.94-0.4-2.02-0.55-2.99-0.22c-1.95,0.66-2.83,2.87-3.42,4.84c-1.72,5.8-2.97,11.75-3.72,17.75
					C228.09,68.52,231.96,64.38,233.53,59.47z"/>
				<path class="st4" d="M218.28,94.05c0.45,0.75,1.23,1.24,2.02,1.63c3.09,1.49,6.77,1.55,9.98,0.34
					c-0.82-0.35-1.55-1.13-1.75-2.03c-0.32-1.49,0.24-3.02,0.67-4.48c0.43-1.46,0.71-3.13-0.1-4.43c-1.06-1.71-3.59-1.93-5.38-1.01
					c-1.79,0.92-3,2.63-4.13,4.29C218.43,90.05,217.23,92.27,218.28,94.05z"/>
				<path class="st4" d="M231.21,94.75l0.23,0.86c-0.37,0.18-0.77,0.27-1.15,0.4c0.53,0.23,1.09,0.32,1.61,0.04
					C232.05,95.53,231.72,94.93,231.21,94.75z"/>
			</g>
			<path class="st11" d="M240.97,75.84c5.32-7.54,10.73-15.2,17.9-21.02c14.36-11.66,34.66-14.54,52.57-9.91
				c3.64,0.93,7.23,2.17,10.51,4.01c12.12,6.8,18.23,20.57,23.55,33.42c1.18,2.86,2.38,5.77,2.62,8.86
				c0.14,1.76,0.05,3.77,1.31,5.01c1.26,1.24,4.17-0.02,3.32-1.56l1.12,0.98c0.53-10.31-12.02-17.39-12.52-27.7
				c-0.1-2.04,0.29-4.12-0.2-6.11c-1.03-4.18-5.42-6.42-9.18-8.5c-3.76-2.09-7.79-5.48-7.18-9.74c-9.77,1.15-19.78,0.21-29.17-2.72
				c-2.92-0.91-5.9-2.03-8.95-1.76c-2.22,0.2-4.31,1.12-6.34,2.03c-7.08,3.16-14.15,6.32-21.22,9.48c-2.49,1.11-5.03,2.25-7,4.14
				c-2.19,2.09-3.5,4.91-5.09,7.49c-3.04,4.91-7.2,9.03-10.4,13.83c-3.2,4.8-5.45,10.73-3.97,16.31
				C233.7,86.24,237.38,80.93,240.97,75.84z"/>
			<g class="st7">
				<path class="st4" d="M257.75,66.56c14.39-12.71,44.59-19.77,58.76-6.83c4.17,3.82,9.74,12.3,13.7,16.32
					c3.95,4.01-0.43,12.93,3.05,17.34c4.32,5.48,10.64-0.92,8.84-6.23c-7.2-21.21-20.11-41.41-42.32-39.03
					c-8.46,0.91-22.08,1.17-29.61,5.13c-12.05,6.33-31.38,24.93-34.13,38.26C241.43,84.15,251.25,72.29,257.75,66.56z"/>
			</g>
			<g>
				<g class="st7">
					<path class="st10" d="M266.26,90.22c3.57,0.15,7.06,1.09,10.62,1.42c3.81,0.36,7.63,0.02,11.45-0.06
						c5.86-0.11,11.71,0.41,17.54,0.93c2.26,0.2,4.53,0.4,6.8,0.61c3.57,0.32,7.14,0.63,10.69,1.14c2.32,0.33,4.68,0.67,7,0.4
						c-1.93-3.83-2.13-8.29-3.23-12.44c-3.21-12.08-14.81-20.96-27.2-22.64c-12.4-1.69-25.13,3.11-34.66,11.21
						c-3.91,3.32-7.35,7.16-11.21,10.55c-4.64,4.07-9.94,7.54-13.48,12.59C249.25,94.27,257.59,89.89,266.26,90.22z"/>
				</g>
				<path class="st8" d="M331.01,94.63c-0.22,0.04-0.44-0.01-0.66,0.02c0.05,0.11,0.08,0.22,0.14,0.33L331.01,94.63z"/>
			</g>
		</g>
		<g>
			<path class="st13" d="M90.37,145.62c8.82,0.18,14.64-8.41,21.21-14.19c5.95-5.24,13.36-8.49,20.72-11.45
				c21.32-8.56,43.4-15.31,65.92-20.18c7.13-1.54,14.39-3.03,21.02-5.91c1.31,0.32,2.7-0.57,3.68-1.76
				c0.27-0.15,0.55-0.24,0.82-0.39l-0.71,0.27c0.13-0.16,0.28-0.31,0.38-0.47c4.25-6.66,3.3-16.36-2.2-22.31
				c-2.73-2.96-6.42-5.05-8.55-8.47c-2.86-4.58-2.34-10.59-5.07-15.24c-2.68-4.59-8.1-6.98-13.3-7.3
				c-5.19-0.33-10.28,1.09-15.25,2.48c-1.72,0.48-3.56,0.95-5.27,0.38c-2.96-1-4.15-4.51-6.06-7.02c-5.1-6.69-15.55-5.87-22.44-1.51
				c-6.89,4.36-11.84,11.25-18.51,15.94c-1.55-5.15-7.65-7.99-12.83-7.07c-5.17,0.93-9.36,4.76-12.25,9.15
				C96.03,59.12,94.45,69.8,93,80.09c-7.71-0.28-14.64,5.89-16.54,13.39c-1.91,7.52,0.62,15.83,5.4,22.1
				c0.99,1.29,2.13,2.7,2.03,4.31c-0.12,1.75-1.66,2.97-2.84,4.23c-3.27,3.53-4.18,9.12-2.21,13.65
				C80.8,142.31,85.53,145.52,90.37,145.62z"/>
			<g>
				<path class="st10" d="M194.04,66.41c8.33,4.16,15.82,10.12,21.82,17.32l4.28,2.76c1.79-3.9-0.24-8.83-3.56-11.68
					c-3.32-2.86-7.64-4.13-11.81-5.33C201.19,68.46,197.62,67.43,194.04,66.41z"/>
				<path class="st4" d="M199.46,54.25l-1.5,0.25C198.49,54.68,199,54.52,199.46,54.25z"/>
				<path class="st10" d="M199.69,54.1c0.76-0.56,1.28-1.53,1.12-2.52c-0.27-1.64-1.84-2.83-3.44-3.19
					c-1.61-0.36-3.26-0.05-4.86,0.26c-6.01,1.16-12.02,2.32-18.02,3.48C182.69,54.52,191.32,55.14,199.69,54.1z"/>
				<path class="st10" d="M159.87,48.4c2.04-1.67,3.28-4.63,2.18-7.12l-1.53,2.93c0.93-1.72-1.02-3.95-2.99-4.05
					c-1.97-0.09-3.69,1.16-5.23,2.36c-5.29,4.11-10.49,8.34-15.6,12.69c5.3-1.28,10.6-2.57,15.9-3.85
					C155.17,50.74,157.83,50.06,159.87,48.4z"/>
				<path class="st10" d="M119.78,54.58c-0.65-1.47-2.12-2.73-3.69-2.57c-2.16,0.21-3.19,2.68-3.83,4.76
					c-2.47,7.91-5.61,15.59-9.38,22.93c7.11-5.99,13.06-13.36,17.51-21.59C120.36,56.9,120.27,55.69,119.78,54.58z"/>
				<path class="st4" d="M120.73,57.54c-0.1,0.19-0.23,0.38-0.34,0.57c0.01,0.4,0.05,0.81,0.05,1.2L120.73,57.54z"/>
				<path class="st10" d="M96.47,99.42L96,98.41c1.53-1.54,2.01-4.05,1.19-6.13c-0.82-2.07-2.91-3.59-5.11-3.71
					c-1.02-0.05-2.08,0.19-2.86,0.85c-1.56,1.31-1.56,3.72-1.36,5.8c0.56,6.13,1.62,12.22,3.17,18.2
					C94.8,109.94,96.86,104.64,96.47,99.42z"/>
				<path class="st4" d="M87.82,137.24c0.7,0.57,1.61,0.76,2.49,0.84c3.43,0.34,6.88-0.91,9.41-3.18c-0.9-0.05-1.86-0.53-2.39-1.33
					c-0.86-1.3-0.91-2.95-1.05-4.49c-0.15-1.54-0.51-3.24-1.74-4.19c-1.62-1.24-4.06-0.57-5.38,0.94c-1.32,1.49-1.8,3.56-2.24,5.53
					C86.46,133.38,86.18,135.92,87.82,137.24z"/>
				<path class="st4" d="M100.1,133.36l0.53,0.74c-0.27,0.3-0.61,0.52-0.91,0.79c0.57,0.03,1.13-0.09,1.51-0.54
					C101.17,133.81,100.64,133.35,100.1,133.36z"/>
			</g>
			<path class="st11" d="M102.1,111.93c2.12-9.06,4.3-18.24,8.79-26.3c8.99-16.15,26.79-26.04,45.16-27.93
				c3.74-0.38,7.53-0.47,11.27,0.13c13.81,2.21,24.63,13.16,34.37,23.51c2.17,2.3,4.37,4.66,5.75,7.52c0.79,1.62,1.45,3.56,3.08,4.3
				c1.63,0.74,3.87-1.48,2.5-2.65l1.42,0.54c-3.36-9.99-17.68-12.31-21.99-21.96c-0.86-1.91-1.27-4.03-2.47-5.74
				c-2.52-3.61-7.43-4.19-11.71-4.86c-4.28-0.66-9.29-2.48-10.32-6.75c-8.66,4.53-18.31,7.16-28.13,7.68
				c-3.06,0.15-6.24,0.14-8.98,1.47c-1.99,0.96-3.58,2.57-5.14,4.16c-5.4,5.49-10.79,10.98-16.19,16.49
				c-1.9,1.93-3.83,3.92-4.96,6.4c-1.25,2.77-1.41,5.92-1.93,8.92c-0.99,5.74-3.31,11.13-4.5,16.81c-1.19,5.69-1.06,12.14,2.4,16.92
				C99.23,124.38,100.67,118.03,102.1,111.93z"/>
			<g class="st7">
				<path class="st4" d="M114.24,97.2c8.62-17.16,34.06-34.5,52.08-27.17c5.3,2.16,13.65,8.28,18.83,10.71
					c5.17,2.43,4.43,12.45,9.32,15.43c6.07,3.69,9.54-4.63,5.89-9.04c-14.61-17.65-34.17-32.33-53.93-22.26
					c-7.53,3.84-20.09,8.87-25.62,15.29c-8.84,10.27-19.85,34.76-17.44,48.42C105.64,119.68,110.34,104.95,114.24,97.2z"/>
			</g>
			<g>
				<g class="st7">
					<path class="st10" d="M130.99,116.73c3.37-1.13,6.97-1.46,10.4-2.39c3.67-1,7.11-2.67,10.63-4.09
						c5.41-2.17,11.03-3.73,16.65-5.29c2.18-0.61,4.36-1.21,6.54-1.82c3.44-0.95,6.88-1.91,10.36-2.68c2.28-0.5,4.6-1.01,6.65-2.08
						c-3.22-2.96-5.07-7.14-7.65-10.7c-7.5-10.37-21.6-14.73-33.74-11.98c-12.15,2.75-22.19,11.79-28.03,22.85
						c-2.4,4.54-4.16,9.4-6.47,13.98c-2.79,5.5-6.42,10.68-7.82,16.73C116.69,126.56,122.81,119.45,130.99,116.73z"/>
				</g>
				<path class="st8" d="M192.83,98.14c-0.19,0.12-0.41,0.14-0.6,0.25c0.09,0.09,0.16,0.18,0.25,0.27L192.83,98.14z"/>
			</g>
		</g>
		<g>
			<path class="st16" d="M324.05,196.62c10.42,0.22,17.3-9.93,25.05-16.77c7.03-6.19,15.78-10.03,24.48-13.52
				c25.2-10.11,51.28-18.1,77.88-23.85c8.43-1.82,17-3.56,24.83-6.98c1.55,0.38,3.19-0.67,4.34-2.08c0.31-0.17,0.66-0.28,0.97-0.46
				l-0.85,0.31c0.15-0.18,0.33-0.36,0.45-0.55c5.03-7.87,3.9-19.33-2.59-26.35c-3.23-3.5-7.58-5.96-10.1-10.01
				c-3.37-5.41-2.76-12.51-5.99-18.01c-3.17-5.42-9.57-8.24-15.71-8.62c-6.14-0.39-12.15,1.28-18.02,2.92
				c-2.03,0.57-4.2,1.13-6.23,0.44c-3.49-1.18-4.9-5.33-7.16-8.3c-6.02-7.89-18.37-6.93-26.51-1.78
				c-8.14,5.14-13.98,13.3-21.86,18.83c-1.83-6.08-9.04-9.44-15.15-8.35c-6.11,1.09-11.05,5.62-14.47,10.81
				c-6.67,10.14-8.54,22.74-10.25,34.91c-9.12-0.34-17.29,6.95-19.55,15.82c-2.25,8.87,0.73,18.7,6.37,26.1
				c1.17,1.52,2.52,3.19,2.39,5.08c-0.14,2.08-1.96,3.51-3.35,5.01c-3.87,4.16-4.94,10.77-2.61,16.13
				C312.74,192.71,318.33,196.51,324.05,196.62z"/>
			<g>
				<path class="st11" d="M446.53,103.04c9.84,4.91,18.68,11.95,25.77,20.47l5.06,3.26c2.12-4.62-0.28-10.43-4.21-13.81
					c-3.93-3.37-9.02-4.88-13.94-6.28C454.98,105.46,450.75,104.25,446.53,103.04z"/>
				<path class="st4" d="M452.94,88.68l-1.78,0.29C451.79,89.18,452.39,88.99,452.94,88.68z"/>
				<path class="st4" d="M455.13,88.32c-0.64,0.1-1.29,0.11-1.93,0.18c-0.09,0.07-0.17,0.13-0.27,0.18L455.13,88.32z"/>
				<path class="st11" d="M453.21,88.5c0.9-0.67,1.52-1.81,1.32-2.97c-0.32-1.94-2.17-3.35-4.07-3.77c-1.9-0.42-3.85-0.06-5.73,0.3
					c-7.1,1.38-14.2,2.75-21.3,4.11C433.12,88.99,443.31,89.73,453.21,88.5z"/>
				<path class="st11" d="M406.16,81.76c2.41-1.98,3.88-5.48,2.57-8.41l-1.81,3.46c1.1-2.04-1.2-4.67-3.53-4.78
					c-2.33-0.12-4.36,1.36-6.18,2.77c-6.25,4.87-12.39,9.87-18.43,15c6.26-1.52,12.52-3.04,18.78-4.56
					C400.6,84.52,403.74,83.73,406.16,81.76z"/>
				<path class="st11" d="M358.79,89.07c-0.77-1.73-2.51-3.22-4.36-3.04c-2.55,0.24-3.76,3.16-4.52,5.62
					c-2.91,9.36-6.62,18.42-11.08,27.1c8.4-7.07,15.43-15.78,20.69-25.52C359.48,91.81,359.36,90.38,358.79,89.07z"/>
				<path class="st4" d="M359.91,92.57c-0.12,0.22-0.27,0.43-0.39,0.67c0.01,0.48,0.05,0.95,0.05,1.43L359.91,92.57z"/>
				<path class="st11" d="M331.25,142.04l-0.56-1.19c1.81-1.82,2.38-4.79,1.41-7.25c-0.98-2.45-3.45-4.24-6.03-4.38
					c-1.21-0.06-2.46,0.23-3.38,1c-1.85,1.55-1.84,4.4-1.61,6.86c0.66,7.24,1.92,14.43,3.74,21.5
					C329.28,154.47,331.7,148.21,331.25,142.04z"/>
				<path class="st4" d="M321.03,186.73c0.82,0.67,1.9,0.9,2.94,0.99c4.06,0.39,8.12-1.08,11.12-3.77c-1.06-0.05-2.2-0.63-2.82-1.56
					c-1.02-1.54-1.07-3.49-1.25-5.31c-0.17-1.82-0.61-3.83-2.06-4.95c-1.91-1.47-4.8-0.67-6.36,1.1c-1.56,1.77-2.12,4.21-2.64,6.54
					C319.43,182.17,319.09,185.17,321.03,186.73z"/>
				<path class="st4" d="M335.54,182.15l0.63,0.87c-0.32,0.36-0.72,0.62-1.07,0.94c0.68,0.04,1.33-0.1,1.79-0.63
					C336.8,182.67,336.18,182.13,335.54,182.15z"/>
			</g>
			<path class="st11" d="M337.91,156.83c2.51-10.69,5.08-21.55,10.38-31.07c10.63-19.08,31.64-30.76,53.36-33
				c4.41-0.46,8.9-0.56,13.32,0.14c16.31,2.6,29.1,15.55,40.6,27.78c2.56,2.73,5.17,5.51,6.79,8.88c0.93,1.92,1.71,4.21,3.64,5.09
				c1.93,0.87,4.58-1.75,2.95-3.14l1.68,0.65c-3.97-11.81-20.89-14.56-25.99-25.95c-1.01-2.25-1.5-4.76-2.91-6.78
				c-2.97-4.27-8.78-4.96-13.83-5.74s-10.97-2.93-12.19-7.96c-10.23,5.34-21.63,8.45-33.24,9.07c-3.61,0.18-7.38,0.17-10.61,1.74
				c-2.35,1.14-4.23,3.04-6.07,4.91c-6.38,6.49-12.75,12.99-19.13,19.48c-2.24,2.28-4.53,4.62-5.86,7.56
				c-1.48,3.26-1.67,6.98-2.28,10.54c-1.17,6.77-3.91,13.13-5.31,19.86c-1.4,6.74-1.25,14.34,2.84,19.99
				C334.51,171.54,336.21,164.04,337.91,156.83z"/>
			<g class="st7">
				<path class="st4" d="M352.24,139.42c10.19-20.26,40.24-40.75,61.52-32.1c6.26,2.55,16.13,9.78,22.25,12.66
					c6.1,2.86,5.24,14.71,11.01,18.23c7.16,4.36,11.28-5.47,6.96-10.7c-17.27-20.84-40.37-38.19-63.71-26.29
					c-8.89,4.53-23.74,10.48-30.26,18.07c-10.45,12.13-23.46,41.07-20.6,57.21C342.09,165.98,347.64,148.57,352.24,139.42z"/>
			</g>
			<g>
				<path class="st8" d="M445.1,140.52c-0.22,0.14-0.49,0.17-0.71,0.3c0.11,0.1,0.18,0.22,0.29,0.32L445.1,140.52z"/>
			</g>
		</g>
		<path class="st12" d="M318.3,81.12c-21.07,5.59-43.25,6.98-64.85,4.04c-7.61-1.03-15.23-2.59-22.89-2.12
			c-5.77,0.37-11.41,1.88-17.16,2.52c-9.28,1.05-18.65-0.15-27.92-1.37l0.61,0.65c42.32,14.72,85.07,28.19,128.18,40.36
			c3.76,1.06,7.86,2.09,11.47,0.6c3.79-1.56,5.96-5.46,8.15-8.93c3.52-5.6,7.82-10.84,9.93-17.11c2.1-6.26,1.36-14.14-3.87-18.17
			C334,76.99,325.54,79.19,318.3,81.12z"/>
		<g>
			<path class="st5" d="M332.95,83.66c-9.5-4.3-19.82,2.33-29.63,5.55c-8.9,2.92-18.46,3.01-27.83,2.79
				c-27.14-0.63-54.26-3.56-80.98-8.75c-8.46-1.64-17.03-3.41-25.57-3.36c-1.28-0.95-3.2-0.65-4.81,0.2
				c-0.36,0.04-0.72,0.01-1.07,0.05l0.9,0.05c-0.21,0.12-0.45,0.2-0.64,0.33c-7.72,5.25-11.2,16.23-7.99,25.25
				c1.59,4.49,4.63,8.47,5.35,13.18c0.97,6.3-2.38,12.59-1.59,18.92c0.78,6.22,5.56,11.34,11.05,14.12
				c5.49,2.77,11.67,3.6,17.72,4.4c2.09,0.28,4.31,0.62,5.9,2.05c2.75,2.46,2.4,6.82,3.32,10.45c2.42,9.63,14.16,13.6,23.67,12.07
				c9.51-1.52,18.09-6.72,27.52-8.7c-0.72,6.32,4.59,12.25,10.64,13.65c6.05,1.41,12.37-0.82,17.55-4.24
				c10.13-6.7,16.81-17.55,23.17-28.06c8.25,3.89,18.63,0.42,24.19-6.85c5.57-7.27,6.7-17.48,4.42-26.5
				c-0.47-1.87-1.06-3.92-0.2-5.62c0.94-1.86,3.18-2.45,5.05-3.29c5.19-2.3,8.77-7.95,8.75-13.8
				C341.81,91.72,338.17,86.02,332.95,83.66z"/>
			<g>
				<g class="st7">
					<path class="st4" d="M183.52,121.47c-7.11-8.4-12.47-18.35-15.63-28.96l-3.37-4.99c-3.76,3.41-3.85,9.7-1.57,14.35
						c2.28,4.65,6.37,8.04,10.34,11.27C176.7,115.91,180.11,118.7,183.52,121.47z"/>
				</g>
				<path class="st4" d="M171.98,132.14l1.75,0.43C173.23,132.14,172.6,132.07,171.98,132.14z"/>
				<path class="st4" d="M169.81,131.61c0.62,0.16,1.22,0.41,1.85,0.59c0.11-0.02,0.21-0.04,0.32-0.06L169.81,131.61z"/>
				<path class="st4" d="M171.65,132.2c-1.09,0.26-2.11,1.07-2.38,2.22c-0.46,1.91,0.68,3.93,2.26,5.07
					c1.58,1.14,3.52,1.57,5.4,1.98c7.06,1.53,14.13,3.07,21.19,4.61C190.31,139.66,181.24,134.97,171.65,132.2z"/>
				<path class="st4" d="M212.26,156.92c-2.99,0.87-5.73,3.52-5.68,6.73l3.03-2.48c-1.82,1.44-0.74,4.77,1.36,5.79
					c2.1,1.01,4.54,0.46,6.77-0.13c7.66-2.01,15.28-4.19,22.85-6.53c-6.35-1.07-12.7-2.14-19.06-3.21
					C218.45,156.58,215.25,156.07,212.26,156.92z"/>
				<path class="st4" d="M258.67,168.85c0.01,1.91,1.04,3.95,2.81,4.52c2.44,0.77,4.7-1.44,6.37-3.39
					c6.36-7.45,13.34-14.33,20.85-20.54c-10.51,3.2-20.4,8.43-29.07,15.31C259.11,166.08,258.66,167.43,258.67,168.85z"/>
				<path class="st4" d="M259.01,165.2c0.2-0.16,0.42-0.3,0.63-0.45c0.18-0.44,0.33-0.91,0.52-1.34L259.01,165.2z"/>
				<g class="st7">
					<path class="st4" d="M304.84,131.01l0.05,1.31c-2.38,0.96-4.07,3.47-4.14,6.1c-0.07,2.64,1.49,5.26,3.82,6.41
						c1.08,0.53,2.35,0.75,3.49,0.4c2.31-0.69,3.43-3.31,4.19-5.66c2.24-6.92,3.92-14.03,5.02-21.24
						C311.55,120.37,306.85,125.16,304.84,131.01z"/>
				</g>
				<g class="st7">
					<path class="st4" d="M331.83,93.95c-0.5-0.94-1.4-1.57-2.32-2.07c-3.57-1.96-7.89-2.22-11.7-0.92
						c0.96,0.47,1.78,1.45,1.98,2.55c0.33,1.81-0.39,3.62-0.94,5.37c-0.55,1.74-0.94,3.76-0.05,5.36c1.18,2.11,4.15,2.51,6.28,1.49
						c2.13-1.01,3.61-3.03,5-4.96C331.51,98.77,333,96.15,331.83,93.95z"/>
				</g>
				<path class="st4" d="M316.69,92.45l-0.24-1.05c0.43-0.2,0.91-0.28,1.36-0.43c-0.61-0.3-1.27-0.43-1.89-0.13
					C315.74,91.47,316.09,92.22,316.69,92.45z"/>
			</g>
			<g class="st7">
				<path class="st11" d="M304.54,114.8c-6.52,8.85-13.15,17.81-21.78,24.47c-17.28,13.36-41.2,15.81-62.04,9.33
					c-4.24-1.32-8.4-2.99-12.18-5.38c-13.97-8.82-20.63-25.76-26.39-41.53c-1.28-3.51-2.58-7.09-2.75-10.82
					c-0.1-2.14,0.08-4.55-1.35-6.11c-1.43-1.57-4.9-0.19-3.95,1.72l-1.28-1.25c-1,12.42,13.47,21.6,13.67,34.08
					c0.04,2.48-0.5,4.97,0,7.39c1.05,5.1,6.12,8.02,10.46,10.73c4.34,2.71,8.93,7,8.07,12.12c11.51-0.89,23.21,0.74,34.13,4.75
					c3.4,1.24,6.85,2.75,10.44,2.57c2.61-0.13,5.09-1.14,7.51-2.13c8.42-3.46,16.83-6.92,25.25-10.38c2.96-1.21,5.98-2.48,8.36-4.64
					c2.65-2.42,4.29-5.76,6.25-8.79c3.74-5.77,8.77-10.54,12.7-16.17c3.94-5.64,6.8-12.69,5.26-19.49
					C313.45,102.61,308.94,108.83,304.54,114.8z"/>
			</g>
			<g class="st7">
				<path class="st4" d="M284.51,125.16c-17.34,14.62-53.04,21.61-69.19,5.28c-4.75-4.81-10.98-15.34-15.48-20.4
					c-4.49-5.04,0.98-15.58-2.95-21.09c-4.87-6.83-12.52,0.59-10.6,7.09c7.66,25.96,22.07,50.99,48.22,49.25
					c9.96-0.67,25.94-0.29,34.93-4.69c14.38-7.03,37.73-28.51,41.46-44.48C304.3,104.74,292.35,118.55,284.51,125.16z"/>
			</g>
			<g>
				<path class="st8" d="M199.59,87.58c0.26-0.04,0.52,0.03,0.78,0.01c-0.06-0.14-0.09-0.28-0.15-0.41L199.59,87.58z"/>
			</g>
		</g>
		<path class="st12" d="M305.78,151.32c25.15,6.04,50.65,11.86,76.51,11.66c1.86-0.02,3.95-0.15,5.2-1.53
			c1.82-1.99,0.81-5.15-0.31-7.6c-3.98-8.75-8.24-17.7-15.41-24.11c-7.16-6.41-18.01-9.67-26.6-5.37c-3.41,1.71-6.41,4.55-10.2,5.08
			c-2.27,0.33-4.57-0.24-6.8-0.8c-10.02-2.52-21.28-5-30.16,0.28c-3.77,2.24-6.62,5.65-9.26,9.19c-1.2-0.12-2.38,1.13-2.33,2.41
			c0.05,1.46,1.12,2.69,2.23,3.64C293.38,148.25,299.7,149.86,305.78,151.32z"/>
		<g>
			<path class="st17" d="M667.05,93.31c-9.94-3.14-19.4,4.66-28.77,9.02c-8.49,3.96-17.97,5.17-27.3,6.07
				c-27.03,2.59-54.3,2.9-81.45,0.91c-8.6-0.63-17.31-1.37-25.79-0.31c-1.38-0.8-3.25-0.26-4.75,0.77
				c-0.35,0.08-0.71,0.09-1.06,0.17l0.9-0.06c-0.19,0.14-0.41,0.25-0.59,0.4c-7.04,6.13-9.19,17.44-4.94,26.02
				c2.11,4.26,5.59,7.86,6.87,12.45c1.71,6.14-0.88,12.79,0.66,18.96c1.52,6.09,6.87,10.61,12.64,12.71
				c5.78,2.1,12.01,2.2,18.11,2.28c2.11,0.03,4.35,0.11,6.1,1.33c3.02,2.12,3.2,6.5,4.53,9.98c3.55,9.27,15.67,11.83,24.93,9.19
				c9.26-2.64,17.17-8.82,26.29-11.9c0.04,6.35,6.01,11.61,12.18,12.29c6.17,0.67,12.19-2.28,16.93-6.29
				c9.26-7.84,14.61-19.42,19.69-30.6c8.65,2.89,18.55-1.79,23.22-9.66c4.66-7.88,4.58-18.15,1.24-26.85
				c-0.68-1.79-1.51-3.77-0.86-5.55c0.71-1.96,2.87-2.81,4.62-3.85c4.89-2.9,7.78-8.94,7.05-14.74
				C676.8,100.27,672.51,95.03,667.05,93.31z"/>
			<g>
				<path class="st10" d="M523.15,148.55c-8.05-7.5-14.55-16.73-18.95-26.91l-3.93-4.55c-3.33,3.83-2.67,10.09,0.15,14.43
					c2.81,4.35,7.28,7.23,11.61,9.96C515.72,143.85,519.44,146.2,523.15,148.55z"/>
				<path class="st4" d="M512.95,160.52l1.79,0.22C514.19,160.36,513.56,160.37,512.95,160.52z"/>
				<path class="st4" d="M510.74,160.25c0.64,0.09,1.27,0.26,1.9,0.37c0.1-0.04,0.2-0.07,0.31-0.1L510.74,160.25z"/>
				<path class="st10" d="M512.64,160.61c-1.05,0.39-1.97,1.31-2.11,2.48c-0.23,1.95,1.14,3.83,2.84,4.77
					c1.71,0.93,3.68,1.14,5.59,1.32c7.19,0.69,14.39,1.38,21.58,2.06C532.05,165.81,522.48,162.22,512.64,160.61z"/>
				<path class="st10" d="M555.89,180.35c-2.87,1.21-5.27,4.17-4.85,7.35l2.72-2.81c-1.64,1.65-0.17,4.83,2.03,5.59
					c2.2,0.75,4.57-0.09,6.71-0.93c7.37-2.9,14.68-5.96,21.92-9.18c-6.44-0.31-12.87-0.63-19.31-0.93
					C561.99,179.27,558.75,179.14,555.89,180.35z"/>
				<path class="st4" d="M603.39,186.7c0.24,1.89,1.49,3.8,3.32,4.15c2.52,0.48,4.5-1.98,5.93-4.12
					c5.43-8.14,11.55-15.8,18.26-22.87c-10.06,4.42-19.26,10.79-27.04,18.65C603.5,183.88,603.21,185.28,603.39,186.7z"/>
				<path class="st4" d="M603.29,183.04c0.18-0.19,0.39-0.35,0.57-0.53c0.12-0.46,0.22-0.94,0.35-1.39L603.29,183.04z"/>
				<path class="st10" d="M644.74,143.66l0.21,1.3c-2.25,1.23-3.64,3.92-3.39,6.54c0.25,2.63,2.11,5.05,4.55,5.91
					c1.14,0.4,2.42,0.48,3.52,0c2.21-0.96,3.01-3.7,3.48-6.13c1.41-7.13,2.24-14.39,2.47-21.68
					C650.15,132.29,646.05,137.59,644.74,143.66z"/>
				<path class="st10" d="M667.15,103.67c-0.61-0.88-1.58-1.4-2.54-1.78c-3.78-1.52-8.09-1.26-11.73,0.47
					c1.01,0.35,1.94,1.22,2.27,2.3c0.54,1.76,0.04,3.64-0.3,5.43c-0.35,1.8-0.49,3.85,0.58,5.33c1.42,1.97,4.41,2,6.41,0.74
					c2-1.25,3.23-3.43,4.38-5.52C667.41,108.48,668.58,105.71,667.15,103.67z"/>
				<path class="st4" d="M651.95,103.97l-0.36-1.02c0.4-0.25,0.86-0.39,1.29-0.59c-0.64-0.22-1.31-0.28-1.89,0.11
					C650.89,103.1,651.33,103.8,651.95,103.97z"/>
			</g>
			<path class="st6" d="M642.53,127.59c-5.42,9.55-10.95,19.23-18.72,26.87c-15.58,15.3-39.04,20.58-60.5,16.61
				c-4.37-0.81-8.7-1.98-12.73-3.9c-14.92-7.1-23.54-23.13-31.12-38.11c-1.69-3.33-3.4-6.74-4.01-10.43
				c-0.35-2.11-0.46-4.53-2.06-5.91c-1.6-1.38-4.89,0.39-3.72,2.18l-1.42-1.09c0.47,12.45,15.93,19.86,17.61,32.22
				c0.33,2.45,0.09,4.99,0.88,7.33c1.65,4.93,7.02,7.24,11.65,9.41c4.63,2.18,9.7,5.91,9.45,11.08c11.32-2.24,23.14-2,34.45,0.68
				c3.52,0.83,7.13,1.92,10.67,1.32c2.58-0.44,4.92-1.73,7.21-3.01c7.94-4.43,15.89-8.86,23.84-13.3c2.8-1.56,5.65-3.16,7.76-5.61
				c2.34-2.71,3.57-6.22,5.16-9.46c3.03-6.18,7.46-11.5,10.71-17.57c3.24-6.06,5.25-13.39,2.91-19.98
				C649.94,114.43,646.19,121.15,642.53,127.59z"/>
			<g class="st7">
				<path class="st4" d="M623.87,140.25c-15.49,16.56-50.1,27.74-68.08,13.43c-5.29-4.21-12.71-13.93-17.78-18.42
					c-5.05-4.47-0.88-15.59-5.42-20.59c-5.65-6.21-12.36,2.06-9.69,8.29c10.68,24.87,27.96,48.02,53.71,43.2
					c9.81-1.84,25.73-3.36,34.13-8.79c13.45-8.7,34.09-32.79,35.9-49.08C641.1,117.63,630.87,132.77,623.87,140.25z"/>
			</g>
			<g>
				<path class="st10" d="M611.38,112.52c-4.2,0.14-8.38-0.67-12.58-0.76c-4.49-0.09-8.94,0.66-13.41,1.09
					c-6.85,0.66-13.75,0.56-20.64,0.45c-2.67-0.04-5.35-0.09-8.02-0.13c-4.21-0.06-8.43-0.13-12.64-0.41
					c-2.75-0.19-5.55-0.38-8.23,0.15c2.66,4.43,3.37,9.78,5.11,14.68c5.05,14.25,19.57,23.9,34.26,24.82
					c14.69,0.93,29.09-5.97,39.39-16.56c4.23-4.34,7.84-9.27,12-13.68c5-5.31,10.83-9.96,14.44-16.35
					C630.87,106.14,621.57,112.16,611.38,112.52z"/>
				<path class="st8" d="M535.1,113c0.25-0.07,0.51-0.04,0.77-0.09c-0.07-0.13-0.12-0.26-0.19-0.39L535.1,113z"/>
			</g>
		</g>
		<g>
			<path class="st17" d="M408.23,239.46c-10.06,2.75-19.2-5.42-28.39-10.15c-8.33-4.29-17.75-5.88-27.04-7.14
				c-26.9-3.65-54.14-5.03-81.34-4.11c-8.61,0.29-17.36,0.69-25.78-0.7c-1.41,0.74-3.26,0.14-4.72-0.96
				c-0.35-0.09-0.71-0.11-1.05-0.21l0.89,0.1c-0.19-0.14-0.4-0.27-0.57-0.42c-6.79-6.4-8.5-17.79-3.92-26.19
				c2.28-4.18,5.9-7.63,7.36-12.17c1.95-6.07-0.37-12.81,1.41-18.92c1.75-6.02,7.27-10.33,13.13-12.2
				c5.86-1.88,12.09-1.72,18.19-1.57c2.11,0.06,4.35,0.07,6.15-1.09c3.1-1.99,3.45-6.36,4.92-9.79c3.91-9.13,16.12-11.21,25.27-8.21
				c9.15,3,16.81,9.48,25.8,12.93c0.29-6.35,6.47-11.37,12.66-11.8c6.2-0.44,12.09,2.75,16.67,6.95
				c8.95,8.2,13.84,19.97,18.47,31.35c8.75-2.55,18.46,2.52,22.81,10.57c4.36,8.06,3.86,18.32,0.19,26.86
				c-0.76,1.77-1.66,3.71-1.08,5.52c0.64,1.99,2.76,2.92,4.47,4.03c4.77,3.09,7.42,9.24,6.47,15.01
				C418.24,232.9,413.75,237.95,408.23,239.46z"/>
			<g>
				<path class="st4" d="M266.61,178.6c-8.34,7.18-15.21,16.15-20,26.15l-4.11,4.39c-3.18-3.96-2.27-10.18,0.71-14.41
					c2.99-4.24,7.56-6.94,11.99-9.51C259.01,183.01,262.81,180.8,266.61,178.6z"/>
				<path class="st4" d="M256.9,166.24l1.8-0.14C258.13,166.44,257.5,166.42,256.9,166.24z"/>
				<path class="st4" d="M254.67,166.43c0.65-0.06,1.28-0.21,1.92-0.29c0.1,0.04,0.2,0.08,0.31,0.11L254.67,166.43z"/>
				<path class="st4" d="M256.59,166.14c-1.03-0.42-1.91-1.39-2-2.55c-0.16-1.97,1.29-3.79,3.03-4.65c1.74-0.88,3.72-0.99,5.64-1.11
					c7.22-0.4,14.43-0.81,21.65-1.21C276.19,161.7,266.49,164.91,256.59,166.14z"/>
				<g class="st7">
					<path class="st4" d="M300.57,148.12c-2.82-1.33-5.1-4.37-4.55-7.53l2.6,2.92c-1.57-1.71,0.02-4.83,2.25-5.5
						c2.23-0.67,4.56,0.26,6.67,1.19c7.25,3.2,14.43,6.54,21.54,10.05c-6.44,0.06-12.89,0.12-19.33,0.17
						C306.63,149.43,303.39,149.44,300.57,148.12z"/>
				</g>
				<g class="st7">
					<path class="st4" d="M348.29,143.64c0.32-1.88,1.65-3.73,3.48-4.01c2.53-0.39,4.42,2.15,5.76,4.35
						c5.11,8.35,10.92,16.25,17.35,23.57c-9.88-4.81-18.82-11.54-26.29-19.7C348.29,146.46,348.05,145.05,348.29,143.64z"/>
				</g>
				<path class="st4" d="M348.05,147.3c0.17,0.19,0.37,0.37,0.54,0.55c0.11,0.47,0.18,0.94,0.3,1.41L348.05,147.3z"/>
				<path class="st4" d="M387.92,188.28l0.26-1.29c-2.2-1.32-3.48-4.06-3.13-6.68c0.35-2.61,2.31-4.95,4.78-5.72
					c1.16-0.36,2.44-0.37,3.52,0.15c2.17,1.05,2.86,3.82,3.24,6.25c1.12,7.19,1.66,14.47,1.61,21.77
					C392.88,199.85,388.99,194.38,387.92,188.28z"/>
				<path class="st4" d="M408.74,229.13c-0.64,0.84-1.63,1.33-2.61,1.68c-3.84,1.37-8.14,0.94-11.7-0.93
					c1.02-0.31,1.98-1.15,2.35-2.21c0.61-1.74,0.19-3.64-0.08-5.45c-0.28-1.81-0.35-3.85,0.79-5.3c1.49-1.9,4.49-1.82,6.43-0.49
					c1.94,1.34,3.09,3.56,4.16,5.69C409.19,224.32,410.25,227.13,408.74,229.13z"/>
				<path class="st4" d="M393.56,228.23l-0.4,0.99c0.4,0.27,0.85,0.42,1.27,0.65c-0.65,0.19-1.32,0.22-1.89-0.17
					C392.46,229.04,392.93,228.36,393.56,228.23z"/>
			</g>
			<path class="st6" d="M385.08,204.25c-5.04-9.76-10.18-19.66-17.65-27.6c-14.96-15.9-38.2-22.09-59.8-18.97
				c-4.39,0.64-8.77,1.63-12.88,3.39c-15.19,6.51-24.43,22.18-32.6,36.86c-1.82,3.27-3.66,6.6-4.42,10.26
				c-0.43,2.09-0.64,4.5-2.29,5.82c-1.66,1.31-4.87-0.59-3.63-2.32l-1.47,1.03c0.97-12.42,16.71-19.21,18.87-31.5
				c0.43-2.44,0.29-4.99,1.16-7.29c1.85-4.87,7.31-6.96,12.02-8.94c4.71-1.99,9.92-5.52,9.88-10.71
				c11.23,2.69,23.04,2.92,34.45,0.68c3.55-0.69,7.2-1.64,10.71-0.9c2.56,0.53,4.85,1.92,7.08,3.29c7.77,4.74,15.53,9.48,23.3,14.22
				c2.74,1.67,5.52,3.38,7.53,5.9c2.24,2.8,3.33,6.37,4.79,9.66c2.79,6.29,7.01,11.79,10.01,17.97c3,6.19,4.72,13.6,2.13,20.08
				C391.96,217.69,388.48,210.83,385.08,204.25z"/>
			<g class="st18">
				<path class="st6" d="M366.93,190.86c-14.83-17.17-48.97-29.7-67.5-16.1c-5.45,4-13.25,13.41-18.49,17.7
					c-5.22,4.27-1.49,15.55-6.23,20.37c-5.88,5.97-12.27-2.55-9.35-8.67c11.65-24.43,29.82-46.88,55.37-41.04
					c9.73,2.22,25.58,4.37,33.75,10.13c13.1,9.21,32.78,34.1,33.94,50.44C383.26,214.14,373.63,198.62,366.93,190.86z"/>
			</g>
			<g>
				<path class="st8" d="M353.36,218.07c-4.19-0.32-8.4,0.35-12.6,0.26c-4.5-0.09-8.91-1.01-13.36-1.61
					c-6.82-0.92-13.72-1.1-20.6-1.26c-2.67-0.07-5.35-0.14-8.02-0.19c-4.22-0.11-8.43-0.21-12.65-0.09
					c-2.76,0.09-5.56,0.17-8.22-0.46c2.83-4.33,3.75-9.64,5.68-14.46c5.61-14.05,20.49-23.12,35.2-23.46
					c14.71-0.35,28.83,7.12,38.71,18.11c4.06,4.5,7.47,9.57,11.45,14.15c4.78,5.5,10.43,10.38,13.79,16.91
					C372.58,225.21,363.53,218.83,353.36,218.07z"/>
				<path class="st8" d="M277.15,214.6c0.25,0.08,0.52,0.05,0.77,0.12c-0.08,0.12-0.13,0.26-0.21,0.38L277.15,214.6z"/>
			</g>
		</g>
		<path class="st12" d="M312.11,171.06c-0.27-3.37-0.53-6.74-0.79-10.1c-0.24-3.03-0.73-6.49-3.29-8.12
			c-2.64-1.68-6.95-1.01-8.21-3.87c-0.38-0.86-0.35-1.85-0.68-2.73c-0.44-1.16-1.46-1.99-2.44-2.75
			c-6.85-5.36-13.7-10.72-20.55-16.08c-5.63-4.4-12.33-9.07-19.3-7.5c-5.26,1.19-9.73,5.86-15.1,5.28c-3.68-0.4-6.58-3.18-9.26-5.71
			c-4.32-4.06-9.02-7.96-14.67-9.75c-5.65-1.78-12.45-1.03-16.55,3.25c-1.96,2.05-3.44,4.92-6.2,5.58
			c-2.81,0.67-5.47-1.33-8.06-2.62c-4.6-2.3-10.22-2.44-14.93-0.38c-3.41,1.5-7.23,4.1-10.46,2.26c-3.7-2.1-3.62-8.75-7.79-9.58
			c-0.98-0.19-1.99,0.02-2.94,0.33c-7.37,2.36-13.37,10.26-20.96,8.73l0.92-1.18c-2.57,1.43-3.86,4.51-3.9,7.44
			c-0.04,2.93,0.97,5.76,2.04,8.5c3.83,9.72,8.68,19.15,15.39,27.15c6.71,8.02,15.37,14.6,25.33,17.77
			c8.35,2.66,17.26,2.86,26.03,3.04c34.69,0.71,69.38,1.43,104.08,2.14c4.2,0.08,9.19-0.24,11.36-3.84
			C312.45,176.21,312.3,173.54,312.11,171.06z"/>
		<g>
			<path class="st19" d="M190.84,120.36c-7.36-4.84-16.99-0.89-25.71,0.36c-7.9,1.13-15.94-0.15-23.79-1.64
				c-22.72-4.33-45.08-10.52-66.78-18.5c-6.87-2.53-13.82-5.18-21-6.34c-0.93-0.95-2.6-0.97-4.07-0.51c-0.31-0.02-0.6-0.1-0.91-0.11
				l0.75,0.15c-0.19,0.07-0.4,0.11-0.58,0.18c-7.25,3.2-11.76,11.65-10.38,19.45c0.69,3.87,2.66,7.55,2.59,11.49
				c-0.1,5.27-3.83,9.93-4.08,15.19c-0.25,5.18,3.03,10.02,7.24,13.06c4.21,3.04,9.28,4.58,14.24,6.08c1.72,0.52,3.53,1.11,4.66,2.5
				c1.95,2.4,1.03,5.91,1.27,8.98c0.64,8.19,9.93,13.08,18.13,13.17c8.21,0.1,16.18-2.93,24.38-3.23
				c-1.52,5.05,2.09,10.62,6.96,12.62c4.88,2,10.51,1.07,15.36-0.99c9.48-4.03,16.66-11.93,23.53-19.61
				c6.37,4.34,15.6,2.97,21.32-2.18c5.73-5.14,8.16-13.3,7.55-20.98c-0.13-1.58-0.32-3.34,0.65-4.6c1.06-1.39,3.03-1.55,4.72-1.97
				c4.7-1.15,8.53-5.25,9.36-10.01C197.11,128.16,194.88,123.02,190.84,120.36z"/>
			<g>
				<path class="st4" d="M59.79,130.16c-4.75-7.83-7.82-16.69-8.94-25.79l-2.1-4.54c-3.66,2.24-4.64,7.37-3.4,11.48
					s4.19,7.44,7.06,10.64C54.87,124.67,57.33,127.42,59.79,130.16z"/>
				<path class="st4" d="M48.55,137.24l1.41,0.6C49.6,137.4,49.08,137.27,48.55,137.24z"/>
				<path class="st4" d="M46.8,136.5c0.5,0.22,0.97,0.51,1.46,0.74c0.1-0.01,0.19-0.01,0.28,0L46.8,136.5z"/>
				<path class="st4" d="M48.27,137.24c-0.95,0.06-1.92,0.57-2.32,1.46c-0.67,1.49,0,3.31,1.17,4.45c1.16,1.15,2.73,1.77,4.24,2.37
					c5.71,2.24,11.42,4.48,17.14,6.73C62.87,145.94,55.92,140.84,48.27,137.24z"/>
				<path class="st4" d="M78.8,163.09c-2.64,0.28-5.32,2.05-5.74,4.67l2.9-1.58c-1.73,0.92-1.31,3.78,0.31,4.9
					c1.61,1.12,3.75,1.01,5.71,0.85c6.73-0.56,13.45-1.26,20.14-2.11c-5.18-1.76-10.37-3.53-15.55-5.3
					C84.06,163.67,81.44,162.8,78.8,163.09z"/>
				<path class="st4" d="M116.08,179.34c-0.26,1.55,0.3,3.36,1.71,4.07c1.94,0.97,4.16-0.5,5.84-1.86
					c6.43-5.17,13.29-9.8,20.5-13.82c-9.29,1.14-18.37,4.01-26.64,8.39C116.85,177.13,116.27,178.17,116.08,179.34z"/>
				<path class="st4" d="M116.89,176.41c0.19-0.11,0.4-0.18,0.59-0.29c0.21-0.34,0.4-0.68,0.63-1.01L116.89,176.41z"/>
				<path class="st4" d="M160.35,154.99l-0.15,1.07c-2.13,0.45-3.92,2.25-4.37,4.39c-0.44,2.14,0.5,4.5,2.28,5.75
					c0.83,0.59,1.86,0.94,2.88,0.83c2.04-0.24,3.35-2.23,4.33-4.03c2.89-5.32,5.33-10.88,7.3-16.6
					C167.54,147.25,162.9,150.5,160.35,154.99z"/>
				<g class="st7">
					<path class="st4" d="M188.41,128.59c-0.28-0.84-0.95-1.48-1.65-2.01c-2.72-2.1-6.31-2.91-9.7-2.39
						c0.74,0.51,1.29,1.43,1.29,2.35c0.01,1.53-0.85,2.9-1.57,4.24c-0.72,1.35-1.34,2.93-0.82,4.37c0.68,1.89,3.12,2.62,5.06,2.1
						c1.93-0.53,3.47-1.97,4.92-3.34C187.44,132.47,189.07,130.54,188.41,128.59z"/>
				</g>
				<path class="st4" d="M175.9,125.23l-0.04-0.89c0.39-0.11,0.8-0.11,1.2-0.16c-0.47-0.33-1-0.53-1.57-0.37
					C175.24,124.3,175.44,124.95,175.9,125.23z"/>
			</g>
			<path class="st6" d="M162.46,141.73c-6.76,6.29-13.64,12.66-21.84,16.88c-16.46,8.45-36.91,7.09-53.49-1.13
				c-3.37-1.67-6.62-3.61-9.46-6.09c-10.46-9.15-13.6-23.89-16.15-37.55c-0.57-3.04-1.14-6.14-0.74-9.2
				c0.23-1.75,0.73-3.7-0.25-5.17c-0.97-1.48-4.09-0.84-3.57,0.85l-0.9-1.2c-2.65,9.98,8.19,19.5,6.55,29.7
				c-0.32,2.02-1.14,3.98-1.07,6.02c0.15,4.3,3.98,7.39,7.24,10.2c3.25,2.81,6.49,6.97,5.02,11.01c9.79,0.9,19.4,3.86,27.98,8.66
				c2.67,1.5,5.36,3.21,8.4,3.56c2.21,0.27,4.44-0.2,6.62-0.67c7.57-1.64,15.15-3.28,22.72-4.9c2.66-0.58,5.39-1.18,7.7-2.61
				c2.58-1.6,4.44-4.09,6.52-6.28c3.98-4.18,8.9-7.35,13.02-11.39c4.12-4.04,7.55-9.39,7.25-15.15
				C171.71,133.05,167.01,137.49,162.46,141.73z"/>
			<g class="st7">
				<path class="st4" d="M144.13,147.36c-16.69,9.47-47.7,10.17-58.9-5.42c-3.3-4.59-7-14.04-10.05-18.79
					c-3.04-4.74,3.08-12.57,0.58-17.6c-3.1-6.25-10.6-1.28-9.94,4.29c2.67,22.23,11.15,44.65,33.38,46.91
					c8.47,0.86,21.84,3.41,30.03,1.09c13.1-3.72,35.84-17.93,41.28-30.42C163.71,133.5,151.66,143.08,144.13,147.36z"/>
			</g>
		</g>
		<g>
			<path class="st20" d="M308,181.75c-6.88,7.82-19.01,6.04-29.29,7.16c-9.31,1-18.05,4.87-26.5,8.93
				c-24.47,11.76-47.96,25.61-70.17,41.36c-7.03,4.98-14.11,10.13-21.91,13.61c-0.77,1.4-2.65,1.91-4.47,1.79
				c-0.34,0.12-0.66,0.3-1,0.41l0.8-0.41c-0.24-0.02-0.49,0-0.71-0.04c-9.2-1.6-16.89-10.17-17.69-19.71
				c-0.4-4.74,0.72-9.62-0.56-14.21c-1.71-6.14-7.36-10.48-9.25-16.57c-1.86-5.99,0.39-12.62,4.24-17.41
				c3.86-4.79,9.14-8.09,14.32-11.32c1.78-1.12,3.67-2.34,4.53-4.3c1.49-3.37-0.62-7.21-1.28-10.88
				c-1.76-9.77,7.28-18.23,16.57-20.77c9.29-2.53,19.26-1.34,28.66-3.42c-3.25-5.45-0.86-13.05,4.07-16.81
				c4.93-3.78,11.61-4.37,17.74-3.38c11.98,1.92,22.55,9.06,32.68,16.01c5.9-6.95,16.8-8.07,24.86-3.74
				c8.07,4.34,13.31,13.16,14.95,22.33c0.34,1.89,0.65,4.01,2.14,5.2c1.62,1.3,3.91,0.92,5.95,0.9c5.68-0.04,11.28,3.63,13.66,8.97
				C312.74,170.75,311.77,177.44,308,181.75z"/>
			<g>
				<path class="st4" d="M156.27,208.92c-3.01,10.57-3.8,21.84-2.3,32.83l-1.01,5.94c-4.83-1.56-7.5-7.26-7.34-12.43
					c0.16-5.17,2.49-9.95,4.77-14.53C152.35,216.78,154.31,212.85,156.27,208.92z"/>
				<path class="st4" d="M141.35,203.95l1.42-1.11C142.49,203.45,141.95,203.76,141.35,203.95z"/>
				<path class="st4" d="M139.6,205.32c0.5-0.4,0.94-0.88,1.44-1.29c0.11-0.02,0.21-0.05,0.32-0.09L139.6,205.32z"/>
				<path class="st4" d="M141.03,204.03c-1.1,0.21-2.36-0.11-3.08-1.03c-1.2-1.55-1-3.87-0.03-5.55c0.97-1.69,2.56-2.88,4.1-4.03
					c5.8-4.31,11.61-8.62,17.41-12.93C131.95,179.51,135.64,191.9,141.03,204.03z"/>
				<path class="st4" d="M160.93,156.59c-3.08,0.45-6.67-0.84-7.94-3.78l3.78,0.99c-2.25-0.56-2.64-4.04-1.15-5.83
					c1.49-1.78,3.95-2.29,6.23-2.68c7.8-1.32,15.64-2.49,23.5-3.47c-5.34,3.59-10.69,7.19-16.04,10.78
					C166.72,154.35,164.01,156.13,160.93,156.59z"/>
				<path class="st4" d="M205.2,126.1c-0.77-1.74-0.69-4.03,0.7-5.27c1.9-1.71,4.87-0.64,7.2,0.45c8.86,4.16,18.06,7.55,27.46,10.13
					c-10.89,1.42-22.07,0.72-32.79-1.97C206.74,128.45,205.77,127.4,205.2,126.1z"/>
				<path class="st4" d="M262.85,143.5l-0.5-1.2c-2.56,0.1-5.14-1.48-6.29-3.85c-1.15-2.38-0.81-5.42,0.84-7.41
					c0.77-0.93,1.83-1.66,3.02-1.82c2.39-0.32,4.49,1.62,6.15,3.44c4.89,5.38,9.36,11.16,13.33,17.28
					C273.36,150.44,267.11,148.01,262.85,143.5z"/>
				<path class="st4" d="M305.67,168.08c-0.07,1.06-0.63,2-1.25,2.84c-2.45,3.25-6.28,5.27-10.28,5.66
					c0.68-0.82,1.03-2.04,0.75-3.14c-0.45-1.78-1.84-3.14-3.07-4.5c-1.23-1.36-2.41-3.03-2.26-4.87c0.2-2.41,2.74-3.99,5.1-3.94
					c2.36,0.05,4.53,1.27,6.61,2.46C303.39,163.82,305.83,165.6,305.67,168.08z"/>
				<path class="st4" d="M289.56,180.45l0.22,1.05c0.48,0,0.94-0.12,1.42-0.16c-0.43,0.52-0.98,0.92-1.68,0.89
					C289.09,181.73,289.11,180.9,289.56,180.45z"/>
			</g>
			<path class="st6" d="M269.27,165.09c-9.59-5.37-19.32-10.8-29.93-13.32c-21.25-5.04-44.05,2.58-60.37,17.09
				c-3.32,2.95-6.42,6.19-8.88,9.92c-9.09,13.8-8.18,31.97-6.91,48.72c0.28,3.72,0.57,7.53,1.96,10.99c0.79,1.99,1.95,4.1,1.29,6.12
				c-0.66,2.01-4.38,2.2-4.31,0.07l-0.65,1.67c-6.04-10.9,3.36-25.24-1.6-36.68c-0.98-2.27-2.51-4.33-3.04-6.74
				c-1.14-5.08,2.27-9.82,5.11-14.08c2.84-4.25,5.25-10.07,2.36-14.38c10.84-3.93,20.84-10.24,29.13-18.4
				c2.58-2.53,5.11-5.33,8.45-6.65c2.43-0.96,5.11-1.07,7.72-1.16c9.1-0.32,18.19-0.64,27.28-0.95c3.2-0.12,6.47-0.22,9.53,0.78
				c3.41,1.11,6.28,3.48,9.32,5.43c5.79,3.72,12.33,5.98,18.25,9.49c5.91,3.51,11.42,8.76,12.83,15.59
				C282.42,172.52,275.74,168.72,269.27,165.09z"/>
			<g class="st21">
				<path class="st4" d="M246.76,163.92c-21.83-6.17-57.23,2.17-65.21,23.71c-2.35,6.34-3.68,18.5-5.69,24.97
					c-2,6.44,7.32,13.79,6.01,20.43c-1.62,8.23-11.65,4.62-12.58-2.08c-3.72-26.81-0.92-55.56,23.62-64.75
					c9.35-3.5,23.76-10.44,33.75-10.13c16.01,0.48,46.14,10.42,56.11,23.42C273.2,174.36,256.61,166.69,246.76,163.92z"/>
			</g>
		</g>
		<g>
			<path class="st20" d="M533.16,256.34c-10.42,0.21-17.3-9.94-25.05-16.77c-7.03-6.2-15.78-10.03-24.48-13.53
				c-25.2-10.11-51.27-18.1-77.88-23.85c-8.42-1.82-17-3.56-24.83-6.97c-1.55,0.38-3.19-0.67-4.34-2.09
				c-0.31-0.17-0.66-0.28-0.96-0.46l0.84,0.32c-0.15-0.19-0.33-0.37-0.45-0.56c-5.03-7.86-3.9-19.33,2.59-26.35
				c3.23-3.5,7.58-5.96,10.11-10c3.37-5.41,2.76-12.52,5.98-18.02c3.17-5.41,9.58-8.23,15.71-8.61c6.14-0.39,12.15,1.27,18.02,2.91
				c2.03,0.57,4.21,1.13,6.23,0.45c3.49-1.19,4.9-5.33,7.16-8.3c6.02-7.9,18.37-6.94,26.51-1.79c8.14,5.15,13.99,13.3,21.86,18.84
				c1.83-6.09,9.04-9.44,15.16-8.36c6.11,1.09,11.05,5.63,14.46,10.81c6.67,10.14,8.55,22.74,10.26,34.91
				c9.11-0.34,17.29,6.95,19.54,15.82s-0.73,18.7-6.37,26.1c-1.17,1.53-2.52,3.19-2.39,5.09c0.14,2.08,1.96,3.5,3.35,5
				c3.87,4.16,4.94,10.77,2.61,16.13C544.48,252.41,538.89,256.22,533.16,256.34z"/>
			<g>
				<path class="st4" d="M410.69,162.74c-9.84,4.92-18.69,11.95-25.78,20.48l-5.06,3.26c-2.12-4.62,0.28-10.44,4.21-13.81
					c3.93-3.38,9.02-4.88,13.95-6.29C402.24,165.16,406.46,163.96,410.69,162.74z"/>
				<path class="st4" d="M404.28,148.39l1.78,0.3C405.42,148.89,404.83,148.7,404.28,148.39z"/>
				<path class="st4" d="M402.08,148.02c0.64,0.1,1.29,0.11,1.93,0.19c0.09,0.06,0.18,0.12,0.27,0.17L402.08,148.02z"/>
				<path class="st4" d="M399.48,147.56c-0.9-0.67-1.52-1.81-1.32-2.97c0.32-1.94,4.1,0.37,6-0.06c1.9-0.41,3.12-0.81,5-0.44
					c7.1,1.37,13-0.23,20.1,1.14C413.74,138.07,393.04,123.11,399.48,147.56z"/>
				<path class="st4" d="M450.18,130.12c-2.41-1.98-3.88-5.48-2.57-8.41l1.81,3.46c-1.1-2.04,1.2-4.67,3.53-4.78
					c2.33-0.12,4.36,1.36,6.18,2.77c6.25,4.87,12.39,9.87,18.43,15c-6.26-1.52-12.52-3.04-18.78-4.56
					C455.74,132.87,452.6,132.08,450.18,130.12z"/>
				<path class="st4" d="M499.47,138.94c0.77-1.74,2.51-3.22,4.36-3.04c2.55,0.25,3.76,3.17,4.53,5.63
					c2.91,9.35,6.62,18.42,11.07,27.09c-8.4-7.08-15.43-15.79-20.68-25.52C498.78,141.68,498.89,140.25,499.47,138.94z"/>
				<path class="st4" d="M497.3,152.27c0.12,0.23,0.28,0.44,0.4,0.67c-0.01,0.48-0.05,0.96-0.05,1.44L497.3,152.27z"/>
				<path class="st4" d="M525.96,201.74l0.56-1.19c-1.8-1.82-2.38-4.79-1.4-7.24c0.97-2.46,3.44-4.25,6.03-4.38
					c1.21-0.07,2.46,0.23,3.37,0.99c1.85,1.55,1.84,4.4,1.62,6.86c-0.66,7.24-1.92,14.43-3.75,21.5
					C527.94,214.18,525.51,207.93,525.96,201.74z"/>
				<path class="st4" d="M536.18,246.43c-0.83,0.67-1.91,0.9-2.95,0.99c-4.05,0.38-8.12-1.07-11.11-3.76
					c1.06-0.06,2.2-0.63,2.82-1.57c1.02-1.54,1.07-3.48,1.25-5.31c0.17-1.82,0.61-3.83,2.06-4.94c1.91-1.48,4.79-0.67,6.36,1.1
					c1.56,1.76,2.12,4.2,2.64,6.53C537.79,241.87,538.12,244.87,536.18,246.43z"/>
				<path class="st4" d="M521.67,241.85l-0.63,0.88c0.32,0.35,0.72,0.61,1.08,0.93c-0.68,0.03-1.33-0.11-1.79-0.64
					C520.41,242.38,521.04,241.83,521.67,241.85z"/>
			</g>
			<path class="st6" d="M519.31,216.53c-2.52-10.7-5.08-21.55-10.39-31.07c-10.62-19.08-31.64-30.76-53.36-33
				c-4.41-0.45-8.9-0.56-13.32,0.14c-16.31,2.61-29.1,15.55-40.6,27.79c-2.56,2.72-5.16,5.5-6.79,8.86
				c-0.93,1.93-1.71,4.21-3.64,5.09c-1.93,0.88-4.58-1.75-2.95-3.13l-1.67,0.64c3.97-11.81,20.89-14.55,25.99-25.94
				c1.01-2.25,1.49-4.77,2.91-6.79c2.97-4.27,8.78-4.95,13.83-5.73s10.97-2.93,12.19-7.97c10.22,5.35,21.63,8.46,33.23,9.07
				c3.61,0.19,7.38,0.17,10.61,1.74c2.36,1.15,4.23,3.04,6.07,4.91c6.37,6.49,12.75,12.99,19.12,19.48
				c2.24,2.28,4.53,4.63,5.86,7.56c1.48,3.27,1.67,6.99,2.28,10.54c1.17,6.77,3.92,13.14,5.31,19.87c1.4,6.73,1.26,14.33-2.83,19.98
				C522.7,231.24,521,223.75,519.31,216.53z"/>
			<g class="st21">
				<path class="st4" d="M504.98,199.12c-10.19-20.26-40.24-40.75-61.52-32.09c-6.26,2.54-16.13,9.77-22.25,12.65
					c-6.1,2.87-5.24,14.71-11.01,18.23c-7.16,4.36-11.28-5.47-6.95-10.69c17.26-20.85,40.37-38.19,63.71-26.29
					c8.89,4.53,23.74,10.47,30.27,18.06c10.45,12.13,23.46,41.07,20.6,57.21C515.13,225.69,509.58,208.27,504.98,199.12z"/>
			</g>
		</g>
		<path class="st12" d="M439,201.36c-2.28-2.52-4.91-5.78-4.16-9.1c1.25-5.5,10.66-8.59,9.54-14.12
			c-1.12-5.53-5.5-14.56-10.68-16.78c-6.43-2.76-18.35-4.35-25.01-2.24c-9.35,2.95-21.59,8.47-31.39,8.45
			c-5.67-0.01-33.66,5.09-44.88,5.94c-3.5,0.27-12.89-5.54-16.13-4.19c-3.31,1.37-0.46,6.08-3.78,7.45
			c-6.61,2.73-20.28-1.24-26.38,2.48l0.98-1.89c-2.84,1.44-3.78,5.27-2.83,8.31c0.94,3.04,3.3,5.41,5.72,7.48
			c7.17,6.12,15.64,10.71,24.68,13.4c7.53,2.23,15.37,3.15,23.17,4.06c14.42,1.68,28.84,3.34,43.26,5.01
			c12.09,1.41,24.2,2.81,36.36,3.43c4.33,0.22,8.83,0.32,12.8-1.42C434.24,215.9,452.05,215.77,439,201.36z"/>
		<g>
			<path class="st16" d="M257.02,174.08c9.18-4.93,19.93,0.96,29.94,3.52c9.08,2.3,18.62,1.73,27.95,0.89
				c27.03-2.49,53.88-7.26,80.19-14.25c8.33-2.22,16.76-4.57,25.28-5.11c1.21-1.04,3.15-0.86,4.81-0.13
				c0.36,0.02,0.71-0.04,1.07-0.02l-0.89,0.11c0.22,0.1,0.46,0.17,0.66,0.29c8.06,4.7,12.28,15.42,9.7,24.64
				c-1.28,4.59-4.04,8.76-4.44,13.51c-0.53,6.35,3.24,12.4,2.88,18.76c-0.36,6.26-4.77,11.7-10.06,14.83
				c-5.29,3.14-11.39,4.4-17.37,5.62c-2.06,0.41-4.25,0.91-5.75,2.44c-2.57,2.65-1.93,6.98-2.6,10.65
				c-1.76,9.77-13.19,14.54-22.78,13.67c-9.59-0.88-18.51-5.47-28.04-6.81c1.14,6.25-3.75,12.53-9.68,14.35
				c-5.94,1.81-12.4,0.03-17.8-3.04c-10.56-5.98-17.97-16.35-25.03-26.4c-7.96,4.45-18.55,1.69-24.61-5.18
				c-6.05-6.87-7.88-16.98-6.22-26.14c0.34-1.89,0.79-3.98-0.19-5.62c-1.07-1.79-3.34-2.23-5.27-2.93
				c-5.34-1.94-9.3-7.33-9.67-13.16S251.98,176.78,257.02,174.08z"/>
			<g>
				<path class="st4" d="M408.69,195.74c6.51-8.86,11.19-19.16,13.61-29.97l3.02-5.2c3.98,3.14,4.5,9.41,2.54,14.2
					c-1.96,4.8-5.81,8.46-9.55,11.96C415.11,189.72,411.9,192.73,408.69,195.74z"/>
				<path class="st4" d="M420.93,211.45l-1.72,0.55C419.69,211.53,420.31,211.42,420.93,211.45z"/>
				<path class="st4" d="M421.26,211.49c1.1,0.18,2.17,0.91,2.52,2.04c0.59,1.87-0.41,3.97-1.91,5.21c-1.49,1.24-3.4,1.8-5.24,2.34
					c-6.94,2.01-13.88,4.03-20.83,6.04C403.15,220.2,411.88,214.9,421.26,211.49z"/>
				<path class="st4" d="M382.44,238.92c3.04,0.66,5.95,3.11,6.12,6.32l-3.19-2.25c1.91,1.31,1.06,4.7-0.96,5.86
					c-2.02,1.16-4.5,0.77-6.77,0.34c-7.78-1.48-15.53-3.13-23.24-4.95c6.26-1.5,12.53-3.01,18.79-4.5
					C376.24,239,379.4,238.27,382.44,238.92z"/>
				<path class="st4" d="M336.95,253.99c0.11,1.9-0.77,4.01-2.5,4.69c-2.38,0.94-4.79-1.1-6.59-2.94c-6.86-7-14.29-13.38-22.2-19.08
					c10.7,2.48,20.93,7.02,30.04,13.29C336.31,251.25,336.86,252.57,336.95,253.99z"/>
				<path class="st4" d="M288.31,219.39l0.04,1.31c2.43,0.8,4.3,3.18,4.55,5.81c0.25,2.62-1.14,5.35-3.37,6.65
					c-1.05,0.61-2.29,0.91-3.46,0.65c-2.35-0.54-3.64-3.07-4.56-5.37c-2.71-6.74-4.87-13.72-6.46-20.84
					C280.88,209.23,285.9,213.69,288.31,219.39z"/>
				<path class="st4" d="M253.26,181.55c0.43-0.97,1.29-1.67,2.17-2.23c3.43-2.2,7.72-2.75,11.61-1.71
					c-0.92,0.53-1.67,1.56-1.8,2.68c-0.2,1.84,0.63,3.59,1.31,5.29c0.68,1.71,1.2,3.68,0.42,5.35c-1.03,2.19-3.96,2.78-6.16,1.92
					c-2.19-0.87-3.81-2.77-5.33-4.61C253.91,186.33,252.24,183.83,253.26,181.55z"/>
				<path class="st4" d="M273.85,181.74l0.16-1.07c-0.44-0.16-0.92-0.21-1.38-0.34c0.59-0.34,1.23-0.52,1.88-0.25
					C274.73,180.69,274.42,181.46,273.85,181.74z"/>
			</g>
			<path class="st6" d="M287.49,203.2c7.11,8.37,14.34,16.86,23.39,22.92c18.15,12.14,42.18,12.96,62.54,5.07
				c4.14-1.6,8.18-3.56,11.79-6.2c13.34-9.75,18.83-27.1,23.5-43.23c1.04-3.59,2.09-7.26,2-10.99c-0.05-2.13-0.39-4.53,0.93-6.19
				c1.32-1.66,4.88-0.52,4.06,1.45l1.2-1.34c1.85,12.33-11.97,22.48-11.32,34.94c0.13,2.47,0.84,4.92,0.5,7.37
				c-0.7,5.16-5.56,8.41-9.7,11.41c-4.14,3-8.44,7.6-7.23,12.65c-11.54-0.11-23.11,2.32-33.72,7.06c-3.3,1.47-6.64,3.21-10.24,3.29
				c-2.62,0.05-5.16-0.79-7.64-1.62c-8.63-2.87-17.27-5.75-25.9-8.62c-3.04-1.01-6.14-2.06-8.67-4.07c-2.8-2.23-4.67-5.45-6.83-8.34
				c-4.13-5.5-9.47-9.92-13.78-15.26s-7.65-12.19-6.58-19.09C277.77,191.64,282.7,197.55,287.49,203.2z"/>
			<path class="st4" d="M308.18,212.17c18.3,13.4,54.39,17.94,69.39,0.54c4.41-5.12,9.9-16.04,14.04-21.4
				c4.13-5.34-2.04-15.49,1.5-21.25c4.39-7.14,12.53-0.27,11.06,6.35c-5.87,26.42-18.54,52.38-44.74,52.42
				c-9.98,0.02-25.9,1.48-35.17-2.28c-14.82-6.04-39.59-25.88-44.4-41.55C287.05,193.14,299.92,206.12,308.18,212.17z"/>
			<g>
				<path class="st8" d="M390.34,168.87c-0.26-0.02-0.51,0.07-0.77,0.07c0.05-0.14,0.07-0.28,0.12-0.41L390.34,168.87z"/>
			</g>
		</g>
		<g>
			<g class="st7">
				<path class="st11" d="M146.64,32.63c0.24-0.27-0.52-0.52-0.3-0.24l-2.36-0.32c-5.36,4.64-10.41,9.65-15.1,14.97
					c-2.17,2.46-2.62,5.94-3.45,9.12c-1.3,4.91-3.73,9.45-6.14,13.92c9.24-11.99,17.84-24.46,26.43-36.91
					C145.92,32.87,146.4,32.91,146.64,32.63z"/>
			</g>
			<g class="st7">
				<path class="st11" d="M195.12,38.85l-1.19-0.39c-5.04-0.02-10.08,0.54-15,1.66c-2.05,0.47-4.2,1.12-5.57,2.71
					c-1.05,1.21-1.49,2.81-2.23,4.23c-1.07,2.06-2.76,3.74-4.41,5.37c5.38-0.72,9.6-4.75,14.13-7.74
					C185.17,41.83,190.04,39.84,195.12,38.85z"/>
			</g>
			<g class="st7">
				<path class="st11" d="M102.39,51.4c-1.94,2.79-2.77,6.14-3,9.56c0.94-1.99,1.72-4.05,2.73-5.99L102.39,51.4z"/>
			</g>
			<g class="st7">
				<path class="st11" d="M99.57,67.51c-0.3-2.16-0.33-4.38-0.18-6.55c-1.59,3.35-3.26,6.67-4.62,10.12
					c-0.79,1.99-1.54,4.11-1.16,6.22c0.55,3.03,3.28,5.11,4.91,7.72c2.74,4.37,2.31,9.93,1.79,15.05
					c3.08-4.65,3.39-10.64,2.59-16.16C102.11,78.38,100.33,73.03,99.57,67.51z"/>
			</g>
			<g class="st7">
				<path class="st11" d="M210.08,64.44c2.63,1.18,5.05,2.75,7.47,4.32c-1.18-2.52-2.56-4.92-4.13-7.21
					c-0.53-0.77-1.11-1.55-1.94-1.98c-1.01-0.51-2.2-0.42-3.32-0.32c-6.62,0.6-13.24,1.19-19.87,1.79
					C195.72,61.16,203.33,61.4,210.08,64.44z"/>
			</g>
			<g class="st7">
				<path class="st11" d="M289.73,26.92c-3.81,3.89-5.96,9.32-10.28,12.63c12.63-3.76,20.73-16.22,32.61-21.9l-1.88,0.43
					C302.8,19.61,295,21.52,289.73,26.92z"/>
			</g>
			<g class="st7">
				<path class="st11" d="M249.55,50.47c0.67-4.82,0.58-9.73,1.59-14.48c0.43-2.06,1.17-4.09,2.14-5.96
					c-4.15,4.76-7.86,9.99-8.41,16.17c-0.25,2.86,0.2,5.74,0.21,8.61c0.01,2.95-0.45,5.89-1.36,8.69
					C247.31,60.23,248.88,55.28,249.55,50.47z"/>
			</g>
			<g class="st7">
				<path class="st11" d="M258.66,23.99c-2.38,1.4-4.11,3.57-5.39,6.04c1-1.15,2-2.28,3.02-3.37L258.66,23.99z"/>
			</g>
			<g class="st7">
				<path class="st11" d="M322.19,44.46c0.38-0.02,0.67-0.23,1.02-0.32c-0.61,0-1.2,0.14-1.82,0.01L322.19,44.46z"/>
			</g>
			<g class="st7">
				<path class="st11" d="M354.32,42.15c-4.9-2.52-10.26-4.15-15.73-4.81c-2.07-0.25-4.25-0.35-6.18,0.46
					c-3.47,1.47-5.72,5.5-9.21,6.33c4.93,0.08,9.62-3.14,14.61-4.22C343.31,38.73,348.97,40.45,354.32,42.15z"/>
			</g>
			<g class="st7">
				<path class="st11" d="M364.88,68.27c-2.9-3.24-7.78-3.44-12.09-3.93c-3.72-0.42-7.39-1.28-10.95-2.46
					c3.71,2.76,8.34,4.29,12.71,6.03c5.29,2.09,10.79,5.26,12.63,10.64C367.53,74.95,367.3,70.96,364.88,68.27z"/>
			</g>
			<g class="st7">
				<path class="st11" d="M340.78,61.58c0.35,0.13,0.71,0.19,1.07,0.31c-0.78-0.58-1.58-1.14-2.26-1.85L340.78,61.58z"/>
			</g>
			<g class="st7">
				<path class="st11" d="M145.97,169.32c-8.4,1.71-15.77,7.79-19.04,15.72l11.75-7.11c2.68-2.63,6.57-3.65,10.31-3.93
					c3.74-0.28,7.52,0.07,11.25-0.3c9.22-0.92,17.86-6.51,22.47-14.55c-4.84,1.65-8.62,5.51-13.34,7.48
					C162.08,169.64,153.69,167.75,145.97,169.32z"/>
			</g>
			<g class="st7">
				<path class="st11" d="M203.98,140.82c-2.39-0.9-4.69-2.05-7.14-2.79c-6.16-1.84-12.75-0.83-19.09,0.18l2.71,0.61
					c7.37-2.69,16.28-0.42,21.47,5.45c1.3,1.46,2.44,3.18,4.18,4.07c1.88,0.95,4.1,0.78,6.2,0.55c7.56-0.86,15.07-2.21,22.45-4.04
					c-3.97-0.29-7.94-0.58-11.92-0.87C216.46,143.53,209.98,143.05,203.98,140.82z"/>
			</g>
			<g class="st7">
				<path class="st11" d="M253.47,146.82c-3.16-4.28-4.65-9.53-6.68-14.44l-2.99-2.11c1.64,1.81,2.56,4.45,2.94,6.95
					c0.54,3.61,0.6,7.52,2.71,10.49c1.39,1.96,3.49,3.25,5.59,4.4c3.88,2.13,7.93,3.97,12.1,5.47
					C262.11,154.61,256.94,151.51,253.47,146.82z"/>
			</g>
			<g class="st7">
				<path class="st11" d="M241.18,128.42l2.62,1.84C243.07,129.46,242.24,128.78,241.18,128.42z"/>
			</g>
			<g class="st7">
				<path class="st11" d="M286.03,158.94c-1.15,1.65-2.54,3.17-3.27,5.04c-1.67,4.34,0.65,9.08,2.9,13.13
					c1.26-8.03,2.52-16.05,3.77-24.09l-1.68,0.31C288.13,155.3,287.17,157.29,286.03,158.94z"/>
			</g>
		</g>
		<path class="st12" d="M413.32,79.24c0.07-0.01,0.13-0.03,0.2-0.03c-0.13-0.22-0.31-0.41-0.44-0.64L413.32,79.24z"/>
		<g>
			<g class="st7">
				<path class="st11" d="M301.51,123.14c5.29-2.34,10.86-4.74,16.63-4.25c1.15,0.1,5.54-0.21,5.97-0.66
					c1.39-1.4,1.78-1.92,3.18-3.31l3.5-2.74C321.28,113.34,309,117.18,301.51,123.14z"/>
			</g>
			<g class="st7">
				<path class="st11" d="M174.37,99.98c0,0,0,0.01,0,0.02C174.37,99.99,174.37,99.98,174.37,99.98z"/>
			</g>
			<g class="st7">
				<path class="st11" d="M168.62,107.42c-2.6,1.9-4.9,4.2-6.8,6.8c-0.66,0.91-1.3,1.96-1.18,3.07c0.14,1.36,1.34,2.32,2.44,3.13
					c0.28,0.21,0.6,0.42,0.94,0.39c0.4-0.04,0.69-0.39,0.91-0.74c2.15-3.34,2.17-7.69,4.14-11.14c1.04-1.83,2.58-3.31,3.79-5.04
					c0.07-0.1,0.1-0.23,0.17-0.34C171.89,105.13,170.21,106.26,168.62,107.42z"/>
			</g>
		</g>
		<g>
			<path class="st22" d="M235.47,91.62c0,1.03-0.84,1.87-1.87,1.87c-1.03,0-1.87-0.84-1.87-1.87c0-1.04,0.84-1.88,1.87-1.88
				C234.63,89.74,235.47,90.58,235.47,91.62z"/>
			<path class="st22" d="M236.55,107.76c0,1.03-0.84,1.87-1.87,1.87s-1.87-0.84-1.87-1.87c0-1.04,0.84-1.88,1.87-1.88
				S236.55,106.72,236.55,107.76z"/>
			<path class="st22" d="M212.89,109.59c0,1.03-0.84,1.87-1.87,1.87c-1.04,0-1.87-0.84-1.87-1.87c0-1.04,0.84-1.88,1.87-1.88
				C212.05,107.71,212.89,108.55,212.89,109.59z"/>
			<path class="st22" d="M221.78,73.72c0,1.03-0.84,1.87-1.87,1.87c-1.04,0-1.87-0.84-1.87-1.87s0.84-1.87,1.87-1.87
				C220.94,71.85,221.78,72.69,221.78,73.72z"/>
			<path class="st22" d="M266.26,70.07c0,1.03-0.84,1.87-1.87,1.87c-1.04,0-1.87-0.84-1.87-1.87c0-1.04,0.84-1.88,1.87-1.88
				C265.42,68.19,266.26,69.03,266.26,70.07z"/>
			<path class="st22" d="M301.33,102.91c0,1.04-0.83,1.88-1.87,1.88c-1.04,0-1.87-0.84-1.87-1.88c0-1.03,0.84-1.87,1.87-1.87
				C300.49,101.04,301.33,101.87,301.33,102.91z"/>
			<path class="st22" d="M288.56,114.83c0,1.03-0.84,1.88-1.87,1.88c-1.03,0-1.87-0.85-1.87-1.88s0.84-1.87,1.87-1.87
				C287.73,112.96,288.56,113.79,288.56,114.83z"/>
			<path class="st22" d="M260.01,93.97c0,1.04-0.84,1.88-1.87,1.88c-1.04,0-1.87-0.84-1.87-1.88c0-1.03,0.84-1.87,1.87-1.87
				C259.17,92.1,260.01,92.94,260.01,93.97z"/>
			<path class="st22" d="M295.05,56.87c0,1.03-0.83,1.87-1.87,1.87s-1.87-0.84-1.87-1.87c0-1.03,0.84-1.87,1.87-1.87
				S295.05,55.84,295.05,56.87z"/>
			<path class="st22" d="M332.31,93.52c0,1.03-0.84,1.87-1.87,1.87c-1.04,0-1.87-0.84-1.87-1.87s0.84-1.87,1.87-1.87
				C331.47,91.65,332.31,92.49,332.31,93.52z"/>
			<path class="st22" d="M362.26,78.87c0,1.03-0.84,1.87-1.87,1.87c-1.03,0-1.87-0.84-1.87-1.87c0-1.04,0.84-1.88,1.87-1.88
				C361.42,77,362.26,77.83,362.26,78.87z"/>
			<path class="st22" d="M365.98,111.71c0,1.03-0.84,1.87-1.87,1.87c-1.03,0-1.87-0.84-1.87-1.87c0-1.04,0.84-1.88,1.87-1.88
				C365.15,109.83,365.98,110.67,365.98,111.71z"/>
			<path class="st22" d="M412.58,111.46c0,1.03-0.84,1.87-1.87,1.87c-1.04,0-1.87-0.84-1.87-1.87s0.84-1.87,1.87-1.87
				C411.74,109.59,412.58,110.43,412.58,111.46z"/>
			<path class="st22" d="M405.34,92.84c0,1.03-0.84,1.87-1.87,1.87s-1.87-0.84-1.87-1.87s0.84-1.87,1.87-1.87
				S405.34,91.81,405.34,92.84z"/>
			<path class="st22" d="M301.33,132.6c0,1.03-0.83,1.87-1.87,1.87c-1.04,0-1.87-0.84-1.87-1.87c0-1.04,0.84-1.88,1.87-1.88
				C300.49,130.72,301.33,131.56,301.33,132.6z"/>
			<path class="st22" d="M181.9,111.71c0,1.03-0.84,1.87-1.87,1.87c-1.04,0-1.87-0.84-1.87-1.87c0-1.04,0.83-1.88,1.87-1.88
				C181.06,109.83,181.9,110.67,181.9,111.71z"/>
			<path class="st22" d="M283.65,148.44c0,1.04-0.84,1.88-1.87,1.88c-1.04,0-1.87-0.84-1.87-1.88c0-1.03,0.84-1.87,1.87-1.87
				C282.81,146.58,283.65,147.41,283.65,148.44z"/>
			<path class="st22" d="M284.73,164.58c0,1.04-0.84,1.88-1.87,1.88c-1.03,0-1.87-0.84-1.87-1.88c0-1.03,0.84-1.87,1.87-1.87
				C283.89,162.72,284.73,163.55,284.73,164.58z"/>
			<path class="st22" d="M261.07,166.42c0,1.04-0.84,1.88-1.87,1.88c-1.03,0-1.87-0.84-1.87-1.88c0-1.03,0.84-1.87,1.87-1.87
				C260.23,164.55,261.07,165.38,261.07,166.42z"/>
			<path class="st22" d="M269.96,130.55c0,1.03-0.84,1.87-1.87,1.87c-1.04,0-1.87-0.84-1.87-1.87c0-1.04,0.83-1.88,1.87-1.88
				C269.12,128.67,269.96,129.51,269.96,130.55z"/>
			<path class="st22" d="M314.44,126.89c0,1.03-0.84,1.88-1.87,1.88c-1.03,0-1.87-0.85-1.87-1.88c0-1.03,0.84-1.87,1.87-1.87
				C313.6,125.02,314.44,125.86,314.44,126.89z"/>
			<path class="st22" d="M349.51,159.74c0,1.04-0.84,1.87-1.87,1.87c-1.04,0-1.87-0.83-1.87-1.87c0-1.03,0.83-1.87,1.87-1.87
				C348.67,157.87,349.51,158.71,349.51,159.74z"/>
			<path class="st22" d="M336.74,171.66c0,1.03-0.84,1.87-1.87,1.87c-1.04,0-1.87-0.84-1.87-1.87c0-1.03,0.84-1.87,1.87-1.87
				C335.91,169.79,336.74,170.63,336.74,171.66z"/>
			<path class="st22" d="M308.19,150.81c0,1.03-0.84,1.87-1.87,1.87c-1.03,0-1.87-0.84-1.87-1.87c0-1.03,0.84-1.87,1.87-1.87
				C307.35,148.94,308.19,149.77,308.19,150.81z"/>
			<path class="st22" d="M343.23,113.7c0,1.03-0.84,1.87-1.87,1.87c-1.03,0-1.87-0.84-1.87-1.87c0-1.04,0.84-1.88,1.87-1.88
				C342.4,111.82,343.23,112.66,343.23,113.7z"/>
			<path class="st22" d="M380.49,150.35c0,1.03-0.84,1.87-1.87,1.87s-1.87-0.84-1.87-1.87c0-1.04,0.84-1.88,1.87-1.88
				S380.49,149.31,380.49,150.35z"/>
			<path class="st22" d="M410.44,135.7c0,1.04-0.83,1.88-1.87,1.88c-1.04,0-1.87-0.84-1.87-1.88c0-1.03,0.84-1.87,1.87-1.87
				C409.6,133.83,410.44,134.67,410.44,135.7z"/>
			<path class="st22" d="M414.17,168.54c0,1.04-0.84,1.88-1.87,1.88c-1.04,0-1.87-0.84-1.87-1.88c0-1.03,0.84-1.87,1.87-1.87
				C413.32,166.67,414.17,167.5,414.17,168.54z"/>
			<path class="st22" d="M460.76,168.29c0,1.03-0.84,1.87-1.87,1.87c-1.03,0-1.87-0.84-1.87-1.87c0-1.04,0.84-1.88,1.87-1.88
				C459.92,166.42,460.76,167.25,460.76,168.29z"/>
			<path class="st22" d="M453.51,149.67c0,1.03-0.84,1.87-1.87,1.87c-1.04,0-1.87-0.84-1.87-1.87c0-1.04,0.84-1.88,1.87-1.88
				C452.68,147.79,453.51,148.63,453.51,149.67z"/>
			<path class="st22" d="M349.51,189.43c0,1.04-0.84,1.88-1.87,1.88c-1.04,0-1.87-0.84-1.87-1.88c0-1.03,0.83-1.87,1.87-1.87
				C348.67,187.56,349.51,188.39,349.51,189.43z"/>
			<path class="st22" d="M230.08,168.54c0,1.04-0.84,1.88-1.87,1.88c-1.03,0-1.87-0.84-1.87-1.88c0-1.03,0.84-1.87,1.87-1.87
				C229.24,166.67,230.08,167.5,230.08,168.54z"/>
			<path class="st22" d="M140.15,90.6c0,1.03-0.84,1.87-1.87,1.87c-1.03,0-1.87-0.84-1.87-1.87c0-1.04,0.84-1.88,1.87-1.88
				C139.32,88.72,140.15,89.56,140.15,90.6z"/>
			<path class="st22" d="M296.37,49.07c0,1.03-0.84,1.87-1.87,1.87c-1.04,0-1.87-0.84-1.87-1.87c0-1.04,0.84-1.88,1.87-1.88
				C295.53,47.19,296.37,48.03,296.37,49.07z"/>
			<path class="st22" d="M297.45,65.21c0,1.03-0.84,1.87-1.87,1.87c-1.03,0-1.87-0.84-1.87-1.87c0-1.04,0.84-1.88,1.87-1.88
				C296.61,63.33,297.45,64.17,297.45,65.21z"/>
			<path class="st22" d="M273.78,67.04c0,1.03-0.83,1.87-1.87,1.87c-1.04,0-1.87-0.84-1.87-1.87c0-1.04,0.84-1.88,1.87-1.88
				C272.95,65.16,273.78,66,273.78,67.04z"/>
			<path class="st22" d="M282.67,31.17c0,1.03-0.83,1.87-1.87,1.87s-1.87-0.84-1.87-1.87c0-1.03,0.84-1.87,1.87-1.87
				S282.67,30.14,282.67,31.17z"/>
			<path class="st22" d="M327.16,27.52c0,1.03-0.84,1.87-1.87,1.87s-1.87-0.84-1.87-1.87c0-1.04,0.84-1.88,1.87-1.88
				S327.16,26.48,327.16,27.52z"/>
			<path class="st22" d="M362.23,60.36c0,1.03-0.84,1.87-1.87,1.87c-1.04,0-1.87-0.84-1.87-1.87c0-1.04,0.84-1.88,1.87-1.88
				C361.39,58.48,362.23,59.32,362.23,60.36z"/>
			<path class="st22" d="M349.46,72.28c0,1.03-0.84,1.87-1.87,1.87c-1.03,0-1.87-0.84-1.87-1.87c0-1.04,0.84-1.88,1.87-1.88
				C348.63,70.4,349.46,71.24,349.46,72.28z"/>
			<path class="st22" d="M320.91,51.43c0,1.03-0.84,1.87-1.87,1.87c-1.03,0-1.87-0.84-1.87-1.87c0-1.04,0.84-1.88,1.87-1.88
				C320.07,49.55,320.91,50.39,320.91,51.43z"/>
			<path class="st22" d="M393.21,50.97c0,1.04-0.84,1.88-1.87,1.88c-1.04,0-1.87-0.84-1.87-1.88c0-1.03,0.84-1.87,1.87-1.87
				C392.37,49.1,393.21,49.94,393.21,50.97z"/>
			<path class="st22" d="M423.16,36.32c0,1.03-0.84,1.87-1.87,1.87c-1.04,0-1.87-0.84-1.87-1.87c0-1.03,0.84-1.88,1.87-1.88
				C422.32,34.44,423.16,35.29,423.16,36.32z"/>
			<path class="st22" d="M426.88,69.16c0,1.03-0.84,1.87-1.87,1.87c-1.04,0-1.87-0.84-1.87-1.87c0-1.03,0.84-1.87,1.87-1.87
				C426.04,67.29,426.88,68.13,426.88,69.16z"/>
			<path class="st22" d="M473.48,68.91c0,1.03-0.84,1.87-1.87,1.87c-1.04,0-1.87-0.84-1.87-1.87s0.83-1.87,1.87-1.87
				C472.64,67.04,473.48,67.88,473.48,68.91z"/>
			<path class="st22" d="M466.23,50.29c0,1.04-0.84,1.87-1.87,1.87c-1.03,0-1.87-0.83-1.87-1.87c0-1.03,0.84-1.87,1.87-1.87
				C465.4,48.42,466.23,49.25,466.23,50.29z"/>
			<path class="st22" d="M362.23,90.05c0,1.03-0.84,1.87-1.87,1.87c-1.04,0-1.87-0.84-1.87-1.87c0-1.03,0.84-1.88,1.87-1.88
				C361.39,88.17,362.23,89.02,362.23,90.05z"/>
			<path class="st22" d="M242.8,69.16c0,1.03-0.84,1.87-1.87,1.87c-1.04,0-1.87-0.84-1.87-1.87c0-1.03,0.84-1.87,1.87-1.87
				C241.96,67.29,242.8,68.13,242.8,69.16z"/>
			<path class="st22" d="M382.38,106.53c0,1.03-0.83,1.87-1.87,1.87s-1.87-0.84-1.87-1.87s0.84-1.88,1.87-1.88
				S382.38,105.5,382.38,106.53z"/>
			<path class="st22" d="M383.46,122.67c0,1.03-0.84,1.87-1.87,1.87c-1.04,0-1.87-0.84-1.87-1.87c0-1.03,0.84-1.87,1.87-1.87
				C382.63,120.8,383.46,121.64,383.46,122.67z"/>
			<path class="st22" d="M359.8,124.5c0,1.03-0.84,1.87-1.87,1.87c-1.03,0-1.87-0.84-1.87-1.87s0.84-1.87,1.87-1.87
				C358.96,122.63,359.8,123.47,359.8,124.5z"/>
			<path class="st22" d="M368.69,88.63c0,1.04-0.84,1.88-1.87,1.88c-1.04,0-1.87-0.84-1.87-1.88c0-1.03,0.84-1.87,1.87-1.87
				C367.85,86.76,368.69,87.59,368.69,88.63z"/>
			<path class="st22" d="M413.17,84.97c0,1.03-0.84,1.87-1.87,1.87c-1.03,0-1.87-0.84-1.87-1.87s0.84-1.87,1.87-1.87
				C412.34,83.1,413.17,83.94,413.17,84.97z"/>
			<path class="st22" d="M448.24,117.82c0,1.03-0.84,1.87-1.87,1.87c-1.04,0-1.87-0.84-1.87-1.87c0-1.04,0.84-1.88,1.87-1.88
				C447.41,115.94,448.24,116.78,448.24,117.82z"/>
			<path class="st22" d="M435.48,129.74c0,1.03-0.84,1.87-1.87,1.87c-1.04,0-1.87-0.84-1.87-1.87c0-1.04,0.84-1.88,1.87-1.88
				C434.64,127.86,435.48,128.7,435.48,129.74z"/>
			<path class="st22" d="M406.92,108.89c0,1.03-0.84,1.87-1.87,1.87c-1.04,0-1.87-0.84-1.87-1.87c0-1.04,0.84-1.88,1.87-1.88
				C406.08,107.01,406.92,107.85,406.92,108.89z"/>
			<path class="st22" d="M441.97,71.77c0,1.04-0.84,1.88-1.87,1.88c-1.04,0-1.87-0.84-1.87-1.88c0-1.03,0.84-1.87,1.87-1.87
				C441.13,69.9,441.97,70.74,441.97,71.77z"/>
			<path class="st22" d="M479.23,108.43c0,1.04-0.84,1.88-1.87,1.88c-1.04,0-1.87-0.84-1.87-1.88c0-1.03,0.84-1.87,1.87-1.87
				C478.39,106.56,479.23,107.4,479.23,108.43z"/>
			<path class="st22" d="M509.18,93.78c0,1.03-0.84,1.87-1.87,1.87s-1.87-0.84-1.87-1.87s0.84-1.87,1.87-1.87
				S509.18,92.75,509.18,93.78z"/>
			<path class="st22" d="M512.9,126.62c0,1.03-0.84,1.87-1.87,1.87c-1.04,0-1.87-0.84-1.87-1.87s0.84-1.87,1.87-1.87
				C512.06,124.75,512.9,125.59,512.9,126.62z"/>
			<path class="st22" d="M559.49,126.37c0,1.04-0.84,1.88-1.87,1.88c-1.04,0-1.87-0.84-1.87-1.88c0-1.03,0.84-1.87,1.87-1.87
				C558.65,124.5,559.49,125.34,559.49,126.37z"/>
			<path class="st22" d="M552.25,107.74c0,1.04-0.84,1.88-1.87,1.88c-1.04,0-1.87-0.84-1.87-1.88c0-1.03,0.84-1.87,1.87-1.87
				C551.41,105.87,552.25,106.71,552.25,107.74z"/>
			<path class="st22" d="M448.24,147.51c0,1.03-0.84,1.87-1.87,1.87c-1.04,0-1.87-0.84-1.87-1.87c0-1.03,0.84-1.87,1.87-1.87
				C447.41,145.64,448.24,146.48,448.24,147.51z"/>
			<path class="st22" d="M328.82,126.62c0,1.03-0.84,1.87-1.87,1.87c-1.04,0-1.87-0.84-1.87-1.87s0.84-1.87,1.87-1.87
				C327.98,124.75,328.82,125.59,328.82,126.62z"/>
			<path class="st22" d="M238.89,48.68c0,1.04-0.84,1.88-1.87,1.88c-1.04,0-1.87-0.84-1.87-1.88c0-1.03,0.84-1.87,1.87-1.87
				C238.05,46.81,238.89,47.64,238.89,48.68z"/>
			<path class="st22" d="M127.98,147.11c0,1.04-0.84,1.88-1.87,1.88c-1.03,0-1.87-0.84-1.87-1.88c0-1.03,0.84-1.87,1.87-1.87
				C127.14,145.24,127.98,146.07,127.98,147.11z"/>
			<path class="st22" d="M129.06,163.24c0,1.04-0.84,1.88-1.87,1.88c-1.04,0-1.87-0.84-1.87-1.88c0-1.03,0.84-1.87,1.87-1.87
				C128.22,161.38,129.06,162.21,129.06,163.24z"/>
			<path class="st22" d="M105.39,165.08c0,1.04-0.84,1.88-1.87,1.88c-1.04,0-1.87-0.84-1.87-1.88c0-1.03,0.84-1.87,1.87-1.87
				C104.56,163.21,105.39,164.05,105.39,165.08z"/>
			<path class="st22" d="M114.28,129.21c0,1.03-0.84,1.87-1.87,1.87c-1.04,0-1.87-0.84-1.87-1.87c0-1.04,0.84-1.88,1.87-1.88
				C113.44,127.33,114.28,128.17,114.28,129.21z"/>
			<path class="st22" d="M158.77,125.55c0,1.04-0.84,1.88-1.87,1.88c-1.04,0-1.87-0.84-1.87-1.88c0-1.03,0.84-1.87,1.87-1.87
				C157.93,123.68,158.77,124.52,158.77,125.55z"/>
			<path class="st22" d="M193.84,158.4c0,1.04-0.84,1.87-1.87,1.87c-1.04,0-1.87-0.83-1.87-1.87c0-1.03,0.84-1.87,1.87-1.87
				C193,156.53,193.84,157.37,193.84,158.4z"/>
			<path class="st22" d="M181.07,170.32c0,1.03-0.84,1.87-1.87,1.87c-1.04,0-1.87-0.84-1.87-1.87c0-1.03,0.83-1.87,1.87-1.87
				C180.23,168.45,181.07,169.29,181.07,170.32z"/>
			<path class="st22" d="M152.52,149.47c0,1.03-0.84,1.87-1.87,1.87c-1.04,0-1.87-0.84-1.87-1.87c0-1.03,0.84-1.87,1.87-1.87
				C151.68,147.6,152.52,148.43,152.52,149.47z"/>
			<path class="st22" d="M187.56,112.36c0,1.03-0.84,1.87-1.87,1.87c-1.04,0-1.87-0.84-1.87-1.87c0-1.04,0.84-1.88,1.87-1.88
				C186.72,110.48,187.56,111.32,187.56,112.36z"/>
			<path class="st22" d="M224.82,149.01c0,1.03-0.84,1.87-1.87,1.87c-1.04,0-1.87-0.84-1.87-1.87c0-1.04,0.84-1.88,1.87-1.88
				C223.98,147.13,224.82,147.97,224.82,149.01z"/>
			<path class="st22" d="M254.77,134.36c0,1.04-0.84,1.88-1.87,1.88c-1.04,0-1.87-0.84-1.87-1.88c0-1.03,0.84-1.87,1.87-1.87
				C253.93,132.49,254.77,133.33,254.77,134.36z"/>
			<path class="st22" d="M258.49,167.2c0,1.04-0.84,1.88-1.87,1.88c-1.03,0-1.87-0.84-1.87-1.88c0-1.03,0.84-1.87,1.87-1.87
				C257.65,165.33,258.49,166.16,258.49,167.2z"/>
			<path class="st22" d="M305.09,166.95c0,1.03-0.84,1.87-1.87,1.87s-1.87-0.84-1.87-1.87c0-1.04,0.84-1.88,1.87-1.88
				S305.09,165.91,305.09,166.95z"/>
			<path class="st22" d="M297.84,148.33c0,1.03-0.84,1.87-1.87,1.87c-1.04,0-1.87-0.84-1.87-1.87c0-1.04,0.84-1.88,1.87-1.88
				C297.01,146.45,297.84,147.29,297.84,148.33z"/>
			<path class="st22" d="M155.73,95.71c0,1.04-0.84,1.88-1.87,1.88c-1.04,0-1.87-0.84-1.87-1.88c0-1.03,0.84-1.87,1.87-1.87
				C154.89,93.84,155.73,94.68,155.73,95.71z"/>
			<path class="st22" d="M156.81,111.85c0,1.04-0.84,1.88-1.87,1.88c-1.03,0-1.87-0.84-1.87-1.88c0-1.03,0.84-1.87,1.87-1.87
				C155.97,109.98,156.81,110.82,156.81,111.85z"/>
			<path class="st22" d="M133.15,113.68c0,1.04-0.84,1.88-1.87,1.88c-1.03,0-1.87-0.84-1.87-1.88c0-1.03,0.84-1.87,1.87-1.87
				C132.31,111.81,133.15,112.65,133.15,113.68z"/>
			<path class="st22" d="M142.04,77.81c0,1.03-0.84,1.87-1.87,1.87c-1.03,0-1.87-0.84-1.87-1.87s0.84-1.88,1.87-1.88
				C141.2,75.94,142.04,76.78,142.04,77.81z"/>
			<path class="st22" d="M186.52,74.15c0,1.04-0.84,1.88-1.87,1.88c-1.03,0-1.87-0.84-1.87-1.88c0-1.03,0.84-1.87,1.87-1.87
				C185.68,72.28,186.52,73.12,186.52,74.15z"/>
			<path class="st22" d="M221.59,107c0,1.03-0.84,1.88-1.87,1.88c-1.03,0-1.87-0.85-1.87-1.88s0.84-1.87,1.87-1.87
				C220.75,105.13,221.59,105.97,221.59,107z"/>
			<path class="st22" d="M208.83,118.92c0,1.03-0.84,1.87-1.87,1.87c-1.04,0-1.87-0.84-1.87-1.87s0.84-1.87,1.87-1.87
				C207.99,117.05,208.83,117.89,208.83,118.92z"/>
			<path class="st22" d="M180.27,98.07c0,1.03-0.83,1.87-1.87,1.87s-1.87-0.84-1.87-1.87c0-1.03,0.84-1.87,1.87-1.87
				S180.27,97.04,180.27,98.07z"/>
			<path class="st22" d="M215.31,60.96c0,1.03-0.84,1.87-1.87,1.87c-1.03,0-1.87-0.84-1.87-1.87c0-1.04,0.84-1.87,1.87-1.87
				C214.48,59.09,215.31,59.92,215.31,60.96z"/>
			<path class="st22" d="M252.58,97.62c0,1.03-0.84,1.87-1.87,1.87c-1.04,0-1.87-0.84-1.87-1.87s0.84-1.87,1.87-1.87
				C251.74,95.75,252.58,96.59,252.58,97.62z"/>
			<path class="st22" d="M282.52,82.96c0,1.04-0.84,1.88-1.87,1.88s-1.87-0.84-1.87-1.88c0-1.03,0.84-1.87,1.87-1.87
				S282.52,81.93,282.52,82.96z"/>
			<path class="st22" d="M286.25,115.8c0,1.04-0.84,1.88-1.87,1.88c-1.04,0-1.87-0.84-1.87-1.88c0-1.03,0.84-1.87,1.87-1.87
				C285.41,113.93,286.25,114.77,286.25,115.8z"/>
			<path class="st22" d="M332.84,115.56c0,1.03-0.84,1.87-1.87,1.87c-1.04,0-1.87-0.84-1.87-1.87c0-1.04,0.84-1.88,1.87-1.88
				C332,113.68,332.84,114.52,332.84,115.56z"/>
			<path class="st22" d="M325.6,96.93c0,1.03-0.84,1.87-1.87,1.87c-1.04,0-1.87-0.84-1.87-1.87c0-1.04,0.84-1.87,1.87-1.87
				C324.76,95.06,325.6,95.89,325.6,96.93z"/>
			<path class="st22" d="M221.59,136.69c0,1.04-0.84,1.88-1.87,1.88c-1.03,0-1.87-0.84-1.87-1.88c0-1.03,0.84-1.87,1.87-1.87
				C220.75,134.82,221.59,135.66,221.59,136.69z"/>
			<path class="st22" d="M102.16,115.8c0,1.04-0.84,1.88-1.87,1.88c-1.04,0-1.87-0.84-1.87-1.88c0-1.03,0.84-1.87,1.87-1.87
				C101.32,113.93,102.16,114.77,102.16,115.8z"/>
			<path class="st22" d="M447.56,128.12c0,1.04-0.84,1.88-1.87,1.88c-1.04,0-1.87-0.84-1.87-1.88c0-1.03,0.84-1.87,1.87-1.87
				C446.71,126.25,447.56,127.09,447.56,128.12z"/>
			<path class="st22" d="M448.63,144.26c0,1.04-0.84,1.88-1.87,1.88c-1.04,0-1.87-0.84-1.87-1.88c0-1.03,0.84-1.87,1.87-1.87
				C447.8,142.39,448.63,143.23,448.63,144.26z"/>
			<path class="st22" d="M424.97,146.09c0,1.04-0.84,1.88-1.87,1.88c-1.03,0-1.87-0.84-1.87-1.88c0-1.03,0.84-1.87,1.87-1.87
				C424.14,144.22,424.97,145.06,424.97,146.09z"/>
			<path class="st22" d="M433.86,110.23c0,1.03-0.84,1.87-1.87,1.87c-1.03,0-1.87-0.84-1.87-1.87c0-1.04,0.84-1.88,1.87-1.88
				C433.02,108.35,433.86,109.19,433.86,110.23z"/>
			<path class="st22" d="M478.35,106.57c0,1.04-0.84,1.88-1.87,1.88c-1.03,0-1.87-0.84-1.87-1.88c0-1.03,0.84-1.87,1.87-1.87
				C477.51,104.7,478.35,105.54,478.35,106.57z"/>
			<path class="st22" d="M513.42,139.42c0,1.04-0.84,1.88-1.87,1.88c-1.03,0-1.87-0.84-1.87-1.88c0-1.03,0.84-1.87,1.87-1.87
				C512.58,137.55,513.42,138.38,513.42,139.42z"/>
			<path class="st22" d="M500.65,151.34c0,1.03-0.83,1.87-1.87,1.87c-1.04,0-1.87-0.84-1.87-1.87c0-1.03,0.84-1.87,1.87-1.87
				C499.81,149.47,500.65,150.3,500.65,151.34z"/>
			<path class="st22" d="M472.09,130.48c0,1.04-0.84,1.87-1.87,1.87c-1.04,0-1.87-0.83-1.87-1.87c0-1.03,0.84-1.87,1.87-1.87
				C471.25,128.61,472.09,129.45,472.09,130.48z"/>
			<path class="st22" d="M507.14,93.38c0,1.03-0.84,1.87-1.87,1.87c-1.03,0-1.87-0.84-1.87-1.87s0.84-1.87,1.87-1.87
				C506.3,91.51,507.14,92.35,507.14,93.38z"/>
			<path class="st22" d="M544.4,130.03c0,1.03-0.84,1.87-1.87,1.87c-1.04,0-1.87-0.84-1.87-1.87c0-1.03,0.83-1.87,1.87-1.87
				C543.56,128.16,544.4,129,544.4,130.03z"/>
			<path class="st22" d="M574.35,115.38c0,1.04-0.84,1.88-1.87,1.88s-1.87-0.84-1.87-1.88c0-1.03,0.84-1.87,1.87-1.87
				S574.35,114.34,574.35,115.38z"/>
			<path class="st22" d="M578.07,148.21c0,1.04-0.84,1.88-1.87,1.88c-1.04,0-1.87-0.84-1.87-1.88c0-1.03,0.84-1.87,1.87-1.87
				C577.23,146.34,578.07,147.18,578.07,148.21z"/>
			<path class="st22" d="M624.66,147.97c0,1.03-0.84,1.87-1.87,1.87c-1.04,0-1.87-0.84-1.87-1.87s0.84-1.88,1.87-1.88
				C623.82,146.09,624.66,146.94,624.66,147.97z"/>
			<path class="st22" d="M617.42,129.35c0,1.03-0.84,1.87-1.87,1.87c-1.04,0-1.87-0.84-1.87-1.87c0-1.04,0.84-1.88,1.87-1.88
				C616.58,127.47,617.42,128.31,617.42,129.35z"/>
			<path class="st22" d="M513.42,169.1c0,1.04-0.84,1.88-1.87,1.88c-1.03,0-1.87-0.84-1.87-1.88c0-1.03,0.84-1.87,1.87-1.87
				C512.58,167.23,513.42,168.07,513.42,169.1z"/>
			<path class="st22" d="M393.99,148.21c0,1.04-0.84,1.88-1.87,1.88c-1.04,0-1.87-0.84-1.87-1.88c0-1.03,0.84-1.87,1.87-1.87
				C393.15,146.34,393.99,147.18,393.99,148.21z"/>
			<path class="st22" d="M304.06,70.28c0,1.03-0.84,1.87-1.87,1.87c-1.04,0-1.87-0.84-1.87-1.87c0-1.03,0.84-1.88,1.87-1.88
				C303.22,68.4,304.06,69.25,304.06,70.28z"/>
			<path class="st22" d="M308.48,80.65c0,1.03-0.84,1.87-1.87,1.87c-1.03,0-1.87-0.84-1.87-1.87c0-1.04,0.84-1.88,1.87-1.88
				C307.64,78.77,308.48,79.61,308.48,80.65z"/>
			<path class="st22" d="M309.56,96.78c0,1.04-0.84,1.88-1.87,1.88c-1.03,0-1.87-0.84-1.87-1.88c0-1.03,0.84-1.87,1.87-1.87
				C308.72,94.91,309.56,95.75,309.56,96.78z"/>
			<path class="st22" d="M285.9,98.61c0,1.04-0.84,1.88-1.87,1.88c-1.04,0-1.87-0.84-1.87-1.88c0-1.03,0.83-1.87,1.87-1.87
				C285.06,96.74,285.9,97.58,285.9,98.61z"/>
			<path class="st22" d="M294.79,62.74c0,1.03-0.84,1.87-1.87,1.87c-1.04,0-1.87-0.84-1.87-1.87c0-1.04,0.83-1.88,1.87-1.88
				C293.95,60.86,294.79,61.7,294.79,62.74z"/>
			<path class="st22" d="M339.27,59.08c0,1.04-0.84,1.88-1.87,1.88c-1.04,0-1.87-0.84-1.87-1.88c0-1.03,0.83-1.87,1.87-1.87
				C338.43,57.21,339.27,58.05,339.27,59.08z"/>
			<path class="st22" d="M374.34,91.93c0,1.04-0.84,1.88-1.87,1.88c-1.04,0-1.87-0.84-1.87-1.88c0-1.03,0.84-1.87,1.87-1.87
				C373.5,90.06,374.34,90.9,374.34,91.93z"/>
			<path class="st22" d="M361.58,103.85c0,1.03-0.84,1.87-1.87,1.87c-1.04,0-1.87-0.84-1.87-1.87s0.84-1.87,1.87-1.87
				C360.74,101.98,361.58,102.82,361.58,103.85z"/>
			<path class="st22" d="M333.02,83c0,1.04-0.84,1.88-1.87,1.88c-1.03,0-1.87-0.84-1.87-1.88c0-1.03,0.84-1.87,1.87-1.87
				C332.18,81.13,333.02,81.97,333.02,83z"/>
			<path class="st22" d="M368.07,45.89c0,1.03-0.84,1.87-1.87,1.87c-1.03,0-1.87-0.84-1.87-1.87s0.84-1.87,1.87-1.87
				C367.23,44.02,368.07,44.86,368.07,45.89z"/>
			<path class="st22" d="M405.33,82.55c0,1.03-0.84,1.87-1.87,1.87s-1.87-0.84-1.87-1.87s0.84-1.87,1.87-1.87
				S405.33,81.51,405.33,82.55z"/>
			<path class="st22" d="M435.27,67.89c0,1.04-0.84,1.88-1.87,1.88c-1.04,0-1.87-0.84-1.87-1.88c0-1.03,0.84-1.87,1.87-1.87
				C434.43,66.02,435.27,66.86,435.27,67.89z"/>
			<path class="st22" d="M439,100.74c0,1.03-0.84,1.87-1.87,1.87c-1.04,0-1.87-0.84-1.87-1.87c0-1.04,0.84-1.88,1.87-1.88
				C438.16,98.86,439,99.7,439,100.74z"/>
			<path class="st22" d="M485.59,100.49c0,1.03-0.84,1.87-1.87,1.87c-1.03,0-1.87-0.84-1.87-1.87c0-1.04,0.84-1.88,1.87-1.88
				C484.75,98.61,485.59,99.45,485.59,100.49z"/>
			<path class="st22" d="M478.35,81.86c0,1.03-0.84,1.87-1.87,1.87c-1.03,0-1.87-0.84-1.87-1.87c0-1.04,0.84-1.88,1.87-1.88
				C477.51,79.98,478.35,80.82,478.35,81.86z"/>
			<path class="st22" d="M374.34,121.63c0,1.03-0.84,1.87-1.87,1.87c-1.04,0-1.87-0.84-1.87-1.87c0-1.04,0.84-1.88,1.87-1.88
				C373.5,119.75,374.34,120.59,374.34,121.63z"/>
			<path class="st22" d="M254.91,100.74c0,1.03-0.84,1.87-1.87,1.87c-1.04,0-1.87-0.84-1.87-1.87c0-1.04,0.83-1.88,1.87-1.88
				C254.07,98.86,254.91,99.7,254.91,100.74z"/>
		</g>
		<g>
			<path class="st4" d="M656.44,103.9c3.27-2.53,4.01-7.38,2.73-11.32c-1.28-3.93-4.18-7.11-7.18-9.95
				c-9.92-9.38-21.93-16.54-34.91-20.77c-15.62-5.1-34.32-7.19-43.47-20.82c-4.75-7.08-7.29,3.13-9.36-5.14
				c-5.08-20.31-42.4-28.15-44.86-27.74c3.82,6.19,11.15,8.13,8.66,14.9c-3.71,10.08-15.45-3.9-26.14-2.8
				c-10.68,1.11-21.82-0.03-31.87,3.79c-10.04,3.82-18.46,15.31-13.99,25.07c1.5,3.29,4.24,5.88,5.83,9.12
				c1.59,3.25,1.56,7.88-1.54,9.74c-1.74,1.04-3.93,0.89-5.95,0.64c-8.34-1.03-16.52-3.2-24.9-3.73
				c-13.32-0.85-27.64,3.02-36.31,13.16c-8.67,10.15-9.49,27.24,0.43,36.17c3.36,3.03,7.59,4.93,11.09,7.8
				c3.5,2.85,6.37,7.28,5.36,11.7c-0.59,2.57-2.39,4.68-4.14,6.66c-5.06,5.72-10.55,12.35-9.79,19.96
				c0.78,7.86,7.96,13.39,14.83,17.31c7.42,4.21,15.46,7.79,23.97,8.32c17.47,1.07,34.03-10.78,51.42-8.73
				c13.1,1.54,23.84,10.63,35.65,16.5c10.91,5.42,23.13,8.19,35.31,7.99c13.2-0.22,28.4-5.93,31.67-18.72
				c2.27-8.89-1.86-19.28,3.08-27.01c2.33-3.63,6.25-5.88,10.12-7.8c7.11-3.53,14.54-6.42,22.18-8.61c4.52-1.3,9.21-2.41,13.07-5.1
				c3.85-2.69,6.72-7.45,5.62-12.02c-0.84-3.51-3.87-6.66-3.09-10.18C641.37,105.93,651.33,107.84,656.44,103.9z"/>
		</g>
		<g class="st23">
			<path class="st24" d="M531.8,37.17c3.6,0.11,6.76-3.14,7.19-6.72c0.44-3.57-1.44-7.16-4.21-9.46l-1.17-1.27
				c0.67,2.03-0.84,4.12-2.5,5.47c-1.65,1.35-3.64,2.49-4.51,4.44C525.14,32.92,528.21,37.06,531.8,37.17z"/>
			<path class="st24" d="M454.85,78.96c7.08,1.41,14.35,1.64,21.44,3.01c16.1,3.1,32.19,12,47.95,7.49
				c0.96-0.27,1.95-0.62,2.67-1.31c2.76-2.64-0.37-7.27-3.79-8.95c-4.89-2.4-10.46-2.84-15.8-3.91c-5.33-1.07-10.9-3.05-14.07-7.49
				c-1.04-1.45-1.77-3.1-2.98-4.4c-3.66-3.96-9.96-3.31-15.17-4.72c-6.74-1.82-12.06-8.25-12.46-15.09
				c-1.67,4.61-1.78,9.78,0.27,14.25c2.04,4.45,5.73,9.86,2.51,13.54c-2.73,3.1-7.93,1.59-11.7,3.28c-0.89,0.4-1.8,1.15-1.76,2.13
				C452,78.08,453.56,78.7,454.85,78.96z"/>
			<path class="st24" d="M576.02,84.72c5.1-1.42,10.2-2.86,15.29-4.33c2.32-0.67,5.22-2.39,4.41-4.65
				c-0.29-0.84-1.05-1.42-1.77-1.95c-8.47-6.28-16.01-13.68-23.53-21.06l-2.46-2.23c3.69,2.95,6.02,7.54,6.22,12.26
				c0.1,2.44-0.38,4.99-1.84,6.96c-2.3,3.09-6.48,4.09-10.33,4.38c-4.58,0.33-9.22-0.08-13.67-1.19c-4.62-1.16-9.5-3.05-13.95-1.39
				c4.48,5.82,9.31,11.9,16.15,14.59C558.59,89.28,567.67,87.05,576.02,84.72z"/>
			<path class="st24" d="M628.27,99.9c-2.11-0.24-5.07,0.18-5.14,2.31c-0.03,1.02,0.72,1.88,1.42,2.62c3.3,3.47,6.6,6.95,9.91,10.42
				c0.79-5.95,5.68-11.12,11.57-12.25l-3.97-1.52C637.46,100.95,632.87,100.43,628.27,99.9z"/>
			<path class="st24" d="M447.8,118.28c1.58-2.39,1.31-6.27-1.31-7.44c-0.98-0.43-2.11-0.4-3.18-0.29
				c-7.46,0.8-14.07,5.65-21.55,6.18c-7.85,0.56-15.17-3.68-21.77-7.97c-2.51-1.62-5.07-3.34-6.7-5.86c-0.54-0.83-0.9-1.74-1.2-2.68
				c0.21,1.21,0.49,2.41,0.89,3.56c3.51,10.01,12.35,17.19,21.52,22.52c1.13,0.66,2.33,1.35,2.96,2.51
				c1.14,2.07-0.05,4.61-1.21,6.67c-2.62,4.61-5.23,9.24-7.84,13.86c4.77,1.59,8.83-3.51,11.76-7.6c5.43-7.59,12.6-13.93,20.81-18.4
				C443.47,121.97,446.21,120.67,447.8,118.28z"/>
			<path class="st24" d="M520.24,151.82c-4.4-4.05-9.59-7.57-12.26-12.92c-2.52-5.04-2.4-10.97-4.02-16.36
				c-0.72-2.41-1.91-4.86-4.09-6.12c-3.19-1.85-7.46-0.44-10.02,2.22c-2.56,2.66-3.83,6.26-5.11,9.73
				c-4.2,11.37-9.31,22.56-16.84,32.07c-7.53,9.5-17.68,17.28-29.44,20.25l14.57-2.38c18,1.32,36.2-11.98,53.13-5.7
				c7.82,2.9,13.62,9.52,20.8,13.77c2.11,1.24,4.71,2.3,6.94,1.28c3.38-1.55,3.27-6.39,2.25-9.96
				C533.36,167.83,527.78,158.76,520.24,151.82z"/>
			<path class="st24" d="M622.35,122.72c-7.98-2.73-16.46-3.59-24.73-5.24c-13.75-2.75-27.06-7.7-39.25-14.62
				c-2.64-1.5-6.78-2.66-8.01,0.12c-0.82,1.86,0.64,3.89,2,5.42c5.81,6.46,11.62,12.92,17.43,19.39l-11.34-6.48
				c9.38,7.25,16.84,16.96,21.41,27.89c0.92,2.21,2.14,4.8,4.51,5.12c3.18,0.42,4.94-3.44,6.25-6.37
				c3.04-6.81,9.22-12.15,16.4-14.17c5.94-1.67,12.86-1.38,17.39-5.56c0.65-0.61,1.26-1.36,1.3-2.25
				C625.77,124.28,623.93,123.26,622.35,122.72z"/>
		</g>
		<g>
			<polygon class="st25" points="539.51,101.96 566.29,100.03 566.93,96.79 			"/>
			<path class="st25" d="M541.71,116.86l0.62-5.31c0.22-1.87,0.74-3.68,1.56-5.38l0,0c0.25-0.53,0.65-1.07,1.13-1.53
				c0.91-0.9,2.28-1.16,3.51-0.79l0,0c1.43-0.01,2.79,0.65,3.67,1.77l0.41,0.53c0.87,1.63,0.62,3.62-0.63,4.98l0,0
				c-1.63,1.78-3.66,3.16-5.91,4.04L541.71,116.86z"/>
			<path class="st25" d="M556.43,95.16l-0.5-0.01c-1.03-0.03-1.98-0.57-2.52-1.46l0,0c-0.85-1.38-1.41-2.93-1.64-4.54l-0.88-6.01
				l5.93,1.98c1.4,0.47,2.66,1.26,3.7,2.31l0,0c1.11,1.13,1.48,2.79,0.93,4.29l0,0C560.69,93.83,558.67,95.22,556.43,95.16z"/>
			<path class="st25" d="M540.01,103.18l-0.2-2.17c-0.1-1.09-0.75-2.04-1.73-2.53l0,0c-1.91-0.96-4.16-0.99-6.1-0.09l-1.05,0.49
				c-1.95,0.91-3.95,1.71-5.98,2.41l-8.37,2.88l5.64,0.66c2.38,0.28,4.75,0.67,7.08,1.18l3.21,0.69c2.1,0.28,4.23-0.08,6.12-1.04
				l0,0C539.56,105.19,540.11,104.21,540.01,103.18z"/>
			<path class="st25" d="M518.05,117.99L518.05,117.99c-1.75,0.89-3.83,0.91-5.6,0.05l0,0c-1.05-0.51-1.99-1.24-2.73-2.15
				l-5.17-6.31l5.39,0.54c0.92,0.09,1.85,0.07,2.77-0.06l0.73-0.11c1.21-0.17,2.44,0.07,3.5,0.66l0,0c1.19,0.67,2.13,1.72,2.68,2.96
				l0,0C520.35,115.23,519.66,117.17,518.05,117.99z"/>
			<path class="st25" d="M582.39,55.97l-0.15,1.09c-0.1,1.93-0.77,3.78-1.92,5.33l0,0c-1.22,1.64-2.74,3.03-4.48,4.1l-5.82,3.56
				L582.39,55.97z"/>
			<polygon class="st25" points="447.33,122.49 486.8,92.8 482.74,91.56 			"/>
			<path class="st25" d="M429.66,135.29l14.06-5.91c1.22-0.51,2.32-1.28,3.23-2.25l0,0c1.15-1.24,1.34-3.09,0.45-4.54l0,0
				c-0.76-1.23-2.16-1.93-3.61-1.78l0,0c-1.8,0.19-3.45,1.1-4.58,2.51L429.66,135.29z"/>
			<path class="st25" d="M461.55,120.87c1.01,1.74,0.91,3.88,0.23,5.77c-0.67,1.87-1.72,3.58-3.12,5.02l-2.2,2.26l-1.49-2.16
				c-0.69-1-1.27-2.06-1.74-3.17c-1.42-3.34-0.45-7.39,2.56-9.41c0.27-0.18,0.56-0.36,0.86-0.51l0,0c1.02-0.53,2.26-0.42,3.18,0.26
				C460.54,119.46,461.12,120.13,461.55,120.87z"/>
			<path class="st25" d="M475.87,117.94l-2.21-3.61c-1.05-1.72-1.55-3.74-1.42-5.75l0,0c0.06-0.89,0.53-1.71,1.29-2.19l0,0
				c1.51-0.97,3.38-1.23,5.1-0.7l0,0c0.38,0.12,0.68,0.4,0.83,0.76l0,0c1.01,2.47,0.71,5.28-0.81,7.48L475.87,117.94z"/>
			<path class="st25" d="M486.96,100.94l-0.4,0.51c-0.71,0.91-1.58,1.69-2.56,2.28l-2.66,1.64l1.11-2.29
				c0.96-1.99,1.48-4.15,1.53-6.36L484,95.4l5.6-1.24l-0.27,1.49C488.99,97.58,488.17,99.4,486.96,100.94z"/>
			<polygon class="st25" points="471.75,93.68 466.87,90.09 465.89,84.12 466.87,77.14 473.94,82.57 475.61,87.81 			"/>
			<path class="st25" d="M460.17,106.73l0.04-0.07c0.9-1.35,0.95-3.09,0.14-4.5l0,0c-1.36-2.37-4.01-3.69-6.73-3.36l0,0
				c-0.19,0.02-0.36,0.05-0.55,0.09c-1.02,0.18-5.49,0.84-5.49,0.84l1.38,3.35c0.79,1.92,2.17,3.53,3.95,4.6l0.06,0.03
				c1.12,0.67,2.4,1,3.7,0.95h0.06C458.13,108.6,459.4,107.88,460.17,106.73z"/>
			<path class="st25" d="M491.7,124.77L491.7,124.77c-0.71-0.2-1.37-0.52-1.98-0.94l-2.49-1.78c-0.92-0.66-1.7-1.49-2.29-2.47l0,0
				c-0.32-0.51-0.15-1.19,0.36-1.49l0,0c1.11-0.68,2.51-0.64,3.57,0.11l3.7,2.58c0.72,0.5,1.47,0.95,2.25,1.35l0,0
				c2.17,1.11,4.64,1.47,7.05,1.06l1.23-0.21l-2.05,0.98C498.13,125.34,494.81,125.63,491.7,124.77z"/>
			<path class="st25" d="M440.84,107.78c-0.2,1.28-1.1,2.34-2.34,2.75l-0.85,0.28c-1.53,0.56-3.23,0.32-4.55-0.64l0,0
				c-1.25-0.91-2.2-2.16-2.73-3.6l-2.24-6.13l6.81,0.5c1.41,0.11,2.76,0.58,3.92,1.39l0,0C440.5,103.63,441.26,105.74,440.84,107.78
				L440.84,107.78z"/>
			<path class="st25" d="M418.4,96.1c-0.39-0.16-2.16-2.11-3.48-3.6c-0.97-1.09-1.6-2.44-1.84-3.88l0,0
				c-0.36-2.26,0.4-4.56,2.04-6.15l0,0c0.69-1.07,1.89-1.71,3.16-1.7l0,0c1.22,0.02,2.35,0.63,3.03,1.65l0,0
				c1.26,1.49,1.9,3.43,1.79,5.39l0,0c-0.09,1.44-0.59,2.81-1.46,3.97L418.4,96.1z"/>
			<path class="st25" d="M429.55,86.42c0.24-1-0.83-4.13-1.61-6.22c-0.5-1.32-0.55-2.77-0.16-4.12l0,0c0.41-1.42,1.24-2.7,2.38-3.64
				l1.42-1.19c0.95-0.8,2.22-1.12,3.43-0.86l0,0c1.37,0.29,2.48,1.28,2.91,2.61l0.58,1.79c0.5,1.52,0.31,3.19-0.5,4.57l0,0
				c-1.14,1.94-2.74,3.56-4.65,4.74L429.55,86.42z"/>
			<path class="st25" d="M441.27,92.39l-0.08,0.49c-0.53-2.51-1.75-4.79-3.5-6.62c-0.62-0.66-0.49-1.7,0.27-2.16l0,0
				c0.69-0.42,1.6-0.17,1.99,0.54C441.22,87,441.69,89.72,441.27,92.39z"/>
			<path class="st25" d="M451.9,108.93l-4.51-0.1c-2.69-0.05-5.27-1.01-7.36-2.72l-0.09-0.07c-0.63-0.51-0.71-1.45-0.17-2.06l0,0
				c0.49-0.56,1.32-0.66,1.93-0.22l0.38,0.28c1.71,1.23,3.56,2.27,5.5,3.08L451.9,108.93z"/>
			<path class="st25" d="M419.38,111.45l3.71-2.27c1.49-0.91,2.75-2.19,3.64-3.7l0,0c1.85-3.1,2.88-6.62,3.02-10.23l0-0.26
				c0.02-0.6-0.35-1.14-0.91-1.33l0,0c-0.72-0.26-1.51,0.14-1.75,0.86l-0.94,2.88c-0.23,0.74-0.51,1.48-0.82,2.2l-2.13,4.86
				c-0.28,0.65-0.6,1.28-0.95,1.89L419.38,111.45z"/>
			<path class="st25" d="M453.94,77.17l-3.06,0.6c-2.42,0.47-4.94,0-7.02-1.33l-0.25-0.12c-0.99-0.43-1.7-1.34-1.9-2.4l0,0
				c0.04-1.12,0.87-2.05,1.97-2.24l0,0c0.82-0.13,1.67,0.09,2.32,0.6l2.23,1.77c0.95,0.75,1.99,1.39,3.09,1.9L453.94,77.17z"/>
		</g>
		<g>
			<polygon class="st25" points="493.92,38.48 467.9,31.85 466.27,34.72 			"/>
			<path class="st25" d="M496.54,23.65l-2.26,4.84c-0.8,1.71-1.87,3.27-3.18,4.62l0,0c-0.4,0.42-0.95,0.8-1.55,1.1
				c-1.16,0.56-2.53,0.38-3.58-0.37l0,0c-1.37-0.43-2.45-1.49-2.92-2.84l-0.22-0.63c-0.31-1.82,0.56-3.63,2.18-4.53l0,0
				c2.12-1.18,4.47-1.84,6.88-1.97L496.54,23.65z"/>
			<path class="st25" d="M475.72,39.59l0.47,0.16c0.97,0.36,1.7,1.18,1.93,2.18l0,0c0.37,1.58,0.41,3.23,0.13,4.83l-1.07,5.98
				l-5-3.76c-1.18-0.89-2.13-2.04-2.78-3.36l0,0c-0.7-1.43-0.52-3.12,0.46-4.37l0,0C471.25,39.5,473.61,38.83,475.72,39.59z"/>
			<path class="st25" d="M493.83,37.17l-0.49,2.12c-0.25,1.06,0.07,2.18,0.84,2.95l0,0c1.51,1.51,3.63,2.25,5.76,2.01l1.15-0.14
				c2.14-0.24,4.28-0.38,6.44-0.4l8.85-0.08l-5.15-2.42c-2.17-1.01-4.29-2.13-6.35-3.35l-2.82-1.67c-1.9-0.93-4.05-1.26-6.14-0.94
				l0,0C494.89,35.4,494.06,36.16,493.83,37.17z"/>
			<path class="st25" d="M519.35,30.06L519.35,30.06c1.95-0.29,3.92,0.35,5.33,1.71l0,0c0.84,0.82,1.49,1.81,1.91,2.91l2.91,7.62
				l-4.95-2.22c-0.84-0.38-1.73-0.65-2.64-0.82l-0.73-0.14c-1.2-0.22-2.29-0.83-3.11-1.73l0,0c-0.92-1.01-1.48-2.29-1.61-3.65l0,0
				C516.29,31.95,517.55,30.33,519.35,30.06z"/>
			<path class="st25" d="M438.7,68.56l0.48-0.99c0.7-1.79,1.92-3.33,3.51-4.44l0,0c1.67-1.17,3.56-2,5.54-2.47l6.65-1.54
				L438.7,68.56z"/>
			<polygon class="st25" points="587.86,48.14 541.04,63.82 544.5,66.29 			"/>
			<path class="st25" d="M608.67,41.56l-15.21,1.17c-1.32,0.1-2.61,0.48-3.77,1.12l0,0c-1.48,0.81-2.24,2.52-1.86,4.16l0,0
				c0.33,1.41,1.45,2.51,2.86,2.82l0,0c1.76,0.4,3.61,0.06,5.14-0.92L608.67,41.56z"/>
			<path class="st25" d="M573.86,45.17c-0.4-1.97,0.37-3.96,1.6-5.55c1.22-1.56,2.77-2.84,4.55-3.77l2.8-1.46l0.73,2.52
				c0.34,1.17,0.56,2.36,0.66,3.56c0.29,3.61-1.91,7.15-5.41,8.12c-0.32,0.09-0.65,0.15-0.98,0.21l0,0
				c-1.14,0.17-2.28-0.32-2.94-1.26C574.37,46.83,574.03,46.02,573.86,45.17z"/>
			<path class="st25" d="M559.35,43.43l0.96,4.12c0.46,1.97,0.29,4.03-0.47,5.91l0,0c-0.34,0.83-1.04,1.45-1.91,1.67l0,0
				c-1.74,0.44-3.59,0.1-5.06-0.94l0,0c-0.32-0.23-0.53-0.6-0.55-0.99l0,0c-0.18-2.66,1-5.23,3.13-6.83L559.35,43.43z"/>
			<path class="st25" d="M543.45,56.06l0.55-0.37c0.96-0.64,2.03-1.1,3.15-1.36l3.04-0.7l-1.78,1.82c-1.54,1.58-2.72,3.48-3.46,5.55
				l-0.44,1.25l-5.71-0.6l0.73-1.33C540.47,58.6,541.82,57.14,543.45,56.06z"/>
			<polygon class="st25" points="555.59,67.74 559.09,72.69 558.14,78.68 554.99,84.98 550,77.59 550.07,72.1 			"/>
			<path class="st25" d="M570.7,59.02l-0.06,0.05c-1.28,0.99-1.88,2.63-1.56,4.22l0,0c0.55,2.68,2.64,4.77,5.32,5.32l0,0
				c0.19,0.04,0.36,0.07,0.55,0.1c1.03,0.14,5.48,0.94,5.48,0.94l-0.26-3.63c-0.14-2.06-0.95-4.03-2.29-5.6l-0.04-0.05
				c-0.85-0.99-1.97-1.71-3.22-2.08l-0.06-0.01C573.23,57.9,571.8,58.18,570.7,59.02z"/>
			<path class="st25" d="M546.49,31.95L546.49,31.95c0.61,0.41,1.14,0.92,1.57,1.52l1.8,2.48c0.67,0.91,1.14,1.96,1.4,3.05l0,0
				c0.14,0.59-0.23,1.18-0.81,1.31l0,0c-1.27,0.3-2.58-0.18-3.36-1.22l-2.69-3.62c-0.53-0.7-1.09-1.37-1.71-1.98l0,0
				c-1.71-1.74-3.94-2.88-6.35-3.24l-1.23-0.19l2.26-0.28C540.57,29.37,543.81,30.15,546.49,31.95z"/>
			<path class="st25" d="M589.37,64.13c0.59-1.15,1.79-1.87,3.08-1.87l0.89,0.01c1.63-0.05,3.17,0.71,4.12,2.04l0,0
				c0.9,1.24,1.4,2.74,1.45,4.28l0.19,6.52l-6.3-2.63c-1.31-0.55-2.44-1.43-3.29-2.55l0,0C588.38,68.18,588.33,65.94,589.37,64.13
				L589.37,64.13z"/>
			<path class="st25" d="M606.97,82.3c0.32,0.28,1.38,2.69,2.16,4.51c0.57,1.35,0.75,2.83,0.52,4.27l0,0
				c-0.37,2.26-1.82,4.19-3.88,5.19l0,0c-0.99,0.79-2.33,1.02-3.53,0.61l0,0c-1.15-0.4-2.03-1.34-2.36-2.51l0,0
				c-0.72-1.82-0.72-3.86,0.01-5.68l0,0c0.53-1.34,1.45-2.49,2.64-3.31L606.97,82.3z"/>
			<path class="st25" d="M593.33,87.97c-0.54,0.87-0.52,4.18-0.43,6.41c0.06,1.41-0.35,2.79-1.15,3.95l0,0
				c-0.84,1.22-2.03,2.17-3.41,2.72l-1.72,0.68c-1.15,0.45-2.45,0.36-3.52-0.27l0,0c-1.21-0.7-1.94-2-1.93-3.4l0.01-1.88
				c0.01-1.6,0.71-3.12,1.92-4.18l0,0c1.69-1.47,3.72-2.52,5.91-3.02L593.33,87.97z"/>
			<path class="st25" d="M584.1,78.59l0.23-0.44c-0.28,2.54,0.15,5.1,1.22,7.39c0.38,0.81-0.07,1.75-0.94,1.96l0,0
				c-0.79,0.18-1.57-0.34-1.71-1.13C582.45,83.73,582.86,80.99,584.1,78.59z"/>
			<path class="st25" d="M579.25,59.55l4.25,1.51c2.53,0.9,4.68,2.63,6.12,4.9l0.06,0.1c0.43,0.69,0.21,1.6-0.49,2.01l0,0
				c-0.64,0.38-1.46,0.2-1.9-0.4l-0.28-0.39c-1.23-1.71-2.65-3.28-4.24-4.66L579.25,59.55z"/>
			<path class="st25" d="M610.9,67.43l-4.24,0.98c-1.71,0.4-3.3,1.21-4.63,2.36l0,0c-2.73,2.37-4.82,5.38-6.09,8.76l-0.09,0.24
				c-0.21,0.56-0.03,1.19,0.44,1.55l0,0c0.61,0.47,1.48,0.36,1.94-0.26l1.8-2.43c0.46-0.64,0.95-1.25,1.48-1.83l3.55-3.93
				c0.47-0.53,0.97-1.03,1.5-1.5L610.9,67.43z"/>
			<path class="st25" d="M567.27,89.04l3.09,0.4c2.45,0.32,4.68,1.56,6.24,3.48l0.21,0.19c0.8,0.72,1.19,1.8,1.04,2.88l0,0
				c-0.39,1.04-1.46,1.67-2.57,1.49l0,0c-0.82-0.14-1.55-0.61-2.01-1.3l-1.56-2.38c-0.66-1.01-1.44-1.95-2.33-2.77L567.27,89.04z"/>
		</g>
	</g>
</g>
</svg>
