<?xml version="1.0" encoding="utf-8"?>
<!-- Generator: Adobe Illustrator 25.4.1, SVG Export Plug-In . SVG Version: 6.00 Build 0)  -->
<svg version="1.1" id="Layer_1" xmlns="http://www.w3.org/2000/svg" xmlns:xlink="http://www.w3.org/1999/xlink" x="0px" y="0px"
	 viewBox="0 0 627.06 290.69" style="enable-background:new 0 0 627.06 290.69;" xml:space="preserve">
<style type="text/css">
	.st0{fill:#F6B787;}
	.st1{fill:#EAA66E;}
	.st2{fill:#FFF3D8;}
	.st3{fill:#ECE0CB;}
	.st4{fill:#FFFFFF;}
	.st5{fill:#DD3830;}
</style>
<g>
	<g>
		<path class="st0" d="M324.16,0.84C149.25-5.55,16.14,51.41,3.88,146.42c-9.51,73.73,70.49,137.92,297.3,142.52
			c226.8,4.6,338.67-62.83,318.75-145.58C604.04,77.38,534.11,8.5,324.16,0.84z"/>
		<path class="st1" d="M304.24,276.68c-226.8-4.6-306.81-68.79-297.3-142.52c0.12-0.92,0.25-1.84,0.39-2.76
			c-1.57,5.38-2.73,10.9-3.46,16.55c-9.51,73.72,70.49,137.92,297.3,142.52c201.32,4.08,312.08-48.59,320.49-118.35
			C601.06,234.9,492.06,280.49,304.24,276.68z"/>
		<path class="st1" d="M324.52,0.49c-157-5.73-280.32,39.57-312.8,117.62c0.05,0.64,0.11,1.27,0.18,1.91
			c1.93,15.93,11.23,17.33,22.98,24.11c11.97,6.9,15.32,12.91,21.03,24.94c12.99,27.32,26.84,46.09,60.19,46.01
			c14.26-0.03,26.99-5,41.38-4.63c15.25,0.39,28.67,7.3,42.91,11.92c22.52,7.31,46.98,15.01,70.57,17.28
			c16.53,1.59,27.79-6.68,42.82-7.74c25.04-1.76,51.44,12.44,78.11,7.36c31.4-5.99,41.67-33.48,75.1-33.41
			c12.79,0.03,27.23,1.84,39.88,0.04c15.76-2.25,25.04-10.59,38.35-16.97c11.38-5.45,22.82-2.53,35.13-7.59
			c13.24-5.45,15.38-11.48,23.07-21.36c5.16-6.64,11.17-12.47,16.49-18.41C603.36,76.01,532.91,8.09,324.52,0.49z"/>
		<path class="st2" d="M521.51,82.5c-6.23-10.51-4.3-16.66-17.24-23.3c-9.7-4.98-21.45-8.46-32.15-10.06
			c-10.22-1.53-20.51-2.28-31.06-2.27c-13.14,0.01-15.17-2.15-25.35-7.81c-18.11-10.08-39.99-4.86-59.7-8.02
			c-9.64-1.55-17.28-6.62-26.43-9.48c-13.03-4.08-25.81-4.47-39.39-3.67c-12.81,0.75-24.89,2.48-37.36,4.91
			c-8.97,1.75-17.84,6.88-26.69,7.98c-19.32,2.41-37.73-3.35-56.34,7.76c-18.2,10.86-32.58,13.17-52.83,18.42
			c-16.79,4.35-22.99,30.13-42.53,41.63c-11.29,6.64-5.1,27.01,2.53,38.82c7.51,11.63,24.44,16.5,36.61,20.94
			c85.5,31.17,189.41,41.86,279.22,26.43c38.63-6.64,79.3-9.19,116.08-24.14c18.03-7.33,38.08-15.69,42.27-36.8
			C555.44,102.15,530.48,97.64,521.51,82.5z"/>
		<path class="st3" d="M522.28,83.01c-6.23-10.51-4.3-16.66-17.24-23.3c-9.7-4.98-21.45-8.46-32.15-10.06
			c-9.96-1.49-19.97-2.23-30.24-2.26c-0.87,0.64-1.6,1.32-2.15,2.06c-1.03,1.4-0.07,4.96-0.71,5.72c-1.8,2.15,0.97,5.81-5.83,6.17
			c0.24,20.84,42.47,9.39,42.45,20.55c-0.01,6.77-18.83,7.01-7.89,19.25c5.12,5.74,17.78,0.18,13.85,13.15
			c-4.84,15.97-45.28,11.56-57.84,10.34c-11.83-1.14-14.92-3.55-24.07,3.19c-3.8,2.8-2.74,5.37-8.05,6.89
			c-3.05,0.87-8.76-1.86-11.75-2.03c-13.05-0.78-16.56,1.23-21.58,11.24c-4.28,8.53-4.32,14.22-16.09,16.09
			c-8.93,1.41-24.38-0.48-32.18-4.6c-7.96-4.21-12.56-11.25-22.1-14.11c-23.11-6.93-49.65,11.49-72.15-0.57
			c-10.77-5.77-14.13-13.19-27.58-14.05c-9.5-0.6-20.06-1.05-28.76,2.59c-12.6,5.28-18.25,8.61-33.33,2.84
			c-9.7-3.72-15.73-10.2-24.42-15.48c-7.42-4.51-15.7-8.17-25-6.06c-2.34,0.53-5.63,2.06-8.32,4.07c0.71,7.91,4.43,16.86,8.58,23.29
			c7.51,11.63,24.44,16.5,36.61,20.94c85.5,31.17,189.41,41.86,279.22,26.43c38.63-6.64,79.3-9.2,116.08-24.14
			c18.03-7.33,38.08-15.69,42.27-36.8C556.2,102.66,531.25,98.15,522.28,83.01z"/>
		<path class="st4" d="M239.5,102.08c-4.06-13.26-23.35-15.94-34.87-16.45c-11.35-0.5-31.51,0.94-38.42-9.69
			c-2.75-4.23-2.34-8.02-7.55-9.72c-3.61-1.18-9.06-1.42-12.77-0.62c-1.7,0.37-3.01,0.86-4.6,1.64l-3.58,1.02
			c-3.52-0.23-8.99,1.56-11.25,4.58c-3.85,5.15-0.13,7.14,3.59,10.1c4.36,3.47,6.34,7.1,2.05,11.88
			c-4.06,4.53-12.27,4.13-15.72,8.81c-3.3,4.49,0.41,10.34,4.58,12.63c8.57,4.68,20.52,1.11,28.9-2.51
			c10.26-4.44,17.46-7.44,28.85-7.71c9.93-0.24,17.42,3.73,26.03,7.8C216.06,119.19,246.43,124.67,239.5,102.08z"/>
		<path class="st4" d="M267.97,31.06c-5.53-2.73-14.25,1.17-19.41,2.98c-7.77,2.72-14.95,4.32-23.1,4.6
			c-5.58,0.19-10.83,0.27-16.23,0c-3.49-0.18-12.58,1.34-13.79,0.51l-3.58,2.55c-3.65,1.25-10.82,5.64-8.6,10.73
			c2.32,5.31,13.59,5.8,18.28,6.53c8.67,1.34,4.87,3.08,7.8,9.31c2.33,4.97,10.95,6.89,15.73,5.12c6.1-2.26,6.58-10.41,10.32-15.22
			c4.68-6.02,9.49-7.42,16.33-8.28c6.25-0.78,14.43-1.64,18.41-7.17C272.95,38.83,272.74,33.42,267.97,31.06z"/>
		<path class="st4" d="M346.13,41.69c-9.93-3.87-15.81,0.48-24.9,4.22c-9,3.7-10.76-1.2-14.43-8.71c-3.1-6.34-7.07-5.23-11.75-0.12
			c-4.4,4.81-3.39,9.85-5.51,15.36c-2.06,5.36-6.96,6.25-12.37,7.12c-2.64,0.42-5.1,0.82-7.66,1.02h-3.58
			c-5.47,0.41-19.68,5.2-20.98,11.11c-1.65,7.49,10.45,9.12,14.23,13.51c4.29,4.98,6.26,15.62,3.83,21.73
			c-1.9,4.78-14.4,12-10.89,16.87c6.06,8.39,21.83-4.4,26.93-7.17c9.08-4.94,18.95,2.83,25.07,9.66c3.09,3.45,4.07,7.12,8.78,8.76
			c5.49,1.91,12.33-0.47,17.22-2.95c15.48-7.85,2.64-17.51-3.25-27.35c-7.42-12.41-5.62-26.34,6.9-34.48
			c4.28-2.78,8.22-3.77,13.28-4.07c4.18-0.25,7.49,0.36,10.23-3.54C363.13,54.31,353.5,44.57,346.13,41.69z"/>
		<path class="st5" d="M237.97,126.54c-13.44-15.85-54.87,4.76-35.38,14.52c4.09,2.3,6.58,2.79,8.17,3.83
			C224.88,149.95,252.96,144.22,237.97,126.54z"/>
		<path class="st5" d="M380.86,60.6c-7.25,15.75,34.23,19.16,35.02,13.56C427.86,57.54,392.04,41.03,380.86,60.6z"/>
		<path class="st5" d="M231.88,73.48c2.28,17.19,38.14-2.66,36.85-7.22C259.95,46.06,230.88,50.96,231.88,73.48z"/>
		<path class="st5" d="M113.69,101.85c9.53-14.82,34.08-7.15,31.58,9.08C145.37,115.52,107.58,113.73,113.69,101.85L113.69,101.85z"
			/>
		<path class="st5" d="M427.09,109.13c0,0-14.55,5.93-12.25,15.57c3.82,1.16,28.16,3.33,31.94,0.04
			C456.32,116.42,439.61,103.26,427.09,109.13z"/>
	</g>
</g>
</svg>
