<?xml version="1.0" encoding="utf-8"?>
<!-- Generator: Adobe Illustrator 25.4.1, SVG Export Plug-In . SVG Version: 6.00 Build 0)  -->
<svg version="1.1" id="Layer_1" xmlns="http://www.w3.org/2000/svg" xmlns:xlink="http://www.w3.org/1999/xlink" x="0px" y="0px"
	 viewBox="0 0 389.82 287.27" style="enable-background:new 0 0 389.82 287.27;" xml:space="preserve">
<style type="text/css">
	.st0{fill:#376A4B;}
	
		.st1{clip-path:url(#SVGID_00000054962566739420132330000007409041728430056065_);fill:none;stroke:#87BC40;stroke-width:6.9809;stroke-miterlimit:10;}
	.st2{opacity:0.21;fill:#FFFFFF;}
	.st3{fill:#ECF5E5;}
	.st4{fill:#EE362E;}
	.st5{fill:#F05550;}
	.st6{fill:#122213;}
</style>
<g>
	<g>
		<ellipse class="st0" cx="147" cy="129.41" rx="147" ry="129.41"/>
		<g>
			<defs>
				<ellipse id="SVGID_1_" cx="147" cy="129.41" rx="147" ry="129.41"/>
			</defs>
			<clipPath id="SVGID_00000005236937284740381210000004387614765455970956_">
				<use xlink:href="#SVGID_1_"  style="overflow:visible;"/>
			</clipPath>
			
				<path style="clip-path:url(#SVGID_00000005236937284740381210000004387614765455970956_);fill:none;stroke:#87BC40;stroke-width:6.9809;stroke-miterlimit:10;" d="
				M-25.44,94.84c0,0,141.34-131.44,346.29-14.91"/>
			
				<line style="clip-path:url(#SVGID_00000005236937284740381210000004387614765455970956_);fill:none;stroke:#87BC40;stroke-width:6.9809;stroke-miterlimit:10;" x1="-25.44" y1="129.41" x2="320.85" y2="129.41"/>
			
				<path style="clip-path:url(#SVGID_00000005236937284740381210000004387614765455970956_);fill:none;stroke:#87BC40;stroke-width:6.9809;stroke-miterlimit:10;" d="
				M-25.44,111.12c0,0,176.68-66.4,340.64,0"/>
			
				<path style="clip-path:url(#SVGID_00000005236937284740381210000004387614765455970956_);fill:none;stroke:#87BC40;stroke-width:6.9809;stroke-miterlimit:10;" d="
				M-25.44,164.03c0,0,141.34,131.44,346.29,14.91"/>
			
				<path style="clip-path:url(#SVGID_00000005236937284740381210000004387614765455970956_);fill:none;stroke:#87BC40;stroke-width:6.9809;stroke-miterlimit:10;" d="
				M-25.44,147.76c0,0,176.68,66.4,340.64,0"/>
		</g>
		<path class="st2" d="M147,0c-28.36,0-54.83,7.09-77.29,19.34c12.28,59.64,56.63,160.28,216.15,152.54
			c5.25-13.31,8.14-27.59,8.14-42.47C293.99,57.94,228.18,0,147,0z"/>
		<path class="st2" d="M146.51,0.01c6.61,41.65,36.25,99.62,146.64,115.53C285.28,50.59,222.86,0,147,0
			C146.83,0,146.67,0.01,146.51,0.01z"/>
	</g>
	<g>
		<path class="st0" d="M262.39,287.27c70.37,0,127.42-57.05,127.42-127.42H134.97C134.97,230.22,192.02,287.27,262.39,287.27z"/>
		<path class="st3" d="M262.39,275.24c63.73,0,115.4-51.66,115.4-115.4H147C147,223.58,198.66,275.24,262.39,275.24z"/>
		<path class="st4" d="M262.39,264.71c57.92,0,104.87-46.95,104.87-104.87H157.52C157.52,217.76,204.47,264.71,262.39,264.71z"/>
		<path class="st5" d="M262.39,217.54c31.87,0,57.7-25.83,57.7-57.7h-115.4C204.69,191.71,230.53,217.54,262.39,217.54z"/>
		<path class="st6" d="M262.38,243.04c-0.13,3.61-1.53,6.5-3.12,6.44c-1.59-0.06-2.78-3.03-2.65-6.65c0.13-3.61,1.53-6.5,3.12-6.44
			C261.33,236.45,262.51,239.42,262.38,243.04z"/>
		<g>
			<path class="st6" d="M211.73,208.58c-2.22,2.86-5.04,4.38-6.29,3.4c-1.26-0.98-0.48-4.09,1.74-6.94c2.22-2.86,5.04-4.38,6.29-3.4
				C214.72,202.62,213.94,205.73,211.73,208.58z"/>
			<path class="st6" d="M189.08,209.22c-3.02,1.99-6.17,2.53-7.05,1.2c-0.88-1.33,0.85-4.02,3.87-6.02c3.02-1.99,6.17-2.53,7.05-1.2
				C193.83,204.53,192.09,207.22,189.08,209.22z"/>
			<path class="st6" d="M211.73,231.39c-2.22,2.86-5.04,4.38-6.29,3.4c-1.26-0.98-0.48-4.09,1.74-6.94c2.22-2.86,5.04-4.38,6.29-3.4
				C214.72,225.43,213.94,228.54,211.73,231.39z"/>
			<path class="st6" d="M230.51,227.07c-1.52,3.28-3.92,5.4-5.37,4.73c-1.45-0.67-1.39-3.87,0.13-7.15c1.52-3.28,3.92-5.4,5.37-4.73
				C232.09,220.59,232.03,223.79,230.51,227.07z"/>
			<path class="st6" d="M250.62,230.36c-0.92,3.5-2.92,6-4.46,5.59c-1.54-0.41-2.04-3.57-1.12-7.07c0.92-3.5,2.92-6,4.46-5.59
				C251.04,223.7,251.54,226.86,250.62,230.36z"/>
			<path class="st6" d="M237.73,246.01c-0.92,3.5-2.92,6-4.46,5.59c-1.54-0.41-2.04-3.57-1.12-7.07c0.92-3.5,2.92-6,4.46-5.59
				C238.15,239.35,238.65,242.52,237.73,246.01z"/>
		</g>
		<g>
			<path class="st6" d="M313.06,208.58c2.22,2.86,5.04,4.38,6.29,3.4c1.26-0.98,0.48-4.09-1.74-6.94c-2.22-2.86-5.04-4.38-6.29-3.4
				C310.06,202.62,310.84,205.73,313.06,208.58z"/>
			<path class="st6" d="M335.71,209.22c3.02,1.99,6.17,2.53,7.05,1.2c0.88-1.33-0.85-4.02-3.87-6.02c-3.02-1.99-6.17-2.53-7.05-1.2
				C330.96,204.53,332.69,207.22,335.71,209.22z"/>
			<path class="st6" d="M313.06,231.39c2.22,2.86,5.04,4.38,6.29,3.4c1.26-0.98,0.48-4.09-1.74-6.94c-2.22-2.86-5.04-4.38-6.29-3.4
				C310.06,225.43,310.84,228.54,313.06,231.39z"/>
			<path class="st6" d="M294.27,227.07c1.52,3.28,3.92,5.4,5.37,4.73c1.45-0.67,1.39-3.87-0.13-7.15c-1.52-3.28-3.92-5.4-5.37-4.73
				C292.7,220.59,292.76,223.79,294.27,227.07z"/>
			<path class="st6" d="M274.16,230.36c0.92,3.5,2.92,6,4.46,5.59c1.54-0.41,2.04-3.57,1.12-7.07c-0.92-3.5-2.92-6-4.46-5.59
				C273.74,223.7,273.24,226.86,274.16,230.36z"/>
			<path class="st6" d="M287.05,246.01c0.92,3.5,2.92,6,4.46,5.59c1.54-0.41,2.04-3.57,1.12-7.07c-0.92-3.5-2.92-6-4.46-5.59
				C286.63,239.35,286.13,242.52,287.05,246.01z"/>
		</g>
	</g>
</g>
</svg>
