<?xml version="1.0" encoding="utf-8"?>
<!-- Generator: Adobe Illustrator 25.4.1, SVG Export Plug-In . SVG Version: 6.00 Build 0)  -->
<svg version="1.1" id="Layer_1" xmlns="http://www.w3.org/2000/svg" xmlns:xlink="http://www.w3.org/1999/xlink" x="0px" y="0px"
	 viewBox="0 0 241.92 341.89" style="enable-background:new 0 0 241.92 341.89;" xml:space="preserve">
<style type="text/css">
	.st0{fill:#C6DFE5;}
	.st1{fill:#D4EEF3;}
	.st2{fill:#DCE8EA;}
	.st3{fill:#F1F2F2;}
	.st4{opacity:0.83;fill:#FFFFFF;}
</style>
<g>
	<g>
		<path class="st0" d="M241.05,275.58c-0.21-4.54-0.44-9.05-0.44-13.43c0-19.28,0-38.56,0-57.84c0-61.51,0-123.02,0-184.53H120.96
			H1.31c0,61.51,0,123.02,0,184.53c0,19.28,0,38.56,0,57.84c0,4.37-0.23,8.88-0.44,13.43c-1.03,4.77-1.18,9.67-0.26,14.5
			c0.39,12.15,3,23.66,13.01,32.35c10.31,8.93,23.89,13,37.19,16.07c23.01,5.31,117.28,5.31,140.3,0
			c13.29-3.07,26.88-7.13,37.19-16.07c10.02-8.68,12.63-20.19,13.01-32.35C242.23,285.25,242.08,280.35,241.05,275.58z"/>
		<path class="st1" d="M226.86,265.43c-0.18-4.36-0.39-8.7-0.39-12.89c0-18.51,0-37.03,0-55.54c0-59.07,0-118.14,0-177.2H120.96
			H15.45c0,59.07,0,118.14,0,177.2c0,18.51,0,37.03,0,55.54c0,4.2-0.21,8.53-0.39,12.89c-0.91,4.58-1.04,9.28-0.23,13.93
			c0.34,11.67,2.64,22.73,11.48,31.06c9.09,8.58,21.07,12.48,32.79,15.43c20.29,5.1,103.43,5.1,123.72,0
			c11.72-2.95,23.7-6.85,32.79-15.43c8.83-8.34,11.14-19.39,11.48-31.06C227.9,274.72,227.77,270.01,226.86,265.43z"/>
		<path class="st2" d="M226.47,122.72H15.45c0,24.76,0,49.52,0,74.27c0,18.51,0,37.03,0,55.54c0,4.2-0.21,8.53-0.39,12.89
			c-0.91,4.58-1.04,9.28-0.23,13.93c0.34,11.67,2.64,22.72,11.48,31.06c9.09,8.58,21.07,12.48,32.79,15.43
			c20.29,5.1,103.42,5.1,123.72,0c11.72-2.95,23.7-6.85,32.79-15.43c8.83-8.34,11.14-19.39,11.48-31.06
			c0.81-4.64,0.68-9.35-0.23-13.93c-0.18-4.36-0.39-8.7-0.39-12.89c0-18.51,0-37.03,0-55.54
			C226.47,172.24,226.47,147.48,226.47,122.72z"/>
		<ellipse class="st3" cx="120.99" cy="129.47" rx="105.54" ry="18.18"/>
		<ellipse class="st0" cx="120.96" cy="19.79" rx="119.65" ry="18.18"/>
		<ellipse class="st1" cx="120.96" cy="18.89" rx="105.51" ry="10.94"/>
		<path class="st4" d="M41.36,76.91c0.21,40.67,0.42,81.34,0.63,122.01c0.06,12.35,0.13,24.77,2.32,36.93
			c0.71,3.94,1.72,8.02,4.35,11.04c2.63,3.02,7.33,4.6,10.77,2.55c2.15-1.28,3.4-3.66,4.16-6.04c2.64-8.26,0.61-17.2-1.1-25.7
			c-8.02-40.03-8.3-81.59-0.81-121.72c1.84-9.86,8.5-29.33-1.93-36.56C47.34,50.8,41.31,67.53,41.36,76.91z"/>
		<path class="st4" d="M47.61,270.09c-1.31,4.15-0.83,8.63-0.18,12.93c1.39,9.25,4.06,19.28,11.77,24.56
			c1.41,0.96,2.98,1.74,4.66,1.97c3.45,0.46,6.88-1.53,8.95-4.32c2.06-2.8,2.96-6.28,3.46-9.72c0.83-5.69,0.68-11.52-0.42-17.16
			c-0.91-4.66-2.59-9.37-5.98-12.7C63.31,259.19,50.53,260.85,47.61,270.09z"/>
	</g>
</g>
</svg>
