<?xml version="1.0" encoding="utf-8"?>
<!-- Generator: Adobe Illustrator 25.4.1, SVG Export Plug-In . SVG Version: 6.00 Build 0)  -->
<svg version="1.1" id="Layer_1" xmlns="http://www.w3.org/2000/svg" xmlns:xlink="http://www.w3.org/1999/xlink" x="0px" y="0px"
	 viewBox="0 0 350.41 424.54" style="enable-background:new 0 0 350.41 424.54;" xml:space="preserve">
<style type="text/css">
	.st0{fill:#F8EBCF;}
	.st1{fill:#F9DD54;}
	.st2{fill:#FBF6BB;}
	.st3{opacity:0.2;fill:#E9B520;}
	.st4{fill:#1172BA;}
	.st5{fill:#2BAAE2;}
	.st6{fill:#EEC21B;}
	.st7{fill:#B91F68;}
	.st8{opacity:0.5;}
	.st9{fill:#FFFFFF;}
	.st10{display:none;fill:#B91F68;}
	.st11{display:none;fill:#F8EBCF;}
	.st12{display:none;}
	.st13{display:inline;fill:#F8EBCF;}
	.st14{opacity:0.2;}
	.st15{opacity:0.3;}
	.st16{opacity:0.4;}
	.st17{fill:#E9B520;}
	.st18{fill:#045A8A;}
	.st19{opacity:0.15;}
</style>
<g>
	<path class="st0" d="M63.47,363.2v36.62c0,12.92,50.34,23.4,112.45,23.4c62.1,0,112.44-10.48,112.44-23.4V363.2H63.47z"/>
	<path class="st1" d="M63.47,363.2v36.62c0,12.92,50.34,23.4,112.45,23.4c62.1,0,112.44-10.48,112.44-23.4V363.2H63.47z"/>
	<path class="st2" d="M12.35,43.92v42.16l44.04,291.86c0,12.92,53.51,23.39,119.53,23.39c66.01,0,119.51-10.47,119.51-23.39
		l44.04-291.86V43.92H12.35z"/>
	<path class="st3" d="M298.83,64.99c-29.98,6.7-73.87,10.95-122.91,10.95c-49.06,0-92.95-4.25-122.93-10.95
		C27.76,59.36,12.35,52,12.35,43.92v42.16c0,17.69,73.22,32.03,163.56,32.03c90.32,0,163.55-14.34,163.55-32.03V43.92
		C339.47,52,324.05,59.36,298.83,64.99z"/>
	<path class="st4" d="M176.96,347.53c-44.46,0-84.23-4.25-111.41-10.94c-6.11-1.51-11.41-3.16-16.14-4.89l2.29,15.22
		c3.89,1.3,8.08,2.56,12.79,3.72c27.18,6.7,66.95,10.94,111.41,10.94c44.45,0,84.23-4.25,111.4-10.94
		c4.72-1.17,8.92-2.42,12.81-3.73l2.18-14.44c-4.19,1.45-8.75,2.84-13.93,4.12C261.19,343.28,221.41,347.53,176.96,347.53z"/>
	<path class="st5" d="M302.37,199.03c-18.02,3.91-41.02,6.96-67.01,8.84c-4.22-29.93-29.41-48.73-59.51-48.73
		c-30.1,0-55.68,20.59-59.52,48.72c-25.94-1.88-48.89-4.92-66.87-8.83c-8.07-1.75-15.05-3.68-20.93-5.75l20.88,138.41
		c4.73,1.73,10.04,3.38,16.14,4.89c27.17,6.7,66.94,10.94,111.41,10.94c44.45,0,84.23-4.25,111.4-10.94
		c5.19-1.28,9.75-2.67,13.93-4.12l21-139.18C317.41,195.35,310.46,197.28,302.37,199.03z"/>
	<path class="st6" d="M307.85,207.52c-13.65-2.86-25.03-0.67-37.98,3.81c-15.48,5.35-23.44,16.57-30.91,29.7
		c-14.66,25.8-36.79,40.09-67.69,45.02c-13.49,2.15-25.54,0.95-38.85-1.62c-13.05-2.52-25.49-9.66-37.12-15.78
		c-11.39-6-25.37-16.37-38.87-16.25c-6.72,0.06-12.54,1.64-18.3,4.56l11.28,74.74c4.73,1.73,10.04,3.38,16.14,4.89
		c27.17,6.7,66.94,10.94,111.41,10.94c44.45,0,84.23-4.25,111.4-10.94c3.19-0.79,6.09-1.63,8.86-2.49c0.15-0.06,0.34-0.11,0.48-0.18
		c1.52-0.64,3.09-1.28,4.67-1.95l18.16-120.39C316.62,209.6,312.19,208.43,307.85,207.52z"/>
	<g>
		<path class="st7" d="M60.64,261.27c-1.22-3.03-3.57-3.59-5.75-2.89l1.11-0.84c-3.57-0.15-9.57,1.01-10.43,4.84
			c-1.19,5.28,3.34,5.93,7.17,5.09C56.43,266.67,62.55,266.03,60.64,261.27z"/>
		<path class="st7" d="M55.99,290.79c-0.5,0.44-0.86,0.85-0.82,1.67c2.64,1.83,15.23-2.02,13.9-6.17
			C67.09,280.13,57.91,286.65,55.99,290.79z"/>
		<path class="st7" d="M50.34,313.88c1.3,2.63,8.4,15.67,12.2,7.01C64.73,315.89,53.17,311.4,50.34,313.88z"/>
		<path class="st7" d="M43.03,288.41c0.35,3.36,0.99,10.83,3.31,12.28c2.98-3.99,2.13-11.01-2.55-13.7
			C43.5,287.37,43.29,287.91,43.03,288.41z"/>
		<path class="st7" d="M280.89,212.55c-4.58-0.57-14.72,6.45-10.83,10.98c3.37-0.77,9.02-3.36,11.48-5.72
			C285.17,214.33,280.89,212.55,280.89,212.55z"/>
		<path class="st7" d="M307.42,228.35l1.31,2.02c-2.88-4.78-12.71-3.67-15.28,0.74c2.36,2.42,9.32,5.91,12.9,5.95
			C312.41,237.13,311.17,231.19,307.42,228.35z"/>
		<path class="st7" d="M312.18,261.17c-8.07,1.29-7.24,12.5-2.31,16.42c2.67-3.05,1.6-11.09,2.77-15.18l0.44,0.41
			C312.83,262.08,312.93,261.69,312.18,261.17z"/>
		<path class="st7" d="M282.64,272.32c2.72,1.23,8.54-0.63,10.79-2.24c7.53-5.34-7.77-5.31-10.37-3.62l2.17-1.22
			C281.77,266.22,277.46,269.99,282.64,272.32z"/>
		<path class="st7" d="M259.14,267.67l0.05-0.04c-1.97,2.85-2.8,7.17-2.54,9.86c4.06,1.4,6.94-4.48,7.64-7.39
			C265.33,265.61,261.18,262.28,259.14,267.67z"/>
		<path class="st7" d="M237.38,247l0.89-0.82c-3.46,4.33-4.82,10.6,3.5,6.62c2.97-1.42,6.5-4.85,4.85-8.26
			C243.85,238.85,239.72,244.65,237.38,247z"/>
		<path class="st7" d="M297.85,295.24l2.17,1.62c-4.72-2.08-20.13-0.56-11.08,5.26C296.07,306.68,307.4,298.32,297.85,295.24z"/>
		<path class="st7" d="M294.51,315.56c-3.67-1.43-6.93,1.29-8.94,4.24c-2.83,1.81-5.83,5.51-4.12,7.54c2.15,2.55,9.3-1.7,10.99-2.95
			C295.49,322.15,299.56,317.53,294.51,315.56z"/>
	</g>
	<g class="st8">
		<path class="st9" d="M301.77,238.35c1.18,0.28,2.37,0.59,3.53,0.94c1.15,0.23,2.26,0.54,3.44,0.68L301.77,238.35z"/>
		<path class="st9" d="M305.29,239.29c-8.34-1.68-15.84-5.16-24.98-3.8c-10.31,1.54-22.29,6.69-30.62,12.55
			c-9.16,6.44-15.37,18.27-23.31,26.25c-6.9,6.93-18.35,14.63-28.83,15.56c11.05,0.12,23.19-8.29,31.73-14.08
			c11.34-7.68,21.56-16.98,34.66-22.19c11.48-4.57,20.75-4.94,32.61-1.98c5.54,1.38,11.96,3.23,14.42-2.94
			C313.28,242.88,309.75,240.66,305.29,239.29z"/>
		<path class="st9" d="M310.55,217.32l1.08,0.5c-9.47-11.34-32.31-1.1-40.45,6.37c7.18-1.76,12.88-4.52,20.73-4.75
			c3.43-0.1,7.09-0.3,10.45,0.36c3.94,0.78,7.17,3.56,11.02,3.96C314.37,221.45,312.8,218.95,310.55,217.32z"/>
		<path class="st9" d="M162.39,286.4c-8.88,1.08-17.97,1.38-27.05,1.2C145.17,288.83,154.96,288.76,162.39,286.4z"/>
		<path class="st9" d="M135.34,287.6c-11.29-1.41-22.62-4.54-30.48-8.17c-17.26-7.98-38.63-16.78-57.7-8.11h1.16
			c-3.83,1.37-10.47,5.15-4.67,9.43c3.59,2.65,12.55-2.06,16.55-2.95c11.98-2.65,23.09,1.24,34.51,4.36
			C107.79,285.73,121.56,287.33,135.34,287.6z"/>
		<path class="st9" d="M195.27,299.13c5.73-2.12,11.14-4.9,15.85-8.78C205.48,293.06,200.43,296.2,195.27,299.13z"/>
		<path class="st9" d="M129.51,302.16c-5.7-1.37-13.24-5.71-19.97-7.71l0.83,0.11c-9.8-2.77-25.64-9.76-35.77-7.72
			c12.7,3.62,21.95,12.61,34.04,17.33c11.07,4.33,22.59,6.23,34.5,6.87c11.67,0.63,22.65-1.16,33.9-4.04
			c6.81-1.74,12.58-4.67,18.23-7.88c-12.25,4.52-26.14,5.69-38.79,5.7C147.47,304.84,138.29,304.26,129.51,302.16z"/>
	</g>
	<path class="st9" d="M249.35,200.31L249.35,200.31c4.22,14.42,3.93,36.36,0.86,47.92c-2.11,7.97-4.69,14.87-9.46,21.28
		c-5.89,7.92-22.94,16.32-17.45,22.48c7.42,8.14,19.23-1.45,23.43-6.76c6.78-8.58,10.1-17.54,11.53-27.82
		C261.04,237.7,257.61,218.44,249.35,200.31z"/>
	<path class="st9" d="M277.98,244.47c-4.55-14.91-11.66-33.69-24.06-44.49c7.79,15.08,11.2,27.38,13.77,42.7
		c1.27,7.53,1.16,18.62-0.15,26.18c-1,5.88-8.52,17.23,1.36,19.05C286.64,291.16,280.32,252.14,277.98,244.47z"/>
	<path class="st9" d="M235.37,207.91c-3.78-24.91-22.28-44.78-53.12-48.48c-30.54-3.66-60.15,14.92-65.93,48.48l7.08-13.94
		c14.43-21.69,42.28-24.5,54.23-23.36c28.26,2.68,38.91,21.56,42.15,40.92c3.45,20.54-10.65,45.55-30.89,54.72
		c-21.66,9.82-48.18,6.7-59.43-4.25c-3.55-3.45-7.54-12.32-6.77-17.27c1.01-6.65,3.81-7.48-0.43-14.76
		c-7.66-13.13-27.68-5.16-31.24,6.71c-8.21,27.32,17.96,48.76,41.97,54.98C186.55,305.54,244.36,267.06,235.37,207.91z"/>
	<path class="st10" d="M188.05,378.03c-7.93-3.77-17.2,0.43-24.69-3.23c0,0-12.47-7.76-18.12-6.3c-8.58,2.22-14.12,9.9-15.76,18.12
		c-2.77,13.96-0.72,29.64,3.68,43.09c6.68,20.43,24.52,11.3,38.72,4.97c14.91-6.65,30.8-16.67,30.37-35.19
		C202.05,390.61,196.16,381.88,188.05,378.03z"/>
	<path class="st11" d="M195.92,358.26c-2.8,7.61-12.85,15.6-22.09,15.26c0.07-0.42,0.08-0.9,0.2-1.26
		c1.61-4.74,24.39-29.04,5.5-25.09c-0.42,4.77-1.24,9.41-3.51,13.7c-2.26,4.28-5.97,7.58-5.55,12.85c0,0-4.75-1.98-7.05-4.92
		c-4.25-5.43-3.56-10.77,3.35-17.11c-16.79-3.64-16.68,12.22-9.41,18.96c4.67,4.33,9.05,4.37,11.84,10.98
		c2.13,5.03-1.68,9.08-5.57,12.03c16.21,0.93,19.57-10.61,17.63-16.89C194.65,380.67,203.3,367.33,195.92,358.26z"/>
	<g class="st12">
		<path class="st13" d="M149.24,383.05c0.82-0.84,1.68-3.3,1.66-4.46c-0.03-1.73-2.45-1.48-2.45-1.48c-1.89,0-1.68,2.29-1.39,3.46
			C147.36,381.73,147.62,384.72,149.24,383.05z"/>
		<path class="st13" d="M139.65,387.99c-1.63,0.21-1.11,2.58-0.76,3.56c0.39,1.12,0.93,3.41,2.18,1.78c0.64-0.83,1.32-2.8,1.22-3.86
			C142.15,388.15,139.65,387.99,139.65,387.99z"/>
		<path class="st13" d="M155.42,393.28c1.22-0.01,3.12-2.17,3.6-3.17c0.74-1.49-1.97-2.82-1.97-2.82c-1.71-0.89-2.41,1.15-2.47,2.48
			C154.52,390.86,154.01,393.29,155.42,393.28z"/>
		<path class="st13" d="M142.71,402.42c-2.77-0.37-1.15,8.9,1.82,5.84c1.02-1.04,2-3.16,1.37-4.55
			C145.26,402.25,142.71,402.42,142.71,402.42z"/>
		<path class="st13" d="M162.47,404.2c-0.2-1.54-2.96-1.98-2.96-1.98c-1.93-0.99-4.18,7.44-0.2,5.92
			C160.48,407.7,162.66,405.53,162.47,404.2z"/>
		<path class="st13" d="M190.39,390.31c-0.15-0.71-0.95-1.37-1.72-1.23c-0.26,0.05-0.29,0-0.29,0c-1.96-0.2-2.29,1.32-2.5,2.86
			c-0.21,1.61-0.81,3.39,1.56,2.32C188.81,393.64,190.77,392.05,190.39,390.31z"/>
		<path class="st13" d="M192.53,406.82c-0.28-0.6-1.44-1.65-2.16-1.22c-0.07,0.04-2.39,2.6-2.5,3.88c-0.05,0.55-0.58,2.15-0.28,2.67
			c0.53,0.91,1.96-0.05,2.52-0.5C191.42,410.58,193.44,408.69,192.53,406.82z"/>
		<path class="st13" d="M177.71,405.07c1.09-1.01,2.81-3.21,1.33-4.61c-0.51-0.48-1.84-1.01-2.36-0.42
			c-0.13,0.15-0.15-0.19-0.15-0.19c-1.81-0.02-1.47,3.18-1.54,4.31c-0.02,0.65-0.3,1.68,0.31,2.09
			C176.13,406.81,177.17,405.56,177.71,405.07z"/>
		<path class="st13" d="M178.4,418.22c-0.31-0.02-0.5,0.12-0.5,0.12c-2.06-0.16-2.64,1.68-3.03,3.26c-0.16,0.6-0.74,1.67-0.35,2.19
			c0.56,0.72,1.59,0.04,2.19-0.19c1.63-0.61,3.35-1.39,3.1-3.48C179.74,419.41,179.24,418.27,178.4,418.22z"/>
		<path class="st13" d="M166.43,420.02c-0.98-1.6-2.37-0.89-2.37-0.89c-1.74-0.69-5.3,8.61,0.29,5.13
			C165.83,423.35,167.61,421.94,166.43,420.02z"/>
		<path class="st13" d="M149.82,426.49c1-0.98,2.41-3.41,1.96-4.85c-0.67-2.11-2.64-1.23-2.64-1.23c-1.86-0.05-1.29,2.57-1.17,3.67
			C148.08,425.38,147.81,428.47,149.82,426.49z"/>
		<path class="st13" d="M136.28,415.14c-1.82-0.15-1.88,1.42-1.88,1.42c-0.39,1.09,0.91,3.4,1.75,4.05c1.68,1.28,1.82-1.2,1.92-2.31
			C138.19,416.96,137.96,415.28,136.28,415.14z"/>
		<path class="st13" d="M134.22,398.38c-0.28-0.46-1.2-0.95-1.71-0.61c-0.25,0.18-0.38,0.1-0.38,0.1c-1.82,0.18-0.25,2.85,0.07,3.66
			c0.42,1.02,1.24,3.95,1.83,1.29C134.25,401.91,134.69,399.15,134.22,398.38z"/>
		<path class="st13" d="M201.54,399.31c-0.28-0.46-1.2-0.95-1.7-0.6c-0.26,0.17-0.39,0.1-0.39,0.1c-1.82,0.18-0.25,2.84,0.08,3.66
			c0.41,1.02,1.22,3.95,1.83,1.28C201.57,402.84,202.01,400.08,201.54,399.31z"/>
		<path class="st13" d="M133.2,378.45c0.39-0.33,1.38-0.47,1.74,0.04c0.19,0.26,0.32,0.23,0.32,0.23c1.62,0.83-0.62,2.78-1.15,3.43
			c-0.67,0.82-2.28,3.3-2.06,0.57C132.13,381.77,132.54,379.01,133.2,378.45z"/>
		<path class="st13" d="M171.48,432.37c-0.28-2.15-3.04-1.16-3.98-0.39c-0.62,0.49-3.71,2.67-2.56,3.19
			c0.4,0.19,1.51-0.27,1.94-0.32c0.67-0.08,1.29-0.12,1.93-0.3C169.6,434.34,171.48,432.37,171.48,432.37z"/>
		<path class="st13" d="M191.35,421.51c-0.29-2.15-3.03-1.16-3.99-0.39c-0.61,0.49-3.7,2.66-2.55,3.18c0.4,0.19,1.52-0.27,1.95-0.32
			c0.65-0.08,1.28-0.11,1.92-0.29C189.47,423.47,191.35,421.51,191.35,421.51z"/>
		<path class="st13" d="M141.92,433.07c0,0,0.43,1.64,1,2.48c1.06,1.56,1.65-0.96,1.87-1.84c0.36-1.37,0.54-2.75-1.14-3.07
			C141.76,430.28,141.72,431.62,141.92,433.07z"/>
		<path class="st13" d="M152.01,434.06l1.47-0.5c-1.27-0.16-4.88,2.31-5.04,3.64c-0.2,1.59,2.57,0.74,3.56,0.71
			c1.41-0.05,3.66,0.16,3.76-1.88C155.86,434.41,153.35,433.02,152.01,434.06z"/>
	</g>
	<g class="st14">
		<path class="st5" d="M113.83,252.4c-0.4-7.76,11.8-19.15,0.5-21.87c0,0-6.47,0.77-8.27,8.08c-1,4.02-0.33,9.89,0.81,13.78
			c2.77,9.38,11.53,21.15,22.59,22.67C121.98,269.66,114.35,262.26,113.83,252.4z"/>
	</g>
	<path class="st4" d="M111.24,207.47l-10.31-0.9C104.31,206.89,107.75,207.19,111.24,207.47z"/>
	<path class="st4" d="M116.32,207.91c0.01-0.02,0.01-0.03,0.01-0.05c-1.71-0.12-3.4-0.25-5.09-0.39L116.32,207.91z"/>
	<path class="st4" d="M235.37,207.91l4.02-0.35c-1.33,0.11-2.67,0.21-4.03,0.31C235.36,207.88,235.37,207.89,235.37,207.91z"/>
	<path class="st4" d="M100.86,206.57l0.08,0.01C100.91,206.57,100.88,206.57,100.86,206.57L100.86,206.57z"/>
	<path class="st4" d="M303.56,184.98c-15.49,3.36-34.61,6.1-56.18,8.01c-10.09-27.86-38.24-47.97-71.53-47.97
		c-33.21,0-61.27,20-71.45,47.74c-20.56-1.89-38.85-4.53-53.74-7.77c-9.72-2.11-17.91-4.48-24.44-7.03l2.31,15.33
		c5.88,2.07,12.86,4,20.93,5.75c14.32,3.11,31.82,5.66,51.4,7.54c0.02,0,0.05,0,0.08,0.01l10.31,0.9c1.69,0.13,3.37,0.27,5.09,0.39
		c0.84-4.82,2.52-9.39,4.57-13.8c9.36-20.1,30.26-34.92,54.96-34.92c24.75,0,45.71,14.9,55.03,35.1c2.01,4.35,3.66,8.87,4.48,13.62
		c1.35-0.1,2.69-0.2,4.03-0.31l11.44-0.99c-0.01-0.02-0.01-0.03-0.01-0.05c19.63-1.86,37.23-4.37,51.56-7.49
		c8.08-1.75,15.04-3.68,20.92-5.75l2.18-14.41C319.4,181.07,312.1,183.13,303.56,184.98z"/>
	<g class="st15">
		<path class="st9" d="M137.83,383.48c-6.92-3.43-16.59-12.24-21.16-18.12c-8.18-10.52-14.62-21.51-18.52-34.05
			c-7.29-23.46-11.59-47.25-15.61-71.34c-3.79-22.69-10.13-48.33-7.89-71.34c1.1-11.35,4.99-24.25,9.59-34.86
			c2.82-6.5,21.85-27.56,32.1-32.02c-14.44-0.2-34.27-1.53-47.28-4.86c-10.44-2.68-35.67-8.11-46.54-13.18
			c-0.11,1.37,6.22,58.77,7.89,69.73c3.46,22.54,7.85,44.68,11.24,67.24c3.38,22.32,16.14,130.89,23.97,138.39
			c8.87,8.5,31.11,10.97,43.07,12.51c14.16,1.82,41.11,4.78,57.32,2.59C155.83,391.73,143.1,386.11,137.83,383.48z"/>
	</g>
	<g class="st16">
		<path class="st17" d="M303.7,63.78c-28.48,8.2-57.66,10.15-87.21,13.19c-13.95,1.43-27.88-1.75-41.74-3.26
			c-15.56-1.7-31.2,0.11-46.76-1.17c-32.04-2.64-64.86-6.23-96.99-5.31c-1.92,3.9,0.97,7.55,5.42,7.9l-4.35-3.25
			c18.93,7.55,43.13,10.5,63.51,13.78c20.99,3.38,43.85,6.67,65.16,7.3c56.35,1.65,126.54-6.95,130.46-0.88
			c5.89,8.99-35.83,16.05-50.94,20.3c8.23,5,30.6-0.34,40.18-2.03c14.69-2.59,29.03-6.6,43.27-10.9
			c9.58-2.89,11.83-3.17,12.83-12.14c0.74-6.7,0.51-13.96,0.81-20.68C338.23,47.68,316.21,60.18,303.7,63.78z"/>
	</g>
	<g class="st15">
		<path class="st17" d="M333.52,98.84c-13.91,5.28-33.19,10.94-47.41,14.35c-9.3,2.23-43.07,4.91-43.07,4.91
			c5.09,12.44,13.57,17.11,18.26,29.61c4.66,12.35,5.66,34.52,5.66,47.41c0,24.96-0.39,48.93-2.56,73.78
			c-2.17,24.72-7.16,49.23-11.11,73.77c-3.31,20.56-31.01,50.21-54.06,55.63c24.61-1.04,73.53-3.69,91.06-18.77
			c8.75-7.52,28.99-186.87,33.67-209.94C326.34,157.89,334.29,107.2,333.52,98.84z"/>
	</g>
	<path class="st18" d="M350.41,48.78c0,19.77-78.12,35.8-174.5,35.8c-96.39,0-174.51-16.03-174.51-35.8
		c0-19.78,78.12-35.81,174.51-35.81C272.29,12.98,350.41,29.01,350.41,48.78z"/>
	<path class="st5" d="M175.91,8.11c-96.38,0-174.5,16.03-174.5,35.8c0,3.92,3.18,7.69,8.86,11.22L2.38,72.73
		c-3.6,8.05,0.48,17.31,9.12,20.67c8.65,3.36,18.59-0.44,22.19-8.5l8.1-18.08c32.01,7.88,80.19,12.91,134.12,12.91
		c96.38,0,174.5-16.03,174.5-35.81C350.41,24.14,272.29,8.11,175.91,8.11z"/>
	<g class="st14">
		<path class="st9" d="M38.42,65.1c-2.61-0.61-11.16-2.57-13.97-3.47c-4.24-1.35-12.56-5.24-12.56-5.24
			c-3.28,6.06-10.22,17.18-8.9,23.87c2.1,10.69,14.91,15.53,23.53,9.56C30.44,87.1,38.42,65.1,38.42,65.1z"/>
	</g>
	<g class="st19">
		<path class="st9" d="M211.94,15.51c-18.31-1.77-36.14-2.65-54.55-2.69c-17.66-0.04-36.57,0.01-54.1,2.3
			c-18.3,2.39-37.06,4.68-54.61,10.14c-7.45,2.32-37.15,9.2-34.14,20.6c0.09,0.52,0.27,0.97,0.5,1.45c0.12,0.24,0.29,0.49,0.43,0.73
			c0.36,0.57,0.67,1.14,1.18,1.61c0.14,0.16,0.2,0.3,0.34,0.46c7.18,7.74,21.83,9.28,31.68,12.44
			c12.26,3.93,76.64,12.24,95.99,12.43c36.34,0.36,71.76-1.31,107.57-7.45c10.34-1.77,45.84-7.14,53.37-23.61
			C313.04,27.69,245.56,18.77,211.94,15.51z"/>
	</g>
	<g>
		<path class="st7" d="M119.88,308.75c0,0-2.01,1.74-2.81,2.82l-7.36,9.89l-0.28,2.05c-0.25,1.8-0.21,3.7-0.21,4.22l2.48,0.51
			l-0.56,2.72c0,0-3.1-0.56-7.47-1.07c-1.82-0.21-3.9-0.28-3.9-0.28l0.15-2.54l2.61-0.13c0.09-0.36,0.68-2.34,0.77-3.06l0.42-3.1
			l-5.29-12.62c-0.42-0.93-1.59-2.17-1.59-2.17l-2.27-0.6l0.53-2.5c0,0,2.11,0.43,3.54,0.6c4.37,0.51,8.07,0.76,8.07,0.76
			l-0.17,2.65l-2.09,0.08c0,0,0.12,1.22,0.4,1.95l3.05,7.93l5.35-7.46c0.19-0.27,0.33-1.35,0.33-1.35l-1.65-0.63l0.54-2.5
			c0,0,2.42,0.47,4.23,0.68c3.2,0.37,5.7,0.49,5.7,0.49l-0.16,2.65L119.88,308.75z"/>
		<path class="st7" d="M132.91,333.4c-8.43-0.56-13.48-6.21-12.85-14.36c0.63-8.18,6.47-13.12,14.9-12.55
			c8.45,0.56,13.47,6.21,12.85,14.39C147.2,329.03,141.35,333.96,132.91,333.4z M133.18,329.88c4.66,0.31,7.12-2.73,7.64-9.47
			c0.51-6.77-1.47-10.11-6.13-10.42c-4.66-0.3-7.12,2.73-7.64,9.51C126.55,326.24,128.52,329.57,133.18,329.88z"/>
		<path class="st7" d="M173.22,309.29l-0.64,5.97l-3.07-0.21l-0.08-1.71c0.01-0.22-0.26-1.02-0.43-1.49
			c-1.7-0.36-3.09-0.57-4.72-0.6c-5.21-0.11-7.37,4.23-7.51,9.77c-0.13,5.54,1.79,10,7.01,10.11c1.32,0.03,2.53-0.06,3.8-0.21
			c0.18-0.65,0.31-1.23,0.32-1.52l0.06-2.47c0.01-0.72-0.34-2.22-0.34-2.22l-4.11-0.37l0.28-3.55l4.32,0.09
			c1.27,0.03,4.47-0.01,4.47-0.01l1.06,0.92c0,0-0.42,3.43-0.49,5.24l-0.14,6.41c-2.69,0.52-5.78,1.12-9.28,1.05
			c-9.45-0.19-14.14-5.69-13.96-13.59c0.2-7.89,5.14-13.23,14.6-13.03C167.89,307.95,170.55,308.66,173.22,309.29z"/>
		<path class="st7" d="M205.06,310.68l-2.55,0.29c-0.12,0.51-0.29,2.22-0.28,2.94l0.3,9.93c0.17,6.19-3.6,10.35-10.99,10.54
			c-7.42,0.19-11.35-3.77-11.53-9.97l-0.25-8.84c-0.05-1.81-0.34-3.5-0.46-4.01l-2.55-0.37l0.1-2.72c0,0,2.07,0.13,3.9,0.09
			c4.41-0.12,7.74-0.38,7.74-0.38l0.28,2.93l-2.56,0.28c-0.11,0.4-0.29,2.22-0.28,2.95l0.31,10.21c0.09,3.25,2.15,5.78,5.84,5.68
			c4.07-0.1,5.42-2.35,5.31-5.97l-0.27-9.12c-0.06-1.81-0.37-3.47-0.46-4.01l-2.55-0.37l0.12-2.72c0,0,2.06,0.13,3.9,0.08
			c4.39-0.11,6.63-0.35,6.63-0.35L205.06,310.68z"/>
		<path class="st7" d="M228.98,313.53c0.25,3.08-1.48,5.64-4.17,7.22c2.11,3.24,4.48,6.06,4.7,6.33l1.53,1.93l1.87,0.01l0.04,2.77
			c0,0-3.05,0.04-7.45,0.35c0,0-1.68-3.23-2.25-4.07l-3.71-5.6l-0.57,0.03c-0.43,0.03-1.06,0.04-1.73,0.01l0.26,3.16
			c0.15,1.81,0.57,3.68,0.69,4.17l2.54,0.03l0.05,2.77c0,0-3.17,0.05-7.56,0.36c-1.82,0.13-3.88,0.46-3.88,0.46l-0.41-2.52
			l2.55-0.62c0-0.37,0.15-2.42,0.09-3.15l-1.04-12.63c-0.15-1.78-0.54-3.32-0.68-4l-2.56-0.26l-0.02-2.73c0,0,2.07,0.04,4.01-0.1
			c2.22-0.16,5.89-0.79,7.98-0.93C224.66,306.15,228.58,308.75,228.98,313.53z M216.43,309.76c-0.02,1.09,0,2.77,0.04,3.27
			l0.53,6.56l0.93-0.06c3.7-0.27,5.06-2.15,4.79-5.48c-0.26-3.19-1.99-4.63-5.48-4.38C217.06,309.68,216.78,309.7,216.43,309.76z"/>
		<path class="st7" d="M252.6,309.84c-0.12-0.54-0.48-1.92-0.71-2.44c-0.06-0.14-0.25-0.45-0.45-0.79
			c-0.72,0.01-1.82,0.03-2.97,0.17l-1.98,0.25c-0.04,0.59-0.04,2.23,0.07,2.96l1.78,12.57c0.25,1.8,0.79,3.64,0.94,4.14l2.53-0.09
			l0.19,2.76c0,0-3.15,0.21-7.53,0.75c-1.81,0.22-3.84,0.65-3.84,0.65l-0.55-2.49l2.5-0.75c-0.02-0.37,0.01-2.42-0.1-3.14
			l-1.78-12.57c-0.24-1.76-0.74-3.35-0.91-3.96l-1.82,0.22c-1.16,0.15-2.29,0.4-3.07,0.56c-0.1,0.38-0.22,0.72-0.23,0.87
			c-0.07,0.56-0.03,1.98,0,2.53l-2.81,0.16l-0.57-6.01l0.64-0.74c0,0,3.68-0.08,4.46-0.18l12.6-1.55c0.78-0.1,4.36-0.9,4.36-0.9
			l0.81,0.56l1.16,5.94L252.6,309.84z"/>
	</g>
	<g class="st16">
		<path class="st17" d="M333.52,98.84c-7.03,4.62-15.26,7-23.33,9.53c-6.36,1.99-27.28,7.13-29.91,7.84
			c-0.7,4.44,5.45,12.95,7,17.83c1.77,5.57,4.01,11.33,5.17,17.02c1.13,5.53,0.98,11.5,0.61,17.03c-0.37,5.44-2.27,13.8-3.58,18.08
			c8.02-0.92,28.98-5.19,31.06-8.13c2.85-4.03,7.96-42.63,9-51.84C330.37,118.82,333.89,106.65,333.52,98.84z"/>
	</g>
	<g class="st16">
		<path class="st17" d="M279.15,354.01l-1.16,0.54c-3.03,3.32-3.33,7.99-5.18,11.89c-2.58,5.41-6.53,10.59-11.61,14.23
			c-8.92,6.39-21.35,7.95-30.01,13.94c14.58,1.25,31.6-5.77,45.92-8.44c10.02-1.87,13.46-4.98,15.84-14.33
			c1.06-4.17,4.25-18.74,1.37-21.52C289.8,352.09,283.94,353.09,279.15,354.01z"/>
	</g>
	<g class="st8">
		<path class="st9" d="M26.28,108.39c0.01-0.02,0.03-0.04,0.05-0.05c-0.02-0.07-0.02-0.17-0.05-0.24V108.39z"/>
		<path class="st9" d="M65.35,153.77c1.61-7.56,5.05-15.14,9.03-21.88c5-8.5,9.77-12.19-3.16-14c-8.81-1.24-17.54-2.97-26.14-5.2
			c-3.51-0.91-17.8-5.04-20.42-5.95c0.66,6.1,3.75,36.8,4.5,44.05c0.75,7.3,2.38,17.83,3.02,24.84c0.53,5.58,10.69,6.87,19.91,8.09
			c9.88,1.3,11.07,1.61,11.3-8.07C63.56,168.17,63.78,161.13,65.35,153.77z"/>
		<path class="st9" d="M97.07,368.88c-5.05-6.31-4.39-11.61-13.38-13.11c-6.79-1.14-16.13-1.65-22.45-4.49
			c0.99,3.66,4.31,23.7,6.23,26.66c3.89,6.01,15.66,7.96,22.6,9.25c15.17,2.85,29.58,4.45,45.64,6.61
			C121.07,387.77,107.04,381.32,97.07,368.88z"/>
	</g>
</g>
</svg>
